G04 #@! TF.GenerationSoftware,KiCad,Pcbnew,(5.1.9)-1*
G04 #@! TF.CreationDate,2023-02-20T21:36:59+01:00*
G04 #@! TF.ProjectId,Base,42617365-2e6b-4696-9361-645f70636258,rev?*
G04 #@! TF.SameCoordinates,PXd59f80PYd59f80*
G04 #@! TF.FileFunction,Paste,Bot*
G04 #@! TF.FilePolarity,Positive*
%FSLAX46Y46*%
G04 Gerber Fmt 4.6, Leading zero omitted, Abs format (unit mm)*
G04 Created by KiCad (PCBNEW (5.1.9)-1) date 2023-02-20 21:36:59*
%MOMM*%
%LPD*%
G01*
G04 APERTURE LIST*
%ADD10R,0.250000X1.300000*%
%ADD11R,1.300000X0.250000*%
%ADD12R,0.700000X1.000000*%
%ADD13R,0.700000X0.700000*%
%ADD14R,1.600000X3.500000*%
%ADD15R,1.000000X0.700000*%
%ADD16R,1.200000X1.600000*%
%ADD17R,1.200000X1.120000*%
%ADD18R,0.450000X1.200000*%
%ADD19R,1.200000X1.700000*%
%ADD20R,1.700000X1.200000*%
%ADD21R,0.550000X1.200000*%
%ADD22R,5.600000X2.000000*%
%ADD23R,0.900000X0.450000*%
%ADD24R,0.600000X1.600000*%
%ADD25R,0.400000X1.100000*%
%ADD26R,1.200000X1.200000*%
G04 APERTURE END LIST*
D10*
X23550000Y-43750000D03*
X23050000Y-43750000D03*
X22550000Y-43750000D03*
X22050000Y-43750000D03*
X21550000Y-43750000D03*
X21050000Y-43750000D03*
X20550000Y-43750000D03*
X20050000Y-43750000D03*
X19550000Y-43750000D03*
X19050000Y-43750000D03*
X18550000Y-43750000D03*
X18050000Y-43750000D03*
X17550000Y-43750000D03*
X17050000Y-43750000D03*
X16550000Y-43750000D03*
X16050000Y-43750000D03*
D11*
X13950000Y-45850000D03*
X13950000Y-46350000D03*
X13950000Y-46850000D03*
X13950000Y-47350000D03*
X13950000Y-47850000D03*
X13950000Y-48350000D03*
X13950000Y-48850000D03*
X13950000Y-49350000D03*
X13950000Y-49850000D03*
X13950000Y-50350000D03*
X13950000Y-50850000D03*
X13950000Y-51350000D03*
X13950000Y-51850000D03*
X13950000Y-52350000D03*
X13950000Y-52850000D03*
X13950000Y-53350000D03*
D10*
X16050000Y-55450000D03*
X16550000Y-55450000D03*
X17050000Y-55450000D03*
X17550000Y-55450000D03*
X18050000Y-55450000D03*
X18550000Y-55450000D03*
X19050000Y-55450000D03*
X19550000Y-55450000D03*
X20050000Y-55450000D03*
X20550000Y-55450000D03*
X21050000Y-55450000D03*
X21550000Y-55450000D03*
X22050000Y-55450000D03*
X22550000Y-55450000D03*
X23050000Y-55450000D03*
X23550000Y-55450000D03*
D11*
X25650000Y-53350000D03*
X25650000Y-52850000D03*
X25650000Y-52350000D03*
X25650000Y-51850000D03*
X25650000Y-51350000D03*
X25650000Y-50850000D03*
X25650000Y-50350000D03*
X25650000Y-49850000D03*
X25650000Y-49350000D03*
X25650000Y-48850000D03*
X25650000Y-48350000D03*
X25650000Y-47850000D03*
X25650000Y-47350000D03*
X25650000Y-46850000D03*
X25650000Y-46350000D03*
X25650000Y-45850000D03*
D12*
X27050000Y-28200000D03*
X28550000Y-28200000D03*
X28550000Y-33000000D03*
X27050000Y-33000000D03*
D13*
X14000000Y-9850000D03*
X14000000Y-11350000D03*
D14*
X8440000Y-7400000D03*
X3560000Y-7400000D03*
D12*
X28550000Y-15600000D03*
X27050000Y-15600000D03*
X28550000Y-26200000D03*
X27050000Y-26200000D03*
D15*
X15800000Y-15550000D03*
X15800000Y-14050000D03*
D12*
X28550000Y-21600000D03*
X27050000Y-21600000D03*
X28550000Y-19600000D03*
X27050000Y-19600000D03*
D16*
X17650000Y-6800000D03*
X14350000Y-6800000D03*
D17*
X23150000Y-17600000D03*
X21650000Y-17600000D03*
D18*
X21450000Y-19300000D03*
X22400000Y-19300000D03*
X23350000Y-19300000D03*
X21450000Y-15900000D03*
X23350000Y-15900000D03*
X22400000Y-15900000D03*
D12*
X6850000Y-10400000D03*
X8350000Y-10400000D03*
D15*
X17600000Y-14050000D03*
X17600000Y-15550000D03*
D19*
X14200000Y-17800000D03*
X17400000Y-17800000D03*
D12*
X28550000Y-17600000D03*
X27050000Y-17600000D03*
D20*
X11400000Y-20600000D03*
X11400000Y-23800000D03*
D21*
X16800000Y-9393500D03*
X17752500Y-9393500D03*
X15847500Y-9393500D03*
X15847500Y-11806500D03*
X16800000Y-11806500D03*
X17752500Y-11806500D03*
D22*
X22400000Y-6600000D03*
X22400000Y-11400000D03*
D15*
X14000000Y-14050000D03*
X14000000Y-15550000D03*
X17600000Y-20050000D03*
X17600000Y-21550000D03*
X11400000Y-17050000D03*
X11400000Y-18550000D03*
X15800000Y-21550000D03*
X15800000Y-20050000D03*
D13*
X14000000Y-21550000D03*
X14000000Y-20050000D03*
D12*
X3650000Y-10400000D03*
X5150000Y-10400000D03*
D23*
X28850000Y-31250000D03*
X28850000Y-29950000D03*
X26750000Y-30600000D03*
D20*
X11400000Y-6200000D03*
X11400000Y-9400000D03*
X11400000Y-15000000D03*
X11400000Y-11800000D03*
D12*
X27050000Y-35000000D03*
X28550000Y-35000000D03*
D24*
X20495000Y-33300000D03*
X21765000Y-33300000D03*
X20495000Y-27900000D03*
X21765000Y-27900000D03*
X23035000Y-33300000D03*
X24305000Y-33300000D03*
X23035000Y-27900000D03*
X24305000Y-27900000D03*
D25*
X14600000Y-39250000D03*
X14600000Y-37550000D03*
X17000000Y-37550000D03*
X17000000Y-39250000D03*
X16200000Y-39250000D03*
X16200000Y-37550000D03*
X15400000Y-37550000D03*
X15400000Y-39250000D03*
D15*
X28600000Y-51850000D03*
X28600000Y-53350000D03*
X26600000Y-42050000D03*
X26600000Y-43550000D03*
X28600000Y-43550000D03*
X28600000Y-42050000D03*
X28600000Y-50500000D03*
X28600000Y-49000000D03*
X28600000Y-55050000D03*
X28600000Y-56550000D03*
X24600000Y-39150000D03*
X24600000Y-37650000D03*
D21*
X26647500Y-37193500D03*
X27600000Y-37193500D03*
X28552500Y-37193500D03*
X28552500Y-39606500D03*
X26647500Y-39606500D03*
D26*
X28600000Y-45200000D03*
X28600000Y-47200000D03*
D24*
X13895000Y-33300000D03*
X15165000Y-33300000D03*
X13895000Y-27900000D03*
X15165000Y-27900000D03*
X16435000Y-33300000D03*
X17705000Y-33300000D03*
X16435000Y-27900000D03*
X17705000Y-27900000D03*
D12*
X10050000Y-32600000D03*
X11550000Y-32600000D03*
X10050000Y-30600000D03*
X11550000Y-30600000D03*
X11550000Y-28600000D03*
X10050000Y-28600000D03*
M02*
