G04 #@! TF.GenerationSoftware,KiCad,Pcbnew,(5.1.9)-1*
G04 #@! TF.CreationDate,2023-02-20T21:36:59+01:00*
G04 #@! TF.ProjectId,Base,42617365-2e6b-4696-9361-645f70636258,rev?*
G04 #@! TF.SameCoordinates,PXd59f80PYd59f80*
G04 #@! TF.FileFunction,Legend,Bot*
G04 #@! TF.FilePolarity,Positive*
%FSLAX46Y46*%
G04 Gerber Fmt 4.6, Leading zero omitted, Abs format (unit mm)*
G04 Created by KiCad (PCBNEW (5.1.9)-1) date 2023-02-20 21:36:59*
%MOMM*%
%LPD*%
G01*
G04 APERTURE LIST*
%ADD10C,0.100000*%
%ADD11C,0.120000*%
%ADD12C,0.060000*%
%ADD13C,0.080000*%
%ADD14C,0.150000*%
%ADD15C,0.260000*%
%ADD16C,0.050000*%
%ADD17C,0.070000*%
%ADD18C,0.030000*%
%ADD19R,0.250000X1.300000*%
%ADD20R,1.300000X0.250000*%
%ADD21R,0.700000X1.000000*%
%ADD22C,1.500000*%
%ADD23C,2.800000*%
%ADD24R,0.700000X0.700000*%
%ADD25R,1.600000X3.500000*%
%ADD26R,1.000000X0.700000*%
%ADD27O,1.350000X1.350000*%
%ADD28C,1.350000*%
%ADD29C,1.600000*%
%ADD30C,2.300000*%
%ADD31C,2.200000*%
%ADD32R,1.200000X1.600000*%
%ADD33R,1.500000X1.400000*%
%ADD34R,0.450000X1.200000*%
%ADD35R,1.200000X1.700000*%
%ADD36R,1.700000X1.200000*%
%ADD37R,0.550000X1.200000*%
%ADD38R,5.600000X2.000000*%
%ADD39R,0.900000X0.450000*%
%ADD40R,0.600000X1.600000*%
%ADD41C,0.350000*%
%ADD42C,1.800000*%
%ADD43R,0.400000X1.100000*%
%ADD44R,1.200000X1.200000*%
G04 APERTURE END LIST*
D10*
G36*
X23900000Y-46350000D02*
G01*
X24400000Y-45850000D01*
X23900000Y-45350000D01*
X23900000Y-46350000D01*
G37*
X23900000Y-46350000D02*
X24400000Y-45850000D01*
X23900000Y-45350000D01*
X23900000Y-46350000D01*
D11*
X24800000Y-44600000D02*
X14800000Y-44600000D01*
X14800000Y-44600000D02*
X14800000Y-54600000D01*
X14800000Y-54600000D02*
X24800000Y-54600000D01*
X24800000Y-54600000D02*
X24800000Y-44600000D01*
D12*
X27300000Y-27800000D02*
X28300000Y-27800000D01*
X28300000Y-28600000D02*
X27300000Y-28600000D01*
G36*
X28300000Y-28600000D02*
G01*
X28600000Y-28600000D01*
X28600000Y-27800000D01*
X28300000Y-27800000D01*
X28300000Y-28600000D01*
G37*
X28300000Y-28600000D02*
X28600000Y-28600000D01*
X28600000Y-27800000D01*
X28300000Y-27800000D01*
X28300000Y-28600000D01*
G36*
X27000000Y-28600000D02*
G01*
X27300000Y-28600000D01*
X27300000Y-27800000D01*
X27000000Y-27800000D01*
X27000000Y-28600000D01*
G37*
X27000000Y-28600000D02*
X27300000Y-28600000D01*
X27300000Y-27800000D01*
X27000000Y-27800000D01*
X27000000Y-28600000D01*
X28300000Y-33400000D02*
X27300000Y-33400000D01*
X27300000Y-32600000D02*
X28300000Y-32600000D01*
G36*
X27300000Y-32600000D02*
G01*
X27000000Y-32600000D01*
X27000000Y-33400000D01*
X27300000Y-33400000D01*
X27300000Y-32600000D01*
G37*
X27300000Y-32600000D02*
X27000000Y-32600000D01*
X27000000Y-33400000D01*
X27300000Y-33400000D01*
X27300000Y-32600000D01*
G36*
X28600000Y-32600000D02*
G01*
X28300000Y-32600000D01*
X28300000Y-33400000D01*
X28600000Y-33400000D01*
X28600000Y-32600000D01*
G37*
X28600000Y-32600000D02*
X28300000Y-32600000D01*
X28300000Y-33400000D01*
X28600000Y-33400000D01*
X28600000Y-32600000D01*
D13*
X14450000Y-10450000D02*
X13550000Y-10450000D01*
X13550000Y-10400000D02*
X14450000Y-10400000D01*
X14450000Y-10350000D02*
X13550000Y-10350000D01*
X13550000Y-10300000D02*
X14450000Y-10300000D01*
X13550000Y-9950000D02*
X13550000Y-11250000D01*
X14450000Y-11250000D02*
X14450000Y-9950000D01*
X13550000Y-9950000D02*
X14450000Y-9950000D01*
X13550000Y-11250000D02*
X14450000Y-11250000D01*
D11*
X7600000Y-9000000D02*
X8300000Y-9000000D01*
X8300000Y-9000000D02*
X8300000Y-5800000D01*
X3700000Y-9000000D02*
X3700000Y-5800000D01*
X4400000Y-9000000D02*
X8300000Y-9000000D01*
X8300000Y-5800000D02*
X3700000Y-5800000D01*
X3700000Y-9000000D02*
X4400000Y-9000000D01*
D10*
G36*
X4450000Y-5800000D02*
G01*
X3700000Y-5800000D01*
X3700000Y-9000000D01*
X4450000Y-9000000D01*
X4450000Y-5800000D01*
G37*
X4450000Y-5800000D02*
X3700000Y-5800000D01*
X3700000Y-9000000D01*
X4450000Y-9000000D01*
X4450000Y-5800000D01*
G36*
X8300000Y-5800000D02*
G01*
X7550000Y-5800000D01*
X7550000Y-9000000D01*
X8300000Y-9000000D01*
X8300000Y-5800000D01*
G37*
X8300000Y-5800000D02*
X7550000Y-5800000D01*
X7550000Y-9000000D01*
X8300000Y-9000000D01*
X8300000Y-5800000D01*
D12*
X28300000Y-16000000D02*
X27300000Y-16000000D01*
X27300000Y-15200000D02*
X28300000Y-15200000D01*
G36*
X27300000Y-15200000D02*
G01*
X27000000Y-15200000D01*
X27000000Y-16000000D01*
X27300000Y-16000000D01*
X27300000Y-15200000D01*
G37*
X27300000Y-15200000D02*
X27000000Y-15200000D01*
X27000000Y-16000000D01*
X27300000Y-16000000D01*
X27300000Y-15200000D01*
G36*
X28600000Y-15200000D02*
G01*
X28300000Y-15200000D01*
X28300000Y-16000000D01*
X28600000Y-16000000D01*
X28600000Y-15200000D01*
G37*
X28600000Y-15200000D02*
X28300000Y-15200000D01*
X28300000Y-16000000D01*
X28600000Y-16000000D01*
X28600000Y-15200000D01*
X28300000Y-26600000D02*
X28300000Y-25800000D01*
X28600000Y-25800000D02*
X28600000Y-26600000D01*
X28550000Y-25800000D02*
X28550000Y-26600000D01*
X28350000Y-26600000D02*
X28350000Y-25800000D01*
X28400000Y-26600000D02*
X28400000Y-25800000D01*
X28450000Y-25800000D02*
X28450000Y-26600000D01*
X28500000Y-26600000D02*
X28500000Y-25800000D01*
X27200000Y-26600000D02*
X27200000Y-25800000D01*
X27150000Y-25800000D02*
X27150000Y-26600000D01*
X27100000Y-26600000D02*
X27100000Y-25800000D01*
X27050000Y-26600000D02*
X27050000Y-25800000D01*
X27250000Y-25800000D02*
X27250000Y-26600000D01*
X28300000Y-25800000D02*
X28300000Y-26600000D01*
X27300000Y-25800000D02*
X27300000Y-26600000D01*
X28600000Y-26600000D02*
X27000000Y-26600000D01*
X27000000Y-26600000D02*
X27000000Y-25800000D01*
X27000000Y-25800000D02*
X28600000Y-25800000D01*
X28600000Y-25800000D02*
X28600000Y-26600000D01*
X15400000Y-15300000D02*
X15400000Y-14300000D01*
X16200000Y-14300000D02*
X16200000Y-15300000D01*
G36*
X16200000Y-14300000D02*
G01*
X16200000Y-14000000D01*
X15400000Y-14000000D01*
X15400000Y-14300000D01*
X16200000Y-14300000D01*
G37*
X16200000Y-14300000D02*
X16200000Y-14000000D01*
X15400000Y-14000000D01*
X15400000Y-14300000D01*
X16200000Y-14300000D01*
G36*
X16200000Y-15600000D02*
G01*
X16200000Y-15300000D01*
X15400000Y-15300000D01*
X15400000Y-15600000D01*
X16200000Y-15600000D01*
G37*
X16200000Y-15600000D02*
X16200000Y-15300000D01*
X15400000Y-15300000D01*
X15400000Y-15600000D01*
X16200000Y-15600000D01*
X28300000Y-22000000D02*
X27300000Y-22000000D01*
X27300000Y-21200000D02*
X28300000Y-21200000D01*
G36*
X27300000Y-21200000D02*
G01*
X27000000Y-21200000D01*
X27000000Y-22000000D01*
X27300000Y-22000000D01*
X27300000Y-21200000D01*
G37*
X27300000Y-21200000D02*
X27000000Y-21200000D01*
X27000000Y-22000000D01*
X27300000Y-22000000D01*
X27300000Y-21200000D01*
G36*
X28600000Y-21200000D02*
G01*
X28300000Y-21200000D01*
X28300000Y-22000000D01*
X28600000Y-22000000D01*
X28600000Y-21200000D01*
G37*
X28600000Y-21200000D02*
X28300000Y-21200000D01*
X28300000Y-22000000D01*
X28600000Y-22000000D01*
X28600000Y-21200000D01*
X28300000Y-20000000D02*
X27300000Y-20000000D01*
X27300000Y-19200000D02*
X28300000Y-19200000D01*
G36*
X27300000Y-19200000D02*
G01*
X27000000Y-19200000D01*
X27000000Y-20000000D01*
X27300000Y-20000000D01*
X27300000Y-19200000D01*
G37*
X27300000Y-19200000D02*
X27000000Y-19200000D01*
X27000000Y-20000000D01*
X27300000Y-20000000D01*
X27300000Y-19200000D01*
G36*
X28600000Y-19200000D02*
G01*
X28300000Y-19200000D01*
X28300000Y-20000000D01*
X28600000Y-20000000D01*
X28600000Y-19200000D01*
G37*
X28600000Y-19200000D02*
X28300000Y-19200000D01*
X28300000Y-20000000D01*
X28600000Y-20000000D01*
X28600000Y-19200000D01*
D14*
X5746000Y-51890000D02*
X6000000Y-52144000D01*
X3714000Y-54430000D02*
X5746000Y-54430000D01*
X3714000Y-41730000D02*
X5746000Y-41730000D01*
X5746000Y-31570000D02*
X3714000Y-31570000D01*
X6000000Y-36396000D02*
X5746000Y-36650000D01*
X5746000Y-36650000D02*
X3714000Y-36650000D01*
X3460000Y-38936000D02*
X3460000Y-36904000D01*
X6000000Y-44016000D02*
X5746000Y-44270000D01*
X3460000Y-52144000D02*
X3714000Y-51890000D01*
X5746000Y-39190000D02*
X6000000Y-39444000D01*
X6000000Y-54176000D02*
X5746000Y-54430000D01*
X5746000Y-54684000D02*
X3714000Y-54684000D01*
X3714000Y-31316000D02*
X3714000Y-31570000D01*
X3460000Y-54176000D02*
X3460000Y-52144000D01*
X5746000Y-36650000D02*
X6000000Y-36904000D01*
X3460000Y-33856000D02*
X3714000Y-34110000D01*
X3714000Y-44270000D02*
X3460000Y-44016000D01*
X5746000Y-31570000D02*
X5746000Y-31316000D01*
X5746000Y-34110000D02*
X6000000Y-34364000D01*
X3714000Y-54430000D02*
X3460000Y-54176000D01*
X5746000Y-31316000D02*
X3714000Y-31316000D01*
X3714000Y-34110000D02*
X5746000Y-34110000D01*
X3460000Y-41476000D02*
X3460000Y-39444000D01*
X3460000Y-31824000D02*
X3460000Y-33856000D01*
X3460000Y-36904000D02*
X3714000Y-36650000D01*
X3714000Y-36650000D02*
X3460000Y-36396000D01*
X3714000Y-51890000D02*
X5746000Y-51890000D01*
X5746000Y-54430000D02*
X5746000Y-54684000D01*
X3460000Y-36396000D02*
X3460000Y-34364000D01*
X3714000Y-39190000D02*
X5746000Y-39190000D01*
X5746000Y-41730000D02*
X6000000Y-41984000D01*
X6000000Y-31824000D02*
X5746000Y-31570000D01*
X3460000Y-34364000D02*
X3714000Y-34110000D01*
X3714000Y-39190000D02*
X3460000Y-38936000D01*
X6000000Y-41476000D02*
X5746000Y-41730000D01*
X3460000Y-41984000D02*
X3714000Y-41730000D01*
X6000000Y-33856000D02*
X5746000Y-34110000D01*
X3714000Y-41730000D02*
X3460000Y-41476000D01*
X3460000Y-44016000D02*
X3460000Y-41984000D01*
X3714000Y-44270000D02*
X5746000Y-44270000D01*
X6000000Y-51636000D02*
X5746000Y-51890000D01*
X3714000Y-31570000D02*
X3460000Y-31824000D01*
X6000000Y-38936000D02*
X5746000Y-39190000D01*
X3460000Y-39444000D02*
X3714000Y-39190000D01*
X3714000Y-51890000D02*
X3460000Y-51636000D01*
X3714000Y-54684000D02*
X3714000Y-54430000D01*
X3460000Y-51636000D02*
X3460000Y-49604000D01*
X3714000Y-46810000D02*
X5746000Y-46810000D01*
X3460000Y-44524000D02*
X3714000Y-44270000D01*
X3714000Y-46810000D02*
X3460000Y-46556000D01*
X3714000Y-49350000D02*
X5746000Y-49350000D01*
X6000000Y-46556000D02*
X5746000Y-46810000D01*
X6000000Y-49096000D02*
X5746000Y-49350000D01*
X5746000Y-49350000D02*
X6000000Y-49604000D01*
X3460000Y-46556000D02*
X3460000Y-44524000D01*
X5746000Y-44270000D02*
X6000000Y-44524000D01*
X3460000Y-47064000D02*
X3714000Y-46810000D01*
X3460000Y-49096000D02*
X3460000Y-47064000D01*
X3714000Y-49350000D02*
X3460000Y-49096000D01*
X5746000Y-46810000D02*
X6000000Y-47064000D01*
X3460000Y-49604000D02*
X3714000Y-49350000D01*
D15*
X8222500Y-32014500D02*
G75*
G03*
X8222500Y-32014500I-127000J0D01*
G01*
D14*
X8286000Y-51890000D02*
X8540000Y-52144000D01*
X6000000Y-52144000D02*
X6254000Y-51890000D01*
X8540000Y-54176000D02*
X8286000Y-54430000D01*
X6254000Y-51890000D02*
X6000000Y-51636000D01*
X8540000Y-51636000D02*
X8286000Y-51890000D01*
X6254000Y-54684000D02*
X6254000Y-54430000D01*
X6254000Y-54430000D02*
X8286000Y-54430000D01*
X8286000Y-54684000D02*
X6254000Y-54684000D01*
X8540000Y-52144000D02*
X8540000Y-54176000D01*
X6254000Y-54430000D02*
X6000000Y-54176000D01*
X6254000Y-51890000D02*
X8286000Y-51890000D01*
X8286000Y-54430000D02*
X8286000Y-54684000D01*
X6000000Y-54176000D02*
X6000000Y-52144000D01*
X8540000Y-31824000D02*
X8286000Y-31570000D01*
X8540000Y-33856000D02*
X8286000Y-34110000D01*
X8540000Y-31824000D02*
X8540000Y-33856000D01*
X8286000Y-31570000D02*
X6254000Y-31570000D01*
X6000000Y-31824000D02*
X6000000Y-33856000D01*
X6254000Y-31570000D02*
X6000000Y-31824000D01*
X6254000Y-34110000D02*
X8286000Y-34110000D01*
X6000000Y-33856000D02*
X6254000Y-34110000D01*
X6000000Y-34364000D02*
X6254000Y-34110000D01*
X6000000Y-36396000D02*
X6000000Y-34364000D01*
X8540000Y-34364000D02*
X8540000Y-36396000D01*
X8286000Y-34110000D02*
X8540000Y-34364000D01*
X6254000Y-31316000D02*
X6254000Y-31570000D01*
X8286000Y-31316000D02*
X6254000Y-31316000D01*
X8286000Y-31570000D02*
X8286000Y-31316000D01*
X8540000Y-36396000D02*
X8286000Y-36650000D01*
X6254000Y-36650000D02*
X6000000Y-36396000D01*
X8286000Y-36650000D02*
X6254000Y-36650000D01*
X6254000Y-39190000D02*
X8286000Y-39190000D01*
X6000000Y-36904000D02*
X6254000Y-36650000D01*
X6000000Y-38936000D02*
X6000000Y-36904000D01*
X6254000Y-39190000D02*
X6000000Y-38936000D01*
X8540000Y-38936000D02*
X8286000Y-39190000D01*
X8540000Y-36904000D02*
X8540000Y-38936000D01*
X8286000Y-36650000D02*
X8540000Y-36904000D01*
X6254000Y-41730000D02*
X8286000Y-41730000D01*
X6000000Y-39444000D02*
X6254000Y-39190000D01*
X6000000Y-41476000D02*
X6000000Y-39444000D01*
X6254000Y-41730000D02*
X6000000Y-41476000D01*
X8540000Y-41476000D02*
X8286000Y-41730000D01*
X8540000Y-39444000D02*
X8540000Y-41476000D01*
X8286000Y-39190000D02*
X8540000Y-39444000D01*
X6254000Y-44270000D02*
X8286000Y-44270000D01*
X6000000Y-41984000D02*
X6254000Y-41730000D01*
X6000000Y-44016000D02*
X6000000Y-41984000D01*
X6254000Y-44270000D02*
X6000000Y-44016000D01*
X8540000Y-44016000D02*
X8286000Y-44270000D01*
X8540000Y-41984000D02*
X8540000Y-44016000D01*
X8286000Y-41730000D02*
X8540000Y-41984000D01*
X6254000Y-46810000D02*
X8286000Y-46810000D01*
X6000000Y-44524000D02*
X6254000Y-44270000D01*
X6000000Y-46556000D02*
X6000000Y-44524000D01*
X6254000Y-46810000D02*
X6000000Y-46556000D01*
X8540000Y-46556000D02*
X8286000Y-46810000D01*
X8540000Y-44524000D02*
X8540000Y-46556000D01*
X8286000Y-44270000D02*
X8540000Y-44524000D01*
X6254000Y-49350000D02*
X8286000Y-49350000D01*
X6000000Y-47064000D02*
X6254000Y-46810000D01*
X6000000Y-49096000D02*
X6000000Y-47064000D01*
X6254000Y-49350000D02*
X6000000Y-49096000D01*
X8540000Y-49096000D02*
X8286000Y-49350000D01*
X8540000Y-47064000D02*
X8540000Y-49096000D01*
X8286000Y-46810000D02*
X8540000Y-47064000D01*
X6000000Y-49604000D02*
X6254000Y-49350000D01*
X6000000Y-51636000D02*
X6000000Y-49604000D01*
X8540000Y-49604000D02*
X8540000Y-51636000D01*
X8286000Y-49350000D02*
X8540000Y-49604000D01*
D10*
G36*
X16800000Y-5900000D02*
G01*
X16800000Y-7700000D01*
X16500000Y-7700000D01*
X16500000Y-5900000D01*
X16800000Y-5900000D01*
G37*
X16800000Y-5900000D02*
X16800000Y-7700000D01*
X16500000Y-7700000D01*
X16500000Y-5900000D01*
X16800000Y-5900000D01*
X17400000Y-5900000D02*
X14600000Y-5900000D01*
X17400000Y-7700000D02*
X17400000Y-5900000D01*
X14600000Y-7700000D02*
X17400000Y-7700000D01*
X14600000Y-5900000D02*
X14600000Y-7700000D01*
D14*
X23900000Y-19100000D02*
X23900000Y-16100000D01*
X23900000Y-16100000D02*
X20900000Y-16100000D01*
X20900000Y-19100000D02*
X23900000Y-19100000D01*
X20900000Y-16100000D02*
X20900000Y-19100000D01*
D16*
G36*
X24150000Y-18250000D02*
G01*
X24150000Y-19350000D01*
X23700000Y-19350000D01*
X23700000Y-19450000D01*
X24250000Y-19450000D01*
X24250000Y-18250000D01*
X24150000Y-18250000D01*
G37*
X24150000Y-18250000D02*
X24150000Y-19350000D01*
X23700000Y-19350000D01*
X23700000Y-19450000D01*
X24250000Y-19450000D01*
X24250000Y-18250000D01*
X24150000Y-18250000D01*
D12*
X7100000Y-10000000D02*
X7100000Y-10800000D01*
X6800000Y-10800000D02*
X6800000Y-10000000D01*
X6850000Y-10800000D02*
X6850000Y-10000000D01*
X7050000Y-10000000D02*
X7050000Y-10800000D01*
X7000000Y-10000000D02*
X7000000Y-10800000D01*
X6950000Y-10800000D02*
X6950000Y-10000000D01*
X6900000Y-10000000D02*
X6900000Y-10800000D01*
X8200000Y-10000000D02*
X8200000Y-10800000D01*
X8250000Y-10800000D02*
X8250000Y-10000000D01*
X8300000Y-10000000D02*
X8300000Y-10800000D01*
X8350000Y-10000000D02*
X8350000Y-10800000D01*
X8150000Y-10800000D02*
X8150000Y-10000000D01*
X7100000Y-10800000D02*
X7100000Y-10000000D01*
X8100000Y-10800000D02*
X8100000Y-10000000D01*
X6800000Y-10000000D02*
X8400000Y-10000000D01*
X8400000Y-10000000D02*
X8400000Y-10800000D01*
X8400000Y-10800000D02*
X6800000Y-10800000D01*
X6800000Y-10800000D02*
X6800000Y-10000000D01*
X18000000Y-14300000D02*
X17200000Y-14300000D01*
X17200000Y-14000000D02*
X18000000Y-14000000D01*
X17200000Y-14050000D02*
X18000000Y-14050000D01*
X18000000Y-14250000D02*
X17200000Y-14250000D01*
X18000000Y-14200000D02*
X17200000Y-14200000D01*
X17200000Y-14150000D02*
X18000000Y-14150000D01*
X18000000Y-14100000D02*
X17200000Y-14100000D01*
X18000000Y-15400000D02*
X17200000Y-15400000D01*
X17200000Y-15450000D02*
X18000000Y-15450000D01*
X18000000Y-15500000D02*
X17200000Y-15500000D01*
X18000000Y-15550000D02*
X17200000Y-15550000D01*
X17200000Y-15350000D02*
X18000000Y-15350000D01*
X17200000Y-14300000D02*
X18000000Y-14300000D01*
X17200000Y-15300000D02*
X18000000Y-15300000D01*
X18000000Y-14000000D02*
X18000000Y-15600000D01*
X18000000Y-15600000D02*
X17200000Y-15600000D01*
X17200000Y-15600000D02*
X17200000Y-14000000D01*
X17200000Y-14000000D02*
X18000000Y-14000000D01*
D13*
G36*
X14200000Y-18700000D02*
G01*
X14700000Y-18700000D01*
X14700000Y-16900000D01*
X14200000Y-16900000D01*
X14200000Y-18700000D01*
G37*
X14200000Y-18700000D02*
X14700000Y-18700000D01*
X14700000Y-16900000D01*
X14200000Y-16900000D01*
X14200000Y-18700000D01*
X14700000Y-18700000D02*
X14700000Y-16900000D01*
G36*
X16900000Y-18700000D02*
G01*
X17400000Y-18700000D01*
X17400000Y-16900000D01*
X16900000Y-16900000D01*
X16900000Y-18700000D01*
G37*
X16900000Y-18700000D02*
X17400000Y-18700000D01*
X17400000Y-16900000D01*
X16900000Y-16900000D01*
X16900000Y-18700000D01*
X14200000Y-18700000D02*
X14200000Y-16900000D01*
X17400000Y-18700000D02*
X17400000Y-16900000D01*
X17400000Y-16900000D02*
X14200000Y-16900000D01*
X17400000Y-18700000D02*
X14200000Y-18700000D01*
D12*
X28300000Y-18000000D02*
X28300000Y-17200000D01*
X28600000Y-17200000D02*
X28600000Y-18000000D01*
X28550000Y-17200000D02*
X28550000Y-18000000D01*
X28350000Y-18000000D02*
X28350000Y-17200000D01*
X28400000Y-18000000D02*
X28400000Y-17200000D01*
X28450000Y-17200000D02*
X28450000Y-18000000D01*
X28500000Y-18000000D02*
X28500000Y-17200000D01*
X27200000Y-18000000D02*
X27200000Y-17200000D01*
X27150000Y-17200000D02*
X27150000Y-18000000D01*
X27100000Y-18000000D02*
X27100000Y-17200000D01*
X27050000Y-18000000D02*
X27050000Y-17200000D01*
X27250000Y-17200000D02*
X27250000Y-18000000D01*
X28300000Y-17200000D02*
X28300000Y-18000000D01*
X27300000Y-17200000D02*
X27300000Y-18000000D01*
X28600000Y-18000000D02*
X27000000Y-18000000D01*
X27000000Y-18000000D02*
X27000000Y-17200000D01*
X27000000Y-17200000D02*
X28600000Y-17200000D01*
X28600000Y-17200000D02*
X28600000Y-18000000D01*
D13*
G36*
X10500000Y-20600000D02*
G01*
X10500000Y-21100000D01*
X12300000Y-21100000D01*
X12300000Y-20600000D01*
X10500000Y-20600000D01*
G37*
X10500000Y-20600000D02*
X10500000Y-21100000D01*
X12300000Y-21100000D01*
X12300000Y-20600000D01*
X10500000Y-20600000D01*
X10500000Y-21100000D02*
X12300000Y-21100000D01*
G36*
X10500000Y-23300000D02*
G01*
X10500000Y-23800000D01*
X12300000Y-23800000D01*
X12300000Y-23300000D01*
X10500000Y-23300000D01*
G37*
X10500000Y-23300000D02*
X10500000Y-23800000D01*
X12300000Y-23800000D01*
X12300000Y-23300000D01*
X10500000Y-23300000D01*
X10500000Y-20600000D02*
X12300000Y-20600000D01*
X10500000Y-23800000D02*
X12300000Y-23800000D01*
X12300000Y-23800000D02*
X12300000Y-20600000D01*
X10500000Y-23800000D02*
X10500000Y-20600000D01*
X18387500Y-9647500D02*
X15212500Y-9647500D01*
X18387500Y-9711000D02*
X18387500Y-9647500D01*
X18387500Y-11552500D02*
X18387500Y-9711000D01*
X15212500Y-11552500D02*
X18387500Y-11552500D01*
X15212500Y-9647500D02*
X15212500Y-11552500D01*
D10*
G36*
X17550000Y-10800000D02*
G01*
X17752500Y-11050000D01*
X17950000Y-10800000D01*
X17550000Y-10800000D01*
G37*
X17550000Y-10800000D02*
X17752500Y-11050000D01*
X17950000Y-10800000D01*
X17550000Y-10800000D01*
D14*
X19900000Y-6000000D02*
X24900000Y-6000000D01*
X25400000Y-6900000D02*
X25400000Y-11100000D01*
X24900000Y-12000000D02*
X19900000Y-12000000D01*
X22200000Y-8700000D02*
X22400000Y-8700000D01*
X22200000Y-9300000D02*
X22400000Y-9300000D01*
X22400000Y-8100000D02*
X22400000Y-7800000D01*
D11*
X22300000Y-8100000D02*
X22400000Y-8100000D01*
D14*
X22200000Y-8100000D02*
X22400000Y-8100000D01*
X22400000Y-9900000D02*
X22400000Y-10200000D01*
X22200000Y-9900000D02*
X22400000Y-9900000D01*
X24900000Y-6000000D02*
X24900000Y-6600000D01*
X24900000Y-6600000D02*
X25400000Y-6900000D01*
X24900000Y-11400000D02*
X25400000Y-11100000D01*
X24900000Y-11400000D02*
X24900000Y-12000000D01*
X19900000Y-6600000D02*
X19400000Y-6900000D01*
X19400000Y-11100000D02*
X19400000Y-6900000D01*
X19900000Y-12000000D02*
X19900000Y-11400000D01*
X19900000Y-11400000D02*
X19400000Y-11100000D01*
X19900000Y-6600000D02*
X19900000Y-6000000D01*
X22200000Y-9300000D02*
G75*
G02*
X22200000Y-8700000I0J300000D01*
G01*
X22200000Y-8700000D02*
G75*
G02*
X22200000Y-8100000I0J300000D01*
G01*
X22200000Y-9900000D02*
G75*
G02*
X22200000Y-9300000I0J300000D01*
G01*
D12*
X14400000Y-14300000D02*
X14400000Y-15300000D01*
X13600000Y-15300000D02*
X13600000Y-14300000D01*
G36*
X13600000Y-15300000D02*
G01*
X13600000Y-15600000D01*
X14400000Y-15600000D01*
X14400000Y-15300000D01*
X13600000Y-15300000D01*
G37*
X13600000Y-15300000D02*
X13600000Y-15600000D01*
X14400000Y-15600000D01*
X14400000Y-15300000D01*
X13600000Y-15300000D01*
G36*
X13600000Y-14000000D02*
G01*
X13600000Y-14300000D01*
X14400000Y-14300000D01*
X14400000Y-14000000D01*
X13600000Y-14000000D01*
G37*
X13600000Y-14000000D02*
X13600000Y-14300000D01*
X14400000Y-14300000D01*
X14400000Y-14000000D01*
X13600000Y-14000000D01*
X18000000Y-20300000D02*
X18000000Y-21300000D01*
X17200000Y-21300000D02*
X17200000Y-20300000D01*
G36*
X17200000Y-21300000D02*
G01*
X17200000Y-21600000D01*
X18000000Y-21600000D01*
X18000000Y-21300000D01*
X17200000Y-21300000D01*
G37*
X17200000Y-21300000D02*
X17200000Y-21600000D01*
X18000000Y-21600000D01*
X18000000Y-21300000D01*
X17200000Y-21300000D01*
G36*
X17200000Y-20000000D02*
G01*
X17200000Y-20300000D01*
X18000000Y-20300000D01*
X18000000Y-20000000D01*
X17200000Y-20000000D01*
G37*
X17200000Y-20000000D02*
X17200000Y-20300000D01*
X18000000Y-20300000D01*
X18000000Y-20000000D01*
X17200000Y-20000000D01*
X11800000Y-17300000D02*
X11800000Y-18300000D01*
X11000000Y-18300000D02*
X11000000Y-17300000D01*
G36*
X11000000Y-18300000D02*
G01*
X11000000Y-18600000D01*
X11800000Y-18600000D01*
X11800000Y-18300000D01*
X11000000Y-18300000D01*
G37*
X11000000Y-18300000D02*
X11000000Y-18600000D01*
X11800000Y-18600000D01*
X11800000Y-18300000D01*
X11000000Y-18300000D01*
G36*
X11000000Y-17000000D02*
G01*
X11000000Y-17300000D01*
X11800000Y-17300000D01*
X11800000Y-17000000D01*
X11000000Y-17000000D01*
G37*
X11000000Y-17000000D02*
X11000000Y-17300000D01*
X11800000Y-17300000D01*
X11800000Y-17000000D01*
X11000000Y-17000000D01*
X15400000Y-21300000D02*
X15400000Y-20300000D01*
X16200000Y-20300000D02*
X16200000Y-21300000D01*
G36*
X16200000Y-20300000D02*
G01*
X16200000Y-20000000D01*
X15400000Y-20000000D01*
X15400000Y-20300000D01*
X16200000Y-20300000D01*
G37*
X16200000Y-20300000D02*
X16200000Y-20000000D01*
X15400000Y-20000000D01*
X15400000Y-20300000D01*
X16200000Y-20300000D01*
G36*
X16200000Y-21600000D02*
G01*
X16200000Y-21300000D01*
X15400000Y-21300000D01*
X15400000Y-21600000D01*
X16200000Y-21600000D01*
G37*
X16200000Y-21600000D02*
X16200000Y-21300000D01*
X15400000Y-21300000D01*
X15400000Y-21600000D01*
X16200000Y-21600000D01*
D13*
X13550000Y-20950000D02*
X14450000Y-20950000D01*
X14450000Y-21000000D02*
X13550000Y-21000000D01*
X13550000Y-21050000D02*
X14450000Y-21050000D01*
X14450000Y-21100000D02*
X13550000Y-21100000D01*
X14450000Y-21450000D02*
X14450000Y-20150000D01*
X13550000Y-20150000D02*
X13550000Y-21450000D01*
X14450000Y-21450000D02*
X13550000Y-21450000D01*
X14450000Y-20150000D02*
X13550000Y-20150000D01*
D12*
X3900000Y-10000000D02*
X4900000Y-10000000D01*
X4900000Y-10800000D02*
X3900000Y-10800000D01*
G36*
X4900000Y-10800000D02*
G01*
X5200000Y-10800000D01*
X5200000Y-10000000D01*
X4900000Y-10000000D01*
X4900000Y-10800000D01*
G37*
X4900000Y-10800000D02*
X5200000Y-10800000D01*
X5200000Y-10000000D01*
X4900000Y-10000000D01*
X4900000Y-10800000D01*
G36*
X3600000Y-10800000D02*
G01*
X3900000Y-10800000D01*
X3900000Y-10000000D01*
X3600000Y-10000000D01*
X3600000Y-10800000D01*
G37*
X3600000Y-10800000D02*
X3900000Y-10800000D01*
X3900000Y-10000000D01*
X3600000Y-10000000D01*
X3600000Y-10800000D01*
D13*
X27100000Y-31700000D02*
X28500000Y-31700000D01*
X27100000Y-29500000D02*
X27100000Y-31700000D01*
X28500000Y-29500000D02*
X27100000Y-29500000D01*
X28500000Y-31700000D02*
X28500000Y-29500000D01*
D16*
G36*
X27950000Y-30200000D02*
G01*
X28250000Y-29950000D01*
X27950000Y-29700000D01*
X27950000Y-30200000D01*
G37*
X27950000Y-30200000D02*
X28250000Y-29950000D01*
X27950000Y-29700000D01*
X27950000Y-30200000D01*
D13*
G36*
X10500000Y-6200000D02*
G01*
X10500000Y-6700000D01*
X12300000Y-6700000D01*
X12300000Y-6200000D01*
X10500000Y-6200000D01*
G37*
X10500000Y-6200000D02*
X10500000Y-6700000D01*
X12300000Y-6700000D01*
X12300000Y-6200000D01*
X10500000Y-6200000D01*
X10500000Y-6700000D02*
X12300000Y-6700000D01*
G36*
X10500000Y-8900000D02*
G01*
X10500000Y-9400000D01*
X12300000Y-9400000D01*
X12300000Y-8900000D01*
X10500000Y-8900000D01*
G37*
X10500000Y-8900000D02*
X10500000Y-9400000D01*
X12300000Y-9400000D01*
X12300000Y-8900000D01*
X10500000Y-8900000D01*
X10500000Y-6200000D02*
X12300000Y-6200000D01*
X10500000Y-9400000D02*
X12300000Y-9400000D01*
X12300000Y-9400000D02*
X12300000Y-6200000D01*
X10500000Y-9400000D02*
X10500000Y-6200000D01*
G36*
X12300000Y-15000000D02*
G01*
X12300000Y-14500000D01*
X10500000Y-14500000D01*
X10500000Y-15000000D01*
X12300000Y-15000000D01*
G37*
X12300000Y-15000000D02*
X12300000Y-14500000D01*
X10500000Y-14500000D01*
X10500000Y-15000000D01*
X12300000Y-15000000D01*
X12300000Y-14500000D02*
X10500000Y-14500000D01*
G36*
X12300000Y-12300000D02*
G01*
X12300000Y-11800000D01*
X10500000Y-11800000D01*
X10500000Y-12300000D01*
X12300000Y-12300000D01*
G37*
X12300000Y-12300000D02*
X12300000Y-11800000D01*
X10500000Y-11800000D01*
X10500000Y-12300000D01*
X12300000Y-12300000D01*
X12300000Y-15000000D02*
X10500000Y-15000000D01*
X12300000Y-11800000D02*
X10500000Y-11800000D01*
X10500000Y-11800000D02*
X10500000Y-15000000D01*
X12300000Y-11800000D02*
X12300000Y-15000000D01*
D12*
X27300000Y-34600000D02*
X27300000Y-35400000D01*
X27000000Y-35400000D02*
X27000000Y-34600000D01*
X27050000Y-35400000D02*
X27050000Y-34600000D01*
X27250000Y-34600000D02*
X27250000Y-35400000D01*
X27200000Y-34600000D02*
X27200000Y-35400000D01*
X27150000Y-35400000D02*
X27150000Y-34600000D01*
X27100000Y-34600000D02*
X27100000Y-35400000D01*
X28400000Y-34600000D02*
X28400000Y-35400000D01*
X28450000Y-35400000D02*
X28450000Y-34600000D01*
X28500000Y-34600000D02*
X28500000Y-35400000D01*
X28550000Y-34600000D02*
X28550000Y-35400000D01*
X28350000Y-35400000D02*
X28350000Y-34600000D01*
X27300000Y-35400000D02*
X27300000Y-34600000D01*
X28300000Y-35400000D02*
X28300000Y-34600000D01*
X27000000Y-34600000D02*
X28600000Y-34600000D01*
X28600000Y-34600000D02*
X28600000Y-35400000D01*
X28600000Y-35400000D02*
X27000000Y-35400000D01*
X27000000Y-35400000D02*
X27000000Y-34600000D01*
D14*
G36*
X23860000Y-31800000D02*
G01*
X24260000Y-32200000D01*
X24660000Y-31800000D01*
X23860000Y-31800000D01*
G37*
X23860000Y-31800000D02*
X24260000Y-32200000D01*
X24660000Y-31800000D01*
X23860000Y-31800000D01*
X19796500Y-32695500D02*
X25003500Y-32695500D01*
X19796500Y-32695500D02*
X19796500Y-28504500D01*
X19796500Y-28504500D02*
X25003500Y-28504500D01*
X25003500Y-32695500D02*
X25003500Y-28504500D01*
D17*
X14200000Y-39200000D02*
X17400000Y-39200000D01*
X17400000Y-39200000D02*
X17400000Y-37600000D01*
X14200000Y-39200000D02*
X14200000Y-37600000D01*
D18*
X15000000Y-39200000D02*
X15000000Y-37600000D01*
X15800000Y-39200000D02*
X15800000Y-37600000D01*
X16600000Y-39200000D02*
X16600000Y-37600000D01*
D17*
X14200000Y-37600000D02*
X17400000Y-37600000D01*
D12*
X29000000Y-53400000D02*
X28200000Y-53400000D01*
X29000000Y-51800000D02*
X29000000Y-53400000D01*
X28200000Y-51800000D02*
X29000000Y-51800000D01*
X28200000Y-53400000D02*
X28200000Y-51800000D01*
X29000000Y-52100000D02*
X28200000Y-52100000D01*
X29000000Y-53100000D02*
X28200000Y-53100000D01*
X29000000Y-52050000D02*
X28200000Y-52050000D01*
X28200000Y-51850000D02*
X29000000Y-51850000D01*
X28200000Y-51900000D02*
X29000000Y-51900000D01*
X29000000Y-51950000D02*
X28200000Y-51950000D01*
X28200000Y-52000000D02*
X29000000Y-52000000D01*
X28200000Y-53300000D02*
X29000000Y-53300000D01*
X29000000Y-53250000D02*
X28200000Y-53250000D01*
X28200000Y-53200000D02*
X29000000Y-53200000D01*
X28200000Y-53150000D02*
X29000000Y-53150000D01*
X29000000Y-53350000D02*
X28200000Y-53350000D01*
X29000000Y-53400000D02*
X28200000Y-53400000D01*
X28200000Y-53100000D02*
X29000000Y-53100000D01*
X27000000Y-42300000D02*
X26200000Y-42300000D01*
X26200000Y-42000000D02*
X27000000Y-42000000D01*
X26200000Y-42050000D02*
X27000000Y-42050000D01*
X27000000Y-42250000D02*
X26200000Y-42250000D01*
X27000000Y-42200000D02*
X26200000Y-42200000D01*
X26200000Y-42150000D02*
X27000000Y-42150000D01*
X27000000Y-42100000D02*
X26200000Y-42100000D01*
X27000000Y-43400000D02*
X26200000Y-43400000D01*
X26200000Y-43450000D02*
X27000000Y-43450000D01*
X27000000Y-43500000D02*
X26200000Y-43500000D01*
X27000000Y-43550000D02*
X26200000Y-43550000D01*
X26200000Y-43350000D02*
X27000000Y-43350000D01*
X26200000Y-42300000D02*
X27000000Y-42300000D01*
X26200000Y-43300000D02*
X27000000Y-43300000D01*
X27000000Y-42000000D02*
X27000000Y-43600000D01*
X27000000Y-43600000D02*
X26200000Y-43600000D01*
X26200000Y-43600000D02*
X26200000Y-42000000D01*
X26200000Y-42000000D02*
X27000000Y-42000000D01*
X28200000Y-42000000D02*
X29000000Y-42000000D01*
X28200000Y-43600000D02*
X28200000Y-42000000D01*
X29000000Y-43600000D02*
X28200000Y-43600000D01*
X29000000Y-42000000D02*
X29000000Y-43600000D01*
X28200000Y-43300000D02*
X29000000Y-43300000D01*
X28200000Y-42300000D02*
X29000000Y-42300000D01*
X28200000Y-43350000D02*
X29000000Y-43350000D01*
X29000000Y-43550000D02*
X28200000Y-43550000D01*
X29000000Y-43500000D02*
X28200000Y-43500000D01*
X28200000Y-43450000D02*
X29000000Y-43450000D01*
X29000000Y-43400000D02*
X28200000Y-43400000D01*
X29000000Y-42100000D02*
X28200000Y-42100000D01*
X28200000Y-42150000D02*
X29000000Y-42150000D01*
X29000000Y-42200000D02*
X28200000Y-42200000D01*
X29000000Y-42250000D02*
X28200000Y-42250000D01*
X28200000Y-42050000D02*
X29000000Y-42050000D01*
X28200000Y-42000000D02*
X29000000Y-42000000D01*
X29000000Y-42300000D02*
X28200000Y-42300000D01*
X28200000Y-50250000D02*
X29000000Y-50250000D01*
X29000000Y-50550000D02*
X28200000Y-50550000D01*
X29000000Y-50500000D02*
X28200000Y-50500000D01*
X28200000Y-50300000D02*
X29000000Y-50300000D01*
X28200000Y-50350000D02*
X29000000Y-50350000D01*
X29000000Y-50400000D02*
X28200000Y-50400000D01*
X28200000Y-50450000D02*
X29000000Y-50450000D01*
X28200000Y-49150000D02*
X29000000Y-49150000D01*
X29000000Y-49100000D02*
X28200000Y-49100000D01*
X28200000Y-49050000D02*
X29000000Y-49050000D01*
X28200000Y-49000000D02*
X29000000Y-49000000D01*
X29000000Y-49200000D02*
X28200000Y-49200000D01*
X29000000Y-50250000D02*
X28200000Y-50250000D01*
X29000000Y-49250000D02*
X28200000Y-49250000D01*
X28200000Y-50550000D02*
X28200000Y-48950000D01*
X28200000Y-48950000D02*
X29000000Y-48950000D01*
X29000000Y-48950000D02*
X29000000Y-50550000D01*
X29000000Y-50550000D02*
X28200000Y-50550000D01*
X29000000Y-55300000D02*
X28200000Y-55300000D01*
X28200000Y-55000000D02*
X29000000Y-55000000D01*
X28200000Y-55050000D02*
X29000000Y-55050000D01*
X29000000Y-55250000D02*
X28200000Y-55250000D01*
X29000000Y-55200000D02*
X28200000Y-55200000D01*
X28200000Y-55150000D02*
X29000000Y-55150000D01*
X29000000Y-55100000D02*
X28200000Y-55100000D01*
X29000000Y-56400000D02*
X28200000Y-56400000D01*
X28200000Y-56450000D02*
X29000000Y-56450000D01*
X29000000Y-56500000D02*
X28200000Y-56500000D01*
X29000000Y-56550000D02*
X28200000Y-56550000D01*
X28200000Y-56350000D02*
X29000000Y-56350000D01*
X28200000Y-55300000D02*
X29000000Y-55300000D01*
X28200000Y-56300000D02*
X29000000Y-56300000D01*
X29000000Y-55000000D02*
X29000000Y-56600000D01*
X29000000Y-56600000D02*
X28200000Y-56600000D01*
X28200000Y-56600000D02*
X28200000Y-55000000D01*
X28200000Y-55000000D02*
X29000000Y-55000000D01*
X24200000Y-37600000D02*
X25000000Y-37600000D01*
X24200000Y-39200000D02*
X24200000Y-37600000D01*
X25000000Y-39200000D02*
X24200000Y-39200000D01*
X25000000Y-37600000D02*
X25000000Y-39200000D01*
X24200000Y-38900000D02*
X25000000Y-38900000D01*
X24200000Y-37900000D02*
X25000000Y-37900000D01*
X24200000Y-38950000D02*
X25000000Y-38950000D01*
X25000000Y-39150000D02*
X24200000Y-39150000D01*
X25000000Y-39100000D02*
X24200000Y-39100000D01*
X24200000Y-39050000D02*
X25000000Y-39050000D01*
X25000000Y-39000000D02*
X24200000Y-39000000D01*
X25000000Y-37700000D02*
X24200000Y-37700000D01*
X24200000Y-37750000D02*
X25000000Y-37750000D01*
X25000000Y-37800000D02*
X24200000Y-37800000D01*
X25000000Y-37850000D02*
X24200000Y-37850000D01*
X24200000Y-37650000D02*
X25000000Y-37650000D01*
X24200000Y-37600000D02*
X25000000Y-37600000D01*
X25000000Y-37900000D02*
X24200000Y-37900000D01*
D13*
X26012500Y-39352500D02*
X29187500Y-39352500D01*
X29187500Y-39352500D02*
X29187500Y-37447500D01*
X29187500Y-37447500D02*
X26012500Y-37447500D01*
X26012500Y-37447500D02*
X26012500Y-39289000D01*
X26012500Y-39289000D02*
X26012500Y-39352500D01*
D10*
G36*
X26850000Y-38200000D02*
G01*
X26647500Y-37950000D01*
X26450000Y-38200000D01*
X26850000Y-38200000D01*
G37*
X26850000Y-38200000D02*
X26647500Y-37950000D01*
X26450000Y-38200000D01*
X26850000Y-38200000D01*
X29250000Y-45200000D02*
X29250000Y-47200000D01*
X27950000Y-47200000D02*
X29250000Y-47200000D01*
X27950000Y-45200000D02*
X27950000Y-47200000D01*
X27950000Y-45200000D02*
X29250000Y-45200000D01*
D14*
X13196500Y-28504500D02*
X13196500Y-32695500D01*
X18403500Y-32695500D02*
X13196500Y-32695500D01*
X18403500Y-28504500D02*
X18403500Y-32695500D01*
X18403500Y-28504500D02*
X13196500Y-28504500D01*
G36*
X14340000Y-29400000D02*
G01*
X13940000Y-29000000D01*
X13540000Y-29400000D01*
X14340000Y-29400000D01*
G37*
X14340000Y-29400000D02*
X13940000Y-29000000D01*
X13540000Y-29400000D01*
X14340000Y-29400000D01*
D12*
X10300000Y-32200000D02*
X10300000Y-33000000D01*
X10000000Y-33000000D02*
X10000000Y-32200000D01*
X10050000Y-33000000D02*
X10050000Y-32200000D01*
X10250000Y-32200000D02*
X10250000Y-33000000D01*
X10200000Y-32200000D02*
X10200000Y-33000000D01*
X10150000Y-33000000D02*
X10150000Y-32200000D01*
X10100000Y-32200000D02*
X10100000Y-33000000D01*
X11400000Y-32200000D02*
X11400000Y-33000000D01*
X11450000Y-33000000D02*
X11450000Y-32200000D01*
X11500000Y-32200000D02*
X11500000Y-33000000D01*
X11550000Y-32200000D02*
X11550000Y-33000000D01*
X11350000Y-33000000D02*
X11350000Y-32200000D01*
X10300000Y-33000000D02*
X10300000Y-32200000D01*
X11300000Y-33000000D02*
X11300000Y-32200000D01*
X10000000Y-32200000D02*
X11600000Y-32200000D01*
X11600000Y-32200000D02*
X11600000Y-33000000D01*
X11600000Y-33000000D02*
X10000000Y-33000000D01*
X10000000Y-33000000D02*
X10000000Y-32200000D01*
X11600000Y-30200000D02*
X11600000Y-31000000D01*
X10000000Y-30200000D02*
X11600000Y-30200000D01*
X10000000Y-31000000D02*
X10000000Y-30200000D01*
X11600000Y-31000000D02*
X10000000Y-31000000D01*
X10300000Y-30200000D02*
X10300000Y-31000000D01*
X11300000Y-30200000D02*
X11300000Y-31000000D01*
X10250000Y-30200000D02*
X10250000Y-31000000D01*
X10050000Y-31000000D02*
X10050000Y-30200000D01*
X10100000Y-31000000D02*
X10100000Y-30200000D01*
X10150000Y-30200000D02*
X10150000Y-31000000D01*
X10200000Y-31000000D02*
X10200000Y-30200000D01*
X11500000Y-31000000D02*
X11500000Y-30200000D01*
X11450000Y-30200000D02*
X11450000Y-31000000D01*
X11400000Y-31000000D02*
X11400000Y-30200000D01*
X11350000Y-31000000D02*
X11350000Y-30200000D01*
X11550000Y-30200000D02*
X11550000Y-31000000D01*
X11600000Y-30200000D02*
X11600000Y-31000000D01*
X11300000Y-31000000D02*
X11300000Y-30200000D01*
X10000000Y-29000000D02*
X10000000Y-28200000D01*
X11600000Y-29000000D02*
X10000000Y-29000000D01*
X11600000Y-28200000D02*
X11600000Y-29000000D01*
X10000000Y-28200000D02*
X11600000Y-28200000D01*
X11300000Y-29000000D02*
X11300000Y-28200000D01*
X10300000Y-29000000D02*
X10300000Y-28200000D01*
X11350000Y-29000000D02*
X11350000Y-28200000D01*
X11550000Y-28200000D02*
X11550000Y-29000000D01*
X11500000Y-28200000D02*
X11500000Y-29000000D01*
X11450000Y-29000000D02*
X11450000Y-28200000D01*
X11400000Y-28200000D02*
X11400000Y-29000000D01*
X10100000Y-28200000D02*
X10100000Y-29000000D01*
X10150000Y-29000000D02*
X10150000Y-28200000D01*
X10200000Y-28200000D02*
X10200000Y-29000000D01*
X10250000Y-28200000D02*
X10250000Y-29000000D01*
X10050000Y-29000000D02*
X10050000Y-28200000D01*
X10000000Y-29000000D02*
X10000000Y-28200000D01*
X10300000Y-28200000D02*
X10300000Y-29000000D01*
%LPC*%
D19*
X23550000Y-43750000D03*
X23050000Y-43750000D03*
X22550000Y-43750000D03*
X22050000Y-43750000D03*
X21550000Y-43750000D03*
X21050000Y-43750000D03*
X20550000Y-43750000D03*
X20050000Y-43750000D03*
X19550000Y-43750000D03*
X19050000Y-43750000D03*
X18550000Y-43750000D03*
X18050000Y-43750000D03*
X17550000Y-43750000D03*
X17050000Y-43750000D03*
X16550000Y-43750000D03*
X16050000Y-43750000D03*
D20*
X13950000Y-45850000D03*
X13950000Y-46350000D03*
X13950000Y-46850000D03*
X13950000Y-47350000D03*
X13950000Y-47850000D03*
X13950000Y-48350000D03*
X13950000Y-48850000D03*
X13950000Y-49350000D03*
X13950000Y-49850000D03*
X13950000Y-50350000D03*
X13950000Y-50850000D03*
X13950000Y-51350000D03*
X13950000Y-51850000D03*
X13950000Y-52350000D03*
X13950000Y-52850000D03*
X13950000Y-53350000D03*
D19*
X16050000Y-55450000D03*
X16550000Y-55450000D03*
X17050000Y-55450000D03*
X17550000Y-55450000D03*
X18050000Y-55450000D03*
X18550000Y-55450000D03*
X19050000Y-55450000D03*
X19550000Y-55450000D03*
X20050000Y-55450000D03*
X20550000Y-55450000D03*
X21050000Y-55450000D03*
X21550000Y-55450000D03*
X22050000Y-55450000D03*
X22550000Y-55450000D03*
X23050000Y-55450000D03*
X23550000Y-55450000D03*
D20*
X25650000Y-53350000D03*
X25650000Y-52850000D03*
X25650000Y-52350000D03*
X25650000Y-51850000D03*
X25650000Y-51350000D03*
X25650000Y-50850000D03*
X25650000Y-50350000D03*
X25650000Y-49850000D03*
X25650000Y-49350000D03*
X25650000Y-48850000D03*
X25650000Y-48350000D03*
X25650000Y-47850000D03*
X25650000Y-47350000D03*
X25650000Y-46850000D03*
X25650000Y-46350000D03*
X25650000Y-45850000D03*
D21*
X27050000Y-28200000D03*
X28550000Y-28200000D03*
X28550000Y-33000000D03*
X27050000Y-33000000D03*
D22*
X28200000Y-24000000D03*
D23*
X19800000Y-24100000D03*
X19800000Y-61900000D03*
D24*
X14000000Y-9850000D03*
X14000000Y-11350000D03*
D25*
X8440000Y-7400000D03*
X3560000Y-7400000D03*
D21*
X28550000Y-15600000D03*
X27050000Y-15600000D03*
X28550000Y-26200000D03*
X27050000Y-26200000D03*
D26*
X15800000Y-15550000D03*
X15800000Y-14050000D03*
D27*
X5000000Y-73000000D03*
X5000000Y-71000000D03*
D28*
X5000000Y-69000000D03*
D27*
X7000000Y-71000000D03*
D28*
X7000000Y-69000000D03*
D27*
X7000000Y-73000000D03*
X7000000Y-67000000D03*
X5000000Y-67000000D03*
D28*
X7000000Y-59000000D03*
D27*
X7000000Y-61000000D03*
X7000000Y-65000000D03*
D28*
X7000000Y-63000000D03*
X5000000Y-63000000D03*
D27*
X5000000Y-65000000D03*
X5000000Y-61000000D03*
D28*
X5000000Y-59000000D03*
D27*
X5000000Y-27000000D03*
X5000000Y-25000000D03*
D28*
X5000000Y-23000000D03*
D27*
X7000000Y-25000000D03*
D28*
X7000000Y-23000000D03*
D27*
X7000000Y-27000000D03*
X7000000Y-21000000D03*
X5000000Y-21000000D03*
D28*
X7000000Y-13000000D03*
D27*
X7000000Y-15000000D03*
X7000000Y-19000000D03*
D28*
X7000000Y-17000000D03*
X5000000Y-17000000D03*
D27*
X5000000Y-19000000D03*
X5000000Y-15000000D03*
D28*
X5000000Y-13000000D03*
D21*
X28550000Y-21600000D03*
X27050000Y-21600000D03*
X28550000Y-19600000D03*
X27050000Y-19600000D03*
D29*
X4730000Y-40460000D03*
X4730000Y-50620000D03*
X4730000Y-48080000D03*
X4730000Y-35380000D03*
X4730000Y-53160000D03*
X4730000Y-32840000D03*
X4730000Y-45540000D03*
X4730000Y-43000000D03*
X4730000Y-37920000D03*
X7270000Y-53160000D03*
X7270000Y-32840000D03*
X7270000Y-35380000D03*
X7270000Y-37920000D03*
X7270000Y-40460000D03*
X7270000Y-43000000D03*
X7270000Y-45540000D03*
X7270000Y-48080000D03*
X7270000Y-50620000D03*
D30*
X11540000Y-84898200D03*
X6460000Y-84898200D03*
X6460000Y-79818200D03*
X11540000Y-79818200D03*
X9000000Y-82400000D03*
X25540000Y-84898200D03*
X20460000Y-84898200D03*
X20460000Y-79818200D03*
X25540000Y-79818200D03*
X23000000Y-82400000D03*
D31*
X3500000Y-3400000D03*
X13500000Y-3400000D03*
X8500000Y-3400000D03*
X18500000Y-3400000D03*
X23500000Y-3400000D03*
X28500000Y-3400000D03*
D32*
X17650000Y-6800000D03*
X14350000Y-6800000D03*
D33*
X23150000Y-17600000D03*
X21650000Y-17600000D03*
D34*
X21450000Y-19300000D03*
X22400000Y-19300000D03*
X23350000Y-19300000D03*
X21450000Y-15900000D03*
X23350000Y-15900000D03*
X22400000Y-15900000D03*
D21*
X6850000Y-10400000D03*
X8350000Y-10400000D03*
D26*
X17600000Y-14050000D03*
X17600000Y-15550000D03*
D35*
X14200000Y-17800000D03*
X17400000Y-17800000D03*
D21*
X28550000Y-17600000D03*
X27050000Y-17600000D03*
D36*
X11400000Y-20600000D03*
X11400000Y-23800000D03*
D37*
X16800000Y-9393500D03*
X17752500Y-9393500D03*
X15847500Y-9393500D03*
X15847500Y-11806500D03*
X16800000Y-11806500D03*
X17752500Y-11806500D03*
D38*
X22400000Y-6600000D03*
X22400000Y-11400000D03*
D26*
X14000000Y-14050000D03*
X14000000Y-15550000D03*
X17600000Y-20050000D03*
X17600000Y-21550000D03*
X11400000Y-17050000D03*
X11400000Y-18550000D03*
X15800000Y-21550000D03*
X15800000Y-20050000D03*
D24*
X14000000Y-21550000D03*
X14000000Y-20050000D03*
D21*
X3650000Y-10400000D03*
X5150000Y-10400000D03*
D39*
X28850000Y-31250000D03*
X28850000Y-29950000D03*
X26750000Y-30600000D03*
D36*
X11400000Y-6200000D03*
X11400000Y-9400000D03*
X11400000Y-15000000D03*
X11400000Y-11800000D03*
D21*
X27050000Y-35000000D03*
X28550000Y-35000000D03*
D40*
X20495000Y-33300000D03*
X21765000Y-33300000D03*
X20495000Y-27900000D03*
X21765000Y-27900000D03*
X23035000Y-33300000D03*
X24305000Y-33300000D03*
X23035000Y-27900000D03*
X24305000Y-27900000D03*
D41*
X9950000Y-71450000D03*
X10850000Y-71450000D03*
X10850000Y-70550000D03*
X9950000Y-70550000D03*
X10400000Y-71600000D03*
X11000000Y-71000000D03*
X10400000Y-70400000D03*
X9800000Y-71000000D03*
D42*
X10400000Y-71000000D03*
D43*
X14600000Y-39250000D03*
X14600000Y-37550000D03*
X17000000Y-37550000D03*
X17000000Y-39250000D03*
X16200000Y-39250000D03*
X16200000Y-37550000D03*
X15400000Y-37550000D03*
X15400000Y-39250000D03*
D26*
X28600000Y-51850000D03*
X28600000Y-53350000D03*
X26600000Y-42050000D03*
X26600000Y-43550000D03*
X28600000Y-43550000D03*
X28600000Y-42050000D03*
X28600000Y-50500000D03*
X28600000Y-49000000D03*
X28600000Y-55050000D03*
X28600000Y-56550000D03*
X24600000Y-39150000D03*
X24600000Y-37650000D03*
D37*
X26647500Y-37193500D03*
X27600000Y-37193500D03*
X28552500Y-37193500D03*
X28552500Y-39606500D03*
X26647500Y-39606500D03*
D44*
X28600000Y-45200000D03*
X28600000Y-47200000D03*
D40*
X13895000Y-33300000D03*
X15165000Y-33300000D03*
X13895000Y-27900000D03*
X15165000Y-27900000D03*
X16435000Y-33300000D03*
X17705000Y-33300000D03*
X16435000Y-27900000D03*
X17705000Y-27900000D03*
D21*
X10050000Y-32600000D03*
X11550000Y-32600000D03*
X10050000Y-30600000D03*
X11550000Y-30600000D03*
X11550000Y-28600000D03*
X10050000Y-28600000D03*
M02*
