G04 #@! TF.GenerationSoftware,KiCad,Pcbnew,(5.1.9)-1*
G04 #@! TF.CreationDate,2023-02-20T21:36:59+01:00*
G04 #@! TF.ProjectId,Base,42617365-2e6b-4696-9361-645f70636258,rev?*
G04 #@! TF.SameCoordinates,PXd59f80PYd59f80*
G04 #@! TF.FileFunction,Profile,NP*
%FSLAX46Y46*%
G04 Gerber Fmt 4.6, Leading zero omitted, Abs format (unit mm)*
G04 Created by KiCad (PCBNEW (5.1.9)-1) date 2023-02-20 21:36:59*
%MOMM*%
%LPD*%
G01*
G04 APERTURE LIST*
G04 #@! TA.AperFunction,Profile*
%ADD10C,0.150000*%
G04 #@! TD*
G04 APERTURE END LIST*
D10*
X29400000Y-37000000D02*
X31000000Y-37000000D01*
X29400000Y-34000000D02*
X29400000Y-37000000D01*
X29400000Y-34000000D02*
X31000000Y-34000000D01*
X8800000Y-34000000D02*
X10400000Y-34000000D01*
X8800000Y-34000000D02*
X8800000Y-37000000D01*
X10400000Y-34000000D02*
X10400000Y-37000000D01*
X8800000Y-37000000D02*
X10400000Y-37000000D01*
X10400000Y-49000000D02*
X10400000Y-52000000D01*
X8800000Y-49000000D02*
X8800000Y-52000000D01*
X8800000Y-52000000D02*
X10400000Y-52000000D01*
X8800000Y-49000000D02*
X10400000Y-49000000D01*
X31000000Y-37000000D02*
X31000000Y-49000000D01*
X31000000Y-52000000D02*
X31000000Y-64000000D01*
X29600000Y-52000000D02*
X31000000Y-52000000D01*
X29600000Y-49000000D02*
X31000000Y-49000000D01*
X29600000Y-49000000D02*
X29600000Y-52000000D01*
X1000000Y-22000000D02*
X1000000Y-64000000D01*
X0Y-400000D02*
X0Y-21000000D01*
X1000000Y-64000000D02*
G75*
G02*
X0Y-65000000I-1000000J0D01*
G01*
X0Y-21000000D02*
G75*
G02*
X1000000Y-22000000I0J-1000000D01*
G01*
X31000000Y-22000000D02*
X31000000Y-34000000D01*
X32000000Y-65000000D02*
X32000000Y-85600000D01*
X31000000Y-22000000D02*
G75*
G02*
X32000000Y-21000000I1000000J0D01*
G01*
X32000000Y-65000000D02*
G75*
G02*
X31000000Y-64000000I0J1000000D01*
G01*
X32000000Y-85600000D02*
G75*
G02*
X31600000Y-86000000I-400000J0D01*
G01*
X400000Y-86000000D02*
X31600000Y-86000000D01*
X400000Y-86000000D02*
G75*
G02*
X0Y-85600000I0J400000D01*
G01*
X32000000Y-400000D02*
X32000000Y-21000000D01*
X31600000Y0D02*
G75*
G02*
X32000000Y-400000I0J-400000D01*
G01*
X0Y-400000D02*
G75*
G02*
X400000Y0I400000J0D01*
G01*
X400000Y0D02*
X31600000Y0D01*
X0Y-65000000D02*
X0Y-85600000D01*
M02*
