G04 #@! TF.GenerationSoftware,KiCad,Pcbnew,(5.1.9)-1*
G04 #@! TF.CreationDate,2023-02-20T21:36:59+01:00*
G04 #@! TF.ProjectId,Base,42617365-2e6b-4696-9361-645f70636258,rev?*
G04 #@! TF.SameCoordinates,PXd59f80PYd59f80*
G04 #@! TF.FileFunction,Legend,Top*
G04 #@! TF.FilePolarity,Positive*
%FSLAX46Y46*%
G04 Gerber Fmt 4.6, Leading zero omitted, Abs format (unit mm)*
G04 Created by KiCad (PCBNEW (5.1.9)-1) date 2023-02-20 21:36:59*
%MOMM*%
%LPD*%
G01*
G04 APERTURE LIST*
%ADD10C,0.500000*%
%ADD11C,0.100000*%
%ADD12C,0.150000*%
%ADD13C,0.200000*%
%ADD14C,0.400000*%
%ADD15C,0.120000*%
%ADD16C,0.250000*%
%ADD17C,0.325000*%
%ADD18C,0.300000*%
%ADD19C,0.050000*%
%ADD20C,0.220000*%
%ADD21R,1.600000X3.200000*%
%ADD22C,1.500000*%
%ADD23C,2.800000*%
%ADD24O,1.350000X1.350000*%
%ADD25C,1.350000*%
%ADD26C,1.600000*%
%ADD27C,2.300000*%
%ADD28C,2.200000*%
%ADD29C,0.350000*%
%ADD30C,1.800000*%
%ADD31R,1.000000X1.800000*%
%ADD32R,0.600000X1.800000*%
G04 APERTURE END LIST*
D10*
G36*
X22000000Y-50000000D02*
G01*
X17000000Y-50000000D01*
X17000000Y-49000000D01*
X22000000Y-49000000D01*
X22000000Y-50000000D01*
G37*
X22000000Y-50000000D02*
X17000000Y-50000000D01*
X17000000Y-49000000D01*
X22000000Y-49000000D01*
X22000000Y-50000000D01*
G36*
X20000000Y-37000000D02*
G01*
X22000000Y-37000000D01*
X22000000Y-38000000D01*
X20000000Y-38000000D01*
X20000000Y-40000000D01*
X19000000Y-40000000D01*
X19000000Y-38000000D01*
X17000000Y-38000000D01*
X17000000Y-37000000D01*
X19000000Y-37000000D01*
X19000000Y-35000000D01*
X20000000Y-35000000D01*
X20000000Y-37000000D01*
G37*
X20000000Y-37000000D02*
X22000000Y-37000000D01*
X22000000Y-38000000D01*
X20000000Y-38000000D01*
X20000000Y-40000000D01*
X19000000Y-40000000D01*
X19000000Y-38000000D01*
X17000000Y-38000000D01*
X17000000Y-37000000D01*
X19000000Y-37000000D01*
X19000000Y-35000000D01*
X20000000Y-35000000D01*
X20000000Y-37000000D01*
D11*
G36*
X26000000Y-14700000D02*
G01*
X26000000Y-15100000D01*
X25800000Y-15100000D01*
X25800000Y-14700000D01*
X25400000Y-14700000D01*
X25400000Y-14500000D01*
X25800000Y-14500000D01*
X25800000Y-14100000D01*
X26000000Y-14100000D01*
X26000000Y-14500000D01*
X26400000Y-14500000D01*
X26400000Y-14700000D01*
X26000000Y-14700000D01*
G37*
X26000000Y-14700000D02*
X26000000Y-15100000D01*
X25800000Y-15100000D01*
X25800000Y-14700000D01*
X25400000Y-14700000D01*
X25400000Y-14500000D01*
X25800000Y-14500000D01*
X25800000Y-14100000D01*
X26000000Y-14100000D01*
X26000000Y-14500000D01*
X26400000Y-14500000D01*
X26400000Y-14700000D01*
X26000000Y-14700000D01*
D12*
X26300000Y-12700000D02*
X27700000Y-14100000D01*
X22500000Y-12700000D02*
X26300000Y-12700000D01*
X21100000Y-19300000D02*
X21100000Y-14100000D01*
X27700000Y-14100000D02*
X27700000Y-19300000D01*
X21100000Y-14100000D02*
X22500000Y-12700000D01*
X27700000Y-19300000D02*
X21100000Y-19300000D01*
X27284441Y-16000000D02*
G75*
G03*
X27284441Y-16000000I-2884441J0D01*
G01*
D11*
G36*
X26600000Y-17800000D02*
G01*
X25600000Y-18600000D01*
X24400000Y-18884441D01*
X23200000Y-18600000D01*
X22200000Y-17800000D01*
X21700000Y-16900000D01*
X27100000Y-16900000D01*
X26600000Y-17800000D01*
G37*
X26600000Y-17800000D02*
X25600000Y-18600000D01*
X24400000Y-18884441D01*
X23200000Y-18600000D01*
X22200000Y-17800000D01*
X21700000Y-16900000D01*
X27100000Y-16900000D01*
X26600000Y-17800000D01*
D13*
X13100000Y-64500000D02*
X26500000Y-64500000D01*
X28800000Y-62200000D02*
X28800000Y-23800000D01*
X26500000Y-21500000D02*
X13100000Y-21500000D01*
X10800000Y-23800000D02*
X10800000Y-62200000D01*
D12*
X27800000Y-23800000D02*
X24000000Y-23800000D01*
X15600000Y-23800000D02*
X11800000Y-23800000D01*
X15600000Y-62200000D02*
X11800000Y-62200000D01*
X27800000Y-62200000D02*
X24000000Y-62200000D01*
X28200000Y-24200000D02*
X28200000Y-61800000D01*
X11400000Y-24300000D02*
X11400000Y-61800000D01*
D14*
X20000000Y-28800000D02*
X20000000Y-26100000D01*
X19700000Y-28800000D02*
X20000000Y-28800000D01*
X19700000Y-26100000D02*
X19700000Y-28800000D01*
X20000000Y-26100000D02*
X19700000Y-26100000D01*
X19700000Y-57200000D02*
X19700000Y-59900000D01*
X19700000Y-59900000D02*
X20000000Y-59900000D01*
X20000000Y-59900000D02*
X20000000Y-57200000D01*
X18500000Y-27300000D02*
X18500000Y-27600000D01*
X18500000Y-27600000D02*
X21200000Y-27600000D01*
X21200000Y-27600000D02*
X21200000Y-27300000D01*
X21200000Y-27300000D02*
X18500000Y-27300000D01*
X19700000Y-57200000D02*
X20000000Y-57200000D01*
D15*
G36*
X18400000Y-25000000D02*
G01*
X18150000Y-24550000D01*
X18100000Y-23850000D01*
X18300000Y-23350000D01*
X18650000Y-22850000D01*
X19200000Y-22500000D01*
X19800000Y-22400000D01*
X19800000Y-21350000D01*
X15600000Y-21350000D01*
X15600000Y-25000000D01*
X18400000Y-25000000D01*
G37*
X18400000Y-25000000D02*
X18150000Y-24550000D01*
X18100000Y-23850000D01*
X18300000Y-23350000D01*
X18650000Y-22850000D01*
X19200000Y-22500000D01*
X19800000Y-22400000D01*
X19800000Y-21350000D01*
X15600000Y-21350000D01*
X15600000Y-25000000D01*
X18400000Y-25000000D01*
G36*
X21200000Y-25000000D02*
G01*
X21450000Y-24550000D01*
X21500000Y-23850000D01*
X21300000Y-23350000D01*
X20950000Y-22850000D01*
X20400000Y-22500000D01*
X19800000Y-22400000D01*
X19800000Y-21350000D01*
X24000000Y-21350000D01*
X24000000Y-25000000D01*
X21200000Y-25000000D01*
G37*
X21200000Y-25000000D02*
X21450000Y-24550000D01*
X21500000Y-23850000D01*
X21300000Y-23350000D01*
X20950000Y-22850000D01*
X20400000Y-22500000D01*
X19800000Y-22400000D01*
X19800000Y-21350000D01*
X24000000Y-21350000D01*
X24000000Y-25000000D01*
X21200000Y-25000000D01*
G36*
X21200000Y-61000000D02*
G01*
X21450000Y-61450000D01*
X21500000Y-62150000D01*
X21300000Y-62650000D01*
X20950000Y-63150000D01*
X20400000Y-63500000D01*
X19800000Y-63600000D01*
X19800000Y-64650000D01*
X24000000Y-64650000D01*
X24000000Y-61000000D01*
X21200000Y-61000000D01*
G37*
X21200000Y-61000000D02*
X21450000Y-61450000D01*
X21500000Y-62150000D01*
X21300000Y-62650000D01*
X20950000Y-63150000D01*
X20400000Y-63500000D01*
X19800000Y-63600000D01*
X19800000Y-64650000D01*
X24000000Y-64650000D01*
X24000000Y-61000000D01*
X21200000Y-61000000D01*
G36*
X18400000Y-61000000D02*
G01*
X18150000Y-61450000D01*
X18100000Y-62150000D01*
X18300000Y-62650000D01*
X18650000Y-63150000D01*
X19200000Y-63500000D01*
X19800000Y-63600000D01*
X19800000Y-64650000D01*
X15600000Y-64650000D01*
X15600000Y-61000000D01*
X18400000Y-61000000D01*
G37*
X18400000Y-61000000D02*
X18150000Y-61450000D01*
X18100000Y-62150000D01*
X18300000Y-62650000D01*
X18650000Y-63150000D01*
X19200000Y-63500000D01*
X19800000Y-63600000D01*
X19800000Y-64650000D01*
X15600000Y-64650000D01*
X15600000Y-61000000D01*
X18400000Y-61000000D01*
X21199999Y-61000000D02*
G75*
G02*
X18400000Y-61000001I-1399999J-900000D01*
G01*
X18400001Y-25000000D02*
G75*
G02*
X21200000Y-24999999I1399999J900000D01*
G01*
D13*
X13100000Y-21500000D02*
G75*
G03*
X10800000Y-23800000I0J-2300000D01*
G01*
X28800000Y-23800000D02*
G75*
G03*
X26500000Y-21500000I-2300000J0D01*
G01*
X26500000Y-64500000D02*
G75*
G03*
X28800000Y-62200000I0J2300000D01*
G01*
X10800000Y-62200000D02*
G75*
G03*
X13100000Y-64500000I2300000J0D01*
G01*
D12*
X27800000Y-23800000D02*
G75*
G02*
X28200000Y-24200000I0J-400000D01*
G01*
X11400000Y-24200000D02*
G75*
G02*
X11800000Y-23800000I400000J0D01*
G01*
X11800000Y-62200000D02*
G75*
G02*
X11400000Y-61800000I0J400000D01*
G01*
X28200000Y-61800000D02*
G75*
G02*
X27800000Y-62200000I-400000J0D01*
G01*
D11*
G36*
X12800000Y-80600000D02*
G01*
X13000000Y-80200000D01*
X13000000Y-79600000D01*
X12800000Y-79000000D01*
X13200000Y-79000000D01*
X13200000Y-85800000D01*
X12800000Y-85800000D01*
X13000000Y-85200000D01*
X13000000Y-84600000D01*
X12800000Y-84200000D01*
X12200000Y-83600000D01*
X12200000Y-81200000D01*
X12800000Y-80600000D01*
G37*
X12800000Y-80600000D02*
X13000000Y-80200000D01*
X13000000Y-79600000D01*
X12800000Y-79000000D01*
X13200000Y-79000000D01*
X13200000Y-85800000D01*
X12800000Y-85800000D01*
X13000000Y-85200000D01*
X13000000Y-84600000D01*
X12800000Y-84200000D01*
X12200000Y-83600000D01*
X12200000Y-81200000D01*
X12800000Y-80600000D01*
D13*
X12700000Y-85800000D02*
X15000000Y-85800000D01*
X15000000Y-85800000D02*
X15600000Y-85200000D01*
X12700000Y-79000000D02*
X15000000Y-79000000D01*
X15600000Y-79600000D02*
X15000000Y-79000000D01*
X15600000Y-85200000D02*
X15600000Y-79600000D01*
X12200000Y-83700001D02*
X12200000Y-81100000D01*
X12200000Y-81100000D02*
G75*
G03*
X12705033Y-79013873I-544966J1236127D01*
G01*
X12194070Y-83713478D02*
G75*
G02*
X12700000Y-85800000I-544069J-1236522D01*
G01*
D11*
G36*
X19200000Y-84200000D02*
G01*
X19000000Y-84600000D01*
X19000000Y-85200000D01*
X19200000Y-85800000D01*
X18800000Y-85800000D01*
X18800000Y-79000000D01*
X19200000Y-79000000D01*
X19000000Y-79600000D01*
X19000000Y-80200000D01*
X19200000Y-80600000D01*
X19800000Y-81200000D01*
X19800000Y-83600000D01*
X19200000Y-84200000D01*
G37*
X19200000Y-84200000D02*
X19000000Y-84600000D01*
X19000000Y-85200000D01*
X19200000Y-85800000D01*
X18800000Y-85800000D01*
X18800000Y-79000000D01*
X19200000Y-79000000D01*
X19000000Y-79600000D01*
X19000000Y-80200000D01*
X19200000Y-80600000D01*
X19800000Y-81200000D01*
X19800000Y-83600000D01*
X19200000Y-84200000D01*
D13*
X19300000Y-79000000D02*
X17000000Y-79000000D01*
X17000000Y-79000000D02*
X16400000Y-79600000D01*
X19300000Y-85800000D02*
X17000000Y-85800000D01*
X16400000Y-85200000D02*
X17000000Y-85800000D01*
X16400000Y-79600000D02*
X16400000Y-85200000D01*
X19800000Y-81099999D02*
X19800000Y-83700000D01*
X19800000Y-83700000D02*
G75*
G03*
X19294967Y-85786127I544966J-1236127D01*
G01*
X19805930Y-81086522D02*
G75*
G02*
X19300000Y-79000000I544069J1236522D01*
G01*
X31000000Y-8600000D02*
X21000000Y-8600000D01*
X21000000Y-8600000D02*
X21000000Y-10000000D01*
X21600000Y-10600000D02*
X30400000Y-10600000D01*
X31000000Y-8600000D02*
X31000000Y-10000000D01*
X21000000Y-10000000D02*
X21600000Y-10600000D01*
X30400000Y-10600000D02*
X31000000Y-10000000D01*
D11*
X26000000Y-8600000D02*
X26000000Y-10600000D01*
D13*
X21000000Y-8600000D02*
X11000000Y-8600000D01*
X11000000Y-8600000D02*
X11000000Y-10000000D01*
X11600000Y-10600000D02*
X20400000Y-10600000D01*
X21000000Y-8600000D02*
X21000000Y-10000000D01*
X11000000Y-10000000D02*
X11600000Y-10600000D01*
X20400000Y-10600000D02*
X21000000Y-10000000D01*
D11*
X16000000Y-8600000D02*
X16000000Y-10600000D01*
D13*
X11000000Y-8600000D02*
X1000000Y-8600000D01*
X1000000Y-8600000D02*
X1000000Y-10000000D01*
X1600000Y-10600000D02*
X10400000Y-10600000D01*
X11000000Y-8600000D02*
X11000000Y-10000000D01*
X1000000Y-10000000D02*
X1600000Y-10600000D01*
X10400000Y-10600000D02*
X11000000Y-10000000D01*
D11*
X6000000Y-8600000D02*
X6000000Y-10600000D01*
G36*
X5200000Y-84200000D02*
G01*
X5000000Y-84600000D01*
X5000000Y-85200000D01*
X5200000Y-85800000D01*
X4800000Y-85800000D01*
X4800000Y-79000000D01*
X5200000Y-79000000D01*
X5000000Y-79600000D01*
X5000000Y-80200000D01*
X5200000Y-80600000D01*
X5800000Y-81200000D01*
X5800000Y-83600000D01*
X5200000Y-84200000D01*
G37*
X5200000Y-84200000D02*
X5000000Y-84600000D01*
X5000000Y-85200000D01*
X5200000Y-85800000D01*
X4800000Y-85800000D01*
X4800000Y-79000000D01*
X5200000Y-79000000D01*
X5000000Y-79600000D01*
X5000000Y-80200000D01*
X5200000Y-80600000D01*
X5800000Y-81200000D01*
X5800000Y-83600000D01*
X5200000Y-84200000D01*
D13*
X5300000Y-79000000D02*
X3000000Y-79000000D01*
X3000000Y-79000000D02*
X2400000Y-79600000D01*
X5300000Y-85800000D02*
X3000000Y-85800000D01*
X2400000Y-85200000D02*
X3000000Y-85800000D01*
X2400000Y-79600000D02*
X2400000Y-85200000D01*
X5800000Y-81099999D02*
X5800000Y-83700000D01*
X5800000Y-83700000D02*
G75*
G03*
X5294967Y-85786127I544966J-1236127D01*
G01*
X5805930Y-81086522D02*
G75*
G02*
X5300000Y-79000000I544069J1236522D01*
G01*
D11*
G36*
X26800000Y-80600000D02*
G01*
X27000000Y-80200000D01*
X27000000Y-79600000D01*
X26800000Y-79000000D01*
X27200000Y-79000000D01*
X27200000Y-85800000D01*
X26800000Y-85800000D01*
X27000000Y-85200000D01*
X27000000Y-84600000D01*
X26800000Y-84200000D01*
X26200000Y-83600000D01*
X26200000Y-81200000D01*
X26800000Y-80600000D01*
G37*
X26800000Y-80600000D02*
X27000000Y-80200000D01*
X27000000Y-79600000D01*
X26800000Y-79000000D01*
X27200000Y-79000000D01*
X27200000Y-85800000D01*
X26800000Y-85800000D01*
X27000000Y-85200000D01*
X27000000Y-84600000D01*
X26800000Y-84200000D01*
X26200000Y-83600000D01*
X26200000Y-81200000D01*
X26800000Y-80600000D01*
D13*
X26700000Y-85800000D02*
X29000000Y-85800000D01*
X29000000Y-85800000D02*
X29600000Y-85200000D01*
X26700000Y-79000000D02*
X29000000Y-79000000D01*
X29600000Y-79600000D02*
X29000000Y-79000000D01*
X29600000Y-85200000D02*
X29600000Y-79600000D01*
X26200000Y-83700001D02*
X26200000Y-81100000D01*
X26200000Y-81100000D02*
G75*
G03*
X26705033Y-79013873I-544966J1236127D01*
G01*
X26194070Y-83713478D02*
G75*
G02*
X26700000Y-85800000I-544069J-1236522D01*
G01*
D12*
X3460000Y-31697000D02*
X3587000Y-31570000D01*
X5873000Y-31570000D02*
X3587000Y-31570000D01*
X6000000Y-31697000D02*
X5873000Y-31570000D01*
X6000000Y-33983000D02*
X6000000Y-31697000D01*
X3460000Y-33983000D02*
X3460000Y-31697000D01*
X3587000Y-34110000D02*
X3460000Y-33983000D01*
X5873000Y-34110000D02*
X3587000Y-34110000D01*
X6000000Y-33983000D02*
X5873000Y-34110000D01*
X6000000Y-31697000D02*
X6127000Y-31570000D01*
X8413000Y-31570000D02*
X6127000Y-31570000D01*
X8540000Y-31697000D02*
X8413000Y-31570000D01*
X8540000Y-33983000D02*
X8540000Y-31697000D01*
X8413000Y-34110000D02*
X8540000Y-33983000D01*
X6127000Y-34110000D02*
X8413000Y-34110000D01*
X6000000Y-33983000D02*
X6127000Y-34110000D01*
X3460000Y-34237000D02*
X3587000Y-34110000D01*
X6000000Y-34237000D02*
X5873000Y-34110000D01*
X6000000Y-36523000D02*
X6000000Y-34237000D01*
X3460000Y-36523000D02*
X3460000Y-34237000D01*
X3587000Y-36650000D02*
X3460000Y-36523000D01*
X5873000Y-36650000D02*
X3587000Y-36650000D01*
X6000000Y-36523000D02*
X5873000Y-36650000D01*
X6000000Y-34237000D02*
X6127000Y-34110000D01*
X8540000Y-34237000D02*
X8413000Y-34110000D01*
X8540000Y-36523000D02*
X8540000Y-34237000D01*
X8413000Y-36650000D02*
X8540000Y-36523000D01*
X6127000Y-36650000D02*
X8413000Y-36650000D01*
X6000000Y-36523000D02*
X6127000Y-36650000D01*
X3460000Y-36777000D02*
X3587000Y-36650000D01*
X6000000Y-36777000D02*
X5873000Y-36650000D01*
X6000000Y-39063000D02*
X6000000Y-36777000D01*
X3460000Y-39063000D02*
X3460000Y-36777000D01*
X3587000Y-39190000D02*
X3460000Y-39063000D01*
X5873000Y-39190000D02*
X3587000Y-39190000D01*
X6000000Y-39063000D02*
X5873000Y-39190000D01*
X6000000Y-36777000D02*
X6127000Y-36650000D01*
X8540000Y-36777000D02*
X8413000Y-36650000D01*
X8540000Y-39063000D02*
X8540000Y-36777000D01*
X8413000Y-39190000D02*
X8540000Y-39063000D01*
X6127000Y-39190000D02*
X8413000Y-39190000D01*
X6000000Y-39063000D02*
X6127000Y-39190000D01*
X3460000Y-39317000D02*
X3587000Y-39190000D01*
X6000000Y-39317000D02*
X5873000Y-39190000D01*
X6000000Y-41603000D02*
X6000000Y-39317000D01*
X3460000Y-41603000D02*
X3460000Y-39317000D01*
X3587000Y-41730000D02*
X3460000Y-41603000D01*
X5873000Y-41730000D02*
X3587000Y-41730000D01*
X6000000Y-41603000D02*
X5873000Y-41730000D01*
X6000000Y-39317000D02*
X6127000Y-39190000D01*
X8540000Y-39317000D02*
X8413000Y-39190000D01*
X8540000Y-41603000D02*
X8540000Y-39317000D01*
X8413000Y-41730000D02*
X8540000Y-41603000D01*
X6127000Y-41730000D02*
X8413000Y-41730000D01*
X6000000Y-41603000D02*
X6127000Y-41730000D01*
X3460000Y-41857000D02*
X3587000Y-41730000D01*
X6000000Y-41857000D02*
X5873000Y-41730000D01*
X6000000Y-44143000D02*
X6000000Y-41857000D01*
X3460000Y-44143000D02*
X3460000Y-41857000D01*
X3587000Y-44270000D02*
X3460000Y-44143000D01*
X5873000Y-44270000D02*
X3587000Y-44270000D01*
X6000000Y-44143000D02*
X5873000Y-44270000D01*
X6000000Y-41857000D02*
X6127000Y-41730000D01*
X8540000Y-41857000D02*
X8413000Y-41730000D01*
X8540000Y-44143000D02*
X8540000Y-41857000D01*
X8413000Y-44270000D02*
X8540000Y-44143000D01*
X6127000Y-44270000D02*
X8413000Y-44270000D01*
X6000000Y-44143000D02*
X6127000Y-44270000D01*
X3460000Y-44397000D02*
X3587000Y-44270000D01*
X6000000Y-44397000D02*
X5873000Y-44270000D01*
X6000000Y-46683000D02*
X6000000Y-44397000D01*
X3460000Y-46683000D02*
X3460000Y-44397000D01*
X3587000Y-46810000D02*
X3460000Y-46683000D01*
X5873000Y-46810000D02*
X3587000Y-46810000D01*
X6000000Y-46683000D02*
X5873000Y-46810000D01*
X6000000Y-44397000D02*
X6127000Y-44270000D01*
X8540000Y-44397000D02*
X8413000Y-44270000D01*
X8540000Y-46683000D02*
X8540000Y-44397000D01*
X8413000Y-46810000D02*
X8540000Y-46683000D01*
X6127000Y-46810000D02*
X8413000Y-46810000D01*
X6000000Y-46683000D02*
X6127000Y-46810000D01*
X3460000Y-46937000D02*
X3587000Y-46810000D01*
X6000000Y-46937000D02*
X5873000Y-46810000D01*
X6000000Y-49223000D02*
X6000000Y-46937000D01*
X3460000Y-49223000D02*
X3460000Y-46937000D01*
X3587000Y-49350000D02*
X3460000Y-49223000D01*
X5873000Y-49350000D02*
X3587000Y-49350000D01*
X6000000Y-49223000D02*
X5873000Y-49350000D01*
X6000000Y-46937000D02*
X6127000Y-46810000D01*
X8540000Y-46937000D02*
X8413000Y-46810000D01*
X8540000Y-49223000D02*
X8540000Y-46937000D01*
X8413000Y-49350000D02*
X8540000Y-49223000D01*
X6127000Y-49350000D02*
X8413000Y-49350000D01*
X6000000Y-49223000D02*
X6127000Y-49350000D01*
X3460000Y-49477000D02*
X3587000Y-49350000D01*
X6000000Y-49477000D02*
X5873000Y-49350000D01*
X6000000Y-51763000D02*
X6000000Y-49477000D01*
X3460000Y-51763000D02*
X3460000Y-49477000D01*
X3587000Y-51890000D02*
X3460000Y-51763000D01*
X5873000Y-51890000D02*
X3587000Y-51890000D01*
X6000000Y-51763000D02*
X5873000Y-51890000D01*
X6000000Y-49477000D02*
X6127000Y-49350000D01*
X8540000Y-49477000D02*
X8413000Y-49350000D01*
X8540000Y-51763000D02*
X8540000Y-49477000D01*
X8413000Y-51890000D02*
X8540000Y-51763000D01*
X6127000Y-51890000D02*
X8413000Y-51890000D01*
X6000000Y-51763000D02*
X6127000Y-51890000D01*
X3460000Y-52017000D02*
X3587000Y-51890000D01*
X6000000Y-52017000D02*
X5873000Y-51890000D01*
X6000000Y-54303000D02*
X6000000Y-52017000D01*
X3460000Y-54303000D02*
X3460000Y-52017000D01*
X3587000Y-54430000D02*
X3460000Y-54303000D01*
X5873000Y-54430000D02*
X3587000Y-54430000D01*
X6000000Y-54303000D02*
X5873000Y-54430000D01*
X6000000Y-52017000D02*
X6127000Y-51890000D01*
X8540000Y-52017000D02*
X8413000Y-51890000D01*
X8540000Y-54303000D02*
X8540000Y-52017000D01*
X8413000Y-54430000D02*
X8540000Y-54303000D01*
X6127000Y-54430000D02*
X8413000Y-54430000D01*
X6000000Y-54303000D02*
X6127000Y-54430000D01*
D14*
X8317269Y-32840000D02*
G75*
G03*
X8317269Y-32840000I-1047269J0D01*
G01*
D11*
G36*
X6000000Y-32713000D02*
G01*
X6000000Y-31697000D01*
X6127000Y-31570000D01*
X7143000Y-31570000D01*
X6000000Y-32713000D01*
G37*
X6000000Y-32713000D02*
X6000000Y-31697000D01*
X6127000Y-31570000D01*
X7143000Y-31570000D01*
X6000000Y-32713000D01*
G36*
X7143000Y-34110000D02*
G01*
X6127000Y-34110000D01*
X6000000Y-33983000D01*
X6000000Y-32967000D01*
X7143000Y-34110000D01*
G37*
X7143000Y-34110000D02*
X6127000Y-34110000D01*
X6000000Y-33983000D01*
X6000000Y-32967000D01*
X7143000Y-34110000D01*
G36*
X8540000Y-32967000D02*
G01*
X8540000Y-33983000D01*
X8413000Y-34110000D01*
X7397000Y-34110000D01*
X8540000Y-32967000D01*
G37*
X8540000Y-32967000D02*
X8540000Y-33983000D01*
X8413000Y-34110000D01*
X7397000Y-34110000D01*
X8540000Y-32967000D01*
G36*
X7397000Y-31570000D02*
G01*
X8413000Y-31570000D01*
X8540000Y-31697000D01*
X8540000Y-32713000D01*
X7397000Y-31570000D01*
G37*
X7397000Y-31570000D02*
X8413000Y-31570000D01*
X8540000Y-31697000D01*
X8540000Y-32713000D01*
X7397000Y-31570000D01*
G36*
X4857000Y-31570000D02*
G01*
X5873000Y-31570000D01*
X6000000Y-31697000D01*
X6000000Y-32713000D01*
X4857000Y-31570000D01*
G37*
X4857000Y-31570000D02*
X5873000Y-31570000D01*
X6000000Y-31697000D01*
X6000000Y-32713000D01*
X4857000Y-31570000D01*
G36*
X3460000Y-32713000D02*
G01*
X3460000Y-31697000D01*
X3587000Y-31570000D01*
X4603000Y-31570000D01*
X3460000Y-32713000D01*
G37*
X3460000Y-32713000D02*
X3460000Y-31697000D01*
X3587000Y-31570000D01*
X4603000Y-31570000D01*
X3460000Y-32713000D01*
G36*
X6000000Y-32967000D02*
G01*
X6000000Y-33983000D01*
X5873000Y-34110000D01*
X4857000Y-34110000D01*
X6000000Y-32967000D01*
G37*
X6000000Y-32967000D02*
X6000000Y-33983000D01*
X5873000Y-34110000D01*
X4857000Y-34110000D01*
X6000000Y-32967000D01*
D14*
X5777269Y-32840000D02*
G75*
G03*
X5777269Y-32840000I-1047269J0D01*
G01*
D11*
G36*
X4603000Y-34110000D02*
G01*
X3587000Y-34110000D01*
X3460000Y-33983000D01*
X3460000Y-32967000D01*
X4603000Y-34110000D01*
G37*
X4603000Y-34110000D02*
X3587000Y-34110000D01*
X3460000Y-33983000D01*
X3460000Y-32967000D01*
X4603000Y-34110000D01*
G36*
X4603000Y-36650000D02*
G01*
X3587000Y-36650000D01*
X3460000Y-36523000D01*
X3460000Y-35507000D01*
X4603000Y-36650000D01*
G37*
X4603000Y-36650000D02*
X3587000Y-36650000D01*
X3460000Y-36523000D01*
X3460000Y-35507000D01*
X4603000Y-36650000D01*
G36*
X6000000Y-35507000D02*
G01*
X6000000Y-36523000D01*
X5873000Y-36650000D01*
X4857000Y-36650000D01*
X6000000Y-35507000D01*
G37*
X6000000Y-35507000D02*
X6000000Y-36523000D01*
X5873000Y-36650000D01*
X4857000Y-36650000D01*
X6000000Y-35507000D01*
D14*
X5777269Y-35380000D02*
G75*
G03*
X5777269Y-35380000I-1047269J0D01*
G01*
D11*
G36*
X8540000Y-35507000D02*
G01*
X8540000Y-36523000D01*
X8413000Y-36650000D01*
X7397000Y-36650000D01*
X8540000Y-35507000D01*
G37*
X8540000Y-35507000D02*
X8540000Y-36523000D01*
X8413000Y-36650000D01*
X7397000Y-36650000D01*
X8540000Y-35507000D01*
G36*
X4857000Y-34110000D02*
G01*
X5873000Y-34110000D01*
X6000000Y-34237000D01*
X6000000Y-35253000D01*
X4857000Y-34110000D01*
G37*
X4857000Y-34110000D02*
X5873000Y-34110000D01*
X6000000Y-34237000D01*
X6000000Y-35253000D01*
X4857000Y-34110000D01*
G36*
X7143000Y-36650000D02*
G01*
X6127000Y-36650000D01*
X6000000Y-36523000D01*
X6000000Y-35507000D01*
X7143000Y-36650000D01*
G37*
X7143000Y-36650000D02*
X6127000Y-36650000D01*
X6000000Y-36523000D01*
X6000000Y-35507000D01*
X7143000Y-36650000D01*
G36*
X3460000Y-35253000D02*
G01*
X3460000Y-34237000D01*
X3587000Y-34110000D01*
X4603000Y-34110000D01*
X3460000Y-35253000D01*
G37*
X3460000Y-35253000D02*
X3460000Y-34237000D01*
X3587000Y-34110000D01*
X4603000Y-34110000D01*
X3460000Y-35253000D01*
D14*
X8317269Y-35380000D02*
G75*
G03*
X8317269Y-35380000I-1047269J0D01*
G01*
D11*
G36*
X7397000Y-34110000D02*
G01*
X8413000Y-34110000D01*
X8540000Y-34237000D01*
X8540000Y-35253000D01*
X7397000Y-34110000D01*
G37*
X7397000Y-34110000D02*
X8413000Y-34110000D01*
X8540000Y-34237000D01*
X8540000Y-35253000D01*
X7397000Y-34110000D01*
G36*
X6000000Y-35253000D02*
G01*
X6000000Y-34237000D01*
X6127000Y-34110000D01*
X7143000Y-34110000D01*
X6000000Y-35253000D01*
G37*
X6000000Y-35253000D02*
X6000000Y-34237000D01*
X6127000Y-34110000D01*
X7143000Y-34110000D01*
X6000000Y-35253000D01*
G36*
X4603000Y-39190000D02*
G01*
X3587000Y-39190000D01*
X3460000Y-39063000D01*
X3460000Y-38047000D01*
X4603000Y-39190000D01*
G37*
X4603000Y-39190000D02*
X3587000Y-39190000D01*
X3460000Y-39063000D01*
X3460000Y-38047000D01*
X4603000Y-39190000D01*
G36*
X6000000Y-38047000D02*
G01*
X6000000Y-39063000D01*
X5873000Y-39190000D01*
X4857000Y-39190000D01*
X6000000Y-38047000D01*
G37*
X6000000Y-38047000D02*
X6000000Y-39063000D01*
X5873000Y-39190000D01*
X4857000Y-39190000D01*
X6000000Y-38047000D01*
D14*
X5777269Y-37920000D02*
G75*
G03*
X5777269Y-37920000I-1047269J0D01*
G01*
D11*
G36*
X8540000Y-38047000D02*
G01*
X8540000Y-39063000D01*
X8413000Y-39190000D01*
X7397000Y-39190000D01*
X8540000Y-38047000D01*
G37*
X8540000Y-38047000D02*
X8540000Y-39063000D01*
X8413000Y-39190000D01*
X7397000Y-39190000D01*
X8540000Y-38047000D01*
G36*
X4857000Y-36650000D02*
G01*
X5873000Y-36650000D01*
X6000000Y-36777000D01*
X6000000Y-37793000D01*
X4857000Y-36650000D01*
G37*
X4857000Y-36650000D02*
X5873000Y-36650000D01*
X6000000Y-36777000D01*
X6000000Y-37793000D01*
X4857000Y-36650000D01*
G36*
X7143000Y-39190000D02*
G01*
X6127000Y-39190000D01*
X6000000Y-39063000D01*
X6000000Y-38047000D01*
X7143000Y-39190000D01*
G37*
X7143000Y-39190000D02*
X6127000Y-39190000D01*
X6000000Y-39063000D01*
X6000000Y-38047000D01*
X7143000Y-39190000D01*
G36*
X3460000Y-37793000D02*
G01*
X3460000Y-36777000D01*
X3587000Y-36650000D01*
X4603000Y-36650000D01*
X3460000Y-37793000D01*
G37*
X3460000Y-37793000D02*
X3460000Y-36777000D01*
X3587000Y-36650000D01*
X4603000Y-36650000D01*
X3460000Y-37793000D01*
D14*
X8317269Y-37920000D02*
G75*
G03*
X8317269Y-37920000I-1047269J0D01*
G01*
D11*
G36*
X7397000Y-36650000D02*
G01*
X8413000Y-36650000D01*
X8540000Y-36777000D01*
X8540000Y-37793000D01*
X7397000Y-36650000D01*
G37*
X7397000Y-36650000D02*
X8413000Y-36650000D01*
X8540000Y-36777000D01*
X8540000Y-37793000D01*
X7397000Y-36650000D01*
G36*
X6000000Y-37793000D02*
G01*
X6000000Y-36777000D01*
X6127000Y-36650000D01*
X7143000Y-36650000D01*
X6000000Y-37793000D01*
G37*
X6000000Y-37793000D02*
X6000000Y-36777000D01*
X6127000Y-36650000D01*
X7143000Y-36650000D01*
X6000000Y-37793000D01*
G36*
X6000000Y-40587000D02*
G01*
X6000000Y-41603000D01*
X5873000Y-41730000D01*
X4857000Y-41730000D01*
X6000000Y-40587000D01*
G37*
X6000000Y-40587000D02*
X6000000Y-41603000D01*
X5873000Y-41730000D01*
X4857000Y-41730000D01*
X6000000Y-40587000D01*
G36*
X4603000Y-41730000D02*
G01*
X3587000Y-41730000D01*
X3460000Y-41603000D01*
X3460000Y-40587000D01*
X4603000Y-41730000D01*
G37*
X4603000Y-41730000D02*
X3587000Y-41730000D01*
X3460000Y-41603000D01*
X3460000Y-40587000D01*
X4603000Y-41730000D01*
G36*
X4857000Y-39190000D02*
G01*
X5873000Y-39190000D01*
X6000000Y-39317000D01*
X6000000Y-40333000D01*
X4857000Y-39190000D01*
G37*
X4857000Y-39190000D02*
X5873000Y-39190000D01*
X6000000Y-39317000D01*
X6000000Y-40333000D01*
X4857000Y-39190000D01*
G36*
X7143000Y-41730000D02*
G01*
X6127000Y-41730000D01*
X6000000Y-41603000D01*
X6000000Y-40587000D01*
X7143000Y-41730000D01*
G37*
X7143000Y-41730000D02*
X6127000Y-41730000D01*
X6000000Y-41603000D01*
X6000000Y-40587000D01*
X7143000Y-41730000D01*
G36*
X7397000Y-39190000D02*
G01*
X8413000Y-39190000D01*
X8540000Y-39317000D01*
X8540000Y-40333000D01*
X7397000Y-39190000D01*
G37*
X7397000Y-39190000D02*
X8413000Y-39190000D01*
X8540000Y-39317000D01*
X8540000Y-40333000D01*
X7397000Y-39190000D01*
D14*
X8317269Y-40460000D02*
G75*
G03*
X8317269Y-40460000I-1047269J0D01*
G01*
D11*
G36*
X3460000Y-40333000D02*
G01*
X3460000Y-39317000D01*
X3587000Y-39190000D01*
X4603000Y-39190000D01*
X3460000Y-40333000D01*
G37*
X3460000Y-40333000D02*
X3460000Y-39317000D01*
X3587000Y-39190000D01*
X4603000Y-39190000D01*
X3460000Y-40333000D01*
G36*
X8540000Y-40587000D02*
G01*
X8540000Y-41603000D01*
X8413000Y-41730000D01*
X7397000Y-41730000D01*
X8540000Y-40587000D01*
G37*
X8540000Y-40587000D02*
X8540000Y-41603000D01*
X8413000Y-41730000D01*
X7397000Y-41730000D01*
X8540000Y-40587000D01*
D14*
X5777269Y-40460000D02*
G75*
G03*
X5777269Y-40460000I-1047269J0D01*
G01*
D11*
G36*
X6000000Y-40333000D02*
G01*
X6000000Y-39317000D01*
X6127000Y-39190000D01*
X7143000Y-39190000D01*
X6000000Y-40333000D01*
G37*
X6000000Y-40333000D02*
X6000000Y-39317000D01*
X6127000Y-39190000D01*
X7143000Y-39190000D01*
X6000000Y-40333000D01*
G36*
X4857000Y-49350000D02*
G01*
X5873000Y-49350000D01*
X6000000Y-49477000D01*
X6000000Y-50493000D01*
X4857000Y-49350000D01*
G37*
X4857000Y-49350000D02*
X5873000Y-49350000D01*
X6000000Y-49477000D01*
X6000000Y-50493000D01*
X4857000Y-49350000D01*
G36*
X7143000Y-51890000D02*
G01*
X6127000Y-51890000D01*
X6000000Y-51763000D01*
X6000000Y-50747000D01*
X7143000Y-51890000D01*
G37*
X7143000Y-51890000D02*
X6127000Y-51890000D01*
X6000000Y-51763000D01*
X6000000Y-50747000D01*
X7143000Y-51890000D01*
G36*
X7397000Y-46810000D02*
G01*
X8413000Y-46810000D01*
X8540000Y-46937000D01*
X8540000Y-47953000D01*
X7397000Y-46810000D01*
G37*
X7397000Y-46810000D02*
X8413000Y-46810000D01*
X8540000Y-46937000D01*
X8540000Y-47953000D01*
X7397000Y-46810000D01*
D14*
X8317269Y-48080000D02*
G75*
G03*
X8317269Y-48080000I-1047269J0D01*
G01*
X5777269Y-50620000D02*
G75*
G03*
X5777269Y-50620000I-1047269J0D01*
G01*
D11*
G36*
X4603000Y-51890000D02*
G01*
X3587000Y-51890000D01*
X3460000Y-51763000D01*
X3460000Y-50747000D01*
X4603000Y-51890000D01*
G37*
X4603000Y-51890000D02*
X3587000Y-51890000D01*
X3460000Y-51763000D01*
X3460000Y-50747000D01*
X4603000Y-51890000D01*
G36*
X6000000Y-50493000D02*
G01*
X6000000Y-49477000D01*
X6127000Y-49350000D01*
X7143000Y-49350000D01*
X6000000Y-50493000D01*
G37*
X6000000Y-50493000D02*
X6000000Y-49477000D01*
X6127000Y-49350000D01*
X7143000Y-49350000D01*
X6000000Y-50493000D01*
G36*
X7397000Y-49350000D02*
G01*
X8413000Y-49350000D01*
X8540000Y-49477000D01*
X8540000Y-50493000D01*
X7397000Y-49350000D01*
G37*
X7397000Y-49350000D02*
X8413000Y-49350000D01*
X8540000Y-49477000D01*
X8540000Y-50493000D01*
X7397000Y-49350000D01*
G36*
X8540000Y-50747000D02*
G01*
X8540000Y-51763000D01*
X8413000Y-51890000D01*
X7397000Y-51890000D01*
X8540000Y-50747000D01*
G37*
X8540000Y-50747000D02*
X8540000Y-51763000D01*
X8413000Y-51890000D01*
X7397000Y-51890000D01*
X8540000Y-50747000D01*
G36*
X6000000Y-50747000D02*
G01*
X6000000Y-51763000D01*
X5873000Y-51890000D01*
X4857000Y-51890000D01*
X6000000Y-50747000D01*
G37*
X6000000Y-50747000D02*
X6000000Y-51763000D01*
X5873000Y-51890000D01*
X4857000Y-51890000D01*
X6000000Y-50747000D01*
G36*
X3460000Y-50493000D02*
G01*
X3460000Y-49477000D01*
X3587000Y-49350000D01*
X4603000Y-49350000D01*
X3460000Y-50493000D01*
G37*
X3460000Y-50493000D02*
X3460000Y-49477000D01*
X3587000Y-49350000D01*
X4603000Y-49350000D01*
X3460000Y-50493000D01*
D14*
X8317269Y-50620000D02*
G75*
G03*
X8317269Y-50620000I-1047269J0D01*
G01*
D11*
G36*
X6000000Y-47953000D02*
G01*
X6000000Y-46937000D01*
X6127000Y-46810000D01*
X7143000Y-46810000D01*
X6000000Y-47953000D01*
G37*
X6000000Y-47953000D02*
X6000000Y-46937000D01*
X6127000Y-46810000D01*
X7143000Y-46810000D01*
X6000000Y-47953000D01*
G36*
X3460000Y-47953000D02*
G01*
X3460000Y-46937000D01*
X3587000Y-46810000D01*
X4603000Y-46810000D01*
X3460000Y-47953000D01*
G37*
X3460000Y-47953000D02*
X3460000Y-46937000D01*
X3587000Y-46810000D01*
X4603000Y-46810000D01*
X3460000Y-47953000D01*
G36*
X7143000Y-49350000D02*
G01*
X6127000Y-49350000D01*
X6000000Y-49223000D01*
X6000000Y-48207000D01*
X7143000Y-49350000D01*
G37*
X7143000Y-49350000D02*
X6127000Y-49350000D01*
X6000000Y-49223000D01*
X6000000Y-48207000D01*
X7143000Y-49350000D01*
G36*
X4603000Y-44270000D02*
G01*
X3587000Y-44270000D01*
X3460000Y-44143000D01*
X3460000Y-43127000D01*
X4603000Y-44270000D01*
G37*
X4603000Y-44270000D02*
X3587000Y-44270000D01*
X3460000Y-44143000D01*
X3460000Y-43127000D01*
X4603000Y-44270000D01*
G36*
X6000000Y-43127000D02*
G01*
X6000000Y-44143000D01*
X5873000Y-44270000D01*
X4857000Y-44270000D01*
X6000000Y-43127000D01*
G37*
X6000000Y-43127000D02*
X6000000Y-44143000D01*
X5873000Y-44270000D01*
X4857000Y-44270000D01*
X6000000Y-43127000D01*
D14*
X5777269Y-43000000D02*
G75*
G03*
X5777269Y-43000000I-1047269J0D01*
G01*
D11*
G36*
X8540000Y-43127000D02*
G01*
X8540000Y-44143000D01*
X8413000Y-44270000D01*
X7397000Y-44270000D01*
X8540000Y-43127000D01*
G37*
X8540000Y-43127000D02*
X8540000Y-44143000D01*
X8413000Y-44270000D01*
X7397000Y-44270000D01*
X8540000Y-43127000D01*
D14*
X5777269Y-48080000D02*
G75*
G03*
X5777269Y-48080000I-1047269J0D01*
G01*
D11*
G36*
X4857000Y-46810000D02*
G01*
X5873000Y-46810000D01*
X6000000Y-46937000D01*
X6000000Y-47953000D01*
X4857000Y-46810000D01*
G37*
X4857000Y-46810000D02*
X5873000Y-46810000D01*
X6000000Y-46937000D01*
X6000000Y-47953000D01*
X4857000Y-46810000D01*
G36*
X8540000Y-48207000D02*
G01*
X8540000Y-49223000D01*
X8413000Y-49350000D01*
X7397000Y-49350000D01*
X8540000Y-48207000D01*
G37*
X8540000Y-48207000D02*
X8540000Y-49223000D01*
X8413000Y-49350000D01*
X7397000Y-49350000D01*
X8540000Y-48207000D01*
G36*
X4857000Y-41730000D02*
G01*
X5873000Y-41730000D01*
X6000000Y-41857000D01*
X6000000Y-42873000D01*
X4857000Y-41730000D01*
G37*
X4857000Y-41730000D02*
X5873000Y-41730000D01*
X6000000Y-41857000D01*
X6000000Y-42873000D01*
X4857000Y-41730000D01*
G36*
X6000000Y-48207000D02*
G01*
X6000000Y-49223000D01*
X5873000Y-49350000D01*
X4857000Y-49350000D01*
X6000000Y-48207000D01*
G37*
X6000000Y-48207000D02*
X6000000Y-49223000D01*
X5873000Y-49350000D01*
X4857000Y-49350000D01*
X6000000Y-48207000D01*
G36*
X4603000Y-49350000D02*
G01*
X3587000Y-49350000D01*
X3460000Y-49223000D01*
X3460000Y-48207000D01*
X4603000Y-49350000D01*
G37*
X4603000Y-49350000D02*
X3587000Y-49350000D01*
X3460000Y-49223000D01*
X3460000Y-48207000D01*
X4603000Y-49350000D01*
G36*
X7143000Y-44270000D02*
G01*
X6127000Y-44270000D01*
X6000000Y-44143000D01*
X6000000Y-43127000D01*
X7143000Y-44270000D01*
G37*
X7143000Y-44270000D02*
X6127000Y-44270000D01*
X6000000Y-44143000D01*
X6000000Y-43127000D01*
X7143000Y-44270000D01*
G36*
X3460000Y-42873000D02*
G01*
X3460000Y-41857000D01*
X3587000Y-41730000D01*
X4603000Y-41730000D01*
X3460000Y-42873000D01*
G37*
X3460000Y-42873000D02*
X3460000Y-41857000D01*
X3587000Y-41730000D01*
X4603000Y-41730000D01*
X3460000Y-42873000D01*
D14*
X8317269Y-43000000D02*
G75*
G03*
X8317269Y-43000000I-1047269J0D01*
G01*
D11*
G36*
X7397000Y-41730000D02*
G01*
X8413000Y-41730000D01*
X8540000Y-41857000D01*
X8540000Y-42873000D01*
X7397000Y-41730000D01*
G37*
X7397000Y-41730000D02*
X8413000Y-41730000D01*
X8540000Y-41857000D01*
X8540000Y-42873000D01*
X7397000Y-41730000D01*
G36*
X6000000Y-42873000D02*
G01*
X6000000Y-41857000D01*
X6127000Y-41730000D01*
X7143000Y-41730000D01*
X6000000Y-42873000D01*
G37*
X6000000Y-42873000D02*
X6000000Y-41857000D01*
X6127000Y-41730000D01*
X7143000Y-41730000D01*
X6000000Y-42873000D01*
G36*
X6000000Y-45667000D02*
G01*
X6000000Y-46683000D01*
X5873000Y-46810000D01*
X4857000Y-46810000D01*
X6000000Y-45667000D01*
G37*
X6000000Y-45667000D02*
X6000000Y-46683000D01*
X5873000Y-46810000D01*
X4857000Y-46810000D01*
X6000000Y-45667000D01*
G36*
X4603000Y-46810000D02*
G01*
X3587000Y-46810000D01*
X3460000Y-46683000D01*
X3460000Y-45667000D01*
X4603000Y-46810000D01*
G37*
X4603000Y-46810000D02*
X3587000Y-46810000D01*
X3460000Y-46683000D01*
X3460000Y-45667000D01*
X4603000Y-46810000D01*
G36*
X4857000Y-44270000D02*
G01*
X5873000Y-44270000D01*
X6000000Y-44397000D01*
X6000000Y-45413000D01*
X4857000Y-44270000D01*
G37*
X4857000Y-44270000D02*
X5873000Y-44270000D01*
X6000000Y-44397000D01*
X6000000Y-45413000D01*
X4857000Y-44270000D01*
G36*
X7143000Y-46810000D02*
G01*
X6127000Y-46810000D01*
X6000000Y-46683000D01*
X6000000Y-45667000D01*
X7143000Y-46810000D01*
G37*
X7143000Y-46810000D02*
X6127000Y-46810000D01*
X6000000Y-46683000D01*
X6000000Y-45667000D01*
X7143000Y-46810000D01*
G36*
X7397000Y-44270000D02*
G01*
X8413000Y-44270000D01*
X8540000Y-44397000D01*
X8540000Y-45413000D01*
X7397000Y-44270000D01*
G37*
X7397000Y-44270000D02*
X8413000Y-44270000D01*
X8540000Y-44397000D01*
X8540000Y-45413000D01*
X7397000Y-44270000D01*
D14*
X8317269Y-45540000D02*
G75*
G03*
X8317269Y-45540000I-1047269J0D01*
G01*
D11*
G36*
X3460000Y-45413000D02*
G01*
X3460000Y-44397000D01*
X3587000Y-44270000D01*
X4603000Y-44270000D01*
X3460000Y-45413000D01*
G37*
X3460000Y-45413000D02*
X3460000Y-44397000D01*
X3587000Y-44270000D01*
X4603000Y-44270000D01*
X3460000Y-45413000D01*
G36*
X8540000Y-45667000D02*
G01*
X8540000Y-46683000D01*
X8413000Y-46810000D01*
X7397000Y-46810000D01*
X8540000Y-45667000D01*
G37*
X8540000Y-45667000D02*
X8540000Y-46683000D01*
X8413000Y-46810000D01*
X7397000Y-46810000D01*
X8540000Y-45667000D01*
D14*
X5777269Y-45540000D02*
G75*
G03*
X5777269Y-45540000I-1047269J0D01*
G01*
D11*
G36*
X6000000Y-45413000D02*
G01*
X6000000Y-44397000D01*
X6127000Y-44270000D01*
X7143000Y-44270000D01*
X6000000Y-45413000D01*
G37*
X6000000Y-45413000D02*
X6000000Y-44397000D01*
X6127000Y-44270000D01*
X7143000Y-44270000D01*
X6000000Y-45413000D01*
G36*
X4603000Y-54430000D02*
G01*
X3587000Y-54430000D01*
X3460000Y-54303000D01*
X3460000Y-53287000D01*
X4603000Y-54430000D01*
G37*
X4603000Y-54430000D02*
X3587000Y-54430000D01*
X3460000Y-54303000D01*
X3460000Y-53287000D01*
X4603000Y-54430000D01*
G36*
X6000000Y-53287000D02*
G01*
X6000000Y-54303000D01*
X5873000Y-54430000D01*
X4857000Y-54430000D01*
X6000000Y-53287000D01*
G37*
X6000000Y-53287000D02*
X6000000Y-54303000D01*
X5873000Y-54430000D01*
X4857000Y-54430000D01*
X6000000Y-53287000D01*
D14*
X5777269Y-53160000D02*
G75*
G03*
X5777269Y-53160000I-1047269J0D01*
G01*
D11*
G36*
X8540000Y-53287000D02*
G01*
X8540000Y-54303000D01*
X8413000Y-54430000D01*
X7397000Y-54430000D01*
X8540000Y-53287000D01*
G37*
X8540000Y-53287000D02*
X8540000Y-54303000D01*
X8413000Y-54430000D01*
X7397000Y-54430000D01*
X8540000Y-53287000D01*
G36*
X4857000Y-51890000D02*
G01*
X5873000Y-51890000D01*
X6000000Y-52017000D01*
X6000000Y-53033000D01*
X4857000Y-51890000D01*
G37*
X4857000Y-51890000D02*
X5873000Y-51890000D01*
X6000000Y-52017000D01*
X6000000Y-53033000D01*
X4857000Y-51890000D01*
G36*
X7143000Y-54430000D02*
G01*
X6127000Y-54430000D01*
X6000000Y-54303000D01*
X6000000Y-53287000D01*
X7143000Y-54430000D01*
G37*
X7143000Y-54430000D02*
X6127000Y-54430000D01*
X6000000Y-54303000D01*
X6000000Y-53287000D01*
X7143000Y-54430000D01*
G36*
X3460000Y-53033000D02*
G01*
X3460000Y-52017000D01*
X3587000Y-51890000D01*
X4603000Y-51890000D01*
X3460000Y-53033000D01*
G37*
X3460000Y-53033000D02*
X3460000Y-52017000D01*
X3587000Y-51890000D01*
X4603000Y-51890000D01*
X3460000Y-53033000D01*
D14*
X8317269Y-53160000D02*
G75*
G03*
X8317269Y-53160000I-1047269J0D01*
G01*
D11*
G36*
X7397000Y-51890000D02*
G01*
X8413000Y-51890000D01*
X8540000Y-52017000D01*
X8540000Y-53033000D01*
X7397000Y-51890000D01*
G37*
X7397000Y-51890000D02*
X8413000Y-51890000D01*
X8540000Y-52017000D01*
X8540000Y-53033000D01*
X7397000Y-51890000D01*
G36*
X6000000Y-53033000D02*
G01*
X6000000Y-52017000D01*
X6127000Y-51890000D01*
X7143000Y-51890000D01*
X6000000Y-53033000D01*
G37*
X6000000Y-53033000D02*
X6000000Y-52017000D01*
X6127000Y-51890000D01*
X7143000Y-51890000D01*
X6000000Y-53033000D01*
X4300000Y-60000000D02*
X7800000Y-60000000D01*
D12*
X4300000Y-58000000D02*
X7800000Y-58000000D01*
X6100000Y-59000000D02*
G75*
G03*
X6100000Y-59000000I-100000J0D01*
G01*
X4300000Y-59800000D02*
X4000000Y-59600000D01*
X4000000Y-59600000D02*
X4000000Y-58400000D01*
X4000000Y-58400000D02*
X4300000Y-58200000D01*
X4300000Y-59800000D02*
X4300000Y-60200000D01*
X4000000Y-62400000D02*
X4300000Y-62200000D01*
X4300000Y-61800000D02*
X4300000Y-62200000D01*
X4300000Y-61800000D02*
X4000000Y-61600000D01*
X4000000Y-61600000D02*
X4000000Y-60400000D01*
X4000000Y-60400000D02*
X4300000Y-60200000D01*
X4300000Y-58000000D02*
X4300000Y-58200000D01*
X4000000Y-63600000D02*
X4000000Y-62400000D01*
X4300000Y-63800000D02*
X4000000Y-63600000D01*
X4300000Y-63800000D02*
X4300000Y-64200000D01*
X4000000Y-66400000D02*
X4300000Y-66200000D01*
X4300000Y-65800000D02*
X4300000Y-66200000D01*
X4300000Y-65800000D02*
X4000000Y-65600000D01*
X4000000Y-65600000D02*
X4000000Y-64400000D01*
X4000000Y-64400000D02*
X4300000Y-64200000D01*
X4000000Y-67600000D02*
X4000000Y-66400000D01*
X4300000Y-67800000D02*
X4000000Y-67600000D01*
X4300000Y-67800000D02*
X4300000Y-68200000D01*
X4000000Y-70400000D02*
X4300000Y-70200000D01*
X4300000Y-69800000D02*
X4300000Y-70200000D01*
X4300000Y-69800000D02*
X4000000Y-69600000D01*
X4000000Y-69600000D02*
X4000000Y-68400000D01*
X4000000Y-68400000D02*
X4300000Y-68200000D01*
X4000000Y-71600000D02*
X4000000Y-70400000D01*
X4300000Y-71800000D02*
X4000000Y-71600000D01*
X4300000Y-71800000D02*
X4300000Y-72200000D01*
X4300000Y-73800000D02*
X4000000Y-73600000D01*
X4000000Y-73600000D02*
X4000000Y-72400000D01*
X4000000Y-72400000D02*
X4300000Y-72200000D01*
X4300000Y-73800000D02*
X4300000Y-74000000D01*
X4300000Y-74000000D02*
X7800000Y-74000000D01*
X8100000Y-73600000D02*
X7800000Y-73800000D01*
X8100000Y-72400000D02*
X8100000Y-73600000D01*
X7800000Y-72200000D02*
X8100000Y-72400000D01*
X7800000Y-72200000D02*
X7800000Y-71800000D01*
X8100000Y-69600000D02*
X7800000Y-69800000D01*
X7800000Y-70200000D02*
X7800000Y-69800000D01*
X7800000Y-70200000D02*
X8100000Y-70400000D01*
X8100000Y-70400000D02*
X8100000Y-71600000D01*
X8100000Y-71600000D02*
X7800000Y-71800000D01*
X7800000Y-74000000D02*
X7800000Y-73800000D01*
X8100000Y-66400000D02*
X8100000Y-67600000D01*
X8100000Y-65600000D02*
X7800000Y-65800000D01*
X7800000Y-68200000D02*
X8100000Y-68400000D01*
X7800000Y-66200000D02*
X7800000Y-65800000D01*
X8100000Y-68400000D02*
X8100000Y-69600000D01*
X7800000Y-66200000D02*
X8100000Y-66400000D01*
X8100000Y-67600000D02*
X7800000Y-67800000D01*
X7800000Y-68200000D02*
X7800000Y-67800000D01*
X7800000Y-64200000D02*
X8100000Y-64400000D01*
X7800000Y-62200000D02*
X7800000Y-61800000D01*
X8100000Y-63600000D02*
X7800000Y-63800000D01*
X7800000Y-64200000D02*
X7800000Y-63800000D01*
X8100000Y-61600000D02*
X7800000Y-61800000D01*
X8100000Y-62400000D02*
X8100000Y-63600000D01*
X7800000Y-62200000D02*
X8100000Y-62400000D01*
X8100000Y-64400000D02*
X8100000Y-65600000D01*
X8100000Y-58400000D02*
X8100000Y-59600000D01*
X7800000Y-60200000D02*
X8100000Y-60400000D01*
X8100000Y-59600000D02*
X7800000Y-59800000D01*
X8100000Y-60400000D02*
X8100000Y-61600000D01*
X7800000Y-60200000D02*
X7800000Y-59800000D01*
X7800000Y-58200000D02*
X8100000Y-58400000D01*
X7800000Y-58200000D02*
X7800000Y-58000000D01*
D15*
X6100000Y-59000000D02*
X5900000Y-59000000D01*
D11*
X4300000Y-62000000D02*
X7800000Y-62000000D01*
X4300000Y-64000000D02*
X7800000Y-64000000D01*
X4300000Y-66000000D02*
X7800000Y-66000000D01*
X4300000Y-68000000D02*
X7800000Y-68000000D01*
X4300000Y-70000000D02*
X7800000Y-70000000D01*
X4300000Y-72000000D02*
X7800000Y-72000000D01*
X4300000Y-14000000D02*
X7800000Y-14000000D01*
D12*
X4300000Y-12000000D02*
X7800000Y-12000000D01*
X6100000Y-13000000D02*
G75*
G03*
X6100000Y-13000000I-100000J0D01*
G01*
X4300000Y-13800000D02*
X4000000Y-13600000D01*
X4000000Y-13600000D02*
X4000000Y-12400000D01*
X4000000Y-12400000D02*
X4300000Y-12200000D01*
X4300000Y-13800000D02*
X4300000Y-14200000D01*
X4000000Y-16400000D02*
X4300000Y-16200000D01*
X4300000Y-15800000D02*
X4300000Y-16200000D01*
X4300000Y-15800000D02*
X4000000Y-15600000D01*
X4000000Y-15600000D02*
X4000000Y-14400000D01*
X4000000Y-14400000D02*
X4300000Y-14200000D01*
X4300000Y-12000000D02*
X4300000Y-12200000D01*
X4000000Y-17600000D02*
X4000000Y-16400000D01*
X4300000Y-17800000D02*
X4000000Y-17600000D01*
X4300000Y-17800000D02*
X4300000Y-18200000D01*
X4000000Y-20400000D02*
X4300000Y-20200000D01*
X4300000Y-19800000D02*
X4300000Y-20200000D01*
X4300000Y-19800000D02*
X4000000Y-19600000D01*
X4000000Y-19600000D02*
X4000000Y-18400000D01*
X4000000Y-18400000D02*
X4300000Y-18200000D01*
X4000000Y-21600000D02*
X4000000Y-20400000D01*
X4300000Y-21800000D02*
X4000000Y-21600000D01*
X4300000Y-21800000D02*
X4300000Y-22200000D01*
X4000000Y-24400000D02*
X4300000Y-24200000D01*
X4300000Y-23800000D02*
X4300000Y-24200000D01*
X4300000Y-23800000D02*
X4000000Y-23600000D01*
X4000000Y-23600000D02*
X4000000Y-22400000D01*
X4000000Y-22400000D02*
X4300000Y-22200000D01*
X4000000Y-25600000D02*
X4000000Y-24400000D01*
X4300000Y-25800000D02*
X4000000Y-25600000D01*
X4300000Y-25800000D02*
X4300000Y-26200000D01*
X4300000Y-27800000D02*
X4000000Y-27600000D01*
X4000000Y-27600000D02*
X4000000Y-26400000D01*
X4000000Y-26400000D02*
X4300000Y-26200000D01*
X4300000Y-27800000D02*
X4300000Y-28000000D01*
X4300000Y-28000000D02*
X7800000Y-28000000D01*
X8100000Y-27600000D02*
X7800000Y-27800000D01*
X8100000Y-26400000D02*
X8100000Y-27600000D01*
X7800000Y-26200000D02*
X8100000Y-26400000D01*
X7800000Y-26200000D02*
X7800000Y-25800000D01*
X8100000Y-23600000D02*
X7800000Y-23800000D01*
X7800000Y-24200000D02*
X7800000Y-23800000D01*
X7800000Y-24200000D02*
X8100000Y-24400000D01*
X8100000Y-24400000D02*
X8100000Y-25600000D01*
X8100000Y-25600000D02*
X7800000Y-25800000D01*
X7800000Y-28000000D02*
X7800000Y-27800000D01*
X8100000Y-20400000D02*
X8100000Y-21600000D01*
X8100000Y-19600000D02*
X7800000Y-19800000D01*
X7800000Y-22200000D02*
X8100000Y-22400000D01*
X7800000Y-20200000D02*
X7800000Y-19800000D01*
X8100000Y-22400000D02*
X8100000Y-23600000D01*
X7800000Y-20200000D02*
X8100000Y-20400000D01*
X8100000Y-21600000D02*
X7800000Y-21800000D01*
X7800000Y-22200000D02*
X7800000Y-21800000D01*
X7800000Y-18200000D02*
X8100000Y-18400000D01*
X7800000Y-16200000D02*
X7800000Y-15800000D01*
X8100000Y-17600000D02*
X7800000Y-17800000D01*
X7800000Y-18200000D02*
X7800000Y-17800000D01*
X8100000Y-15600000D02*
X7800000Y-15800000D01*
X8100000Y-16400000D02*
X8100000Y-17600000D01*
X7800000Y-16200000D02*
X8100000Y-16400000D01*
X8100000Y-18400000D02*
X8100000Y-19600000D01*
X8100000Y-12400000D02*
X8100000Y-13600000D01*
X7800000Y-14200000D02*
X8100000Y-14400000D01*
X8100000Y-13600000D02*
X7800000Y-13800000D01*
X8100000Y-14400000D02*
X8100000Y-15600000D01*
X7800000Y-14200000D02*
X7800000Y-13800000D01*
X7800000Y-12200000D02*
X8100000Y-12400000D01*
X7800000Y-12200000D02*
X7800000Y-12000000D01*
D15*
X6100000Y-13000000D02*
X5900000Y-13000000D01*
D11*
X4300000Y-16000000D02*
X7800000Y-16000000D01*
X4300000Y-18000000D02*
X7800000Y-18000000D01*
X4300000Y-20000000D02*
X7800000Y-20000000D01*
X4300000Y-22000000D02*
X7800000Y-22000000D01*
X4300000Y-24000000D02*
X7800000Y-24000000D01*
X4300000Y-26000000D02*
X7800000Y-26000000D01*
D16*
X11700000Y-94100000D02*
X11700000Y-93500000D01*
X6300000Y-94100000D02*
X6300000Y-93500000D01*
X6300000Y-88700000D02*
X6300000Y-85700000D01*
D17*
X11700000Y-85700000D02*
X11700000Y-88700000D01*
D16*
X5800000Y-93400000D02*
X6300000Y-93500000D01*
X6300000Y-93500000D02*
X11700000Y-93500000D01*
X11700000Y-93500000D02*
X12200000Y-93400000D01*
X6300000Y-88700000D02*
X11700000Y-88700000D01*
X11700000Y-88700000D02*
X12200000Y-88800000D01*
X5800000Y-88800000D02*
X6300000Y-88700000D01*
D12*
X5800000Y-89500000D02*
X12200000Y-88800000D01*
X5800000Y-91000000D02*
X12200000Y-90300000D01*
X5800000Y-90200000D02*
X12200000Y-89500000D01*
X5800000Y-91800000D02*
X12200000Y-91100000D01*
X5800000Y-92600000D02*
X12200000Y-91900000D01*
D16*
X5800000Y-88800000D02*
X5800000Y-93400000D01*
D12*
X5800000Y-93400000D02*
X12200000Y-92700000D01*
D16*
X12200000Y-88800000D02*
X12200000Y-93400000D01*
X6300000Y-94100000D02*
X11700000Y-94100000D01*
D18*
X5700000Y-85700000D02*
X5700000Y-79100000D01*
X5700000Y-79100000D02*
X12300000Y-79098200D01*
X12300000Y-79100000D02*
X12300000Y-85700000D01*
X12300000Y-85700000D02*
X5700000Y-85700000D01*
D16*
X25700000Y-94100000D02*
X25700000Y-93500000D01*
X20300000Y-94100000D02*
X20300000Y-93500000D01*
X20300000Y-88700000D02*
X20300000Y-85700000D01*
D17*
X25700000Y-85700000D02*
X25700000Y-88700000D01*
D16*
X19800000Y-93400000D02*
X20300000Y-93500000D01*
X20300000Y-93500000D02*
X25700000Y-93500000D01*
X25700000Y-93500000D02*
X26200000Y-93400000D01*
X20300000Y-88700000D02*
X25700000Y-88700000D01*
X25700000Y-88700000D02*
X26200000Y-88800000D01*
X19800000Y-88800000D02*
X20300000Y-88700000D01*
D12*
X19800000Y-89500000D02*
X26200000Y-88800000D01*
X19800000Y-91000000D02*
X26200000Y-90300000D01*
X19800000Y-90200000D02*
X26200000Y-89500000D01*
X19800000Y-91800000D02*
X26200000Y-91100000D01*
X19800000Y-92600000D02*
X26200000Y-91900000D01*
D16*
X19800000Y-88800000D02*
X19800000Y-93400000D01*
D12*
X19800000Y-93400000D02*
X26200000Y-92700000D01*
D16*
X26200000Y-88800000D02*
X26200000Y-93400000D01*
X20300000Y-94100000D02*
X25700000Y-94100000D01*
D18*
X19700000Y-85700000D02*
X19700000Y-79100000D01*
X19700000Y-79100000D02*
X26300000Y-79098200D01*
X26300000Y-79100000D02*
X26300000Y-85700000D01*
X26300000Y-85700000D02*
X19700000Y-85700000D01*
D11*
G36*
X18100000Y425000D02*
G01*
X18900000Y425000D01*
X18500000Y25000D01*
X18100000Y425000D01*
G37*
X18100000Y425000D02*
X18900000Y425000D01*
X18500000Y25000D01*
X18100000Y425000D01*
G36*
X23100000Y425000D02*
G01*
X23900000Y425000D01*
X23500000Y25000D01*
X23100000Y425000D01*
G37*
X23100000Y425000D02*
X23900000Y425000D01*
X23500000Y25000D01*
X23100000Y425000D01*
G36*
X28100000Y425000D02*
G01*
X28900000Y425000D01*
X28500000Y25000D01*
X28100000Y425000D01*
G37*
X28100000Y425000D02*
X28900000Y425000D01*
X28500000Y25000D01*
X28100000Y425000D01*
D19*
X19700000Y-2100000D02*
X16800000Y-4000000D01*
D15*
X20300000Y-3400000D02*
G75*
G03*
X20300000Y-3400000I-1800000J0D01*
G01*
D19*
X20200000Y-2800000D02*
X17300000Y-4700000D01*
X24700000Y-2100000D02*
X21800000Y-4000000D01*
D15*
X25300000Y-3400000D02*
G75*
G03*
X25300000Y-3400000I-1800000J0D01*
G01*
D19*
X25200000Y-2800000D02*
X22300000Y-4700000D01*
X29700000Y-2100000D02*
X26800000Y-4000000D01*
D15*
X30300000Y-3400000D02*
G75*
G03*
X30300000Y-3400000I-1800000J0D01*
G01*
D19*
X30200000Y-2800000D02*
X27300000Y-4700000D01*
D13*
X31000000Y-8600000D02*
X31000000Y1200000D01*
X31000000Y-8600000D02*
X1000000Y-8600000D01*
D11*
X31000000Y-6700000D02*
X1000000Y-6700000D01*
D13*
X31000000Y1200000D02*
X1000000Y1200000D01*
D11*
X1000000Y700000D02*
X31000000Y700000D01*
X1000000Y-200000D02*
X31000000Y-200000D01*
G36*
X13100000Y425000D02*
G01*
X13900000Y425000D01*
X13500000Y25000D01*
X13100000Y425000D01*
G37*
X13100000Y425000D02*
X13900000Y425000D01*
X13500000Y25000D01*
X13100000Y425000D01*
G36*
X8100000Y425000D02*
G01*
X8900000Y425000D01*
X8500000Y25000D01*
X8100000Y425000D01*
G37*
X8100000Y425000D02*
X8900000Y425000D01*
X8500000Y25000D01*
X8100000Y425000D01*
D19*
X9700000Y-2100000D02*
X6800000Y-4000000D01*
D15*
X10300000Y-3400000D02*
G75*
G03*
X10300000Y-3400000I-1800000J0D01*
G01*
D19*
X15200000Y-2800000D02*
X12300000Y-4700000D01*
D13*
X1000000Y-8600000D02*
X1000000Y1200000D01*
D19*
X5200000Y-2800000D02*
X2300000Y-4700000D01*
X4700000Y-2100000D02*
X1800000Y-4000000D01*
D15*
X15300000Y-3400000D02*
G75*
G03*
X15300000Y-3400000I-1800000J0D01*
G01*
D11*
G36*
X3100000Y425000D02*
G01*
X3900000Y425000D01*
X3500000Y25000D01*
X3100000Y425000D01*
G37*
X3100000Y425000D02*
X3900000Y425000D01*
X3500000Y25000D01*
X3100000Y425000D01*
D15*
X5300000Y-3400000D02*
G75*
G03*
X5300000Y-3400000I-1800000J0D01*
G01*
D19*
X10200000Y-2800000D02*
X7300000Y-4700000D01*
X14700000Y-2100000D02*
X11800000Y-4000000D01*
D11*
G36*
X16800000Y-14700000D02*
G01*
X16800000Y-15100000D01*
X16600000Y-15100000D01*
X16600000Y-14700000D01*
X16200000Y-14700000D01*
X16200000Y-14500000D01*
X16600000Y-14500000D01*
X16600000Y-14100000D01*
X16800000Y-14100000D01*
X16800000Y-14500000D01*
X17200000Y-14500000D01*
X17200000Y-14700000D01*
X16800000Y-14700000D01*
G37*
X16800000Y-14700000D02*
X16800000Y-15100000D01*
X16600000Y-15100000D01*
X16600000Y-14700000D01*
X16200000Y-14700000D01*
X16200000Y-14500000D01*
X16600000Y-14500000D01*
X16600000Y-14100000D01*
X16800000Y-14100000D01*
X16800000Y-14500000D01*
X17200000Y-14500000D01*
X17200000Y-14700000D01*
X16800000Y-14700000D01*
D12*
X17100000Y-12700000D02*
X18500000Y-14100000D01*
X13300000Y-12700000D02*
X17100000Y-12700000D01*
X11900000Y-19300000D02*
X11900000Y-14100000D01*
X18500000Y-14100000D02*
X18500000Y-19300000D01*
X11900000Y-14100000D02*
X13300000Y-12700000D01*
X18500000Y-19300000D02*
X11900000Y-19300000D01*
X18084441Y-16000000D02*
G75*
G03*
X18084441Y-16000000I-2884441J0D01*
G01*
D11*
G36*
X17400000Y-17800000D02*
G01*
X16400000Y-18600000D01*
X15200000Y-18884441D01*
X14000000Y-18600000D01*
X13000000Y-17800000D01*
X12500000Y-16900000D01*
X17900000Y-16900000D01*
X17400000Y-17800000D01*
G37*
X17400000Y-17800000D02*
X16400000Y-18600000D01*
X15200000Y-18884441D01*
X14000000Y-18600000D01*
X13000000Y-17800000D01*
X12500000Y-16900000D01*
X17900000Y-16900000D01*
X17400000Y-17800000D01*
D19*
X11350000Y-71000000D02*
G75*
G03*
X11350000Y-71000000I-950000J0D01*
G01*
D12*
X12400000Y-72200000D02*
X15700000Y-73000000D01*
X23800000Y-73000000D02*
X15700000Y-73000000D01*
X23800000Y-73000000D02*
X27200000Y-72200000D01*
X27200000Y-72200000D02*
X27200000Y-69800000D01*
X12400000Y-72200000D02*
X12400000Y-69800000D01*
X27200000Y-69800000D02*
X12400000Y-69800000D01*
D20*
X13800000Y-83857142D02*
X13742857Y-83971428D01*
X13742857Y-84142857D01*
X13800000Y-84314285D01*
X13914285Y-84428571D01*
X14028571Y-84485714D01*
X14257142Y-84542857D01*
X14428571Y-84542857D01*
X14657142Y-84485714D01*
X14771428Y-84428571D01*
X14885714Y-84314285D01*
X14942857Y-84142857D01*
X14942857Y-84028571D01*
X14885714Y-83857142D01*
X14828571Y-83800000D01*
X14428571Y-83800000D01*
X14428571Y-84028571D01*
X14942857Y-83285714D02*
X13742857Y-83285714D01*
X14942857Y-82600000D01*
X13742857Y-82600000D01*
X14885714Y-82085714D02*
X14942857Y-81914285D01*
X14942857Y-81628571D01*
X14885714Y-81514285D01*
X14828571Y-81457142D01*
X14714285Y-81400000D01*
X14600000Y-81400000D01*
X14485714Y-81457142D01*
X14428571Y-81514285D01*
X14371428Y-81628571D01*
X14314285Y-81857142D01*
X14257142Y-81971428D01*
X14200000Y-82028571D01*
X14085714Y-82085714D01*
X13971428Y-82085714D01*
X13857142Y-82028571D01*
X13800000Y-81971428D01*
X13742857Y-81857142D01*
X13742857Y-81571428D01*
X13800000Y-81400000D01*
X14885714Y-80942857D02*
X14942857Y-80771428D01*
X14942857Y-80485714D01*
X14885714Y-80371428D01*
X14828571Y-80314285D01*
X14714285Y-80257142D01*
X14600000Y-80257142D01*
X14485714Y-80314285D01*
X14428571Y-80371428D01*
X14371428Y-80485714D01*
X14314285Y-80714285D01*
X14257142Y-80828571D01*
X14200000Y-80885714D01*
X14085714Y-80942857D01*
X13971428Y-80942857D01*
X13857142Y-80885714D01*
X13800000Y-80828571D01*
X13742857Y-80714285D01*
X13742857Y-80428571D01*
X13800000Y-80257142D01*
X18142857Y-83028571D02*
X18142857Y-83600000D01*
X16942857Y-83600000D01*
X16942857Y-82800000D02*
X16942857Y-82114285D01*
X18142857Y-82457142D02*
X16942857Y-82457142D01*
X17514285Y-81714285D02*
X17514285Y-81314285D01*
X18142857Y-81142857D02*
X18142857Y-81714285D01*
X16942857Y-81714285D01*
X16942857Y-81142857D01*
D13*
X23361904Y-9816666D02*
X23838095Y-9816666D01*
X23266666Y-10102380D02*
X23600000Y-9102380D01*
X23933333Y-10102380D01*
X28671428Y-9578571D02*
X28814285Y-9626190D01*
X28861904Y-9673809D01*
X28909523Y-9769047D01*
X28909523Y-9911904D01*
X28861904Y-10007142D01*
X28814285Y-10054761D01*
X28719047Y-10102380D01*
X28338095Y-10102380D01*
X28338095Y-9102380D01*
X28671428Y-9102380D01*
X28766666Y-9150000D01*
X28814285Y-9197619D01*
X28861904Y-9292857D01*
X28861904Y-9388095D01*
X28814285Y-9483333D01*
X28766666Y-9530952D01*
X28671428Y-9578571D01*
X28338095Y-9578571D01*
X12409523Y-10054761D02*
X12552380Y-10102380D01*
X12790476Y-10102380D01*
X12885714Y-10054761D01*
X12933333Y-10007142D01*
X12980952Y-9911904D01*
X12980952Y-9816666D01*
X12933333Y-9721428D01*
X12885714Y-9673809D01*
X12790476Y-9626190D01*
X12600000Y-9578571D01*
X12504761Y-9530952D01*
X12457142Y-9483333D01*
X12409523Y-9388095D01*
X12409523Y-9292857D01*
X12457142Y-9197619D01*
X12504761Y-9150000D01*
X12600000Y-9102380D01*
X12838095Y-9102380D01*
X12980952Y-9150000D01*
X13600000Y-9626190D02*
X13600000Y-10102380D01*
X13266666Y-9102380D02*
X13600000Y-9626190D01*
X13933333Y-9102380D01*
X14219047Y-10054761D02*
X14361904Y-10102380D01*
X14600000Y-10102380D01*
X14695238Y-10054761D01*
X14742857Y-10007142D01*
X14790476Y-9911904D01*
X14790476Y-9816666D01*
X14742857Y-9721428D01*
X14695238Y-9673809D01*
X14600000Y-9626190D01*
X14409523Y-9578571D01*
X14314285Y-9530952D01*
X14266666Y-9483333D01*
X14219047Y-9388095D01*
X14219047Y-9292857D01*
X14266666Y-9197619D01*
X14314285Y-9150000D01*
X14409523Y-9102380D01*
X14647619Y-9102380D01*
X14790476Y-9150000D01*
X17838095Y-9150000D02*
X17742857Y-9102380D01*
X17600000Y-9102380D01*
X17457142Y-9150000D01*
X17361904Y-9245238D01*
X17314285Y-9340476D01*
X17266666Y-9530952D01*
X17266666Y-9673809D01*
X17314285Y-9864285D01*
X17361904Y-9959523D01*
X17457142Y-10054761D01*
X17600000Y-10102380D01*
X17695238Y-10102380D01*
X17838095Y-10054761D01*
X17885714Y-10007142D01*
X17885714Y-9673809D01*
X17695238Y-9673809D01*
X18314285Y-10102380D02*
X18314285Y-9102380D01*
X18885714Y-10102380D01*
X18885714Y-9102380D01*
X19361904Y-10102380D02*
X19361904Y-9102380D01*
X19600000Y-9102380D01*
X19742857Y-9150000D01*
X19838095Y-9245238D01*
X19885714Y-9340476D01*
X19933333Y-9530952D01*
X19933333Y-9673809D01*
X19885714Y-9864285D01*
X19838095Y-9959523D01*
X19742857Y-10054761D01*
X19600000Y-10102380D01*
X19361904Y-10102380D01*
X2266666Y-9102380D02*
X2600000Y-10102380D01*
X2933333Y-9102380D01*
X3838095Y-10007142D02*
X3790476Y-10054761D01*
X3647619Y-10102380D01*
X3552380Y-10102380D01*
X3409523Y-10054761D01*
X3314285Y-9959523D01*
X3266666Y-9864285D01*
X3219047Y-9673809D01*
X3219047Y-9530952D01*
X3266666Y-9340476D01*
X3314285Y-9245238D01*
X3409523Y-9150000D01*
X3552380Y-9102380D01*
X3647619Y-9102380D01*
X3790476Y-9150000D01*
X3838095Y-9197619D01*
X4838095Y-10007142D02*
X4790476Y-10054761D01*
X4647619Y-10102380D01*
X4552380Y-10102380D01*
X4409523Y-10054761D01*
X4314285Y-9959523D01*
X4266666Y-9864285D01*
X4219047Y-9673809D01*
X4219047Y-9530952D01*
X4266666Y-9340476D01*
X4314285Y-9245238D01*
X4409523Y-9150000D01*
X4552380Y-9102380D01*
X4647619Y-9102380D01*
X4790476Y-9150000D01*
X4838095Y-9197619D01*
X7838095Y-9150000D02*
X7742857Y-9102380D01*
X7600000Y-9102380D01*
X7457142Y-9150000D01*
X7361904Y-9245238D01*
X7314285Y-9340476D01*
X7266666Y-9530952D01*
X7266666Y-9673809D01*
X7314285Y-9864285D01*
X7361904Y-9959523D01*
X7457142Y-10054761D01*
X7600000Y-10102380D01*
X7695238Y-10102380D01*
X7838095Y-10054761D01*
X7885714Y-10007142D01*
X7885714Y-9673809D01*
X7695238Y-9673809D01*
X8314285Y-10102380D02*
X8314285Y-9102380D01*
X8885714Y-10102380D01*
X8885714Y-9102380D01*
X9361904Y-10102380D02*
X9361904Y-9102380D01*
X9600000Y-9102380D01*
X9742857Y-9150000D01*
X9838095Y-9245238D01*
X9885714Y-9340476D01*
X9933333Y-9530952D01*
X9933333Y-9673809D01*
X9885714Y-9864285D01*
X9838095Y-9959523D01*
X9742857Y-10054761D01*
X9600000Y-10102380D01*
X9361904Y-10102380D01*
D20*
X3000000Y-83257142D02*
X2942857Y-83371428D01*
X2942857Y-83542857D01*
X3000000Y-83714285D01*
X3114285Y-83828571D01*
X3228571Y-83885714D01*
X3457142Y-83942857D01*
X3628571Y-83942857D01*
X3857142Y-83885714D01*
X3971428Y-83828571D01*
X4085714Y-83714285D01*
X4142857Y-83542857D01*
X4142857Y-83428571D01*
X4085714Y-83257142D01*
X4028571Y-83200000D01*
X3628571Y-83200000D01*
X3628571Y-83428571D01*
X4142857Y-82685714D02*
X2942857Y-82685714D01*
X2942857Y-82228571D01*
X3000000Y-82114285D01*
X3057142Y-82057142D01*
X3171428Y-82000000D01*
X3342857Y-82000000D01*
X3457142Y-82057142D01*
X3514285Y-82114285D01*
X3571428Y-82228571D01*
X3571428Y-82685714D01*
X4085714Y-81542857D02*
X4142857Y-81371428D01*
X4142857Y-81085714D01*
X4085714Y-80971428D01*
X4028571Y-80914285D01*
X3914285Y-80857142D01*
X3800000Y-80857142D01*
X3685714Y-80914285D01*
X3628571Y-80971428D01*
X3571428Y-81085714D01*
X3514285Y-81314285D01*
X3457142Y-81428571D01*
X3400000Y-81485714D01*
X3285714Y-81542857D01*
X3171428Y-81542857D01*
X3057142Y-81485714D01*
X3000000Y-81428571D01*
X2942857Y-81314285D01*
X2942857Y-81028571D01*
X3000000Y-80857142D01*
X27800000Y-83342857D02*
X27742857Y-83457142D01*
X27742857Y-83628571D01*
X27800000Y-83800000D01*
X27914285Y-83914285D01*
X28028571Y-83971428D01*
X28257142Y-84028571D01*
X28428571Y-84028571D01*
X28657142Y-83971428D01*
X28771428Y-83914285D01*
X28885714Y-83800000D01*
X28942857Y-83628571D01*
X28942857Y-83514285D01*
X28885714Y-83342857D01*
X28828571Y-83285714D01*
X28428571Y-83285714D01*
X28428571Y-83514285D01*
X28885714Y-82828571D02*
X28942857Y-82657142D01*
X28942857Y-82371428D01*
X28885714Y-82257142D01*
X28828571Y-82200000D01*
X28714285Y-82142857D01*
X28600000Y-82142857D01*
X28485714Y-82200000D01*
X28428571Y-82257142D01*
X28371428Y-82371428D01*
X28314285Y-82600000D01*
X28257142Y-82714285D01*
X28200000Y-82771428D01*
X28085714Y-82828571D01*
X27971428Y-82828571D01*
X27857142Y-82771428D01*
X27800000Y-82714285D01*
X27742857Y-82600000D01*
X27742857Y-82314285D01*
X27800000Y-82142857D01*
X28942857Y-81628571D02*
X27742857Y-81628571D01*
X28600000Y-81228571D01*
X27742857Y-80828571D01*
X28942857Y-80828571D01*
%LPC*%
D21*
X24400000Y-18900000D03*
X24400000Y-13100000D03*
D22*
X28200000Y-24000000D03*
D23*
X19800000Y-24100000D03*
X19800000Y-61900000D03*
D24*
X5000000Y-73000000D03*
X5000000Y-71000000D03*
D25*
X5000000Y-69000000D03*
D24*
X7000000Y-71000000D03*
D25*
X7000000Y-69000000D03*
D24*
X7000000Y-73000000D03*
X7000000Y-67000000D03*
X5000000Y-67000000D03*
D25*
X7000000Y-59000000D03*
D24*
X7000000Y-61000000D03*
X7000000Y-65000000D03*
D25*
X7000000Y-63000000D03*
X5000000Y-63000000D03*
D24*
X5000000Y-65000000D03*
X5000000Y-61000000D03*
D25*
X5000000Y-59000000D03*
D24*
X5000000Y-27000000D03*
X5000000Y-25000000D03*
D25*
X5000000Y-23000000D03*
D24*
X7000000Y-25000000D03*
D25*
X7000000Y-23000000D03*
D24*
X7000000Y-27000000D03*
X7000000Y-21000000D03*
X5000000Y-21000000D03*
D25*
X7000000Y-13000000D03*
D24*
X7000000Y-15000000D03*
X7000000Y-19000000D03*
D25*
X7000000Y-17000000D03*
X5000000Y-17000000D03*
D24*
X5000000Y-19000000D03*
X5000000Y-15000000D03*
D25*
X5000000Y-13000000D03*
D26*
X4730000Y-40460000D03*
X4730000Y-50620000D03*
X4730000Y-48080000D03*
X4730000Y-35380000D03*
X4730000Y-53160000D03*
X4730000Y-32840000D03*
X4730000Y-45540000D03*
X4730000Y-43000000D03*
X4730000Y-37920000D03*
X7270000Y-53160000D03*
X7270000Y-32840000D03*
X7270000Y-35380000D03*
X7270000Y-37920000D03*
X7270000Y-40460000D03*
X7270000Y-43000000D03*
X7270000Y-45540000D03*
X7270000Y-48080000D03*
X7270000Y-50620000D03*
D27*
X11540000Y-84898200D03*
X6460000Y-84898200D03*
X6460000Y-79818200D03*
X11540000Y-79818200D03*
X9000000Y-82400000D03*
X25540000Y-84898200D03*
X20460000Y-84898200D03*
X20460000Y-79818200D03*
X25540000Y-79818200D03*
X23000000Y-82400000D03*
D28*
X3500000Y-3400000D03*
X13500000Y-3400000D03*
X8500000Y-3400000D03*
X18500000Y-3400000D03*
X23500000Y-3400000D03*
X28500000Y-3400000D03*
D21*
X15200000Y-18900000D03*
X15200000Y-13100000D03*
D29*
X9950000Y-71450000D03*
X10850000Y-71450000D03*
X10850000Y-70550000D03*
X9950000Y-70550000D03*
X10400000Y-71600000D03*
X11000000Y-71000000D03*
X10400000Y-70400000D03*
X9800000Y-71000000D03*
D30*
X10400000Y-71000000D03*
D31*
X14800000Y-69750000D03*
X24800000Y-72250000D03*
X24800000Y-69750000D03*
X14800000Y-72250000D03*
D32*
X20300000Y-72250000D03*
X21300000Y-69750000D03*
X18300000Y-72250000D03*
X19300000Y-69750000D03*
X17300000Y-69750000D03*
X16300000Y-72250000D03*
X23300000Y-69750000D03*
X22300000Y-72250000D03*
M02*
