M48
; DRILL file {KiCad (5.1.9)-1} date 02/20/23 21:37:01
; FORMAT={-:-/ absolute / inch / decimal}
; #@! TF.CreationDate,2023-02-20T21:37:01+01:00
; #@! TF.GenerationSoftware,Kicad,Pcbnew,(5.1.9)-1
; #@! TF.FileFunction,Plated,1,2,PTH
FMAT,2
INCH
T1C0.0118
T2C0.0217
T3C0.0315
T4C0.0394
T5C0.0512
T6C0.0531
T7C0.0630
%
G90
G05
T1
X0.0866Y-0.7087
X0.1417Y-0.6693
X0.1417Y-0.7087
X0.1437Y-0.4409
X0.2362Y-2.2677
X0.2441Y-0.4094
X0.3386Y-2.4094
X0.3386Y-2.4488
X0.3465Y-2.7165
X0.3543Y-0.6929
X0.378Y-1.4961
X0.3858Y-2.7953
X0.3917Y-2.7776
X0.3917Y-2.813
X0.4094Y-2.1024
X0.4094Y-2.7717
X0.4094Y-2.8189
X0.4252Y-0.2087
X0.4252Y-0.5551
X0.4252Y-0.7756
X0.4272Y-2.7776
X0.4272Y-2.813
X0.4331Y-2.7953
X0.4479Y-2.1014
X0.4488Y-0.2087
X0.4488Y-0.5551
X0.4488Y-0.7756
X0.4488Y-2.1339
X0.4498Y-2.1663
X0.4567Y-2.685
X0.4724Y-0.2087
X0.4724Y-0.5551
X0.4724Y-0.7756
X0.4803Y-1.622
X0.4862Y-1.9193
X0.4875Y-1.9673
X0.4889Y-1.9993
X0.5079Y-1.6496
X0.5236Y-0.6063
X0.5236Y-0.6772
X0.5236Y-0.7008
X0.5236Y-0.7244
X0.5256Y-1.752
X0.5315Y-0.2441
X0.5315Y-0.2677
X0.5315Y-0.2913
X0.5394Y-0.4469
X0.5394Y-0.4882
X0.5394Y-0.5118
X0.5423Y-1.6471
X0.543Y-1.6145
X0.544Y-1.582
X0.5512Y-0.7677
X0.563Y-0.4882
X0.563Y-0.5118
X0.5866Y-0.4882
X0.5866Y-0.5118
X0.6004Y-0.3701
X0.6063Y-1.5827
X0.6102Y-1.8346
X0.6142Y-1.378
X0.622Y-0.6969
X0.622Y-0.7205
X0.622Y-0.7441
X0.622Y-0.7677
X0.6223Y-1.2346
X0.6378Y-1.5827
X0.6417Y-2.8937
X0.6456Y-1.211
X0.6535Y-1.6457
X0.6614Y-0.4291
X0.6614Y-0.4528
X0.6614Y-0.4764
X0.6614Y-0.5
X0.6693Y-1.5827
X0.6811Y-2.6969
X0.685Y-0.1339
X0.685Y-1.6772
X0.685Y-1.8346
X0.6969Y-1.061
X0.6969Y-2.2486
X0.7165Y-2.0906
X0.7283Y-0.1772
X0.7283Y-0.9488
X0.7303Y-2.248
X0.748Y-0.8031
X0.7559Y-2.0906
X0.7598Y-2.6969
X0.7717Y-0.1339
X0.7795Y-1.0
X0.7795Y-1.8425
X0.7795Y-1.9528
X0.7874Y-2.0906
X0.8071Y-1.061
X0.8307Y-0.9488
X0.8346Y-0.6811
X0.8346Y-0.7047
X0.8386Y-2.6969
X0.8425Y-0.4252
X0.8425Y-0.4488
X0.8425Y-0.4724
X0.8484Y-1.8976
X0.8583Y-0.6811
X0.8583Y-0.7047
X0.8661Y-0.4252
X0.8661Y-0.4488
X0.8661Y-0.4724
X0.872Y-1.874
X0.8819Y-0.6811
X0.8819Y-0.7047
X0.8819Y-1.6457
X0.8898Y-0.4252
X0.8898Y-0.4488
X0.8898Y-0.4724
X0.8957Y-1.8504
X0.9055Y-0.6811
X0.9055Y-0.7047
X0.9134Y-2.1024
X0.9134Y-0.4252
X0.9134Y-0.4488
X0.9134Y-0.4724
X0.9173Y-2.6969
X0.9173Y-2.7953
X0.9193Y-0.8346
X0.9213Y-1.6142
X0.9291Y-0.6811
X0.9291Y-0.7047
X0.937Y-0.4252
X0.937Y-0.4488
X0.937Y-0.4724
X0.937Y-0.4961
X0.937Y-0.5197
X0.937Y-0.5433
X0.937Y-0.5669
X0.9528Y-0.7047
X0.9528Y-1.874
X0.9606Y-0.4252
X0.9606Y-0.4488
X0.9606Y-0.4724
X0.9606Y-0.4961
X0.9606Y-0.5197
X0.9606Y-0.5433
X0.9606Y-0.5669
X0.9606Y-1.211
X0.9685Y-1.563
X0.9685Y-1.6614
X0.9685Y-1.7953
X0.9685Y-1.8268
X0.9744Y-0.6575
X0.9764Y-0.7047
X0.9823Y-1.2362
X0.9843Y-0.4252
X0.9843Y-0.4488
X0.9843Y-0.4724
X0.9843Y-0.4961
X0.9843Y-0.5197
X0.9843Y-0.5433
X0.9843Y-0.5669
X0.9935Y-2.221
X1.0453Y-1.7343
X1.0531Y-1.1762
X1.0551Y-1.9626
X1.0551Y-2.1417
X1.062Y-1.8179
X1.065Y-0.6929
X1.0866Y-1.4941
X1.124Y-0.6929
X1.124Y-0.7717
X1.124Y-1.1457
X1.124Y-1.3524
X1.126Y-1.6358
X1.126Y-2.0079
X1.126Y-2.122
X1.126Y-2.248
X1.1358Y-1.2461
X1.1437Y-1.0315
T2
X0.4094Y-2.7953
T3
X0.1969Y-0.5118
X0.1969Y-0.5906
X0.1969Y-0.6693
X0.1969Y-0.748
X0.1969Y-0.8268
X0.1969Y-0.9055
X0.1969Y-0.9843
X0.1969Y-1.063
X0.1969Y-2.3228
X0.1969Y-2.4016
X0.1969Y-2.4803
X0.1969Y-2.5591
X0.1969Y-2.6378
X0.1969Y-2.7165
X0.1969Y-2.7953
X0.1969Y-2.874
X0.2756Y-0.5118
X0.2756Y-0.5906
X0.2756Y-0.6693
X0.2756Y-0.748
X0.2756Y-0.8268
X0.2756Y-0.9055
X0.2756Y-0.9843
X0.2756Y-1.063
X0.2756Y-2.3228
X0.2756Y-2.4016
X0.2756Y-2.4803
X0.2756Y-2.5591
X0.2756Y-2.6378
X0.2756Y-2.7165
X0.2756Y-2.7953
X0.2756Y-2.874
T4
X0.1862Y-1.2929
X0.1862Y-1.3929
X0.1862Y-1.4929
X0.1862Y-1.5929
X0.1862Y-1.6929
X0.1862Y-1.7929
X0.1862Y-1.8929
X0.1862Y-1.9929
X0.1862Y-2.0929
X0.2862Y-1.2929
X0.2862Y-1.3929
X0.2862Y-1.4929
X0.2862Y-1.5929
X0.2862Y-1.6929
X0.2862Y-1.7929
X0.2862Y-1.8929
X0.2862Y-1.9929
X0.2862Y-2.0929
T5
X0.1378Y-0.1339
X0.3346Y-0.1339
X0.5315Y-0.1339
X0.7283Y-0.1339
X0.9252Y-0.1339
X1.122Y-0.1339
T6
X0.2543Y-3.1424
X0.2543Y-3.3424
X0.3543Y-3.2441
X0.4543Y-3.1424
X0.4543Y-3.3424
X0.8055Y-3.1424
X0.8055Y-3.3424
X0.9055Y-3.2441
X1.0055Y-3.1424
X1.0055Y-3.3424
T7
X0.7795Y-0.9488
X0.7795Y-2.437
T0
M30
