G04 #@! TF.GenerationSoftware,KiCad,Pcbnew,(5.1.9)-1*
G04 #@! TF.CreationDate,2023-01-31T21:08:26+01:00*
G04 #@! TF.ProjectId,Side,53696465-2e6b-4696-9361-645f70636258,rev?*
G04 #@! TF.SameCoordinates,PXd59f80PYd59f80*
G04 #@! TF.FileFunction,Copper,L2,Bot*
G04 #@! TF.FilePolarity,Positive*
%FSLAX46Y46*%
G04 Gerber Fmt 4.6, Leading zero omitted, Abs format (unit mm)*
G04 Created by KiCad (PCBNEW (5.1.9)-1) date 2023-01-31 21:08:26*
%MOMM*%
%LPD*%
G01*
G04 APERTURE LIST*
G04 #@! TA.AperFunction,SMDPad,CuDef*
%ADD10C,2.000000*%
G04 #@! TD*
G04 #@! TA.AperFunction,SMDPad,CuDef*
%ADD11R,0.600000X2.400000*%
G04 #@! TD*
G04 #@! TA.AperFunction,SMDPad,CuDef*
%ADD12R,2.400000X0.600000*%
G04 #@! TD*
G04 #@! TA.AperFunction,ComponentPad*
%ADD13O,0.800000X0.800000*%
G04 #@! TD*
G04 #@! TA.AperFunction,ViaPad*
%ADD14C,0.600000*%
G04 #@! TD*
G04 #@! TA.AperFunction,Conductor*
%ADD15C,0.500000*%
G04 #@! TD*
G04 #@! TA.AperFunction,Conductor*
%ADD16C,1.000000*%
G04 #@! TD*
G04 #@! TA.AperFunction,Conductor*
%ADD17C,0.200000*%
G04 #@! TD*
G04 #@! TA.AperFunction,Conductor*
%ADD18C,0.150000*%
G04 #@! TD*
G04 #@! TA.AperFunction,Conductor*
%ADD19C,0.100000*%
G04 #@! TD*
G04 APERTURE END LIST*
D10*
X18500000Y-28900000D03*
D11*
X8000000Y-44200000D03*
X9000000Y-44200000D03*
X10000000Y-44200000D03*
X11000000Y-44200000D03*
X12000000Y-44200000D03*
X13000000Y-44200000D03*
X14000000Y-44200000D03*
X15000000Y-44200000D03*
X16000000Y-44200000D03*
X17000000Y-44200000D03*
X18000000Y-44200000D03*
X19000000Y-44200000D03*
X20000000Y-44200000D03*
X21000000Y-44200000D03*
X22000000Y-44200000D03*
X23000000Y-44200000D03*
X24000000Y-44200000D03*
D12*
X28200000Y-40000000D03*
X28200000Y-39000000D03*
X28200000Y-38000000D03*
X28200000Y-37000000D03*
X28200000Y-36000000D03*
X28200000Y-35000000D03*
X28200000Y-34000000D03*
X28200000Y-33000000D03*
X28200000Y-32000000D03*
X28200000Y-31000000D03*
X28200000Y-30000000D03*
X28200000Y-29000000D03*
X28200000Y-28000000D03*
X28200000Y-27000000D03*
X28200000Y-26000000D03*
X28200000Y-25000000D03*
X28200000Y-24000000D03*
D11*
X24000000Y-19800000D03*
X23000000Y-19800000D03*
X22000000Y-19800000D03*
X21000000Y-19800000D03*
X20000000Y-19800000D03*
X19000000Y-19800000D03*
X18000000Y-19800000D03*
X17000000Y-19800000D03*
X16000000Y-19800000D03*
X15000000Y-19800000D03*
X14000000Y-19800000D03*
X13000000Y-19800000D03*
X12000000Y-19800000D03*
X11000000Y-19800000D03*
X10000000Y-19800000D03*
X9000000Y-19800000D03*
X8000000Y-19800000D03*
D12*
X3800000Y-24000000D03*
X3800000Y-25000000D03*
X3800000Y-26000000D03*
X3800000Y-27000000D03*
X3800000Y-28000000D03*
X3800000Y-29000000D03*
X3800000Y-30000000D03*
X3800000Y-31000000D03*
X3800000Y-32000000D03*
X3800000Y-33000000D03*
X3800000Y-34000000D03*
X3800000Y-35000000D03*
X3800000Y-36000000D03*
X3800000Y-37000000D03*
X3800000Y-38000000D03*
X3800000Y-39000000D03*
X3800000Y-40000000D03*
D13*
X650000Y-49000000D03*
X650000Y-45000000D03*
G04 #@! TA.AperFunction,SMDPad,CuDef*
G36*
G01*
X22700000Y-16600000D02*
X22700000Y-15400000D01*
G75*
G02*
X22850000Y-15250000I150000J0D01*
G01*
X28550000Y-15250000D01*
G75*
G02*
X28700000Y-15400000I0J-150000D01*
G01*
X28700000Y-16600000D01*
G75*
G02*
X28550000Y-16750000I-150000J0D01*
G01*
X22850000Y-16750000D01*
G75*
G02*
X22700000Y-16600000I0J150000D01*
G01*
G37*
G04 #@! TD.AperFunction*
G04 #@! TA.AperFunction,SMDPad,CuDef*
G36*
G01*
X22700000Y-14600000D02*
X22700000Y-13400000D01*
G75*
G02*
X22850000Y-13250000I150000J0D01*
G01*
X28550000Y-13250000D01*
G75*
G02*
X28700000Y-13400000I0J-150000D01*
G01*
X28700000Y-14600000D01*
G75*
G02*
X28550000Y-14750000I-150000J0D01*
G01*
X22850000Y-14750000D01*
G75*
G02*
X22700000Y-14600000I0J150000D01*
G01*
G37*
G04 #@! TD.AperFunction*
G04 #@! TA.AperFunction,SMDPad,CuDef*
G36*
G01*
X22700000Y-12600000D02*
X22700000Y-11400000D01*
G75*
G02*
X22850000Y-11250000I150000J0D01*
G01*
X28550000Y-11250000D01*
G75*
G02*
X28700000Y-11400000I0J-150000D01*
G01*
X28700000Y-12600000D01*
G75*
G02*
X28550000Y-12750000I-150000J0D01*
G01*
X22850000Y-12750000D01*
G75*
G02*
X22700000Y-12600000I0J150000D01*
G01*
G37*
G04 #@! TD.AperFunction*
G04 #@! TA.AperFunction,SMDPad,CuDef*
G36*
G01*
X22700000Y-10600000D02*
X22700000Y-9400000D01*
G75*
G02*
X22850000Y-9250000I150000J0D01*
G01*
X28550000Y-9250000D01*
G75*
G02*
X28700000Y-9400000I0J-150000D01*
G01*
X28700000Y-10600000D01*
G75*
G02*
X28550000Y-10750000I-150000J0D01*
G01*
X22850000Y-10750000D01*
G75*
G02*
X22700000Y-10600000I0J150000D01*
G01*
G37*
G04 #@! TD.AperFunction*
G04 #@! TA.AperFunction,SMDPad,CuDef*
G36*
G01*
X22700000Y-8600000D02*
X22700000Y-7400000D01*
G75*
G02*
X22850000Y-7250000I150000J0D01*
G01*
X28550000Y-7250000D01*
G75*
G02*
X28700000Y-7400000I0J-150000D01*
G01*
X28700000Y-8600000D01*
G75*
G02*
X28550000Y-8750000I-150000J0D01*
G01*
X22850000Y-8750000D01*
G75*
G02*
X22700000Y-8600000I0J150000D01*
G01*
G37*
G04 #@! TD.AperFunction*
G04 #@! TA.AperFunction,SMDPad,CuDef*
G36*
G01*
X22700000Y-6600000D02*
X22700000Y-5400000D01*
G75*
G02*
X22850000Y-5250000I150000J0D01*
G01*
X28550000Y-5250000D01*
G75*
G02*
X28700000Y-5400000I0J-150000D01*
G01*
X28700000Y-6600000D01*
G75*
G02*
X28550000Y-6750000I-150000J0D01*
G01*
X22850000Y-6750000D01*
G75*
G02*
X22700000Y-6600000I0J150000D01*
G01*
G37*
G04 #@! TD.AperFunction*
G04 #@! TA.AperFunction,SMDPad,CuDef*
G36*
G01*
X22700000Y-4600000D02*
X22700000Y-3400000D01*
G75*
G02*
X22850000Y-3250000I150000J0D01*
G01*
X28550000Y-3250000D01*
G75*
G02*
X28700000Y-3400000I0J-150000D01*
G01*
X28700000Y-4600000D01*
G75*
G02*
X28550000Y-4750000I-150000J0D01*
G01*
X22850000Y-4750000D01*
G75*
G02*
X22700000Y-4600000I0J150000D01*
G01*
G37*
G04 #@! TD.AperFunction*
G04 #@! TA.AperFunction,SMDPad,CuDef*
G36*
G01*
X22700000Y-2600000D02*
X22700000Y-1400000D01*
G75*
G02*
X22850000Y-1250000I150000J0D01*
G01*
X28550000Y-1250000D01*
G75*
G02*
X28700000Y-1400000I0J-150000D01*
G01*
X28700000Y-2600000D01*
G75*
G02*
X28550000Y-2750000I-150000J0D01*
G01*
X22850000Y-2750000D01*
G75*
G02*
X22700000Y-2600000I0J150000D01*
G01*
G37*
G04 #@! TD.AperFunction*
G04 #@! TA.AperFunction,SMDPad,CuDef*
G36*
G01*
X22700000Y-62600000D02*
X22700000Y-61400000D01*
G75*
G02*
X22850000Y-61250000I150000J0D01*
G01*
X28550000Y-61250000D01*
G75*
G02*
X28700000Y-61400000I0J-150000D01*
G01*
X28700000Y-62600000D01*
G75*
G02*
X28550000Y-62750000I-150000J0D01*
G01*
X22850000Y-62750000D01*
G75*
G02*
X22700000Y-62600000I0J150000D01*
G01*
G37*
G04 #@! TD.AperFunction*
G04 #@! TA.AperFunction,SMDPad,CuDef*
G36*
G01*
X22700000Y-60600000D02*
X22700000Y-59400000D01*
G75*
G02*
X22850000Y-59250000I150000J0D01*
G01*
X28550000Y-59250000D01*
G75*
G02*
X28700000Y-59400000I0J-150000D01*
G01*
X28700000Y-60600000D01*
G75*
G02*
X28550000Y-60750000I-150000J0D01*
G01*
X22850000Y-60750000D01*
G75*
G02*
X22700000Y-60600000I0J150000D01*
G01*
G37*
G04 #@! TD.AperFunction*
G04 #@! TA.AperFunction,SMDPad,CuDef*
G36*
G01*
X22700000Y-58600000D02*
X22700000Y-57400000D01*
G75*
G02*
X22850000Y-57250000I150000J0D01*
G01*
X28550000Y-57250000D01*
G75*
G02*
X28700000Y-57400000I0J-150000D01*
G01*
X28700000Y-58600000D01*
G75*
G02*
X28550000Y-58750000I-150000J0D01*
G01*
X22850000Y-58750000D01*
G75*
G02*
X22700000Y-58600000I0J150000D01*
G01*
G37*
G04 #@! TD.AperFunction*
G04 #@! TA.AperFunction,SMDPad,CuDef*
G36*
G01*
X22700000Y-56600000D02*
X22700000Y-55400000D01*
G75*
G02*
X22850000Y-55250000I150000J0D01*
G01*
X28550000Y-55250000D01*
G75*
G02*
X28700000Y-55400000I0J-150000D01*
G01*
X28700000Y-56600000D01*
G75*
G02*
X28550000Y-56750000I-150000J0D01*
G01*
X22850000Y-56750000D01*
G75*
G02*
X22700000Y-56600000I0J150000D01*
G01*
G37*
G04 #@! TD.AperFunction*
G04 #@! TA.AperFunction,SMDPad,CuDef*
G36*
G01*
X22700000Y-54600000D02*
X22700000Y-53400000D01*
G75*
G02*
X22850000Y-53250000I150000J0D01*
G01*
X28550000Y-53250000D01*
G75*
G02*
X28700000Y-53400000I0J-150000D01*
G01*
X28700000Y-54600000D01*
G75*
G02*
X28550000Y-54750000I-150000J0D01*
G01*
X22850000Y-54750000D01*
G75*
G02*
X22700000Y-54600000I0J150000D01*
G01*
G37*
G04 #@! TD.AperFunction*
G04 #@! TA.AperFunction,SMDPad,CuDef*
G36*
G01*
X22700000Y-52600000D02*
X22700000Y-51400000D01*
G75*
G02*
X22850000Y-51250000I150000J0D01*
G01*
X28550000Y-51250000D01*
G75*
G02*
X28700000Y-51400000I0J-150000D01*
G01*
X28700000Y-52600000D01*
G75*
G02*
X28550000Y-52750000I-150000J0D01*
G01*
X22850000Y-52750000D01*
G75*
G02*
X22700000Y-52600000I0J150000D01*
G01*
G37*
G04 #@! TD.AperFunction*
G04 #@! TA.AperFunction,SMDPad,CuDef*
G36*
G01*
X22700000Y-50600000D02*
X22700000Y-49400000D01*
G75*
G02*
X22850000Y-49250000I150000J0D01*
G01*
X28550000Y-49250000D01*
G75*
G02*
X28700000Y-49400000I0J-150000D01*
G01*
X28700000Y-50600000D01*
G75*
G02*
X28550000Y-50750000I-150000J0D01*
G01*
X22850000Y-50750000D01*
G75*
G02*
X22700000Y-50600000I0J150000D01*
G01*
G37*
G04 #@! TD.AperFunction*
G04 #@! TA.AperFunction,SMDPad,CuDef*
G36*
G01*
X22700000Y-48600000D02*
X22700000Y-47400000D01*
G75*
G02*
X22850000Y-47250000I150000J0D01*
G01*
X28550000Y-47250000D01*
G75*
G02*
X28700000Y-47400000I0J-150000D01*
G01*
X28700000Y-48600000D01*
G75*
G02*
X28550000Y-48750000I-150000J0D01*
G01*
X22850000Y-48750000D01*
G75*
G02*
X22700000Y-48600000I0J150000D01*
G01*
G37*
G04 #@! TD.AperFunction*
D14*
X8800000Y-8400000D03*
X9000000Y-26400000D03*
X9000000Y-37600000D03*
X10900000Y-57300000D03*
X21900000Y-57200000D03*
X10600000Y-53100000D03*
X13400000Y-55800000D03*
X15800000Y-37800000D03*
X12500000Y-21500000D03*
X16200000Y-31000000D03*
X27300000Y-28000000D03*
X29100000Y-28000000D03*
X16700000Y-54500000D03*
X18500000Y-54500000D03*
X17900000Y-54500000D03*
X17300000Y-54500000D03*
X16700000Y-53900000D03*
X18500000Y-53900000D03*
X17900000Y-53900000D03*
X17300000Y-53900000D03*
X16700000Y-53300000D03*
X17300000Y-53300000D03*
X17900000Y-53300000D03*
X18500000Y-53300000D03*
X19000000Y-36200000D03*
X30400000Y-45000000D03*
X14300000Y-35900000D03*
X6200000Y-20500000D03*
X8000000Y-22050000D03*
X30400000Y-19000000D03*
X18000000Y-45700000D03*
X29100000Y-35000000D03*
X29100000Y-34000000D03*
X27300000Y-34000000D03*
X27300000Y-35000000D03*
X22000000Y-42700000D03*
X5300000Y-39000000D03*
X26300000Y-10300000D03*
X26900000Y-10300000D03*
X25700000Y-10300000D03*
X24500000Y-9700000D03*
X24500000Y-10300000D03*
X27500000Y-9700000D03*
X25100000Y-9700000D03*
X28100000Y-10300000D03*
X27500000Y-10300000D03*
X26900000Y-9700000D03*
X25100000Y-10300000D03*
X26300000Y-9700000D03*
X28100000Y-9700000D03*
X25700000Y-9700000D03*
X23300000Y-10300000D03*
X23900000Y-9700000D03*
X23300000Y-9700000D03*
X23900000Y-10300000D03*
X3400000Y-20500000D03*
X5300000Y-24000000D03*
X18000000Y-42700000D03*
X17000000Y-42700000D03*
X23300000Y-6300000D03*
X23900000Y-5700000D03*
X23300000Y-5700000D03*
X23900000Y-6300000D03*
X28100000Y-5700000D03*
X24500000Y-5700000D03*
X25100000Y-5700000D03*
X25700000Y-5700000D03*
X25700000Y-6300000D03*
X26900000Y-6300000D03*
X24500000Y-6300000D03*
X27500000Y-5700000D03*
X26300000Y-6300000D03*
X25100000Y-6300000D03*
X28100000Y-6300000D03*
X26900000Y-5700000D03*
X26300000Y-5700000D03*
X27500000Y-6300000D03*
X23300000Y-8300000D03*
X23900000Y-7700000D03*
X23300000Y-7700000D03*
X23900000Y-8300000D03*
X28100000Y-7700000D03*
X24500000Y-7700000D03*
X25100000Y-7700000D03*
X25700000Y-7700000D03*
X25700000Y-8300000D03*
X26900000Y-8300000D03*
X24500000Y-8300000D03*
X27500000Y-7700000D03*
X26300000Y-8300000D03*
X25100000Y-8300000D03*
X28100000Y-8300000D03*
X26900000Y-7700000D03*
X26300000Y-7700000D03*
X27500000Y-8300000D03*
X14800000Y-18099998D03*
X8806766Y-41593234D03*
X6600000Y-45400000D03*
X13400000Y-41200000D03*
X25700000Y-47700000D03*
X25700000Y-48300000D03*
X27500000Y-48300000D03*
X28100000Y-47700000D03*
X24500000Y-48300000D03*
X28100000Y-48300000D03*
X26900000Y-48300000D03*
X26900000Y-47700000D03*
X27500000Y-47700000D03*
X26300000Y-47700000D03*
X26300000Y-48300000D03*
X23900000Y-47700000D03*
X25100000Y-47700000D03*
X23900000Y-48300000D03*
X23300000Y-47700000D03*
X23300000Y-48300000D03*
X24500000Y-47700000D03*
X25100000Y-48300000D03*
X7950000Y-53150000D03*
X8800000Y-50850000D03*
X6624265Y-49824265D03*
X8933850Y-57182380D03*
X16600000Y-22000000D03*
X15400000Y-22000000D03*
X18450000Y-22000000D03*
X14600000Y-46000000D03*
X14600000Y-49450000D03*
X15400000Y-25600000D03*
X16850000Y-25600000D03*
X14000000Y-46565687D03*
X21600000Y-34400000D03*
X21600000Y-33600000D03*
X21000000Y-32800000D03*
X20200000Y-31000000D03*
X20400000Y-37800000D03*
X20500000Y-43600000D03*
X19500000Y-43600000D03*
X18700000Y-48700000D03*
X18100000Y-48100000D03*
X17500000Y-47500000D03*
X18700000Y-48100000D03*
X18700000Y-47500000D03*
X18100000Y-47500000D03*
X17500000Y-46900000D03*
X18100000Y-46900000D03*
X18700000Y-46900000D03*
X19500000Y-44800000D03*
X20500000Y-44800000D03*
X20500000Y-44200000D03*
X19500000Y-44200000D03*
X25700000Y-11700000D03*
X25700000Y-15700000D03*
X25700000Y-16300000D03*
X23300000Y-12300000D03*
X23900000Y-11700000D03*
X23300000Y-11700000D03*
X23900000Y-12300000D03*
X28100000Y-11700000D03*
X24500000Y-11700000D03*
X25100000Y-11700000D03*
X25700000Y-12300000D03*
X26900000Y-12300000D03*
X24500000Y-12300000D03*
X27500000Y-11700000D03*
X26300000Y-12300000D03*
X25100000Y-12300000D03*
X28100000Y-12300000D03*
X26900000Y-11700000D03*
X26300000Y-11700000D03*
X27500000Y-12300000D03*
X23300000Y-14300000D03*
X23900000Y-13700000D03*
X23300000Y-13700000D03*
X23900000Y-14300000D03*
X28100000Y-13700000D03*
X24500000Y-13700000D03*
X25100000Y-13700000D03*
X25700000Y-13700000D03*
X25700000Y-14300000D03*
X26900000Y-14300000D03*
X24500000Y-14300000D03*
X27500000Y-13700000D03*
X26300000Y-14300000D03*
X25100000Y-14300000D03*
X28100000Y-14300000D03*
X26900000Y-13700000D03*
X26300000Y-13700000D03*
X27500000Y-14300000D03*
X28100000Y-15700000D03*
X28100000Y-16300000D03*
X26900000Y-15700000D03*
X26900000Y-16300000D03*
X27500000Y-16300000D03*
X27500000Y-15700000D03*
X26300000Y-15700000D03*
X26300000Y-16300000D03*
X24500000Y-16300000D03*
X25100000Y-15700000D03*
X24500000Y-15700000D03*
X25100000Y-16300000D03*
X23900000Y-15700000D03*
X23900000Y-16300000D03*
X23300000Y-16300000D03*
X23300000Y-15700000D03*
X25500000Y-37400000D03*
X26100000Y-37400000D03*
X25500000Y-36800000D03*
X26100000Y-36800000D03*
X2000000Y-43400000D03*
X2050000Y-40000000D03*
X14600000Y-40000000D03*
X25700000Y-1700000D03*
X25700000Y-3700000D03*
X27500000Y-2300000D03*
X28100000Y-2300000D03*
X24500000Y-2300000D03*
X26900000Y-1700000D03*
X26300000Y-1700000D03*
X23300000Y-2300000D03*
X23900000Y-1700000D03*
X23900000Y-2300000D03*
X23300000Y-1700000D03*
X28100000Y-1700000D03*
X25100000Y-1700000D03*
X25700000Y-2300000D03*
X24500000Y-1700000D03*
X27500000Y-1700000D03*
X26900000Y-2300000D03*
X26300000Y-2300000D03*
X25100000Y-2300000D03*
X23300000Y-4300000D03*
X23900000Y-3700000D03*
X23300000Y-3700000D03*
X23900000Y-4300000D03*
X28100000Y-3700000D03*
X24500000Y-3700000D03*
X25100000Y-3700000D03*
X25700000Y-4300000D03*
X26900000Y-4300000D03*
X24500000Y-4300000D03*
X27500000Y-3700000D03*
X26300000Y-4300000D03*
X25100000Y-4300000D03*
X28100000Y-4300000D03*
X26900000Y-3700000D03*
X26300000Y-3700000D03*
X27500000Y-4300000D03*
X23000000Y-46500000D03*
X22400000Y-46500000D03*
X23600000Y-46500000D03*
X23000000Y-45900000D03*
X23600000Y-45900000D03*
X22400000Y-45900000D03*
X12000000Y-18099998D03*
X14000000Y-18099998D03*
X9650000Y-55300000D03*
X6100000Y-24000000D03*
X8800000Y-52000000D03*
X8800000Y-46400000D03*
X3200000Y-44500000D03*
X10400000Y-56500000D03*
X10400000Y-54100000D03*
X8900002Y-58400000D03*
X10600000Y-48300000D03*
X12600000Y-41800000D03*
X10600000Y-52150000D03*
X13400000Y-46000000D03*
X12000000Y-42400000D03*
X12800000Y-46600000D03*
X10600000Y-50200000D03*
X9400000Y-47624998D03*
D15*
X5300000Y-39000000D02*
X3800000Y-39000000D01*
X17000000Y-42700000D02*
X17000000Y-44200000D01*
X18000000Y-42700000D02*
X18000000Y-45700000D01*
X22000000Y-42700000D02*
X22000000Y-44200000D01*
X3800000Y-24000000D02*
X5300000Y-24000000D01*
X13000000Y-44200000D02*
X13000000Y-42510002D01*
X13400000Y-42110002D02*
X13400000Y-41200000D01*
X13000000Y-42510002D02*
X13400000Y-42110002D01*
D16*
X16000000Y-48000000D02*
X18000000Y-50000000D01*
X16000000Y-45600000D02*
X16000000Y-48000000D01*
D15*
X16000000Y-45600000D02*
X16000000Y-44200000D01*
D16*
X18000000Y-50000000D02*
X25700000Y-50000000D01*
D17*
X7950000Y-53150000D02*
X7950000Y-55350000D01*
X10600000Y-58000000D02*
X25700000Y-58000000D01*
X7950000Y-55350000D02*
X10600000Y-58000000D01*
X7650000Y-50850000D02*
X6624265Y-49824265D01*
X8800000Y-50850000D02*
X7650000Y-50850000D01*
X25700000Y-60000000D02*
X22000000Y-60000000D01*
X22000000Y-60000000D02*
X20400010Y-58400010D01*
X10151480Y-58400010D02*
X8933850Y-57182380D01*
X20400010Y-58400010D02*
X10151480Y-58400010D01*
X16600000Y-22000000D02*
X15400000Y-22000000D01*
X18450000Y-22000000D02*
X16600000Y-22000000D01*
X25700000Y-52000000D02*
X22200000Y-52000000D01*
X14600000Y-48561998D02*
X14600000Y-46000000D01*
X15200001Y-49161999D02*
X14600000Y-48561998D01*
X15200001Y-49800018D02*
X15200001Y-49161999D01*
X14800019Y-54434321D02*
X14800019Y-50200000D01*
X14800019Y-50200000D02*
X15200001Y-49800018D01*
X15565698Y-55200000D02*
X14800019Y-54434321D01*
X21400000Y-54034302D02*
X20234302Y-55200000D01*
X20234302Y-55200000D02*
X15565698Y-55200000D01*
X21400000Y-52600000D02*
X21400000Y-54034302D01*
X22000000Y-52000000D02*
X21400000Y-52600000D01*
X25700000Y-52000000D02*
X22000000Y-52000000D01*
X25700000Y-54000000D02*
X22000000Y-54000000D01*
X22000000Y-54000000D02*
X20400000Y-55600000D01*
X20400000Y-55600000D02*
X15400000Y-55600000D01*
X15400000Y-55600000D02*
X14400009Y-54600008D01*
X14400009Y-49649991D02*
X14600000Y-49450000D01*
X14400009Y-54600008D02*
X14400009Y-49649991D01*
X25700000Y-56000000D02*
X22400000Y-56000000D01*
X15400000Y-25600000D02*
X16850000Y-25600000D01*
X14000000Y-54765698D02*
X14000000Y-46565687D01*
X15234302Y-56000000D02*
X14000000Y-54765698D01*
X25700000Y-56000000D02*
X15234302Y-56000000D01*
X21688002Y-34400000D02*
X21600000Y-34400000D01*
X21800010Y-31746310D02*
X22200001Y-32146301D01*
X22200001Y-33888001D02*
X21688002Y-34400000D01*
X22200001Y-32146301D02*
X22200001Y-33888001D01*
X21800010Y-22365688D02*
X21800000Y-31700000D01*
X23000000Y-19800000D02*
X23000000Y-21165698D01*
X21800010Y-22365688D02*
X23000000Y-21165698D01*
X21800010Y-31746310D02*
X21800010Y-22365688D01*
X21600000Y-33600000D02*
X21600001Y-32111999D01*
X21600001Y-32111999D02*
X21400000Y-31911998D01*
X22000000Y-21600000D02*
X22000000Y-19800000D01*
X21400000Y-22199999D02*
X22000000Y-21600000D01*
X21400000Y-30200000D02*
X21400000Y-22199999D01*
X21400000Y-31911998D02*
X21400000Y-22199999D01*
X21000000Y-32800000D02*
X21000000Y-19800000D01*
X20399999Y-32111999D02*
X20399999Y-32688001D01*
X20599990Y-31912008D02*
X20399999Y-32111999D01*
X20000000Y-21600020D02*
X20599990Y-22200010D01*
X20000000Y-19800000D02*
X20000000Y-21600020D01*
X20200010Y-30999990D02*
X20200000Y-31000000D01*
X20599990Y-30999990D02*
X20200010Y-30999990D01*
X20599990Y-22200010D02*
X20599990Y-30999990D01*
X20599990Y-30999990D02*
X20599990Y-31900000D01*
X20399999Y-37399999D02*
X20399999Y-32111999D01*
X20400000Y-37800000D02*
X20399999Y-37399999D01*
X2050000Y-43350000D02*
X2000000Y-43400000D01*
X2050000Y-40000000D02*
X2050000Y-43350000D01*
X14600000Y-40000000D02*
X15800000Y-41200000D01*
X15800000Y-41200000D02*
X18800000Y-41200000D01*
D15*
X22400000Y-45900000D02*
X23600000Y-45900000D01*
X23600000Y-46500000D02*
X22400000Y-46500000D01*
X23000000Y-46500000D02*
X22400000Y-45900000D01*
X23000000Y-46500000D02*
X23600000Y-45900000D01*
X23600000Y-45900000D02*
X23600000Y-46500000D01*
X22400000Y-46500000D02*
X22400000Y-45900000D01*
X23000000Y-44100000D02*
X23000000Y-45800000D01*
D17*
X12000000Y-18099998D02*
X14000000Y-18099998D01*
X5700000Y-26000000D02*
X6100000Y-25600000D01*
X3800000Y-26000000D02*
X5700000Y-26000000D01*
X6100000Y-25600000D02*
X6100000Y-24000000D01*
X2000000Y-26400000D02*
X2000000Y-38800000D01*
X2400000Y-26000000D02*
X2000000Y-26400000D01*
X1400000Y-39400000D02*
X1400000Y-43688002D01*
X2000000Y-38800000D02*
X1400000Y-39400000D01*
X3800000Y-26000000D02*
X2400000Y-26000000D01*
X8800000Y-50000000D02*
X9650000Y-50850000D01*
X8800000Y-46400000D02*
X8800000Y-50000000D01*
X8800000Y-52000000D02*
X9650000Y-52000000D01*
X9650000Y-52000000D02*
X9650000Y-55300000D01*
X9650000Y-50850000D02*
X9650000Y-52000000D01*
X2211998Y-44500000D02*
X1400000Y-43688002D01*
X3200000Y-44500000D02*
X2211998Y-44500000D01*
X10400000Y-54100000D02*
X10400000Y-56500000D01*
X9300022Y-58800020D02*
X8900002Y-58400000D01*
X20234321Y-58800020D02*
X9300022Y-58800020D01*
X23434301Y-62000000D02*
X20234321Y-58800020D01*
X25700000Y-62000000D02*
X23434301Y-62000000D01*
X10000000Y-44200000D02*
X10000000Y-46600000D01*
X10600000Y-47200000D02*
X10600000Y-48300000D01*
X10000000Y-46600000D02*
X10600000Y-47200000D01*
X5999990Y-31599990D02*
X5400000Y-31000000D01*
X10165689Y-31599990D02*
X11000010Y-32434311D01*
X9800010Y-31599990D02*
X5999990Y-31599990D01*
X11000000Y-40200000D02*
X11000000Y-32434302D01*
X11000000Y-32434302D02*
X10165688Y-31599990D01*
X12600000Y-41800000D02*
X11000000Y-40200000D01*
X10165688Y-31599990D02*
X9800010Y-31599990D01*
X3800000Y-31000000D02*
X5400000Y-31000000D01*
X13400000Y-46000000D02*
X13400000Y-47000010D01*
X13400000Y-47000010D02*
X13600000Y-47200010D01*
X13600000Y-47200010D02*
X13600000Y-51600000D01*
X13050000Y-52150000D02*
X10600000Y-52150000D01*
X13600000Y-51600000D02*
X13050000Y-52150000D01*
X12000000Y-42400000D02*
X12000000Y-41765698D01*
X12000000Y-41765698D02*
X10600000Y-40365698D01*
X10600000Y-32600000D02*
X10000000Y-32000000D01*
X10600000Y-40365698D02*
X10600000Y-32600000D01*
X3800000Y-32000000D02*
X10000000Y-32000000D01*
X12800000Y-46600000D02*
X12800000Y-46965709D01*
X12800000Y-46965709D02*
X13199990Y-47365699D01*
X13199990Y-47365699D02*
X13199990Y-49800010D01*
X12800000Y-50200000D02*
X10600000Y-50200000D01*
X13199990Y-49800010D02*
X12800000Y-50200000D01*
X9400001Y-46111999D02*
X9088002Y-45800000D01*
X9400000Y-47624998D02*
X9400001Y-46111999D01*
X7559998Y-45800000D02*
X7200000Y-45440002D01*
X9088002Y-45800000D02*
X7559998Y-45800000D01*
X7200000Y-45440002D02*
X7200000Y-40400000D01*
X6800000Y-40000000D02*
X7200000Y-40400000D01*
X3800000Y-40000000D02*
X6800000Y-40000000D01*
D18*
X25818750Y-17125000D02*
X28560557Y-17126726D01*
X28560635Y-17127469D01*
X28568846Y-17167472D01*
X28576479Y-17207486D01*
X28578295Y-17213501D01*
X28601380Y-17288075D01*
X28617198Y-17325706D01*
X28632463Y-17363488D01*
X28635412Y-17369036D01*
X28672542Y-17437706D01*
X28695344Y-17471511D01*
X28717682Y-17505648D01*
X28721653Y-17510517D01*
X28771414Y-17570668D01*
X28800378Y-17599430D01*
X28828892Y-17628548D01*
X28833733Y-17632553D01*
X28894230Y-17681893D01*
X28925000Y-17702336D01*
X28925000Y-23323186D01*
X27000000Y-23323186D01*
X26981581Y-23325000D01*
X26800000Y-23325000D01*
X26785368Y-23326441D01*
X26771299Y-23330709D01*
X26758332Y-23337640D01*
X26746967Y-23346967D01*
X26737640Y-23358332D01*
X26730709Y-23371299D01*
X26726441Y-23385368D01*
X26725000Y-23400000D01*
X26725000Y-23443973D01*
X26686691Y-23490653D01*
X26651869Y-23555800D01*
X26630426Y-23626487D01*
X26623186Y-23700000D01*
X26623186Y-24300000D01*
X26630426Y-24373513D01*
X26651869Y-24444200D01*
X26681695Y-24500000D01*
X26651869Y-24555800D01*
X26630426Y-24626487D01*
X26623186Y-24700000D01*
X26623186Y-25300000D01*
X26630426Y-25373513D01*
X26651869Y-25444200D01*
X26681695Y-25500000D01*
X26651869Y-25555800D01*
X26630426Y-25626487D01*
X26623186Y-25700000D01*
X26623186Y-26300000D01*
X26630426Y-26373513D01*
X26651869Y-26444200D01*
X26681695Y-26500000D01*
X26651869Y-26555800D01*
X26630426Y-26626487D01*
X26623186Y-26700000D01*
X26623186Y-27300000D01*
X26630426Y-27373513D01*
X26651869Y-27444200D01*
X26681695Y-27500000D01*
X26651869Y-27555800D01*
X26630426Y-27626487D01*
X26623186Y-27700000D01*
X26623186Y-28300000D01*
X26630426Y-28373513D01*
X26651869Y-28444200D01*
X26681695Y-28500000D01*
X26651869Y-28555800D01*
X26630426Y-28626487D01*
X26623186Y-28700000D01*
X26623186Y-29300000D01*
X26630426Y-29373513D01*
X26651869Y-29444200D01*
X26681695Y-29500000D01*
X26651869Y-29555800D01*
X26630426Y-29626487D01*
X26623186Y-29700000D01*
X26623186Y-30300000D01*
X26630426Y-30373513D01*
X26651869Y-30444200D01*
X26681695Y-30500000D01*
X26651869Y-30555800D01*
X26630426Y-30626487D01*
X26623186Y-30700000D01*
X26623186Y-31300000D01*
X26630426Y-31373513D01*
X26651869Y-31444200D01*
X26681695Y-31500000D01*
X26651869Y-31555800D01*
X26630426Y-31626487D01*
X26623186Y-31700000D01*
X26623186Y-32300000D01*
X26630426Y-32373513D01*
X26651869Y-32444200D01*
X26681695Y-32500000D01*
X26651869Y-32555800D01*
X26630426Y-32626487D01*
X26623186Y-32700000D01*
X26623186Y-33300000D01*
X26630426Y-33373513D01*
X26651869Y-33444200D01*
X26681695Y-33500000D01*
X26651869Y-33555800D01*
X26630426Y-33626487D01*
X26623186Y-33700000D01*
X26623186Y-34300000D01*
X26630426Y-34373513D01*
X26651869Y-34444200D01*
X26681695Y-34500000D01*
X26651869Y-34555800D01*
X26630426Y-34626487D01*
X26623186Y-34700000D01*
X26623186Y-35300000D01*
X26630426Y-35373513D01*
X26651869Y-35444200D01*
X26681695Y-35500000D01*
X26651869Y-35555800D01*
X26630426Y-35626487D01*
X26623186Y-35700000D01*
X26623186Y-36300000D01*
X26630426Y-36373513D01*
X26651869Y-36444200D01*
X26681695Y-36500000D01*
X26651869Y-36555800D01*
X26630426Y-36626487D01*
X26623186Y-36700000D01*
X26623186Y-36870748D01*
X21346967Y-42146967D01*
X21337640Y-42158332D01*
X21330709Y-42171299D01*
X21326441Y-42185368D01*
X21325000Y-42200000D01*
X21325000Y-42625648D01*
X21300000Y-42623186D01*
X21118750Y-42625000D01*
X21025000Y-42718750D01*
X21025000Y-44175000D01*
X21045000Y-44175000D01*
X21045000Y-44225000D01*
X21025000Y-44225000D01*
X21025000Y-45681250D01*
X21118750Y-45775000D01*
X21300000Y-45776814D01*
X21373513Y-45769574D01*
X21444200Y-45748131D01*
X21500000Y-45718305D01*
X21555800Y-45748131D01*
X21626487Y-45769574D01*
X21700000Y-45776814D01*
X21725000Y-45776814D01*
X21725000Y-47200000D01*
X21726441Y-47214632D01*
X21730709Y-47228701D01*
X21737640Y-47241668D01*
X21746967Y-47253033D01*
X21758332Y-47262360D01*
X21771299Y-47269291D01*
X21785368Y-47273559D01*
X21799886Y-47275000D01*
X22225000Y-47275644D01*
X22225000Y-49125000D01*
X18362437Y-49125000D01*
X16875000Y-47637564D01*
X16875000Y-46475000D01*
X18600000Y-46475000D01*
X18614632Y-46473559D01*
X18628701Y-46469291D01*
X18641668Y-46462360D01*
X18653033Y-46453033D01*
X18662360Y-46441668D01*
X18669291Y-46428701D01*
X18673559Y-46414632D01*
X18675000Y-46400000D01*
X18675000Y-45774352D01*
X18700000Y-45776814D01*
X18881250Y-45775000D01*
X18975000Y-45681250D01*
X18975000Y-44225000D01*
X19025000Y-44225000D01*
X19025000Y-45681250D01*
X19118750Y-45775000D01*
X19300000Y-45776814D01*
X19373513Y-45769574D01*
X19444200Y-45748131D01*
X19500000Y-45718305D01*
X19555800Y-45748131D01*
X19626487Y-45769574D01*
X19700000Y-45776814D01*
X19881250Y-45775000D01*
X19975000Y-45681250D01*
X19975000Y-44225000D01*
X20025000Y-44225000D01*
X20025000Y-45681250D01*
X20118750Y-45775000D01*
X20300000Y-45776814D01*
X20373513Y-45769574D01*
X20444200Y-45748131D01*
X20500000Y-45718305D01*
X20555800Y-45748131D01*
X20626487Y-45769574D01*
X20700000Y-45776814D01*
X20881250Y-45775000D01*
X20975000Y-45681250D01*
X20975000Y-44225000D01*
X20025000Y-44225000D01*
X19975000Y-44225000D01*
X19025000Y-44225000D01*
X18975000Y-44225000D01*
X18955000Y-44225000D01*
X18955000Y-44175000D01*
X18975000Y-44175000D01*
X18975000Y-42718750D01*
X19025000Y-42718750D01*
X19025000Y-44175000D01*
X19975000Y-44175000D01*
X19975000Y-42718750D01*
X20025000Y-42718750D01*
X20025000Y-44175000D01*
X20975000Y-44175000D01*
X20975000Y-42718750D01*
X20881250Y-42625000D01*
X20700000Y-42623186D01*
X20626487Y-42630426D01*
X20555800Y-42651869D01*
X20500000Y-42681695D01*
X20444200Y-42651869D01*
X20373513Y-42630426D01*
X20300000Y-42623186D01*
X20118750Y-42625000D01*
X20025000Y-42718750D01*
X19975000Y-42718750D01*
X19881250Y-42625000D01*
X19700000Y-42623186D01*
X19626487Y-42630426D01*
X19555800Y-42651869D01*
X19500000Y-42681695D01*
X19444200Y-42651869D01*
X19373513Y-42630426D01*
X19300000Y-42623186D01*
X19118750Y-42625000D01*
X19025000Y-42718750D01*
X18975000Y-42718750D01*
X18881250Y-42625000D01*
X18700000Y-42623186D01*
X18675000Y-42625648D01*
X18675000Y-40431066D01*
X20699515Y-38406551D01*
X20719732Y-38398177D01*
X20830287Y-38324307D01*
X20924307Y-38230287D01*
X20998177Y-38119732D01*
X21049060Y-37996890D01*
X21075000Y-37866482D01*
X21075000Y-37733518D01*
X21049060Y-37603110D01*
X20998177Y-37480268D01*
X20924307Y-37369713D01*
X20875000Y-37320406D01*
X20875000Y-34975000D01*
X21245581Y-34975000D01*
X21280268Y-34998177D01*
X21403110Y-35049060D01*
X21533518Y-35075000D01*
X21666482Y-35075000D01*
X21796890Y-35049060D01*
X21919732Y-34998177D01*
X21954419Y-34975000D01*
X22200000Y-34975000D01*
X22214632Y-34973559D01*
X22228701Y-34969291D01*
X22241668Y-34962360D01*
X22253033Y-34953033D01*
X22262360Y-34941668D01*
X22269291Y-34928701D01*
X22273559Y-34914632D01*
X22275000Y-34900000D01*
X22275000Y-34484752D01*
X22519372Y-34240381D01*
X22537502Y-34225502D01*
X22596860Y-34153174D01*
X22640967Y-34070655D01*
X22668128Y-33981117D01*
X22675001Y-33911333D01*
X22677299Y-33888001D01*
X22675001Y-33864669D01*
X22675001Y-32169633D01*
X22677299Y-32146301D01*
X22668128Y-32053185D01*
X22640967Y-31963647D01*
X22625831Y-31935330D01*
X22596860Y-31881128D01*
X22537502Y-31808800D01*
X22519377Y-31793925D01*
X22275010Y-31549559D01*
X22275010Y-22562438D01*
X23319371Y-21518078D01*
X23337501Y-21503199D01*
X23360643Y-21475000D01*
X24600000Y-21475000D01*
X24614632Y-21473559D01*
X24628701Y-21469291D01*
X24641668Y-21462360D01*
X24653033Y-21453033D01*
X24662360Y-21441668D01*
X24669291Y-21428701D01*
X24673559Y-21414632D01*
X24675000Y-21400000D01*
X24675000Y-21018419D01*
X24676814Y-21000000D01*
X24676814Y-18600000D01*
X24675000Y-18581581D01*
X24675000Y-17125571D01*
X25581250Y-17125000D01*
X25631250Y-17075000D01*
X25768750Y-17075000D01*
X25818750Y-17125000D01*
G04 #@! TA.AperFunction,Conductor*
D19*
G36*
X25818750Y-17125000D02*
G01*
X28560557Y-17126726D01*
X28560635Y-17127469D01*
X28568846Y-17167472D01*
X28576479Y-17207486D01*
X28578295Y-17213501D01*
X28601380Y-17288075D01*
X28617198Y-17325706D01*
X28632463Y-17363488D01*
X28635412Y-17369036D01*
X28672542Y-17437706D01*
X28695344Y-17471511D01*
X28717682Y-17505648D01*
X28721653Y-17510517D01*
X28771414Y-17570668D01*
X28800378Y-17599430D01*
X28828892Y-17628548D01*
X28833733Y-17632553D01*
X28894230Y-17681893D01*
X28925000Y-17702336D01*
X28925000Y-23323186D01*
X27000000Y-23323186D01*
X26981581Y-23325000D01*
X26800000Y-23325000D01*
X26785368Y-23326441D01*
X26771299Y-23330709D01*
X26758332Y-23337640D01*
X26746967Y-23346967D01*
X26737640Y-23358332D01*
X26730709Y-23371299D01*
X26726441Y-23385368D01*
X26725000Y-23400000D01*
X26725000Y-23443973D01*
X26686691Y-23490653D01*
X26651869Y-23555800D01*
X26630426Y-23626487D01*
X26623186Y-23700000D01*
X26623186Y-24300000D01*
X26630426Y-24373513D01*
X26651869Y-24444200D01*
X26681695Y-24500000D01*
X26651869Y-24555800D01*
X26630426Y-24626487D01*
X26623186Y-24700000D01*
X26623186Y-25300000D01*
X26630426Y-25373513D01*
X26651869Y-25444200D01*
X26681695Y-25500000D01*
X26651869Y-25555800D01*
X26630426Y-25626487D01*
X26623186Y-25700000D01*
X26623186Y-26300000D01*
X26630426Y-26373513D01*
X26651869Y-26444200D01*
X26681695Y-26500000D01*
X26651869Y-26555800D01*
X26630426Y-26626487D01*
X26623186Y-26700000D01*
X26623186Y-27300000D01*
X26630426Y-27373513D01*
X26651869Y-27444200D01*
X26681695Y-27500000D01*
X26651869Y-27555800D01*
X26630426Y-27626487D01*
X26623186Y-27700000D01*
X26623186Y-28300000D01*
X26630426Y-28373513D01*
X26651869Y-28444200D01*
X26681695Y-28500000D01*
X26651869Y-28555800D01*
X26630426Y-28626487D01*
X26623186Y-28700000D01*
X26623186Y-29300000D01*
X26630426Y-29373513D01*
X26651869Y-29444200D01*
X26681695Y-29500000D01*
X26651869Y-29555800D01*
X26630426Y-29626487D01*
X26623186Y-29700000D01*
X26623186Y-30300000D01*
X26630426Y-30373513D01*
X26651869Y-30444200D01*
X26681695Y-30500000D01*
X26651869Y-30555800D01*
X26630426Y-30626487D01*
X26623186Y-30700000D01*
X26623186Y-31300000D01*
X26630426Y-31373513D01*
X26651869Y-31444200D01*
X26681695Y-31500000D01*
X26651869Y-31555800D01*
X26630426Y-31626487D01*
X26623186Y-31700000D01*
X26623186Y-32300000D01*
X26630426Y-32373513D01*
X26651869Y-32444200D01*
X26681695Y-32500000D01*
X26651869Y-32555800D01*
X26630426Y-32626487D01*
X26623186Y-32700000D01*
X26623186Y-33300000D01*
X26630426Y-33373513D01*
X26651869Y-33444200D01*
X26681695Y-33500000D01*
X26651869Y-33555800D01*
X26630426Y-33626487D01*
X26623186Y-33700000D01*
X26623186Y-34300000D01*
X26630426Y-34373513D01*
X26651869Y-34444200D01*
X26681695Y-34500000D01*
X26651869Y-34555800D01*
X26630426Y-34626487D01*
X26623186Y-34700000D01*
X26623186Y-35300000D01*
X26630426Y-35373513D01*
X26651869Y-35444200D01*
X26681695Y-35500000D01*
X26651869Y-35555800D01*
X26630426Y-35626487D01*
X26623186Y-35700000D01*
X26623186Y-36300000D01*
X26630426Y-36373513D01*
X26651869Y-36444200D01*
X26681695Y-36500000D01*
X26651869Y-36555800D01*
X26630426Y-36626487D01*
X26623186Y-36700000D01*
X26623186Y-36870748D01*
X21346967Y-42146967D01*
X21337640Y-42158332D01*
X21330709Y-42171299D01*
X21326441Y-42185368D01*
X21325000Y-42200000D01*
X21325000Y-42625648D01*
X21300000Y-42623186D01*
X21118750Y-42625000D01*
X21025000Y-42718750D01*
X21025000Y-44175000D01*
X21045000Y-44175000D01*
X21045000Y-44225000D01*
X21025000Y-44225000D01*
X21025000Y-45681250D01*
X21118750Y-45775000D01*
X21300000Y-45776814D01*
X21373513Y-45769574D01*
X21444200Y-45748131D01*
X21500000Y-45718305D01*
X21555800Y-45748131D01*
X21626487Y-45769574D01*
X21700000Y-45776814D01*
X21725000Y-45776814D01*
X21725000Y-47200000D01*
X21726441Y-47214632D01*
X21730709Y-47228701D01*
X21737640Y-47241668D01*
X21746967Y-47253033D01*
X21758332Y-47262360D01*
X21771299Y-47269291D01*
X21785368Y-47273559D01*
X21799886Y-47275000D01*
X22225000Y-47275644D01*
X22225000Y-49125000D01*
X18362437Y-49125000D01*
X16875000Y-47637564D01*
X16875000Y-46475000D01*
X18600000Y-46475000D01*
X18614632Y-46473559D01*
X18628701Y-46469291D01*
X18641668Y-46462360D01*
X18653033Y-46453033D01*
X18662360Y-46441668D01*
X18669291Y-46428701D01*
X18673559Y-46414632D01*
X18675000Y-46400000D01*
X18675000Y-45774352D01*
X18700000Y-45776814D01*
X18881250Y-45775000D01*
X18975000Y-45681250D01*
X18975000Y-44225000D01*
X19025000Y-44225000D01*
X19025000Y-45681250D01*
X19118750Y-45775000D01*
X19300000Y-45776814D01*
X19373513Y-45769574D01*
X19444200Y-45748131D01*
X19500000Y-45718305D01*
X19555800Y-45748131D01*
X19626487Y-45769574D01*
X19700000Y-45776814D01*
X19881250Y-45775000D01*
X19975000Y-45681250D01*
X19975000Y-44225000D01*
X20025000Y-44225000D01*
X20025000Y-45681250D01*
X20118750Y-45775000D01*
X20300000Y-45776814D01*
X20373513Y-45769574D01*
X20444200Y-45748131D01*
X20500000Y-45718305D01*
X20555800Y-45748131D01*
X20626487Y-45769574D01*
X20700000Y-45776814D01*
X20881250Y-45775000D01*
X20975000Y-45681250D01*
X20975000Y-44225000D01*
X20025000Y-44225000D01*
X19975000Y-44225000D01*
X19025000Y-44225000D01*
X18975000Y-44225000D01*
X18955000Y-44225000D01*
X18955000Y-44175000D01*
X18975000Y-44175000D01*
X18975000Y-42718750D01*
X19025000Y-42718750D01*
X19025000Y-44175000D01*
X19975000Y-44175000D01*
X19975000Y-42718750D01*
X20025000Y-42718750D01*
X20025000Y-44175000D01*
X20975000Y-44175000D01*
X20975000Y-42718750D01*
X20881250Y-42625000D01*
X20700000Y-42623186D01*
X20626487Y-42630426D01*
X20555800Y-42651869D01*
X20500000Y-42681695D01*
X20444200Y-42651869D01*
X20373513Y-42630426D01*
X20300000Y-42623186D01*
X20118750Y-42625000D01*
X20025000Y-42718750D01*
X19975000Y-42718750D01*
X19881250Y-42625000D01*
X19700000Y-42623186D01*
X19626487Y-42630426D01*
X19555800Y-42651869D01*
X19500000Y-42681695D01*
X19444200Y-42651869D01*
X19373513Y-42630426D01*
X19300000Y-42623186D01*
X19118750Y-42625000D01*
X19025000Y-42718750D01*
X18975000Y-42718750D01*
X18881250Y-42625000D01*
X18700000Y-42623186D01*
X18675000Y-42625648D01*
X18675000Y-40431066D01*
X20699515Y-38406551D01*
X20719732Y-38398177D01*
X20830287Y-38324307D01*
X20924307Y-38230287D01*
X20998177Y-38119732D01*
X21049060Y-37996890D01*
X21075000Y-37866482D01*
X21075000Y-37733518D01*
X21049060Y-37603110D01*
X20998177Y-37480268D01*
X20924307Y-37369713D01*
X20875000Y-37320406D01*
X20875000Y-34975000D01*
X21245581Y-34975000D01*
X21280268Y-34998177D01*
X21403110Y-35049060D01*
X21533518Y-35075000D01*
X21666482Y-35075000D01*
X21796890Y-35049060D01*
X21919732Y-34998177D01*
X21954419Y-34975000D01*
X22200000Y-34975000D01*
X22214632Y-34973559D01*
X22228701Y-34969291D01*
X22241668Y-34962360D01*
X22253033Y-34953033D01*
X22262360Y-34941668D01*
X22269291Y-34928701D01*
X22273559Y-34914632D01*
X22275000Y-34900000D01*
X22275000Y-34484752D01*
X22519372Y-34240381D01*
X22537502Y-34225502D01*
X22596860Y-34153174D01*
X22640967Y-34070655D01*
X22668128Y-33981117D01*
X22675001Y-33911333D01*
X22677299Y-33888001D01*
X22675001Y-33864669D01*
X22675001Y-32169633D01*
X22677299Y-32146301D01*
X22668128Y-32053185D01*
X22640967Y-31963647D01*
X22625831Y-31935330D01*
X22596860Y-31881128D01*
X22537502Y-31808800D01*
X22519377Y-31793925D01*
X22275010Y-31549559D01*
X22275010Y-22562438D01*
X23319371Y-21518078D01*
X23337501Y-21503199D01*
X23360643Y-21475000D01*
X24600000Y-21475000D01*
X24614632Y-21473559D01*
X24628701Y-21469291D01*
X24641668Y-21462360D01*
X24653033Y-21453033D01*
X24662360Y-21441668D01*
X24669291Y-21428701D01*
X24673559Y-21414632D01*
X24675000Y-21400000D01*
X24675000Y-21018419D01*
X24676814Y-21000000D01*
X24676814Y-18600000D01*
X24675000Y-18581581D01*
X24675000Y-17125571D01*
X25581250Y-17125000D01*
X25631250Y-17075000D01*
X25768750Y-17075000D01*
X25818750Y-17125000D01*
G37*
G04 #@! TD.AperFunction*
D18*
X28550001Y-873186D02*
X22850000Y-873186D01*
X22747224Y-883309D01*
X22648397Y-913287D01*
X22557318Y-961970D01*
X22477486Y-1027486D01*
X22411970Y-1107318D01*
X22363287Y-1198397D01*
X22333309Y-1297224D01*
X22323186Y-1400000D01*
X22323186Y-2600000D01*
X22333309Y-2702776D01*
X22363287Y-2801603D01*
X22411970Y-2892682D01*
X22477486Y-2972514D01*
X22510978Y-3000000D01*
X22477486Y-3027486D01*
X22411970Y-3107318D01*
X22363287Y-3198397D01*
X22333309Y-3297224D01*
X22323186Y-3400000D01*
X22323186Y-4600000D01*
X22333309Y-4702776D01*
X22363287Y-4801603D01*
X22411970Y-4892682D01*
X22465218Y-4957565D01*
X22433552Y-4983552D01*
X22386691Y-5040653D01*
X22351869Y-5105800D01*
X22330426Y-5176487D01*
X22323186Y-5250000D01*
X22325000Y-5881250D01*
X22418750Y-5975000D01*
X25675000Y-5975000D01*
X25675000Y-5955000D01*
X25725000Y-5955000D01*
X25725000Y-5975000D01*
X25745000Y-5975000D01*
X25745000Y-6025000D01*
X25725000Y-6025000D01*
X25725000Y-7975000D01*
X25745000Y-7975000D01*
X25745000Y-8025000D01*
X25725000Y-8025000D01*
X25725000Y-9975000D01*
X25745000Y-9975000D01*
X25745000Y-10025000D01*
X25725000Y-10025000D01*
X25725000Y-10045000D01*
X25675000Y-10045000D01*
X25675000Y-10025000D01*
X22418750Y-10025000D01*
X22325000Y-10118750D01*
X22323522Y-10633213D01*
X22256494Y-10653545D01*
X22191661Y-10688199D01*
X22134835Y-10734835D01*
X22088199Y-10791661D01*
X22053545Y-10856494D01*
X22032206Y-10926841D01*
X22025000Y-11000000D01*
X22025000Y-17000000D01*
X22032206Y-17073159D01*
X22053545Y-17143506D01*
X22088199Y-17208339D01*
X22134835Y-17265165D01*
X22191661Y-17311801D01*
X22256494Y-17346455D01*
X22326841Y-17367794D01*
X22400000Y-17375000D01*
X24225000Y-17375000D01*
X24225000Y-18223186D01*
X23700000Y-18223186D01*
X23626487Y-18230426D01*
X23555800Y-18251869D01*
X23500000Y-18281695D01*
X23444200Y-18251869D01*
X23373513Y-18230426D01*
X23300000Y-18223186D01*
X22700000Y-18223186D01*
X22626487Y-18230426D01*
X22555800Y-18251869D01*
X22500000Y-18281695D01*
X22444200Y-18251869D01*
X22373513Y-18230426D01*
X22300000Y-18223186D01*
X21700000Y-18223186D01*
X21626487Y-18230426D01*
X21555800Y-18251869D01*
X21500000Y-18281695D01*
X21444200Y-18251869D01*
X21373513Y-18230426D01*
X21300000Y-18223186D01*
X20700000Y-18223186D01*
X20626487Y-18230426D01*
X20555800Y-18251869D01*
X20500000Y-18281695D01*
X20444200Y-18251869D01*
X20373513Y-18230426D01*
X20300000Y-18223186D01*
X19700000Y-18223186D01*
X19626487Y-18230426D01*
X19555800Y-18251869D01*
X19500000Y-18281695D01*
X19444200Y-18251869D01*
X19373513Y-18230426D01*
X19300000Y-18223186D01*
X19118750Y-18225000D01*
X19025000Y-18318750D01*
X19025000Y-19775000D01*
X19045000Y-19775000D01*
X19045000Y-19825000D01*
X19025000Y-19825000D01*
X19025000Y-21281250D01*
X19118750Y-21375000D01*
X19300000Y-21376814D01*
X19373513Y-21369574D01*
X19444200Y-21348131D01*
X19500000Y-21318305D01*
X19525001Y-21331668D01*
X19525001Y-21576678D01*
X19522702Y-21600020D01*
X19531873Y-21693136D01*
X19551867Y-21759044D01*
X19559035Y-21782674D01*
X19603142Y-21865193D01*
X19662500Y-21937521D01*
X19680629Y-21952399D01*
X20124990Y-22396761D01*
X20124991Y-30326696D01*
X20003110Y-30350940D01*
X19880268Y-30401823D01*
X19769713Y-30475693D01*
X19675693Y-30569713D01*
X19601823Y-30680268D01*
X19550940Y-30803110D01*
X19525000Y-30933518D01*
X19525000Y-31066482D01*
X19550940Y-31196890D01*
X19601823Y-31319732D01*
X19675693Y-31430287D01*
X19769713Y-31524307D01*
X19880268Y-31598177D01*
X20003110Y-31649060D01*
X20124991Y-31673304D01*
X20124991Y-31715257D01*
X20080633Y-31759615D01*
X20062498Y-31774498D01*
X20003140Y-31846826D01*
X19959033Y-31929346D01*
X19948165Y-31965173D01*
X19931872Y-32018883D01*
X19922701Y-32111999D01*
X19924999Y-32135332D01*
X19925000Y-32410970D01*
X19924999Y-37320407D01*
X19875693Y-37369713D01*
X19801823Y-37480268D01*
X19750940Y-37603110D01*
X19725000Y-37733518D01*
X19725000Y-37866482D01*
X19750940Y-37996890D01*
X19801823Y-38119732D01*
X19875693Y-38230287D01*
X19969713Y-38324307D01*
X20075008Y-38394662D01*
X18334835Y-40134835D01*
X18288199Y-40191661D01*
X18253545Y-40256494D01*
X18232206Y-40326841D01*
X18225000Y-40400000D01*
X18225000Y-40725000D01*
X15996751Y-40725000D01*
X15275000Y-40003250D01*
X15275000Y-39933518D01*
X15249060Y-39803110D01*
X15198177Y-39680268D01*
X15124307Y-39569713D01*
X15030287Y-39475693D01*
X14919732Y-39401823D01*
X14796890Y-39350940D01*
X14666482Y-39325000D01*
X14533518Y-39325000D01*
X14403110Y-39350940D01*
X14280268Y-39401823D01*
X14169713Y-39475693D01*
X14075693Y-39569713D01*
X14001823Y-39680268D01*
X13950940Y-39803110D01*
X13925000Y-39933518D01*
X13925000Y-40066482D01*
X13950940Y-40196890D01*
X14001823Y-40319732D01*
X14075693Y-40430287D01*
X14169713Y-40524307D01*
X14280268Y-40598177D01*
X14403110Y-40649060D01*
X14533518Y-40675000D01*
X14603250Y-40675000D01*
X15447620Y-41519371D01*
X15462499Y-41537501D01*
X15534827Y-41596859D01*
X15617346Y-41640966D01*
X15679722Y-41659888D01*
X15706883Y-41668127D01*
X15799999Y-41677298D01*
X15823331Y-41675000D01*
X18225000Y-41675000D01*
X18225000Y-42623937D01*
X18118750Y-42625000D01*
X18025000Y-42718750D01*
X18025000Y-44175000D01*
X18045000Y-44175000D01*
X18045000Y-44225000D01*
X18025000Y-44225000D01*
X18025000Y-45681250D01*
X18118750Y-45775000D01*
X18225000Y-45776063D01*
X18225000Y-46025000D01*
X16875000Y-46025000D01*
X16875000Y-45775063D01*
X16881250Y-45775000D01*
X16975000Y-45681250D01*
X16975000Y-44225000D01*
X17025000Y-44225000D01*
X17025000Y-45681250D01*
X17118750Y-45775000D01*
X17300000Y-45776814D01*
X17373513Y-45769574D01*
X17444200Y-45748131D01*
X17500000Y-45718305D01*
X17555800Y-45748131D01*
X17626487Y-45769574D01*
X17700000Y-45776814D01*
X17881250Y-45775000D01*
X17975000Y-45681250D01*
X17975000Y-44225000D01*
X17025000Y-44225000D01*
X16975000Y-44225000D01*
X16955000Y-44225000D01*
X16955000Y-44175000D01*
X16975000Y-44175000D01*
X16975000Y-42718750D01*
X17025000Y-42718750D01*
X17025000Y-44175000D01*
X17975000Y-44175000D01*
X17975000Y-42718750D01*
X17881250Y-42625000D01*
X17700000Y-42623186D01*
X17626487Y-42630426D01*
X17555800Y-42651869D01*
X17500000Y-42681695D01*
X17444200Y-42651869D01*
X17373513Y-42630426D01*
X17300000Y-42623186D01*
X17118750Y-42625000D01*
X17025000Y-42718750D01*
X16975000Y-42718750D01*
X16881250Y-42625000D01*
X16700000Y-42623186D01*
X16626487Y-42630426D01*
X16555800Y-42651869D01*
X16500000Y-42681695D01*
X16444200Y-42651869D01*
X16373513Y-42630426D01*
X16300000Y-42623186D01*
X15700000Y-42623186D01*
X15626487Y-42630426D01*
X15555800Y-42651869D01*
X15500000Y-42681695D01*
X15444200Y-42651869D01*
X15373513Y-42630426D01*
X15300000Y-42623186D01*
X15118750Y-42625000D01*
X15025000Y-42718750D01*
X15025000Y-44175000D01*
X15045000Y-44175000D01*
X15045000Y-44225000D01*
X15025000Y-44225000D01*
X15025000Y-44245000D01*
X14975000Y-44245000D01*
X14975000Y-44225000D01*
X14025000Y-44225000D01*
X14025000Y-44245000D01*
X13975000Y-44245000D01*
X13975000Y-44225000D01*
X13025000Y-44225000D01*
X13025000Y-44245000D01*
X12975000Y-44245000D01*
X12975000Y-44225000D01*
X12025000Y-44225000D01*
X12025000Y-45681250D01*
X12118750Y-45775000D01*
X12300000Y-45776814D01*
X12373513Y-45769574D01*
X12444200Y-45748131D01*
X12500000Y-45718305D01*
X12555800Y-45748131D01*
X12626487Y-45769574D01*
X12700000Y-45776814D01*
X12762090Y-45776193D01*
X12750940Y-45803110D01*
X12726413Y-45926413D01*
X12603110Y-45950940D01*
X12480268Y-46001823D01*
X12369713Y-46075693D01*
X12275693Y-46169713D01*
X12201823Y-46280268D01*
X12150940Y-46403110D01*
X12125000Y-46533518D01*
X12125000Y-46666482D01*
X12150940Y-46796890D01*
X12201823Y-46919732D01*
X12275693Y-47030287D01*
X12343910Y-47098504D01*
X12359035Y-47148363D01*
X12403142Y-47230882D01*
X12462500Y-47303210D01*
X12480629Y-47318088D01*
X12724990Y-47562450D01*
X12724991Y-49603258D01*
X12603250Y-49725000D01*
X11079594Y-49725000D01*
X11030287Y-49675693D01*
X10919732Y-49601823D01*
X10796890Y-49550940D01*
X10666482Y-49525000D01*
X10533518Y-49525000D01*
X10403110Y-49550940D01*
X10280268Y-49601823D01*
X10169713Y-49675693D01*
X10075693Y-49769713D01*
X10001823Y-49880268D01*
X9950940Y-50003110D01*
X9925000Y-50133518D01*
X9925000Y-50266482D01*
X9950940Y-50396890D01*
X10001823Y-50519732D01*
X10038565Y-50574721D01*
X10020225Y-50552373D01*
X9987501Y-50512499D01*
X9969377Y-50497625D01*
X9275000Y-49803250D01*
X9275000Y-48288358D01*
X9333518Y-48299998D01*
X9466482Y-48299998D01*
X9596890Y-48274058D01*
X9719732Y-48223175D01*
X9830287Y-48149305D01*
X9924307Y-48055285D01*
X9998177Y-47944730D01*
X10049060Y-47821888D01*
X10075000Y-47691480D01*
X10075000Y-47558516D01*
X10049060Y-47428108D01*
X9998177Y-47305266D01*
X9927018Y-47198769D01*
X10125000Y-47396751D01*
X10125001Y-47820405D01*
X10075693Y-47869713D01*
X10001823Y-47980268D01*
X9950940Y-48103110D01*
X9925000Y-48233518D01*
X9925000Y-48366482D01*
X9950940Y-48496890D01*
X10001823Y-48619732D01*
X10075693Y-48730287D01*
X10169713Y-48824307D01*
X10280268Y-48898177D01*
X10403110Y-48949060D01*
X10533518Y-48975000D01*
X10666482Y-48975000D01*
X10796890Y-48949060D01*
X10919732Y-48898177D01*
X11030287Y-48824307D01*
X11124307Y-48730287D01*
X11198177Y-48619732D01*
X11249060Y-48496890D01*
X11275000Y-48366482D01*
X11275000Y-48233518D01*
X11249060Y-48103110D01*
X11198177Y-47980268D01*
X11124307Y-47869713D01*
X11075000Y-47820406D01*
X11075000Y-47223331D01*
X11077298Y-47199999D01*
X11068127Y-47106883D01*
X11055472Y-47065165D01*
X11040966Y-47017346D01*
X10996859Y-46934827D01*
X10937501Y-46862499D01*
X10919371Y-46847620D01*
X10475000Y-46403250D01*
X10475000Y-45731668D01*
X10500000Y-45718305D01*
X10555800Y-45748131D01*
X10626487Y-45769574D01*
X10700000Y-45776814D01*
X10881250Y-45775000D01*
X10975000Y-45681250D01*
X10975000Y-44225000D01*
X11025000Y-44225000D01*
X11025000Y-45681250D01*
X11118750Y-45775000D01*
X11300000Y-45776814D01*
X11373513Y-45769574D01*
X11444200Y-45748131D01*
X11500000Y-45718305D01*
X11555800Y-45748131D01*
X11626487Y-45769574D01*
X11700000Y-45776814D01*
X11881250Y-45775000D01*
X11975000Y-45681250D01*
X11975000Y-44225000D01*
X11025000Y-44225000D01*
X10975000Y-44225000D01*
X10955000Y-44225000D01*
X10955000Y-44175000D01*
X10975000Y-44175000D01*
X10975000Y-42718750D01*
X10881250Y-42625000D01*
X10700000Y-42623186D01*
X10626487Y-42630426D01*
X10555800Y-42651869D01*
X10500000Y-42681695D01*
X10444200Y-42651869D01*
X10373513Y-42630426D01*
X10300000Y-42623186D01*
X9700000Y-42623186D01*
X9626487Y-42630426D01*
X9555800Y-42651869D01*
X9500000Y-42681695D01*
X9444200Y-42651869D01*
X9373513Y-42630426D01*
X9300000Y-42623186D01*
X8700000Y-42623186D01*
X8626487Y-42630426D01*
X8555800Y-42651869D01*
X8500000Y-42681695D01*
X8444200Y-42651869D01*
X8373513Y-42630426D01*
X8300000Y-42623186D01*
X7700000Y-42623186D01*
X7675000Y-42625648D01*
X7675000Y-40423331D01*
X7677298Y-40399999D01*
X7668127Y-40306883D01*
X7652841Y-40256494D01*
X7640966Y-40217346D01*
X7596859Y-40134827D01*
X7537501Y-40062499D01*
X7519371Y-40047620D01*
X7152384Y-39680634D01*
X7137501Y-39662499D01*
X7065173Y-39603141D01*
X6982654Y-39559034D01*
X6893116Y-39531873D01*
X6823332Y-39525000D01*
X6800000Y-39522702D01*
X6776668Y-39525000D01*
X5331668Y-39525000D01*
X5318305Y-39500000D01*
X5348131Y-39444200D01*
X5369574Y-39373513D01*
X5376814Y-39300000D01*
X5375000Y-39118750D01*
X5281250Y-39025000D01*
X3825000Y-39025000D01*
X3825000Y-39045000D01*
X3775000Y-39045000D01*
X3775000Y-39025000D01*
X3755000Y-39025000D01*
X3755000Y-38975000D01*
X3775000Y-38975000D01*
X3775000Y-38955000D01*
X3825000Y-38955000D01*
X3825000Y-38975000D01*
X5281250Y-38975000D01*
X5375000Y-38881250D01*
X5376814Y-38700000D01*
X5369574Y-38626487D01*
X5348131Y-38555800D01*
X5318305Y-38500000D01*
X5348131Y-38444200D01*
X5369574Y-38373513D01*
X5376814Y-38300000D01*
X5376814Y-37700000D01*
X5369574Y-37626487D01*
X5348131Y-37555800D01*
X5318305Y-37500000D01*
X5348131Y-37444200D01*
X5369574Y-37373513D01*
X5376814Y-37300000D01*
X5376814Y-36700000D01*
X5369574Y-36626487D01*
X5348131Y-36555800D01*
X5318305Y-36500000D01*
X5348131Y-36444200D01*
X5369574Y-36373513D01*
X5376814Y-36300000D01*
X5376814Y-35700000D01*
X5369574Y-35626487D01*
X5348131Y-35555800D01*
X5318305Y-35500000D01*
X5348131Y-35444200D01*
X5369574Y-35373513D01*
X5376814Y-35300000D01*
X5376814Y-34700000D01*
X5369574Y-34626487D01*
X5348131Y-34555800D01*
X5318305Y-34500000D01*
X5348131Y-34444200D01*
X5369574Y-34373513D01*
X5376814Y-34300000D01*
X5376814Y-33700000D01*
X5369574Y-33626487D01*
X5348131Y-33555800D01*
X5318305Y-33500000D01*
X5348131Y-33444200D01*
X5369574Y-33373513D01*
X5376814Y-33300000D01*
X5376814Y-32700000D01*
X5369574Y-32626487D01*
X5348131Y-32555800D01*
X5318305Y-32500000D01*
X5331668Y-32475000D01*
X9803250Y-32475000D01*
X10125001Y-32796752D01*
X10125000Y-40342366D01*
X10122702Y-40365698D01*
X10129063Y-40430287D01*
X10131873Y-40458813D01*
X10159034Y-40548351D01*
X10203141Y-40630871D01*
X10262499Y-40703199D01*
X10280634Y-40718082D01*
X11503979Y-41941427D01*
X11475693Y-41969713D01*
X11401823Y-42080268D01*
X11350940Y-42203110D01*
X11325000Y-42333518D01*
X11325000Y-42466482D01*
X11350940Y-42596890D01*
X11364462Y-42629535D01*
X11300000Y-42623186D01*
X11118750Y-42625000D01*
X11025000Y-42718750D01*
X11025000Y-44175000D01*
X11975000Y-44175000D01*
X11975000Y-44155000D01*
X12025000Y-44155000D01*
X12025000Y-44175000D01*
X12975000Y-44175000D01*
X12975000Y-42718750D01*
X13025000Y-42718750D01*
X13025000Y-44175000D01*
X13975000Y-44175000D01*
X13975000Y-42718750D01*
X14025000Y-42718750D01*
X14025000Y-44175000D01*
X14975000Y-44175000D01*
X14975000Y-42718750D01*
X14881250Y-42625000D01*
X14700000Y-42623186D01*
X14626487Y-42630426D01*
X14555800Y-42651869D01*
X14500000Y-42681695D01*
X14444200Y-42651869D01*
X14373513Y-42630426D01*
X14300000Y-42623186D01*
X14118750Y-42625000D01*
X14025000Y-42718750D01*
X13975000Y-42718750D01*
X13881250Y-42625000D01*
X13700000Y-42623186D01*
X13626487Y-42630426D01*
X13555800Y-42651869D01*
X13500000Y-42681695D01*
X13444200Y-42651869D01*
X13373513Y-42630426D01*
X13300000Y-42623186D01*
X13118750Y-42625000D01*
X13025000Y-42718750D01*
X12975000Y-42718750D01*
X12881250Y-42625000D01*
X12700000Y-42623186D01*
X12635538Y-42629535D01*
X12649060Y-42596890D01*
X12673587Y-42473587D01*
X12796890Y-42449060D01*
X12919732Y-42398177D01*
X13030287Y-42324307D01*
X13124307Y-42230287D01*
X13198177Y-42119732D01*
X13249060Y-41996890D01*
X13275000Y-41866482D01*
X13275000Y-41733518D01*
X13249060Y-41603110D01*
X13198177Y-41480268D01*
X13124307Y-41369713D01*
X13030287Y-41275693D01*
X12919732Y-41201823D01*
X12796890Y-41150940D01*
X12666482Y-41125000D01*
X12596752Y-41125000D01*
X11475000Y-40003250D01*
X11475000Y-32457744D01*
X11477308Y-32434310D01*
X11468137Y-32341194D01*
X11440975Y-32251656D01*
X11396868Y-32169138D01*
X11352383Y-32114933D01*
X11352374Y-32114924D01*
X11337501Y-32096801D01*
X11319377Y-32081927D01*
X10518067Y-31280618D01*
X10503189Y-31262489D01*
X10430861Y-31203131D01*
X10348342Y-31159024D01*
X10285966Y-31140102D01*
X10258805Y-31131863D01*
X10165689Y-31122692D01*
X10165688Y-31122692D01*
X10142356Y-31124990D01*
X6196741Y-31124990D01*
X5752384Y-30680634D01*
X5737501Y-30662499D01*
X5665173Y-30603141D01*
X5582654Y-30559034D01*
X5493116Y-30531873D01*
X5423332Y-30525000D01*
X5400000Y-30522702D01*
X5376668Y-30525000D01*
X5331668Y-30525000D01*
X5318305Y-30500000D01*
X5348131Y-30444200D01*
X5369574Y-30373513D01*
X5376814Y-30300000D01*
X5376814Y-29700000D01*
X5369574Y-29626487D01*
X5348131Y-29555800D01*
X5318305Y-29500000D01*
X5348131Y-29444200D01*
X5369574Y-29373513D01*
X5376814Y-29300000D01*
X5376814Y-28764574D01*
X17125000Y-28764574D01*
X17125000Y-29035426D01*
X17177841Y-29301073D01*
X17281491Y-29551307D01*
X17431968Y-29776511D01*
X17623489Y-29968032D01*
X17848693Y-30118509D01*
X18098927Y-30222159D01*
X18364574Y-30275000D01*
X18635426Y-30275000D01*
X18901073Y-30222159D01*
X19151307Y-30118509D01*
X19376511Y-29968032D01*
X19568032Y-29776511D01*
X19718509Y-29551307D01*
X19822159Y-29301073D01*
X19875000Y-29035426D01*
X19875000Y-28764574D01*
X19822159Y-28498927D01*
X19718509Y-28248693D01*
X19568032Y-28023489D01*
X19376511Y-27831968D01*
X19151307Y-27681491D01*
X18901073Y-27577841D01*
X18635426Y-27525000D01*
X18364574Y-27525000D01*
X18098927Y-27577841D01*
X17848693Y-27681491D01*
X17623489Y-27831968D01*
X17431968Y-28023489D01*
X17281491Y-28248693D01*
X17177841Y-28498927D01*
X17125000Y-28764574D01*
X5376814Y-28764574D01*
X5376814Y-28700000D01*
X5369574Y-28626487D01*
X5348131Y-28555800D01*
X5318305Y-28500000D01*
X5348131Y-28444200D01*
X5369574Y-28373513D01*
X5376814Y-28300000D01*
X5376814Y-27700000D01*
X5369574Y-27626487D01*
X5348131Y-27555800D01*
X5318305Y-27500000D01*
X5348131Y-27444200D01*
X5369574Y-27373513D01*
X5376814Y-27300000D01*
X5376814Y-26700000D01*
X5369574Y-26626487D01*
X5348131Y-26555800D01*
X5318305Y-26500000D01*
X5331668Y-26475000D01*
X5676668Y-26475000D01*
X5700000Y-26477298D01*
X5723332Y-26475000D01*
X5793116Y-26468127D01*
X5882654Y-26440966D01*
X5965173Y-26396859D01*
X6037501Y-26337501D01*
X6052384Y-26319366D01*
X6419371Y-25952380D01*
X6437501Y-25937501D01*
X6496859Y-25865173D01*
X6540966Y-25782654D01*
X6568127Y-25693116D01*
X6568127Y-25693115D01*
X6577298Y-25600001D01*
X6575000Y-25576669D01*
X6575000Y-25533518D01*
X14725000Y-25533518D01*
X14725000Y-25666482D01*
X14750940Y-25796890D01*
X14801823Y-25919732D01*
X14875693Y-26030287D01*
X14969713Y-26124307D01*
X15080268Y-26198177D01*
X15203110Y-26249060D01*
X15333518Y-26275000D01*
X15466482Y-26275000D01*
X15596890Y-26249060D01*
X15719732Y-26198177D01*
X15830287Y-26124307D01*
X15879594Y-26075000D01*
X16370406Y-26075000D01*
X16419713Y-26124307D01*
X16530268Y-26198177D01*
X16653110Y-26249060D01*
X16783518Y-26275000D01*
X16916482Y-26275000D01*
X17046890Y-26249060D01*
X17169732Y-26198177D01*
X17280287Y-26124307D01*
X17374307Y-26030287D01*
X17448177Y-25919732D01*
X17499060Y-25796890D01*
X17525000Y-25666482D01*
X17525000Y-25533518D01*
X17499060Y-25403110D01*
X17448177Y-25280268D01*
X17374307Y-25169713D01*
X17280287Y-25075693D01*
X17169732Y-25001823D01*
X17046890Y-24950940D01*
X16916482Y-24925000D01*
X16783518Y-24925000D01*
X16653110Y-24950940D01*
X16530268Y-25001823D01*
X16419713Y-25075693D01*
X16370406Y-25125000D01*
X15879594Y-25125000D01*
X15830287Y-25075693D01*
X15719732Y-25001823D01*
X15596890Y-24950940D01*
X15466482Y-24925000D01*
X15333518Y-24925000D01*
X15203110Y-24950940D01*
X15080268Y-25001823D01*
X14969713Y-25075693D01*
X14875693Y-25169713D01*
X14801823Y-25280268D01*
X14750940Y-25403110D01*
X14725000Y-25533518D01*
X6575000Y-25533518D01*
X6575000Y-24479594D01*
X6624307Y-24430287D01*
X6698177Y-24319732D01*
X6749060Y-24196890D01*
X6775000Y-24066482D01*
X6775000Y-23933518D01*
X6749060Y-23803110D01*
X6698177Y-23680268D01*
X6624307Y-23569713D01*
X6530287Y-23475693D01*
X6419732Y-23401823D01*
X6296890Y-23350940D01*
X6166482Y-23325000D01*
X6033518Y-23325000D01*
X5903110Y-23350940D01*
X5780268Y-23401823D01*
X5669713Y-23475693D01*
X5575693Y-23569713D01*
X5501823Y-23680268D01*
X5450940Y-23803110D01*
X5425000Y-23933518D01*
X5425000Y-24066482D01*
X5450940Y-24196890D01*
X5501823Y-24319732D01*
X5575693Y-24430287D01*
X5625001Y-24479595D01*
X5625000Y-25403249D01*
X5503250Y-25525000D01*
X5331668Y-25525000D01*
X5318305Y-25500000D01*
X5348131Y-25444200D01*
X5369574Y-25373513D01*
X5376814Y-25300000D01*
X5376814Y-24700000D01*
X5369574Y-24626487D01*
X5348131Y-24555800D01*
X5318305Y-24500000D01*
X5348131Y-24444200D01*
X5369574Y-24373513D01*
X5376814Y-24300000D01*
X5375000Y-24118750D01*
X5281250Y-24025000D01*
X3825000Y-24025000D01*
X3825000Y-24045000D01*
X3775000Y-24045000D01*
X3775000Y-24025000D01*
X2318750Y-24025000D01*
X2225000Y-24118750D01*
X2223186Y-24300000D01*
X2230426Y-24373513D01*
X2251869Y-24444200D01*
X2281695Y-24500000D01*
X2251869Y-24555800D01*
X2230426Y-24626487D01*
X2223186Y-24700000D01*
X2223186Y-25300000D01*
X2230426Y-25373513D01*
X2251869Y-25444200D01*
X2281695Y-25500000D01*
X2256487Y-25547161D01*
X2217346Y-25559034D01*
X2134827Y-25603141D01*
X2062499Y-25662499D01*
X2047620Y-25680629D01*
X1680634Y-26047616D01*
X1662499Y-26062499D01*
X1603141Y-26134827D01*
X1559034Y-26217347D01*
X1544526Y-26265173D01*
X1531873Y-26306884D01*
X1522702Y-26400000D01*
X1525000Y-26423332D01*
X1525001Y-38603248D01*
X1080634Y-39047616D01*
X1062499Y-39062499D01*
X1003141Y-39134827D01*
X959034Y-39217347D01*
X943630Y-39268127D01*
X931873Y-39306884D01*
X922702Y-39400000D01*
X925000Y-39423332D01*
X925001Y-43664660D01*
X922702Y-43688002D01*
X931873Y-43781118D01*
X956098Y-43860975D01*
X959035Y-43870656D01*
X1003142Y-43953175D01*
X1062500Y-44025503D01*
X1080629Y-44040381D01*
X1859623Y-44819377D01*
X1874497Y-44837501D01*
X1920190Y-44875000D01*
X1946825Y-44896859D01*
X2029344Y-44940966D01*
X2118882Y-44968127D01*
X2211998Y-44977298D01*
X2235330Y-44975000D01*
X2720406Y-44975000D01*
X2769713Y-45024307D01*
X2880268Y-45098177D01*
X3003110Y-45149060D01*
X3133518Y-45175000D01*
X3266482Y-45175000D01*
X3396890Y-45149060D01*
X3519732Y-45098177D01*
X3630287Y-45024307D01*
X3724307Y-44930287D01*
X3798177Y-44819732D01*
X3849060Y-44696890D01*
X3875000Y-44566482D01*
X3875000Y-44433518D01*
X3849060Y-44303110D01*
X3798177Y-44180268D01*
X3724307Y-44069713D01*
X3630287Y-43975693D01*
X3519732Y-43901823D01*
X3396890Y-43850940D01*
X3266482Y-43825000D01*
X3133518Y-43825000D01*
X3003110Y-43850940D01*
X2880268Y-43901823D01*
X2769713Y-43975693D01*
X2720406Y-44025000D01*
X2408750Y-44025000D01*
X2357015Y-43973265D01*
X2430287Y-43924307D01*
X2524307Y-43830287D01*
X2598177Y-43719732D01*
X2649060Y-43596890D01*
X2675000Y-43466482D01*
X2675000Y-43333518D01*
X2649060Y-43203110D01*
X2598177Y-43080268D01*
X2525000Y-42970750D01*
X2525000Y-40669123D01*
X2526487Y-40669574D01*
X2600000Y-40676814D01*
X5000000Y-40676814D01*
X5073513Y-40669574D01*
X5144200Y-40648131D01*
X5209347Y-40613309D01*
X5266448Y-40566448D01*
X5313309Y-40509347D01*
X5331668Y-40475000D01*
X6603250Y-40475000D01*
X6725001Y-40596752D01*
X6725000Y-45416670D01*
X6722702Y-45440002D01*
X6731873Y-45533118D01*
X6735235Y-45544200D01*
X6759034Y-45622655D01*
X6803141Y-45705175D01*
X6862499Y-45777503D01*
X6880634Y-45792386D01*
X7207618Y-46119371D01*
X7222497Y-46137501D01*
X7294825Y-46196859D01*
X7377344Y-46240966D01*
X7417935Y-46253279D01*
X7466881Y-46268127D01*
X7559997Y-46277298D01*
X7583330Y-46275000D01*
X8136640Y-46275000D01*
X8125000Y-46333518D01*
X8125000Y-46466482D01*
X8150940Y-46596890D01*
X8201823Y-46719732D01*
X8275693Y-46830287D01*
X8325000Y-46879594D01*
X8325001Y-49976658D01*
X8322702Y-50000000D01*
X8331873Y-50093116D01*
X8356713Y-50175000D01*
X8359035Y-50182654D01*
X8403142Y-50265173D01*
X8423381Y-50289834D01*
X8369713Y-50325693D01*
X8320406Y-50375000D01*
X7846751Y-50375000D01*
X7299265Y-49827515D01*
X7299265Y-49757783D01*
X7273325Y-49627375D01*
X7222442Y-49504533D01*
X7148572Y-49393978D01*
X7054552Y-49299958D01*
X6943997Y-49226088D01*
X6821155Y-49175205D01*
X6690747Y-49149265D01*
X6557783Y-49149265D01*
X6427375Y-49175205D01*
X6304533Y-49226088D01*
X6193978Y-49299958D01*
X6099958Y-49393978D01*
X6026088Y-49504533D01*
X5975205Y-49627375D01*
X5949265Y-49757783D01*
X5949265Y-49890747D01*
X5975205Y-50021155D01*
X6026088Y-50143997D01*
X6099958Y-50254552D01*
X6193978Y-50348572D01*
X6304533Y-50422442D01*
X6427375Y-50473325D01*
X6557783Y-50499265D01*
X6627515Y-50499265D01*
X7297620Y-51169371D01*
X7312499Y-51187501D01*
X7384827Y-51246859D01*
X7467346Y-51290966D01*
X7529722Y-51309888D01*
X7556883Y-51318127D01*
X7649999Y-51327298D01*
X7673331Y-51325000D01*
X8320406Y-51325000D01*
X8369713Y-51374307D01*
X8445581Y-51425000D01*
X8369713Y-51475693D01*
X8275693Y-51569713D01*
X8201823Y-51680268D01*
X8150940Y-51803110D01*
X8125000Y-51933518D01*
X8125000Y-52066482D01*
X8150940Y-52196890D01*
X8201823Y-52319732D01*
X8275693Y-52430287D01*
X8369713Y-52524307D01*
X8480268Y-52598177D01*
X8603110Y-52649060D01*
X8733518Y-52675000D01*
X8866482Y-52675000D01*
X8996890Y-52649060D01*
X9119732Y-52598177D01*
X9175000Y-52561248D01*
X9175001Y-54820405D01*
X9125693Y-54869713D01*
X9051823Y-54980268D01*
X9000940Y-55103110D01*
X8975000Y-55233518D01*
X8975000Y-55366482D01*
X9000940Y-55496890D01*
X9051823Y-55619732D01*
X9125693Y-55730287D01*
X9219713Y-55824307D01*
X9330268Y-55898177D01*
X9453110Y-55949060D01*
X9583518Y-55975000D01*
X9716482Y-55975000D01*
X9846890Y-55949060D01*
X9925001Y-55916705D01*
X9925001Y-56020405D01*
X9875693Y-56069713D01*
X9801823Y-56180268D01*
X9750940Y-56303110D01*
X9725000Y-56433518D01*
X9725000Y-56453249D01*
X8425000Y-55153250D01*
X8425000Y-53629594D01*
X8474307Y-53580287D01*
X8548177Y-53469732D01*
X8599060Y-53346890D01*
X8625000Y-53216482D01*
X8625000Y-53083518D01*
X8599060Y-52953110D01*
X8548177Y-52830268D01*
X8474307Y-52719713D01*
X8380287Y-52625693D01*
X8269732Y-52551823D01*
X8146890Y-52500940D01*
X8016482Y-52475000D01*
X7883518Y-52475000D01*
X7753110Y-52500940D01*
X7630268Y-52551823D01*
X7519713Y-52625693D01*
X7425693Y-52719713D01*
X7351823Y-52830268D01*
X7300940Y-52953110D01*
X7275000Y-53083518D01*
X7275000Y-53216482D01*
X7300940Y-53346890D01*
X7351823Y-53469732D01*
X7425693Y-53580287D01*
X7475000Y-53629594D01*
X7475001Y-55326658D01*
X7472702Y-55350000D01*
X7481873Y-55443116D01*
X7506713Y-55525000D01*
X7509035Y-55532654D01*
X7553142Y-55615173D01*
X7612500Y-55687501D01*
X7630629Y-55702379D01*
X8553174Y-56624924D01*
X8503563Y-56658073D01*
X8409543Y-56752093D01*
X8335673Y-56862648D01*
X8284790Y-56985490D01*
X8258850Y-57115898D01*
X8258850Y-57248862D01*
X8284790Y-57379270D01*
X8335673Y-57502112D01*
X8409543Y-57612667D01*
X8503563Y-57706687D01*
X8614118Y-57780557D01*
X8622864Y-57784180D01*
X8580270Y-57801823D01*
X8469715Y-57875693D01*
X8375695Y-57969713D01*
X8301825Y-58080268D01*
X8250942Y-58203110D01*
X8225002Y-58333518D01*
X8225002Y-58466482D01*
X8250942Y-58596890D01*
X8301825Y-58719732D01*
X8375695Y-58830287D01*
X8469715Y-58924307D01*
X8580270Y-58998177D01*
X8703112Y-59049060D01*
X8833520Y-59075000D01*
X8903250Y-59075000D01*
X8947646Y-59119396D01*
X8962521Y-59137521D01*
X9034849Y-59196879D01*
X9117368Y-59240986D01*
X9206906Y-59268147D01*
X9300022Y-59277318D01*
X9323354Y-59275020D01*
X20037571Y-59275020D01*
X22323186Y-61560636D01*
X22323186Y-62600000D01*
X22333309Y-62702776D01*
X22363287Y-62801603D01*
X22411970Y-62892682D01*
X22477486Y-62972514D01*
X22557318Y-63038030D01*
X22648397Y-63086713D01*
X22747224Y-63116691D01*
X22850000Y-63126814D01*
X28550001Y-63126814D01*
X28550001Y-63550000D01*
X6222006Y-63550000D01*
X6132439Y-63541218D01*
X6067448Y-63521596D01*
X6007507Y-63489725D01*
X5954899Y-63446819D01*
X5911626Y-63394511D01*
X5876536Y-63329614D01*
X4247837Y-53749303D01*
X4247511Y-53745980D01*
X4227110Y-53551883D01*
X4218903Y-53511904D01*
X4211266Y-53471869D01*
X4209450Y-53465854D01*
X4151738Y-53279416D01*
X4135940Y-53241835D01*
X4120655Y-53204001D01*
X4117705Y-53198454D01*
X4024880Y-53026777D01*
X4002052Y-52992932D01*
X3979739Y-52958834D01*
X3975768Y-52953965D01*
X3851364Y-52803588D01*
X3822421Y-52774846D01*
X3793888Y-52745709D01*
X3789047Y-52741704D01*
X3637805Y-52618354D01*
X3603826Y-52595778D01*
X3570181Y-52572741D01*
X3564659Y-52569756D01*
X3564655Y-52569753D01*
X3564651Y-52569751D01*
X3392332Y-52478127D01*
X3354603Y-52462576D01*
X3317136Y-52446518D01*
X3311134Y-52444660D01*
X3124298Y-52388251D01*
X3084240Y-52380319D01*
X3044395Y-52371850D01*
X3038148Y-52371193D01*
X3038146Y-52371193D01*
X2844344Y-52352190D01*
X2822105Y-52350000D01*
X2050000Y-52350000D01*
X2050000Y-49822104D01*
X2052177Y-49800000D01*
X2043489Y-49711785D01*
X2017757Y-49626959D01*
X1975971Y-49548784D01*
X1919737Y-49480263D01*
X1851216Y-49424029D01*
X1773041Y-49382243D01*
X1688215Y-49356511D01*
X1622105Y-49350000D01*
X1622104Y-49350000D01*
X1600000Y-49347823D01*
X1577895Y-49350000D01*
X1337355Y-49350000D01*
X1368069Y-49291556D01*
X1411151Y-49145866D01*
X1330848Y-49025000D01*
X675000Y-49025000D01*
X675000Y-49045000D01*
X625000Y-49045000D01*
X625000Y-49025000D01*
X605000Y-49025000D01*
X605000Y-48975000D01*
X625000Y-48975000D01*
X625000Y-48319209D01*
X675000Y-48319209D01*
X675000Y-48975000D01*
X1330848Y-48975000D01*
X1411151Y-48854134D01*
X1368069Y-48708444D01*
X1297392Y-48573958D01*
X1201836Y-48455844D01*
X1085073Y-48358642D01*
X951590Y-48286087D01*
X806518Y-48240967D01*
X795866Y-48238850D01*
X675000Y-48319209D01*
X625000Y-48319209D01*
X504134Y-48238850D01*
X493482Y-48240967D01*
X450000Y-48254491D01*
X450000Y-45745509D01*
X493482Y-45759033D01*
X504134Y-45761150D01*
X625000Y-45680791D01*
X625000Y-45025000D01*
X675000Y-45025000D01*
X675000Y-45680791D01*
X795866Y-45761150D01*
X806518Y-45759033D01*
X951590Y-45713913D01*
X1085073Y-45641358D01*
X1201836Y-45544156D01*
X1297392Y-45426042D01*
X1368069Y-45291556D01*
X1411151Y-45145866D01*
X1330848Y-45025000D01*
X675000Y-45025000D01*
X625000Y-45025000D01*
X605000Y-45025000D01*
X605000Y-44975000D01*
X625000Y-44975000D01*
X625000Y-44319209D01*
X675000Y-44319209D01*
X675000Y-44975000D01*
X1330848Y-44975000D01*
X1411151Y-44854134D01*
X1368069Y-44708444D01*
X1297392Y-44573958D01*
X1201836Y-44455844D01*
X1085073Y-44358642D01*
X951590Y-44286087D01*
X806518Y-44240967D01*
X795866Y-44238850D01*
X675000Y-44319209D01*
X625000Y-44319209D01*
X504134Y-44238850D01*
X493482Y-44240967D01*
X450000Y-44254491D01*
X450000Y-23700000D01*
X2223186Y-23700000D01*
X2225000Y-23881250D01*
X2318750Y-23975000D01*
X3775000Y-23975000D01*
X3775000Y-23418750D01*
X3825000Y-23418750D01*
X3825000Y-23975000D01*
X5281250Y-23975000D01*
X5375000Y-23881250D01*
X5376814Y-23700000D01*
X5369574Y-23626487D01*
X5348131Y-23555800D01*
X5313309Y-23490653D01*
X5266448Y-23433552D01*
X5209347Y-23386691D01*
X5144200Y-23351869D01*
X5073513Y-23330426D01*
X5000000Y-23323186D01*
X3918750Y-23325000D01*
X3825000Y-23418750D01*
X3775000Y-23418750D01*
X3681250Y-23325000D01*
X2600000Y-23323186D01*
X2526487Y-23330426D01*
X2455800Y-23351869D01*
X2390653Y-23386691D01*
X2333552Y-23433552D01*
X2286691Y-23490653D01*
X2251869Y-23555800D01*
X2230426Y-23626487D01*
X2223186Y-23700000D01*
X450000Y-23700000D01*
X450000Y-21208518D01*
X3675000Y-21208518D01*
X3675000Y-21341482D01*
X3700940Y-21471890D01*
X3751823Y-21594732D01*
X3825693Y-21705287D01*
X3919713Y-21799307D01*
X4030268Y-21873177D01*
X4153110Y-21924060D01*
X4283518Y-21950000D01*
X4416482Y-21950000D01*
X4546890Y-21924060D01*
X4669732Y-21873177D01*
X4780287Y-21799307D01*
X4874307Y-21705287D01*
X4948177Y-21594732D01*
X4999060Y-21471890D01*
X5025000Y-21341482D01*
X5025000Y-21208518D01*
X4999060Y-21078110D01*
X4966706Y-21000000D01*
X7323186Y-21000000D01*
X7330426Y-21073513D01*
X7351869Y-21144200D01*
X7386691Y-21209347D01*
X7433552Y-21266448D01*
X7490653Y-21313309D01*
X7555800Y-21348131D01*
X7626487Y-21369574D01*
X7700000Y-21376814D01*
X7881250Y-21375000D01*
X7975000Y-21281250D01*
X7975000Y-19825000D01*
X7418750Y-19825000D01*
X7325000Y-19918750D01*
X7323186Y-21000000D01*
X4966706Y-21000000D01*
X4948177Y-20955268D01*
X4874307Y-20844713D01*
X4780287Y-20750693D01*
X4669732Y-20676823D01*
X4546890Y-20625940D01*
X4416482Y-20600000D01*
X4283518Y-20600000D01*
X4153110Y-20625940D01*
X4030268Y-20676823D01*
X3919713Y-20750693D01*
X3825693Y-20844713D01*
X3751823Y-20955268D01*
X3700940Y-21078110D01*
X3675000Y-21208518D01*
X450000Y-21208518D01*
X450000Y-18600000D01*
X7323186Y-18600000D01*
X7325000Y-19681250D01*
X7418750Y-19775000D01*
X7975000Y-19775000D01*
X7975000Y-18318750D01*
X8025000Y-18318750D01*
X8025000Y-19775000D01*
X8045000Y-19775000D01*
X8045000Y-19825000D01*
X8025000Y-19825000D01*
X8025000Y-21281250D01*
X8118750Y-21375000D01*
X8300000Y-21376814D01*
X8373513Y-21369574D01*
X8444200Y-21348131D01*
X8500000Y-21318305D01*
X8555800Y-21348131D01*
X8626487Y-21369574D01*
X8700000Y-21376814D01*
X9300000Y-21376814D01*
X9373513Y-21369574D01*
X9444200Y-21348131D01*
X9500000Y-21318305D01*
X9555800Y-21348131D01*
X9626487Y-21369574D01*
X9700000Y-21376814D01*
X10300000Y-21376814D01*
X10373513Y-21369574D01*
X10444200Y-21348131D01*
X10500000Y-21318305D01*
X10555800Y-21348131D01*
X10626487Y-21369574D01*
X10700000Y-21376814D01*
X11300000Y-21376814D01*
X11373513Y-21369574D01*
X11444200Y-21348131D01*
X11500000Y-21318305D01*
X11555800Y-21348131D01*
X11626487Y-21369574D01*
X11700000Y-21376814D01*
X12300000Y-21376814D01*
X12373513Y-21369574D01*
X12444200Y-21348131D01*
X12500000Y-21318305D01*
X12555800Y-21348131D01*
X12626487Y-21369574D01*
X12700000Y-21376814D01*
X13300000Y-21376814D01*
X13373513Y-21369574D01*
X13444200Y-21348131D01*
X13500000Y-21318305D01*
X13555800Y-21348131D01*
X13626487Y-21369574D01*
X13700000Y-21376814D01*
X14300000Y-21376814D01*
X14373513Y-21369574D01*
X14444200Y-21348131D01*
X14500000Y-21318305D01*
X14555800Y-21348131D01*
X14626487Y-21369574D01*
X14700000Y-21376814D01*
X15140645Y-21376814D01*
X15080268Y-21401823D01*
X14969713Y-21475693D01*
X14875693Y-21569713D01*
X14801823Y-21680268D01*
X14750940Y-21803110D01*
X14725000Y-21933518D01*
X14725000Y-22066482D01*
X14750940Y-22196890D01*
X14801823Y-22319732D01*
X14875693Y-22430287D01*
X14969713Y-22524307D01*
X15080268Y-22598177D01*
X15203110Y-22649060D01*
X15333518Y-22675000D01*
X15466482Y-22675000D01*
X15596890Y-22649060D01*
X15719732Y-22598177D01*
X15830287Y-22524307D01*
X15879594Y-22475000D01*
X16120406Y-22475000D01*
X16169713Y-22524307D01*
X16280268Y-22598177D01*
X16403110Y-22649060D01*
X16533518Y-22675000D01*
X16666482Y-22675000D01*
X16796890Y-22649060D01*
X16919732Y-22598177D01*
X17030287Y-22524307D01*
X17079594Y-22475000D01*
X17970406Y-22475000D01*
X18019713Y-22524307D01*
X18130268Y-22598177D01*
X18253110Y-22649060D01*
X18383518Y-22675000D01*
X18516482Y-22675000D01*
X18646890Y-22649060D01*
X18769732Y-22598177D01*
X18880287Y-22524307D01*
X18974307Y-22430287D01*
X19048177Y-22319732D01*
X19099060Y-22196890D01*
X19125000Y-22066482D01*
X19125000Y-21933518D01*
X19099060Y-21803110D01*
X19048177Y-21680268D01*
X18974307Y-21569713D01*
X18880287Y-21475693D01*
X18769732Y-21401823D01*
X18709134Y-21376723D01*
X18881250Y-21375000D01*
X18975000Y-21281250D01*
X18975000Y-19825000D01*
X18955000Y-19825000D01*
X18955000Y-19775000D01*
X18975000Y-19775000D01*
X18975000Y-18318750D01*
X18881250Y-18225000D01*
X18700000Y-18223186D01*
X18626487Y-18230426D01*
X18555800Y-18251869D01*
X18500000Y-18281695D01*
X18444200Y-18251869D01*
X18373513Y-18230426D01*
X18300000Y-18223186D01*
X17700000Y-18223186D01*
X17626487Y-18230426D01*
X17555800Y-18251869D01*
X17500000Y-18281695D01*
X17444200Y-18251869D01*
X17373513Y-18230426D01*
X17300000Y-18223186D01*
X16700000Y-18223186D01*
X16626487Y-18230426D01*
X16555800Y-18251869D01*
X16500000Y-18281695D01*
X16444200Y-18251869D01*
X16373513Y-18230426D01*
X16300000Y-18223186D01*
X15700000Y-18223186D01*
X15626487Y-18230426D01*
X15555800Y-18251869D01*
X15500000Y-18281695D01*
X15444200Y-18251869D01*
X15373513Y-18230426D01*
X15300000Y-18223186D01*
X14700000Y-18223186D01*
X14662995Y-18226830D01*
X14675000Y-18166480D01*
X14675000Y-18033516D01*
X14649060Y-17903108D01*
X14598177Y-17780266D01*
X14524307Y-17669711D01*
X14430287Y-17575691D01*
X14319732Y-17501821D01*
X14196890Y-17450938D01*
X14066482Y-17424998D01*
X13933518Y-17424998D01*
X13803110Y-17450938D01*
X13680268Y-17501821D01*
X13569713Y-17575691D01*
X13520406Y-17624998D01*
X12479594Y-17624998D01*
X12430287Y-17575691D01*
X12319732Y-17501821D01*
X12196890Y-17450938D01*
X12066482Y-17424998D01*
X11933518Y-17424998D01*
X11803110Y-17450938D01*
X11680268Y-17501821D01*
X11569713Y-17575691D01*
X11475693Y-17669711D01*
X11401823Y-17780266D01*
X11350940Y-17903108D01*
X11325000Y-18033516D01*
X11325000Y-18166480D01*
X11337005Y-18226830D01*
X11300000Y-18223186D01*
X10700000Y-18223186D01*
X10626487Y-18230426D01*
X10555800Y-18251869D01*
X10500000Y-18281695D01*
X10444200Y-18251869D01*
X10373513Y-18230426D01*
X10300000Y-18223186D01*
X9700000Y-18223186D01*
X9626487Y-18230426D01*
X9555800Y-18251869D01*
X9500000Y-18281695D01*
X9444200Y-18251869D01*
X9373513Y-18230426D01*
X9300000Y-18223186D01*
X8700000Y-18223186D01*
X8626487Y-18230426D01*
X8555800Y-18251869D01*
X8500000Y-18281695D01*
X8444200Y-18251869D01*
X8373513Y-18230426D01*
X8300000Y-18223186D01*
X8118750Y-18225000D01*
X8025000Y-18318750D01*
X7975000Y-18318750D01*
X7881250Y-18225000D01*
X7700000Y-18223186D01*
X7626487Y-18230426D01*
X7555800Y-18251869D01*
X7490653Y-18286691D01*
X7433552Y-18333552D01*
X7386691Y-18390653D01*
X7351869Y-18455800D01*
X7330426Y-18526487D01*
X7323186Y-18600000D01*
X450000Y-18600000D01*
X450000Y-17058518D01*
X3675000Y-17058518D01*
X3675000Y-17191482D01*
X3700940Y-17321890D01*
X3751823Y-17444732D01*
X3825693Y-17555287D01*
X3919713Y-17649307D01*
X4030268Y-17723177D01*
X4153110Y-17774060D01*
X4283518Y-17800000D01*
X4416482Y-17800000D01*
X4546890Y-17774060D01*
X4669732Y-17723177D01*
X4780287Y-17649307D01*
X4874307Y-17555287D01*
X4948177Y-17444732D01*
X4999060Y-17321890D01*
X5025000Y-17191482D01*
X5025000Y-17058518D01*
X4999060Y-16928110D01*
X4948177Y-16805268D01*
X4874307Y-16694713D01*
X4780287Y-16600693D01*
X4669732Y-16526823D01*
X4546890Y-16475940D01*
X4416482Y-16450000D01*
X4283518Y-16450000D01*
X4153110Y-16475940D01*
X4030268Y-16526823D01*
X3919713Y-16600693D01*
X3825693Y-16694713D01*
X3751823Y-16805268D01*
X3700940Y-16928110D01*
X3675000Y-17058518D01*
X450000Y-17058518D01*
X450000Y-14650000D01*
X1577895Y-14650000D01*
X1600000Y-14652177D01*
X1622104Y-14650000D01*
X1622105Y-14650000D01*
X1688215Y-14643489D01*
X1773041Y-14617757D01*
X1851216Y-14575971D01*
X1919737Y-14519737D01*
X1975971Y-14451216D01*
X2017757Y-14373041D01*
X2043489Y-14288215D01*
X2052177Y-14200000D01*
X2050000Y-14177895D01*
X2050000Y-11650000D01*
X2822105Y-11650000D01*
X2841591Y-11648081D01*
X2847767Y-11648124D01*
X2854020Y-11647511D01*
X3048117Y-11627110D01*
X3088096Y-11618903D01*
X3128131Y-11611266D01*
X3134144Y-11609451D01*
X3134150Y-11609449D01*
X3320584Y-11551738D01*
X3358179Y-11535935D01*
X3395998Y-11520655D01*
X3401546Y-11517705D01*
X3573223Y-11424880D01*
X3607062Y-11402056D01*
X3641165Y-11379739D01*
X3646025Y-11375776D01*
X3646033Y-11375770D01*
X3646040Y-11375763D01*
X3796412Y-11251365D01*
X3825157Y-11222418D01*
X3854291Y-11193888D01*
X3858296Y-11189047D01*
X3981646Y-11037805D01*
X4004222Y-11003826D01*
X4027259Y-10970181D01*
X4030248Y-10964654D01*
X4121873Y-10792331D01*
X4137418Y-10754617D01*
X4153482Y-10717136D01*
X4155340Y-10711134D01*
X4211749Y-10524298D01*
X4219678Y-10484253D01*
X4228150Y-10444395D01*
X4228807Y-10438147D01*
X4246301Y-10259730D01*
X4502962Y-8750000D01*
X22323186Y-8750000D01*
X22330426Y-8823513D01*
X22351869Y-8894200D01*
X22386691Y-8959347D01*
X22420054Y-9000000D01*
X22386691Y-9040653D01*
X22351869Y-9105800D01*
X22330426Y-9176487D01*
X22323186Y-9250000D01*
X22325000Y-9881250D01*
X22418750Y-9975000D01*
X25675000Y-9975000D01*
X25675000Y-8025000D01*
X22418750Y-8025000D01*
X22325000Y-8118750D01*
X22323186Y-8750000D01*
X4502962Y-8750000D01*
X4842971Y-6750000D01*
X22323186Y-6750000D01*
X22330426Y-6823513D01*
X22351869Y-6894200D01*
X22386691Y-6959347D01*
X22420054Y-7000000D01*
X22386691Y-7040653D01*
X22351869Y-7105800D01*
X22330426Y-7176487D01*
X22323186Y-7250000D01*
X22325000Y-7881250D01*
X22418750Y-7975000D01*
X25675000Y-7975000D01*
X25675000Y-6025000D01*
X22418750Y-6025000D01*
X22325000Y-6118750D01*
X22323186Y-6750000D01*
X4842971Y-6750000D01*
X5875168Y-678432D01*
X5897659Y-627999D01*
X5936824Y-572553D01*
X5986014Y-525766D01*
X6043353Y-489426D01*
X6106663Y-464915D01*
X6186835Y-450828D01*
X6208577Y-450000D01*
X28550001Y-450000D01*
X28550001Y-873186D01*
G04 #@! TA.AperFunction,Conductor*
D19*
G36*
X28550001Y-873186D02*
G01*
X22850000Y-873186D01*
X22747224Y-883309D01*
X22648397Y-913287D01*
X22557318Y-961970D01*
X22477486Y-1027486D01*
X22411970Y-1107318D01*
X22363287Y-1198397D01*
X22333309Y-1297224D01*
X22323186Y-1400000D01*
X22323186Y-2600000D01*
X22333309Y-2702776D01*
X22363287Y-2801603D01*
X22411970Y-2892682D01*
X22477486Y-2972514D01*
X22510978Y-3000000D01*
X22477486Y-3027486D01*
X22411970Y-3107318D01*
X22363287Y-3198397D01*
X22333309Y-3297224D01*
X22323186Y-3400000D01*
X22323186Y-4600000D01*
X22333309Y-4702776D01*
X22363287Y-4801603D01*
X22411970Y-4892682D01*
X22465218Y-4957565D01*
X22433552Y-4983552D01*
X22386691Y-5040653D01*
X22351869Y-5105800D01*
X22330426Y-5176487D01*
X22323186Y-5250000D01*
X22325000Y-5881250D01*
X22418750Y-5975000D01*
X25675000Y-5975000D01*
X25675000Y-5955000D01*
X25725000Y-5955000D01*
X25725000Y-5975000D01*
X25745000Y-5975000D01*
X25745000Y-6025000D01*
X25725000Y-6025000D01*
X25725000Y-7975000D01*
X25745000Y-7975000D01*
X25745000Y-8025000D01*
X25725000Y-8025000D01*
X25725000Y-9975000D01*
X25745000Y-9975000D01*
X25745000Y-10025000D01*
X25725000Y-10025000D01*
X25725000Y-10045000D01*
X25675000Y-10045000D01*
X25675000Y-10025000D01*
X22418750Y-10025000D01*
X22325000Y-10118750D01*
X22323522Y-10633213D01*
X22256494Y-10653545D01*
X22191661Y-10688199D01*
X22134835Y-10734835D01*
X22088199Y-10791661D01*
X22053545Y-10856494D01*
X22032206Y-10926841D01*
X22025000Y-11000000D01*
X22025000Y-17000000D01*
X22032206Y-17073159D01*
X22053545Y-17143506D01*
X22088199Y-17208339D01*
X22134835Y-17265165D01*
X22191661Y-17311801D01*
X22256494Y-17346455D01*
X22326841Y-17367794D01*
X22400000Y-17375000D01*
X24225000Y-17375000D01*
X24225000Y-18223186D01*
X23700000Y-18223186D01*
X23626487Y-18230426D01*
X23555800Y-18251869D01*
X23500000Y-18281695D01*
X23444200Y-18251869D01*
X23373513Y-18230426D01*
X23300000Y-18223186D01*
X22700000Y-18223186D01*
X22626487Y-18230426D01*
X22555800Y-18251869D01*
X22500000Y-18281695D01*
X22444200Y-18251869D01*
X22373513Y-18230426D01*
X22300000Y-18223186D01*
X21700000Y-18223186D01*
X21626487Y-18230426D01*
X21555800Y-18251869D01*
X21500000Y-18281695D01*
X21444200Y-18251869D01*
X21373513Y-18230426D01*
X21300000Y-18223186D01*
X20700000Y-18223186D01*
X20626487Y-18230426D01*
X20555800Y-18251869D01*
X20500000Y-18281695D01*
X20444200Y-18251869D01*
X20373513Y-18230426D01*
X20300000Y-18223186D01*
X19700000Y-18223186D01*
X19626487Y-18230426D01*
X19555800Y-18251869D01*
X19500000Y-18281695D01*
X19444200Y-18251869D01*
X19373513Y-18230426D01*
X19300000Y-18223186D01*
X19118750Y-18225000D01*
X19025000Y-18318750D01*
X19025000Y-19775000D01*
X19045000Y-19775000D01*
X19045000Y-19825000D01*
X19025000Y-19825000D01*
X19025000Y-21281250D01*
X19118750Y-21375000D01*
X19300000Y-21376814D01*
X19373513Y-21369574D01*
X19444200Y-21348131D01*
X19500000Y-21318305D01*
X19525001Y-21331668D01*
X19525001Y-21576678D01*
X19522702Y-21600020D01*
X19531873Y-21693136D01*
X19551867Y-21759044D01*
X19559035Y-21782674D01*
X19603142Y-21865193D01*
X19662500Y-21937521D01*
X19680629Y-21952399D01*
X20124990Y-22396761D01*
X20124991Y-30326696D01*
X20003110Y-30350940D01*
X19880268Y-30401823D01*
X19769713Y-30475693D01*
X19675693Y-30569713D01*
X19601823Y-30680268D01*
X19550940Y-30803110D01*
X19525000Y-30933518D01*
X19525000Y-31066482D01*
X19550940Y-31196890D01*
X19601823Y-31319732D01*
X19675693Y-31430287D01*
X19769713Y-31524307D01*
X19880268Y-31598177D01*
X20003110Y-31649060D01*
X20124991Y-31673304D01*
X20124991Y-31715257D01*
X20080633Y-31759615D01*
X20062498Y-31774498D01*
X20003140Y-31846826D01*
X19959033Y-31929346D01*
X19948165Y-31965173D01*
X19931872Y-32018883D01*
X19922701Y-32111999D01*
X19924999Y-32135332D01*
X19925000Y-32410970D01*
X19924999Y-37320407D01*
X19875693Y-37369713D01*
X19801823Y-37480268D01*
X19750940Y-37603110D01*
X19725000Y-37733518D01*
X19725000Y-37866482D01*
X19750940Y-37996890D01*
X19801823Y-38119732D01*
X19875693Y-38230287D01*
X19969713Y-38324307D01*
X20075008Y-38394662D01*
X18334835Y-40134835D01*
X18288199Y-40191661D01*
X18253545Y-40256494D01*
X18232206Y-40326841D01*
X18225000Y-40400000D01*
X18225000Y-40725000D01*
X15996751Y-40725000D01*
X15275000Y-40003250D01*
X15275000Y-39933518D01*
X15249060Y-39803110D01*
X15198177Y-39680268D01*
X15124307Y-39569713D01*
X15030287Y-39475693D01*
X14919732Y-39401823D01*
X14796890Y-39350940D01*
X14666482Y-39325000D01*
X14533518Y-39325000D01*
X14403110Y-39350940D01*
X14280268Y-39401823D01*
X14169713Y-39475693D01*
X14075693Y-39569713D01*
X14001823Y-39680268D01*
X13950940Y-39803110D01*
X13925000Y-39933518D01*
X13925000Y-40066482D01*
X13950940Y-40196890D01*
X14001823Y-40319732D01*
X14075693Y-40430287D01*
X14169713Y-40524307D01*
X14280268Y-40598177D01*
X14403110Y-40649060D01*
X14533518Y-40675000D01*
X14603250Y-40675000D01*
X15447620Y-41519371D01*
X15462499Y-41537501D01*
X15534827Y-41596859D01*
X15617346Y-41640966D01*
X15679722Y-41659888D01*
X15706883Y-41668127D01*
X15799999Y-41677298D01*
X15823331Y-41675000D01*
X18225000Y-41675000D01*
X18225000Y-42623937D01*
X18118750Y-42625000D01*
X18025000Y-42718750D01*
X18025000Y-44175000D01*
X18045000Y-44175000D01*
X18045000Y-44225000D01*
X18025000Y-44225000D01*
X18025000Y-45681250D01*
X18118750Y-45775000D01*
X18225000Y-45776063D01*
X18225000Y-46025000D01*
X16875000Y-46025000D01*
X16875000Y-45775063D01*
X16881250Y-45775000D01*
X16975000Y-45681250D01*
X16975000Y-44225000D01*
X17025000Y-44225000D01*
X17025000Y-45681250D01*
X17118750Y-45775000D01*
X17300000Y-45776814D01*
X17373513Y-45769574D01*
X17444200Y-45748131D01*
X17500000Y-45718305D01*
X17555800Y-45748131D01*
X17626487Y-45769574D01*
X17700000Y-45776814D01*
X17881250Y-45775000D01*
X17975000Y-45681250D01*
X17975000Y-44225000D01*
X17025000Y-44225000D01*
X16975000Y-44225000D01*
X16955000Y-44225000D01*
X16955000Y-44175000D01*
X16975000Y-44175000D01*
X16975000Y-42718750D01*
X17025000Y-42718750D01*
X17025000Y-44175000D01*
X17975000Y-44175000D01*
X17975000Y-42718750D01*
X17881250Y-42625000D01*
X17700000Y-42623186D01*
X17626487Y-42630426D01*
X17555800Y-42651869D01*
X17500000Y-42681695D01*
X17444200Y-42651869D01*
X17373513Y-42630426D01*
X17300000Y-42623186D01*
X17118750Y-42625000D01*
X17025000Y-42718750D01*
X16975000Y-42718750D01*
X16881250Y-42625000D01*
X16700000Y-42623186D01*
X16626487Y-42630426D01*
X16555800Y-42651869D01*
X16500000Y-42681695D01*
X16444200Y-42651869D01*
X16373513Y-42630426D01*
X16300000Y-42623186D01*
X15700000Y-42623186D01*
X15626487Y-42630426D01*
X15555800Y-42651869D01*
X15500000Y-42681695D01*
X15444200Y-42651869D01*
X15373513Y-42630426D01*
X15300000Y-42623186D01*
X15118750Y-42625000D01*
X15025000Y-42718750D01*
X15025000Y-44175000D01*
X15045000Y-44175000D01*
X15045000Y-44225000D01*
X15025000Y-44225000D01*
X15025000Y-44245000D01*
X14975000Y-44245000D01*
X14975000Y-44225000D01*
X14025000Y-44225000D01*
X14025000Y-44245000D01*
X13975000Y-44245000D01*
X13975000Y-44225000D01*
X13025000Y-44225000D01*
X13025000Y-44245000D01*
X12975000Y-44245000D01*
X12975000Y-44225000D01*
X12025000Y-44225000D01*
X12025000Y-45681250D01*
X12118750Y-45775000D01*
X12300000Y-45776814D01*
X12373513Y-45769574D01*
X12444200Y-45748131D01*
X12500000Y-45718305D01*
X12555800Y-45748131D01*
X12626487Y-45769574D01*
X12700000Y-45776814D01*
X12762090Y-45776193D01*
X12750940Y-45803110D01*
X12726413Y-45926413D01*
X12603110Y-45950940D01*
X12480268Y-46001823D01*
X12369713Y-46075693D01*
X12275693Y-46169713D01*
X12201823Y-46280268D01*
X12150940Y-46403110D01*
X12125000Y-46533518D01*
X12125000Y-46666482D01*
X12150940Y-46796890D01*
X12201823Y-46919732D01*
X12275693Y-47030287D01*
X12343910Y-47098504D01*
X12359035Y-47148363D01*
X12403142Y-47230882D01*
X12462500Y-47303210D01*
X12480629Y-47318088D01*
X12724990Y-47562450D01*
X12724991Y-49603258D01*
X12603250Y-49725000D01*
X11079594Y-49725000D01*
X11030287Y-49675693D01*
X10919732Y-49601823D01*
X10796890Y-49550940D01*
X10666482Y-49525000D01*
X10533518Y-49525000D01*
X10403110Y-49550940D01*
X10280268Y-49601823D01*
X10169713Y-49675693D01*
X10075693Y-49769713D01*
X10001823Y-49880268D01*
X9950940Y-50003110D01*
X9925000Y-50133518D01*
X9925000Y-50266482D01*
X9950940Y-50396890D01*
X10001823Y-50519732D01*
X10038565Y-50574721D01*
X10020225Y-50552373D01*
X9987501Y-50512499D01*
X9969377Y-50497625D01*
X9275000Y-49803250D01*
X9275000Y-48288358D01*
X9333518Y-48299998D01*
X9466482Y-48299998D01*
X9596890Y-48274058D01*
X9719732Y-48223175D01*
X9830287Y-48149305D01*
X9924307Y-48055285D01*
X9998177Y-47944730D01*
X10049060Y-47821888D01*
X10075000Y-47691480D01*
X10075000Y-47558516D01*
X10049060Y-47428108D01*
X9998177Y-47305266D01*
X9927018Y-47198769D01*
X10125000Y-47396751D01*
X10125001Y-47820405D01*
X10075693Y-47869713D01*
X10001823Y-47980268D01*
X9950940Y-48103110D01*
X9925000Y-48233518D01*
X9925000Y-48366482D01*
X9950940Y-48496890D01*
X10001823Y-48619732D01*
X10075693Y-48730287D01*
X10169713Y-48824307D01*
X10280268Y-48898177D01*
X10403110Y-48949060D01*
X10533518Y-48975000D01*
X10666482Y-48975000D01*
X10796890Y-48949060D01*
X10919732Y-48898177D01*
X11030287Y-48824307D01*
X11124307Y-48730287D01*
X11198177Y-48619732D01*
X11249060Y-48496890D01*
X11275000Y-48366482D01*
X11275000Y-48233518D01*
X11249060Y-48103110D01*
X11198177Y-47980268D01*
X11124307Y-47869713D01*
X11075000Y-47820406D01*
X11075000Y-47223331D01*
X11077298Y-47199999D01*
X11068127Y-47106883D01*
X11055472Y-47065165D01*
X11040966Y-47017346D01*
X10996859Y-46934827D01*
X10937501Y-46862499D01*
X10919371Y-46847620D01*
X10475000Y-46403250D01*
X10475000Y-45731668D01*
X10500000Y-45718305D01*
X10555800Y-45748131D01*
X10626487Y-45769574D01*
X10700000Y-45776814D01*
X10881250Y-45775000D01*
X10975000Y-45681250D01*
X10975000Y-44225000D01*
X11025000Y-44225000D01*
X11025000Y-45681250D01*
X11118750Y-45775000D01*
X11300000Y-45776814D01*
X11373513Y-45769574D01*
X11444200Y-45748131D01*
X11500000Y-45718305D01*
X11555800Y-45748131D01*
X11626487Y-45769574D01*
X11700000Y-45776814D01*
X11881250Y-45775000D01*
X11975000Y-45681250D01*
X11975000Y-44225000D01*
X11025000Y-44225000D01*
X10975000Y-44225000D01*
X10955000Y-44225000D01*
X10955000Y-44175000D01*
X10975000Y-44175000D01*
X10975000Y-42718750D01*
X10881250Y-42625000D01*
X10700000Y-42623186D01*
X10626487Y-42630426D01*
X10555800Y-42651869D01*
X10500000Y-42681695D01*
X10444200Y-42651869D01*
X10373513Y-42630426D01*
X10300000Y-42623186D01*
X9700000Y-42623186D01*
X9626487Y-42630426D01*
X9555800Y-42651869D01*
X9500000Y-42681695D01*
X9444200Y-42651869D01*
X9373513Y-42630426D01*
X9300000Y-42623186D01*
X8700000Y-42623186D01*
X8626487Y-42630426D01*
X8555800Y-42651869D01*
X8500000Y-42681695D01*
X8444200Y-42651869D01*
X8373513Y-42630426D01*
X8300000Y-42623186D01*
X7700000Y-42623186D01*
X7675000Y-42625648D01*
X7675000Y-40423331D01*
X7677298Y-40399999D01*
X7668127Y-40306883D01*
X7652841Y-40256494D01*
X7640966Y-40217346D01*
X7596859Y-40134827D01*
X7537501Y-40062499D01*
X7519371Y-40047620D01*
X7152384Y-39680634D01*
X7137501Y-39662499D01*
X7065173Y-39603141D01*
X6982654Y-39559034D01*
X6893116Y-39531873D01*
X6823332Y-39525000D01*
X6800000Y-39522702D01*
X6776668Y-39525000D01*
X5331668Y-39525000D01*
X5318305Y-39500000D01*
X5348131Y-39444200D01*
X5369574Y-39373513D01*
X5376814Y-39300000D01*
X5375000Y-39118750D01*
X5281250Y-39025000D01*
X3825000Y-39025000D01*
X3825000Y-39045000D01*
X3775000Y-39045000D01*
X3775000Y-39025000D01*
X3755000Y-39025000D01*
X3755000Y-38975000D01*
X3775000Y-38975000D01*
X3775000Y-38955000D01*
X3825000Y-38955000D01*
X3825000Y-38975000D01*
X5281250Y-38975000D01*
X5375000Y-38881250D01*
X5376814Y-38700000D01*
X5369574Y-38626487D01*
X5348131Y-38555800D01*
X5318305Y-38500000D01*
X5348131Y-38444200D01*
X5369574Y-38373513D01*
X5376814Y-38300000D01*
X5376814Y-37700000D01*
X5369574Y-37626487D01*
X5348131Y-37555800D01*
X5318305Y-37500000D01*
X5348131Y-37444200D01*
X5369574Y-37373513D01*
X5376814Y-37300000D01*
X5376814Y-36700000D01*
X5369574Y-36626487D01*
X5348131Y-36555800D01*
X5318305Y-36500000D01*
X5348131Y-36444200D01*
X5369574Y-36373513D01*
X5376814Y-36300000D01*
X5376814Y-35700000D01*
X5369574Y-35626487D01*
X5348131Y-35555800D01*
X5318305Y-35500000D01*
X5348131Y-35444200D01*
X5369574Y-35373513D01*
X5376814Y-35300000D01*
X5376814Y-34700000D01*
X5369574Y-34626487D01*
X5348131Y-34555800D01*
X5318305Y-34500000D01*
X5348131Y-34444200D01*
X5369574Y-34373513D01*
X5376814Y-34300000D01*
X5376814Y-33700000D01*
X5369574Y-33626487D01*
X5348131Y-33555800D01*
X5318305Y-33500000D01*
X5348131Y-33444200D01*
X5369574Y-33373513D01*
X5376814Y-33300000D01*
X5376814Y-32700000D01*
X5369574Y-32626487D01*
X5348131Y-32555800D01*
X5318305Y-32500000D01*
X5331668Y-32475000D01*
X9803250Y-32475000D01*
X10125001Y-32796752D01*
X10125000Y-40342366D01*
X10122702Y-40365698D01*
X10129063Y-40430287D01*
X10131873Y-40458813D01*
X10159034Y-40548351D01*
X10203141Y-40630871D01*
X10262499Y-40703199D01*
X10280634Y-40718082D01*
X11503979Y-41941427D01*
X11475693Y-41969713D01*
X11401823Y-42080268D01*
X11350940Y-42203110D01*
X11325000Y-42333518D01*
X11325000Y-42466482D01*
X11350940Y-42596890D01*
X11364462Y-42629535D01*
X11300000Y-42623186D01*
X11118750Y-42625000D01*
X11025000Y-42718750D01*
X11025000Y-44175000D01*
X11975000Y-44175000D01*
X11975000Y-44155000D01*
X12025000Y-44155000D01*
X12025000Y-44175000D01*
X12975000Y-44175000D01*
X12975000Y-42718750D01*
X13025000Y-42718750D01*
X13025000Y-44175000D01*
X13975000Y-44175000D01*
X13975000Y-42718750D01*
X14025000Y-42718750D01*
X14025000Y-44175000D01*
X14975000Y-44175000D01*
X14975000Y-42718750D01*
X14881250Y-42625000D01*
X14700000Y-42623186D01*
X14626487Y-42630426D01*
X14555800Y-42651869D01*
X14500000Y-42681695D01*
X14444200Y-42651869D01*
X14373513Y-42630426D01*
X14300000Y-42623186D01*
X14118750Y-42625000D01*
X14025000Y-42718750D01*
X13975000Y-42718750D01*
X13881250Y-42625000D01*
X13700000Y-42623186D01*
X13626487Y-42630426D01*
X13555800Y-42651869D01*
X13500000Y-42681695D01*
X13444200Y-42651869D01*
X13373513Y-42630426D01*
X13300000Y-42623186D01*
X13118750Y-42625000D01*
X13025000Y-42718750D01*
X12975000Y-42718750D01*
X12881250Y-42625000D01*
X12700000Y-42623186D01*
X12635538Y-42629535D01*
X12649060Y-42596890D01*
X12673587Y-42473587D01*
X12796890Y-42449060D01*
X12919732Y-42398177D01*
X13030287Y-42324307D01*
X13124307Y-42230287D01*
X13198177Y-42119732D01*
X13249060Y-41996890D01*
X13275000Y-41866482D01*
X13275000Y-41733518D01*
X13249060Y-41603110D01*
X13198177Y-41480268D01*
X13124307Y-41369713D01*
X13030287Y-41275693D01*
X12919732Y-41201823D01*
X12796890Y-41150940D01*
X12666482Y-41125000D01*
X12596752Y-41125000D01*
X11475000Y-40003250D01*
X11475000Y-32457744D01*
X11477308Y-32434310D01*
X11468137Y-32341194D01*
X11440975Y-32251656D01*
X11396868Y-32169138D01*
X11352383Y-32114933D01*
X11352374Y-32114924D01*
X11337501Y-32096801D01*
X11319377Y-32081927D01*
X10518067Y-31280618D01*
X10503189Y-31262489D01*
X10430861Y-31203131D01*
X10348342Y-31159024D01*
X10285966Y-31140102D01*
X10258805Y-31131863D01*
X10165689Y-31122692D01*
X10165688Y-31122692D01*
X10142356Y-31124990D01*
X6196741Y-31124990D01*
X5752384Y-30680634D01*
X5737501Y-30662499D01*
X5665173Y-30603141D01*
X5582654Y-30559034D01*
X5493116Y-30531873D01*
X5423332Y-30525000D01*
X5400000Y-30522702D01*
X5376668Y-30525000D01*
X5331668Y-30525000D01*
X5318305Y-30500000D01*
X5348131Y-30444200D01*
X5369574Y-30373513D01*
X5376814Y-30300000D01*
X5376814Y-29700000D01*
X5369574Y-29626487D01*
X5348131Y-29555800D01*
X5318305Y-29500000D01*
X5348131Y-29444200D01*
X5369574Y-29373513D01*
X5376814Y-29300000D01*
X5376814Y-28764574D01*
X17125000Y-28764574D01*
X17125000Y-29035426D01*
X17177841Y-29301073D01*
X17281491Y-29551307D01*
X17431968Y-29776511D01*
X17623489Y-29968032D01*
X17848693Y-30118509D01*
X18098927Y-30222159D01*
X18364574Y-30275000D01*
X18635426Y-30275000D01*
X18901073Y-30222159D01*
X19151307Y-30118509D01*
X19376511Y-29968032D01*
X19568032Y-29776511D01*
X19718509Y-29551307D01*
X19822159Y-29301073D01*
X19875000Y-29035426D01*
X19875000Y-28764574D01*
X19822159Y-28498927D01*
X19718509Y-28248693D01*
X19568032Y-28023489D01*
X19376511Y-27831968D01*
X19151307Y-27681491D01*
X18901073Y-27577841D01*
X18635426Y-27525000D01*
X18364574Y-27525000D01*
X18098927Y-27577841D01*
X17848693Y-27681491D01*
X17623489Y-27831968D01*
X17431968Y-28023489D01*
X17281491Y-28248693D01*
X17177841Y-28498927D01*
X17125000Y-28764574D01*
X5376814Y-28764574D01*
X5376814Y-28700000D01*
X5369574Y-28626487D01*
X5348131Y-28555800D01*
X5318305Y-28500000D01*
X5348131Y-28444200D01*
X5369574Y-28373513D01*
X5376814Y-28300000D01*
X5376814Y-27700000D01*
X5369574Y-27626487D01*
X5348131Y-27555800D01*
X5318305Y-27500000D01*
X5348131Y-27444200D01*
X5369574Y-27373513D01*
X5376814Y-27300000D01*
X5376814Y-26700000D01*
X5369574Y-26626487D01*
X5348131Y-26555800D01*
X5318305Y-26500000D01*
X5331668Y-26475000D01*
X5676668Y-26475000D01*
X5700000Y-26477298D01*
X5723332Y-26475000D01*
X5793116Y-26468127D01*
X5882654Y-26440966D01*
X5965173Y-26396859D01*
X6037501Y-26337501D01*
X6052384Y-26319366D01*
X6419371Y-25952380D01*
X6437501Y-25937501D01*
X6496859Y-25865173D01*
X6540966Y-25782654D01*
X6568127Y-25693116D01*
X6568127Y-25693115D01*
X6577298Y-25600001D01*
X6575000Y-25576669D01*
X6575000Y-25533518D01*
X14725000Y-25533518D01*
X14725000Y-25666482D01*
X14750940Y-25796890D01*
X14801823Y-25919732D01*
X14875693Y-26030287D01*
X14969713Y-26124307D01*
X15080268Y-26198177D01*
X15203110Y-26249060D01*
X15333518Y-26275000D01*
X15466482Y-26275000D01*
X15596890Y-26249060D01*
X15719732Y-26198177D01*
X15830287Y-26124307D01*
X15879594Y-26075000D01*
X16370406Y-26075000D01*
X16419713Y-26124307D01*
X16530268Y-26198177D01*
X16653110Y-26249060D01*
X16783518Y-26275000D01*
X16916482Y-26275000D01*
X17046890Y-26249060D01*
X17169732Y-26198177D01*
X17280287Y-26124307D01*
X17374307Y-26030287D01*
X17448177Y-25919732D01*
X17499060Y-25796890D01*
X17525000Y-25666482D01*
X17525000Y-25533518D01*
X17499060Y-25403110D01*
X17448177Y-25280268D01*
X17374307Y-25169713D01*
X17280287Y-25075693D01*
X17169732Y-25001823D01*
X17046890Y-24950940D01*
X16916482Y-24925000D01*
X16783518Y-24925000D01*
X16653110Y-24950940D01*
X16530268Y-25001823D01*
X16419713Y-25075693D01*
X16370406Y-25125000D01*
X15879594Y-25125000D01*
X15830287Y-25075693D01*
X15719732Y-25001823D01*
X15596890Y-24950940D01*
X15466482Y-24925000D01*
X15333518Y-24925000D01*
X15203110Y-24950940D01*
X15080268Y-25001823D01*
X14969713Y-25075693D01*
X14875693Y-25169713D01*
X14801823Y-25280268D01*
X14750940Y-25403110D01*
X14725000Y-25533518D01*
X6575000Y-25533518D01*
X6575000Y-24479594D01*
X6624307Y-24430287D01*
X6698177Y-24319732D01*
X6749060Y-24196890D01*
X6775000Y-24066482D01*
X6775000Y-23933518D01*
X6749060Y-23803110D01*
X6698177Y-23680268D01*
X6624307Y-23569713D01*
X6530287Y-23475693D01*
X6419732Y-23401823D01*
X6296890Y-23350940D01*
X6166482Y-23325000D01*
X6033518Y-23325000D01*
X5903110Y-23350940D01*
X5780268Y-23401823D01*
X5669713Y-23475693D01*
X5575693Y-23569713D01*
X5501823Y-23680268D01*
X5450940Y-23803110D01*
X5425000Y-23933518D01*
X5425000Y-24066482D01*
X5450940Y-24196890D01*
X5501823Y-24319732D01*
X5575693Y-24430287D01*
X5625001Y-24479595D01*
X5625000Y-25403249D01*
X5503250Y-25525000D01*
X5331668Y-25525000D01*
X5318305Y-25500000D01*
X5348131Y-25444200D01*
X5369574Y-25373513D01*
X5376814Y-25300000D01*
X5376814Y-24700000D01*
X5369574Y-24626487D01*
X5348131Y-24555800D01*
X5318305Y-24500000D01*
X5348131Y-24444200D01*
X5369574Y-24373513D01*
X5376814Y-24300000D01*
X5375000Y-24118750D01*
X5281250Y-24025000D01*
X3825000Y-24025000D01*
X3825000Y-24045000D01*
X3775000Y-24045000D01*
X3775000Y-24025000D01*
X2318750Y-24025000D01*
X2225000Y-24118750D01*
X2223186Y-24300000D01*
X2230426Y-24373513D01*
X2251869Y-24444200D01*
X2281695Y-24500000D01*
X2251869Y-24555800D01*
X2230426Y-24626487D01*
X2223186Y-24700000D01*
X2223186Y-25300000D01*
X2230426Y-25373513D01*
X2251869Y-25444200D01*
X2281695Y-25500000D01*
X2256487Y-25547161D01*
X2217346Y-25559034D01*
X2134827Y-25603141D01*
X2062499Y-25662499D01*
X2047620Y-25680629D01*
X1680634Y-26047616D01*
X1662499Y-26062499D01*
X1603141Y-26134827D01*
X1559034Y-26217347D01*
X1544526Y-26265173D01*
X1531873Y-26306884D01*
X1522702Y-26400000D01*
X1525000Y-26423332D01*
X1525001Y-38603248D01*
X1080634Y-39047616D01*
X1062499Y-39062499D01*
X1003141Y-39134827D01*
X959034Y-39217347D01*
X943630Y-39268127D01*
X931873Y-39306884D01*
X922702Y-39400000D01*
X925000Y-39423332D01*
X925001Y-43664660D01*
X922702Y-43688002D01*
X931873Y-43781118D01*
X956098Y-43860975D01*
X959035Y-43870656D01*
X1003142Y-43953175D01*
X1062500Y-44025503D01*
X1080629Y-44040381D01*
X1859623Y-44819377D01*
X1874497Y-44837501D01*
X1920190Y-44875000D01*
X1946825Y-44896859D01*
X2029344Y-44940966D01*
X2118882Y-44968127D01*
X2211998Y-44977298D01*
X2235330Y-44975000D01*
X2720406Y-44975000D01*
X2769713Y-45024307D01*
X2880268Y-45098177D01*
X3003110Y-45149060D01*
X3133518Y-45175000D01*
X3266482Y-45175000D01*
X3396890Y-45149060D01*
X3519732Y-45098177D01*
X3630287Y-45024307D01*
X3724307Y-44930287D01*
X3798177Y-44819732D01*
X3849060Y-44696890D01*
X3875000Y-44566482D01*
X3875000Y-44433518D01*
X3849060Y-44303110D01*
X3798177Y-44180268D01*
X3724307Y-44069713D01*
X3630287Y-43975693D01*
X3519732Y-43901823D01*
X3396890Y-43850940D01*
X3266482Y-43825000D01*
X3133518Y-43825000D01*
X3003110Y-43850940D01*
X2880268Y-43901823D01*
X2769713Y-43975693D01*
X2720406Y-44025000D01*
X2408750Y-44025000D01*
X2357015Y-43973265D01*
X2430287Y-43924307D01*
X2524307Y-43830287D01*
X2598177Y-43719732D01*
X2649060Y-43596890D01*
X2675000Y-43466482D01*
X2675000Y-43333518D01*
X2649060Y-43203110D01*
X2598177Y-43080268D01*
X2525000Y-42970750D01*
X2525000Y-40669123D01*
X2526487Y-40669574D01*
X2600000Y-40676814D01*
X5000000Y-40676814D01*
X5073513Y-40669574D01*
X5144200Y-40648131D01*
X5209347Y-40613309D01*
X5266448Y-40566448D01*
X5313309Y-40509347D01*
X5331668Y-40475000D01*
X6603250Y-40475000D01*
X6725001Y-40596752D01*
X6725000Y-45416670D01*
X6722702Y-45440002D01*
X6731873Y-45533118D01*
X6735235Y-45544200D01*
X6759034Y-45622655D01*
X6803141Y-45705175D01*
X6862499Y-45777503D01*
X6880634Y-45792386D01*
X7207618Y-46119371D01*
X7222497Y-46137501D01*
X7294825Y-46196859D01*
X7377344Y-46240966D01*
X7417935Y-46253279D01*
X7466881Y-46268127D01*
X7559997Y-46277298D01*
X7583330Y-46275000D01*
X8136640Y-46275000D01*
X8125000Y-46333518D01*
X8125000Y-46466482D01*
X8150940Y-46596890D01*
X8201823Y-46719732D01*
X8275693Y-46830287D01*
X8325000Y-46879594D01*
X8325001Y-49976658D01*
X8322702Y-50000000D01*
X8331873Y-50093116D01*
X8356713Y-50175000D01*
X8359035Y-50182654D01*
X8403142Y-50265173D01*
X8423381Y-50289834D01*
X8369713Y-50325693D01*
X8320406Y-50375000D01*
X7846751Y-50375000D01*
X7299265Y-49827515D01*
X7299265Y-49757783D01*
X7273325Y-49627375D01*
X7222442Y-49504533D01*
X7148572Y-49393978D01*
X7054552Y-49299958D01*
X6943997Y-49226088D01*
X6821155Y-49175205D01*
X6690747Y-49149265D01*
X6557783Y-49149265D01*
X6427375Y-49175205D01*
X6304533Y-49226088D01*
X6193978Y-49299958D01*
X6099958Y-49393978D01*
X6026088Y-49504533D01*
X5975205Y-49627375D01*
X5949265Y-49757783D01*
X5949265Y-49890747D01*
X5975205Y-50021155D01*
X6026088Y-50143997D01*
X6099958Y-50254552D01*
X6193978Y-50348572D01*
X6304533Y-50422442D01*
X6427375Y-50473325D01*
X6557783Y-50499265D01*
X6627515Y-50499265D01*
X7297620Y-51169371D01*
X7312499Y-51187501D01*
X7384827Y-51246859D01*
X7467346Y-51290966D01*
X7529722Y-51309888D01*
X7556883Y-51318127D01*
X7649999Y-51327298D01*
X7673331Y-51325000D01*
X8320406Y-51325000D01*
X8369713Y-51374307D01*
X8445581Y-51425000D01*
X8369713Y-51475693D01*
X8275693Y-51569713D01*
X8201823Y-51680268D01*
X8150940Y-51803110D01*
X8125000Y-51933518D01*
X8125000Y-52066482D01*
X8150940Y-52196890D01*
X8201823Y-52319732D01*
X8275693Y-52430287D01*
X8369713Y-52524307D01*
X8480268Y-52598177D01*
X8603110Y-52649060D01*
X8733518Y-52675000D01*
X8866482Y-52675000D01*
X8996890Y-52649060D01*
X9119732Y-52598177D01*
X9175000Y-52561248D01*
X9175001Y-54820405D01*
X9125693Y-54869713D01*
X9051823Y-54980268D01*
X9000940Y-55103110D01*
X8975000Y-55233518D01*
X8975000Y-55366482D01*
X9000940Y-55496890D01*
X9051823Y-55619732D01*
X9125693Y-55730287D01*
X9219713Y-55824307D01*
X9330268Y-55898177D01*
X9453110Y-55949060D01*
X9583518Y-55975000D01*
X9716482Y-55975000D01*
X9846890Y-55949060D01*
X9925001Y-55916705D01*
X9925001Y-56020405D01*
X9875693Y-56069713D01*
X9801823Y-56180268D01*
X9750940Y-56303110D01*
X9725000Y-56433518D01*
X9725000Y-56453249D01*
X8425000Y-55153250D01*
X8425000Y-53629594D01*
X8474307Y-53580287D01*
X8548177Y-53469732D01*
X8599060Y-53346890D01*
X8625000Y-53216482D01*
X8625000Y-53083518D01*
X8599060Y-52953110D01*
X8548177Y-52830268D01*
X8474307Y-52719713D01*
X8380287Y-52625693D01*
X8269732Y-52551823D01*
X8146890Y-52500940D01*
X8016482Y-52475000D01*
X7883518Y-52475000D01*
X7753110Y-52500940D01*
X7630268Y-52551823D01*
X7519713Y-52625693D01*
X7425693Y-52719713D01*
X7351823Y-52830268D01*
X7300940Y-52953110D01*
X7275000Y-53083518D01*
X7275000Y-53216482D01*
X7300940Y-53346890D01*
X7351823Y-53469732D01*
X7425693Y-53580287D01*
X7475000Y-53629594D01*
X7475001Y-55326658D01*
X7472702Y-55350000D01*
X7481873Y-55443116D01*
X7506713Y-55525000D01*
X7509035Y-55532654D01*
X7553142Y-55615173D01*
X7612500Y-55687501D01*
X7630629Y-55702379D01*
X8553174Y-56624924D01*
X8503563Y-56658073D01*
X8409543Y-56752093D01*
X8335673Y-56862648D01*
X8284790Y-56985490D01*
X8258850Y-57115898D01*
X8258850Y-57248862D01*
X8284790Y-57379270D01*
X8335673Y-57502112D01*
X8409543Y-57612667D01*
X8503563Y-57706687D01*
X8614118Y-57780557D01*
X8622864Y-57784180D01*
X8580270Y-57801823D01*
X8469715Y-57875693D01*
X8375695Y-57969713D01*
X8301825Y-58080268D01*
X8250942Y-58203110D01*
X8225002Y-58333518D01*
X8225002Y-58466482D01*
X8250942Y-58596890D01*
X8301825Y-58719732D01*
X8375695Y-58830287D01*
X8469715Y-58924307D01*
X8580270Y-58998177D01*
X8703112Y-59049060D01*
X8833520Y-59075000D01*
X8903250Y-59075000D01*
X8947646Y-59119396D01*
X8962521Y-59137521D01*
X9034849Y-59196879D01*
X9117368Y-59240986D01*
X9206906Y-59268147D01*
X9300022Y-59277318D01*
X9323354Y-59275020D01*
X20037571Y-59275020D01*
X22323186Y-61560636D01*
X22323186Y-62600000D01*
X22333309Y-62702776D01*
X22363287Y-62801603D01*
X22411970Y-62892682D01*
X22477486Y-62972514D01*
X22557318Y-63038030D01*
X22648397Y-63086713D01*
X22747224Y-63116691D01*
X22850000Y-63126814D01*
X28550001Y-63126814D01*
X28550001Y-63550000D01*
X6222006Y-63550000D01*
X6132439Y-63541218D01*
X6067448Y-63521596D01*
X6007507Y-63489725D01*
X5954899Y-63446819D01*
X5911626Y-63394511D01*
X5876536Y-63329614D01*
X4247837Y-53749303D01*
X4247511Y-53745980D01*
X4227110Y-53551883D01*
X4218903Y-53511904D01*
X4211266Y-53471869D01*
X4209450Y-53465854D01*
X4151738Y-53279416D01*
X4135940Y-53241835D01*
X4120655Y-53204001D01*
X4117705Y-53198454D01*
X4024880Y-53026777D01*
X4002052Y-52992932D01*
X3979739Y-52958834D01*
X3975768Y-52953965D01*
X3851364Y-52803588D01*
X3822421Y-52774846D01*
X3793888Y-52745709D01*
X3789047Y-52741704D01*
X3637805Y-52618354D01*
X3603826Y-52595778D01*
X3570181Y-52572741D01*
X3564659Y-52569756D01*
X3564655Y-52569753D01*
X3564651Y-52569751D01*
X3392332Y-52478127D01*
X3354603Y-52462576D01*
X3317136Y-52446518D01*
X3311134Y-52444660D01*
X3124298Y-52388251D01*
X3084240Y-52380319D01*
X3044395Y-52371850D01*
X3038148Y-52371193D01*
X3038146Y-52371193D01*
X2844344Y-52352190D01*
X2822105Y-52350000D01*
X2050000Y-52350000D01*
X2050000Y-49822104D01*
X2052177Y-49800000D01*
X2043489Y-49711785D01*
X2017757Y-49626959D01*
X1975971Y-49548784D01*
X1919737Y-49480263D01*
X1851216Y-49424029D01*
X1773041Y-49382243D01*
X1688215Y-49356511D01*
X1622105Y-49350000D01*
X1622104Y-49350000D01*
X1600000Y-49347823D01*
X1577895Y-49350000D01*
X1337355Y-49350000D01*
X1368069Y-49291556D01*
X1411151Y-49145866D01*
X1330848Y-49025000D01*
X675000Y-49025000D01*
X675000Y-49045000D01*
X625000Y-49045000D01*
X625000Y-49025000D01*
X605000Y-49025000D01*
X605000Y-48975000D01*
X625000Y-48975000D01*
X625000Y-48319209D01*
X675000Y-48319209D01*
X675000Y-48975000D01*
X1330848Y-48975000D01*
X1411151Y-48854134D01*
X1368069Y-48708444D01*
X1297392Y-48573958D01*
X1201836Y-48455844D01*
X1085073Y-48358642D01*
X951590Y-48286087D01*
X806518Y-48240967D01*
X795866Y-48238850D01*
X675000Y-48319209D01*
X625000Y-48319209D01*
X504134Y-48238850D01*
X493482Y-48240967D01*
X450000Y-48254491D01*
X450000Y-45745509D01*
X493482Y-45759033D01*
X504134Y-45761150D01*
X625000Y-45680791D01*
X625000Y-45025000D01*
X675000Y-45025000D01*
X675000Y-45680791D01*
X795866Y-45761150D01*
X806518Y-45759033D01*
X951590Y-45713913D01*
X1085073Y-45641358D01*
X1201836Y-45544156D01*
X1297392Y-45426042D01*
X1368069Y-45291556D01*
X1411151Y-45145866D01*
X1330848Y-45025000D01*
X675000Y-45025000D01*
X625000Y-45025000D01*
X605000Y-45025000D01*
X605000Y-44975000D01*
X625000Y-44975000D01*
X625000Y-44319209D01*
X675000Y-44319209D01*
X675000Y-44975000D01*
X1330848Y-44975000D01*
X1411151Y-44854134D01*
X1368069Y-44708444D01*
X1297392Y-44573958D01*
X1201836Y-44455844D01*
X1085073Y-44358642D01*
X951590Y-44286087D01*
X806518Y-44240967D01*
X795866Y-44238850D01*
X675000Y-44319209D01*
X625000Y-44319209D01*
X504134Y-44238850D01*
X493482Y-44240967D01*
X450000Y-44254491D01*
X450000Y-23700000D01*
X2223186Y-23700000D01*
X2225000Y-23881250D01*
X2318750Y-23975000D01*
X3775000Y-23975000D01*
X3775000Y-23418750D01*
X3825000Y-23418750D01*
X3825000Y-23975000D01*
X5281250Y-23975000D01*
X5375000Y-23881250D01*
X5376814Y-23700000D01*
X5369574Y-23626487D01*
X5348131Y-23555800D01*
X5313309Y-23490653D01*
X5266448Y-23433552D01*
X5209347Y-23386691D01*
X5144200Y-23351869D01*
X5073513Y-23330426D01*
X5000000Y-23323186D01*
X3918750Y-23325000D01*
X3825000Y-23418750D01*
X3775000Y-23418750D01*
X3681250Y-23325000D01*
X2600000Y-23323186D01*
X2526487Y-23330426D01*
X2455800Y-23351869D01*
X2390653Y-23386691D01*
X2333552Y-23433552D01*
X2286691Y-23490653D01*
X2251869Y-23555800D01*
X2230426Y-23626487D01*
X2223186Y-23700000D01*
X450000Y-23700000D01*
X450000Y-21208518D01*
X3675000Y-21208518D01*
X3675000Y-21341482D01*
X3700940Y-21471890D01*
X3751823Y-21594732D01*
X3825693Y-21705287D01*
X3919713Y-21799307D01*
X4030268Y-21873177D01*
X4153110Y-21924060D01*
X4283518Y-21950000D01*
X4416482Y-21950000D01*
X4546890Y-21924060D01*
X4669732Y-21873177D01*
X4780287Y-21799307D01*
X4874307Y-21705287D01*
X4948177Y-21594732D01*
X4999060Y-21471890D01*
X5025000Y-21341482D01*
X5025000Y-21208518D01*
X4999060Y-21078110D01*
X4966706Y-21000000D01*
X7323186Y-21000000D01*
X7330426Y-21073513D01*
X7351869Y-21144200D01*
X7386691Y-21209347D01*
X7433552Y-21266448D01*
X7490653Y-21313309D01*
X7555800Y-21348131D01*
X7626487Y-21369574D01*
X7700000Y-21376814D01*
X7881250Y-21375000D01*
X7975000Y-21281250D01*
X7975000Y-19825000D01*
X7418750Y-19825000D01*
X7325000Y-19918750D01*
X7323186Y-21000000D01*
X4966706Y-21000000D01*
X4948177Y-20955268D01*
X4874307Y-20844713D01*
X4780287Y-20750693D01*
X4669732Y-20676823D01*
X4546890Y-20625940D01*
X4416482Y-20600000D01*
X4283518Y-20600000D01*
X4153110Y-20625940D01*
X4030268Y-20676823D01*
X3919713Y-20750693D01*
X3825693Y-20844713D01*
X3751823Y-20955268D01*
X3700940Y-21078110D01*
X3675000Y-21208518D01*
X450000Y-21208518D01*
X450000Y-18600000D01*
X7323186Y-18600000D01*
X7325000Y-19681250D01*
X7418750Y-19775000D01*
X7975000Y-19775000D01*
X7975000Y-18318750D01*
X8025000Y-18318750D01*
X8025000Y-19775000D01*
X8045000Y-19775000D01*
X8045000Y-19825000D01*
X8025000Y-19825000D01*
X8025000Y-21281250D01*
X8118750Y-21375000D01*
X8300000Y-21376814D01*
X8373513Y-21369574D01*
X8444200Y-21348131D01*
X8500000Y-21318305D01*
X8555800Y-21348131D01*
X8626487Y-21369574D01*
X8700000Y-21376814D01*
X9300000Y-21376814D01*
X9373513Y-21369574D01*
X9444200Y-21348131D01*
X9500000Y-21318305D01*
X9555800Y-21348131D01*
X9626487Y-21369574D01*
X9700000Y-21376814D01*
X10300000Y-21376814D01*
X10373513Y-21369574D01*
X10444200Y-21348131D01*
X10500000Y-21318305D01*
X10555800Y-21348131D01*
X10626487Y-21369574D01*
X10700000Y-21376814D01*
X11300000Y-21376814D01*
X11373513Y-21369574D01*
X11444200Y-21348131D01*
X11500000Y-21318305D01*
X11555800Y-21348131D01*
X11626487Y-21369574D01*
X11700000Y-21376814D01*
X12300000Y-21376814D01*
X12373513Y-21369574D01*
X12444200Y-21348131D01*
X12500000Y-21318305D01*
X12555800Y-21348131D01*
X12626487Y-21369574D01*
X12700000Y-21376814D01*
X13300000Y-21376814D01*
X13373513Y-21369574D01*
X13444200Y-21348131D01*
X13500000Y-21318305D01*
X13555800Y-21348131D01*
X13626487Y-21369574D01*
X13700000Y-21376814D01*
X14300000Y-21376814D01*
X14373513Y-21369574D01*
X14444200Y-21348131D01*
X14500000Y-21318305D01*
X14555800Y-21348131D01*
X14626487Y-21369574D01*
X14700000Y-21376814D01*
X15140645Y-21376814D01*
X15080268Y-21401823D01*
X14969713Y-21475693D01*
X14875693Y-21569713D01*
X14801823Y-21680268D01*
X14750940Y-21803110D01*
X14725000Y-21933518D01*
X14725000Y-22066482D01*
X14750940Y-22196890D01*
X14801823Y-22319732D01*
X14875693Y-22430287D01*
X14969713Y-22524307D01*
X15080268Y-22598177D01*
X15203110Y-22649060D01*
X15333518Y-22675000D01*
X15466482Y-22675000D01*
X15596890Y-22649060D01*
X15719732Y-22598177D01*
X15830287Y-22524307D01*
X15879594Y-22475000D01*
X16120406Y-22475000D01*
X16169713Y-22524307D01*
X16280268Y-22598177D01*
X16403110Y-22649060D01*
X16533518Y-22675000D01*
X16666482Y-22675000D01*
X16796890Y-22649060D01*
X16919732Y-22598177D01*
X17030287Y-22524307D01*
X17079594Y-22475000D01*
X17970406Y-22475000D01*
X18019713Y-22524307D01*
X18130268Y-22598177D01*
X18253110Y-22649060D01*
X18383518Y-22675000D01*
X18516482Y-22675000D01*
X18646890Y-22649060D01*
X18769732Y-22598177D01*
X18880287Y-22524307D01*
X18974307Y-22430287D01*
X19048177Y-22319732D01*
X19099060Y-22196890D01*
X19125000Y-22066482D01*
X19125000Y-21933518D01*
X19099060Y-21803110D01*
X19048177Y-21680268D01*
X18974307Y-21569713D01*
X18880287Y-21475693D01*
X18769732Y-21401823D01*
X18709134Y-21376723D01*
X18881250Y-21375000D01*
X18975000Y-21281250D01*
X18975000Y-19825000D01*
X18955000Y-19825000D01*
X18955000Y-19775000D01*
X18975000Y-19775000D01*
X18975000Y-18318750D01*
X18881250Y-18225000D01*
X18700000Y-18223186D01*
X18626487Y-18230426D01*
X18555800Y-18251869D01*
X18500000Y-18281695D01*
X18444200Y-18251869D01*
X18373513Y-18230426D01*
X18300000Y-18223186D01*
X17700000Y-18223186D01*
X17626487Y-18230426D01*
X17555800Y-18251869D01*
X17500000Y-18281695D01*
X17444200Y-18251869D01*
X17373513Y-18230426D01*
X17300000Y-18223186D01*
X16700000Y-18223186D01*
X16626487Y-18230426D01*
X16555800Y-18251869D01*
X16500000Y-18281695D01*
X16444200Y-18251869D01*
X16373513Y-18230426D01*
X16300000Y-18223186D01*
X15700000Y-18223186D01*
X15626487Y-18230426D01*
X15555800Y-18251869D01*
X15500000Y-18281695D01*
X15444200Y-18251869D01*
X15373513Y-18230426D01*
X15300000Y-18223186D01*
X14700000Y-18223186D01*
X14662995Y-18226830D01*
X14675000Y-18166480D01*
X14675000Y-18033516D01*
X14649060Y-17903108D01*
X14598177Y-17780266D01*
X14524307Y-17669711D01*
X14430287Y-17575691D01*
X14319732Y-17501821D01*
X14196890Y-17450938D01*
X14066482Y-17424998D01*
X13933518Y-17424998D01*
X13803110Y-17450938D01*
X13680268Y-17501821D01*
X13569713Y-17575691D01*
X13520406Y-17624998D01*
X12479594Y-17624998D01*
X12430287Y-17575691D01*
X12319732Y-17501821D01*
X12196890Y-17450938D01*
X12066482Y-17424998D01*
X11933518Y-17424998D01*
X11803110Y-17450938D01*
X11680268Y-17501821D01*
X11569713Y-17575691D01*
X11475693Y-17669711D01*
X11401823Y-17780266D01*
X11350940Y-17903108D01*
X11325000Y-18033516D01*
X11325000Y-18166480D01*
X11337005Y-18226830D01*
X11300000Y-18223186D01*
X10700000Y-18223186D01*
X10626487Y-18230426D01*
X10555800Y-18251869D01*
X10500000Y-18281695D01*
X10444200Y-18251869D01*
X10373513Y-18230426D01*
X10300000Y-18223186D01*
X9700000Y-18223186D01*
X9626487Y-18230426D01*
X9555800Y-18251869D01*
X9500000Y-18281695D01*
X9444200Y-18251869D01*
X9373513Y-18230426D01*
X9300000Y-18223186D01*
X8700000Y-18223186D01*
X8626487Y-18230426D01*
X8555800Y-18251869D01*
X8500000Y-18281695D01*
X8444200Y-18251869D01*
X8373513Y-18230426D01*
X8300000Y-18223186D01*
X8118750Y-18225000D01*
X8025000Y-18318750D01*
X7975000Y-18318750D01*
X7881250Y-18225000D01*
X7700000Y-18223186D01*
X7626487Y-18230426D01*
X7555800Y-18251869D01*
X7490653Y-18286691D01*
X7433552Y-18333552D01*
X7386691Y-18390653D01*
X7351869Y-18455800D01*
X7330426Y-18526487D01*
X7323186Y-18600000D01*
X450000Y-18600000D01*
X450000Y-17058518D01*
X3675000Y-17058518D01*
X3675000Y-17191482D01*
X3700940Y-17321890D01*
X3751823Y-17444732D01*
X3825693Y-17555287D01*
X3919713Y-17649307D01*
X4030268Y-17723177D01*
X4153110Y-17774060D01*
X4283518Y-17800000D01*
X4416482Y-17800000D01*
X4546890Y-17774060D01*
X4669732Y-17723177D01*
X4780287Y-17649307D01*
X4874307Y-17555287D01*
X4948177Y-17444732D01*
X4999060Y-17321890D01*
X5025000Y-17191482D01*
X5025000Y-17058518D01*
X4999060Y-16928110D01*
X4948177Y-16805268D01*
X4874307Y-16694713D01*
X4780287Y-16600693D01*
X4669732Y-16526823D01*
X4546890Y-16475940D01*
X4416482Y-16450000D01*
X4283518Y-16450000D01*
X4153110Y-16475940D01*
X4030268Y-16526823D01*
X3919713Y-16600693D01*
X3825693Y-16694713D01*
X3751823Y-16805268D01*
X3700940Y-16928110D01*
X3675000Y-17058518D01*
X450000Y-17058518D01*
X450000Y-14650000D01*
X1577895Y-14650000D01*
X1600000Y-14652177D01*
X1622104Y-14650000D01*
X1622105Y-14650000D01*
X1688215Y-14643489D01*
X1773041Y-14617757D01*
X1851216Y-14575971D01*
X1919737Y-14519737D01*
X1975971Y-14451216D01*
X2017757Y-14373041D01*
X2043489Y-14288215D01*
X2052177Y-14200000D01*
X2050000Y-14177895D01*
X2050000Y-11650000D01*
X2822105Y-11650000D01*
X2841591Y-11648081D01*
X2847767Y-11648124D01*
X2854020Y-11647511D01*
X3048117Y-11627110D01*
X3088096Y-11618903D01*
X3128131Y-11611266D01*
X3134144Y-11609451D01*
X3134150Y-11609449D01*
X3320584Y-11551738D01*
X3358179Y-11535935D01*
X3395998Y-11520655D01*
X3401546Y-11517705D01*
X3573223Y-11424880D01*
X3607062Y-11402056D01*
X3641165Y-11379739D01*
X3646025Y-11375776D01*
X3646033Y-11375770D01*
X3646040Y-11375763D01*
X3796412Y-11251365D01*
X3825157Y-11222418D01*
X3854291Y-11193888D01*
X3858296Y-11189047D01*
X3981646Y-11037805D01*
X4004222Y-11003826D01*
X4027259Y-10970181D01*
X4030248Y-10964654D01*
X4121873Y-10792331D01*
X4137418Y-10754617D01*
X4153482Y-10717136D01*
X4155340Y-10711134D01*
X4211749Y-10524298D01*
X4219678Y-10484253D01*
X4228150Y-10444395D01*
X4228807Y-10438147D01*
X4246301Y-10259730D01*
X4502962Y-8750000D01*
X22323186Y-8750000D01*
X22330426Y-8823513D01*
X22351869Y-8894200D01*
X22386691Y-8959347D01*
X22420054Y-9000000D01*
X22386691Y-9040653D01*
X22351869Y-9105800D01*
X22330426Y-9176487D01*
X22323186Y-9250000D01*
X22325000Y-9881250D01*
X22418750Y-9975000D01*
X25675000Y-9975000D01*
X25675000Y-8025000D01*
X22418750Y-8025000D01*
X22325000Y-8118750D01*
X22323186Y-8750000D01*
X4502962Y-8750000D01*
X4842971Y-6750000D01*
X22323186Y-6750000D01*
X22330426Y-6823513D01*
X22351869Y-6894200D01*
X22386691Y-6959347D01*
X22420054Y-7000000D01*
X22386691Y-7040653D01*
X22351869Y-7105800D01*
X22330426Y-7176487D01*
X22323186Y-7250000D01*
X22325000Y-7881250D01*
X22418750Y-7975000D01*
X25675000Y-7975000D01*
X25675000Y-6025000D01*
X22418750Y-6025000D01*
X22325000Y-6118750D01*
X22323186Y-6750000D01*
X4842971Y-6750000D01*
X5875168Y-678432D01*
X5897659Y-627999D01*
X5936824Y-572553D01*
X5986014Y-525766D01*
X6043353Y-489426D01*
X6106663Y-464915D01*
X6186835Y-450828D01*
X6208577Y-450000D01*
X28550001Y-450000D01*
X28550001Y-873186D01*
G37*
G04 #@! TD.AperFunction*
D18*
X13525000Y-54742366D02*
X13522702Y-54765698D01*
X13531873Y-54858814D01*
X13535179Y-54869713D01*
X13559034Y-54948351D01*
X13603141Y-55030871D01*
X13662499Y-55103199D01*
X13680634Y-55118082D01*
X14881927Y-56319377D01*
X14896801Y-56337501D01*
X14969129Y-56396859D01*
X15037714Y-56433518D01*
X15051648Y-56440966D01*
X15141186Y-56468127D01*
X15234302Y-56477298D01*
X15257634Y-56475000D01*
X22323186Y-56475000D01*
X22323186Y-56600000D01*
X22333309Y-56702776D01*
X22363287Y-56801603D01*
X22411970Y-56892682D01*
X22477486Y-56972514D01*
X22510978Y-57000000D01*
X22477486Y-57027486D01*
X22411970Y-57107318D01*
X22363287Y-57198397D01*
X22333309Y-57297224D01*
X22323186Y-57400000D01*
X22323186Y-57525000D01*
X10796751Y-57525000D01*
X10446751Y-57175000D01*
X10466482Y-57175000D01*
X10596890Y-57149060D01*
X10719732Y-57098177D01*
X10830287Y-57024307D01*
X10924307Y-56930287D01*
X10998177Y-56819732D01*
X11049060Y-56696890D01*
X11075000Y-56566482D01*
X11075000Y-56433518D01*
X11049060Y-56303110D01*
X10998177Y-56180268D01*
X10924307Y-56069713D01*
X10875000Y-56020406D01*
X10875000Y-54579594D01*
X10924307Y-54530287D01*
X10998177Y-54419732D01*
X11049060Y-54296890D01*
X11075000Y-54166482D01*
X11075000Y-54033518D01*
X11049060Y-53903110D01*
X10998177Y-53780268D01*
X10924307Y-53669713D01*
X10830287Y-53575693D01*
X10719732Y-53501823D01*
X10596890Y-53450940D01*
X10466482Y-53425000D01*
X10333518Y-53425000D01*
X10203110Y-53450940D01*
X10125000Y-53483294D01*
X10125000Y-52629594D01*
X10169713Y-52674307D01*
X10280268Y-52748177D01*
X10403110Y-52799060D01*
X10533518Y-52825000D01*
X10666482Y-52825000D01*
X10796890Y-52799060D01*
X10919732Y-52748177D01*
X11030287Y-52674307D01*
X11079594Y-52625000D01*
X13026668Y-52625000D01*
X13050000Y-52627298D01*
X13073332Y-52625000D01*
X13143116Y-52618127D01*
X13232654Y-52590966D01*
X13315173Y-52546859D01*
X13387501Y-52487501D01*
X13402384Y-52469366D01*
X13525000Y-52346750D01*
X13525000Y-54742366D01*
G04 #@! TA.AperFunction,Conductor*
D19*
G36*
X13525000Y-54742366D02*
G01*
X13522702Y-54765698D01*
X13531873Y-54858814D01*
X13535179Y-54869713D01*
X13559034Y-54948351D01*
X13603141Y-55030871D01*
X13662499Y-55103199D01*
X13680634Y-55118082D01*
X14881927Y-56319377D01*
X14896801Y-56337501D01*
X14969129Y-56396859D01*
X15037714Y-56433518D01*
X15051648Y-56440966D01*
X15141186Y-56468127D01*
X15234302Y-56477298D01*
X15257634Y-56475000D01*
X22323186Y-56475000D01*
X22323186Y-56600000D01*
X22333309Y-56702776D01*
X22363287Y-56801603D01*
X22411970Y-56892682D01*
X22477486Y-56972514D01*
X22510978Y-57000000D01*
X22477486Y-57027486D01*
X22411970Y-57107318D01*
X22363287Y-57198397D01*
X22333309Y-57297224D01*
X22323186Y-57400000D01*
X22323186Y-57525000D01*
X10796751Y-57525000D01*
X10446751Y-57175000D01*
X10466482Y-57175000D01*
X10596890Y-57149060D01*
X10719732Y-57098177D01*
X10830287Y-57024307D01*
X10924307Y-56930287D01*
X10998177Y-56819732D01*
X11049060Y-56696890D01*
X11075000Y-56566482D01*
X11075000Y-56433518D01*
X11049060Y-56303110D01*
X10998177Y-56180268D01*
X10924307Y-56069713D01*
X10875000Y-56020406D01*
X10875000Y-54579594D01*
X10924307Y-54530287D01*
X10998177Y-54419732D01*
X11049060Y-54296890D01*
X11075000Y-54166482D01*
X11075000Y-54033518D01*
X11049060Y-53903110D01*
X10998177Y-53780268D01*
X10924307Y-53669713D01*
X10830287Y-53575693D01*
X10719732Y-53501823D01*
X10596890Y-53450940D01*
X10466482Y-53425000D01*
X10333518Y-53425000D01*
X10203110Y-53450940D01*
X10125000Y-53483294D01*
X10125000Y-52629594D01*
X10169713Y-52674307D01*
X10280268Y-52748177D01*
X10403110Y-52799060D01*
X10533518Y-52825000D01*
X10666482Y-52825000D01*
X10796890Y-52799060D01*
X10919732Y-52748177D01*
X11030287Y-52674307D01*
X11079594Y-52625000D01*
X13026668Y-52625000D01*
X13050000Y-52627298D01*
X13073332Y-52625000D01*
X13143116Y-52618127D01*
X13232654Y-52590966D01*
X13315173Y-52546859D01*
X13387501Y-52487501D01*
X13402384Y-52469366D01*
X13525000Y-52346750D01*
X13525000Y-54742366D01*
G37*
G04 #@! TD.AperFunction*
D18*
X15688199Y-49608339D02*
X15734835Y-49665165D01*
X15791661Y-49711801D01*
X15856494Y-49746455D01*
X15926841Y-49767794D01*
X16000000Y-49775000D01*
X16537563Y-49775000D01*
X17350888Y-50588325D01*
X17378288Y-50621712D01*
X17511524Y-50731056D01*
X17609675Y-50783518D01*
X17663532Y-50812305D01*
X17828469Y-50862339D01*
X17999999Y-50879233D01*
X18042978Y-50875000D01*
X22402519Y-50875000D01*
X22411970Y-50892682D01*
X22477486Y-50972514D01*
X22510978Y-51000000D01*
X22477486Y-51027486D01*
X22411970Y-51107318D01*
X22363287Y-51198397D01*
X22333309Y-51297224D01*
X22323186Y-51400000D01*
X22323186Y-51525000D01*
X22023331Y-51525000D01*
X21999999Y-51522702D01*
X21906883Y-51531873D01*
X21879722Y-51540112D01*
X21817346Y-51559034D01*
X21734827Y-51603141D01*
X21662499Y-51662499D01*
X21647620Y-51680629D01*
X21080634Y-52247616D01*
X21062499Y-52262499D01*
X21003141Y-52334827D01*
X20959034Y-52417347D01*
X20950749Y-52444660D01*
X20931873Y-52506884D01*
X20922702Y-52600000D01*
X20925000Y-52623333D01*
X20925001Y-53837550D01*
X20037552Y-54725000D01*
X15762450Y-54725000D01*
X15275019Y-54237571D01*
X15275019Y-50396750D01*
X15519372Y-50152398D01*
X15537502Y-50137519D01*
X15596860Y-50065191D01*
X15640967Y-49982672D01*
X15668128Y-49893134D01*
X15668613Y-49888215D01*
X15677299Y-49800018D01*
X15675001Y-49776686D01*
X15675001Y-49583647D01*
X15688199Y-49608339D01*
G04 #@! TA.AperFunction,Conductor*
D19*
G36*
X15688199Y-49608339D02*
G01*
X15734835Y-49665165D01*
X15791661Y-49711801D01*
X15856494Y-49746455D01*
X15926841Y-49767794D01*
X16000000Y-49775000D01*
X16537563Y-49775000D01*
X17350888Y-50588325D01*
X17378288Y-50621712D01*
X17511524Y-50731056D01*
X17609675Y-50783518D01*
X17663532Y-50812305D01*
X17828469Y-50862339D01*
X17999999Y-50879233D01*
X18042978Y-50875000D01*
X22402519Y-50875000D01*
X22411970Y-50892682D01*
X22477486Y-50972514D01*
X22510978Y-51000000D01*
X22477486Y-51027486D01*
X22411970Y-51107318D01*
X22363287Y-51198397D01*
X22333309Y-51297224D01*
X22323186Y-51400000D01*
X22323186Y-51525000D01*
X22023331Y-51525000D01*
X21999999Y-51522702D01*
X21906883Y-51531873D01*
X21879722Y-51540112D01*
X21817346Y-51559034D01*
X21734827Y-51603141D01*
X21662499Y-51662499D01*
X21647620Y-51680629D01*
X21080634Y-52247616D01*
X21062499Y-52262499D01*
X21003141Y-52334827D01*
X20959034Y-52417347D01*
X20950749Y-52444660D01*
X20931873Y-52506884D01*
X20922702Y-52600000D01*
X20925000Y-52623333D01*
X20925001Y-53837550D01*
X20037552Y-54725000D01*
X15762450Y-54725000D01*
X15275019Y-54237571D01*
X15275019Y-50396750D01*
X15519372Y-50152398D01*
X15537502Y-50137519D01*
X15596860Y-50065191D01*
X15640967Y-49982672D01*
X15668128Y-49893134D01*
X15668613Y-49888215D01*
X15677299Y-49800018D01*
X15675001Y-49776686D01*
X15675001Y-49583647D01*
X15688199Y-49608339D01*
G37*
G04 #@! TD.AperFunction*
D18*
X26623186Y-38300000D02*
X26630426Y-38373513D01*
X26651869Y-38444200D01*
X26681695Y-38500000D01*
X26651869Y-38555800D01*
X26630426Y-38626487D01*
X26623186Y-38700000D01*
X26623186Y-39300000D01*
X26630426Y-39373513D01*
X26651869Y-39444200D01*
X26681695Y-39500000D01*
X26651869Y-39555800D01*
X26630426Y-39626487D01*
X26623186Y-39700000D01*
X26623186Y-40300000D01*
X26630426Y-40373513D01*
X26651869Y-40444200D01*
X26686691Y-40509347D01*
X26733552Y-40566448D01*
X26790653Y-40613309D01*
X26855800Y-40648131D01*
X26926487Y-40669574D01*
X27000000Y-40676814D01*
X29400000Y-40676814D01*
X29473513Y-40669574D01*
X29544200Y-40648131D01*
X29550001Y-40645030D01*
X29550001Y-43022105D01*
X29551879Y-43041172D01*
X29551862Y-43043577D01*
X29552475Y-43049830D01*
X29560635Y-43127469D01*
X29568846Y-43167472D01*
X29576479Y-43207486D01*
X29578295Y-43213501D01*
X29601380Y-43288075D01*
X29617198Y-43325706D01*
X29632463Y-43363488D01*
X29635412Y-43369036D01*
X29672542Y-43437706D01*
X29695344Y-43471511D01*
X29717682Y-43505648D01*
X29721653Y-43510517D01*
X29771414Y-43570668D01*
X29800378Y-43599430D01*
X29828892Y-43628548D01*
X29833733Y-43632553D01*
X29894230Y-43681893D01*
X29928228Y-43704481D01*
X29961855Y-43727506D01*
X29967382Y-43730495D01*
X30036311Y-43767145D01*
X30074048Y-43782699D01*
X30111503Y-43798753D01*
X30117505Y-43800611D01*
X30192239Y-43823175D01*
X30232298Y-43831107D01*
X30272145Y-43839577D01*
X30278389Y-43840234D01*
X30278393Y-43840234D01*
X30355434Y-43847788D01*
X30377895Y-43850000D01*
X31550000Y-43850000D01*
X31550001Y-46150000D01*
X29377895Y-46150000D01*
X29358819Y-46151879D01*
X29356423Y-46151862D01*
X29350170Y-46152475D01*
X29272532Y-46160635D01*
X29232535Y-46168845D01*
X29192514Y-46176479D01*
X29186505Y-46178293D01*
X29186501Y-46178294D01*
X29186498Y-46178295D01*
X29186499Y-46178295D01*
X29111924Y-46201380D01*
X29074292Y-46217199D01*
X29036512Y-46232463D01*
X29030968Y-46235411D01*
X29030963Y-46235413D01*
X29030962Y-46235414D01*
X28962293Y-46272542D01*
X28928471Y-46295355D01*
X28894352Y-46317682D01*
X28889483Y-46321653D01*
X28829332Y-46371414D01*
X28800570Y-46400378D01*
X28771452Y-46428892D01*
X28767446Y-46433733D01*
X28718107Y-46494230D01*
X28695503Y-46528251D01*
X28672494Y-46561855D01*
X28669508Y-46567377D01*
X28669505Y-46567381D01*
X28669505Y-46567382D01*
X28632855Y-46636311D01*
X28617301Y-46674048D01*
X28601247Y-46711503D01*
X28599389Y-46717505D01*
X28576825Y-46792239D01*
X28568896Y-46832283D01*
X28560423Y-46872144D01*
X28560208Y-46874191D01*
X28550000Y-46873186D01*
X25167786Y-46873186D01*
X25167794Y-46873159D01*
X25175000Y-46800000D01*
X25175000Y-45600000D01*
X25167794Y-45526841D01*
X25146455Y-45456494D01*
X25111801Y-45391661D01*
X25065165Y-45334835D01*
X25008339Y-45288199D01*
X24943506Y-45253545D01*
X24873159Y-45232206D01*
X24800000Y-45225000D01*
X24676814Y-45225000D01*
X24676814Y-43000000D01*
X24669574Y-42926487D01*
X24648131Y-42855800D01*
X24613309Y-42790653D01*
X24566448Y-42733552D01*
X24509347Y-42686691D01*
X24444200Y-42651869D01*
X24373513Y-42630426D01*
X24300000Y-42623186D01*
X23700000Y-42623186D01*
X23626487Y-42630426D01*
X23555800Y-42651869D01*
X23500000Y-42681695D01*
X23444200Y-42651869D01*
X23373513Y-42630426D01*
X23300000Y-42623186D01*
X22700000Y-42623186D01*
X22626487Y-42630426D01*
X22555800Y-42651869D01*
X22500000Y-42681695D01*
X22444200Y-42651869D01*
X22373513Y-42630426D01*
X22300000Y-42623186D01*
X22118750Y-42625000D01*
X22025000Y-42718750D01*
X22025000Y-44175000D01*
X22045000Y-44175000D01*
X22045000Y-44225000D01*
X22025000Y-44225000D01*
X22025000Y-44245000D01*
X21975000Y-44245000D01*
X21975000Y-44225000D01*
X21955000Y-44225000D01*
X21955000Y-44175000D01*
X21975000Y-44175000D01*
X21975000Y-42718750D01*
X21881250Y-42625000D01*
X21775000Y-42623937D01*
X21775000Y-42355330D01*
X26055330Y-38075000D01*
X26166482Y-38075000D01*
X26296890Y-38049060D01*
X26419732Y-37998177D01*
X26530287Y-37924307D01*
X26623186Y-37831408D01*
X26623186Y-38300000D01*
G04 #@! TA.AperFunction,Conductor*
D19*
G36*
X26623186Y-38300000D02*
G01*
X26630426Y-38373513D01*
X26651869Y-38444200D01*
X26681695Y-38500000D01*
X26651869Y-38555800D01*
X26630426Y-38626487D01*
X26623186Y-38700000D01*
X26623186Y-39300000D01*
X26630426Y-39373513D01*
X26651869Y-39444200D01*
X26681695Y-39500000D01*
X26651869Y-39555800D01*
X26630426Y-39626487D01*
X26623186Y-39700000D01*
X26623186Y-40300000D01*
X26630426Y-40373513D01*
X26651869Y-40444200D01*
X26686691Y-40509347D01*
X26733552Y-40566448D01*
X26790653Y-40613309D01*
X26855800Y-40648131D01*
X26926487Y-40669574D01*
X27000000Y-40676814D01*
X29400000Y-40676814D01*
X29473513Y-40669574D01*
X29544200Y-40648131D01*
X29550001Y-40645030D01*
X29550001Y-43022105D01*
X29551879Y-43041172D01*
X29551862Y-43043577D01*
X29552475Y-43049830D01*
X29560635Y-43127469D01*
X29568846Y-43167472D01*
X29576479Y-43207486D01*
X29578295Y-43213501D01*
X29601380Y-43288075D01*
X29617198Y-43325706D01*
X29632463Y-43363488D01*
X29635412Y-43369036D01*
X29672542Y-43437706D01*
X29695344Y-43471511D01*
X29717682Y-43505648D01*
X29721653Y-43510517D01*
X29771414Y-43570668D01*
X29800378Y-43599430D01*
X29828892Y-43628548D01*
X29833733Y-43632553D01*
X29894230Y-43681893D01*
X29928228Y-43704481D01*
X29961855Y-43727506D01*
X29967382Y-43730495D01*
X30036311Y-43767145D01*
X30074048Y-43782699D01*
X30111503Y-43798753D01*
X30117505Y-43800611D01*
X30192239Y-43823175D01*
X30232298Y-43831107D01*
X30272145Y-43839577D01*
X30278389Y-43840234D01*
X30278393Y-43840234D01*
X30355434Y-43847788D01*
X30377895Y-43850000D01*
X31550000Y-43850000D01*
X31550001Y-46150000D01*
X29377895Y-46150000D01*
X29358819Y-46151879D01*
X29356423Y-46151862D01*
X29350170Y-46152475D01*
X29272532Y-46160635D01*
X29232535Y-46168845D01*
X29192514Y-46176479D01*
X29186505Y-46178293D01*
X29186501Y-46178294D01*
X29186498Y-46178295D01*
X29186499Y-46178295D01*
X29111924Y-46201380D01*
X29074292Y-46217199D01*
X29036512Y-46232463D01*
X29030968Y-46235411D01*
X29030963Y-46235413D01*
X29030962Y-46235414D01*
X28962293Y-46272542D01*
X28928471Y-46295355D01*
X28894352Y-46317682D01*
X28889483Y-46321653D01*
X28829332Y-46371414D01*
X28800570Y-46400378D01*
X28771452Y-46428892D01*
X28767446Y-46433733D01*
X28718107Y-46494230D01*
X28695503Y-46528251D01*
X28672494Y-46561855D01*
X28669508Y-46567377D01*
X28669505Y-46567381D01*
X28669505Y-46567382D01*
X28632855Y-46636311D01*
X28617301Y-46674048D01*
X28601247Y-46711503D01*
X28599389Y-46717505D01*
X28576825Y-46792239D01*
X28568896Y-46832283D01*
X28560423Y-46872144D01*
X28560208Y-46874191D01*
X28550000Y-46873186D01*
X25167786Y-46873186D01*
X25167794Y-46873159D01*
X25175000Y-46800000D01*
X25175000Y-45600000D01*
X25167794Y-45526841D01*
X25146455Y-45456494D01*
X25111801Y-45391661D01*
X25065165Y-45334835D01*
X25008339Y-45288199D01*
X24943506Y-45253545D01*
X24873159Y-45232206D01*
X24800000Y-45225000D01*
X24676814Y-45225000D01*
X24676814Y-43000000D01*
X24669574Y-42926487D01*
X24648131Y-42855800D01*
X24613309Y-42790653D01*
X24566448Y-42733552D01*
X24509347Y-42686691D01*
X24444200Y-42651869D01*
X24373513Y-42630426D01*
X24300000Y-42623186D01*
X23700000Y-42623186D01*
X23626487Y-42630426D01*
X23555800Y-42651869D01*
X23500000Y-42681695D01*
X23444200Y-42651869D01*
X23373513Y-42630426D01*
X23300000Y-42623186D01*
X22700000Y-42623186D01*
X22626487Y-42630426D01*
X22555800Y-42651869D01*
X22500000Y-42681695D01*
X22444200Y-42651869D01*
X22373513Y-42630426D01*
X22300000Y-42623186D01*
X22118750Y-42625000D01*
X22025000Y-42718750D01*
X22025000Y-44175000D01*
X22045000Y-44175000D01*
X22045000Y-44225000D01*
X22025000Y-44225000D01*
X22025000Y-44245000D01*
X21975000Y-44245000D01*
X21975000Y-44225000D01*
X21955000Y-44225000D01*
X21955000Y-44175000D01*
X21975000Y-44175000D01*
X21975000Y-42718750D01*
X21881250Y-42625000D01*
X21775000Y-42623937D01*
X21775000Y-42355330D01*
X26055330Y-38075000D01*
X26166482Y-38075000D01*
X26296890Y-38049060D01*
X26419732Y-37998177D01*
X26530287Y-37924307D01*
X26623186Y-37831408D01*
X26623186Y-38300000D01*
G37*
G04 #@! TD.AperFunction*
D18*
X28225000Y-33975000D02*
X28245000Y-33975000D01*
X28245000Y-34025000D01*
X28225000Y-34025000D01*
X28225000Y-34975000D01*
X28245000Y-34975000D01*
X28245000Y-35025000D01*
X28225000Y-35025000D01*
X28225000Y-35045000D01*
X28175000Y-35045000D01*
X28175000Y-35025000D01*
X28155000Y-35025000D01*
X28155000Y-34975000D01*
X28175000Y-34975000D01*
X28175000Y-34025000D01*
X28155000Y-34025000D01*
X28155000Y-33975000D01*
X28175000Y-33975000D01*
X28175000Y-33955000D01*
X28225000Y-33955000D01*
X28225000Y-33975000D01*
G04 #@! TA.AperFunction,Conductor*
D19*
G36*
X28225000Y-33975000D02*
G01*
X28245000Y-33975000D01*
X28245000Y-34025000D01*
X28225000Y-34025000D01*
X28225000Y-34975000D01*
X28245000Y-34975000D01*
X28245000Y-35025000D01*
X28225000Y-35025000D01*
X28225000Y-35045000D01*
X28175000Y-35045000D01*
X28175000Y-35025000D01*
X28155000Y-35025000D01*
X28155000Y-34975000D01*
X28175000Y-34975000D01*
X28175000Y-34025000D01*
X28155000Y-34025000D01*
X28155000Y-33975000D01*
X28175000Y-33975000D01*
X28175000Y-33955000D01*
X28225000Y-33955000D01*
X28225000Y-33975000D01*
G37*
G04 #@! TD.AperFunction*
D18*
X28225000Y-27975000D02*
X28245000Y-27975000D01*
X28245000Y-28025000D01*
X28225000Y-28025000D01*
X28225000Y-28045000D01*
X28175000Y-28045000D01*
X28175000Y-28025000D01*
X28155000Y-28025000D01*
X28155000Y-27975000D01*
X28175000Y-27975000D01*
X28175000Y-27955000D01*
X28225000Y-27955000D01*
X28225000Y-27975000D01*
G04 #@! TA.AperFunction,Conductor*
D19*
G36*
X28225000Y-27975000D02*
G01*
X28245000Y-27975000D01*
X28245000Y-28025000D01*
X28225000Y-28025000D01*
X28225000Y-28045000D01*
X28175000Y-28045000D01*
X28175000Y-28025000D01*
X28155000Y-28025000D01*
X28155000Y-27975000D01*
X28175000Y-27975000D01*
X28175000Y-27955000D01*
X28225000Y-27955000D01*
X28225000Y-27975000D01*
G37*
G04 #@! TD.AperFunction*
D18*
X29377895Y-17850000D02*
X31550001Y-17850000D01*
X31550000Y-20150000D01*
X30377895Y-20150000D01*
X30358819Y-20151879D01*
X30356423Y-20151862D01*
X30350170Y-20152475D01*
X30272532Y-20160635D01*
X30232535Y-20168845D01*
X30192514Y-20176479D01*
X30186505Y-20178293D01*
X30186501Y-20178294D01*
X30186498Y-20178295D01*
X30186499Y-20178295D01*
X30111924Y-20201380D01*
X30074292Y-20217199D01*
X30036512Y-20232463D01*
X30030968Y-20235411D01*
X30030963Y-20235413D01*
X30030962Y-20235414D01*
X29962293Y-20272542D01*
X29928471Y-20295355D01*
X29894352Y-20317682D01*
X29889483Y-20321653D01*
X29829332Y-20371414D01*
X29800570Y-20400378D01*
X29771452Y-20428892D01*
X29767446Y-20433733D01*
X29718107Y-20494230D01*
X29695503Y-20528251D01*
X29672494Y-20561855D01*
X29669508Y-20567377D01*
X29669505Y-20567381D01*
X29669505Y-20567382D01*
X29632855Y-20636311D01*
X29617301Y-20674048D01*
X29601247Y-20711503D01*
X29599389Y-20717505D01*
X29576825Y-20792239D01*
X29568896Y-20832283D01*
X29560423Y-20872144D01*
X29559766Y-20878393D01*
X29552168Y-20955883D01*
X29550000Y-20977896D01*
X29550000Y-23354969D01*
X29544200Y-23351869D01*
X29473513Y-23330426D01*
X29400000Y-23323186D01*
X29375000Y-23323186D01*
X29375000Y-17849715D01*
X29377895Y-17850000D01*
G04 #@! TA.AperFunction,Conductor*
D19*
G36*
X29377895Y-17850000D02*
G01*
X31550001Y-17850000D01*
X31550000Y-20150000D01*
X30377895Y-20150000D01*
X30358819Y-20151879D01*
X30356423Y-20151862D01*
X30350170Y-20152475D01*
X30272532Y-20160635D01*
X30232535Y-20168845D01*
X30192514Y-20176479D01*
X30186505Y-20178293D01*
X30186501Y-20178294D01*
X30186498Y-20178295D01*
X30186499Y-20178295D01*
X30111924Y-20201380D01*
X30074292Y-20217199D01*
X30036512Y-20232463D01*
X30030968Y-20235411D01*
X30030963Y-20235413D01*
X30030962Y-20235414D01*
X29962293Y-20272542D01*
X29928471Y-20295355D01*
X29894352Y-20317682D01*
X29889483Y-20321653D01*
X29829332Y-20371414D01*
X29800570Y-20400378D01*
X29771452Y-20428892D01*
X29767446Y-20433733D01*
X29718107Y-20494230D01*
X29695503Y-20528251D01*
X29672494Y-20561855D01*
X29669508Y-20567377D01*
X29669505Y-20567381D01*
X29669505Y-20567382D01*
X29632855Y-20636311D01*
X29617301Y-20674048D01*
X29601247Y-20711503D01*
X29599389Y-20717505D01*
X29576825Y-20792239D01*
X29568896Y-20832283D01*
X29560423Y-20872144D01*
X29559766Y-20878393D01*
X29552168Y-20955883D01*
X29550000Y-20977896D01*
X29550000Y-23354969D01*
X29544200Y-23351869D01*
X29473513Y-23330426D01*
X29400000Y-23323186D01*
X29375000Y-23323186D01*
X29375000Y-17849715D01*
X29377895Y-17850000D01*
G37*
G04 #@! TD.AperFunction*
D18*
X23490653Y-45713309D02*
X23555800Y-45748131D01*
X23626487Y-45769574D01*
X23700000Y-45776814D01*
X24300000Y-45776814D01*
X24373513Y-45769574D01*
X24444200Y-45748131D01*
X24509347Y-45713309D01*
X24556027Y-45675000D01*
X24725000Y-45675000D01*
X24725000Y-46725000D01*
X22175000Y-46725000D01*
X22175000Y-45776814D01*
X22300000Y-45776814D01*
X22373513Y-45769574D01*
X22444200Y-45748131D01*
X22509347Y-45713309D01*
X22556027Y-45675000D01*
X23443973Y-45675000D01*
X23490653Y-45713309D01*
G04 #@! TA.AperFunction,Conductor*
D19*
G36*
X23490653Y-45713309D02*
G01*
X23555800Y-45748131D01*
X23626487Y-45769574D01*
X23700000Y-45776814D01*
X24300000Y-45776814D01*
X24373513Y-45769574D01*
X24444200Y-45748131D01*
X24509347Y-45713309D01*
X24556027Y-45675000D01*
X24725000Y-45675000D01*
X24725000Y-46725000D01*
X22175000Y-46725000D01*
X22175000Y-45776814D01*
X22300000Y-45776814D01*
X22373513Y-45769574D01*
X22444200Y-45748131D01*
X22509347Y-45713309D01*
X22556027Y-45675000D01*
X23443973Y-45675000D01*
X23490653Y-45713309D01*
G37*
G04 #@! TD.AperFunction*
D18*
X22648397Y-11086713D02*
X22747224Y-11116691D01*
X22850000Y-11126814D01*
X28550000Y-11126814D01*
X28550000Y-17022104D01*
X28551879Y-17041180D01*
X28551862Y-17043577D01*
X28552475Y-17049830D01*
X28560635Y-17127469D01*
X28568846Y-17167472D01*
X28576479Y-17207486D01*
X28578295Y-17213501D01*
X28601380Y-17288075D01*
X28617198Y-17325706D01*
X28632463Y-17363488D01*
X28635412Y-17369036D01*
X28672542Y-17437706D01*
X28695344Y-17471511D01*
X28717682Y-17505648D01*
X28721653Y-17510517D01*
X28733634Y-17525000D01*
X24675000Y-17525000D01*
X24675000Y-17000000D01*
X24673559Y-16985368D01*
X24669291Y-16971299D01*
X24662360Y-16958332D01*
X24653033Y-16946967D01*
X24641668Y-16937640D01*
X24628701Y-16930709D01*
X24614632Y-16926441D01*
X24600000Y-16925000D01*
X22475000Y-16925000D01*
X22475000Y-11075000D01*
X22626484Y-11075000D01*
X22648397Y-11086713D01*
G04 #@! TA.AperFunction,Conductor*
D19*
G36*
X22648397Y-11086713D02*
G01*
X22747224Y-11116691D01*
X22850000Y-11126814D01*
X28550000Y-11126814D01*
X28550000Y-17022104D01*
X28551879Y-17041180D01*
X28551862Y-17043577D01*
X28552475Y-17049830D01*
X28560635Y-17127469D01*
X28568846Y-17167472D01*
X28576479Y-17207486D01*
X28578295Y-17213501D01*
X28601380Y-17288075D01*
X28617198Y-17325706D01*
X28632463Y-17363488D01*
X28635412Y-17369036D01*
X28672542Y-17437706D01*
X28695344Y-17471511D01*
X28717682Y-17505648D01*
X28721653Y-17510517D01*
X28733634Y-17525000D01*
X24675000Y-17525000D01*
X24675000Y-17000000D01*
X24673559Y-16985368D01*
X24669291Y-16971299D01*
X24662360Y-16958332D01*
X24653033Y-16946967D01*
X24641668Y-16937640D01*
X24628701Y-16930709D01*
X24614632Y-16926441D01*
X24600000Y-16925000D01*
X22475000Y-16925000D01*
X22475000Y-11075000D01*
X22626484Y-11075000D01*
X22648397Y-11086713D01*
G37*
G04 #@! TD.AperFunction*
M02*
