G04 #@! TF.GenerationSoftware,KiCad,Pcbnew,(5.1.9)-1*
G04 #@! TF.CreationDate,2023-01-31T21:08:26+01:00*
G04 #@! TF.ProjectId,Side,53696465-2e6b-4696-9361-645f70636258,rev?*
G04 #@! TF.SameCoordinates,PXd59f80PYd59f80*
G04 #@! TF.FileFunction,Copper,L1,Top*
G04 #@! TF.FilePolarity,Positive*
%FSLAX46Y46*%
G04 Gerber Fmt 4.6, Leading zero omitted, Abs format (unit mm)*
G04 Created by KiCad (PCBNEW (5.1.9)-1) date 2023-01-31 21:08:26*
%MOMM*%
%LPD*%
G01*
G04 APERTURE LIST*
G04 #@! TA.AperFunction,SMDPad,CuDef*
%ADD10R,0.900000X0.450000*%
G04 #@! TD*
G04 #@! TA.AperFunction,SMDPad,CuDef*
%ADD11R,0.900000X0.350000*%
G04 #@! TD*
G04 #@! TA.AperFunction,SMDPad,CuDef*
%ADD12R,1.000000X0.700000*%
G04 #@! TD*
G04 #@! TA.AperFunction,SMDPad,CuDef*
%ADD13R,2.000000X1.200000*%
G04 #@! TD*
G04 #@! TA.AperFunction,SMDPad,CuDef*
%ADD14R,2.000000X0.650000*%
G04 #@! TD*
G04 #@! TA.AperFunction,ComponentPad*
%ADD15O,0.800000X0.800000*%
G04 #@! TD*
G04 #@! TA.AperFunction,SMDPad,CuDef*
%ADD16R,1.000000X1.600000*%
G04 #@! TD*
G04 #@! TA.AperFunction,SMDPad,CuDef*
%ADD17R,0.900000X0.250000*%
G04 #@! TD*
G04 #@! TA.AperFunction,SMDPad,CuDef*
%ADD18C,0.100000*%
G04 #@! TD*
G04 #@! TA.AperFunction,SMDPad,CuDef*
%ADD19R,0.250000X0.900000*%
G04 #@! TD*
G04 #@! TA.AperFunction,SMDPad,CuDef*
%ADD20R,0.900000X0.270000*%
G04 #@! TD*
G04 #@! TA.AperFunction,SMDPad,CuDef*
%ADD21R,0.800000X0.800000*%
G04 #@! TD*
G04 #@! TA.AperFunction,SMDPad,CuDef*
%ADD22R,0.700000X1.000000*%
G04 #@! TD*
G04 #@! TA.AperFunction,SMDPad,CuDef*
%ADD23R,2.000000X0.400000*%
G04 #@! TD*
G04 #@! TA.AperFunction,SMDPad,CuDef*
%ADD24R,2.000000X2.000000*%
G04 #@! TD*
G04 #@! TA.AperFunction,SMDPad,CuDef*
%ADD25R,1.100000X0.400000*%
G04 #@! TD*
G04 #@! TA.AperFunction,SMDPad,CuDef*
%ADD26R,1.000000X0.600000*%
G04 #@! TD*
G04 #@! TA.AperFunction,SMDPad,CuDef*
%ADD27R,1.200000X1.000000*%
G04 #@! TD*
G04 #@! TA.AperFunction,SMDPad,CuDef*
%ADD28R,1.700000X1.200000*%
G04 #@! TD*
G04 #@! TA.AperFunction,SMDPad,CuDef*
%ADD29R,2.400000X1.600000*%
G04 #@! TD*
G04 #@! TA.AperFunction,SMDPad,CuDef*
%ADD30R,2.800000X2.800000*%
G04 #@! TD*
G04 #@! TA.AperFunction,SMDPad,CuDef*
%ADD31R,1.200000X0.550000*%
G04 #@! TD*
G04 #@! TA.AperFunction,SMDPad,CuDef*
%ADD32R,1.300000X1.000000*%
G04 #@! TD*
G04 #@! TA.AperFunction,ViaPad*
%ADD33C,0.600000*%
G04 #@! TD*
G04 #@! TA.AperFunction,Conductor*
%ADD34C,0.200000*%
G04 #@! TD*
G04 #@! TA.AperFunction,Conductor*
%ADD35C,0.300000*%
G04 #@! TD*
G04 #@! TA.AperFunction,Conductor*
%ADD36C,1.000000*%
G04 #@! TD*
G04 #@! TA.AperFunction,Conductor*
%ADD37C,0.500000*%
G04 #@! TD*
G04 #@! TA.AperFunction,Conductor*
%ADD38C,0.150000*%
G04 #@! TD*
G04 #@! TA.AperFunction,Conductor*
%ADD39C,0.100000*%
G04 #@! TD*
G04 APERTURE END LIST*
D10*
X9850000Y-44450000D03*
X9850000Y-45750000D03*
X7750000Y-45100000D03*
D11*
X9850000Y-51500000D03*
X9850000Y-52150000D03*
X9850000Y-50850000D03*
X7750000Y-50850000D03*
X7750000Y-52150000D03*
X7750000Y-51500000D03*
D12*
X8800000Y-9050000D03*
X8800000Y-10550000D03*
D13*
X9000000Y-38700000D03*
X9000000Y-25300000D03*
X1200000Y-38700000D03*
D14*
X13000000Y-28200000D03*
X13000000Y-29300000D03*
X13000000Y-30400000D03*
X13000000Y-31500000D03*
X13000000Y-32600000D03*
X13000000Y-33700000D03*
X13000000Y-34800000D03*
X13000000Y-35900000D03*
D13*
X1200000Y-25300000D03*
D14*
X13000000Y-37000000D03*
D15*
X650000Y-49000000D03*
X650000Y-45000000D03*
D16*
X2150000Y-48900000D03*
X2150000Y-45100000D03*
X650000Y-48900000D03*
X650000Y-45100000D03*
D17*
X15950000Y-20425000D03*
G04 #@! TA.AperFunction,SMDPad,CuDef*
D18*
G36*
X16499985Y-20399993D02*
G01*
X16400007Y-20400000D01*
X16400000Y-20399993D01*
X16400007Y-20300015D01*
X16499985Y-20399993D01*
G37*
G04 #@! TD.AperFunction*
D19*
X16375000Y-20850000D03*
X18825000Y-20850000D03*
G04 #@! TA.AperFunction,SMDPad,CuDef*
D18*
G36*
X18799993Y-20300015D02*
G01*
X18800000Y-20399993D01*
X18799993Y-20400000D01*
X18700015Y-20399993D01*
X18799993Y-20300015D01*
G37*
G04 #@! TD.AperFunction*
D17*
X19250000Y-20425000D03*
D19*
X18825000Y-17550000D03*
G04 #@! TA.AperFunction,SMDPad,CuDef*
D18*
G36*
X18700015Y-18000007D02*
G01*
X18799993Y-18000000D01*
X18800000Y-18000007D01*
X18799993Y-18099985D01*
X18700015Y-18000007D01*
G37*
G04 #@! TD.AperFunction*
D17*
X19250000Y-17975000D03*
G04 #@! TA.AperFunction,SMDPad,CuDef*
D18*
G36*
X16400007Y-18099985D02*
G01*
X16400000Y-18000007D01*
X16400007Y-18000000D01*
X16499985Y-18000007D01*
X16400007Y-18099985D01*
G37*
G04 #@! TD.AperFunction*
D19*
X16375000Y-17550000D03*
D17*
X15950000Y-17975000D03*
D20*
X15950000Y-18950000D03*
D17*
X15950000Y-19450000D03*
X15950000Y-19950000D03*
X15950000Y-18450000D03*
D19*
X16850000Y-20850000D03*
X18350000Y-20850000D03*
X17850000Y-20850000D03*
X17350000Y-20850000D03*
X17850000Y-17550000D03*
X17350000Y-17550000D03*
X16850000Y-17550000D03*
X18350000Y-17550000D03*
D17*
X19250000Y-19950000D03*
X19250000Y-18450000D03*
X19250000Y-18950000D03*
X19250000Y-19450000D03*
D21*
X18000000Y-18800000D03*
X17200000Y-18800000D03*
X17200000Y-19600000D03*
X18000000Y-19600000D03*
D12*
X25800000Y-36150000D03*
X25800000Y-34650000D03*
D22*
X25850000Y-46200000D03*
X24350000Y-46200000D03*
D12*
X25800000Y-39550000D03*
X25800000Y-38050000D03*
D23*
X4800000Y-19200000D03*
X4800000Y-18550000D03*
X4800000Y-17900000D03*
X4800000Y-19850000D03*
X4800000Y-20500000D03*
D24*
X1900000Y-15800000D03*
X1900000Y-22600000D03*
D25*
X5750000Y-41500000D03*
X4050000Y-41500000D03*
X4050000Y-42300000D03*
X5750000Y-42300000D03*
X5750000Y-43100000D03*
X4050000Y-43100000D03*
X4050000Y-40700000D03*
X5750000Y-40700000D03*
D26*
X1100000Y-42325000D03*
X1100000Y-41475000D03*
D27*
X750000Y-40400000D03*
X750000Y-43400000D03*
D12*
X4900000Y-46250000D03*
X4900000Y-47750000D03*
D11*
X7750000Y-41900000D03*
X7750000Y-41250000D03*
X7750000Y-42550000D03*
X9850000Y-42550000D03*
X9850000Y-41250000D03*
X9850000Y-41900000D03*
D28*
X8800000Y-12400000D03*
X8800000Y-15600000D03*
D11*
X16550000Y-37800000D03*
X16550000Y-37150000D03*
X16550000Y-38450000D03*
X18650000Y-38450000D03*
X18650000Y-37150000D03*
X18650000Y-37800000D03*
D29*
X17600000Y-13200000D03*
X17600000Y-8800000D03*
D22*
X16850000Y-31000000D03*
X18350000Y-31000000D03*
D25*
X18450000Y-33600000D03*
X16750000Y-33600000D03*
X16750000Y-34400000D03*
X18450000Y-34400000D03*
X18450000Y-35200000D03*
X16750000Y-35200000D03*
X16750000Y-32800000D03*
X18450000Y-32800000D03*
D12*
X8800000Y-22050000D03*
X8800000Y-23550000D03*
D22*
X18350000Y-44200000D03*
X16850000Y-44200000D03*
D30*
X17600000Y-54400000D03*
X17600000Y-48000000D03*
D22*
X18350000Y-27400000D03*
X16850000Y-27400000D03*
X18350000Y-29200000D03*
X16850000Y-29200000D03*
X16850000Y-23800000D03*
X18350000Y-23800000D03*
X18350000Y-25600000D03*
X16850000Y-25600000D03*
D31*
X10006500Y-19200000D03*
X10006500Y-18247500D03*
X10006500Y-20152500D03*
X7593500Y-20152500D03*
X7593500Y-19200000D03*
X7593500Y-18247500D03*
D22*
X9550000Y-58400000D03*
X8050000Y-58400000D03*
D11*
X9850000Y-48300000D03*
X9850000Y-48950000D03*
X9850000Y-47650000D03*
X7750000Y-47650000D03*
X7750000Y-48950000D03*
X7750000Y-48300000D03*
D25*
X7950000Y-55700000D03*
X9650000Y-55700000D03*
X9650000Y-54900000D03*
X7950000Y-54900000D03*
X7950000Y-54100000D03*
X9650000Y-54100000D03*
X9650000Y-56500000D03*
X7950000Y-56500000D03*
G04 #@! TA.AperFunction,SMDPad,CuDef*
G36*
G01*
X22700000Y-16600000D02*
X22700000Y-15400000D01*
G75*
G02*
X22850000Y-15250000I150000J0D01*
G01*
X28550000Y-15250000D01*
G75*
G02*
X28700000Y-15400000I0J-150000D01*
G01*
X28700000Y-16600000D01*
G75*
G02*
X28550000Y-16750000I-150000J0D01*
G01*
X22850000Y-16750000D01*
G75*
G02*
X22700000Y-16600000I0J150000D01*
G01*
G37*
G04 #@! TD.AperFunction*
G04 #@! TA.AperFunction,SMDPad,CuDef*
G36*
G01*
X22700000Y-14600000D02*
X22700000Y-13400000D01*
G75*
G02*
X22850000Y-13250000I150000J0D01*
G01*
X28550000Y-13250000D01*
G75*
G02*
X28700000Y-13400000I0J-150000D01*
G01*
X28700000Y-14600000D01*
G75*
G02*
X28550000Y-14750000I-150000J0D01*
G01*
X22850000Y-14750000D01*
G75*
G02*
X22700000Y-14600000I0J150000D01*
G01*
G37*
G04 #@! TD.AperFunction*
G04 #@! TA.AperFunction,SMDPad,CuDef*
G36*
G01*
X22700000Y-12600000D02*
X22700000Y-11400000D01*
G75*
G02*
X22850000Y-11250000I150000J0D01*
G01*
X28550000Y-11250000D01*
G75*
G02*
X28700000Y-11400000I0J-150000D01*
G01*
X28700000Y-12600000D01*
G75*
G02*
X28550000Y-12750000I-150000J0D01*
G01*
X22850000Y-12750000D01*
G75*
G02*
X22700000Y-12600000I0J150000D01*
G01*
G37*
G04 #@! TD.AperFunction*
G04 #@! TA.AperFunction,SMDPad,CuDef*
G36*
G01*
X22700000Y-10600000D02*
X22700000Y-9400000D01*
G75*
G02*
X22850000Y-9250000I150000J0D01*
G01*
X28550000Y-9250000D01*
G75*
G02*
X28700000Y-9400000I0J-150000D01*
G01*
X28700000Y-10600000D01*
G75*
G02*
X28550000Y-10750000I-150000J0D01*
G01*
X22850000Y-10750000D01*
G75*
G02*
X22700000Y-10600000I0J150000D01*
G01*
G37*
G04 #@! TD.AperFunction*
G04 #@! TA.AperFunction,SMDPad,CuDef*
G36*
G01*
X22700000Y-8600000D02*
X22700000Y-7400000D01*
G75*
G02*
X22850000Y-7250000I150000J0D01*
G01*
X28550000Y-7250000D01*
G75*
G02*
X28700000Y-7400000I0J-150000D01*
G01*
X28700000Y-8600000D01*
G75*
G02*
X28550000Y-8750000I-150000J0D01*
G01*
X22850000Y-8750000D01*
G75*
G02*
X22700000Y-8600000I0J150000D01*
G01*
G37*
G04 #@! TD.AperFunction*
G04 #@! TA.AperFunction,SMDPad,CuDef*
G36*
G01*
X22700000Y-6600000D02*
X22700000Y-5400000D01*
G75*
G02*
X22850000Y-5250000I150000J0D01*
G01*
X28550000Y-5250000D01*
G75*
G02*
X28700000Y-5400000I0J-150000D01*
G01*
X28700000Y-6600000D01*
G75*
G02*
X28550000Y-6750000I-150000J0D01*
G01*
X22850000Y-6750000D01*
G75*
G02*
X22700000Y-6600000I0J150000D01*
G01*
G37*
G04 #@! TD.AperFunction*
G04 #@! TA.AperFunction,SMDPad,CuDef*
G36*
G01*
X22700000Y-4600000D02*
X22700000Y-3400000D01*
G75*
G02*
X22850000Y-3250000I150000J0D01*
G01*
X28550000Y-3250000D01*
G75*
G02*
X28700000Y-3400000I0J-150000D01*
G01*
X28700000Y-4600000D01*
G75*
G02*
X28550000Y-4750000I-150000J0D01*
G01*
X22850000Y-4750000D01*
G75*
G02*
X22700000Y-4600000I0J150000D01*
G01*
G37*
G04 #@! TD.AperFunction*
G04 #@! TA.AperFunction,SMDPad,CuDef*
G36*
G01*
X22700000Y-2600000D02*
X22700000Y-1400000D01*
G75*
G02*
X22850000Y-1250000I150000J0D01*
G01*
X28550000Y-1250000D01*
G75*
G02*
X28700000Y-1400000I0J-150000D01*
G01*
X28700000Y-2600000D01*
G75*
G02*
X28550000Y-2750000I-150000J0D01*
G01*
X22850000Y-2750000D01*
G75*
G02*
X22700000Y-2600000I0J150000D01*
G01*
G37*
G04 #@! TD.AperFunction*
G04 #@! TA.AperFunction,SMDPad,CuDef*
G36*
G01*
X22700000Y-62600000D02*
X22700000Y-61400000D01*
G75*
G02*
X22850000Y-61250000I150000J0D01*
G01*
X28550000Y-61250000D01*
G75*
G02*
X28700000Y-61400000I0J-150000D01*
G01*
X28700000Y-62600000D01*
G75*
G02*
X28550000Y-62750000I-150000J0D01*
G01*
X22850000Y-62750000D01*
G75*
G02*
X22700000Y-62600000I0J150000D01*
G01*
G37*
G04 #@! TD.AperFunction*
G04 #@! TA.AperFunction,SMDPad,CuDef*
G36*
G01*
X22700000Y-60600000D02*
X22700000Y-59400000D01*
G75*
G02*
X22850000Y-59250000I150000J0D01*
G01*
X28550000Y-59250000D01*
G75*
G02*
X28700000Y-59400000I0J-150000D01*
G01*
X28700000Y-60600000D01*
G75*
G02*
X28550000Y-60750000I-150000J0D01*
G01*
X22850000Y-60750000D01*
G75*
G02*
X22700000Y-60600000I0J150000D01*
G01*
G37*
G04 #@! TD.AperFunction*
G04 #@! TA.AperFunction,SMDPad,CuDef*
G36*
G01*
X22700000Y-58600000D02*
X22700000Y-57400000D01*
G75*
G02*
X22850000Y-57250000I150000J0D01*
G01*
X28550000Y-57250000D01*
G75*
G02*
X28700000Y-57400000I0J-150000D01*
G01*
X28700000Y-58600000D01*
G75*
G02*
X28550000Y-58750000I-150000J0D01*
G01*
X22850000Y-58750000D01*
G75*
G02*
X22700000Y-58600000I0J150000D01*
G01*
G37*
G04 #@! TD.AperFunction*
G04 #@! TA.AperFunction,SMDPad,CuDef*
G36*
G01*
X22700000Y-56600000D02*
X22700000Y-55400000D01*
G75*
G02*
X22850000Y-55250000I150000J0D01*
G01*
X28550000Y-55250000D01*
G75*
G02*
X28700000Y-55400000I0J-150000D01*
G01*
X28700000Y-56600000D01*
G75*
G02*
X28550000Y-56750000I-150000J0D01*
G01*
X22850000Y-56750000D01*
G75*
G02*
X22700000Y-56600000I0J150000D01*
G01*
G37*
G04 #@! TD.AperFunction*
G04 #@! TA.AperFunction,SMDPad,CuDef*
G36*
G01*
X22700000Y-54600000D02*
X22700000Y-53400000D01*
G75*
G02*
X22850000Y-53250000I150000J0D01*
G01*
X28550000Y-53250000D01*
G75*
G02*
X28700000Y-53400000I0J-150000D01*
G01*
X28700000Y-54600000D01*
G75*
G02*
X28550000Y-54750000I-150000J0D01*
G01*
X22850000Y-54750000D01*
G75*
G02*
X22700000Y-54600000I0J150000D01*
G01*
G37*
G04 #@! TD.AperFunction*
G04 #@! TA.AperFunction,SMDPad,CuDef*
G36*
G01*
X22700000Y-52600000D02*
X22700000Y-51400000D01*
G75*
G02*
X22850000Y-51250000I150000J0D01*
G01*
X28550000Y-51250000D01*
G75*
G02*
X28700000Y-51400000I0J-150000D01*
G01*
X28700000Y-52600000D01*
G75*
G02*
X28550000Y-52750000I-150000J0D01*
G01*
X22850000Y-52750000D01*
G75*
G02*
X22700000Y-52600000I0J150000D01*
G01*
G37*
G04 #@! TD.AperFunction*
G04 #@! TA.AperFunction,SMDPad,CuDef*
G36*
G01*
X22700000Y-50600000D02*
X22700000Y-49400000D01*
G75*
G02*
X22850000Y-49250000I150000J0D01*
G01*
X28550000Y-49250000D01*
G75*
G02*
X28700000Y-49400000I0J-150000D01*
G01*
X28700000Y-50600000D01*
G75*
G02*
X28550000Y-50750000I-150000J0D01*
G01*
X22850000Y-50750000D01*
G75*
G02*
X22700000Y-50600000I0J150000D01*
G01*
G37*
G04 #@! TD.AperFunction*
G04 #@! TA.AperFunction,SMDPad,CuDef*
G36*
G01*
X22700000Y-48600000D02*
X22700000Y-47400000D01*
G75*
G02*
X22850000Y-47250000I150000J0D01*
G01*
X28550000Y-47250000D01*
G75*
G02*
X28700000Y-47400000I0J-150000D01*
G01*
X28700000Y-48600000D01*
G75*
G02*
X28550000Y-48750000I-150000J0D01*
G01*
X22850000Y-48750000D01*
G75*
G02*
X22700000Y-48600000I0J150000D01*
G01*
G37*
G04 #@! TD.AperFunction*
D32*
X25800000Y-43800000D03*
X25800000Y-41800000D03*
D33*
X8800000Y-8400000D03*
X9000000Y-26400000D03*
X9000000Y-37600000D03*
X10900000Y-57300000D03*
X21900000Y-57200000D03*
X10600000Y-53100000D03*
X13400000Y-55800000D03*
X15800000Y-37800000D03*
X12500000Y-21500000D03*
X16200000Y-31000000D03*
X27300000Y-28000000D03*
X29100000Y-28000000D03*
X16700000Y-54500000D03*
X18500000Y-54500000D03*
X17900000Y-54500000D03*
X17300000Y-54500000D03*
X16700000Y-53900000D03*
X18500000Y-53900000D03*
X17900000Y-53900000D03*
X17300000Y-53900000D03*
X16700000Y-53300000D03*
X17300000Y-53300000D03*
X17900000Y-53300000D03*
X18500000Y-53300000D03*
X19000000Y-36200000D03*
X30400000Y-45000000D03*
X14300000Y-35900000D03*
X6200000Y-20500000D03*
X8000000Y-22050000D03*
X30400000Y-19000000D03*
X18000000Y-45700000D03*
X29100000Y-35000000D03*
X29100000Y-34000000D03*
X27300000Y-34000000D03*
X27300000Y-35000000D03*
X22000000Y-42700000D03*
X5300000Y-39000000D03*
X26300000Y-10300000D03*
X26900000Y-10300000D03*
X25700000Y-10300000D03*
X24500000Y-9700000D03*
X24500000Y-10300000D03*
X27500000Y-9700000D03*
X25100000Y-9700000D03*
X28100000Y-10300000D03*
X27500000Y-10300000D03*
X26900000Y-9700000D03*
X25100000Y-10300000D03*
X26300000Y-9700000D03*
X28100000Y-9700000D03*
X25700000Y-9700000D03*
X23300000Y-10300000D03*
X23900000Y-9700000D03*
X23300000Y-9700000D03*
X23900000Y-10300000D03*
X3400000Y-20500000D03*
X5300000Y-24000000D03*
X18000000Y-42700000D03*
X17000000Y-42700000D03*
X23300000Y-6300000D03*
X23900000Y-5700000D03*
X23300000Y-5700000D03*
X23900000Y-6300000D03*
X28100000Y-5700000D03*
X24500000Y-5700000D03*
X25100000Y-5700000D03*
X25700000Y-5700000D03*
X25700000Y-6300000D03*
X26900000Y-6300000D03*
X24500000Y-6300000D03*
X27500000Y-5700000D03*
X26300000Y-6300000D03*
X25100000Y-6300000D03*
X28100000Y-6300000D03*
X26900000Y-5700000D03*
X26300000Y-5700000D03*
X27500000Y-6300000D03*
X23300000Y-8300000D03*
X23900000Y-7700000D03*
X23300000Y-7700000D03*
X23900000Y-8300000D03*
X28100000Y-7700000D03*
X24500000Y-7700000D03*
X25100000Y-7700000D03*
X25700000Y-7700000D03*
X25700000Y-8300000D03*
X26900000Y-8300000D03*
X24500000Y-8300000D03*
X27500000Y-7700000D03*
X26300000Y-8300000D03*
X25100000Y-8300000D03*
X28100000Y-8300000D03*
X26900000Y-7700000D03*
X26300000Y-7700000D03*
X27500000Y-8300000D03*
X14800000Y-18099998D03*
X8806766Y-41593234D03*
X6600000Y-45400000D03*
X13400000Y-41200000D03*
X25700000Y-47700000D03*
X25700000Y-48300000D03*
X27500000Y-48300000D03*
X28100000Y-47700000D03*
X24500000Y-48300000D03*
X28100000Y-48300000D03*
X26900000Y-48300000D03*
X26900000Y-47700000D03*
X27500000Y-47700000D03*
X26300000Y-47700000D03*
X26300000Y-48300000D03*
X23900000Y-47700000D03*
X25100000Y-47700000D03*
X23900000Y-48300000D03*
X23300000Y-47700000D03*
X23300000Y-48300000D03*
X24500000Y-47700000D03*
X25100000Y-48300000D03*
X7950000Y-53150000D03*
X8800000Y-50850000D03*
X6624265Y-49824265D03*
X8933850Y-57182380D03*
X16600000Y-22000000D03*
X15400000Y-22000000D03*
X18450000Y-22000000D03*
X14600000Y-46000000D03*
X14600000Y-49450000D03*
X15400000Y-25600000D03*
X16850000Y-25600000D03*
X14000000Y-46565687D03*
X21600000Y-34400000D03*
X21600000Y-33600000D03*
X21000000Y-32800000D03*
X20200000Y-31000000D03*
X20400000Y-37800000D03*
X20500000Y-43600000D03*
X19500000Y-43600000D03*
X18700000Y-48700000D03*
X18100000Y-48100000D03*
X17500000Y-47500000D03*
X18700000Y-48100000D03*
X18700000Y-47500000D03*
X18100000Y-47500000D03*
X17500000Y-46900000D03*
X18100000Y-46900000D03*
X18700000Y-46900000D03*
X19500000Y-44800000D03*
X20500000Y-44800000D03*
X20500000Y-44200000D03*
X19500000Y-44200000D03*
X25700000Y-11700000D03*
X25700000Y-15700000D03*
X25700000Y-16300000D03*
X23300000Y-12300000D03*
X23900000Y-11700000D03*
X23300000Y-11700000D03*
X23900000Y-12300000D03*
X28100000Y-11700000D03*
X24500000Y-11700000D03*
X25100000Y-11700000D03*
X25700000Y-12300000D03*
X26900000Y-12300000D03*
X24500000Y-12300000D03*
X27500000Y-11700000D03*
X26300000Y-12300000D03*
X25100000Y-12300000D03*
X28100000Y-12300000D03*
X26900000Y-11700000D03*
X26300000Y-11700000D03*
X27500000Y-12300000D03*
X23300000Y-14300000D03*
X23900000Y-13700000D03*
X23300000Y-13700000D03*
X23900000Y-14300000D03*
X28100000Y-13700000D03*
X24500000Y-13700000D03*
X25100000Y-13700000D03*
X25700000Y-13700000D03*
X25700000Y-14300000D03*
X26900000Y-14300000D03*
X24500000Y-14300000D03*
X27500000Y-13700000D03*
X26300000Y-14300000D03*
X25100000Y-14300000D03*
X28100000Y-14300000D03*
X26900000Y-13700000D03*
X26300000Y-13700000D03*
X27500000Y-14300000D03*
X28100000Y-15700000D03*
X28100000Y-16300000D03*
X26900000Y-15700000D03*
X26900000Y-16300000D03*
X27500000Y-16300000D03*
X27500000Y-15700000D03*
X26300000Y-15700000D03*
X26300000Y-16300000D03*
X24500000Y-16300000D03*
X25100000Y-15700000D03*
X24500000Y-15700000D03*
X25100000Y-16300000D03*
X23900000Y-15700000D03*
X23900000Y-16300000D03*
X23300000Y-16300000D03*
X23300000Y-15700000D03*
X25500000Y-37400000D03*
X26100000Y-37400000D03*
X25500000Y-36800000D03*
X26100000Y-36800000D03*
X2000000Y-43400000D03*
X2050000Y-40000000D03*
X14600000Y-40000000D03*
X25700000Y-1700000D03*
X25700000Y-3700000D03*
X27500000Y-2300000D03*
X28100000Y-2300000D03*
X24500000Y-2300000D03*
X26900000Y-1700000D03*
X26300000Y-1700000D03*
X23300000Y-2300000D03*
X23900000Y-1700000D03*
X23900000Y-2300000D03*
X23300000Y-1700000D03*
X28100000Y-1700000D03*
X25100000Y-1700000D03*
X25700000Y-2300000D03*
X24500000Y-1700000D03*
X27500000Y-1700000D03*
X26900000Y-2300000D03*
X26300000Y-2300000D03*
X25100000Y-2300000D03*
X23300000Y-4300000D03*
X23900000Y-3700000D03*
X23300000Y-3700000D03*
X23900000Y-4300000D03*
X28100000Y-3700000D03*
X24500000Y-3700000D03*
X25100000Y-3700000D03*
X25700000Y-4300000D03*
X26900000Y-4300000D03*
X24500000Y-4300000D03*
X27500000Y-3700000D03*
X26300000Y-4300000D03*
X25100000Y-4300000D03*
X28100000Y-4300000D03*
X26900000Y-3700000D03*
X26300000Y-3700000D03*
X27500000Y-4300000D03*
X23000000Y-46500000D03*
X22400000Y-46500000D03*
X23600000Y-46500000D03*
X23000000Y-45900000D03*
X23600000Y-45900000D03*
X22400000Y-45900000D03*
X12000000Y-18099998D03*
X14000000Y-18099998D03*
X9650000Y-55300000D03*
X6100000Y-24000000D03*
X8800000Y-52000000D03*
X8800000Y-46400000D03*
X3200000Y-44500000D03*
X10400000Y-56500000D03*
X10400000Y-54100000D03*
X8900002Y-58400000D03*
X10600000Y-48300000D03*
X12600000Y-41800000D03*
X10600000Y-52150000D03*
X13400000Y-46000000D03*
X12000000Y-42400000D03*
X12800000Y-46600000D03*
X10600000Y-50200000D03*
X9400000Y-47624998D03*
D34*
X6734301Y-48300000D02*
X7750000Y-48300000D01*
X5599970Y-49434331D02*
X6734301Y-48300000D01*
X7200000Y-59200000D02*
X7200000Y-57965698D01*
X10465690Y-59800008D02*
X7800008Y-59800008D01*
X5599970Y-56365669D02*
X5599970Y-49434331D01*
X11465678Y-58800020D02*
X10465690Y-59800008D01*
X20234322Y-58800020D02*
X11465678Y-58800020D01*
X7200000Y-57965698D02*
X5599970Y-56365669D01*
X23434302Y-62000000D02*
X20234322Y-58800020D01*
X7800008Y-59800008D02*
X7200000Y-59200000D01*
X25700000Y-62000000D02*
X23434302Y-62000000D01*
X7750000Y-19200000D02*
X8400000Y-19200000D01*
D35*
X5400000Y-20500000D02*
X4100000Y-20500000D01*
D34*
X8600000Y-19400000D02*
X8400000Y-19200000D01*
X18350000Y-27400000D02*
X18350000Y-25600000D01*
X17050000Y-18950000D02*
X17200000Y-18800000D01*
X15950000Y-18950000D02*
X17050000Y-18950000D01*
X14800000Y-18450000D02*
X14800000Y-18099998D01*
X15300000Y-18950000D02*
X14800000Y-18450000D01*
X15950000Y-18950000D02*
X15300000Y-18950000D01*
X18350000Y-19950000D02*
X18000000Y-19600000D01*
X19250000Y-19950000D02*
X18350000Y-19950000D01*
X9099999Y-42449999D02*
X9099999Y-41886467D01*
X9200000Y-42550000D02*
X9099999Y-42449999D01*
X9099999Y-41886467D02*
X8806766Y-41593234D01*
X9850000Y-42550000D02*
X9200000Y-42550000D01*
X8463532Y-41250000D02*
X8806766Y-41593234D01*
X7750000Y-41250000D02*
X8463532Y-41250000D01*
X9850000Y-44450000D02*
X9550000Y-44450000D01*
X9850000Y-44450000D02*
X9150000Y-44450000D01*
X9150000Y-44450000D02*
X8800000Y-44800000D01*
X8800000Y-44800000D02*
X8800000Y-45400000D01*
X8800000Y-45400000D02*
X8400000Y-45800000D01*
X7000000Y-45800000D02*
X6600000Y-45400000D01*
X8400000Y-45800000D02*
X7000000Y-45800000D01*
X8600000Y-21850000D02*
X8800000Y-22050000D01*
X8600000Y-19400000D02*
X8600000Y-21850000D01*
D36*
X25800000Y-39900000D02*
X25800000Y-41800000D01*
D37*
X25850000Y-47550000D02*
X25700000Y-47700000D01*
D36*
X25800000Y-47900000D02*
X25700000Y-48000000D01*
X25800000Y-43800000D02*
X25800000Y-47900000D01*
D34*
X25700000Y-60000000D02*
X22000000Y-60000000D01*
X22000000Y-60000000D02*
X20400010Y-58400010D01*
X20400010Y-58400010D02*
X11299990Y-58400010D01*
X11299990Y-58400010D02*
X10300000Y-59400000D01*
X10300000Y-59400000D02*
X8900000Y-59400000D01*
X8050000Y-58550000D02*
X8050000Y-58400000D01*
X8900000Y-59400000D02*
X8050000Y-58550000D01*
X8050000Y-58400000D02*
X8050000Y-58250000D01*
X5999980Y-56199980D02*
X5999980Y-49600020D01*
X8050000Y-58250000D02*
X5999980Y-56199980D01*
X6650000Y-48950000D02*
X7750000Y-48950000D01*
X5999980Y-49600020D02*
X6650000Y-48950000D01*
X7950000Y-53150000D02*
X7950000Y-54100000D01*
X7950000Y-52200000D02*
X7950000Y-53150000D01*
X7900000Y-52150000D02*
X7950000Y-52200000D01*
X7750000Y-52150000D02*
X7900000Y-52150000D01*
X6399990Y-55699990D02*
X6399990Y-50434311D01*
X7200000Y-56500000D02*
X6399990Y-55699990D01*
X7950000Y-56500000D02*
X7200000Y-56500000D01*
X9850000Y-50850000D02*
X8800000Y-50850000D01*
X6399990Y-50048540D02*
X6624265Y-49824265D01*
X6399990Y-55699990D02*
X6399990Y-50048540D01*
X7950000Y-56500000D02*
X8300000Y-56500000D01*
X8933850Y-57133850D02*
X8933850Y-57182380D01*
X8300000Y-56500000D02*
X8933850Y-57133850D01*
X11700003Y-17499997D02*
X12299997Y-17499997D01*
X14750000Y-19950000D02*
X15950000Y-19950000D01*
X12299997Y-17499997D02*
X14750000Y-19950000D01*
X10952500Y-18247500D02*
X11700003Y-17499997D01*
X10006500Y-18247500D02*
X10952500Y-18247500D01*
X1125000Y-41500000D02*
X1100000Y-41475000D01*
X4050000Y-41500000D02*
X1125000Y-41500000D01*
X9850000Y-41900000D02*
X10500000Y-41900000D01*
X10500000Y-41900000D02*
X10800000Y-42200000D01*
X10800000Y-42200000D02*
X10800000Y-43434301D01*
X10800000Y-43434301D02*
X11400000Y-44034301D01*
X11400000Y-44034301D02*
X11400000Y-45400000D01*
X25700000Y-52000000D02*
X22000000Y-52000000D01*
X22000000Y-52000000D02*
X21400000Y-52600000D01*
X21400000Y-52600000D02*
X21400000Y-55468603D01*
X21400000Y-55468603D02*
X20068633Y-56799970D01*
X20068633Y-56799970D02*
X13097064Y-56799970D01*
X13097064Y-56799970D02*
X12450029Y-56152935D01*
X11400000Y-46302904D02*
X11400000Y-44034301D01*
X12450029Y-47352933D02*
X11400000Y-46302904D01*
X12450029Y-56152935D02*
X12450029Y-47352933D01*
X25700000Y-54000000D02*
X22200000Y-54000000D01*
X10600000Y-43800000D02*
X11000000Y-44200000D01*
X11000000Y-44200000D02*
X11000000Y-46468603D01*
X11000000Y-46468603D02*
X11565698Y-47034301D01*
X9200000Y-43800000D02*
X10600000Y-43800000D01*
X12050019Y-47518622D02*
X11000000Y-46468603D01*
X12931376Y-57199980D02*
X12050019Y-56318623D01*
X20234321Y-57199980D02*
X12931376Y-57199980D01*
X12050019Y-56318623D02*
X12050019Y-47518622D01*
X21800000Y-55634301D02*
X20234321Y-57199980D01*
X25700000Y-54000000D02*
X22165698Y-54000000D01*
X21800000Y-54365698D02*
X22165698Y-54000000D01*
X21800000Y-55634301D02*
X21800000Y-54365698D01*
X8265002Y-41900000D02*
X8600000Y-42234998D01*
X7750000Y-41900000D02*
X8265002Y-41900000D01*
X8600000Y-43200000D02*
X9200000Y-43800000D01*
X8600000Y-42234998D02*
X8600000Y-43200000D01*
X10600000Y-46634301D02*
X11650011Y-47684312D01*
X11650011Y-47684312D02*
X11650011Y-48200000D01*
X10600000Y-45900000D02*
X10450000Y-45750000D01*
X10600000Y-46634301D02*
X10600000Y-45900000D01*
X9850000Y-45750000D02*
X10450000Y-45750000D01*
X25700000Y-56000000D02*
X22000000Y-56000000D01*
X22000000Y-56000000D02*
X20400010Y-57599990D01*
X20400010Y-57599990D02*
X12765688Y-57599990D01*
X11650011Y-56484313D02*
X11650011Y-47684312D01*
X12765688Y-57599990D02*
X11650011Y-56484313D01*
X16850000Y-21750000D02*
X16600000Y-22000000D01*
X16850000Y-20850000D02*
X16850000Y-21750000D01*
X18450000Y-23700000D02*
X18350000Y-23800000D01*
X18450000Y-22000000D02*
X18450000Y-23700000D01*
X9850000Y-19200000D02*
X9000000Y-19200000D01*
X9000000Y-17800000D02*
X9000000Y-19200000D01*
X10400000Y-16400000D02*
X9000000Y-17800000D01*
X10400000Y-14000000D02*
X10400000Y-16400000D01*
X13000000Y-22000000D02*
X12800000Y-22200000D01*
X15400000Y-22000000D02*
X13000000Y-22000000D01*
X9000000Y-20859998D02*
X9000000Y-19200000D01*
X10340002Y-22200000D02*
X9000000Y-20859998D01*
X12800000Y-22200000D02*
X10340002Y-22200000D01*
X8800000Y-12400000D02*
X8800000Y-10550000D01*
X18350000Y-17550000D02*
X18350000Y-16909998D01*
X18350000Y-16909998D02*
X18459998Y-16800000D01*
X14799990Y-45800010D02*
X14600000Y-46000000D01*
X14799990Y-41234391D02*
X14799990Y-45800010D01*
X22600010Y-32200010D02*
X22600010Y-38303691D01*
X20200000Y-29800000D02*
X22600010Y-32200010D01*
X20703671Y-40200030D02*
X15834351Y-40200030D01*
X19834302Y-16600000D02*
X20200000Y-16965698D01*
X22600010Y-38303691D02*
X20703671Y-40200030D01*
X18659998Y-16600000D02*
X19834302Y-16600000D01*
X15834351Y-40200030D02*
X14799990Y-41234391D01*
X18350000Y-16909998D02*
X18659998Y-16600000D01*
X20200000Y-16965698D02*
X20200000Y-29800000D01*
X15200000Y-48850000D02*
X14600000Y-49450000D01*
X15200000Y-41400080D02*
X15200000Y-48850000D01*
X16000040Y-40600040D02*
X15200000Y-41400080D01*
X20869360Y-40600040D02*
X16000040Y-40600040D01*
X23000020Y-32034321D02*
X23000020Y-38469380D01*
X23000020Y-38469380D02*
X20869360Y-40600040D01*
X20600000Y-29634302D02*
X23000020Y-32034321D01*
X20600000Y-16800000D02*
X20600000Y-29634302D01*
X19999990Y-16199990D02*
X20600000Y-16800000D01*
X17850000Y-16749980D02*
X18399990Y-16199990D01*
X17850000Y-17550000D02*
X17850000Y-16749980D01*
X18399990Y-16199990D02*
X19999990Y-16199990D01*
X16850000Y-23800000D02*
X16850000Y-25600000D01*
X17350000Y-20850000D02*
X17350000Y-22250000D01*
X16850000Y-22750000D02*
X16850000Y-23800000D01*
X17350000Y-22250000D02*
X16850000Y-22750000D01*
X15400000Y-31600000D02*
X15400000Y-25600000D01*
X15800000Y-32000000D02*
X15400000Y-31600000D01*
X22200000Y-33000000D02*
X21200000Y-32000000D01*
X21200000Y-32000000D02*
X15800000Y-32000000D01*
X22200000Y-38138002D02*
X22200000Y-33000000D01*
X15668664Y-39800020D02*
X20537982Y-39800020D01*
X14399980Y-41068702D02*
X15668664Y-39800020D01*
X14399980Y-45200020D02*
X14399980Y-41068702D01*
X14000000Y-45600000D02*
X14399980Y-45200020D01*
X20537982Y-39800020D02*
X22200000Y-38138002D01*
X14000000Y-46565687D02*
X14000000Y-45600000D01*
X21600000Y-34400000D02*
X18450000Y-34400000D01*
X21600000Y-33600000D02*
X18450000Y-33600000D01*
X18450000Y-32800000D02*
X21000000Y-32800000D01*
X1125000Y-42300000D02*
X1100000Y-42325000D01*
X4050000Y-42300000D02*
X1125000Y-42300000D01*
X20200000Y-31000000D02*
X18350000Y-31000000D01*
X20400000Y-37800000D02*
X18650000Y-37800000D01*
X13000000Y-37000000D02*
X13600000Y-37000000D01*
X13600000Y-37000000D02*
X15600000Y-39000000D01*
X17165002Y-39000000D02*
X15600000Y-39000000D01*
X17700011Y-38464991D02*
X17165002Y-39000000D01*
X17700011Y-38099989D02*
X17700011Y-38464991D01*
X18000000Y-37800000D02*
X17700011Y-38099989D01*
X18650000Y-37800000D02*
X18000000Y-37800000D01*
X2150000Y-45100000D02*
X3600000Y-45100000D01*
X4750000Y-46250000D02*
X4900000Y-46250000D01*
X3600000Y-45100000D02*
X4750000Y-46250000D01*
X5800000Y-47000000D02*
X5050000Y-46250000D01*
X10400000Y-47000000D02*
X5800000Y-47000000D01*
X5050000Y-46250000D02*
X4900000Y-46250000D01*
X11250001Y-47850001D02*
X10400000Y-47000000D01*
X11250001Y-56650001D02*
X11250001Y-47850001D01*
X12600000Y-58000000D02*
X11250001Y-56650001D01*
X25700000Y-58000000D02*
X12600000Y-58000000D01*
X25500000Y-37400000D02*
X26100000Y-37400000D01*
D37*
X25500000Y-37750000D02*
X25800000Y-38050000D01*
X25500000Y-37400000D02*
X25500000Y-37750000D01*
X26100000Y-37750000D02*
X25800000Y-38050000D01*
X26100000Y-37400000D02*
X26100000Y-37750000D01*
X18350000Y-44200000D02*
X20500000Y-44200000D01*
X19500000Y-44800000D02*
X20550000Y-44800000D01*
X19900000Y-44800000D02*
X20500000Y-44200000D01*
X19500000Y-44800000D02*
X19900000Y-44800000D01*
X20100000Y-44800000D02*
X19500000Y-44200000D01*
X20550000Y-44800000D02*
X20100000Y-44800000D01*
X25500000Y-37400000D02*
X25500000Y-36800000D01*
X26100000Y-37400000D02*
X26100000Y-36800000D01*
D34*
X2000000Y-43400000D02*
X750000Y-43400000D01*
D37*
X19900000Y-44200000D02*
X20500000Y-43600000D01*
X19500000Y-44200000D02*
X19900000Y-44200000D01*
X20100000Y-44200000D02*
X19500000Y-43600000D01*
X20500000Y-44200000D02*
X20100000Y-44200000D01*
X19500000Y-43600000D02*
X20500000Y-43600000D01*
X20500000Y-43600000D02*
X20500000Y-44800000D01*
X19500000Y-44800000D02*
X19500000Y-43600000D01*
X25500000Y-36450000D02*
X25800000Y-36150000D01*
X25500000Y-36800000D02*
X25500000Y-36450000D01*
X26100000Y-36450000D02*
X25800000Y-36150000D01*
X26100000Y-36800000D02*
X26100000Y-36450000D01*
X25800000Y-36150000D02*
X25800000Y-38050000D01*
D34*
X2050000Y-40000000D02*
X14600000Y-40000000D01*
X1900000Y-40700000D02*
X1600000Y-40400000D01*
X4050000Y-40700000D02*
X1900000Y-40700000D01*
X1600000Y-40400000D02*
X750000Y-40400000D01*
X16750000Y-32800000D02*
X15331397Y-32800000D01*
X14900010Y-32368613D02*
X15331397Y-32800000D01*
X13000000Y-30400000D02*
X11800000Y-30400000D01*
X11800000Y-30400000D02*
X11400000Y-30800000D01*
X11400000Y-30800000D02*
X11400020Y-30800020D01*
X13834292Y-37799990D02*
X15434311Y-39400010D01*
X14900010Y-32368613D02*
X14900010Y-30900010D01*
X14900010Y-30900010D02*
X14400000Y-30400000D01*
X13000000Y-30400000D02*
X14400000Y-30400000D01*
X18650000Y-38450000D02*
X18650000Y-38950000D01*
X18199990Y-39400010D02*
X15434311Y-39400010D01*
X18650000Y-38950000D02*
X18199990Y-39400010D01*
X11800030Y-37799990D02*
X11400020Y-37399980D01*
X13834292Y-37799990D02*
X11800030Y-37799990D01*
X11400020Y-30800020D02*
X11400020Y-37399980D01*
X17240002Y-33600000D02*
X16750000Y-33600000D01*
X17600000Y-33959998D02*
X17240002Y-33600000D01*
X13000000Y-31500000D02*
X14200000Y-31500000D01*
X14200000Y-31500000D02*
X14500000Y-31800000D01*
X14500000Y-31800000D02*
X14500000Y-32534301D01*
X15565699Y-33600000D02*
X16750000Y-33600000D01*
X14500000Y-32534301D02*
X15565699Y-33600000D01*
X17065002Y-38450000D02*
X16550000Y-38450000D01*
X17300001Y-38215001D02*
X17065002Y-38450000D01*
X17600000Y-36800000D02*
X17300001Y-37099999D01*
X17300001Y-37099999D02*
X17300001Y-38215001D01*
X17600000Y-33959998D02*
X17600000Y-36800000D01*
X15900000Y-37150000D02*
X15500000Y-36750000D01*
X16550000Y-37150000D02*
X15900000Y-37150000D01*
X15500000Y-34100000D02*
X15100000Y-33700000D01*
X15100000Y-33700000D02*
X13000000Y-33700000D01*
X16750000Y-34400000D02*
X15500000Y-34400000D01*
X15500000Y-34400000D02*
X15500000Y-34100000D01*
X15500000Y-36750000D02*
X15500000Y-34400000D01*
X6500000Y-41500000D02*
X5750000Y-41500000D01*
X6800000Y-41800000D02*
X6500000Y-41500000D01*
X6800000Y-41800000D02*
X6800000Y-42294300D01*
X7055700Y-42550000D02*
X7750000Y-42550000D01*
X6800000Y-42294300D02*
X7055700Y-42550000D01*
X6240002Y-42300000D02*
X5750000Y-42300000D01*
X7750000Y-43809998D02*
X6240002Y-42300000D01*
X7750000Y-45100000D02*
X7750000Y-43809998D01*
X5750000Y-40700000D02*
X9000000Y-40700000D01*
X9550000Y-41250000D02*
X9850000Y-41250000D01*
X9000000Y-40700000D02*
X9550000Y-41250000D01*
X4800000Y-19200000D02*
X6000000Y-19200000D01*
X6952500Y-20152500D02*
X7593500Y-20152500D01*
X6000000Y-19200000D02*
X6952500Y-20152500D01*
X4800000Y-18550000D02*
X6050000Y-18550000D01*
X6352500Y-18247500D02*
X7593500Y-18247500D01*
X6050000Y-18550000D02*
X6352500Y-18247500D01*
X16850000Y-29200000D02*
X16850000Y-27400000D01*
X16850000Y-27400000D02*
X16000000Y-26550000D01*
X16000000Y-20475000D02*
X15950000Y-20425000D01*
X16000000Y-26550000D02*
X16000000Y-20475000D01*
X16375000Y-20850000D02*
X16375000Y-20425000D01*
X15950000Y-20425000D02*
X16375000Y-20425000D01*
X17850000Y-20850000D02*
X17850000Y-22550000D01*
X17850000Y-22550000D02*
X17600000Y-22800000D01*
X17600000Y-22800000D02*
X17600000Y-28200000D01*
X18350000Y-28950000D02*
X18350000Y-29200000D01*
X17600000Y-28200000D02*
X18350000Y-28950000D01*
X15950000Y-19450000D02*
X14815698Y-19450000D01*
X14000000Y-18634302D02*
X14000000Y-18099998D01*
X14815698Y-19450000D02*
X14000000Y-18634302D01*
X12000000Y-18959000D02*
X12000000Y-18099998D01*
X10806500Y-20152500D02*
X12000000Y-18959000D01*
X10006500Y-20152500D02*
X10806500Y-20152500D01*
X15950000Y-17975000D02*
X16375000Y-17975000D01*
X16375000Y-17975000D02*
X16375000Y-17550000D01*
X19250000Y-17975000D02*
X18825000Y-17975000D01*
X18825000Y-17975000D02*
X18825000Y-17550000D01*
X18825000Y-20850000D02*
X18825000Y-20425000D01*
X18825000Y-20425000D02*
X19250000Y-20425000D01*
X1900000Y-15800000D02*
X1900000Y-22600000D01*
X6550000Y-23550000D02*
X6100000Y-24000000D01*
X8800000Y-23550000D02*
X6550000Y-23550000D01*
X8800000Y-51500000D02*
X8800000Y-52000000D01*
X7750000Y-51500000D02*
X8800000Y-51500000D01*
X8800000Y-51500000D02*
X9850000Y-51500000D01*
X8800000Y-46400000D02*
X6600000Y-46400000D01*
X5600000Y-45400000D02*
X4465698Y-45400000D01*
X6600000Y-46400000D02*
X5600000Y-45400000D01*
X3565698Y-44500000D02*
X3200000Y-44500000D01*
X4465698Y-45400000D02*
X3565698Y-44500000D01*
X9650000Y-55700000D02*
X9650000Y-54900000D01*
X9650000Y-56500000D02*
X10400000Y-56500000D01*
X9650000Y-54100000D02*
X10400000Y-54100000D01*
X9550000Y-56600000D02*
X9650000Y-56500000D01*
X9550000Y-58400000D02*
X9550000Y-56600000D01*
X9550000Y-58400000D02*
X8900002Y-58400000D01*
X9850000Y-48300000D02*
X10600000Y-48300000D01*
X12600000Y-41800000D02*
X12600000Y-42434302D01*
X8800000Y-54540002D02*
X8440002Y-54900000D01*
X8440002Y-54900000D02*
X7950000Y-54900000D01*
X9850000Y-52150000D02*
X10600000Y-52150000D01*
X13400008Y-45999992D02*
X13400000Y-46000000D01*
X12600000Y-42434302D02*
X13200010Y-43034311D01*
X13200010Y-43034311D02*
X13200010Y-45800010D01*
X13200010Y-45800010D02*
X13400000Y-46000000D01*
X8800000Y-54540002D02*
X8800000Y-52900000D01*
X9550000Y-52150000D02*
X9850000Y-52150000D01*
X8800000Y-52900000D02*
X9550000Y-52150000D01*
X7750000Y-50850000D02*
X7950000Y-50850000D01*
X7200000Y-55700000D02*
X6800000Y-55300000D01*
X7950000Y-55700000D02*
X7200000Y-55700000D01*
X7200000Y-50200000D02*
X6800000Y-50600000D01*
X6850000Y-50850000D02*
X6800000Y-50800000D01*
X7750000Y-50850000D02*
X6850000Y-50850000D01*
X6800000Y-50800000D02*
X6800000Y-50600000D01*
X6800000Y-55300000D02*
X6800000Y-50800000D01*
X7200000Y-50200000D02*
X10600000Y-50200000D01*
X12800000Y-43200000D02*
X12000000Y-42400000D01*
X12800000Y-46600000D02*
X12800000Y-43200000D01*
X9425002Y-47650000D02*
X9400000Y-47624998D01*
X9850000Y-47650000D02*
X9425002Y-47650000D01*
D38*
X675000Y-46181250D02*
X768750Y-46275000D01*
X1150000Y-46276814D01*
X1223513Y-46269574D01*
X1294200Y-46248131D01*
X1359347Y-46213309D01*
X1400000Y-46179946D01*
X1440653Y-46213309D01*
X1505800Y-46248131D01*
X1576487Y-46269574D01*
X1650000Y-46276814D01*
X2650000Y-46276814D01*
X2723513Y-46269574D01*
X2794200Y-46248131D01*
X2859347Y-46213309D01*
X2916448Y-46166448D01*
X2963309Y-46109347D01*
X2998131Y-46044200D01*
X3019574Y-45973513D01*
X3026814Y-45900000D01*
X3026814Y-45575000D01*
X3403250Y-45575000D01*
X4023186Y-46194937D01*
X4023186Y-46600000D01*
X4030426Y-46673513D01*
X4051869Y-46744200D01*
X4086691Y-46809347D01*
X4133552Y-46866448D01*
X4190653Y-46913309D01*
X4255800Y-46948131D01*
X4326487Y-46969574D01*
X4400000Y-46976814D01*
X5105063Y-46976814D01*
X5152612Y-47024363D01*
X5018750Y-47025000D01*
X4925000Y-47118750D01*
X4925000Y-47725000D01*
X5681250Y-47725000D01*
X5775000Y-47631250D01*
X5776226Y-47474957D01*
X5799999Y-47477298D01*
X5823331Y-47475000D01*
X6923186Y-47475000D01*
X6925000Y-47531250D01*
X7018750Y-47625000D01*
X7725000Y-47625000D01*
X7725000Y-47605000D01*
X7775000Y-47605000D01*
X7775000Y-47625000D01*
X8481250Y-47625000D01*
X8575000Y-47531250D01*
X8576814Y-47475000D01*
X8741613Y-47475000D01*
X8725000Y-47558516D01*
X8725000Y-47691480D01*
X8750940Y-47821888D01*
X8801823Y-47944730D01*
X8875693Y-48055285D01*
X8969713Y-48149305D01*
X9023186Y-48185034D01*
X9023186Y-48475000D01*
X9030426Y-48548513D01*
X9051869Y-48619200D01*
X9054969Y-48625000D01*
X9051869Y-48630800D01*
X9030426Y-48701487D01*
X9023186Y-48775000D01*
X9025000Y-48831250D01*
X9118750Y-48925000D01*
X9825000Y-48925000D01*
X9825000Y-48905000D01*
X9875000Y-48905000D01*
X9875000Y-48925000D01*
X9895000Y-48925000D01*
X9895000Y-48975000D01*
X9875000Y-48975000D01*
X9875000Y-49406250D01*
X9968750Y-49500000D01*
X10300000Y-49501814D01*
X10373513Y-49494574D01*
X10444200Y-49473131D01*
X10509347Y-49438309D01*
X10566448Y-49391448D01*
X10613309Y-49334347D01*
X10648131Y-49269200D01*
X10669574Y-49198513D01*
X10676814Y-49125000D01*
X10675000Y-49068750D01*
X10581252Y-48975002D01*
X10675000Y-48975002D01*
X10675000Y-48973306D01*
X10775002Y-48953414D01*
X10775002Y-49546586D01*
X10666482Y-49525000D01*
X10533518Y-49525000D01*
X10403110Y-49550940D01*
X10280268Y-49601823D01*
X10169713Y-49675693D01*
X10120406Y-49725000D01*
X7292744Y-49725000D01*
X7273325Y-49627375D01*
X7222442Y-49504533D01*
X7213068Y-49490503D01*
X7226487Y-49494574D01*
X7300000Y-49501814D01*
X8200000Y-49501814D01*
X8273513Y-49494574D01*
X8344200Y-49473131D01*
X8409347Y-49438309D01*
X8466448Y-49391448D01*
X8513309Y-49334347D01*
X8548131Y-49269200D01*
X8569574Y-49198513D01*
X8576814Y-49125000D01*
X9023186Y-49125000D01*
X9030426Y-49198513D01*
X9051869Y-49269200D01*
X9086691Y-49334347D01*
X9133552Y-49391448D01*
X9190653Y-49438309D01*
X9255800Y-49473131D01*
X9326487Y-49494574D01*
X9400000Y-49501814D01*
X9731250Y-49500000D01*
X9825000Y-49406250D01*
X9825000Y-48975000D01*
X9118750Y-48975000D01*
X9025000Y-49068750D01*
X9023186Y-49125000D01*
X8576814Y-49125000D01*
X8576814Y-48775000D01*
X8569574Y-48701487D01*
X8548131Y-48630800D01*
X8545031Y-48625000D01*
X8548131Y-48619200D01*
X8569574Y-48548513D01*
X8576814Y-48475000D01*
X8576814Y-48125000D01*
X8569574Y-48051487D01*
X8548131Y-47980800D01*
X8545031Y-47975000D01*
X8548131Y-47969200D01*
X8569574Y-47898513D01*
X8576814Y-47825000D01*
X8575000Y-47768750D01*
X8481250Y-47675000D01*
X7775000Y-47675000D01*
X7775000Y-47695000D01*
X7725000Y-47695000D01*
X7725000Y-47675000D01*
X7018750Y-47675000D01*
X6925000Y-47768750D01*
X6923186Y-47825000D01*
X6757632Y-47825000D01*
X6734300Y-47822702D01*
X6641184Y-47831873D01*
X6614023Y-47840112D01*
X6551647Y-47859034D01*
X6469128Y-47903141D01*
X6396800Y-47962499D01*
X6381921Y-47980629D01*
X5280599Y-49081952D01*
X5262470Y-49096830D01*
X5203112Y-49169158D01*
X5172683Y-49226088D01*
X5159005Y-49251677D01*
X5131843Y-49341215D01*
X5122672Y-49434331D01*
X5124971Y-49457673D01*
X5124970Y-56342337D01*
X5122672Y-56365669D01*
X5131843Y-56458785D01*
X5134677Y-56468127D01*
X5159004Y-56548322D01*
X5203111Y-56630842D01*
X5262469Y-56703170D01*
X5280604Y-56718053D01*
X6725001Y-58162450D01*
X6725000Y-59176667D01*
X6722702Y-59200000D01*
X6731873Y-59293115D01*
X6759034Y-59382653D01*
X6803141Y-59465173D01*
X6862499Y-59537501D01*
X6880634Y-59552384D01*
X7447628Y-60119379D01*
X7462507Y-60137509D01*
X7534835Y-60196867D01*
X7617354Y-60240974D01*
X7706892Y-60268135D01*
X7776676Y-60275008D01*
X7776677Y-60275008D01*
X7800007Y-60277306D01*
X7823337Y-60275008D01*
X10442358Y-60275008D01*
X10465690Y-60277306D01*
X10489022Y-60275008D01*
X10558806Y-60268135D01*
X10648344Y-60240974D01*
X10730863Y-60196867D01*
X10803191Y-60137509D01*
X10818074Y-60119374D01*
X11662430Y-59275020D01*
X20037572Y-59275020D01*
X22323186Y-61560635D01*
X22323186Y-62600000D01*
X22333309Y-62702776D01*
X22363287Y-62801603D01*
X22411970Y-62892682D01*
X22477486Y-62972514D01*
X22557318Y-63038030D01*
X22648397Y-63086713D01*
X22747224Y-63116691D01*
X22850000Y-63126814D01*
X28550001Y-63126814D01*
X28550001Y-63550000D01*
X6222006Y-63550000D01*
X6132439Y-63541218D01*
X6067448Y-63521596D01*
X6007507Y-63489725D01*
X5954899Y-63446819D01*
X5911626Y-63394511D01*
X5876536Y-63329614D01*
X4247837Y-53749303D01*
X4247511Y-53745980D01*
X4227110Y-53551883D01*
X4218903Y-53511904D01*
X4211266Y-53471869D01*
X4209450Y-53465854D01*
X4151738Y-53279416D01*
X4135940Y-53241835D01*
X4120655Y-53204001D01*
X4117705Y-53198454D01*
X4024880Y-53026777D01*
X4002052Y-52992932D01*
X3979739Y-52958834D01*
X3975768Y-52953965D01*
X3851364Y-52803588D01*
X3822421Y-52774846D01*
X3793888Y-52745709D01*
X3789047Y-52741704D01*
X3637805Y-52618354D01*
X3603826Y-52595778D01*
X3570181Y-52572741D01*
X3564659Y-52569756D01*
X3564655Y-52569753D01*
X3564651Y-52569751D01*
X3392332Y-52478127D01*
X3354603Y-52462576D01*
X3317136Y-52446518D01*
X3311134Y-52444660D01*
X3124298Y-52388251D01*
X3084240Y-52380319D01*
X3044395Y-52371850D01*
X3038148Y-52371193D01*
X3038146Y-52371193D01*
X2844344Y-52352190D01*
X2822105Y-52350000D01*
X2050000Y-52350000D01*
X2050000Y-50076814D01*
X2650000Y-50076814D01*
X2723513Y-50069574D01*
X2794200Y-50048131D01*
X2859347Y-50013309D01*
X2916448Y-49966448D01*
X2963309Y-49909347D01*
X2998131Y-49844200D01*
X3019574Y-49773513D01*
X3026814Y-49700000D01*
X3026814Y-48100000D01*
X4023186Y-48100000D01*
X4030426Y-48173513D01*
X4051869Y-48244200D01*
X4086691Y-48309347D01*
X4133552Y-48366448D01*
X4190653Y-48413309D01*
X4255800Y-48448131D01*
X4326487Y-48469574D01*
X4400000Y-48476814D01*
X4781250Y-48475000D01*
X4875000Y-48381250D01*
X4875000Y-47775000D01*
X4925000Y-47775000D01*
X4925000Y-48381250D01*
X5018750Y-48475000D01*
X5400000Y-48476814D01*
X5473513Y-48469574D01*
X5544200Y-48448131D01*
X5609347Y-48413309D01*
X5666448Y-48366448D01*
X5713309Y-48309347D01*
X5748131Y-48244200D01*
X5769574Y-48173513D01*
X5776814Y-48100000D01*
X5775000Y-47868750D01*
X5681250Y-47775000D01*
X4925000Y-47775000D01*
X4875000Y-47775000D01*
X4118750Y-47775000D01*
X4025000Y-47868750D01*
X4023186Y-48100000D01*
X3026814Y-48100000D01*
X3019574Y-48026487D01*
X2998131Y-47955800D01*
X2963309Y-47890653D01*
X2916448Y-47833552D01*
X2859347Y-47786691D01*
X2794200Y-47751869D01*
X2723513Y-47730426D01*
X2650000Y-47723186D01*
X1650000Y-47723186D01*
X1576487Y-47730426D01*
X1505800Y-47751869D01*
X1440653Y-47786691D01*
X1400000Y-47820054D01*
X1359347Y-47786691D01*
X1294200Y-47751869D01*
X1223513Y-47730426D01*
X1150000Y-47723186D01*
X768750Y-47725000D01*
X675000Y-47818750D01*
X675000Y-48945000D01*
X625000Y-48945000D01*
X625000Y-47818750D01*
X531250Y-47725000D01*
X450000Y-47724613D01*
X450000Y-47400000D01*
X4023186Y-47400000D01*
X4025000Y-47631250D01*
X4118750Y-47725000D01*
X4875000Y-47725000D01*
X4875000Y-47118750D01*
X4781250Y-47025000D01*
X4400000Y-47023186D01*
X4326487Y-47030426D01*
X4255800Y-47051869D01*
X4190653Y-47086691D01*
X4133552Y-47133552D01*
X4086691Y-47190653D01*
X4051869Y-47255800D01*
X4030426Y-47326487D01*
X4023186Y-47400000D01*
X450000Y-47400000D01*
X450000Y-46275387D01*
X531250Y-46275000D01*
X625000Y-46181250D01*
X625000Y-45055000D01*
X675000Y-45055000D01*
X675000Y-46181250D01*
G04 #@! TA.AperFunction,Conductor*
D39*
G36*
X675000Y-46181250D02*
G01*
X768750Y-46275000D01*
X1150000Y-46276814D01*
X1223513Y-46269574D01*
X1294200Y-46248131D01*
X1359347Y-46213309D01*
X1400000Y-46179946D01*
X1440653Y-46213309D01*
X1505800Y-46248131D01*
X1576487Y-46269574D01*
X1650000Y-46276814D01*
X2650000Y-46276814D01*
X2723513Y-46269574D01*
X2794200Y-46248131D01*
X2859347Y-46213309D01*
X2916448Y-46166448D01*
X2963309Y-46109347D01*
X2998131Y-46044200D01*
X3019574Y-45973513D01*
X3026814Y-45900000D01*
X3026814Y-45575000D01*
X3403250Y-45575000D01*
X4023186Y-46194937D01*
X4023186Y-46600000D01*
X4030426Y-46673513D01*
X4051869Y-46744200D01*
X4086691Y-46809347D01*
X4133552Y-46866448D01*
X4190653Y-46913309D01*
X4255800Y-46948131D01*
X4326487Y-46969574D01*
X4400000Y-46976814D01*
X5105063Y-46976814D01*
X5152612Y-47024363D01*
X5018750Y-47025000D01*
X4925000Y-47118750D01*
X4925000Y-47725000D01*
X5681250Y-47725000D01*
X5775000Y-47631250D01*
X5776226Y-47474957D01*
X5799999Y-47477298D01*
X5823331Y-47475000D01*
X6923186Y-47475000D01*
X6925000Y-47531250D01*
X7018750Y-47625000D01*
X7725000Y-47625000D01*
X7725000Y-47605000D01*
X7775000Y-47605000D01*
X7775000Y-47625000D01*
X8481250Y-47625000D01*
X8575000Y-47531250D01*
X8576814Y-47475000D01*
X8741613Y-47475000D01*
X8725000Y-47558516D01*
X8725000Y-47691480D01*
X8750940Y-47821888D01*
X8801823Y-47944730D01*
X8875693Y-48055285D01*
X8969713Y-48149305D01*
X9023186Y-48185034D01*
X9023186Y-48475000D01*
X9030426Y-48548513D01*
X9051869Y-48619200D01*
X9054969Y-48625000D01*
X9051869Y-48630800D01*
X9030426Y-48701487D01*
X9023186Y-48775000D01*
X9025000Y-48831250D01*
X9118750Y-48925000D01*
X9825000Y-48925000D01*
X9825000Y-48905000D01*
X9875000Y-48905000D01*
X9875000Y-48925000D01*
X9895000Y-48925000D01*
X9895000Y-48975000D01*
X9875000Y-48975000D01*
X9875000Y-49406250D01*
X9968750Y-49500000D01*
X10300000Y-49501814D01*
X10373513Y-49494574D01*
X10444200Y-49473131D01*
X10509347Y-49438309D01*
X10566448Y-49391448D01*
X10613309Y-49334347D01*
X10648131Y-49269200D01*
X10669574Y-49198513D01*
X10676814Y-49125000D01*
X10675000Y-49068750D01*
X10581252Y-48975002D01*
X10675000Y-48975002D01*
X10675000Y-48973306D01*
X10775002Y-48953414D01*
X10775002Y-49546586D01*
X10666482Y-49525000D01*
X10533518Y-49525000D01*
X10403110Y-49550940D01*
X10280268Y-49601823D01*
X10169713Y-49675693D01*
X10120406Y-49725000D01*
X7292744Y-49725000D01*
X7273325Y-49627375D01*
X7222442Y-49504533D01*
X7213068Y-49490503D01*
X7226487Y-49494574D01*
X7300000Y-49501814D01*
X8200000Y-49501814D01*
X8273513Y-49494574D01*
X8344200Y-49473131D01*
X8409347Y-49438309D01*
X8466448Y-49391448D01*
X8513309Y-49334347D01*
X8548131Y-49269200D01*
X8569574Y-49198513D01*
X8576814Y-49125000D01*
X9023186Y-49125000D01*
X9030426Y-49198513D01*
X9051869Y-49269200D01*
X9086691Y-49334347D01*
X9133552Y-49391448D01*
X9190653Y-49438309D01*
X9255800Y-49473131D01*
X9326487Y-49494574D01*
X9400000Y-49501814D01*
X9731250Y-49500000D01*
X9825000Y-49406250D01*
X9825000Y-48975000D01*
X9118750Y-48975000D01*
X9025000Y-49068750D01*
X9023186Y-49125000D01*
X8576814Y-49125000D01*
X8576814Y-48775000D01*
X8569574Y-48701487D01*
X8548131Y-48630800D01*
X8545031Y-48625000D01*
X8548131Y-48619200D01*
X8569574Y-48548513D01*
X8576814Y-48475000D01*
X8576814Y-48125000D01*
X8569574Y-48051487D01*
X8548131Y-47980800D01*
X8545031Y-47975000D01*
X8548131Y-47969200D01*
X8569574Y-47898513D01*
X8576814Y-47825000D01*
X8575000Y-47768750D01*
X8481250Y-47675000D01*
X7775000Y-47675000D01*
X7775000Y-47695000D01*
X7725000Y-47695000D01*
X7725000Y-47675000D01*
X7018750Y-47675000D01*
X6925000Y-47768750D01*
X6923186Y-47825000D01*
X6757632Y-47825000D01*
X6734300Y-47822702D01*
X6641184Y-47831873D01*
X6614023Y-47840112D01*
X6551647Y-47859034D01*
X6469128Y-47903141D01*
X6396800Y-47962499D01*
X6381921Y-47980629D01*
X5280599Y-49081952D01*
X5262470Y-49096830D01*
X5203112Y-49169158D01*
X5172683Y-49226088D01*
X5159005Y-49251677D01*
X5131843Y-49341215D01*
X5122672Y-49434331D01*
X5124971Y-49457673D01*
X5124970Y-56342337D01*
X5122672Y-56365669D01*
X5131843Y-56458785D01*
X5134677Y-56468127D01*
X5159004Y-56548322D01*
X5203111Y-56630842D01*
X5262469Y-56703170D01*
X5280604Y-56718053D01*
X6725001Y-58162450D01*
X6725000Y-59176667D01*
X6722702Y-59200000D01*
X6731873Y-59293115D01*
X6759034Y-59382653D01*
X6803141Y-59465173D01*
X6862499Y-59537501D01*
X6880634Y-59552384D01*
X7447628Y-60119379D01*
X7462507Y-60137509D01*
X7534835Y-60196867D01*
X7617354Y-60240974D01*
X7706892Y-60268135D01*
X7776676Y-60275008D01*
X7776677Y-60275008D01*
X7800007Y-60277306D01*
X7823337Y-60275008D01*
X10442358Y-60275008D01*
X10465690Y-60277306D01*
X10489022Y-60275008D01*
X10558806Y-60268135D01*
X10648344Y-60240974D01*
X10730863Y-60196867D01*
X10803191Y-60137509D01*
X10818074Y-60119374D01*
X11662430Y-59275020D01*
X20037572Y-59275020D01*
X22323186Y-61560635D01*
X22323186Y-62600000D01*
X22333309Y-62702776D01*
X22363287Y-62801603D01*
X22411970Y-62892682D01*
X22477486Y-62972514D01*
X22557318Y-63038030D01*
X22648397Y-63086713D01*
X22747224Y-63116691D01*
X22850000Y-63126814D01*
X28550001Y-63126814D01*
X28550001Y-63550000D01*
X6222006Y-63550000D01*
X6132439Y-63541218D01*
X6067448Y-63521596D01*
X6007507Y-63489725D01*
X5954899Y-63446819D01*
X5911626Y-63394511D01*
X5876536Y-63329614D01*
X4247837Y-53749303D01*
X4247511Y-53745980D01*
X4227110Y-53551883D01*
X4218903Y-53511904D01*
X4211266Y-53471869D01*
X4209450Y-53465854D01*
X4151738Y-53279416D01*
X4135940Y-53241835D01*
X4120655Y-53204001D01*
X4117705Y-53198454D01*
X4024880Y-53026777D01*
X4002052Y-52992932D01*
X3979739Y-52958834D01*
X3975768Y-52953965D01*
X3851364Y-52803588D01*
X3822421Y-52774846D01*
X3793888Y-52745709D01*
X3789047Y-52741704D01*
X3637805Y-52618354D01*
X3603826Y-52595778D01*
X3570181Y-52572741D01*
X3564659Y-52569756D01*
X3564655Y-52569753D01*
X3564651Y-52569751D01*
X3392332Y-52478127D01*
X3354603Y-52462576D01*
X3317136Y-52446518D01*
X3311134Y-52444660D01*
X3124298Y-52388251D01*
X3084240Y-52380319D01*
X3044395Y-52371850D01*
X3038148Y-52371193D01*
X3038146Y-52371193D01*
X2844344Y-52352190D01*
X2822105Y-52350000D01*
X2050000Y-52350000D01*
X2050000Y-50076814D01*
X2650000Y-50076814D01*
X2723513Y-50069574D01*
X2794200Y-50048131D01*
X2859347Y-50013309D01*
X2916448Y-49966448D01*
X2963309Y-49909347D01*
X2998131Y-49844200D01*
X3019574Y-49773513D01*
X3026814Y-49700000D01*
X3026814Y-48100000D01*
X4023186Y-48100000D01*
X4030426Y-48173513D01*
X4051869Y-48244200D01*
X4086691Y-48309347D01*
X4133552Y-48366448D01*
X4190653Y-48413309D01*
X4255800Y-48448131D01*
X4326487Y-48469574D01*
X4400000Y-48476814D01*
X4781250Y-48475000D01*
X4875000Y-48381250D01*
X4875000Y-47775000D01*
X4925000Y-47775000D01*
X4925000Y-48381250D01*
X5018750Y-48475000D01*
X5400000Y-48476814D01*
X5473513Y-48469574D01*
X5544200Y-48448131D01*
X5609347Y-48413309D01*
X5666448Y-48366448D01*
X5713309Y-48309347D01*
X5748131Y-48244200D01*
X5769574Y-48173513D01*
X5776814Y-48100000D01*
X5775000Y-47868750D01*
X5681250Y-47775000D01*
X4925000Y-47775000D01*
X4875000Y-47775000D01*
X4118750Y-47775000D01*
X4025000Y-47868750D01*
X4023186Y-48100000D01*
X3026814Y-48100000D01*
X3019574Y-48026487D01*
X2998131Y-47955800D01*
X2963309Y-47890653D01*
X2916448Y-47833552D01*
X2859347Y-47786691D01*
X2794200Y-47751869D01*
X2723513Y-47730426D01*
X2650000Y-47723186D01*
X1650000Y-47723186D01*
X1576487Y-47730426D01*
X1505800Y-47751869D01*
X1440653Y-47786691D01*
X1400000Y-47820054D01*
X1359347Y-47786691D01*
X1294200Y-47751869D01*
X1223513Y-47730426D01*
X1150000Y-47723186D01*
X768750Y-47725000D01*
X675000Y-47818750D01*
X675000Y-48945000D01*
X625000Y-48945000D01*
X625000Y-47818750D01*
X531250Y-47725000D01*
X450000Y-47724613D01*
X450000Y-47400000D01*
X4023186Y-47400000D01*
X4025000Y-47631250D01*
X4118750Y-47725000D01*
X4875000Y-47725000D01*
X4875000Y-47118750D01*
X4781250Y-47025000D01*
X4400000Y-47023186D01*
X4326487Y-47030426D01*
X4255800Y-47051869D01*
X4190653Y-47086691D01*
X4133552Y-47133552D01*
X4086691Y-47190653D01*
X4051869Y-47255800D01*
X4030426Y-47326487D01*
X4023186Y-47400000D01*
X450000Y-47400000D01*
X450000Y-46275387D01*
X531250Y-46275000D01*
X625000Y-46181250D01*
X625000Y-45055000D01*
X675000Y-45055000D01*
X675000Y-46181250D01*
G37*
G04 #@! TD.AperFunction*
D38*
X10912500Y-56987502D02*
X10930635Y-57002385D01*
X11853259Y-57925010D01*
X11323321Y-57925010D01*
X11299989Y-57922712D01*
X11206873Y-57931883D01*
X11188390Y-57937490D01*
X11117336Y-57959044D01*
X11034817Y-58003151D01*
X10962489Y-58062509D01*
X10947610Y-58080639D01*
X10276814Y-58751436D01*
X10276814Y-57900000D01*
X10269574Y-57826487D01*
X10248131Y-57755800D01*
X10213309Y-57690653D01*
X10166448Y-57633552D01*
X10109347Y-57586691D01*
X10044200Y-57551869D01*
X10025000Y-57546045D01*
X10025000Y-57076814D01*
X10048296Y-57076814D01*
X10080268Y-57098177D01*
X10203110Y-57149060D01*
X10333518Y-57175000D01*
X10466482Y-57175000D01*
X10596890Y-57149060D01*
X10719732Y-57098177D01*
X10830287Y-57024307D01*
X10892032Y-56962562D01*
X10912500Y-56987502D01*
G04 #@! TA.AperFunction,Conductor*
D39*
G36*
X10912500Y-56987502D02*
G01*
X10930635Y-57002385D01*
X11853259Y-57925010D01*
X11323321Y-57925010D01*
X11299989Y-57922712D01*
X11206873Y-57931883D01*
X11188390Y-57937490D01*
X11117336Y-57959044D01*
X11034817Y-58003151D01*
X10962489Y-58062509D01*
X10947610Y-58080639D01*
X10276814Y-58751436D01*
X10276814Y-57900000D01*
X10269574Y-57826487D01*
X10248131Y-57755800D01*
X10213309Y-57690653D01*
X10166448Y-57633552D01*
X10109347Y-57586691D01*
X10044200Y-57551869D01*
X10025000Y-57546045D01*
X10025000Y-57076814D01*
X10048296Y-57076814D01*
X10080268Y-57098177D01*
X10203110Y-57149060D01*
X10333518Y-57175000D01*
X10466482Y-57175000D01*
X10596890Y-57149060D01*
X10719732Y-57098177D01*
X10830287Y-57024307D01*
X10892032Y-56962562D01*
X10912500Y-56987502D01*
G37*
G04 #@! TD.AperFunction*
D38*
X22323186Y-56600000D02*
X22333309Y-56702776D01*
X22363287Y-56801603D01*
X22411970Y-56892682D01*
X22477486Y-56972514D01*
X22510978Y-57000000D01*
X22477486Y-57027486D01*
X22411970Y-57107318D01*
X22363287Y-57198397D01*
X22333309Y-57297224D01*
X22323186Y-57400000D01*
X22323186Y-57525000D01*
X21146751Y-57525000D01*
X22196752Y-56475000D01*
X22323186Y-56475000D01*
X22323186Y-56600000D01*
G04 #@! TA.AperFunction,Conductor*
D39*
G36*
X22323186Y-56600000D02*
G01*
X22333309Y-56702776D01*
X22363287Y-56801603D01*
X22411970Y-56892682D01*
X22477486Y-56972514D01*
X22510978Y-57000000D01*
X22477486Y-57027486D01*
X22411970Y-57107318D01*
X22363287Y-57198397D01*
X22333309Y-57297224D01*
X22323186Y-57400000D01*
X22323186Y-57525000D01*
X21146751Y-57525000D01*
X22196752Y-56475000D01*
X22323186Y-56475000D01*
X22323186Y-56600000D01*
G37*
G04 #@! TD.AperFunction*
D38*
X28550001Y-625000D02*
X16000000Y-625000D01*
X15926841Y-632206D01*
X15856494Y-653545D01*
X15791661Y-688199D01*
X15734835Y-734835D01*
X15688199Y-791661D01*
X15653545Y-856494D01*
X15632206Y-926841D01*
X15625000Y-1000000D01*
X15625000Y-10000000D01*
X15632206Y-10073159D01*
X15653545Y-10143506D01*
X15688199Y-10208339D01*
X15734835Y-10265165D01*
X15791661Y-10311801D01*
X15856494Y-10346455D01*
X15926841Y-10367794D01*
X16000000Y-10375000D01*
X19200000Y-10375000D01*
X19273159Y-10367794D01*
X19343506Y-10346455D01*
X19408339Y-10311801D01*
X19465165Y-10265165D01*
X19511801Y-10208339D01*
X19546455Y-10143506D01*
X19567794Y-10073159D01*
X19575000Y-10000000D01*
X19575000Y-8750000D01*
X22323186Y-8750000D01*
X22330426Y-8823513D01*
X22351869Y-8894200D01*
X22386691Y-8959347D01*
X22420054Y-9000000D01*
X22386691Y-9040653D01*
X22351869Y-9105800D01*
X22330426Y-9176487D01*
X22323186Y-9250000D01*
X22325000Y-9881250D01*
X22418750Y-9975000D01*
X25675000Y-9975000D01*
X25675000Y-8025000D01*
X22418750Y-8025000D01*
X22325000Y-8118750D01*
X22323186Y-8750000D01*
X19575000Y-8750000D01*
X19575000Y-6750000D01*
X22323186Y-6750000D01*
X22330426Y-6823513D01*
X22351869Y-6894200D01*
X22386691Y-6959347D01*
X22420054Y-7000000D01*
X22386691Y-7040653D01*
X22351869Y-7105800D01*
X22330426Y-7176487D01*
X22323186Y-7250000D01*
X22325000Y-7881250D01*
X22418750Y-7975000D01*
X25675000Y-7975000D01*
X25675000Y-6025000D01*
X22418750Y-6025000D01*
X22325000Y-6118750D01*
X22323186Y-6750000D01*
X19575000Y-6750000D01*
X19575000Y-5375000D01*
X22323545Y-5375000D01*
X22325000Y-5881250D01*
X22418750Y-5975000D01*
X25675000Y-5975000D01*
X25675000Y-5955000D01*
X25725000Y-5955000D01*
X25725000Y-5975000D01*
X25745000Y-5975000D01*
X25745000Y-6025000D01*
X25725000Y-6025000D01*
X25725000Y-7975000D01*
X25745000Y-7975000D01*
X25745000Y-8025000D01*
X25725000Y-8025000D01*
X25725000Y-9975000D01*
X25745000Y-9975000D01*
X25745000Y-10025000D01*
X25725000Y-10025000D01*
X25725000Y-10045000D01*
X25675000Y-10045000D01*
X25675000Y-10025000D01*
X22418750Y-10025000D01*
X22325000Y-10118750D01*
X22323186Y-10750000D01*
X22330426Y-10823513D01*
X22351869Y-10894200D01*
X22386691Y-10959347D01*
X22433552Y-11016448D01*
X22465218Y-11042435D01*
X22411970Y-11107318D01*
X22363287Y-11198397D01*
X22333309Y-11297224D01*
X22323186Y-11400000D01*
X22323186Y-12600000D01*
X22333309Y-12702776D01*
X22363287Y-12801603D01*
X22411970Y-12892682D01*
X22477486Y-12972514D01*
X22510978Y-13000000D01*
X22477486Y-13027486D01*
X22411970Y-13107318D01*
X22363287Y-13198397D01*
X22333309Y-13297224D01*
X22323186Y-13400000D01*
X22323186Y-14600000D01*
X22333309Y-14702776D01*
X22363287Y-14801603D01*
X22411970Y-14892682D01*
X22477486Y-14972514D01*
X22510978Y-15000000D01*
X22477486Y-15027486D01*
X22411970Y-15107318D01*
X22363287Y-15198397D01*
X22333309Y-15297224D01*
X22323186Y-15400000D01*
X22323186Y-16600000D01*
X22333309Y-16702776D01*
X22363287Y-16801603D01*
X22411970Y-16892682D01*
X22477486Y-16972514D01*
X22557318Y-17038030D01*
X22648397Y-17086713D01*
X22747224Y-17116691D01*
X22850000Y-17126814D01*
X28550000Y-17126814D01*
X28560458Y-17125784D01*
X28560635Y-17127469D01*
X28568846Y-17167472D01*
X28576479Y-17207486D01*
X28578295Y-17213501D01*
X28601380Y-17288075D01*
X28617198Y-17325706D01*
X28632463Y-17363488D01*
X28635412Y-17369036D01*
X28672542Y-17437706D01*
X28695344Y-17471511D01*
X28717682Y-17505648D01*
X28721653Y-17510517D01*
X28771414Y-17570668D01*
X28800378Y-17599430D01*
X28828892Y-17628548D01*
X28833733Y-17632553D01*
X28894230Y-17681893D01*
X28928228Y-17704481D01*
X28961855Y-17727506D01*
X28967382Y-17730495D01*
X29036311Y-17767145D01*
X29074048Y-17782699D01*
X29111503Y-17798753D01*
X29117505Y-17800611D01*
X29192239Y-17823175D01*
X29232298Y-17831107D01*
X29272145Y-17839577D01*
X29278389Y-17840234D01*
X29278393Y-17840234D01*
X29355434Y-17847788D01*
X29377895Y-17850000D01*
X31550001Y-17850000D01*
X31550000Y-20150000D01*
X30377895Y-20150000D01*
X30358819Y-20151879D01*
X30356423Y-20151862D01*
X30350170Y-20152475D01*
X30272532Y-20160635D01*
X30232535Y-20168845D01*
X30192514Y-20176479D01*
X30186505Y-20178293D01*
X30186501Y-20178294D01*
X30186498Y-20178295D01*
X30186499Y-20178295D01*
X30111924Y-20201380D01*
X30074292Y-20217199D01*
X30036512Y-20232463D01*
X30030968Y-20235411D01*
X30030963Y-20235413D01*
X30030962Y-20235414D01*
X29962293Y-20272542D01*
X29928471Y-20295355D01*
X29894352Y-20317682D01*
X29889483Y-20321653D01*
X29829332Y-20371414D01*
X29800570Y-20400378D01*
X29771452Y-20428892D01*
X29767446Y-20433733D01*
X29718107Y-20494230D01*
X29695503Y-20528251D01*
X29672494Y-20561855D01*
X29669508Y-20567377D01*
X29669505Y-20567381D01*
X29669505Y-20567382D01*
X29632855Y-20636311D01*
X29617301Y-20674048D01*
X29601247Y-20711503D01*
X29599389Y-20717505D01*
X29576825Y-20792239D01*
X29568896Y-20832283D01*
X29560423Y-20872144D01*
X29559766Y-20878393D01*
X29552168Y-20955883D01*
X29550000Y-20977896D01*
X29550001Y-43022105D01*
X29551879Y-43041172D01*
X29551862Y-43043577D01*
X29552475Y-43049830D01*
X29560635Y-43127469D01*
X29568846Y-43167472D01*
X29576479Y-43207486D01*
X29578295Y-43213501D01*
X29601380Y-43288075D01*
X29617198Y-43325706D01*
X29632463Y-43363488D01*
X29635412Y-43369036D01*
X29672542Y-43437706D01*
X29695344Y-43471511D01*
X29717682Y-43505648D01*
X29721653Y-43510517D01*
X29771414Y-43570668D01*
X29800378Y-43599430D01*
X29828892Y-43628548D01*
X29833733Y-43632553D01*
X29894230Y-43681893D01*
X29928228Y-43704481D01*
X29961855Y-43727506D01*
X29967382Y-43730495D01*
X30036311Y-43767145D01*
X30074048Y-43782699D01*
X30111503Y-43798753D01*
X30117505Y-43800611D01*
X30192239Y-43823175D01*
X30232298Y-43831107D01*
X30272145Y-43839577D01*
X30278389Y-43840234D01*
X30278393Y-43840234D01*
X30355434Y-43847788D01*
X30377895Y-43850000D01*
X31550000Y-43850000D01*
X31550001Y-46150000D01*
X29377895Y-46150000D01*
X29358819Y-46151879D01*
X29356423Y-46151862D01*
X29350170Y-46152475D01*
X29272532Y-46160635D01*
X29232535Y-46168845D01*
X29192514Y-46176479D01*
X29186505Y-46178293D01*
X29186501Y-46178294D01*
X29186498Y-46178295D01*
X29186499Y-46178295D01*
X29111924Y-46201380D01*
X29074292Y-46217199D01*
X29036512Y-46232463D01*
X29030968Y-46235411D01*
X29030963Y-46235413D01*
X29030962Y-46235414D01*
X28962293Y-46272542D01*
X28928471Y-46295355D01*
X28894352Y-46317682D01*
X28889483Y-46321653D01*
X28829332Y-46371414D01*
X28800570Y-46400378D01*
X28771452Y-46428892D01*
X28767446Y-46433733D01*
X28718107Y-46494230D01*
X28695503Y-46528251D01*
X28672494Y-46561855D01*
X28669508Y-46567377D01*
X28669505Y-46567381D01*
X28669505Y-46567382D01*
X28632855Y-46636311D01*
X28617301Y-46674048D01*
X28601247Y-46711503D01*
X28599389Y-46717505D01*
X28576825Y-46792239D01*
X28568896Y-46832283D01*
X28560423Y-46872144D01*
X28560208Y-46874191D01*
X28550000Y-46873186D01*
X26675000Y-46873186D01*
X26675000Y-44600463D01*
X26716448Y-44566448D01*
X26763309Y-44509347D01*
X26798131Y-44444200D01*
X26819574Y-44373513D01*
X26826814Y-44300000D01*
X26826814Y-43300000D01*
X26819574Y-43226487D01*
X26798131Y-43155800D01*
X26763309Y-43090653D01*
X26716448Y-43033552D01*
X26659347Y-42986691D01*
X26594200Y-42951869D01*
X26523513Y-42930426D01*
X26450000Y-42923186D01*
X25824561Y-42923186D01*
X25800000Y-42920767D01*
X25775439Y-42923186D01*
X25150000Y-42923186D01*
X25076487Y-42930426D01*
X25005800Y-42951869D01*
X24940653Y-42986691D01*
X24883552Y-43033552D01*
X24836691Y-43090653D01*
X24801869Y-43155800D01*
X24780426Y-43226487D01*
X24773186Y-43300000D01*
X24773186Y-44300000D01*
X24780426Y-44373513D01*
X24801869Y-44444200D01*
X24836691Y-44509347D01*
X24883552Y-44566448D01*
X24925000Y-44600463D01*
X24925000Y-45247932D01*
X24873159Y-45232206D01*
X24800000Y-45225000D01*
X22100000Y-45225000D01*
X22026841Y-45232206D01*
X21956494Y-45253545D01*
X21891661Y-45288199D01*
X21834835Y-45334835D01*
X21788199Y-45391661D01*
X21753545Y-45456494D01*
X21732206Y-45526841D01*
X21725000Y-45600000D01*
X21725000Y-46800000D01*
X21732206Y-46873159D01*
X21753545Y-46943506D01*
X21788199Y-47008339D01*
X21834835Y-47065165D01*
X21891661Y-47111801D01*
X21956494Y-47146455D01*
X22026841Y-47167794D01*
X22100000Y-47175000D01*
X22375793Y-47175000D01*
X22363287Y-47198397D01*
X22333309Y-47297224D01*
X22323186Y-47400000D01*
X22323186Y-48600000D01*
X22333309Y-48702776D01*
X22363287Y-48801603D01*
X22411970Y-48892682D01*
X22465218Y-48957565D01*
X22433552Y-48983552D01*
X22386691Y-49040653D01*
X22351869Y-49105800D01*
X22330426Y-49176487D01*
X22323186Y-49250000D01*
X22325000Y-49881250D01*
X22418750Y-49975000D01*
X25675000Y-49975000D01*
X25675000Y-49955000D01*
X25725000Y-49955000D01*
X25725000Y-49975000D01*
X25745000Y-49975000D01*
X25745000Y-50025000D01*
X25725000Y-50025000D01*
X25725000Y-50045000D01*
X25675000Y-50045000D01*
X25675000Y-50025000D01*
X22418750Y-50025000D01*
X22325000Y-50118750D01*
X22323186Y-50750000D01*
X22330426Y-50823513D01*
X22351869Y-50894200D01*
X22386691Y-50959347D01*
X22433552Y-51016448D01*
X22465218Y-51042435D01*
X22411970Y-51107318D01*
X22363287Y-51198397D01*
X22333309Y-51297224D01*
X22323186Y-51400000D01*
X22323186Y-51525000D01*
X22023331Y-51525000D01*
X21999999Y-51522702D01*
X21906883Y-51531873D01*
X21879722Y-51540112D01*
X21817346Y-51559034D01*
X21734827Y-51603141D01*
X21662499Y-51662499D01*
X21647620Y-51680629D01*
X21080634Y-52247616D01*
X21062499Y-52262499D01*
X21003141Y-52334827D01*
X20959034Y-52417347D01*
X20944526Y-52465173D01*
X20931873Y-52506884D01*
X20922702Y-52600000D01*
X20925000Y-52623332D01*
X20925001Y-55271851D01*
X19871883Y-56324970D01*
X13293816Y-56324970D01*
X12925029Y-55956185D01*
X12925029Y-55800000D01*
X15823186Y-55800000D01*
X15830426Y-55873513D01*
X15851869Y-55944200D01*
X15886691Y-56009347D01*
X15933552Y-56066448D01*
X15990653Y-56113309D01*
X16055800Y-56148131D01*
X16126487Y-56169574D01*
X16200000Y-56176814D01*
X17481250Y-56175000D01*
X17575000Y-56081250D01*
X17575000Y-54425000D01*
X17625000Y-54425000D01*
X17625000Y-56081250D01*
X17718750Y-56175000D01*
X19000000Y-56176814D01*
X19073513Y-56169574D01*
X19144200Y-56148131D01*
X19209347Y-56113309D01*
X19266448Y-56066448D01*
X19313309Y-56009347D01*
X19348131Y-55944200D01*
X19369574Y-55873513D01*
X19376814Y-55800000D01*
X19375000Y-54518750D01*
X19281250Y-54425000D01*
X17625000Y-54425000D01*
X17575000Y-54425000D01*
X15918750Y-54425000D01*
X15825000Y-54518750D01*
X15823186Y-55800000D01*
X12925029Y-55800000D01*
X12925029Y-53000000D01*
X15823186Y-53000000D01*
X15825000Y-54281250D01*
X15918750Y-54375000D01*
X17575000Y-54375000D01*
X17575000Y-52718750D01*
X17625000Y-52718750D01*
X17625000Y-54375000D01*
X19281250Y-54375000D01*
X19375000Y-54281250D01*
X19376814Y-53000000D01*
X19369574Y-52926487D01*
X19348131Y-52855800D01*
X19313309Y-52790653D01*
X19266448Y-52733552D01*
X19209347Y-52686691D01*
X19144200Y-52651869D01*
X19073513Y-52630426D01*
X19000000Y-52623186D01*
X17718750Y-52625000D01*
X17625000Y-52718750D01*
X17575000Y-52718750D01*
X17481250Y-52625000D01*
X16200000Y-52623186D01*
X16126487Y-52630426D01*
X16055800Y-52651869D01*
X15990653Y-52686691D01*
X15933552Y-52733552D01*
X15886691Y-52790653D01*
X15851869Y-52855800D01*
X15830426Y-52926487D01*
X15823186Y-53000000D01*
X12925029Y-53000000D01*
X12925029Y-47376264D01*
X12927327Y-47352932D01*
X12918630Y-47264627D01*
X12996890Y-47249060D01*
X13119732Y-47198177D01*
X13230287Y-47124307D01*
X13324307Y-47030287D01*
X13398177Y-46919732D01*
X13408346Y-46895182D01*
X13475693Y-46995974D01*
X13569713Y-47089994D01*
X13680268Y-47163864D01*
X13803110Y-47214747D01*
X13933518Y-47240687D01*
X14066482Y-47240687D01*
X14196890Y-47214747D01*
X14319732Y-47163864D01*
X14430287Y-47089994D01*
X14524307Y-46995974D01*
X14598177Y-46885419D01*
X14649060Y-46762577D01*
X14666480Y-46675000D01*
X14666482Y-46675000D01*
X14725001Y-46663360D01*
X14725001Y-48653248D01*
X14603249Y-48775000D01*
X14533518Y-48775000D01*
X14403110Y-48800940D01*
X14280268Y-48851823D01*
X14169713Y-48925693D01*
X14075693Y-49019713D01*
X14001823Y-49130268D01*
X13950940Y-49253110D01*
X13925000Y-49383518D01*
X13925000Y-49516482D01*
X13950940Y-49646890D01*
X14001823Y-49769732D01*
X14075693Y-49880287D01*
X14169713Y-49974307D01*
X14280268Y-50048177D01*
X14403110Y-50099060D01*
X14533518Y-50125000D01*
X14666482Y-50125000D01*
X14796890Y-50099060D01*
X14919732Y-50048177D01*
X15030287Y-49974307D01*
X15124307Y-49880287D01*
X15198177Y-49769732D01*
X15249060Y-49646890D01*
X15275000Y-49516482D01*
X15275000Y-49446751D01*
X15519371Y-49202380D01*
X15537501Y-49187501D01*
X15596859Y-49115173D01*
X15640966Y-49032654D01*
X15663905Y-48957033D01*
X15668127Y-48943117D01*
X15677298Y-48850001D01*
X15675000Y-48826669D01*
X15675000Y-46600000D01*
X15823186Y-46600000D01*
X15823186Y-49400000D01*
X15830426Y-49473513D01*
X15851869Y-49544200D01*
X15886691Y-49609347D01*
X15933552Y-49666448D01*
X15990653Y-49713309D01*
X16055800Y-49748131D01*
X16126487Y-49769574D01*
X16200000Y-49776814D01*
X19000000Y-49776814D01*
X19073513Y-49769574D01*
X19144200Y-49748131D01*
X19209347Y-49713309D01*
X19266448Y-49666448D01*
X19313309Y-49609347D01*
X19348131Y-49544200D01*
X19369574Y-49473513D01*
X19376814Y-49400000D01*
X19376814Y-46600000D01*
X19369574Y-46526487D01*
X19348131Y-46455800D01*
X19313309Y-46390653D01*
X19266448Y-46333552D01*
X19209347Y-46286691D01*
X19144200Y-46251869D01*
X19073513Y-46230426D01*
X19000000Y-46223186D01*
X16200000Y-46223186D01*
X16126487Y-46230426D01*
X16055800Y-46251869D01*
X15990653Y-46286691D01*
X15933552Y-46333552D01*
X15886691Y-46390653D01*
X15851869Y-46455800D01*
X15830426Y-46526487D01*
X15823186Y-46600000D01*
X15675000Y-46600000D01*
X15675000Y-44700000D01*
X16123186Y-44700000D01*
X16130426Y-44773513D01*
X16151869Y-44844200D01*
X16186691Y-44909347D01*
X16233552Y-44966448D01*
X16290653Y-45013309D01*
X16355800Y-45048131D01*
X16426487Y-45069574D01*
X16500000Y-45076814D01*
X16731250Y-45075000D01*
X16825000Y-44981250D01*
X16825000Y-44225000D01*
X16875000Y-44225000D01*
X16875000Y-44981250D01*
X16968750Y-45075000D01*
X17200000Y-45076814D01*
X17273513Y-45069574D01*
X17344200Y-45048131D01*
X17409347Y-45013309D01*
X17466448Y-44966448D01*
X17513309Y-44909347D01*
X17548131Y-44844200D01*
X17569574Y-44773513D01*
X17576814Y-44700000D01*
X17575000Y-44318750D01*
X17481250Y-44225000D01*
X16875000Y-44225000D01*
X16825000Y-44225000D01*
X16218750Y-44225000D01*
X16125000Y-44318750D01*
X16123186Y-44700000D01*
X15675000Y-44700000D01*
X15675000Y-43700000D01*
X16123186Y-43700000D01*
X16125000Y-44081250D01*
X16218750Y-44175000D01*
X16825000Y-44175000D01*
X16825000Y-43418750D01*
X16875000Y-43418750D01*
X16875000Y-44175000D01*
X17481250Y-44175000D01*
X17575000Y-44081250D01*
X17576814Y-43700000D01*
X17623186Y-43700000D01*
X17623186Y-44700000D01*
X17630426Y-44773513D01*
X17651869Y-44844200D01*
X17686691Y-44909347D01*
X17733552Y-44966448D01*
X17790653Y-45013309D01*
X17855800Y-45048131D01*
X17926487Y-45069574D01*
X18000000Y-45076814D01*
X18700000Y-45076814D01*
X18773513Y-45069574D01*
X18844200Y-45048131D01*
X18867096Y-45035893D01*
X18901823Y-45119732D01*
X18975693Y-45230287D01*
X19069713Y-45324307D01*
X19180268Y-45398177D01*
X19303110Y-45449060D01*
X19433518Y-45475000D01*
X19566482Y-45475000D01*
X19696890Y-45449060D01*
X19754976Y-45425000D01*
X19869306Y-45425000D01*
X19900000Y-45428023D01*
X19930694Y-45425000D01*
X20069305Y-45425000D01*
X20099999Y-45428023D01*
X20130693Y-45425000D01*
X20245024Y-45425000D01*
X20303110Y-45449060D01*
X20433518Y-45475000D01*
X20566482Y-45475000D01*
X20696890Y-45449060D01*
X20819732Y-45398177D01*
X20930287Y-45324307D01*
X21024307Y-45230287D01*
X21098177Y-45119732D01*
X21149060Y-44996890D01*
X21159846Y-44942668D01*
X21165957Y-44922521D01*
X21168020Y-44901571D01*
X21175000Y-44866482D01*
X21175000Y-44830703D01*
X21178024Y-44800000D01*
X21175000Y-44769296D01*
X21175000Y-44733518D01*
X21168020Y-44698429D01*
X21165957Y-44677479D01*
X21159846Y-44657332D01*
X21149060Y-44603110D01*
X21125000Y-44545024D01*
X21125000Y-44454976D01*
X21149060Y-44396890D01*
X21175000Y-44266482D01*
X21175000Y-44133518D01*
X21149060Y-44003110D01*
X21125000Y-43945024D01*
X21125000Y-43854976D01*
X21149060Y-43796890D01*
X21175000Y-43666482D01*
X21175000Y-43533518D01*
X21149060Y-43403110D01*
X21098177Y-43280268D01*
X21024307Y-43169713D01*
X20930287Y-43075693D01*
X20819732Y-43001823D01*
X20696890Y-42950940D01*
X20566482Y-42925000D01*
X20433518Y-42925000D01*
X20303110Y-42950940D01*
X20245024Y-42975000D01*
X19754976Y-42975000D01*
X19696890Y-42950940D01*
X19566482Y-42925000D01*
X19433518Y-42925000D01*
X19303110Y-42950940D01*
X19180268Y-43001823D01*
X19069713Y-43075693D01*
X18975693Y-43169713D01*
X18901823Y-43280268D01*
X18867096Y-43364107D01*
X18844200Y-43351869D01*
X18773513Y-43330426D01*
X18700000Y-43323186D01*
X18000000Y-43323186D01*
X17926487Y-43330426D01*
X17855800Y-43351869D01*
X17790653Y-43386691D01*
X17733552Y-43433552D01*
X17686691Y-43490653D01*
X17651869Y-43555800D01*
X17630426Y-43626487D01*
X17623186Y-43700000D01*
X17576814Y-43700000D01*
X17569574Y-43626487D01*
X17548131Y-43555800D01*
X17513309Y-43490653D01*
X17466448Y-43433552D01*
X17409347Y-43386691D01*
X17344200Y-43351869D01*
X17273513Y-43330426D01*
X17200000Y-43323186D01*
X16968750Y-43325000D01*
X16875000Y-43418750D01*
X16825000Y-43418750D01*
X16731250Y-43325000D01*
X16500000Y-43323186D01*
X16426487Y-43330426D01*
X16355800Y-43351869D01*
X16290653Y-43386691D01*
X16233552Y-43433552D01*
X16186691Y-43490653D01*
X16151869Y-43555800D01*
X16130426Y-43626487D01*
X16123186Y-43700000D01*
X15675000Y-43700000D01*
X15675000Y-41596830D01*
X15971830Y-41300000D01*
X24773186Y-41300000D01*
X24773186Y-42300000D01*
X24780426Y-42373513D01*
X24801869Y-42444200D01*
X24836691Y-42509347D01*
X24883552Y-42566448D01*
X24940653Y-42613309D01*
X25005800Y-42648131D01*
X25076487Y-42669574D01*
X25150000Y-42676814D01*
X25775439Y-42676814D01*
X25800000Y-42679233D01*
X25824561Y-42676814D01*
X26450000Y-42676814D01*
X26523513Y-42669574D01*
X26594200Y-42648131D01*
X26659347Y-42613309D01*
X26716448Y-42566448D01*
X26763309Y-42509347D01*
X26798131Y-42444200D01*
X26819574Y-42373513D01*
X26826814Y-42300000D01*
X26826814Y-41300000D01*
X26819574Y-41226487D01*
X26798131Y-41155800D01*
X26763309Y-41090653D01*
X26716448Y-41033552D01*
X26675000Y-40999537D01*
X26675000Y-39918419D01*
X26676814Y-39900000D01*
X26676814Y-39200000D01*
X26669574Y-39126487D01*
X26648131Y-39055800D01*
X26613309Y-38990653D01*
X26566448Y-38933552D01*
X26509347Y-38886691D01*
X26444200Y-38851869D01*
X26373513Y-38830426D01*
X26300000Y-38823186D01*
X25300000Y-38823186D01*
X25226487Y-38830426D01*
X25155800Y-38851869D01*
X25090653Y-38886691D01*
X25033552Y-38933552D01*
X24986691Y-38990653D01*
X24951869Y-39055800D01*
X24930426Y-39126487D01*
X24923186Y-39200000D01*
X24923186Y-39900000D01*
X24925000Y-39918419D01*
X24925001Y-40999536D01*
X24883552Y-41033552D01*
X24836691Y-41090653D01*
X24801869Y-41155800D01*
X24780426Y-41226487D01*
X24773186Y-41300000D01*
X15971830Y-41300000D01*
X16196791Y-41075040D01*
X20846028Y-41075040D01*
X20869360Y-41077338D01*
X20892692Y-41075040D01*
X20962476Y-41068167D01*
X21052014Y-41041006D01*
X21134533Y-40996899D01*
X21206861Y-40937541D01*
X21221744Y-40919406D01*
X23319392Y-38821759D01*
X23337521Y-38806881D01*
X23396879Y-38734553D01*
X23440986Y-38652034D01*
X23463660Y-38577287D01*
X23468147Y-38562497D01*
X23477318Y-38469381D01*
X23475020Y-38446049D01*
X23475020Y-36733518D01*
X24825000Y-36733518D01*
X24825000Y-36866482D01*
X24850940Y-36996890D01*
X24875000Y-37054976D01*
X24875000Y-37145024D01*
X24850940Y-37203110D01*
X24825000Y-37333518D01*
X24825000Y-37466482D01*
X24850940Y-37596890D01*
X24875000Y-37654976D01*
X24875000Y-37719306D01*
X24871977Y-37750000D01*
X24875000Y-37780694D01*
X24875000Y-37780704D01*
X24884043Y-37872521D01*
X24919781Y-37990334D01*
X24923186Y-37996704D01*
X24923186Y-38400000D01*
X24930426Y-38473513D01*
X24951869Y-38544200D01*
X24986691Y-38609347D01*
X25033552Y-38666448D01*
X25090653Y-38713309D01*
X25155800Y-38748131D01*
X25226487Y-38769574D01*
X25300000Y-38776814D01*
X26300000Y-38776814D01*
X26373513Y-38769574D01*
X26444200Y-38748131D01*
X26509347Y-38713309D01*
X26566448Y-38666448D01*
X26613309Y-38609347D01*
X26648131Y-38544200D01*
X26669574Y-38473513D01*
X26676814Y-38400000D01*
X26676814Y-37996704D01*
X26680219Y-37990334D01*
X26715957Y-37872520D01*
X26725000Y-37780703D01*
X26725000Y-37780695D01*
X26728023Y-37750001D01*
X26725000Y-37719307D01*
X26725000Y-37654976D01*
X26749060Y-37596890D01*
X26775000Y-37466482D01*
X26775000Y-37333518D01*
X26749060Y-37203110D01*
X26725000Y-37145024D01*
X26725000Y-37054976D01*
X26749060Y-36996890D01*
X26775000Y-36866482D01*
X26775000Y-36733518D01*
X26749060Y-36603110D01*
X26725000Y-36545024D01*
X26725000Y-36480693D01*
X26728023Y-36449999D01*
X26725000Y-36419305D01*
X26725000Y-36419297D01*
X26715957Y-36327480D01*
X26680219Y-36209666D01*
X26676814Y-36203296D01*
X26676814Y-35800000D01*
X26669574Y-35726487D01*
X26648131Y-35655800D01*
X26613309Y-35590653D01*
X26566448Y-35533552D01*
X26509347Y-35486691D01*
X26444200Y-35451869D01*
X26373513Y-35430426D01*
X26300000Y-35423186D01*
X25300000Y-35423186D01*
X25226487Y-35430426D01*
X25155800Y-35451869D01*
X25090653Y-35486691D01*
X25033552Y-35533552D01*
X24986691Y-35590653D01*
X24951869Y-35655800D01*
X24930426Y-35726487D01*
X24923186Y-35800000D01*
X24923186Y-36203296D01*
X24919781Y-36209666D01*
X24884043Y-36327479D01*
X24875000Y-36419296D01*
X24875000Y-36419306D01*
X24871977Y-36450000D01*
X24875000Y-36480694D01*
X24875000Y-36545024D01*
X24850940Y-36603110D01*
X24825000Y-36733518D01*
X23475020Y-36733518D01*
X23475020Y-35000000D01*
X24923186Y-35000000D01*
X24930426Y-35073513D01*
X24951869Y-35144200D01*
X24986691Y-35209347D01*
X25033552Y-35266448D01*
X25090653Y-35313309D01*
X25155800Y-35348131D01*
X25226487Y-35369574D01*
X25300000Y-35376814D01*
X25681250Y-35375000D01*
X25775000Y-35281250D01*
X25775000Y-34675000D01*
X25825000Y-34675000D01*
X25825000Y-35281250D01*
X25918750Y-35375000D01*
X26300000Y-35376814D01*
X26373513Y-35369574D01*
X26444200Y-35348131D01*
X26509347Y-35313309D01*
X26566448Y-35266448D01*
X26613309Y-35209347D01*
X26648131Y-35144200D01*
X26669574Y-35073513D01*
X26676814Y-35000000D01*
X26675000Y-34768750D01*
X26581250Y-34675000D01*
X25825000Y-34675000D01*
X25775000Y-34675000D01*
X25018750Y-34675000D01*
X24925000Y-34768750D01*
X24923186Y-35000000D01*
X23475020Y-35000000D01*
X23475020Y-34300000D01*
X24923186Y-34300000D01*
X24925000Y-34531250D01*
X25018750Y-34625000D01*
X25775000Y-34625000D01*
X25775000Y-34018750D01*
X25825000Y-34018750D01*
X25825000Y-34625000D01*
X26581250Y-34625000D01*
X26675000Y-34531250D01*
X26676814Y-34300000D01*
X26669574Y-34226487D01*
X26648131Y-34155800D01*
X26613309Y-34090653D01*
X26566448Y-34033552D01*
X26509347Y-33986691D01*
X26444200Y-33951869D01*
X26373513Y-33930426D01*
X26300000Y-33923186D01*
X25918750Y-33925000D01*
X25825000Y-34018750D01*
X25775000Y-34018750D01*
X25681250Y-33925000D01*
X25300000Y-33923186D01*
X25226487Y-33930426D01*
X25155800Y-33951869D01*
X25090653Y-33986691D01*
X25033552Y-34033552D01*
X24986691Y-34090653D01*
X24951869Y-34155800D01*
X24930426Y-34226487D01*
X24923186Y-34300000D01*
X23475020Y-34300000D01*
X23475020Y-32057652D01*
X23477318Y-32034320D01*
X23468147Y-31941204D01*
X23457736Y-31906884D01*
X23440986Y-31851667D01*
X23396879Y-31769148D01*
X23337521Y-31696820D01*
X23319392Y-31681942D01*
X21075000Y-29437551D01*
X21075000Y-16823331D01*
X21077298Y-16799999D01*
X21068127Y-16706883D01*
X21055474Y-16665173D01*
X21040966Y-16617346D01*
X20996859Y-16534827D01*
X20937501Y-16462499D01*
X20919371Y-16447620D01*
X20352374Y-15880624D01*
X20337491Y-15862489D01*
X20265163Y-15803131D01*
X20182644Y-15759024D01*
X20093106Y-15731863D01*
X20023322Y-15724990D01*
X19999990Y-15722692D01*
X19976658Y-15724990D01*
X18423321Y-15724990D01*
X18399989Y-15722692D01*
X18306873Y-15731863D01*
X18279712Y-15740102D01*
X18217336Y-15759024D01*
X18134817Y-15803131D01*
X18062489Y-15862489D01*
X18047610Y-15880619D01*
X17530629Y-16397601D01*
X17512500Y-16412479D01*
X17453142Y-16484807D01*
X17426406Y-16534827D01*
X17409035Y-16567326D01*
X17381873Y-16656864D01*
X17375341Y-16723186D01*
X17225000Y-16723186D01*
X17151487Y-16730426D01*
X17100000Y-16746045D01*
X17048513Y-16730426D01*
X16975000Y-16723186D01*
X16725000Y-16723186D01*
X16651487Y-16730426D01*
X16612500Y-16742253D01*
X16573513Y-16730426D01*
X16500000Y-16723186D01*
X16250000Y-16723186D01*
X16176487Y-16730426D01*
X16105800Y-16751869D01*
X16040653Y-16786691D01*
X15983552Y-16833552D01*
X15936691Y-16890653D01*
X15901869Y-16955800D01*
X15880426Y-17026487D01*
X15873186Y-17100000D01*
X15873186Y-17473186D01*
X15500000Y-17473186D01*
X15426487Y-17480426D01*
X15355800Y-17501869D01*
X15290653Y-17536691D01*
X15233552Y-17583552D01*
X15186691Y-17640653D01*
X15151869Y-17705800D01*
X15130426Y-17776487D01*
X15123186Y-17850000D01*
X15123186Y-18100000D01*
X15130426Y-18173513D01*
X15142253Y-18212500D01*
X15130426Y-18251487D01*
X15123186Y-18325000D01*
X15123186Y-18575000D01*
X15130426Y-18648513D01*
X15144528Y-18695000D01*
X15130426Y-18741487D01*
X15123186Y-18815000D01*
X15125000Y-18831250D01*
X15218750Y-18925000D01*
X15361961Y-18925000D01*
X15426487Y-18944574D01*
X15481581Y-18950000D01*
X15426487Y-18955426D01*
X15361961Y-18975000D01*
X15012449Y-18975000D01*
X14541701Y-18504253D01*
X14598177Y-18419730D01*
X14649060Y-18296888D01*
X14675000Y-18166480D01*
X14675000Y-18033516D01*
X14649060Y-17903108D01*
X14598177Y-17780266D01*
X14524307Y-17669711D01*
X14430287Y-17575691D01*
X14319732Y-17501821D01*
X14196890Y-17450938D01*
X14066482Y-17424998D01*
X13933518Y-17424998D01*
X13803110Y-17450938D01*
X13680268Y-17501821D01*
X13569713Y-17575691D01*
X13475693Y-17669711D01*
X13401823Y-17780266D01*
X13357946Y-17886195D01*
X12652381Y-17180631D01*
X12637498Y-17162496D01*
X12565170Y-17103138D01*
X12482651Y-17059031D01*
X12393113Y-17031870D01*
X12353322Y-17027951D01*
X12299997Y-17022699D01*
X12276665Y-17024997D01*
X11723335Y-17024997D01*
X11700003Y-17022699D01*
X11606887Y-17031870D01*
X11517348Y-17059031D01*
X11497205Y-17069798D01*
X11434830Y-17103138D01*
X11362502Y-17162496D01*
X11347628Y-17180620D01*
X10845073Y-17683176D01*
X10815847Y-17659191D01*
X10750700Y-17624369D01*
X10680013Y-17602926D01*
X10606500Y-17595686D01*
X9876064Y-17595686D01*
X10719371Y-16752380D01*
X10737501Y-16737501D01*
X10796859Y-16665173D01*
X10840966Y-16582654D01*
X10868127Y-16493116D01*
X10868592Y-16488400D01*
X10877298Y-16400000D01*
X10875000Y-16376668D01*
X10875000Y-14575000D01*
X19200000Y-14575000D01*
X19273159Y-14567794D01*
X19343506Y-14546455D01*
X19408339Y-14511801D01*
X19465165Y-14465165D01*
X19511801Y-14408339D01*
X19546455Y-14343506D01*
X19567794Y-14273159D01*
X19575000Y-14200000D01*
X19575000Y-11400000D01*
X19567794Y-11326841D01*
X19546455Y-11256494D01*
X19511801Y-11191661D01*
X19465165Y-11134835D01*
X19408339Y-11088199D01*
X19343506Y-11053545D01*
X19273159Y-11032206D01*
X19200000Y-11025000D01*
X9653955Y-11025000D01*
X9669574Y-10973513D01*
X9676814Y-10900000D01*
X9676814Y-10200000D01*
X9669574Y-10126487D01*
X9648131Y-10055800D01*
X9613309Y-9990653D01*
X9566448Y-9933552D01*
X9509347Y-9886691D01*
X9444200Y-9851869D01*
X9373513Y-9830426D01*
X9300000Y-9823186D01*
X8300000Y-9823186D01*
X8226487Y-9830426D01*
X8155800Y-9851869D01*
X8090653Y-9886691D01*
X8033552Y-9933552D01*
X7986691Y-9990653D01*
X7951869Y-10055800D01*
X7930426Y-10126487D01*
X7923186Y-10200000D01*
X7923186Y-10900000D01*
X7930426Y-10973513D01*
X7946045Y-11025000D01*
X7600000Y-11025000D01*
X7526841Y-11032206D01*
X7456494Y-11053545D01*
X7391661Y-11088199D01*
X7334835Y-11134835D01*
X7288199Y-11191661D01*
X7253545Y-11256494D01*
X7232206Y-11326841D01*
X7225000Y-11400000D01*
X7225000Y-14200000D01*
X7227462Y-14225000D01*
X4000000Y-14225000D01*
X3926841Y-14232206D01*
X3856494Y-14253545D01*
X3791661Y-14288199D01*
X3734835Y-14334835D01*
X3688199Y-14391661D01*
X3653545Y-14456494D01*
X3632206Y-14526841D01*
X3625000Y-14600000D01*
X3625000Y-17368332D01*
X3590653Y-17386691D01*
X3533552Y-17433552D01*
X3486691Y-17490653D01*
X3451869Y-17555800D01*
X3430426Y-17626487D01*
X3423186Y-17700000D01*
X3423186Y-18100000D01*
X3430426Y-18173513D01*
X3446045Y-18225000D01*
X3430426Y-18276487D01*
X3423186Y-18350000D01*
X3423186Y-18750000D01*
X3430426Y-18823513D01*
X3446045Y-18875000D01*
X3430426Y-18926487D01*
X3423186Y-19000000D01*
X3423186Y-19400000D01*
X3430426Y-19473513D01*
X3446045Y-19525000D01*
X3430426Y-19576487D01*
X3423186Y-19650000D01*
X3423186Y-20050000D01*
X3430426Y-20123513D01*
X3446045Y-20175000D01*
X3430426Y-20226487D01*
X3423186Y-20300000D01*
X3425000Y-20381250D01*
X3518750Y-20475000D01*
X4775000Y-20475000D01*
X4775000Y-20455000D01*
X4825000Y-20455000D01*
X4825000Y-20475000D01*
X6081250Y-20475000D01*
X6175000Y-20381250D01*
X6176814Y-20300000D01*
X6169574Y-20226487D01*
X6153955Y-20175000D01*
X6169574Y-20123513D01*
X6176814Y-20050000D01*
X6176814Y-20048565D01*
X6600120Y-20471871D01*
X6614999Y-20490001D01*
X6623531Y-20497003D01*
X6623926Y-20501013D01*
X6645369Y-20571700D01*
X6680191Y-20636847D01*
X6727052Y-20693948D01*
X6784153Y-20740809D01*
X6849300Y-20775631D01*
X6919987Y-20797074D01*
X6993500Y-20804314D01*
X8193500Y-20804314D01*
X8267013Y-20797074D01*
X8337700Y-20775631D01*
X8402847Y-20740809D01*
X8459948Y-20693948D01*
X8506809Y-20636847D01*
X8525000Y-20602814D01*
X8525000Y-20836665D01*
X8522702Y-20859998D01*
X8531873Y-20953114D01*
X8539391Y-20977896D01*
X8559034Y-21042651D01*
X8603141Y-21125171D01*
X8662499Y-21197499D01*
X8680634Y-21212382D01*
X8793252Y-21325000D01*
X8774998Y-21325000D01*
X8774998Y-21418748D01*
X8681250Y-21325000D01*
X8300000Y-21323186D01*
X8226487Y-21330426D01*
X8155800Y-21351869D01*
X8090653Y-21386691D01*
X8033552Y-21433552D01*
X7986691Y-21490653D01*
X7951869Y-21555800D01*
X7930426Y-21626487D01*
X7923186Y-21700000D01*
X7925000Y-21931250D01*
X8018750Y-22025000D01*
X8775000Y-22025000D01*
X8775000Y-22005000D01*
X8825000Y-22005000D01*
X8825000Y-22025000D01*
X8845000Y-22025000D01*
X8845000Y-22075000D01*
X8825000Y-22075000D01*
X8825000Y-22681250D01*
X8918750Y-22775000D01*
X9300000Y-22776814D01*
X9373513Y-22769574D01*
X9444200Y-22748131D01*
X9509347Y-22713309D01*
X9566448Y-22666448D01*
X9613309Y-22609347D01*
X9648131Y-22544200D01*
X9669574Y-22473513D01*
X9676814Y-22400000D01*
X9675300Y-22207049D01*
X9987622Y-22519371D01*
X10002501Y-22537501D01*
X10074829Y-22596859D01*
X10157348Y-22640966D01*
X10209823Y-22656884D01*
X10246885Y-22668127D01*
X10340001Y-22677298D01*
X10363334Y-22675000D01*
X12776668Y-22675000D01*
X12800000Y-22677298D01*
X12823332Y-22675000D01*
X12893116Y-22668127D01*
X12982654Y-22640966D01*
X13065173Y-22596859D01*
X13137501Y-22537501D01*
X13152383Y-22519367D01*
X13196750Y-22475000D01*
X14920406Y-22475000D01*
X14969713Y-22524307D01*
X15080268Y-22598177D01*
X15203110Y-22649060D01*
X15333518Y-22675000D01*
X15466482Y-22675000D01*
X15525001Y-22663360D01*
X15525000Y-24936640D01*
X15466482Y-24925000D01*
X15333518Y-24925000D01*
X15203110Y-24950940D01*
X15080268Y-25001823D01*
X14969713Y-25075693D01*
X14875693Y-25169713D01*
X14801823Y-25280268D01*
X14750940Y-25403110D01*
X14725000Y-25533518D01*
X14725000Y-25666482D01*
X14750940Y-25796890D01*
X14801823Y-25919732D01*
X14875693Y-26030287D01*
X14925001Y-26079595D01*
X14925000Y-30253250D01*
X14752384Y-30080634D01*
X14737501Y-30062499D01*
X14665173Y-30003141D01*
X14582654Y-29959034D01*
X14493116Y-29931873D01*
X14423332Y-29925000D01*
X14400000Y-29922702D01*
X14376668Y-29925000D01*
X14345031Y-29925000D01*
X14313309Y-29865653D01*
X14300463Y-29850000D01*
X14313309Y-29834347D01*
X14348131Y-29769200D01*
X14369574Y-29698513D01*
X14376814Y-29625000D01*
X14376814Y-28975000D01*
X14369574Y-28901487D01*
X14348131Y-28830800D01*
X14313309Y-28765653D01*
X14300463Y-28750000D01*
X14313309Y-28734347D01*
X14348131Y-28669200D01*
X14369574Y-28598513D01*
X14376814Y-28525000D01*
X14376814Y-27875000D01*
X14369574Y-27801487D01*
X14348131Y-27730800D01*
X14313309Y-27665653D01*
X14266448Y-27608552D01*
X14209347Y-27561691D01*
X14144200Y-27526869D01*
X14073513Y-27505426D01*
X14000000Y-27498186D01*
X12000000Y-27498186D01*
X11926487Y-27505426D01*
X11855800Y-27526869D01*
X11790653Y-27561691D01*
X11733552Y-27608552D01*
X11686691Y-27665653D01*
X11651869Y-27730800D01*
X11630426Y-27801487D01*
X11623186Y-27875000D01*
X11623186Y-28525000D01*
X11630426Y-28598513D01*
X11651869Y-28669200D01*
X11686691Y-28734347D01*
X11699537Y-28750000D01*
X11686691Y-28765653D01*
X11651869Y-28830800D01*
X11630426Y-28901487D01*
X11623186Y-28975000D01*
X11623186Y-29625000D01*
X11630426Y-29698513D01*
X11651869Y-29769200D01*
X11686691Y-29834347D01*
X11699537Y-29850000D01*
X11686691Y-29865653D01*
X11651869Y-29930800D01*
X11645935Y-29950362D01*
X11617346Y-29959034D01*
X11534827Y-30003141D01*
X11462499Y-30062499D01*
X11447620Y-30080629D01*
X11080623Y-30447627D01*
X11062500Y-30462500D01*
X11037374Y-30493116D01*
X11003142Y-30534828D01*
X10959035Y-30617346D01*
X10931873Y-30706884D01*
X10922702Y-30800000D01*
X10925020Y-30823535D01*
X10925021Y-37376638D01*
X10922722Y-37399980D01*
X10931893Y-37493096D01*
X10950915Y-37555800D01*
X10959055Y-37582634D01*
X11003162Y-37665153D01*
X11062520Y-37737481D01*
X11080649Y-37752359D01*
X11447654Y-38119366D01*
X11462529Y-38137491D01*
X11480652Y-38152364D01*
X11534857Y-38196849D01*
X11617376Y-38240956D01*
X11706914Y-38268117D01*
X11800030Y-38277288D01*
X11823362Y-38274990D01*
X13637541Y-38274990D01*
X14692782Y-39330231D01*
X14666482Y-39325000D01*
X14533518Y-39325000D01*
X14403110Y-39350940D01*
X14280268Y-39401823D01*
X14169713Y-39475693D01*
X14120406Y-39525000D01*
X10300463Y-39525000D01*
X10313309Y-39509347D01*
X10348131Y-39444200D01*
X10369574Y-39373513D01*
X10376814Y-39300000D01*
X10376814Y-38100000D01*
X10369574Y-38026487D01*
X10348131Y-37955800D01*
X10313309Y-37890653D01*
X10266448Y-37833552D01*
X10209347Y-37786691D01*
X10144200Y-37751869D01*
X10073513Y-37730426D01*
X10000000Y-37723186D01*
X8000000Y-37723186D01*
X7926487Y-37730426D01*
X7855800Y-37751869D01*
X7790653Y-37786691D01*
X7733552Y-37833552D01*
X7686691Y-37890653D01*
X7651869Y-37955800D01*
X7630426Y-38026487D01*
X7623186Y-38100000D01*
X7623186Y-39300000D01*
X7630426Y-39373513D01*
X7651869Y-39444200D01*
X7686691Y-39509347D01*
X7699537Y-39525000D01*
X2529594Y-39525000D01*
X2513529Y-39508935D01*
X2548131Y-39444200D01*
X2569574Y-39373513D01*
X2576814Y-39300000D01*
X2576814Y-38100000D01*
X2569574Y-38026487D01*
X2548131Y-37955800D01*
X2513309Y-37890653D01*
X2466448Y-37833552D01*
X2409347Y-37786691D01*
X2344200Y-37751869D01*
X2273513Y-37730426D01*
X2200000Y-37723186D01*
X450000Y-37723186D01*
X450000Y-26276814D01*
X2200000Y-26276814D01*
X2273513Y-26269574D01*
X2344200Y-26248131D01*
X2409347Y-26213309D01*
X2466448Y-26166448D01*
X2513309Y-26109347D01*
X2548131Y-26044200D01*
X2569574Y-25973513D01*
X2576814Y-25900000D01*
X2576814Y-24700000D01*
X7623186Y-24700000D01*
X7623186Y-25900000D01*
X7630426Y-25973513D01*
X7651869Y-26044200D01*
X7686691Y-26109347D01*
X7733552Y-26166448D01*
X7790653Y-26213309D01*
X7855800Y-26248131D01*
X7926487Y-26269574D01*
X8000000Y-26276814D01*
X10000000Y-26276814D01*
X10073513Y-26269574D01*
X10144200Y-26248131D01*
X10209347Y-26213309D01*
X10266448Y-26166448D01*
X10313309Y-26109347D01*
X10348131Y-26044200D01*
X10369574Y-25973513D01*
X10376814Y-25900000D01*
X10376814Y-24700000D01*
X10369574Y-24626487D01*
X10348131Y-24555800D01*
X10313309Y-24490653D01*
X10266448Y-24433552D01*
X10209347Y-24386691D01*
X10144200Y-24351869D01*
X10073513Y-24330426D01*
X10000000Y-24323186D01*
X8000000Y-24323186D01*
X7926487Y-24330426D01*
X7855800Y-24351869D01*
X7790653Y-24386691D01*
X7733552Y-24433552D01*
X7686691Y-24490653D01*
X7651869Y-24555800D01*
X7630426Y-24626487D01*
X7623186Y-24700000D01*
X2576814Y-24700000D01*
X2569574Y-24626487D01*
X2548131Y-24555800D01*
X2513309Y-24490653D01*
X2466448Y-24433552D01*
X2409347Y-24386691D01*
X2344200Y-24351869D01*
X2273513Y-24330426D01*
X2200000Y-24323186D01*
X450000Y-24323186D01*
X450000Y-14650000D01*
X554969Y-14650000D01*
X551869Y-14655800D01*
X530426Y-14726487D01*
X523186Y-14800000D01*
X523186Y-16800000D01*
X530426Y-16873513D01*
X551869Y-16944200D01*
X586691Y-17009347D01*
X633552Y-17066448D01*
X690653Y-17113309D01*
X755800Y-17148131D01*
X826487Y-17169574D01*
X900000Y-17176814D01*
X1425000Y-17176814D01*
X1425001Y-21223186D01*
X900000Y-21223186D01*
X826487Y-21230426D01*
X755800Y-21251869D01*
X690653Y-21286691D01*
X633552Y-21333552D01*
X586691Y-21390653D01*
X551869Y-21455800D01*
X530426Y-21526487D01*
X523186Y-21600000D01*
X523186Y-23600000D01*
X530426Y-23673513D01*
X551869Y-23744200D01*
X586691Y-23809347D01*
X633552Y-23866448D01*
X690653Y-23913309D01*
X755800Y-23948131D01*
X826487Y-23969574D01*
X900000Y-23976814D01*
X2900000Y-23976814D01*
X2973513Y-23969574D01*
X3044200Y-23948131D01*
X3071538Y-23933518D01*
X5425000Y-23933518D01*
X5425000Y-24066482D01*
X5450940Y-24196890D01*
X5501823Y-24319732D01*
X5575693Y-24430287D01*
X5669713Y-24524307D01*
X5780268Y-24598177D01*
X5903110Y-24649060D01*
X6033518Y-24675000D01*
X6166482Y-24675000D01*
X6296890Y-24649060D01*
X6419732Y-24598177D01*
X6530287Y-24524307D01*
X6624307Y-24430287D01*
X6698177Y-24319732D01*
X6749060Y-24196890D01*
X6775000Y-24066482D01*
X6775000Y-24025000D01*
X7946045Y-24025000D01*
X7951869Y-24044200D01*
X7986691Y-24109347D01*
X8033552Y-24166448D01*
X8090653Y-24213309D01*
X8155800Y-24248131D01*
X8226487Y-24269574D01*
X8300000Y-24276814D01*
X9300000Y-24276814D01*
X9373513Y-24269574D01*
X9444200Y-24248131D01*
X9509347Y-24213309D01*
X9566448Y-24166448D01*
X9613309Y-24109347D01*
X9648131Y-24044200D01*
X9669574Y-23973513D01*
X9676814Y-23900000D01*
X9676814Y-23200000D01*
X9669574Y-23126487D01*
X9648131Y-23055800D01*
X9613309Y-22990653D01*
X9566448Y-22933552D01*
X9509347Y-22886691D01*
X9444200Y-22851869D01*
X9373513Y-22830426D01*
X9300000Y-22823186D01*
X8300000Y-22823186D01*
X8226487Y-22830426D01*
X8155800Y-22851869D01*
X8090653Y-22886691D01*
X8033552Y-22933552D01*
X7986691Y-22990653D01*
X7951869Y-23055800D01*
X7946045Y-23075000D01*
X6573331Y-23075000D01*
X6549999Y-23072702D01*
X6456883Y-23081873D01*
X6438334Y-23087500D01*
X6367346Y-23109034D01*
X6284827Y-23153141D01*
X6212499Y-23212499D01*
X6197620Y-23230629D01*
X6103249Y-23325000D01*
X6033518Y-23325000D01*
X5903110Y-23350940D01*
X5780268Y-23401823D01*
X5669713Y-23475693D01*
X5575693Y-23569713D01*
X5501823Y-23680268D01*
X5450940Y-23803110D01*
X5425000Y-23933518D01*
X3071538Y-23933518D01*
X3109347Y-23913309D01*
X3166448Y-23866448D01*
X3213309Y-23809347D01*
X3248131Y-23744200D01*
X3269574Y-23673513D01*
X3276814Y-23600000D01*
X3276814Y-22400000D01*
X7923186Y-22400000D01*
X7930426Y-22473513D01*
X7951869Y-22544200D01*
X7986691Y-22609347D01*
X8033552Y-22666448D01*
X8090653Y-22713309D01*
X8155800Y-22748131D01*
X8226487Y-22769574D01*
X8300000Y-22776814D01*
X8681250Y-22775000D01*
X8775000Y-22681250D01*
X8775000Y-22075000D01*
X8018750Y-22075000D01*
X7925000Y-22168750D01*
X7923186Y-22400000D01*
X3276814Y-22400000D01*
X3276814Y-21600000D01*
X3269574Y-21526487D01*
X3248131Y-21455800D01*
X3213309Y-21390653D01*
X3166448Y-21333552D01*
X3109347Y-21286691D01*
X3044200Y-21251869D01*
X2973513Y-21230426D01*
X2900000Y-21223186D01*
X2375000Y-21223186D01*
X2375000Y-20700000D01*
X3423186Y-20700000D01*
X3430426Y-20773513D01*
X3451869Y-20844200D01*
X3486691Y-20909347D01*
X3533552Y-20966448D01*
X3590653Y-21013309D01*
X3655800Y-21048131D01*
X3706933Y-21063642D01*
X3700940Y-21078110D01*
X3675000Y-21208518D01*
X3675000Y-21341482D01*
X3700940Y-21471890D01*
X3751823Y-21594732D01*
X3825693Y-21705287D01*
X3919713Y-21799307D01*
X4030268Y-21873177D01*
X4153110Y-21924060D01*
X4283518Y-21950000D01*
X4416482Y-21950000D01*
X4546890Y-21924060D01*
X4669732Y-21873177D01*
X4780287Y-21799307D01*
X4874307Y-21705287D01*
X4948177Y-21594732D01*
X4999060Y-21471890D01*
X5025000Y-21341482D01*
X5025000Y-21208518D01*
X4999060Y-21078110D01*
X4997839Y-21075163D01*
X5800000Y-21076814D01*
X5873513Y-21069574D01*
X5944200Y-21048131D01*
X6009347Y-21013309D01*
X6066448Y-20966448D01*
X6113309Y-20909347D01*
X6148131Y-20844200D01*
X6169574Y-20773513D01*
X6176814Y-20700000D01*
X6175000Y-20618750D01*
X6081250Y-20525000D01*
X4825000Y-20525000D01*
X4825000Y-20545000D01*
X4775000Y-20545000D01*
X4775000Y-20525000D01*
X3518750Y-20525000D01*
X3425000Y-20618750D01*
X3423186Y-20700000D01*
X2375000Y-20700000D01*
X2375000Y-17176814D01*
X2900000Y-17176814D01*
X2973513Y-17169574D01*
X3044200Y-17148131D01*
X3109347Y-17113309D01*
X3166448Y-17066448D01*
X3213309Y-17009347D01*
X3248131Y-16944200D01*
X3269574Y-16873513D01*
X3276814Y-16800000D01*
X3276814Y-14800000D01*
X3269574Y-14726487D01*
X3248131Y-14655800D01*
X3213309Y-14590653D01*
X3166448Y-14533552D01*
X3109347Y-14486691D01*
X3044200Y-14451869D01*
X2973513Y-14430426D01*
X2900000Y-14423186D01*
X1990954Y-14423186D01*
X2017757Y-14373041D01*
X2043489Y-14288215D01*
X2052177Y-14200000D01*
X2050000Y-14177895D01*
X2050000Y-11650000D01*
X2822105Y-11650000D01*
X2841591Y-11648081D01*
X2847767Y-11648124D01*
X2854020Y-11647511D01*
X3048117Y-11627110D01*
X3088096Y-11618903D01*
X3128131Y-11611266D01*
X3134144Y-11609451D01*
X3134150Y-11609449D01*
X3320584Y-11551738D01*
X3358179Y-11535935D01*
X3395998Y-11520655D01*
X3401546Y-11517705D01*
X3573223Y-11424880D01*
X3607062Y-11402056D01*
X3641165Y-11379739D01*
X3646025Y-11375776D01*
X3646033Y-11375770D01*
X3646040Y-11375763D01*
X3796412Y-11251365D01*
X3825157Y-11222418D01*
X3854291Y-11193888D01*
X3858296Y-11189047D01*
X3981646Y-11037805D01*
X4004222Y-11003826D01*
X4027259Y-10970181D01*
X4030248Y-10964654D01*
X4121873Y-10792331D01*
X4137418Y-10754617D01*
X4153482Y-10717136D01*
X4155340Y-10711134D01*
X4211749Y-10524298D01*
X4219678Y-10484253D01*
X4228150Y-10444395D01*
X4228807Y-10438147D01*
X4246301Y-10259730D01*
X4392459Y-9400000D01*
X7923186Y-9400000D01*
X7930426Y-9473513D01*
X7951869Y-9544200D01*
X7986691Y-9609347D01*
X8033552Y-9666448D01*
X8090653Y-9713309D01*
X8155800Y-9748131D01*
X8226487Y-9769574D01*
X8300000Y-9776814D01*
X8681250Y-9775000D01*
X8775000Y-9681250D01*
X8775000Y-9075000D01*
X8825000Y-9075000D01*
X8825000Y-9681250D01*
X8918750Y-9775000D01*
X9300000Y-9776814D01*
X9373513Y-9769574D01*
X9444200Y-9748131D01*
X9509347Y-9713309D01*
X9566448Y-9666448D01*
X9613309Y-9609347D01*
X9648131Y-9544200D01*
X9669574Y-9473513D01*
X9676814Y-9400000D01*
X9675000Y-9168750D01*
X9581250Y-9075000D01*
X8825000Y-9075000D01*
X8775000Y-9075000D01*
X8018750Y-9075000D01*
X7925000Y-9168750D01*
X7923186Y-9400000D01*
X4392459Y-9400000D01*
X4511462Y-8700000D01*
X7923186Y-8700000D01*
X7925000Y-8931250D01*
X8018750Y-9025000D01*
X8775000Y-9025000D01*
X8775000Y-8418750D01*
X8825000Y-8418750D01*
X8825000Y-9025000D01*
X9581250Y-9025000D01*
X9675000Y-8931250D01*
X9676814Y-8700000D01*
X9669574Y-8626487D01*
X9648131Y-8555800D01*
X9613309Y-8490653D01*
X9566448Y-8433552D01*
X9509347Y-8386691D01*
X9444200Y-8351869D01*
X9373513Y-8330426D01*
X9300000Y-8323186D01*
X8918750Y-8325000D01*
X8825000Y-8418750D01*
X8775000Y-8418750D01*
X8681250Y-8325000D01*
X8300000Y-8323186D01*
X8226487Y-8330426D01*
X8155800Y-8351869D01*
X8090653Y-8386691D01*
X8033552Y-8433552D01*
X7986691Y-8490653D01*
X7951869Y-8555800D01*
X7930426Y-8626487D01*
X7923186Y-8700000D01*
X4511462Y-8700000D01*
X5875168Y-678432D01*
X5897659Y-627999D01*
X5936824Y-572553D01*
X5986014Y-525766D01*
X6043353Y-489426D01*
X6106663Y-464915D01*
X6186835Y-450828D01*
X6208577Y-450000D01*
X28550001Y-450000D01*
X28550001Y-625000D01*
G04 #@! TA.AperFunction,Conductor*
D39*
G36*
X28550001Y-625000D02*
G01*
X16000000Y-625000D01*
X15926841Y-632206D01*
X15856494Y-653545D01*
X15791661Y-688199D01*
X15734835Y-734835D01*
X15688199Y-791661D01*
X15653545Y-856494D01*
X15632206Y-926841D01*
X15625000Y-1000000D01*
X15625000Y-10000000D01*
X15632206Y-10073159D01*
X15653545Y-10143506D01*
X15688199Y-10208339D01*
X15734835Y-10265165D01*
X15791661Y-10311801D01*
X15856494Y-10346455D01*
X15926841Y-10367794D01*
X16000000Y-10375000D01*
X19200000Y-10375000D01*
X19273159Y-10367794D01*
X19343506Y-10346455D01*
X19408339Y-10311801D01*
X19465165Y-10265165D01*
X19511801Y-10208339D01*
X19546455Y-10143506D01*
X19567794Y-10073159D01*
X19575000Y-10000000D01*
X19575000Y-8750000D01*
X22323186Y-8750000D01*
X22330426Y-8823513D01*
X22351869Y-8894200D01*
X22386691Y-8959347D01*
X22420054Y-9000000D01*
X22386691Y-9040653D01*
X22351869Y-9105800D01*
X22330426Y-9176487D01*
X22323186Y-9250000D01*
X22325000Y-9881250D01*
X22418750Y-9975000D01*
X25675000Y-9975000D01*
X25675000Y-8025000D01*
X22418750Y-8025000D01*
X22325000Y-8118750D01*
X22323186Y-8750000D01*
X19575000Y-8750000D01*
X19575000Y-6750000D01*
X22323186Y-6750000D01*
X22330426Y-6823513D01*
X22351869Y-6894200D01*
X22386691Y-6959347D01*
X22420054Y-7000000D01*
X22386691Y-7040653D01*
X22351869Y-7105800D01*
X22330426Y-7176487D01*
X22323186Y-7250000D01*
X22325000Y-7881250D01*
X22418750Y-7975000D01*
X25675000Y-7975000D01*
X25675000Y-6025000D01*
X22418750Y-6025000D01*
X22325000Y-6118750D01*
X22323186Y-6750000D01*
X19575000Y-6750000D01*
X19575000Y-5375000D01*
X22323545Y-5375000D01*
X22325000Y-5881250D01*
X22418750Y-5975000D01*
X25675000Y-5975000D01*
X25675000Y-5955000D01*
X25725000Y-5955000D01*
X25725000Y-5975000D01*
X25745000Y-5975000D01*
X25745000Y-6025000D01*
X25725000Y-6025000D01*
X25725000Y-7975000D01*
X25745000Y-7975000D01*
X25745000Y-8025000D01*
X25725000Y-8025000D01*
X25725000Y-9975000D01*
X25745000Y-9975000D01*
X25745000Y-10025000D01*
X25725000Y-10025000D01*
X25725000Y-10045000D01*
X25675000Y-10045000D01*
X25675000Y-10025000D01*
X22418750Y-10025000D01*
X22325000Y-10118750D01*
X22323186Y-10750000D01*
X22330426Y-10823513D01*
X22351869Y-10894200D01*
X22386691Y-10959347D01*
X22433552Y-11016448D01*
X22465218Y-11042435D01*
X22411970Y-11107318D01*
X22363287Y-11198397D01*
X22333309Y-11297224D01*
X22323186Y-11400000D01*
X22323186Y-12600000D01*
X22333309Y-12702776D01*
X22363287Y-12801603D01*
X22411970Y-12892682D01*
X22477486Y-12972514D01*
X22510978Y-13000000D01*
X22477486Y-13027486D01*
X22411970Y-13107318D01*
X22363287Y-13198397D01*
X22333309Y-13297224D01*
X22323186Y-13400000D01*
X22323186Y-14600000D01*
X22333309Y-14702776D01*
X22363287Y-14801603D01*
X22411970Y-14892682D01*
X22477486Y-14972514D01*
X22510978Y-15000000D01*
X22477486Y-15027486D01*
X22411970Y-15107318D01*
X22363287Y-15198397D01*
X22333309Y-15297224D01*
X22323186Y-15400000D01*
X22323186Y-16600000D01*
X22333309Y-16702776D01*
X22363287Y-16801603D01*
X22411970Y-16892682D01*
X22477486Y-16972514D01*
X22557318Y-17038030D01*
X22648397Y-17086713D01*
X22747224Y-17116691D01*
X22850000Y-17126814D01*
X28550000Y-17126814D01*
X28560458Y-17125784D01*
X28560635Y-17127469D01*
X28568846Y-17167472D01*
X28576479Y-17207486D01*
X28578295Y-17213501D01*
X28601380Y-17288075D01*
X28617198Y-17325706D01*
X28632463Y-17363488D01*
X28635412Y-17369036D01*
X28672542Y-17437706D01*
X28695344Y-17471511D01*
X28717682Y-17505648D01*
X28721653Y-17510517D01*
X28771414Y-17570668D01*
X28800378Y-17599430D01*
X28828892Y-17628548D01*
X28833733Y-17632553D01*
X28894230Y-17681893D01*
X28928228Y-17704481D01*
X28961855Y-17727506D01*
X28967382Y-17730495D01*
X29036311Y-17767145D01*
X29074048Y-17782699D01*
X29111503Y-17798753D01*
X29117505Y-17800611D01*
X29192239Y-17823175D01*
X29232298Y-17831107D01*
X29272145Y-17839577D01*
X29278389Y-17840234D01*
X29278393Y-17840234D01*
X29355434Y-17847788D01*
X29377895Y-17850000D01*
X31550001Y-17850000D01*
X31550000Y-20150000D01*
X30377895Y-20150000D01*
X30358819Y-20151879D01*
X30356423Y-20151862D01*
X30350170Y-20152475D01*
X30272532Y-20160635D01*
X30232535Y-20168845D01*
X30192514Y-20176479D01*
X30186505Y-20178293D01*
X30186501Y-20178294D01*
X30186498Y-20178295D01*
X30186499Y-20178295D01*
X30111924Y-20201380D01*
X30074292Y-20217199D01*
X30036512Y-20232463D01*
X30030968Y-20235411D01*
X30030963Y-20235413D01*
X30030962Y-20235414D01*
X29962293Y-20272542D01*
X29928471Y-20295355D01*
X29894352Y-20317682D01*
X29889483Y-20321653D01*
X29829332Y-20371414D01*
X29800570Y-20400378D01*
X29771452Y-20428892D01*
X29767446Y-20433733D01*
X29718107Y-20494230D01*
X29695503Y-20528251D01*
X29672494Y-20561855D01*
X29669508Y-20567377D01*
X29669505Y-20567381D01*
X29669505Y-20567382D01*
X29632855Y-20636311D01*
X29617301Y-20674048D01*
X29601247Y-20711503D01*
X29599389Y-20717505D01*
X29576825Y-20792239D01*
X29568896Y-20832283D01*
X29560423Y-20872144D01*
X29559766Y-20878393D01*
X29552168Y-20955883D01*
X29550000Y-20977896D01*
X29550001Y-43022105D01*
X29551879Y-43041172D01*
X29551862Y-43043577D01*
X29552475Y-43049830D01*
X29560635Y-43127469D01*
X29568846Y-43167472D01*
X29576479Y-43207486D01*
X29578295Y-43213501D01*
X29601380Y-43288075D01*
X29617198Y-43325706D01*
X29632463Y-43363488D01*
X29635412Y-43369036D01*
X29672542Y-43437706D01*
X29695344Y-43471511D01*
X29717682Y-43505648D01*
X29721653Y-43510517D01*
X29771414Y-43570668D01*
X29800378Y-43599430D01*
X29828892Y-43628548D01*
X29833733Y-43632553D01*
X29894230Y-43681893D01*
X29928228Y-43704481D01*
X29961855Y-43727506D01*
X29967382Y-43730495D01*
X30036311Y-43767145D01*
X30074048Y-43782699D01*
X30111503Y-43798753D01*
X30117505Y-43800611D01*
X30192239Y-43823175D01*
X30232298Y-43831107D01*
X30272145Y-43839577D01*
X30278389Y-43840234D01*
X30278393Y-43840234D01*
X30355434Y-43847788D01*
X30377895Y-43850000D01*
X31550000Y-43850000D01*
X31550001Y-46150000D01*
X29377895Y-46150000D01*
X29358819Y-46151879D01*
X29356423Y-46151862D01*
X29350170Y-46152475D01*
X29272532Y-46160635D01*
X29232535Y-46168845D01*
X29192514Y-46176479D01*
X29186505Y-46178293D01*
X29186501Y-46178294D01*
X29186498Y-46178295D01*
X29186499Y-46178295D01*
X29111924Y-46201380D01*
X29074292Y-46217199D01*
X29036512Y-46232463D01*
X29030968Y-46235411D01*
X29030963Y-46235413D01*
X29030962Y-46235414D01*
X28962293Y-46272542D01*
X28928471Y-46295355D01*
X28894352Y-46317682D01*
X28889483Y-46321653D01*
X28829332Y-46371414D01*
X28800570Y-46400378D01*
X28771452Y-46428892D01*
X28767446Y-46433733D01*
X28718107Y-46494230D01*
X28695503Y-46528251D01*
X28672494Y-46561855D01*
X28669508Y-46567377D01*
X28669505Y-46567381D01*
X28669505Y-46567382D01*
X28632855Y-46636311D01*
X28617301Y-46674048D01*
X28601247Y-46711503D01*
X28599389Y-46717505D01*
X28576825Y-46792239D01*
X28568896Y-46832283D01*
X28560423Y-46872144D01*
X28560208Y-46874191D01*
X28550000Y-46873186D01*
X26675000Y-46873186D01*
X26675000Y-44600463D01*
X26716448Y-44566448D01*
X26763309Y-44509347D01*
X26798131Y-44444200D01*
X26819574Y-44373513D01*
X26826814Y-44300000D01*
X26826814Y-43300000D01*
X26819574Y-43226487D01*
X26798131Y-43155800D01*
X26763309Y-43090653D01*
X26716448Y-43033552D01*
X26659347Y-42986691D01*
X26594200Y-42951869D01*
X26523513Y-42930426D01*
X26450000Y-42923186D01*
X25824561Y-42923186D01*
X25800000Y-42920767D01*
X25775439Y-42923186D01*
X25150000Y-42923186D01*
X25076487Y-42930426D01*
X25005800Y-42951869D01*
X24940653Y-42986691D01*
X24883552Y-43033552D01*
X24836691Y-43090653D01*
X24801869Y-43155800D01*
X24780426Y-43226487D01*
X24773186Y-43300000D01*
X24773186Y-44300000D01*
X24780426Y-44373513D01*
X24801869Y-44444200D01*
X24836691Y-44509347D01*
X24883552Y-44566448D01*
X24925000Y-44600463D01*
X24925000Y-45247932D01*
X24873159Y-45232206D01*
X24800000Y-45225000D01*
X22100000Y-45225000D01*
X22026841Y-45232206D01*
X21956494Y-45253545D01*
X21891661Y-45288199D01*
X21834835Y-45334835D01*
X21788199Y-45391661D01*
X21753545Y-45456494D01*
X21732206Y-45526841D01*
X21725000Y-45600000D01*
X21725000Y-46800000D01*
X21732206Y-46873159D01*
X21753545Y-46943506D01*
X21788199Y-47008339D01*
X21834835Y-47065165D01*
X21891661Y-47111801D01*
X21956494Y-47146455D01*
X22026841Y-47167794D01*
X22100000Y-47175000D01*
X22375793Y-47175000D01*
X22363287Y-47198397D01*
X22333309Y-47297224D01*
X22323186Y-47400000D01*
X22323186Y-48600000D01*
X22333309Y-48702776D01*
X22363287Y-48801603D01*
X22411970Y-48892682D01*
X22465218Y-48957565D01*
X22433552Y-48983552D01*
X22386691Y-49040653D01*
X22351869Y-49105800D01*
X22330426Y-49176487D01*
X22323186Y-49250000D01*
X22325000Y-49881250D01*
X22418750Y-49975000D01*
X25675000Y-49975000D01*
X25675000Y-49955000D01*
X25725000Y-49955000D01*
X25725000Y-49975000D01*
X25745000Y-49975000D01*
X25745000Y-50025000D01*
X25725000Y-50025000D01*
X25725000Y-50045000D01*
X25675000Y-50045000D01*
X25675000Y-50025000D01*
X22418750Y-50025000D01*
X22325000Y-50118750D01*
X22323186Y-50750000D01*
X22330426Y-50823513D01*
X22351869Y-50894200D01*
X22386691Y-50959347D01*
X22433552Y-51016448D01*
X22465218Y-51042435D01*
X22411970Y-51107318D01*
X22363287Y-51198397D01*
X22333309Y-51297224D01*
X22323186Y-51400000D01*
X22323186Y-51525000D01*
X22023331Y-51525000D01*
X21999999Y-51522702D01*
X21906883Y-51531873D01*
X21879722Y-51540112D01*
X21817346Y-51559034D01*
X21734827Y-51603141D01*
X21662499Y-51662499D01*
X21647620Y-51680629D01*
X21080634Y-52247616D01*
X21062499Y-52262499D01*
X21003141Y-52334827D01*
X20959034Y-52417347D01*
X20944526Y-52465173D01*
X20931873Y-52506884D01*
X20922702Y-52600000D01*
X20925000Y-52623332D01*
X20925001Y-55271851D01*
X19871883Y-56324970D01*
X13293816Y-56324970D01*
X12925029Y-55956185D01*
X12925029Y-55800000D01*
X15823186Y-55800000D01*
X15830426Y-55873513D01*
X15851869Y-55944200D01*
X15886691Y-56009347D01*
X15933552Y-56066448D01*
X15990653Y-56113309D01*
X16055800Y-56148131D01*
X16126487Y-56169574D01*
X16200000Y-56176814D01*
X17481250Y-56175000D01*
X17575000Y-56081250D01*
X17575000Y-54425000D01*
X17625000Y-54425000D01*
X17625000Y-56081250D01*
X17718750Y-56175000D01*
X19000000Y-56176814D01*
X19073513Y-56169574D01*
X19144200Y-56148131D01*
X19209347Y-56113309D01*
X19266448Y-56066448D01*
X19313309Y-56009347D01*
X19348131Y-55944200D01*
X19369574Y-55873513D01*
X19376814Y-55800000D01*
X19375000Y-54518750D01*
X19281250Y-54425000D01*
X17625000Y-54425000D01*
X17575000Y-54425000D01*
X15918750Y-54425000D01*
X15825000Y-54518750D01*
X15823186Y-55800000D01*
X12925029Y-55800000D01*
X12925029Y-53000000D01*
X15823186Y-53000000D01*
X15825000Y-54281250D01*
X15918750Y-54375000D01*
X17575000Y-54375000D01*
X17575000Y-52718750D01*
X17625000Y-52718750D01*
X17625000Y-54375000D01*
X19281250Y-54375000D01*
X19375000Y-54281250D01*
X19376814Y-53000000D01*
X19369574Y-52926487D01*
X19348131Y-52855800D01*
X19313309Y-52790653D01*
X19266448Y-52733552D01*
X19209347Y-52686691D01*
X19144200Y-52651869D01*
X19073513Y-52630426D01*
X19000000Y-52623186D01*
X17718750Y-52625000D01*
X17625000Y-52718750D01*
X17575000Y-52718750D01*
X17481250Y-52625000D01*
X16200000Y-52623186D01*
X16126487Y-52630426D01*
X16055800Y-52651869D01*
X15990653Y-52686691D01*
X15933552Y-52733552D01*
X15886691Y-52790653D01*
X15851869Y-52855800D01*
X15830426Y-52926487D01*
X15823186Y-53000000D01*
X12925029Y-53000000D01*
X12925029Y-47376264D01*
X12927327Y-47352932D01*
X12918630Y-47264627D01*
X12996890Y-47249060D01*
X13119732Y-47198177D01*
X13230287Y-47124307D01*
X13324307Y-47030287D01*
X13398177Y-46919732D01*
X13408346Y-46895182D01*
X13475693Y-46995974D01*
X13569713Y-47089994D01*
X13680268Y-47163864D01*
X13803110Y-47214747D01*
X13933518Y-47240687D01*
X14066482Y-47240687D01*
X14196890Y-47214747D01*
X14319732Y-47163864D01*
X14430287Y-47089994D01*
X14524307Y-46995974D01*
X14598177Y-46885419D01*
X14649060Y-46762577D01*
X14666480Y-46675000D01*
X14666482Y-46675000D01*
X14725001Y-46663360D01*
X14725001Y-48653248D01*
X14603249Y-48775000D01*
X14533518Y-48775000D01*
X14403110Y-48800940D01*
X14280268Y-48851823D01*
X14169713Y-48925693D01*
X14075693Y-49019713D01*
X14001823Y-49130268D01*
X13950940Y-49253110D01*
X13925000Y-49383518D01*
X13925000Y-49516482D01*
X13950940Y-49646890D01*
X14001823Y-49769732D01*
X14075693Y-49880287D01*
X14169713Y-49974307D01*
X14280268Y-50048177D01*
X14403110Y-50099060D01*
X14533518Y-50125000D01*
X14666482Y-50125000D01*
X14796890Y-50099060D01*
X14919732Y-50048177D01*
X15030287Y-49974307D01*
X15124307Y-49880287D01*
X15198177Y-49769732D01*
X15249060Y-49646890D01*
X15275000Y-49516482D01*
X15275000Y-49446751D01*
X15519371Y-49202380D01*
X15537501Y-49187501D01*
X15596859Y-49115173D01*
X15640966Y-49032654D01*
X15663905Y-48957033D01*
X15668127Y-48943117D01*
X15677298Y-48850001D01*
X15675000Y-48826669D01*
X15675000Y-46600000D01*
X15823186Y-46600000D01*
X15823186Y-49400000D01*
X15830426Y-49473513D01*
X15851869Y-49544200D01*
X15886691Y-49609347D01*
X15933552Y-49666448D01*
X15990653Y-49713309D01*
X16055800Y-49748131D01*
X16126487Y-49769574D01*
X16200000Y-49776814D01*
X19000000Y-49776814D01*
X19073513Y-49769574D01*
X19144200Y-49748131D01*
X19209347Y-49713309D01*
X19266448Y-49666448D01*
X19313309Y-49609347D01*
X19348131Y-49544200D01*
X19369574Y-49473513D01*
X19376814Y-49400000D01*
X19376814Y-46600000D01*
X19369574Y-46526487D01*
X19348131Y-46455800D01*
X19313309Y-46390653D01*
X19266448Y-46333552D01*
X19209347Y-46286691D01*
X19144200Y-46251869D01*
X19073513Y-46230426D01*
X19000000Y-46223186D01*
X16200000Y-46223186D01*
X16126487Y-46230426D01*
X16055800Y-46251869D01*
X15990653Y-46286691D01*
X15933552Y-46333552D01*
X15886691Y-46390653D01*
X15851869Y-46455800D01*
X15830426Y-46526487D01*
X15823186Y-46600000D01*
X15675000Y-46600000D01*
X15675000Y-44700000D01*
X16123186Y-44700000D01*
X16130426Y-44773513D01*
X16151869Y-44844200D01*
X16186691Y-44909347D01*
X16233552Y-44966448D01*
X16290653Y-45013309D01*
X16355800Y-45048131D01*
X16426487Y-45069574D01*
X16500000Y-45076814D01*
X16731250Y-45075000D01*
X16825000Y-44981250D01*
X16825000Y-44225000D01*
X16875000Y-44225000D01*
X16875000Y-44981250D01*
X16968750Y-45075000D01*
X17200000Y-45076814D01*
X17273513Y-45069574D01*
X17344200Y-45048131D01*
X17409347Y-45013309D01*
X17466448Y-44966448D01*
X17513309Y-44909347D01*
X17548131Y-44844200D01*
X17569574Y-44773513D01*
X17576814Y-44700000D01*
X17575000Y-44318750D01*
X17481250Y-44225000D01*
X16875000Y-44225000D01*
X16825000Y-44225000D01*
X16218750Y-44225000D01*
X16125000Y-44318750D01*
X16123186Y-44700000D01*
X15675000Y-44700000D01*
X15675000Y-43700000D01*
X16123186Y-43700000D01*
X16125000Y-44081250D01*
X16218750Y-44175000D01*
X16825000Y-44175000D01*
X16825000Y-43418750D01*
X16875000Y-43418750D01*
X16875000Y-44175000D01*
X17481250Y-44175000D01*
X17575000Y-44081250D01*
X17576814Y-43700000D01*
X17623186Y-43700000D01*
X17623186Y-44700000D01*
X17630426Y-44773513D01*
X17651869Y-44844200D01*
X17686691Y-44909347D01*
X17733552Y-44966448D01*
X17790653Y-45013309D01*
X17855800Y-45048131D01*
X17926487Y-45069574D01*
X18000000Y-45076814D01*
X18700000Y-45076814D01*
X18773513Y-45069574D01*
X18844200Y-45048131D01*
X18867096Y-45035893D01*
X18901823Y-45119732D01*
X18975693Y-45230287D01*
X19069713Y-45324307D01*
X19180268Y-45398177D01*
X19303110Y-45449060D01*
X19433518Y-45475000D01*
X19566482Y-45475000D01*
X19696890Y-45449060D01*
X19754976Y-45425000D01*
X19869306Y-45425000D01*
X19900000Y-45428023D01*
X19930694Y-45425000D01*
X20069305Y-45425000D01*
X20099999Y-45428023D01*
X20130693Y-45425000D01*
X20245024Y-45425000D01*
X20303110Y-45449060D01*
X20433518Y-45475000D01*
X20566482Y-45475000D01*
X20696890Y-45449060D01*
X20819732Y-45398177D01*
X20930287Y-45324307D01*
X21024307Y-45230287D01*
X21098177Y-45119732D01*
X21149060Y-44996890D01*
X21159846Y-44942668D01*
X21165957Y-44922521D01*
X21168020Y-44901571D01*
X21175000Y-44866482D01*
X21175000Y-44830703D01*
X21178024Y-44800000D01*
X21175000Y-44769296D01*
X21175000Y-44733518D01*
X21168020Y-44698429D01*
X21165957Y-44677479D01*
X21159846Y-44657332D01*
X21149060Y-44603110D01*
X21125000Y-44545024D01*
X21125000Y-44454976D01*
X21149060Y-44396890D01*
X21175000Y-44266482D01*
X21175000Y-44133518D01*
X21149060Y-44003110D01*
X21125000Y-43945024D01*
X21125000Y-43854976D01*
X21149060Y-43796890D01*
X21175000Y-43666482D01*
X21175000Y-43533518D01*
X21149060Y-43403110D01*
X21098177Y-43280268D01*
X21024307Y-43169713D01*
X20930287Y-43075693D01*
X20819732Y-43001823D01*
X20696890Y-42950940D01*
X20566482Y-42925000D01*
X20433518Y-42925000D01*
X20303110Y-42950940D01*
X20245024Y-42975000D01*
X19754976Y-42975000D01*
X19696890Y-42950940D01*
X19566482Y-42925000D01*
X19433518Y-42925000D01*
X19303110Y-42950940D01*
X19180268Y-43001823D01*
X19069713Y-43075693D01*
X18975693Y-43169713D01*
X18901823Y-43280268D01*
X18867096Y-43364107D01*
X18844200Y-43351869D01*
X18773513Y-43330426D01*
X18700000Y-43323186D01*
X18000000Y-43323186D01*
X17926487Y-43330426D01*
X17855800Y-43351869D01*
X17790653Y-43386691D01*
X17733552Y-43433552D01*
X17686691Y-43490653D01*
X17651869Y-43555800D01*
X17630426Y-43626487D01*
X17623186Y-43700000D01*
X17576814Y-43700000D01*
X17569574Y-43626487D01*
X17548131Y-43555800D01*
X17513309Y-43490653D01*
X17466448Y-43433552D01*
X17409347Y-43386691D01*
X17344200Y-43351869D01*
X17273513Y-43330426D01*
X17200000Y-43323186D01*
X16968750Y-43325000D01*
X16875000Y-43418750D01*
X16825000Y-43418750D01*
X16731250Y-43325000D01*
X16500000Y-43323186D01*
X16426487Y-43330426D01*
X16355800Y-43351869D01*
X16290653Y-43386691D01*
X16233552Y-43433552D01*
X16186691Y-43490653D01*
X16151869Y-43555800D01*
X16130426Y-43626487D01*
X16123186Y-43700000D01*
X15675000Y-43700000D01*
X15675000Y-41596830D01*
X15971830Y-41300000D01*
X24773186Y-41300000D01*
X24773186Y-42300000D01*
X24780426Y-42373513D01*
X24801869Y-42444200D01*
X24836691Y-42509347D01*
X24883552Y-42566448D01*
X24940653Y-42613309D01*
X25005800Y-42648131D01*
X25076487Y-42669574D01*
X25150000Y-42676814D01*
X25775439Y-42676814D01*
X25800000Y-42679233D01*
X25824561Y-42676814D01*
X26450000Y-42676814D01*
X26523513Y-42669574D01*
X26594200Y-42648131D01*
X26659347Y-42613309D01*
X26716448Y-42566448D01*
X26763309Y-42509347D01*
X26798131Y-42444200D01*
X26819574Y-42373513D01*
X26826814Y-42300000D01*
X26826814Y-41300000D01*
X26819574Y-41226487D01*
X26798131Y-41155800D01*
X26763309Y-41090653D01*
X26716448Y-41033552D01*
X26675000Y-40999537D01*
X26675000Y-39918419D01*
X26676814Y-39900000D01*
X26676814Y-39200000D01*
X26669574Y-39126487D01*
X26648131Y-39055800D01*
X26613309Y-38990653D01*
X26566448Y-38933552D01*
X26509347Y-38886691D01*
X26444200Y-38851869D01*
X26373513Y-38830426D01*
X26300000Y-38823186D01*
X25300000Y-38823186D01*
X25226487Y-38830426D01*
X25155800Y-38851869D01*
X25090653Y-38886691D01*
X25033552Y-38933552D01*
X24986691Y-38990653D01*
X24951869Y-39055800D01*
X24930426Y-39126487D01*
X24923186Y-39200000D01*
X24923186Y-39900000D01*
X24925000Y-39918419D01*
X24925001Y-40999536D01*
X24883552Y-41033552D01*
X24836691Y-41090653D01*
X24801869Y-41155800D01*
X24780426Y-41226487D01*
X24773186Y-41300000D01*
X15971830Y-41300000D01*
X16196791Y-41075040D01*
X20846028Y-41075040D01*
X20869360Y-41077338D01*
X20892692Y-41075040D01*
X20962476Y-41068167D01*
X21052014Y-41041006D01*
X21134533Y-40996899D01*
X21206861Y-40937541D01*
X21221744Y-40919406D01*
X23319392Y-38821759D01*
X23337521Y-38806881D01*
X23396879Y-38734553D01*
X23440986Y-38652034D01*
X23463660Y-38577287D01*
X23468147Y-38562497D01*
X23477318Y-38469381D01*
X23475020Y-38446049D01*
X23475020Y-36733518D01*
X24825000Y-36733518D01*
X24825000Y-36866482D01*
X24850940Y-36996890D01*
X24875000Y-37054976D01*
X24875000Y-37145024D01*
X24850940Y-37203110D01*
X24825000Y-37333518D01*
X24825000Y-37466482D01*
X24850940Y-37596890D01*
X24875000Y-37654976D01*
X24875000Y-37719306D01*
X24871977Y-37750000D01*
X24875000Y-37780694D01*
X24875000Y-37780704D01*
X24884043Y-37872521D01*
X24919781Y-37990334D01*
X24923186Y-37996704D01*
X24923186Y-38400000D01*
X24930426Y-38473513D01*
X24951869Y-38544200D01*
X24986691Y-38609347D01*
X25033552Y-38666448D01*
X25090653Y-38713309D01*
X25155800Y-38748131D01*
X25226487Y-38769574D01*
X25300000Y-38776814D01*
X26300000Y-38776814D01*
X26373513Y-38769574D01*
X26444200Y-38748131D01*
X26509347Y-38713309D01*
X26566448Y-38666448D01*
X26613309Y-38609347D01*
X26648131Y-38544200D01*
X26669574Y-38473513D01*
X26676814Y-38400000D01*
X26676814Y-37996704D01*
X26680219Y-37990334D01*
X26715957Y-37872520D01*
X26725000Y-37780703D01*
X26725000Y-37780695D01*
X26728023Y-37750001D01*
X26725000Y-37719307D01*
X26725000Y-37654976D01*
X26749060Y-37596890D01*
X26775000Y-37466482D01*
X26775000Y-37333518D01*
X26749060Y-37203110D01*
X26725000Y-37145024D01*
X26725000Y-37054976D01*
X26749060Y-36996890D01*
X26775000Y-36866482D01*
X26775000Y-36733518D01*
X26749060Y-36603110D01*
X26725000Y-36545024D01*
X26725000Y-36480693D01*
X26728023Y-36449999D01*
X26725000Y-36419305D01*
X26725000Y-36419297D01*
X26715957Y-36327480D01*
X26680219Y-36209666D01*
X26676814Y-36203296D01*
X26676814Y-35800000D01*
X26669574Y-35726487D01*
X26648131Y-35655800D01*
X26613309Y-35590653D01*
X26566448Y-35533552D01*
X26509347Y-35486691D01*
X26444200Y-35451869D01*
X26373513Y-35430426D01*
X26300000Y-35423186D01*
X25300000Y-35423186D01*
X25226487Y-35430426D01*
X25155800Y-35451869D01*
X25090653Y-35486691D01*
X25033552Y-35533552D01*
X24986691Y-35590653D01*
X24951869Y-35655800D01*
X24930426Y-35726487D01*
X24923186Y-35800000D01*
X24923186Y-36203296D01*
X24919781Y-36209666D01*
X24884043Y-36327479D01*
X24875000Y-36419296D01*
X24875000Y-36419306D01*
X24871977Y-36450000D01*
X24875000Y-36480694D01*
X24875000Y-36545024D01*
X24850940Y-36603110D01*
X24825000Y-36733518D01*
X23475020Y-36733518D01*
X23475020Y-35000000D01*
X24923186Y-35000000D01*
X24930426Y-35073513D01*
X24951869Y-35144200D01*
X24986691Y-35209347D01*
X25033552Y-35266448D01*
X25090653Y-35313309D01*
X25155800Y-35348131D01*
X25226487Y-35369574D01*
X25300000Y-35376814D01*
X25681250Y-35375000D01*
X25775000Y-35281250D01*
X25775000Y-34675000D01*
X25825000Y-34675000D01*
X25825000Y-35281250D01*
X25918750Y-35375000D01*
X26300000Y-35376814D01*
X26373513Y-35369574D01*
X26444200Y-35348131D01*
X26509347Y-35313309D01*
X26566448Y-35266448D01*
X26613309Y-35209347D01*
X26648131Y-35144200D01*
X26669574Y-35073513D01*
X26676814Y-35000000D01*
X26675000Y-34768750D01*
X26581250Y-34675000D01*
X25825000Y-34675000D01*
X25775000Y-34675000D01*
X25018750Y-34675000D01*
X24925000Y-34768750D01*
X24923186Y-35000000D01*
X23475020Y-35000000D01*
X23475020Y-34300000D01*
X24923186Y-34300000D01*
X24925000Y-34531250D01*
X25018750Y-34625000D01*
X25775000Y-34625000D01*
X25775000Y-34018750D01*
X25825000Y-34018750D01*
X25825000Y-34625000D01*
X26581250Y-34625000D01*
X26675000Y-34531250D01*
X26676814Y-34300000D01*
X26669574Y-34226487D01*
X26648131Y-34155800D01*
X26613309Y-34090653D01*
X26566448Y-34033552D01*
X26509347Y-33986691D01*
X26444200Y-33951869D01*
X26373513Y-33930426D01*
X26300000Y-33923186D01*
X25918750Y-33925000D01*
X25825000Y-34018750D01*
X25775000Y-34018750D01*
X25681250Y-33925000D01*
X25300000Y-33923186D01*
X25226487Y-33930426D01*
X25155800Y-33951869D01*
X25090653Y-33986691D01*
X25033552Y-34033552D01*
X24986691Y-34090653D01*
X24951869Y-34155800D01*
X24930426Y-34226487D01*
X24923186Y-34300000D01*
X23475020Y-34300000D01*
X23475020Y-32057652D01*
X23477318Y-32034320D01*
X23468147Y-31941204D01*
X23457736Y-31906884D01*
X23440986Y-31851667D01*
X23396879Y-31769148D01*
X23337521Y-31696820D01*
X23319392Y-31681942D01*
X21075000Y-29437551D01*
X21075000Y-16823331D01*
X21077298Y-16799999D01*
X21068127Y-16706883D01*
X21055474Y-16665173D01*
X21040966Y-16617346D01*
X20996859Y-16534827D01*
X20937501Y-16462499D01*
X20919371Y-16447620D01*
X20352374Y-15880624D01*
X20337491Y-15862489D01*
X20265163Y-15803131D01*
X20182644Y-15759024D01*
X20093106Y-15731863D01*
X20023322Y-15724990D01*
X19999990Y-15722692D01*
X19976658Y-15724990D01*
X18423321Y-15724990D01*
X18399989Y-15722692D01*
X18306873Y-15731863D01*
X18279712Y-15740102D01*
X18217336Y-15759024D01*
X18134817Y-15803131D01*
X18062489Y-15862489D01*
X18047610Y-15880619D01*
X17530629Y-16397601D01*
X17512500Y-16412479D01*
X17453142Y-16484807D01*
X17426406Y-16534827D01*
X17409035Y-16567326D01*
X17381873Y-16656864D01*
X17375341Y-16723186D01*
X17225000Y-16723186D01*
X17151487Y-16730426D01*
X17100000Y-16746045D01*
X17048513Y-16730426D01*
X16975000Y-16723186D01*
X16725000Y-16723186D01*
X16651487Y-16730426D01*
X16612500Y-16742253D01*
X16573513Y-16730426D01*
X16500000Y-16723186D01*
X16250000Y-16723186D01*
X16176487Y-16730426D01*
X16105800Y-16751869D01*
X16040653Y-16786691D01*
X15983552Y-16833552D01*
X15936691Y-16890653D01*
X15901869Y-16955800D01*
X15880426Y-17026487D01*
X15873186Y-17100000D01*
X15873186Y-17473186D01*
X15500000Y-17473186D01*
X15426487Y-17480426D01*
X15355800Y-17501869D01*
X15290653Y-17536691D01*
X15233552Y-17583552D01*
X15186691Y-17640653D01*
X15151869Y-17705800D01*
X15130426Y-17776487D01*
X15123186Y-17850000D01*
X15123186Y-18100000D01*
X15130426Y-18173513D01*
X15142253Y-18212500D01*
X15130426Y-18251487D01*
X15123186Y-18325000D01*
X15123186Y-18575000D01*
X15130426Y-18648513D01*
X15144528Y-18695000D01*
X15130426Y-18741487D01*
X15123186Y-18815000D01*
X15125000Y-18831250D01*
X15218750Y-18925000D01*
X15361961Y-18925000D01*
X15426487Y-18944574D01*
X15481581Y-18950000D01*
X15426487Y-18955426D01*
X15361961Y-18975000D01*
X15012449Y-18975000D01*
X14541701Y-18504253D01*
X14598177Y-18419730D01*
X14649060Y-18296888D01*
X14675000Y-18166480D01*
X14675000Y-18033516D01*
X14649060Y-17903108D01*
X14598177Y-17780266D01*
X14524307Y-17669711D01*
X14430287Y-17575691D01*
X14319732Y-17501821D01*
X14196890Y-17450938D01*
X14066482Y-17424998D01*
X13933518Y-17424998D01*
X13803110Y-17450938D01*
X13680268Y-17501821D01*
X13569713Y-17575691D01*
X13475693Y-17669711D01*
X13401823Y-17780266D01*
X13357946Y-17886195D01*
X12652381Y-17180631D01*
X12637498Y-17162496D01*
X12565170Y-17103138D01*
X12482651Y-17059031D01*
X12393113Y-17031870D01*
X12353322Y-17027951D01*
X12299997Y-17022699D01*
X12276665Y-17024997D01*
X11723335Y-17024997D01*
X11700003Y-17022699D01*
X11606887Y-17031870D01*
X11517348Y-17059031D01*
X11497205Y-17069798D01*
X11434830Y-17103138D01*
X11362502Y-17162496D01*
X11347628Y-17180620D01*
X10845073Y-17683176D01*
X10815847Y-17659191D01*
X10750700Y-17624369D01*
X10680013Y-17602926D01*
X10606500Y-17595686D01*
X9876064Y-17595686D01*
X10719371Y-16752380D01*
X10737501Y-16737501D01*
X10796859Y-16665173D01*
X10840966Y-16582654D01*
X10868127Y-16493116D01*
X10868592Y-16488400D01*
X10877298Y-16400000D01*
X10875000Y-16376668D01*
X10875000Y-14575000D01*
X19200000Y-14575000D01*
X19273159Y-14567794D01*
X19343506Y-14546455D01*
X19408339Y-14511801D01*
X19465165Y-14465165D01*
X19511801Y-14408339D01*
X19546455Y-14343506D01*
X19567794Y-14273159D01*
X19575000Y-14200000D01*
X19575000Y-11400000D01*
X19567794Y-11326841D01*
X19546455Y-11256494D01*
X19511801Y-11191661D01*
X19465165Y-11134835D01*
X19408339Y-11088199D01*
X19343506Y-11053545D01*
X19273159Y-11032206D01*
X19200000Y-11025000D01*
X9653955Y-11025000D01*
X9669574Y-10973513D01*
X9676814Y-10900000D01*
X9676814Y-10200000D01*
X9669574Y-10126487D01*
X9648131Y-10055800D01*
X9613309Y-9990653D01*
X9566448Y-9933552D01*
X9509347Y-9886691D01*
X9444200Y-9851869D01*
X9373513Y-9830426D01*
X9300000Y-9823186D01*
X8300000Y-9823186D01*
X8226487Y-9830426D01*
X8155800Y-9851869D01*
X8090653Y-9886691D01*
X8033552Y-9933552D01*
X7986691Y-9990653D01*
X7951869Y-10055800D01*
X7930426Y-10126487D01*
X7923186Y-10200000D01*
X7923186Y-10900000D01*
X7930426Y-10973513D01*
X7946045Y-11025000D01*
X7600000Y-11025000D01*
X7526841Y-11032206D01*
X7456494Y-11053545D01*
X7391661Y-11088199D01*
X7334835Y-11134835D01*
X7288199Y-11191661D01*
X7253545Y-11256494D01*
X7232206Y-11326841D01*
X7225000Y-11400000D01*
X7225000Y-14200000D01*
X7227462Y-14225000D01*
X4000000Y-14225000D01*
X3926841Y-14232206D01*
X3856494Y-14253545D01*
X3791661Y-14288199D01*
X3734835Y-14334835D01*
X3688199Y-14391661D01*
X3653545Y-14456494D01*
X3632206Y-14526841D01*
X3625000Y-14600000D01*
X3625000Y-17368332D01*
X3590653Y-17386691D01*
X3533552Y-17433552D01*
X3486691Y-17490653D01*
X3451869Y-17555800D01*
X3430426Y-17626487D01*
X3423186Y-17700000D01*
X3423186Y-18100000D01*
X3430426Y-18173513D01*
X3446045Y-18225000D01*
X3430426Y-18276487D01*
X3423186Y-18350000D01*
X3423186Y-18750000D01*
X3430426Y-18823513D01*
X3446045Y-18875000D01*
X3430426Y-18926487D01*
X3423186Y-19000000D01*
X3423186Y-19400000D01*
X3430426Y-19473513D01*
X3446045Y-19525000D01*
X3430426Y-19576487D01*
X3423186Y-19650000D01*
X3423186Y-20050000D01*
X3430426Y-20123513D01*
X3446045Y-20175000D01*
X3430426Y-20226487D01*
X3423186Y-20300000D01*
X3425000Y-20381250D01*
X3518750Y-20475000D01*
X4775000Y-20475000D01*
X4775000Y-20455000D01*
X4825000Y-20455000D01*
X4825000Y-20475000D01*
X6081250Y-20475000D01*
X6175000Y-20381250D01*
X6176814Y-20300000D01*
X6169574Y-20226487D01*
X6153955Y-20175000D01*
X6169574Y-20123513D01*
X6176814Y-20050000D01*
X6176814Y-20048565D01*
X6600120Y-20471871D01*
X6614999Y-20490001D01*
X6623531Y-20497003D01*
X6623926Y-20501013D01*
X6645369Y-20571700D01*
X6680191Y-20636847D01*
X6727052Y-20693948D01*
X6784153Y-20740809D01*
X6849300Y-20775631D01*
X6919987Y-20797074D01*
X6993500Y-20804314D01*
X8193500Y-20804314D01*
X8267013Y-20797074D01*
X8337700Y-20775631D01*
X8402847Y-20740809D01*
X8459948Y-20693948D01*
X8506809Y-20636847D01*
X8525000Y-20602814D01*
X8525000Y-20836665D01*
X8522702Y-20859998D01*
X8531873Y-20953114D01*
X8539391Y-20977896D01*
X8559034Y-21042651D01*
X8603141Y-21125171D01*
X8662499Y-21197499D01*
X8680634Y-21212382D01*
X8793252Y-21325000D01*
X8774998Y-21325000D01*
X8774998Y-21418748D01*
X8681250Y-21325000D01*
X8300000Y-21323186D01*
X8226487Y-21330426D01*
X8155800Y-21351869D01*
X8090653Y-21386691D01*
X8033552Y-21433552D01*
X7986691Y-21490653D01*
X7951869Y-21555800D01*
X7930426Y-21626487D01*
X7923186Y-21700000D01*
X7925000Y-21931250D01*
X8018750Y-22025000D01*
X8775000Y-22025000D01*
X8775000Y-22005000D01*
X8825000Y-22005000D01*
X8825000Y-22025000D01*
X8845000Y-22025000D01*
X8845000Y-22075000D01*
X8825000Y-22075000D01*
X8825000Y-22681250D01*
X8918750Y-22775000D01*
X9300000Y-22776814D01*
X9373513Y-22769574D01*
X9444200Y-22748131D01*
X9509347Y-22713309D01*
X9566448Y-22666448D01*
X9613309Y-22609347D01*
X9648131Y-22544200D01*
X9669574Y-22473513D01*
X9676814Y-22400000D01*
X9675300Y-22207049D01*
X9987622Y-22519371D01*
X10002501Y-22537501D01*
X10074829Y-22596859D01*
X10157348Y-22640966D01*
X10209823Y-22656884D01*
X10246885Y-22668127D01*
X10340001Y-22677298D01*
X10363334Y-22675000D01*
X12776668Y-22675000D01*
X12800000Y-22677298D01*
X12823332Y-22675000D01*
X12893116Y-22668127D01*
X12982654Y-22640966D01*
X13065173Y-22596859D01*
X13137501Y-22537501D01*
X13152383Y-22519367D01*
X13196750Y-22475000D01*
X14920406Y-22475000D01*
X14969713Y-22524307D01*
X15080268Y-22598177D01*
X15203110Y-22649060D01*
X15333518Y-22675000D01*
X15466482Y-22675000D01*
X15525001Y-22663360D01*
X15525000Y-24936640D01*
X15466482Y-24925000D01*
X15333518Y-24925000D01*
X15203110Y-24950940D01*
X15080268Y-25001823D01*
X14969713Y-25075693D01*
X14875693Y-25169713D01*
X14801823Y-25280268D01*
X14750940Y-25403110D01*
X14725000Y-25533518D01*
X14725000Y-25666482D01*
X14750940Y-25796890D01*
X14801823Y-25919732D01*
X14875693Y-26030287D01*
X14925001Y-26079595D01*
X14925000Y-30253250D01*
X14752384Y-30080634D01*
X14737501Y-30062499D01*
X14665173Y-30003141D01*
X14582654Y-29959034D01*
X14493116Y-29931873D01*
X14423332Y-29925000D01*
X14400000Y-29922702D01*
X14376668Y-29925000D01*
X14345031Y-29925000D01*
X14313309Y-29865653D01*
X14300463Y-29850000D01*
X14313309Y-29834347D01*
X14348131Y-29769200D01*
X14369574Y-29698513D01*
X14376814Y-29625000D01*
X14376814Y-28975000D01*
X14369574Y-28901487D01*
X14348131Y-28830800D01*
X14313309Y-28765653D01*
X14300463Y-28750000D01*
X14313309Y-28734347D01*
X14348131Y-28669200D01*
X14369574Y-28598513D01*
X14376814Y-28525000D01*
X14376814Y-27875000D01*
X14369574Y-27801487D01*
X14348131Y-27730800D01*
X14313309Y-27665653D01*
X14266448Y-27608552D01*
X14209347Y-27561691D01*
X14144200Y-27526869D01*
X14073513Y-27505426D01*
X14000000Y-27498186D01*
X12000000Y-27498186D01*
X11926487Y-27505426D01*
X11855800Y-27526869D01*
X11790653Y-27561691D01*
X11733552Y-27608552D01*
X11686691Y-27665653D01*
X11651869Y-27730800D01*
X11630426Y-27801487D01*
X11623186Y-27875000D01*
X11623186Y-28525000D01*
X11630426Y-28598513D01*
X11651869Y-28669200D01*
X11686691Y-28734347D01*
X11699537Y-28750000D01*
X11686691Y-28765653D01*
X11651869Y-28830800D01*
X11630426Y-28901487D01*
X11623186Y-28975000D01*
X11623186Y-29625000D01*
X11630426Y-29698513D01*
X11651869Y-29769200D01*
X11686691Y-29834347D01*
X11699537Y-29850000D01*
X11686691Y-29865653D01*
X11651869Y-29930800D01*
X11645935Y-29950362D01*
X11617346Y-29959034D01*
X11534827Y-30003141D01*
X11462499Y-30062499D01*
X11447620Y-30080629D01*
X11080623Y-30447627D01*
X11062500Y-30462500D01*
X11037374Y-30493116D01*
X11003142Y-30534828D01*
X10959035Y-30617346D01*
X10931873Y-30706884D01*
X10922702Y-30800000D01*
X10925020Y-30823535D01*
X10925021Y-37376638D01*
X10922722Y-37399980D01*
X10931893Y-37493096D01*
X10950915Y-37555800D01*
X10959055Y-37582634D01*
X11003162Y-37665153D01*
X11062520Y-37737481D01*
X11080649Y-37752359D01*
X11447654Y-38119366D01*
X11462529Y-38137491D01*
X11480652Y-38152364D01*
X11534857Y-38196849D01*
X11617376Y-38240956D01*
X11706914Y-38268117D01*
X11800030Y-38277288D01*
X11823362Y-38274990D01*
X13637541Y-38274990D01*
X14692782Y-39330231D01*
X14666482Y-39325000D01*
X14533518Y-39325000D01*
X14403110Y-39350940D01*
X14280268Y-39401823D01*
X14169713Y-39475693D01*
X14120406Y-39525000D01*
X10300463Y-39525000D01*
X10313309Y-39509347D01*
X10348131Y-39444200D01*
X10369574Y-39373513D01*
X10376814Y-39300000D01*
X10376814Y-38100000D01*
X10369574Y-38026487D01*
X10348131Y-37955800D01*
X10313309Y-37890653D01*
X10266448Y-37833552D01*
X10209347Y-37786691D01*
X10144200Y-37751869D01*
X10073513Y-37730426D01*
X10000000Y-37723186D01*
X8000000Y-37723186D01*
X7926487Y-37730426D01*
X7855800Y-37751869D01*
X7790653Y-37786691D01*
X7733552Y-37833552D01*
X7686691Y-37890653D01*
X7651869Y-37955800D01*
X7630426Y-38026487D01*
X7623186Y-38100000D01*
X7623186Y-39300000D01*
X7630426Y-39373513D01*
X7651869Y-39444200D01*
X7686691Y-39509347D01*
X7699537Y-39525000D01*
X2529594Y-39525000D01*
X2513529Y-39508935D01*
X2548131Y-39444200D01*
X2569574Y-39373513D01*
X2576814Y-39300000D01*
X2576814Y-38100000D01*
X2569574Y-38026487D01*
X2548131Y-37955800D01*
X2513309Y-37890653D01*
X2466448Y-37833552D01*
X2409347Y-37786691D01*
X2344200Y-37751869D01*
X2273513Y-37730426D01*
X2200000Y-37723186D01*
X450000Y-37723186D01*
X450000Y-26276814D01*
X2200000Y-26276814D01*
X2273513Y-26269574D01*
X2344200Y-26248131D01*
X2409347Y-26213309D01*
X2466448Y-26166448D01*
X2513309Y-26109347D01*
X2548131Y-26044200D01*
X2569574Y-25973513D01*
X2576814Y-25900000D01*
X2576814Y-24700000D01*
X7623186Y-24700000D01*
X7623186Y-25900000D01*
X7630426Y-25973513D01*
X7651869Y-26044200D01*
X7686691Y-26109347D01*
X7733552Y-26166448D01*
X7790653Y-26213309D01*
X7855800Y-26248131D01*
X7926487Y-26269574D01*
X8000000Y-26276814D01*
X10000000Y-26276814D01*
X10073513Y-26269574D01*
X10144200Y-26248131D01*
X10209347Y-26213309D01*
X10266448Y-26166448D01*
X10313309Y-26109347D01*
X10348131Y-26044200D01*
X10369574Y-25973513D01*
X10376814Y-25900000D01*
X10376814Y-24700000D01*
X10369574Y-24626487D01*
X10348131Y-24555800D01*
X10313309Y-24490653D01*
X10266448Y-24433552D01*
X10209347Y-24386691D01*
X10144200Y-24351869D01*
X10073513Y-24330426D01*
X10000000Y-24323186D01*
X8000000Y-24323186D01*
X7926487Y-24330426D01*
X7855800Y-24351869D01*
X7790653Y-24386691D01*
X7733552Y-24433552D01*
X7686691Y-24490653D01*
X7651869Y-24555800D01*
X7630426Y-24626487D01*
X7623186Y-24700000D01*
X2576814Y-24700000D01*
X2569574Y-24626487D01*
X2548131Y-24555800D01*
X2513309Y-24490653D01*
X2466448Y-24433552D01*
X2409347Y-24386691D01*
X2344200Y-24351869D01*
X2273513Y-24330426D01*
X2200000Y-24323186D01*
X450000Y-24323186D01*
X450000Y-14650000D01*
X554969Y-14650000D01*
X551869Y-14655800D01*
X530426Y-14726487D01*
X523186Y-14800000D01*
X523186Y-16800000D01*
X530426Y-16873513D01*
X551869Y-16944200D01*
X586691Y-17009347D01*
X633552Y-17066448D01*
X690653Y-17113309D01*
X755800Y-17148131D01*
X826487Y-17169574D01*
X900000Y-17176814D01*
X1425000Y-17176814D01*
X1425001Y-21223186D01*
X900000Y-21223186D01*
X826487Y-21230426D01*
X755800Y-21251869D01*
X690653Y-21286691D01*
X633552Y-21333552D01*
X586691Y-21390653D01*
X551869Y-21455800D01*
X530426Y-21526487D01*
X523186Y-21600000D01*
X523186Y-23600000D01*
X530426Y-23673513D01*
X551869Y-23744200D01*
X586691Y-23809347D01*
X633552Y-23866448D01*
X690653Y-23913309D01*
X755800Y-23948131D01*
X826487Y-23969574D01*
X900000Y-23976814D01*
X2900000Y-23976814D01*
X2973513Y-23969574D01*
X3044200Y-23948131D01*
X3071538Y-23933518D01*
X5425000Y-23933518D01*
X5425000Y-24066482D01*
X5450940Y-24196890D01*
X5501823Y-24319732D01*
X5575693Y-24430287D01*
X5669713Y-24524307D01*
X5780268Y-24598177D01*
X5903110Y-24649060D01*
X6033518Y-24675000D01*
X6166482Y-24675000D01*
X6296890Y-24649060D01*
X6419732Y-24598177D01*
X6530287Y-24524307D01*
X6624307Y-24430287D01*
X6698177Y-24319732D01*
X6749060Y-24196890D01*
X6775000Y-24066482D01*
X6775000Y-24025000D01*
X7946045Y-24025000D01*
X7951869Y-24044200D01*
X7986691Y-24109347D01*
X8033552Y-24166448D01*
X8090653Y-24213309D01*
X8155800Y-24248131D01*
X8226487Y-24269574D01*
X8300000Y-24276814D01*
X9300000Y-24276814D01*
X9373513Y-24269574D01*
X9444200Y-24248131D01*
X9509347Y-24213309D01*
X9566448Y-24166448D01*
X9613309Y-24109347D01*
X9648131Y-24044200D01*
X9669574Y-23973513D01*
X9676814Y-23900000D01*
X9676814Y-23200000D01*
X9669574Y-23126487D01*
X9648131Y-23055800D01*
X9613309Y-22990653D01*
X9566448Y-22933552D01*
X9509347Y-22886691D01*
X9444200Y-22851869D01*
X9373513Y-22830426D01*
X9300000Y-22823186D01*
X8300000Y-22823186D01*
X8226487Y-22830426D01*
X8155800Y-22851869D01*
X8090653Y-22886691D01*
X8033552Y-22933552D01*
X7986691Y-22990653D01*
X7951869Y-23055800D01*
X7946045Y-23075000D01*
X6573331Y-23075000D01*
X6549999Y-23072702D01*
X6456883Y-23081873D01*
X6438334Y-23087500D01*
X6367346Y-23109034D01*
X6284827Y-23153141D01*
X6212499Y-23212499D01*
X6197620Y-23230629D01*
X6103249Y-23325000D01*
X6033518Y-23325000D01*
X5903110Y-23350940D01*
X5780268Y-23401823D01*
X5669713Y-23475693D01*
X5575693Y-23569713D01*
X5501823Y-23680268D01*
X5450940Y-23803110D01*
X5425000Y-23933518D01*
X3071538Y-23933518D01*
X3109347Y-23913309D01*
X3166448Y-23866448D01*
X3213309Y-23809347D01*
X3248131Y-23744200D01*
X3269574Y-23673513D01*
X3276814Y-23600000D01*
X3276814Y-22400000D01*
X7923186Y-22400000D01*
X7930426Y-22473513D01*
X7951869Y-22544200D01*
X7986691Y-22609347D01*
X8033552Y-22666448D01*
X8090653Y-22713309D01*
X8155800Y-22748131D01*
X8226487Y-22769574D01*
X8300000Y-22776814D01*
X8681250Y-22775000D01*
X8775000Y-22681250D01*
X8775000Y-22075000D01*
X8018750Y-22075000D01*
X7925000Y-22168750D01*
X7923186Y-22400000D01*
X3276814Y-22400000D01*
X3276814Y-21600000D01*
X3269574Y-21526487D01*
X3248131Y-21455800D01*
X3213309Y-21390653D01*
X3166448Y-21333552D01*
X3109347Y-21286691D01*
X3044200Y-21251869D01*
X2973513Y-21230426D01*
X2900000Y-21223186D01*
X2375000Y-21223186D01*
X2375000Y-20700000D01*
X3423186Y-20700000D01*
X3430426Y-20773513D01*
X3451869Y-20844200D01*
X3486691Y-20909347D01*
X3533552Y-20966448D01*
X3590653Y-21013309D01*
X3655800Y-21048131D01*
X3706933Y-21063642D01*
X3700940Y-21078110D01*
X3675000Y-21208518D01*
X3675000Y-21341482D01*
X3700940Y-21471890D01*
X3751823Y-21594732D01*
X3825693Y-21705287D01*
X3919713Y-21799307D01*
X4030268Y-21873177D01*
X4153110Y-21924060D01*
X4283518Y-21950000D01*
X4416482Y-21950000D01*
X4546890Y-21924060D01*
X4669732Y-21873177D01*
X4780287Y-21799307D01*
X4874307Y-21705287D01*
X4948177Y-21594732D01*
X4999060Y-21471890D01*
X5025000Y-21341482D01*
X5025000Y-21208518D01*
X4999060Y-21078110D01*
X4997839Y-21075163D01*
X5800000Y-21076814D01*
X5873513Y-21069574D01*
X5944200Y-21048131D01*
X6009347Y-21013309D01*
X6066448Y-20966448D01*
X6113309Y-20909347D01*
X6148131Y-20844200D01*
X6169574Y-20773513D01*
X6176814Y-20700000D01*
X6175000Y-20618750D01*
X6081250Y-20525000D01*
X4825000Y-20525000D01*
X4825000Y-20545000D01*
X4775000Y-20545000D01*
X4775000Y-20525000D01*
X3518750Y-20525000D01*
X3425000Y-20618750D01*
X3423186Y-20700000D01*
X2375000Y-20700000D01*
X2375000Y-17176814D01*
X2900000Y-17176814D01*
X2973513Y-17169574D01*
X3044200Y-17148131D01*
X3109347Y-17113309D01*
X3166448Y-17066448D01*
X3213309Y-17009347D01*
X3248131Y-16944200D01*
X3269574Y-16873513D01*
X3276814Y-16800000D01*
X3276814Y-14800000D01*
X3269574Y-14726487D01*
X3248131Y-14655800D01*
X3213309Y-14590653D01*
X3166448Y-14533552D01*
X3109347Y-14486691D01*
X3044200Y-14451869D01*
X2973513Y-14430426D01*
X2900000Y-14423186D01*
X1990954Y-14423186D01*
X2017757Y-14373041D01*
X2043489Y-14288215D01*
X2052177Y-14200000D01*
X2050000Y-14177895D01*
X2050000Y-11650000D01*
X2822105Y-11650000D01*
X2841591Y-11648081D01*
X2847767Y-11648124D01*
X2854020Y-11647511D01*
X3048117Y-11627110D01*
X3088096Y-11618903D01*
X3128131Y-11611266D01*
X3134144Y-11609451D01*
X3134150Y-11609449D01*
X3320584Y-11551738D01*
X3358179Y-11535935D01*
X3395998Y-11520655D01*
X3401546Y-11517705D01*
X3573223Y-11424880D01*
X3607062Y-11402056D01*
X3641165Y-11379739D01*
X3646025Y-11375776D01*
X3646033Y-11375770D01*
X3646040Y-11375763D01*
X3796412Y-11251365D01*
X3825157Y-11222418D01*
X3854291Y-11193888D01*
X3858296Y-11189047D01*
X3981646Y-11037805D01*
X4004222Y-11003826D01*
X4027259Y-10970181D01*
X4030248Y-10964654D01*
X4121873Y-10792331D01*
X4137418Y-10754617D01*
X4153482Y-10717136D01*
X4155340Y-10711134D01*
X4211749Y-10524298D01*
X4219678Y-10484253D01*
X4228150Y-10444395D01*
X4228807Y-10438147D01*
X4246301Y-10259730D01*
X4392459Y-9400000D01*
X7923186Y-9400000D01*
X7930426Y-9473513D01*
X7951869Y-9544200D01*
X7986691Y-9609347D01*
X8033552Y-9666448D01*
X8090653Y-9713309D01*
X8155800Y-9748131D01*
X8226487Y-9769574D01*
X8300000Y-9776814D01*
X8681250Y-9775000D01*
X8775000Y-9681250D01*
X8775000Y-9075000D01*
X8825000Y-9075000D01*
X8825000Y-9681250D01*
X8918750Y-9775000D01*
X9300000Y-9776814D01*
X9373513Y-9769574D01*
X9444200Y-9748131D01*
X9509347Y-9713309D01*
X9566448Y-9666448D01*
X9613309Y-9609347D01*
X9648131Y-9544200D01*
X9669574Y-9473513D01*
X9676814Y-9400000D01*
X9675000Y-9168750D01*
X9581250Y-9075000D01*
X8825000Y-9075000D01*
X8775000Y-9075000D01*
X8018750Y-9075000D01*
X7925000Y-9168750D01*
X7923186Y-9400000D01*
X4392459Y-9400000D01*
X4511462Y-8700000D01*
X7923186Y-8700000D01*
X7925000Y-8931250D01*
X8018750Y-9025000D01*
X8775000Y-9025000D01*
X8775000Y-8418750D01*
X8825000Y-8418750D01*
X8825000Y-9025000D01*
X9581250Y-9025000D01*
X9675000Y-8931250D01*
X9676814Y-8700000D01*
X9669574Y-8626487D01*
X9648131Y-8555800D01*
X9613309Y-8490653D01*
X9566448Y-8433552D01*
X9509347Y-8386691D01*
X9444200Y-8351869D01*
X9373513Y-8330426D01*
X9300000Y-8323186D01*
X8918750Y-8325000D01*
X8825000Y-8418750D01*
X8775000Y-8418750D01*
X8681250Y-8325000D01*
X8300000Y-8323186D01*
X8226487Y-8330426D01*
X8155800Y-8351869D01*
X8090653Y-8386691D01*
X8033552Y-8433552D01*
X7986691Y-8490653D01*
X7951869Y-8555800D01*
X7930426Y-8626487D01*
X7923186Y-8700000D01*
X4511462Y-8700000D01*
X5875168Y-678432D01*
X5897659Y-627999D01*
X5936824Y-572553D01*
X5986014Y-525766D01*
X6043353Y-489426D01*
X6106663Y-464915D01*
X6186835Y-450828D01*
X6208577Y-450000D01*
X28550001Y-450000D01*
X28550001Y-625000D01*
G37*
G04 #@! TD.AperFunction*
D38*
X10280268Y-52748177D02*
X10403110Y-52799060D01*
X10533518Y-52825000D01*
X10666482Y-52825000D01*
X10775001Y-52803414D01*
X10775001Y-53538753D01*
X10719732Y-53501823D01*
X10596890Y-53450940D01*
X10466482Y-53425000D01*
X10333518Y-53425000D01*
X10203110Y-53450940D01*
X10080268Y-53501823D01*
X10048296Y-53523186D01*
X9275000Y-53523186D01*
X9275000Y-53096750D01*
X9669937Y-52701814D01*
X10210880Y-52701814D01*
X10280268Y-52748177D01*
G04 #@! TA.AperFunction,Conductor*
D39*
G36*
X10280268Y-52748177D02*
G01*
X10403110Y-52799060D01*
X10533518Y-52825000D01*
X10666482Y-52825000D01*
X10775001Y-52803414D01*
X10775001Y-53538753D01*
X10719732Y-53501823D01*
X10596890Y-53450940D01*
X10466482Y-53425000D01*
X10333518Y-53425000D01*
X10203110Y-53450940D01*
X10080268Y-53501823D01*
X10048296Y-53523186D01*
X9275000Y-53523186D01*
X9275000Y-53096750D01*
X9669937Y-52701814D01*
X10210880Y-52701814D01*
X10280268Y-52748177D01*
G37*
G04 #@! TD.AperFunction*
D38*
X14169713Y-40524307D02*
X14231404Y-40565528D01*
X14080609Y-40716323D01*
X14062480Y-40731201D01*
X14008596Y-40796859D01*
X14003122Y-40803529D01*
X13959015Y-40886048D01*
X13931853Y-40975586D01*
X13922682Y-41068702D01*
X13924981Y-41092044D01*
X13924980Y-45003269D01*
X13680629Y-45247621D01*
X13675010Y-45252232D01*
X13675010Y-43057642D01*
X13677308Y-43034310D01*
X13668137Y-42941194D01*
X13640976Y-42851656D01*
X13621475Y-42815173D01*
X13596869Y-42769138D01*
X13537511Y-42696810D01*
X13519381Y-42681931D01*
X13096022Y-42258572D01*
X13124307Y-42230287D01*
X13198177Y-42119732D01*
X13249060Y-41996890D01*
X13275000Y-41866482D01*
X13275000Y-41733518D01*
X13249060Y-41603110D01*
X13198177Y-41480268D01*
X13124307Y-41369713D01*
X13030287Y-41275693D01*
X12919732Y-41201823D01*
X12796890Y-41150940D01*
X12666482Y-41125000D01*
X12533518Y-41125000D01*
X12403110Y-41150940D01*
X12280268Y-41201823D01*
X12169713Y-41275693D01*
X12075693Y-41369713D01*
X12001823Y-41480268D01*
X11950940Y-41603110D01*
X11926413Y-41726413D01*
X11803110Y-41750940D01*
X11680268Y-41801823D01*
X11569713Y-41875693D01*
X11475693Y-41969713D01*
X11401823Y-42080268D01*
X11350940Y-42203110D01*
X11325000Y-42333518D01*
X11325000Y-42466482D01*
X11350940Y-42596890D01*
X11401823Y-42719732D01*
X11475693Y-42830287D01*
X11569713Y-42924307D01*
X11680268Y-42998177D01*
X11803110Y-43049060D01*
X11933518Y-43075000D01*
X12003249Y-43075000D01*
X12325001Y-43396753D01*
X12325000Y-46120406D01*
X12275693Y-46169713D01*
X12201823Y-46280268D01*
X12157096Y-46388249D01*
X11875000Y-46106154D01*
X11875000Y-44057632D01*
X11877298Y-44034300D01*
X11868127Y-43941184D01*
X11855634Y-43900000D01*
X11840966Y-43851647D01*
X11796859Y-43769128D01*
X11737501Y-43696800D01*
X11719371Y-43681921D01*
X11275000Y-43237551D01*
X11275000Y-42223332D01*
X11277298Y-42199999D01*
X11268127Y-42106883D01*
X11251583Y-42052345D01*
X11240966Y-42017346D01*
X11196859Y-41934827D01*
X11137501Y-41862499D01*
X11119366Y-41847616D01*
X10852384Y-41580634D01*
X10837501Y-41562499D01*
X10765173Y-41503141D01*
X10682654Y-41459034D01*
X10673729Y-41456327D01*
X10676814Y-41425000D01*
X10676814Y-41075000D01*
X10669574Y-41001487D01*
X10648131Y-40930800D01*
X10613309Y-40865653D01*
X10566448Y-40808552D01*
X10509347Y-40761691D01*
X10444200Y-40726869D01*
X10373513Y-40705426D01*
X10300000Y-40698186D01*
X9669937Y-40698186D01*
X9446750Y-40475000D01*
X14120406Y-40475000D01*
X14169713Y-40524307D01*
G04 #@! TA.AperFunction,Conductor*
D39*
G36*
X14169713Y-40524307D02*
G01*
X14231404Y-40565528D01*
X14080609Y-40716323D01*
X14062480Y-40731201D01*
X14008596Y-40796859D01*
X14003122Y-40803529D01*
X13959015Y-40886048D01*
X13931853Y-40975586D01*
X13922682Y-41068702D01*
X13924981Y-41092044D01*
X13924980Y-45003269D01*
X13680629Y-45247621D01*
X13675010Y-45252232D01*
X13675010Y-43057642D01*
X13677308Y-43034310D01*
X13668137Y-42941194D01*
X13640976Y-42851656D01*
X13621475Y-42815173D01*
X13596869Y-42769138D01*
X13537511Y-42696810D01*
X13519381Y-42681931D01*
X13096022Y-42258572D01*
X13124307Y-42230287D01*
X13198177Y-42119732D01*
X13249060Y-41996890D01*
X13275000Y-41866482D01*
X13275000Y-41733518D01*
X13249060Y-41603110D01*
X13198177Y-41480268D01*
X13124307Y-41369713D01*
X13030287Y-41275693D01*
X12919732Y-41201823D01*
X12796890Y-41150940D01*
X12666482Y-41125000D01*
X12533518Y-41125000D01*
X12403110Y-41150940D01*
X12280268Y-41201823D01*
X12169713Y-41275693D01*
X12075693Y-41369713D01*
X12001823Y-41480268D01*
X11950940Y-41603110D01*
X11926413Y-41726413D01*
X11803110Y-41750940D01*
X11680268Y-41801823D01*
X11569713Y-41875693D01*
X11475693Y-41969713D01*
X11401823Y-42080268D01*
X11350940Y-42203110D01*
X11325000Y-42333518D01*
X11325000Y-42466482D01*
X11350940Y-42596890D01*
X11401823Y-42719732D01*
X11475693Y-42830287D01*
X11569713Y-42924307D01*
X11680268Y-42998177D01*
X11803110Y-43049060D01*
X11933518Y-43075000D01*
X12003249Y-43075000D01*
X12325001Y-43396753D01*
X12325000Y-46120406D01*
X12275693Y-46169713D01*
X12201823Y-46280268D01*
X12157096Y-46388249D01*
X11875000Y-46106154D01*
X11875000Y-44057632D01*
X11877298Y-44034300D01*
X11868127Y-43941184D01*
X11855634Y-43900000D01*
X11840966Y-43851647D01*
X11796859Y-43769128D01*
X11737501Y-43696800D01*
X11719371Y-43681921D01*
X11275000Y-43237551D01*
X11275000Y-42223332D01*
X11277298Y-42199999D01*
X11268127Y-42106883D01*
X11251583Y-42052345D01*
X11240966Y-42017346D01*
X11196859Y-41934827D01*
X11137501Y-41862499D01*
X11119366Y-41847616D01*
X10852384Y-41580634D01*
X10837501Y-41562499D01*
X10765173Y-41503141D01*
X10682654Y-41459034D01*
X10673729Y-41456327D01*
X10676814Y-41425000D01*
X10676814Y-41075000D01*
X10669574Y-41001487D01*
X10648131Y-40930800D01*
X10613309Y-40865653D01*
X10566448Y-40808552D01*
X10509347Y-40761691D01*
X10444200Y-40726869D01*
X10373513Y-40705426D01*
X10300000Y-40698186D01*
X9669937Y-40698186D01*
X9446750Y-40475000D01*
X14120406Y-40475000D01*
X14169713Y-40524307D01*
G37*
G04 #@! TD.AperFunction*
D38*
X3130426Y-42826487D02*
X3123186Y-42900000D01*
X3123186Y-43300000D01*
X3130426Y-43373513D01*
X3151869Y-43444200D01*
X3186691Y-43509347D01*
X3233552Y-43566448D01*
X3290653Y-43613309D01*
X3355800Y-43648131D01*
X3426487Y-43669574D01*
X3500000Y-43676814D01*
X4600000Y-43676814D01*
X4673513Y-43669574D01*
X4744200Y-43648131D01*
X4809347Y-43613309D01*
X4866448Y-43566448D01*
X4900000Y-43525564D01*
X4933552Y-43566448D01*
X4990653Y-43613309D01*
X5055800Y-43648131D01*
X5126487Y-43669574D01*
X5200000Y-43676814D01*
X6300000Y-43676814D01*
X6373513Y-43669574D01*
X6444200Y-43648131D01*
X6509347Y-43613309D01*
X6566448Y-43566448D01*
X6613309Y-43509347D01*
X6648131Y-43444200D01*
X6663101Y-43394850D01*
X7275001Y-44006751D01*
X7275000Y-44500648D01*
X7226487Y-44505426D01*
X7155800Y-44526869D01*
X7090653Y-44561691D01*
X7033552Y-44608552D01*
X6986691Y-44665653D01*
X6951869Y-44730800D01*
X6930426Y-44801487D01*
X6923186Y-44875000D01*
X6923186Y-45325000D01*
X6930426Y-45398513D01*
X6951869Y-45469200D01*
X6986691Y-45534347D01*
X7033552Y-45591448D01*
X7090653Y-45638309D01*
X7155800Y-45673131D01*
X7226487Y-45694574D01*
X7300000Y-45701814D01*
X8200000Y-45701814D01*
X8273513Y-45694574D01*
X8344200Y-45673131D01*
X8409347Y-45638309D01*
X8466448Y-45591448D01*
X8513309Y-45534347D01*
X8548131Y-45469200D01*
X8569574Y-45398513D01*
X8576814Y-45325000D01*
X8576814Y-44875000D01*
X8569574Y-44801487D01*
X8548131Y-44730800D01*
X8518306Y-44675000D01*
X9023186Y-44675000D01*
X9030426Y-44748513D01*
X9051869Y-44819200D01*
X9086691Y-44884347D01*
X9133552Y-44941448D01*
X9190653Y-44988309D01*
X9255800Y-45023131D01*
X9326487Y-45044574D01*
X9400000Y-45051814D01*
X9731250Y-45050000D01*
X9825000Y-44956250D01*
X9825000Y-44475000D01*
X9118750Y-44475000D01*
X9025000Y-44568750D01*
X9023186Y-44675000D01*
X8518306Y-44675000D01*
X8513309Y-44665653D01*
X8466448Y-44608552D01*
X8409347Y-44561691D01*
X8344200Y-44526869D01*
X8273513Y-44505426D01*
X8225000Y-44500648D01*
X8225000Y-43833330D01*
X8227298Y-43809998D01*
X8218127Y-43716882D01*
X8190966Y-43627344D01*
X8186924Y-43619782D01*
X8146859Y-43544825D01*
X8087501Y-43472497D01*
X8069377Y-43457623D01*
X7713567Y-43101814D01*
X8125001Y-43101814D01*
X8125001Y-43176658D01*
X8122702Y-43200000D01*
X8131873Y-43293116D01*
X8157008Y-43375971D01*
X8159035Y-43382654D01*
X8203142Y-43465173D01*
X8262500Y-43537501D01*
X8280629Y-43552379D01*
X8847620Y-44119371D01*
X8862499Y-44137501D01*
X8934827Y-44196859D01*
X9017346Y-44240966D01*
X9023490Y-44242830D01*
X9025000Y-44331250D01*
X9118750Y-44425000D01*
X9825000Y-44425000D01*
X9825000Y-44405000D01*
X9875000Y-44405000D01*
X9875000Y-44425000D01*
X9895000Y-44425000D01*
X9895000Y-44475000D01*
X9875000Y-44475000D01*
X9875000Y-44956250D01*
X9968750Y-45050000D01*
X10300000Y-45051814D01*
X10373513Y-45044574D01*
X10444200Y-45023131D01*
X10509347Y-44988309D01*
X10525000Y-44975463D01*
X10525000Y-45224537D01*
X10509347Y-45211691D01*
X10444200Y-45176869D01*
X10373513Y-45155426D01*
X10300000Y-45148186D01*
X9400000Y-45148186D01*
X9326487Y-45155426D01*
X9255800Y-45176869D01*
X9190653Y-45211691D01*
X9133552Y-45258552D01*
X9086691Y-45315653D01*
X9051869Y-45380800D01*
X9030426Y-45451487D01*
X9023186Y-45525000D01*
X9023186Y-45761832D01*
X8996890Y-45750940D01*
X8866482Y-45725000D01*
X8733518Y-45725000D01*
X8603110Y-45750940D01*
X8480268Y-45801823D01*
X8369713Y-45875693D01*
X8320406Y-45925000D01*
X6796752Y-45925000D01*
X5952384Y-45080634D01*
X5937501Y-45062499D01*
X5865173Y-45003141D01*
X5782654Y-44959034D01*
X5693116Y-44931873D01*
X5623332Y-44925000D01*
X5600000Y-44922702D01*
X5576668Y-44925000D01*
X4662449Y-44925000D01*
X3918082Y-44180634D01*
X3903199Y-44162499D01*
X3830871Y-44103141D01*
X3748352Y-44059034D01*
X3698508Y-44043914D01*
X3630287Y-43975693D01*
X3519732Y-43901823D01*
X3396890Y-43850940D01*
X3266482Y-43825000D01*
X3133518Y-43825000D01*
X3003110Y-43850940D01*
X2880268Y-43901823D01*
X2800405Y-43955186D01*
X2794200Y-43951869D01*
X2723513Y-43930426D01*
X2650000Y-43923186D01*
X2431408Y-43923186D01*
X2524307Y-43830287D01*
X2598177Y-43719732D01*
X2649060Y-43596890D01*
X2675000Y-43466482D01*
X2675000Y-43333518D01*
X2649060Y-43203110D01*
X2598177Y-43080268D01*
X2524307Y-42969713D01*
X2430287Y-42875693D01*
X2319732Y-42801823D01*
X2254976Y-42775000D01*
X3146045Y-42775000D01*
X3130426Y-42826487D01*
G04 #@! TA.AperFunction,Conductor*
D39*
G36*
X3130426Y-42826487D02*
G01*
X3123186Y-42900000D01*
X3123186Y-43300000D01*
X3130426Y-43373513D01*
X3151869Y-43444200D01*
X3186691Y-43509347D01*
X3233552Y-43566448D01*
X3290653Y-43613309D01*
X3355800Y-43648131D01*
X3426487Y-43669574D01*
X3500000Y-43676814D01*
X4600000Y-43676814D01*
X4673513Y-43669574D01*
X4744200Y-43648131D01*
X4809347Y-43613309D01*
X4866448Y-43566448D01*
X4900000Y-43525564D01*
X4933552Y-43566448D01*
X4990653Y-43613309D01*
X5055800Y-43648131D01*
X5126487Y-43669574D01*
X5200000Y-43676814D01*
X6300000Y-43676814D01*
X6373513Y-43669574D01*
X6444200Y-43648131D01*
X6509347Y-43613309D01*
X6566448Y-43566448D01*
X6613309Y-43509347D01*
X6648131Y-43444200D01*
X6663101Y-43394850D01*
X7275001Y-44006751D01*
X7275000Y-44500648D01*
X7226487Y-44505426D01*
X7155800Y-44526869D01*
X7090653Y-44561691D01*
X7033552Y-44608552D01*
X6986691Y-44665653D01*
X6951869Y-44730800D01*
X6930426Y-44801487D01*
X6923186Y-44875000D01*
X6923186Y-45325000D01*
X6930426Y-45398513D01*
X6951869Y-45469200D01*
X6986691Y-45534347D01*
X7033552Y-45591448D01*
X7090653Y-45638309D01*
X7155800Y-45673131D01*
X7226487Y-45694574D01*
X7300000Y-45701814D01*
X8200000Y-45701814D01*
X8273513Y-45694574D01*
X8344200Y-45673131D01*
X8409347Y-45638309D01*
X8466448Y-45591448D01*
X8513309Y-45534347D01*
X8548131Y-45469200D01*
X8569574Y-45398513D01*
X8576814Y-45325000D01*
X8576814Y-44875000D01*
X8569574Y-44801487D01*
X8548131Y-44730800D01*
X8518306Y-44675000D01*
X9023186Y-44675000D01*
X9030426Y-44748513D01*
X9051869Y-44819200D01*
X9086691Y-44884347D01*
X9133552Y-44941448D01*
X9190653Y-44988309D01*
X9255800Y-45023131D01*
X9326487Y-45044574D01*
X9400000Y-45051814D01*
X9731250Y-45050000D01*
X9825000Y-44956250D01*
X9825000Y-44475000D01*
X9118750Y-44475000D01*
X9025000Y-44568750D01*
X9023186Y-44675000D01*
X8518306Y-44675000D01*
X8513309Y-44665653D01*
X8466448Y-44608552D01*
X8409347Y-44561691D01*
X8344200Y-44526869D01*
X8273513Y-44505426D01*
X8225000Y-44500648D01*
X8225000Y-43833330D01*
X8227298Y-43809998D01*
X8218127Y-43716882D01*
X8190966Y-43627344D01*
X8186924Y-43619782D01*
X8146859Y-43544825D01*
X8087501Y-43472497D01*
X8069377Y-43457623D01*
X7713567Y-43101814D01*
X8125001Y-43101814D01*
X8125001Y-43176658D01*
X8122702Y-43200000D01*
X8131873Y-43293116D01*
X8157008Y-43375971D01*
X8159035Y-43382654D01*
X8203142Y-43465173D01*
X8262500Y-43537501D01*
X8280629Y-43552379D01*
X8847620Y-44119371D01*
X8862499Y-44137501D01*
X8934827Y-44196859D01*
X9017346Y-44240966D01*
X9023490Y-44242830D01*
X9025000Y-44331250D01*
X9118750Y-44425000D01*
X9825000Y-44425000D01*
X9825000Y-44405000D01*
X9875000Y-44405000D01*
X9875000Y-44425000D01*
X9895000Y-44425000D01*
X9895000Y-44475000D01*
X9875000Y-44475000D01*
X9875000Y-44956250D01*
X9968750Y-45050000D01*
X10300000Y-45051814D01*
X10373513Y-45044574D01*
X10444200Y-45023131D01*
X10509347Y-44988309D01*
X10525000Y-44975463D01*
X10525000Y-45224537D01*
X10509347Y-45211691D01*
X10444200Y-45176869D01*
X10373513Y-45155426D01*
X10300000Y-45148186D01*
X9400000Y-45148186D01*
X9326487Y-45155426D01*
X9255800Y-45176869D01*
X9190653Y-45211691D01*
X9133552Y-45258552D01*
X9086691Y-45315653D01*
X9051869Y-45380800D01*
X9030426Y-45451487D01*
X9023186Y-45525000D01*
X9023186Y-45761832D01*
X8996890Y-45750940D01*
X8866482Y-45725000D01*
X8733518Y-45725000D01*
X8603110Y-45750940D01*
X8480268Y-45801823D01*
X8369713Y-45875693D01*
X8320406Y-45925000D01*
X6796752Y-45925000D01*
X5952384Y-45080634D01*
X5937501Y-45062499D01*
X5865173Y-45003141D01*
X5782654Y-44959034D01*
X5693116Y-44931873D01*
X5623332Y-44925000D01*
X5600000Y-44922702D01*
X5576668Y-44925000D01*
X4662449Y-44925000D01*
X3918082Y-44180634D01*
X3903199Y-44162499D01*
X3830871Y-44103141D01*
X3748352Y-44059034D01*
X3698508Y-44043914D01*
X3630287Y-43975693D01*
X3519732Y-43901823D01*
X3396890Y-43850940D01*
X3266482Y-43825000D01*
X3133518Y-43825000D01*
X3003110Y-43850940D01*
X2880268Y-43901823D01*
X2800405Y-43955186D01*
X2794200Y-43951869D01*
X2723513Y-43930426D01*
X2650000Y-43923186D01*
X2431408Y-43923186D01*
X2524307Y-43830287D01*
X2598177Y-43719732D01*
X2649060Y-43596890D01*
X2675000Y-43466482D01*
X2675000Y-43333518D01*
X2649060Y-43203110D01*
X2598177Y-43080268D01*
X2524307Y-42969713D01*
X2430287Y-42875693D01*
X2319732Y-42801823D01*
X2254976Y-42775000D01*
X3146045Y-42775000D01*
X3130426Y-42826487D01*
G37*
G04 #@! TD.AperFunction*
D38*
X9875000Y-42525000D02*
X9895000Y-42525000D01*
X9895000Y-42575000D01*
X9875000Y-42575000D01*
X9875000Y-43006250D01*
X9968750Y-43100000D01*
X10300000Y-43101814D01*
X10325001Y-43099352D01*
X10325001Y-43325000D01*
X9396751Y-43325000D01*
X9075000Y-43003250D01*
X9075000Y-42912475D01*
X9086691Y-42934347D01*
X9133552Y-42991448D01*
X9190653Y-43038309D01*
X9255800Y-43073131D01*
X9326487Y-43094574D01*
X9400000Y-43101814D01*
X9731250Y-43100000D01*
X9825000Y-43006250D01*
X9825000Y-42575000D01*
X9805000Y-42575000D01*
X9805000Y-42525000D01*
X9825000Y-42525000D01*
X9825000Y-42505000D01*
X9875000Y-42505000D01*
X9875000Y-42525000D01*
G04 #@! TA.AperFunction,Conductor*
D39*
G36*
X9875000Y-42525000D02*
G01*
X9895000Y-42525000D01*
X9895000Y-42575000D01*
X9875000Y-42575000D01*
X9875000Y-43006250D01*
X9968750Y-43100000D01*
X10300000Y-43101814D01*
X10325001Y-43099352D01*
X10325001Y-43325000D01*
X9396751Y-43325000D01*
X9075000Y-43003250D01*
X9075000Y-42912475D01*
X9086691Y-42934347D01*
X9133552Y-42991448D01*
X9190653Y-43038309D01*
X9255800Y-43073131D01*
X9326487Y-43094574D01*
X9400000Y-43101814D01*
X9731250Y-43100000D01*
X9825000Y-43006250D01*
X9825000Y-42575000D01*
X9805000Y-42575000D01*
X9805000Y-42525000D01*
X9825000Y-42525000D01*
X9825000Y-42505000D01*
X9875000Y-42505000D01*
X9875000Y-42525000D01*
G37*
G04 #@! TD.AperFunction*
D38*
X9118748Y-42524998D02*
X9075000Y-42524998D01*
X9075000Y-42481250D01*
X9118748Y-42524998D01*
G04 #@! TA.AperFunction,Conductor*
D39*
G36*
X9118748Y-42524998D02*
G01*
X9075000Y-42524998D01*
X9075000Y-42481250D01*
X9118748Y-42524998D01*
G37*
G04 #@! TD.AperFunction*
D38*
X7018750Y-41225000D02*
X7725000Y-41225000D01*
X7725000Y-41205000D01*
X7775000Y-41205000D01*
X7775000Y-41225000D01*
X8481250Y-41225000D01*
X8531250Y-41175000D01*
X8803250Y-41175000D01*
X9023186Y-41394937D01*
X9023186Y-41425000D01*
X9030426Y-41498513D01*
X9051869Y-41569200D01*
X9054969Y-41575000D01*
X9051869Y-41580800D01*
X9030426Y-41651487D01*
X9023186Y-41725000D01*
X9023186Y-42019080D01*
X8996859Y-41969825D01*
X8937501Y-41897497D01*
X8919376Y-41882622D01*
X8617385Y-41580633D01*
X8602503Y-41562499D01*
X8560597Y-41528107D01*
X8569574Y-41498513D01*
X8576814Y-41425000D01*
X8575000Y-41368750D01*
X8481250Y-41275000D01*
X7775000Y-41275000D01*
X7775000Y-41295000D01*
X7725000Y-41295000D01*
X7725000Y-41275000D01*
X7018750Y-41275000D01*
X6982750Y-41311000D01*
X6852384Y-41180634D01*
X6847760Y-41175000D01*
X6968750Y-41175000D01*
X7018750Y-41225000D01*
G04 #@! TA.AperFunction,Conductor*
D39*
G36*
X7018750Y-41225000D02*
G01*
X7725000Y-41225000D01*
X7725000Y-41205000D01*
X7775000Y-41205000D01*
X7775000Y-41225000D01*
X8481250Y-41225000D01*
X8531250Y-41175000D01*
X8803250Y-41175000D01*
X9023186Y-41394937D01*
X9023186Y-41425000D01*
X9030426Y-41498513D01*
X9051869Y-41569200D01*
X9054969Y-41575000D01*
X9051869Y-41580800D01*
X9030426Y-41651487D01*
X9023186Y-41725000D01*
X9023186Y-42019080D01*
X8996859Y-41969825D01*
X8937501Y-41897497D01*
X8919376Y-41882622D01*
X8617385Y-41580633D01*
X8602503Y-41562499D01*
X8560597Y-41528107D01*
X8569574Y-41498513D01*
X8576814Y-41425000D01*
X8575000Y-41368750D01*
X8481250Y-41275000D01*
X7775000Y-41275000D01*
X7775000Y-41295000D01*
X7725000Y-41295000D01*
X7725000Y-41275000D01*
X7018750Y-41275000D01*
X6982750Y-41311000D01*
X6852384Y-41180634D01*
X6847760Y-41175000D01*
X6968750Y-41175000D01*
X7018750Y-41225000D01*
G37*
G04 #@! TD.AperFunction*
D38*
X21169713Y-34924307D02*
X21280268Y-34998177D01*
X21403110Y-35049060D01*
X21533518Y-35075000D01*
X21666482Y-35075000D01*
X21725001Y-35063360D01*
X21725000Y-37941251D01*
X20341232Y-39325020D01*
X18946731Y-39325020D01*
X18969371Y-39302380D01*
X18987501Y-39287501D01*
X19046859Y-39215173D01*
X19090966Y-39132654D01*
X19112244Y-39062509D01*
X19118127Y-39043117D01*
X19122412Y-38999607D01*
X19173513Y-38994574D01*
X19244200Y-38973131D01*
X19309347Y-38938309D01*
X19366448Y-38891448D01*
X19413309Y-38834347D01*
X19448131Y-38769200D01*
X19469574Y-38698513D01*
X19476814Y-38625000D01*
X19476814Y-38275000D01*
X19920406Y-38275000D01*
X19969713Y-38324307D01*
X20080268Y-38398177D01*
X20203110Y-38449060D01*
X20333518Y-38475000D01*
X20466482Y-38475000D01*
X20596890Y-38449060D01*
X20719732Y-38398177D01*
X20830287Y-38324307D01*
X20924307Y-38230287D01*
X20998177Y-38119732D01*
X21049060Y-37996890D01*
X21075000Y-37866482D01*
X21075000Y-37733518D01*
X21049060Y-37603110D01*
X20998177Y-37480268D01*
X20924307Y-37369713D01*
X20830287Y-37275693D01*
X20719732Y-37201823D01*
X20596890Y-37150940D01*
X20466482Y-37125000D01*
X20333518Y-37125000D01*
X20203110Y-37150940D01*
X20080268Y-37201823D01*
X19969713Y-37275693D01*
X19920406Y-37325000D01*
X19476814Y-37325000D01*
X19476814Y-36975000D01*
X19469574Y-36901487D01*
X19448131Y-36830800D01*
X19413309Y-36765653D01*
X19366448Y-36708552D01*
X19309347Y-36661691D01*
X19244200Y-36626869D01*
X19173513Y-36605426D01*
X19100000Y-36598186D01*
X18200000Y-36598186D01*
X18126487Y-36605426D01*
X18075000Y-36621045D01*
X18075000Y-35776814D01*
X19000000Y-35776814D01*
X19073513Y-35769574D01*
X19144200Y-35748131D01*
X19209347Y-35713309D01*
X19266448Y-35666448D01*
X19313309Y-35609347D01*
X19348131Y-35544200D01*
X19369574Y-35473513D01*
X19376814Y-35400000D01*
X19376814Y-35000000D01*
X19369574Y-34926487D01*
X19353955Y-34875000D01*
X21120406Y-34875000D01*
X21169713Y-34924307D01*
G04 #@! TA.AperFunction,Conductor*
D39*
G36*
X21169713Y-34924307D02*
G01*
X21280268Y-34998177D01*
X21403110Y-35049060D01*
X21533518Y-35075000D01*
X21666482Y-35075000D01*
X21725001Y-35063360D01*
X21725000Y-37941251D01*
X20341232Y-39325020D01*
X18946731Y-39325020D01*
X18969371Y-39302380D01*
X18987501Y-39287501D01*
X19046859Y-39215173D01*
X19090966Y-39132654D01*
X19112244Y-39062509D01*
X19118127Y-39043117D01*
X19122412Y-38999607D01*
X19173513Y-38994574D01*
X19244200Y-38973131D01*
X19309347Y-38938309D01*
X19366448Y-38891448D01*
X19413309Y-38834347D01*
X19448131Y-38769200D01*
X19469574Y-38698513D01*
X19476814Y-38625000D01*
X19476814Y-38275000D01*
X19920406Y-38275000D01*
X19969713Y-38324307D01*
X20080268Y-38398177D01*
X20203110Y-38449060D01*
X20333518Y-38475000D01*
X20466482Y-38475000D01*
X20596890Y-38449060D01*
X20719732Y-38398177D01*
X20830287Y-38324307D01*
X20924307Y-38230287D01*
X20998177Y-38119732D01*
X21049060Y-37996890D01*
X21075000Y-37866482D01*
X21075000Y-37733518D01*
X21049060Y-37603110D01*
X20998177Y-37480268D01*
X20924307Y-37369713D01*
X20830287Y-37275693D01*
X20719732Y-37201823D01*
X20596890Y-37150940D01*
X20466482Y-37125000D01*
X20333518Y-37125000D01*
X20203110Y-37150940D01*
X20080268Y-37201823D01*
X19969713Y-37275693D01*
X19920406Y-37325000D01*
X19476814Y-37325000D01*
X19476814Y-36975000D01*
X19469574Y-36901487D01*
X19448131Y-36830800D01*
X19413309Y-36765653D01*
X19366448Y-36708552D01*
X19309347Y-36661691D01*
X19244200Y-36626869D01*
X19173513Y-36605426D01*
X19100000Y-36598186D01*
X18200000Y-36598186D01*
X18126487Y-36605426D01*
X18075000Y-36621045D01*
X18075000Y-35776814D01*
X19000000Y-35776814D01*
X19073513Y-35769574D01*
X19144200Y-35748131D01*
X19209347Y-35713309D01*
X19266448Y-35666448D01*
X19313309Y-35609347D01*
X19348131Y-35544200D01*
X19369574Y-35473513D01*
X19376814Y-35400000D01*
X19376814Y-35000000D01*
X19369574Y-34926487D01*
X19353955Y-34875000D01*
X21120406Y-34875000D01*
X21169713Y-34924307D01*
G37*
G04 #@! TD.AperFunction*
D38*
X15025000Y-34296751D02*
X15025000Y-34376668D01*
X15022702Y-34400000D01*
X15025001Y-34423342D01*
X15025000Y-36726667D01*
X15022702Y-36750000D01*
X15031873Y-36843116D01*
X15038961Y-36866482D01*
X15059034Y-36932653D01*
X15103141Y-37015173D01*
X15162499Y-37087501D01*
X15180634Y-37102384D01*
X15547620Y-37469371D01*
X15562499Y-37487501D01*
X15634827Y-37546859D01*
X15717346Y-37590966D01*
X15726271Y-37593673D01*
X15723186Y-37625000D01*
X15725000Y-37681250D01*
X15818750Y-37775000D01*
X16525000Y-37775000D01*
X16525000Y-37755000D01*
X16575000Y-37755000D01*
X16575000Y-37775000D01*
X16595000Y-37775000D01*
X16595000Y-37825000D01*
X16575000Y-37825000D01*
X16575000Y-37845000D01*
X16525000Y-37845000D01*
X16525000Y-37825000D01*
X15818750Y-37825000D01*
X15725000Y-37918750D01*
X15723186Y-37975000D01*
X15730426Y-38048513D01*
X15751869Y-38119200D01*
X15754969Y-38125000D01*
X15751869Y-38130800D01*
X15730426Y-38201487D01*
X15723186Y-38275000D01*
X15723186Y-38451435D01*
X14376814Y-37105064D01*
X14376814Y-36675000D01*
X14369574Y-36601487D01*
X14348131Y-36530800D01*
X14313309Y-36465653D01*
X14300463Y-36450000D01*
X14313309Y-36434347D01*
X14348131Y-36369200D01*
X14369574Y-36298513D01*
X14376814Y-36225000D01*
X14375000Y-36018750D01*
X14281250Y-35925000D01*
X13025000Y-35925000D01*
X13025000Y-35945000D01*
X12975000Y-35945000D01*
X12975000Y-35925000D01*
X12955000Y-35925000D01*
X12955000Y-35875000D01*
X12975000Y-35875000D01*
X12975000Y-35855000D01*
X13025000Y-35855000D01*
X13025000Y-35875000D01*
X14281250Y-35875000D01*
X14375000Y-35781250D01*
X14376814Y-35575000D01*
X14369574Y-35501487D01*
X14348131Y-35430800D01*
X14313309Y-35365653D01*
X14300463Y-35350000D01*
X14313309Y-35334347D01*
X14348131Y-35269200D01*
X14369574Y-35198513D01*
X14376814Y-35125000D01*
X14376814Y-34475000D01*
X14369574Y-34401487D01*
X14348131Y-34330800D01*
X14313309Y-34265653D01*
X14300463Y-34250000D01*
X14313309Y-34234347D01*
X14345031Y-34175000D01*
X14903250Y-34175000D01*
X15025000Y-34296751D01*
G04 #@! TA.AperFunction,Conductor*
D39*
G36*
X15025000Y-34296751D02*
G01*
X15025000Y-34376668D01*
X15022702Y-34400000D01*
X15025001Y-34423342D01*
X15025000Y-36726667D01*
X15022702Y-36750000D01*
X15031873Y-36843116D01*
X15038961Y-36866482D01*
X15059034Y-36932653D01*
X15103141Y-37015173D01*
X15162499Y-37087501D01*
X15180634Y-37102384D01*
X15547620Y-37469371D01*
X15562499Y-37487501D01*
X15634827Y-37546859D01*
X15717346Y-37590966D01*
X15726271Y-37593673D01*
X15723186Y-37625000D01*
X15725000Y-37681250D01*
X15818750Y-37775000D01*
X16525000Y-37775000D01*
X16525000Y-37755000D01*
X16575000Y-37755000D01*
X16575000Y-37775000D01*
X16595000Y-37775000D01*
X16595000Y-37825000D01*
X16575000Y-37825000D01*
X16575000Y-37845000D01*
X16525000Y-37845000D01*
X16525000Y-37825000D01*
X15818750Y-37825000D01*
X15725000Y-37918750D01*
X15723186Y-37975000D01*
X15730426Y-38048513D01*
X15751869Y-38119200D01*
X15754969Y-38125000D01*
X15751869Y-38130800D01*
X15730426Y-38201487D01*
X15723186Y-38275000D01*
X15723186Y-38451435D01*
X14376814Y-37105064D01*
X14376814Y-36675000D01*
X14369574Y-36601487D01*
X14348131Y-36530800D01*
X14313309Y-36465653D01*
X14300463Y-36450000D01*
X14313309Y-36434347D01*
X14348131Y-36369200D01*
X14369574Y-36298513D01*
X14376814Y-36225000D01*
X14375000Y-36018750D01*
X14281250Y-35925000D01*
X13025000Y-35925000D01*
X13025000Y-35945000D01*
X12975000Y-35945000D01*
X12975000Y-35925000D01*
X12955000Y-35925000D01*
X12955000Y-35875000D01*
X12975000Y-35875000D01*
X12975000Y-35855000D01*
X13025000Y-35855000D01*
X13025000Y-35875000D01*
X14281250Y-35875000D01*
X14375000Y-35781250D01*
X14376814Y-35575000D01*
X14369574Y-35501487D01*
X14348131Y-35430800D01*
X14313309Y-35365653D01*
X14300463Y-35350000D01*
X14313309Y-35334347D01*
X14348131Y-35269200D01*
X14369574Y-35198513D01*
X14376814Y-35125000D01*
X14376814Y-34475000D01*
X14369574Y-34401487D01*
X14348131Y-34330800D01*
X14313309Y-34265653D01*
X14300463Y-34250000D01*
X14313309Y-34234347D01*
X14345031Y-34175000D01*
X14903250Y-34175000D01*
X15025000Y-34296751D01*
G37*
G04 #@! TD.AperFunction*
D38*
X19725001Y-29776658D02*
X19722702Y-29800000D01*
X19731873Y-29893116D01*
X19751870Y-29959034D01*
X19759035Y-29982654D01*
X19803142Y-30065173D01*
X19862500Y-30137501D01*
X19880629Y-30152379D01*
X20066567Y-30338317D01*
X20003110Y-30350940D01*
X19880268Y-30401823D01*
X19769713Y-30475693D01*
X19720406Y-30525000D01*
X19076814Y-30525000D01*
X19076814Y-30500000D01*
X19069574Y-30426487D01*
X19048131Y-30355800D01*
X19013309Y-30290653D01*
X18966448Y-30233552D01*
X18909347Y-30186691D01*
X18844200Y-30151869D01*
X18773513Y-30130426D01*
X18700000Y-30123186D01*
X18000000Y-30123186D01*
X17926487Y-30130426D01*
X17855800Y-30151869D01*
X17790653Y-30186691D01*
X17733552Y-30233552D01*
X17686691Y-30290653D01*
X17651869Y-30355800D01*
X17630426Y-30426487D01*
X17623186Y-30500000D01*
X17623186Y-31500000D01*
X17625648Y-31525000D01*
X17574352Y-31525000D01*
X17576814Y-31500000D01*
X17575000Y-31118750D01*
X17481250Y-31025000D01*
X16875000Y-31025000D01*
X16875000Y-31045000D01*
X16825000Y-31045000D01*
X16825000Y-31025000D01*
X16218750Y-31025000D01*
X16125000Y-31118750D01*
X16123186Y-31500000D01*
X16125648Y-31525000D01*
X15996751Y-31525000D01*
X15875000Y-31403250D01*
X15875000Y-30500000D01*
X16123186Y-30500000D01*
X16125000Y-30881250D01*
X16218750Y-30975000D01*
X16825000Y-30975000D01*
X16825000Y-30218750D01*
X16875000Y-30218750D01*
X16875000Y-30975000D01*
X17481250Y-30975000D01*
X17575000Y-30881250D01*
X17576814Y-30500000D01*
X17569574Y-30426487D01*
X17548131Y-30355800D01*
X17513309Y-30290653D01*
X17466448Y-30233552D01*
X17409347Y-30186691D01*
X17344200Y-30151869D01*
X17273513Y-30130426D01*
X17200000Y-30123186D01*
X16968750Y-30125000D01*
X16875000Y-30218750D01*
X16825000Y-30218750D01*
X16731250Y-30125000D01*
X16500000Y-30123186D01*
X16426487Y-30130426D01*
X16355800Y-30151869D01*
X16290653Y-30186691D01*
X16233552Y-30233552D01*
X16186691Y-30290653D01*
X16151869Y-30355800D01*
X16130426Y-30426487D01*
X16123186Y-30500000D01*
X15875000Y-30500000D01*
X15875000Y-27096751D01*
X16123186Y-27344937D01*
X16123186Y-27900000D01*
X16130426Y-27973513D01*
X16151869Y-28044200D01*
X16186691Y-28109347D01*
X16233552Y-28166448D01*
X16290653Y-28213309D01*
X16355800Y-28248131D01*
X16375001Y-28253956D01*
X16375000Y-28346045D01*
X16355800Y-28351869D01*
X16290653Y-28386691D01*
X16233552Y-28433552D01*
X16186691Y-28490653D01*
X16151869Y-28555800D01*
X16130426Y-28626487D01*
X16123186Y-28700000D01*
X16123186Y-29700000D01*
X16130426Y-29773513D01*
X16151869Y-29844200D01*
X16186691Y-29909347D01*
X16233552Y-29966448D01*
X16290653Y-30013309D01*
X16355800Y-30048131D01*
X16426487Y-30069574D01*
X16500000Y-30076814D01*
X17200000Y-30076814D01*
X17273513Y-30069574D01*
X17344200Y-30048131D01*
X17409347Y-30013309D01*
X17466448Y-29966448D01*
X17513309Y-29909347D01*
X17548131Y-29844200D01*
X17569574Y-29773513D01*
X17576814Y-29700000D01*
X17576814Y-28848564D01*
X17623186Y-28894936D01*
X17623186Y-29700000D01*
X17630426Y-29773513D01*
X17651869Y-29844200D01*
X17686691Y-29909347D01*
X17733552Y-29966448D01*
X17790653Y-30013309D01*
X17855800Y-30048131D01*
X17926487Y-30069574D01*
X18000000Y-30076814D01*
X18700000Y-30076814D01*
X18773513Y-30069574D01*
X18844200Y-30048131D01*
X18909347Y-30013309D01*
X18966448Y-29966448D01*
X19013309Y-29909347D01*
X19048131Y-29844200D01*
X19069574Y-29773513D01*
X19076814Y-29700000D01*
X19076814Y-28700000D01*
X19069574Y-28626487D01*
X19048131Y-28555800D01*
X19013309Y-28490653D01*
X18966448Y-28433552D01*
X18909347Y-28386691D01*
X18844200Y-28351869D01*
X18773513Y-28330426D01*
X18700000Y-28323186D01*
X18394937Y-28323186D01*
X18289000Y-28217250D01*
X18325000Y-28181250D01*
X18325000Y-27425000D01*
X18375000Y-27425000D01*
X18375000Y-28181250D01*
X18468750Y-28275000D01*
X18700000Y-28276814D01*
X18773513Y-28269574D01*
X18844200Y-28248131D01*
X18909347Y-28213309D01*
X18966448Y-28166448D01*
X19013309Y-28109347D01*
X19048131Y-28044200D01*
X19069574Y-27973513D01*
X19076814Y-27900000D01*
X19075000Y-27518750D01*
X18981250Y-27425000D01*
X18375000Y-27425000D01*
X18325000Y-27425000D01*
X18305000Y-27425000D01*
X18305000Y-27375000D01*
X18325000Y-27375000D01*
X18325000Y-26618750D01*
X18375000Y-26618750D01*
X18375000Y-27375000D01*
X18981250Y-27375000D01*
X19075000Y-27281250D01*
X19076814Y-26900000D01*
X19069574Y-26826487D01*
X19048131Y-26755800D01*
X19013309Y-26690653D01*
X18966448Y-26633552D01*
X18909347Y-26586691D01*
X18844200Y-26551869D01*
X18773513Y-26530426D01*
X18700000Y-26523186D01*
X18468750Y-26525000D01*
X18375000Y-26618750D01*
X18325000Y-26618750D01*
X18231250Y-26525000D01*
X18075000Y-26523774D01*
X18075000Y-26476226D01*
X18231250Y-26475000D01*
X18325000Y-26381250D01*
X18325000Y-25625000D01*
X18375000Y-25625000D01*
X18375000Y-26381250D01*
X18468750Y-26475000D01*
X18700000Y-26476814D01*
X18773513Y-26469574D01*
X18844200Y-26448131D01*
X18909347Y-26413309D01*
X18966448Y-26366448D01*
X19013309Y-26309347D01*
X19048131Y-26244200D01*
X19069574Y-26173513D01*
X19076814Y-26100000D01*
X19075000Y-25718750D01*
X18981250Y-25625000D01*
X18375000Y-25625000D01*
X18325000Y-25625000D01*
X18305000Y-25625000D01*
X18305000Y-25575000D01*
X18325000Y-25575000D01*
X18325000Y-24818750D01*
X18375000Y-24818750D01*
X18375000Y-25575000D01*
X18981250Y-25575000D01*
X19075000Y-25481250D01*
X19076814Y-25100000D01*
X19069574Y-25026487D01*
X19048131Y-24955800D01*
X19013309Y-24890653D01*
X18966448Y-24833552D01*
X18909347Y-24786691D01*
X18844200Y-24751869D01*
X18773513Y-24730426D01*
X18700000Y-24723186D01*
X18468750Y-24725000D01*
X18375000Y-24818750D01*
X18325000Y-24818750D01*
X18231250Y-24725000D01*
X18075000Y-24723774D01*
X18075000Y-24676814D01*
X18700000Y-24676814D01*
X18773513Y-24669574D01*
X18844200Y-24648131D01*
X18909347Y-24613309D01*
X18966448Y-24566448D01*
X19013309Y-24509347D01*
X19048131Y-24444200D01*
X19069574Y-24373513D01*
X19076814Y-24300000D01*
X19076814Y-23300000D01*
X19069574Y-23226487D01*
X19048131Y-23155800D01*
X19013309Y-23090653D01*
X18966448Y-23033552D01*
X18925000Y-22999537D01*
X18925000Y-22479594D01*
X18974307Y-22430287D01*
X19048177Y-22319732D01*
X19099060Y-22196890D01*
X19125000Y-22066482D01*
X19125000Y-21933518D01*
X19099060Y-21803110D01*
X19048177Y-21680268D01*
X19038079Y-21665155D01*
X19094200Y-21648131D01*
X19159347Y-21613309D01*
X19216448Y-21566448D01*
X19263309Y-21509347D01*
X19298131Y-21444200D01*
X19319574Y-21373513D01*
X19326814Y-21300000D01*
X19326814Y-20926814D01*
X19700000Y-20926814D01*
X19725000Y-20924352D01*
X19725001Y-29776658D01*
G04 #@! TA.AperFunction,Conductor*
D39*
G36*
X19725001Y-29776658D02*
G01*
X19722702Y-29800000D01*
X19731873Y-29893116D01*
X19751870Y-29959034D01*
X19759035Y-29982654D01*
X19803142Y-30065173D01*
X19862500Y-30137501D01*
X19880629Y-30152379D01*
X20066567Y-30338317D01*
X20003110Y-30350940D01*
X19880268Y-30401823D01*
X19769713Y-30475693D01*
X19720406Y-30525000D01*
X19076814Y-30525000D01*
X19076814Y-30500000D01*
X19069574Y-30426487D01*
X19048131Y-30355800D01*
X19013309Y-30290653D01*
X18966448Y-30233552D01*
X18909347Y-30186691D01*
X18844200Y-30151869D01*
X18773513Y-30130426D01*
X18700000Y-30123186D01*
X18000000Y-30123186D01*
X17926487Y-30130426D01*
X17855800Y-30151869D01*
X17790653Y-30186691D01*
X17733552Y-30233552D01*
X17686691Y-30290653D01*
X17651869Y-30355800D01*
X17630426Y-30426487D01*
X17623186Y-30500000D01*
X17623186Y-31500000D01*
X17625648Y-31525000D01*
X17574352Y-31525000D01*
X17576814Y-31500000D01*
X17575000Y-31118750D01*
X17481250Y-31025000D01*
X16875000Y-31025000D01*
X16875000Y-31045000D01*
X16825000Y-31045000D01*
X16825000Y-31025000D01*
X16218750Y-31025000D01*
X16125000Y-31118750D01*
X16123186Y-31500000D01*
X16125648Y-31525000D01*
X15996751Y-31525000D01*
X15875000Y-31403250D01*
X15875000Y-30500000D01*
X16123186Y-30500000D01*
X16125000Y-30881250D01*
X16218750Y-30975000D01*
X16825000Y-30975000D01*
X16825000Y-30218750D01*
X16875000Y-30218750D01*
X16875000Y-30975000D01*
X17481250Y-30975000D01*
X17575000Y-30881250D01*
X17576814Y-30500000D01*
X17569574Y-30426487D01*
X17548131Y-30355800D01*
X17513309Y-30290653D01*
X17466448Y-30233552D01*
X17409347Y-30186691D01*
X17344200Y-30151869D01*
X17273513Y-30130426D01*
X17200000Y-30123186D01*
X16968750Y-30125000D01*
X16875000Y-30218750D01*
X16825000Y-30218750D01*
X16731250Y-30125000D01*
X16500000Y-30123186D01*
X16426487Y-30130426D01*
X16355800Y-30151869D01*
X16290653Y-30186691D01*
X16233552Y-30233552D01*
X16186691Y-30290653D01*
X16151869Y-30355800D01*
X16130426Y-30426487D01*
X16123186Y-30500000D01*
X15875000Y-30500000D01*
X15875000Y-27096751D01*
X16123186Y-27344937D01*
X16123186Y-27900000D01*
X16130426Y-27973513D01*
X16151869Y-28044200D01*
X16186691Y-28109347D01*
X16233552Y-28166448D01*
X16290653Y-28213309D01*
X16355800Y-28248131D01*
X16375001Y-28253956D01*
X16375000Y-28346045D01*
X16355800Y-28351869D01*
X16290653Y-28386691D01*
X16233552Y-28433552D01*
X16186691Y-28490653D01*
X16151869Y-28555800D01*
X16130426Y-28626487D01*
X16123186Y-28700000D01*
X16123186Y-29700000D01*
X16130426Y-29773513D01*
X16151869Y-29844200D01*
X16186691Y-29909347D01*
X16233552Y-29966448D01*
X16290653Y-30013309D01*
X16355800Y-30048131D01*
X16426487Y-30069574D01*
X16500000Y-30076814D01*
X17200000Y-30076814D01*
X17273513Y-30069574D01*
X17344200Y-30048131D01*
X17409347Y-30013309D01*
X17466448Y-29966448D01*
X17513309Y-29909347D01*
X17548131Y-29844200D01*
X17569574Y-29773513D01*
X17576814Y-29700000D01*
X17576814Y-28848564D01*
X17623186Y-28894936D01*
X17623186Y-29700000D01*
X17630426Y-29773513D01*
X17651869Y-29844200D01*
X17686691Y-29909347D01*
X17733552Y-29966448D01*
X17790653Y-30013309D01*
X17855800Y-30048131D01*
X17926487Y-30069574D01*
X18000000Y-30076814D01*
X18700000Y-30076814D01*
X18773513Y-30069574D01*
X18844200Y-30048131D01*
X18909347Y-30013309D01*
X18966448Y-29966448D01*
X19013309Y-29909347D01*
X19048131Y-29844200D01*
X19069574Y-29773513D01*
X19076814Y-29700000D01*
X19076814Y-28700000D01*
X19069574Y-28626487D01*
X19048131Y-28555800D01*
X19013309Y-28490653D01*
X18966448Y-28433552D01*
X18909347Y-28386691D01*
X18844200Y-28351869D01*
X18773513Y-28330426D01*
X18700000Y-28323186D01*
X18394937Y-28323186D01*
X18289000Y-28217250D01*
X18325000Y-28181250D01*
X18325000Y-27425000D01*
X18375000Y-27425000D01*
X18375000Y-28181250D01*
X18468750Y-28275000D01*
X18700000Y-28276814D01*
X18773513Y-28269574D01*
X18844200Y-28248131D01*
X18909347Y-28213309D01*
X18966448Y-28166448D01*
X19013309Y-28109347D01*
X19048131Y-28044200D01*
X19069574Y-27973513D01*
X19076814Y-27900000D01*
X19075000Y-27518750D01*
X18981250Y-27425000D01*
X18375000Y-27425000D01*
X18325000Y-27425000D01*
X18305000Y-27425000D01*
X18305000Y-27375000D01*
X18325000Y-27375000D01*
X18325000Y-26618750D01*
X18375000Y-26618750D01*
X18375000Y-27375000D01*
X18981250Y-27375000D01*
X19075000Y-27281250D01*
X19076814Y-26900000D01*
X19069574Y-26826487D01*
X19048131Y-26755800D01*
X19013309Y-26690653D01*
X18966448Y-26633552D01*
X18909347Y-26586691D01*
X18844200Y-26551869D01*
X18773513Y-26530426D01*
X18700000Y-26523186D01*
X18468750Y-26525000D01*
X18375000Y-26618750D01*
X18325000Y-26618750D01*
X18231250Y-26525000D01*
X18075000Y-26523774D01*
X18075000Y-26476226D01*
X18231250Y-26475000D01*
X18325000Y-26381250D01*
X18325000Y-25625000D01*
X18375000Y-25625000D01*
X18375000Y-26381250D01*
X18468750Y-26475000D01*
X18700000Y-26476814D01*
X18773513Y-26469574D01*
X18844200Y-26448131D01*
X18909347Y-26413309D01*
X18966448Y-26366448D01*
X19013309Y-26309347D01*
X19048131Y-26244200D01*
X19069574Y-26173513D01*
X19076814Y-26100000D01*
X19075000Y-25718750D01*
X18981250Y-25625000D01*
X18375000Y-25625000D01*
X18325000Y-25625000D01*
X18305000Y-25625000D01*
X18305000Y-25575000D01*
X18325000Y-25575000D01*
X18325000Y-24818750D01*
X18375000Y-24818750D01*
X18375000Y-25575000D01*
X18981250Y-25575000D01*
X19075000Y-25481250D01*
X19076814Y-25100000D01*
X19069574Y-25026487D01*
X19048131Y-24955800D01*
X19013309Y-24890653D01*
X18966448Y-24833552D01*
X18909347Y-24786691D01*
X18844200Y-24751869D01*
X18773513Y-24730426D01*
X18700000Y-24723186D01*
X18468750Y-24725000D01*
X18375000Y-24818750D01*
X18325000Y-24818750D01*
X18231250Y-24725000D01*
X18075000Y-24723774D01*
X18075000Y-24676814D01*
X18700000Y-24676814D01*
X18773513Y-24669574D01*
X18844200Y-24648131D01*
X18909347Y-24613309D01*
X18966448Y-24566448D01*
X19013309Y-24509347D01*
X19048131Y-24444200D01*
X19069574Y-24373513D01*
X19076814Y-24300000D01*
X19076814Y-23300000D01*
X19069574Y-23226487D01*
X19048131Y-23155800D01*
X19013309Y-23090653D01*
X18966448Y-23033552D01*
X18925000Y-22999537D01*
X18925000Y-22479594D01*
X18974307Y-22430287D01*
X19048177Y-22319732D01*
X19099060Y-22196890D01*
X19125000Y-22066482D01*
X19125000Y-21933518D01*
X19099060Y-21803110D01*
X19048177Y-21680268D01*
X19038079Y-21665155D01*
X19094200Y-21648131D01*
X19159347Y-21613309D01*
X19216448Y-21566448D01*
X19263309Y-21509347D01*
X19298131Y-21444200D01*
X19319574Y-21373513D01*
X19326814Y-21300000D01*
X19326814Y-20926814D01*
X19700000Y-20926814D01*
X19725000Y-20924352D01*
X19725001Y-29776658D01*
G37*
G04 #@! TD.AperFunction*
D38*
X14397621Y-20269372D02*
X14412499Y-20287501D01*
X14484827Y-20346859D01*
X14567346Y-20390966D01*
X14656884Y-20418127D01*
X14726668Y-20425000D01*
X14726669Y-20425000D01*
X14749999Y-20427298D01*
X14773329Y-20425000D01*
X15123186Y-20425000D01*
X15123186Y-20550000D01*
X15130426Y-20623513D01*
X15151869Y-20694200D01*
X15186691Y-20759347D01*
X15233552Y-20816448D01*
X15290653Y-20863309D01*
X15355800Y-20898131D01*
X15426487Y-20919574D01*
X15500000Y-20926814D01*
X15525001Y-20926814D01*
X15525001Y-21336640D01*
X15466482Y-21325000D01*
X15333518Y-21325000D01*
X15203110Y-21350940D01*
X15080268Y-21401823D01*
X14969713Y-21475693D01*
X14920406Y-21525000D01*
X13023332Y-21525000D01*
X13000000Y-21522702D01*
X12976668Y-21525000D01*
X12906884Y-21531873D01*
X12817346Y-21559034D01*
X12734827Y-21603141D01*
X12662499Y-21662499D01*
X12647620Y-21680629D01*
X12603249Y-21725000D01*
X10536753Y-21725000D01*
X9616066Y-20804314D01*
X10606500Y-20804314D01*
X10680013Y-20797074D01*
X10750700Y-20775631D01*
X10815847Y-20740809D01*
X10872948Y-20693948D01*
X10919809Y-20636847D01*
X10934064Y-20610177D01*
X10989154Y-20593466D01*
X11071673Y-20549359D01*
X11144001Y-20490001D01*
X11158884Y-20471866D01*
X12319377Y-19311375D01*
X12337501Y-19296501D01*
X12396859Y-19224173D01*
X12437300Y-19148513D01*
X12440966Y-19141655D01*
X12468127Y-19052116D01*
X12477298Y-18959000D01*
X12475000Y-18935668D01*
X12475000Y-18579592D01*
X12524307Y-18530285D01*
X12578071Y-18449821D01*
X14397621Y-20269372D01*
G04 #@! TA.AperFunction,Conductor*
D39*
G36*
X14397621Y-20269372D02*
G01*
X14412499Y-20287501D01*
X14484827Y-20346859D01*
X14567346Y-20390966D01*
X14656884Y-20418127D01*
X14726668Y-20425000D01*
X14726669Y-20425000D01*
X14749999Y-20427298D01*
X14773329Y-20425000D01*
X15123186Y-20425000D01*
X15123186Y-20550000D01*
X15130426Y-20623513D01*
X15151869Y-20694200D01*
X15186691Y-20759347D01*
X15233552Y-20816448D01*
X15290653Y-20863309D01*
X15355800Y-20898131D01*
X15426487Y-20919574D01*
X15500000Y-20926814D01*
X15525001Y-20926814D01*
X15525001Y-21336640D01*
X15466482Y-21325000D01*
X15333518Y-21325000D01*
X15203110Y-21350940D01*
X15080268Y-21401823D01*
X14969713Y-21475693D01*
X14920406Y-21525000D01*
X13023332Y-21525000D01*
X13000000Y-21522702D01*
X12976668Y-21525000D01*
X12906884Y-21531873D01*
X12817346Y-21559034D01*
X12734827Y-21603141D01*
X12662499Y-21662499D01*
X12647620Y-21680629D01*
X12603249Y-21725000D01*
X10536753Y-21725000D01*
X9616066Y-20804314D01*
X10606500Y-20804314D01*
X10680013Y-20797074D01*
X10750700Y-20775631D01*
X10815847Y-20740809D01*
X10872948Y-20693948D01*
X10919809Y-20636847D01*
X10934064Y-20610177D01*
X10989154Y-20593466D01*
X11071673Y-20549359D01*
X11144001Y-20490001D01*
X11158884Y-20471866D01*
X12319377Y-19311375D01*
X12337501Y-19296501D01*
X12396859Y-19224173D01*
X12437300Y-19148513D01*
X12440966Y-19141655D01*
X12468127Y-19052116D01*
X12477298Y-18959000D01*
X12475000Y-18935668D01*
X12475000Y-18579592D01*
X12524307Y-18530285D01*
X12578071Y-18449821D01*
X14397621Y-20269372D01*
G37*
G04 #@! TD.AperFunction*
D38*
X17225000Y-18775000D02*
X17975000Y-18775000D01*
X17975000Y-18755000D01*
X18025000Y-18755000D01*
X18025000Y-18775000D01*
X18045000Y-18775000D01*
X18045000Y-18825000D01*
X18025000Y-18825000D01*
X18025000Y-19575000D01*
X18045000Y-19575000D01*
X18045000Y-19625000D01*
X18025000Y-19625000D01*
X18025000Y-19645000D01*
X17975000Y-19645000D01*
X17975000Y-19625000D01*
X17225000Y-19625000D01*
X17225000Y-19645000D01*
X17175000Y-19645000D01*
X17175000Y-19625000D01*
X17155000Y-19625000D01*
X17155000Y-19575000D01*
X17175000Y-19575000D01*
X17175000Y-19200000D01*
X17223186Y-19200000D01*
X17225000Y-19481250D01*
X17225000Y-19575000D01*
X17318750Y-19575000D01*
X17600000Y-19576814D01*
X17881250Y-19575000D01*
X17975000Y-19575000D01*
X17975000Y-19481250D01*
X17976814Y-19200000D01*
X17975000Y-18918750D01*
X17975000Y-18825000D01*
X17881250Y-18825000D01*
X17600000Y-18823186D01*
X17318750Y-18825000D01*
X17225000Y-18825000D01*
X17225000Y-18918750D01*
X17223186Y-19200000D01*
X17175000Y-19200000D01*
X17175000Y-18825000D01*
X17155000Y-18825000D01*
X17155000Y-18775000D01*
X17175000Y-18775000D01*
X17175000Y-18755000D01*
X17225000Y-18755000D01*
X17225000Y-18775000D01*
G04 #@! TA.AperFunction,Conductor*
D39*
G36*
X17225000Y-18775000D02*
G01*
X17975000Y-18775000D01*
X17975000Y-18755000D01*
X18025000Y-18755000D01*
X18025000Y-18775000D01*
X18045000Y-18775000D01*
X18045000Y-18825000D01*
X18025000Y-18825000D01*
X18025000Y-19575000D01*
X18045000Y-19575000D01*
X18045000Y-19625000D01*
X18025000Y-19625000D01*
X18025000Y-19645000D01*
X17975000Y-19645000D01*
X17975000Y-19625000D01*
X17225000Y-19625000D01*
X17225000Y-19645000D01*
X17175000Y-19645000D01*
X17175000Y-19625000D01*
X17155000Y-19625000D01*
X17155000Y-19575000D01*
X17175000Y-19575000D01*
X17175000Y-19200000D01*
X17223186Y-19200000D01*
X17225000Y-19481250D01*
X17225000Y-19575000D01*
X17318750Y-19575000D01*
X17600000Y-19576814D01*
X17881250Y-19575000D01*
X17975000Y-19575000D01*
X17975000Y-19481250D01*
X17976814Y-19200000D01*
X17975000Y-18918750D01*
X17975000Y-18825000D01*
X17881250Y-18825000D01*
X17600000Y-18823186D01*
X17318750Y-18825000D01*
X17225000Y-18825000D01*
X17225000Y-18918750D01*
X17223186Y-19200000D01*
X17175000Y-19200000D01*
X17175000Y-18825000D01*
X17155000Y-18825000D01*
X17155000Y-18775000D01*
X17175000Y-18775000D01*
X17175000Y-18755000D01*
X17225000Y-18755000D01*
X17225000Y-18775000D01*
G37*
G04 #@! TD.AperFunction*
D38*
X7618500Y-19175000D02*
X7638500Y-19175000D01*
X7638500Y-19225000D01*
X7618500Y-19225000D01*
X7618500Y-19245000D01*
X7568500Y-19245000D01*
X7568500Y-19225000D01*
X7548500Y-19225000D01*
X7548500Y-19175000D01*
X7568500Y-19175000D01*
X7568500Y-19155000D01*
X7618500Y-19155000D01*
X7618500Y-19175000D01*
G04 #@! TA.AperFunction,Conductor*
D39*
G36*
X7618500Y-19175000D02*
G01*
X7638500Y-19175000D01*
X7638500Y-19225000D01*
X7618500Y-19225000D01*
X7618500Y-19245000D01*
X7568500Y-19245000D01*
X7568500Y-19225000D01*
X7548500Y-19225000D01*
X7548500Y-19175000D01*
X7568500Y-19175000D01*
X7568500Y-19155000D01*
X7618500Y-19155000D01*
X7618500Y-19175000D01*
G37*
G04 #@! TD.AperFunction*
D34*
X9700000Y-16158578D02*
X8278341Y-17580237D01*
X8271914Y-17578288D01*
X8193500Y-17570565D01*
X6993500Y-17570565D01*
X6915086Y-17578288D01*
X6839686Y-17601160D01*
X6770197Y-17638303D01*
X6709289Y-17688289D01*
X6660696Y-17747500D01*
X6377060Y-17747500D01*
X6352500Y-17745081D01*
X6327940Y-17747500D01*
X6254483Y-17754735D01*
X6160233Y-17783325D01*
X6073371Y-17829754D01*
X5997236Y-17892236D01*
X5981575Y-17911319D01*
X5923446Y-17969448D01*
X5878414Y-17955788D01*
X5800000Y-17948065D01*
X4100000Y-17948065D01*
X4100000Y-17779121D01*
X4145818Y-17798099D01*
X4281056Y-17825000D01*
X4418944Y-17825000D01*
X4554182Y-17798099D01*
X4681574Y-17745332D01*
X4796224Y-17668726D01*
X4893726Y-17571224D01*
X4970332Y-17456574D01*
X5023099Y-17329182D01*
X5050000Y-17193944D01*
X5050000Y-17056056D01*
X5023099Y-16920818D01*
X4970332Y-16793426D01*
X4893726Y-16678776D01*
X4796224Y-16581274D01*
X4681574Y-16504668D01*
X4554182Y-16451901D01*
X4418944Y-16425000D01*
X4281056Y-16425000D01*
X4145818Y-16451901D01*
X4100000Y-16470879D01*
X4100000Y-14700000D01*
X9700000Y-14700000D01*
X9700000Y-16158578D01*
G04 #@! TA.AperFunction,Conductor*
D39*
G36*
X9700000Y-16158578D02*
G01*
X8278341Y-17580237D01*
X8271914Y-17578288D01*
X8193500Y-17570565D01*
X6993500Y-17570565D01*
X6915086Y-17578288D01*
X6839686Y-17601160D01*
X6770197Y-17638303D01*
X6709289Y-17688289D01*
X6660696Y-17747500D01*
X6377060Y-17747500D01*
X6352500Y-17745081D01*
X6327940Y-17747500D01*
X6254483Y-17754735D01*
X6160233Y-17783325D01*
X6073371Y-17829754D01*
X5997236Y-17892236D01*
X5981575Y-17911319D01*
X5923446Y-17969448D01*
X5878414Y-17955788D01*
X5800000Y-17948065D01*
X4100000Y-17948065D01*
X4100000Y-17779121D01*
X4145818Y-17798099D01*
X4281056Y-17825000D01*
X4418944Y-17825000D01*
X4554182Y-17798099D01*
X4681574Y-17745332D01*
X4796224Y-17668726D01*
X4893726Y-17571224D01*
X4970332Y-17456574D01*
X5023099Y-17329182D01*
X5050000Y-17193944D01*
X5050000Y-17056056D01*
X5023099Y-16920818D01*
X4970332Y-16793426D01*
X4893726Y-16678776D01*
X4796224Y-16581274D01*
X4681574Y-16504668D01*
X4554182Y-16451901D01*
X4418944Y-16425000D01*
X4281056Y-16425000D01*
X4145818Y-16451901D01*
X4100000Y-16470879D01*
X4100000Y-14700000D01*
X9700000Y-14700000D01*
X9700000Y-16158578D01*
G37*
G04 #@! TD.AperFunction*
D34*
X19100000Y-14100000D02*
X7700000Y-14100000D01*
X7700000Y-11500000D01*
X19100000Y-11500000D01*
X19100000Y-14100000D01*
G04 #@! TA.AperFunction,Conductor*
D39*
G36*
X19100000Y-14100000D02*
G01*
X7700000Y-14100000D01*
X7700000Y-11500000D01*
X19100000Y-11500000D01*
X19100000Y-14100000D01*
G37*
G04 #@! TD.AperFunction*
D34*
X28525001Y-4848065D02*
X22850000Y-4848065D01*
X22742323Y-4858670D01*
X22638784Y-4890079D01*
X22620223Y-4900000D01*
X19200000Y-4900000D01*
X19180491Y-4901921D01*
X19161732Y-4907612D01*
X19144443Y-4916853D01*
X19129289Y-4929289D01*
X19116853Y-4944443D01*
X19107612Y-4961732D01*
X19101921Y-4980491D01*
X19100000Y-5000000D01*
X19100000Y-9900000D01*
X16100000Y-9900000D01*
X16100000Y-1100000D01*
X28525001Y-1100000D01*
X28525001Y-4848065D01*
G04 #@! TA.AperFunction,Conductor*
D39*
G36*
X28525001Y-4848065D02*
G01*
X22850000Y-4848065D01*
X22742323Y-4858670D01*
X22638784Y-4890079D01*
X22620223Y-4900000D01*
X19200000Y-4900000D01*
X19180491Y-4901921D01*
X19161732Y-4907612D01*
X19144443Y-4916853D01*
X19129289Y-4929289D01*
X19116853Y-4944443D01*
X19107612Y-4961732D01*
X19101921Y-4980491D01*
X19100000Y-5000000D01*
X19100000Y-9900000D01*
X16100000Y-9900000D01*
X16100000Y-1100000D01*
X28525001Y-1100000D01*
X28525001Y-4848065D01*
G37*
G04 #@! TD.AperFunction*
D34*
X24700000Y-46700000D02*
X22200000Y-46700000D01*
X22200000Y-45700000D01*
X24700000Y-45700000D01*
X24700000Y-46700000D01*
G04 #@! TA.AperFunction,Conductor*
D39*
G36*
X24700000Y-46700000D02*
G01*
X22200000Y-46700000D01*
X22200000Y-45700000D01*
X24700000Y-45700000D01*
X24700000Y-46700000D01*
G37*
G04 #@! TD.AperFunction*
M02*
