M48
; DRILL file {KiCad (5.1.9)-1} date 01/31/23 21:08:29
; FORMAT={-:-/ absolute / inch / decimal}
; #@! TF.CreationDate,2023-01-31T21:08:29+01:00
; #@! TF.GenerationSoftware,Kicad,Pcbnew,(5.1.9)-1
; #@! TF.FileFunction,Plated,1,2,PTH
FMAT,2
INCH
T1C0.0118
T2C0.0256
%
G90
G05
T1
X0.0787Y-1.7087
X0.0807Y-1.5748
X0.126Y-1.752
X0.1339Y-0.8071
X0.2087Y-0.9449
X0.2087Y-1.5354
X0.2402Y-0.9449
X0.2441Y-0.8071
X0.2598Y-1.7874
X0.2608Y-1.9616
X0.313Y-2.0925
X0.315Y-0.8681
X0.3465Y-0.3307
X0.3465Y-1.8268
X0.3465Y-2.002
X0.3465Y-2.0472
X0.3467Y-1.6375
X0.3504Y-2.2992
X0.3517Y-2.2513
X0.3543Y-1.0394
X0.3543Y-1.4803
X0.3701Y-1.875
X0.3799Y-2.1772
X0.4094Y-2.1299
X0.4094Y-2.2244
X0.4173Y-1.9016
X0.4173Y-1.9764
X0.4173Y-2.0531
X0.4173Y-2.0906
X0.4291Y-2.2559
X0.4724Y-0.7126
X0.4724Y-1.6693
X0.4921Y-0.8465
X0.4961Y-1.6457
X0.5039Y-1.8346
X0.5276Y-1.622
X0.5276Y-1.811
X0.5276Y-2.1969
X0.5512Y-0.7126
X0.5512Y-1.8333
X0.563Y-1.4134
X0.5748Y-1.5748
X0.5748Y-1.811
X0.5748Y-1.9469
X0.5827Y-0.7126
X0.6063Y-0.8661
X0.6063Y-1.0079
X0.622Y-1.4882
X0.6378Y-1.2205
X0.6535Y-0.8661
X0.6575Y-2.0984
X0.6575Y-2.122
X0.6575Y-2.1457
X0.6634Y-1.0079
X0.6693Y-1.6811
X0.6811Y-2.0984
X0.6811Y-2.122
X0.6811Y-2.1457
X0.689Y-1.8465
X0.689Y-1.8701
X0.7047Y-2.0984
X0.7047Y-2.122
X0.7047Y-2.1457
X0.7087Y-1.6811
X0.7087Y-1.7992
X0.7126Y-1.8465
X0.7126Y-1.8701
X0.7126Y-1.8937
X0.7264Y-0.8661
X0.7283Y-2.0984
X0.7283Y-2.122
X0.7283Y-2.1457
X0.7362Y-1.8465
X0.7362Y-1.8701
X0.7362Y-1.8937
X0.7362Y-1.9173
X0.748Y-1.4252
X0.7677Y-1.7165
X0.7677Y-1.7402
X0.7677Y-1.7638
X0.7953Y-1.2205
X0.8031Y-1.4882
X0.8071Y-1.7165
X0.8071Y-1.7402
X0.8071Y-1.7638
X0.8268Y-1.2913
X0.8504Y-1.3228
X0.8504Y-1.3543
X0.8622Y-2.252
X0.8661Y-1.6811
X0.8819Y-1.8071
X0.8819Y-1.8307
X0.9055Y-1.8071
X0.9055Y-1.8307
X0.9173Y-0.0669
X0.9173Y-0.0906
X0.9173Y-0.1457
X0.9173Y-0.1693
X0.9173Y-0.2244
X0.9173Y-0.248
X0.9173Y-0.3031
X0.9173Y-0.3268
X0.9173Y-0.3819
X0.9173Y-0.4055
X0.9173Y-0.4606
X0.9173Y-0.4843
X0.9173Y-0.5394
X0.9173Y-0.563
X0.9173Y-0.6181
X0.9173Y-0.6417
X0.9173Y-1.878
X0.9173Y-1.9016
X0.9291Y-1.8071
X0.9291Y-1.8307
X0.9409Y-0.0669
X0.9409Y-0.0906
X0.9409Y-0.1457
X0.9409Y-0.1693
X0.9409Y-0.2244
X0.9409Y-0.248
X0.9409Y-0.3031
X0.9409Y-0.3268
X0.9409Y-0.3819
X0.9409Y-0.4055
X0.9409Y-0.4606
X0.9409Y-0.4843
X0.9409Y-0.5394
X0.9409Y-0.563
X0.9409Y-0.6181
X0.9409Y-0.6417
X0.9409Y-1.878
X0.9409Y-1.9016
X0.9646Y-0.0669
X0.9646Y-0.0906
X0.9646Y-0.1457
X0.9646Y-0.1693
X0.9646Y-0.2244
X0.9646Y-0.248
X0.9646Y-0.3031
X0.9646Y-0.3268
X0.9646Y-0.3819
X0.9646Y-0.4055
X0.9646Y-0.4606
X0.9646Y-0.4843
X0.9646Y-0.5394
X0.9646Y-0.563
X0.9646Y-0.6181
X0.9646Y-0.6417
X0.9646Y-1.878
X0.9646Y-1.9016
X0.9882Y-0.0669
X0.9882Y-0.0906
X0.9882Y-0.1457
X0.9882Y-0.1693
X0.9882Y-0.2244
X0.9882Y-0.248
X0.9882Y-0.3031
X0.9882Y-0.3268
X0.9882Y-0.3819
X0.9882Y-0.4055
X0.9882Y-0.4606
X0.9882Y-0.4843
X0.9882Y-0.5394
X0.9882Y-0.563
X0.9882Y-0.6181
X0.9882Y-0.6417
X0.9882Y-1.878
X0.9882Y-1.9016
X1.0039Y-1.4488
X1.0039Y-1.4724
X1.0118Y-0.0669
X1.0118Y-0.0906
X1.0118Y-0.1457
X1.0118Y-0.1693
X1.0118Y-0.2244
X1.0118Y-0.248
X1.0118Y-0.3031
X1.0118Y-0.3268
X1.0118Y-0.3819
X1.0118Y-0.4055
X1.0118Y-0.4606
X1.0118Y-0.4843
X1.0118Y-0.5394
X1.0118Y-0.563
X1.0118Y-0.6181
X1.0118Y-0.6417
X1.0118Y-1.878
X1.0118Y-1.9016
X1.0276Y-1.4488
X1.0276Y-1.4724
X1.0354Y-0.0669
X1.0354Y-0.0906
X1.0354Y-0.1457
X1.0354Y-0.1693
X1.0354Y-0.2244
X1.0354Y-0.248
X1.0354Y-0.3031
X1.0354Y-0.3268
X1.0354Y-0.3819
X1.0354Y-0.4055
X1.0354Y-0.4606
X1.0354Y-0.4843
X1.0354Y-0.5394
X1.0354Y-0.563
X1.0354Y-0.6181
X1.0354Y-0.6417
X1.0354Y-1.878
X1.0354Y-1.9016
X1.0591Y-0.0669
X1.0591Y-0.0906
X1.0591Y-0.1457
X1.0591Y-0.1693
X1.0591Y-0.2244
X1.0591Y-0.248
X1.0591Y-0.3031
X1.0591Y-0.3268
X1.0591Y-0.3819
X1.0591Y-0.4055
X1.0591Y-0.4606
X1.0591Y-0.4843
X1.0591Y-0.5394
X1.0591Y-0.563
X1.0591Y-0.6181
X1.0591Y-0.6417
X1.0591Y-1.878
X1.0591Y-1.9016
X1.0748Y-1.1024
X1.0748Y-1.3386
X1.0748Y-1.378
X1.0827Y-0.0669
X1.0827Y-0.0906
X1.0827Y-0.1457
X1.0827Y-0.1693
X1.0827Y-0.2244
X1.0827Y-0.248
X1.0827Y-0.3031
X1.0827Y-0.3268
X1.0827Y-0.3819
X1.0827Y-0.4055
X1.0827Y-0.4606
X1.0827Y-0.4843
X1.0827Y-0.5394
X1.0827Y-0.563
X1.0827Y-0.6181
X1.0827Y-0.6417
X1.0827Y-1.878
X1.0827Y-1.9016
X1.1063Y-0.0669
X1.1063Y-0.0906
X1.1063Y-0.1457
X1.1063Y-0.1693
X1.1063Y-0.2244
X1.1063Y-0.248
X1.1063Y-0.3031
X1.1063Y-0.3268
X1.1063Y-0.3819
X1.1063Y-0.4055
X1.1063Y-0.4606
X1.1063Y-0.4843
X1.1063Y-0.5394
X1.1063Y-0.563
X1.1063Y-0.6181
X1.1063Y-0.6417
X1.1063Y-1.878
X1.1063Y-1.9016
X1.1457Y-1.1024
X1.1457Y-1.3386
X1.1457Y-1.378
X1.1969Y-0.748
X1.1969Y-1.7717
T2
X0.0256Y-1.7717
X0.0256Y-1.9291
T0
M30
