G04 #@! TF.GenerationSoftware,KiCad,Pcbnew,(5.1.9)-1*
G04 #@! TF.CreationDate,2023-01-31T21:08:26+01:00*
G04 #@! TF.ProjectId,Side,53696465-2e6b-4696-9361-645f70636258,rev?*
G04 #@! TF.SameCoordinates,PXd59f80PYd59f80*
G04 #@! TF.FileFunction,Legend,Bot*
G04 #@! TF.FilePolarity,Positive*
%FSLAX46Y46*%
G04 Gerber Fmt 4.6, Leading zero omitted, Abs format (unit mm)*
G04 Created by KiCad (PCBNEW (5.1.9)-1) date 2023-01-31 21:08:26*
%MOMM*%
%LPD*%
G01*
G04 APERTURE LIST*
%ADD10C,0.200000*%
%ADD11C,0.100000*%
%ADD12C,0.180000*%
%ADD13C,2.000000*%
%ADD14R,0.600000X2.400000*%
%ADD15R,2.400000X0.600000*%
%ADD16O,0.800000X0.800000*%
%ADD17C,0.600000*%
G04 APERTURE END LIST*
D10*
X28000000Y-44000000D02*
X4000000Y-44000000D01*
X28000000Y-20000000D02*
X28000000Y-44000000D01*
X4000000Y-20000000D02*
X28000000Y-20000000D01*
X4000000Y-44000000D02*
X4000000Y-20000000D01*
D11*
G36*
X7200000Y-44400000D02*
G01*
X3600000Y-44400000D01*
X3600000Y-40800000D01*
X3000000Y-40800000D01*
X3000000Y-45000000D01*
X7200000Y-45000000D01*
X7200000Y-44400000D01*
G37*
X7200000Y-44400000D02*
X3600000Y-44400000D01*
X3600000Y-40800000D01*
X3000000Y-40800000D01*
X3000000Y-45000000D01*
X7200000Y-45000000D01*
X7200000Y-44400000D01*
D10*
X22500000Y-7000000D02*
X22500000Y-5000000D01*
X7100000Y-7000000D02*
X28900000Y-7000000D01*
X7100000Y-5000000D02*
X22500000Y-5000000D01*
X7100000Y-7000000D02*
X6500000Y-6400000D01*
X6500000Y-5600000D02*
X7100000Y-5000000D01*
X6500000Y-6400000D02*
X6500000Y-5600000D01*
X14500000Y-7000000D02*
X14500000Y-5000000D01*
X28900000Y-7000000D02*
X28900000Y-5000000D01*
X22500000Y-5000000D02*
X28900000Y-5000000D01*
X22500000Y-5100000D02*
X28900000Y-5100000D01*
X22550000Y-7000000D02*
X22550000Y-5000000D01*
X28850000Y-7000000D02*
X28850000Y-5000000D01*
X22500000Y-6900000D02*
X28900000Y-6900000D01*
X22500000Y-17000000D02*
X22500000Y-15000000D01*
X7100000Y-17000000D02*
X28900000Y-17000000D01*
X7100000Y-15000000D02*
X22500000Y-15000000D01*
X7100000Y-17000000D02*
X6500000Y-16400000D01*
X6500000Y-15600000D02*
X7100000Y-15000000D01*
X6500000Y-16400000D02*
X6500000Y-15600000D01*
X14500000Y-17000000D02*
X14500000Y-15000000D01*
X28900000Y-17000000D02*
X28900000Y-15000000D01*
X22500000Y-15000000D02*
X28900000Y-15000000D01*
X22500000Y-15100000D02*
X28900000Y-15100000D01*
X22550000Y-17000000D02*
X22550000Y-15000000D01*
X28850000Y-17000000D02*
X28850000Y-15000000D01*
X22500000Y-16900000D02*
X28900000Y-16900000D01*
X22500000Y-9000000D02*
X22500000Y-7000000D01*
X7100000Y-9000000D02*
X28900000Y-9000000D01*
X7100000Y-7000000D02*
X22500000Y-7000000D01*
X7100000Y-9000000D02*
X6500000Y-8400000D01*
X6500000Y-7600000D02*
X7100000Y-7000000D01*
X6500000Y-8400000D02*
X6500000Y-7600000D01*
X14500000Y-9000000D02*
X14500000Y-7000000D01*
X28900000Y-9000000D02*
X28900000Y-7000000D01*
X22500000Y-7000000D02*
X28900000Y-7000000D01*
X22500000Y-7100000D02*
X28900000Y-7100000D01*
X22550000Y-9000000D02*
X22550000Y-7000000D01*
X28850000Y-9000000D02*
X28850000Y-7000000D01*
X22500000Y-8900000D02*
X28900000Y-8900000D01*
X22500000Y-11000000D02*
X22500000Y-9000000D01*
X7100000Y-11000000D02*
X28900000Y-11000000D01*
X7100000Y-9000000D02*
X22500000Y-9000000D01*
X7100000Y-11000000D02*
X6500000Y-10400000D01*
X6500000Y-9600000D02*
X7100000Y-9000000D01*
X6500000Y-10400000D02*
X6500000Y-9600000D01*
X14500000Y-11000000D02*
X14500000Y-9000000D01*
X28900000Y-11000000D02*
X28900000Y-9000000D01*
X22500000Y-9000000D02*
X28900000Y-9000000D01*
X22500000Y-9100000D02*
X28900000Y-9100000D01*
X22550000Y-11000000D02*
X22550000Y-9000000D01*
X28850000Y-11000000D02*
X28850000Y-9000000D01*
X22500000Y-10900000D02*
X28900000Y-10900000D01*
X22500000Y-5000000D02*
X22500000Y-3000000D01*
X7100000Y-5000000D02*
X28900000Y-5000000D01*
X7100000Y-3000000D02*
X22500000Y-3000000D01*
X7100000Y-5000000D02*
X6500000Y-4400000D01*
X6500000Y-3600000D02*
X7100000Y-3000000D01*
X6500000Y-4400000D02*
X6500000Y-3600000D01*
X14500000Y-5000000D02*
X14500000Y-3000000D01*
X28900000Y-5000000D02*
X28900000Y-3000000D01*
X22500000Y-3000000D02*
X28900000Y-3000000D01*
X22500000Y-3100000D02*
X28900000Y-3100000D01*
X22550000Y-5000000D02*
X22550000Y-3000000D01*
X28850000Y-5000000D02*
X28850000Y-3000000D01*
X22500000Y-4900000D02*
X28900000Y-4900000D01*
X22500000Y-15000000D02*
X22500000Y-13000000D01*
X7100000Y-15000000D02*
X28900000Y-15000000D01*
X7100000Y-13000000D02*
X22500000Y-13000000D01*
X7100000Y-15000000D02*
X6500000Y-14400000D01*
X6500000Y-13600000D02*
X7100000Y-13000000D01*
X6500000Y-14400000D02*
X6500000Y-13600000D01*
X14500000Y-15000000D02*
X14500000Y-13000000D01*
X28900000Y-15000000D02*
X28900000Y-13000000D01*
X22500000Y-13000000D02*
X28900000Y-13000000D01*
X22500000Y-13100000D02*
X28900000Y-13100000D01*
X22550000Y-15000000D02*
X22550000Y-13000000D01*
X28850000Y-15000000D02*
X28850000Y-13000000D01*
X22500000Y-14900000D02*
X28900000Y-14900000D01*
X22500000Y-3000000D02*
X22500000Y-1000000D01*
X7100000Y-3000000D02*
X28900000Y-3000000D01*
X7100000Y-1000000D02*
X22500000Y-1000000D01*
X7100000Y-3000000D02*
X6500000Y-2400000D01*
X6500000Y-1600000D02*
X7100000Y-1000000D01*
X6500000Y-2400000D02*
X6500000Y-1600000D01*
X14500000Y-3000000D02*
X14500000Y-1000000D01*
X28900000Y-3000000D02*
X28900000Y-1000000D01*
X22500000Y-1000000D02*
X28900000Y-1000000D01*
X22500000Y-1100000D02*
X28900000Y-1100000D01*
X22550000Y-3000000D02*
X22550000Y-1000000D01*
X28850000Y-3000000D02*
X28850000Y-1000000D01*
X22500000Y-2900000D02*
X28900000Y-2900000D01*
X22500000Y-13000000D02*
X22500000Y-11000000D01*
X7100000Y-13000000D02*
X28900000Y-13000000D01*
X7100000Y-11000000D02*
X22500000Y-11000000D01*
X7100000Y-13000000D02*
X6500000Y-12400000D01*
X6500000Y-11600000D02*
X7100000Y-11000000D01*
X6500000Y-12400000D02*
X6500000Y-11600000D01*
X14500000Y-13000000D02*
X14500000Y-11000000D01*
X28900000Y-13000000D02*
X28900000Y-11000000D01*
X22500000Y-11000000D02*
X28900000Y-11000000D01*
X22500000Y-11100000D02*
X28900000Y-11100000D01*
X22550000Y-13000000D02*
X22550000Y-11000000D01*
X28850000Y-13000000D02*
X28850000Y-11000000D01*
X22500000Y-12900000D02*
X28900000Y-12900000D01*
X22500000Y-49000000D02*
X22500000Y-47000000D01*
X7100000Y-49000000D02*
X28900000Y-49000000D01*
X7100000Y-47000000D02*
X22500000Y-47000000D01*
X7100000Y-49000000D02*
X6500000Y-48400000D01*
X6500000Y-47600000D02*
X7100000Y-47000000D01*
X6500000Y-48400000D02*
X6500000Y-47600000D01*
X14500000Y-49000000D02*
X14500000Y-47000000D01*
X28900000Y-49000000D02*
X28900000Y-47000000D01*
X22500000Y-47000000D02*
X28900000Y-47000000D01*
X22500000Y-47100000D02*
X28900000Y-47100000D01*
X22550000Y-49000000D02*
X22550000Y-47000000D01*
X28850000Y-49000000D02*
X28850000Y-47000000D01*
X22500000Y-48900000D02*
X28900000Y-48900000D01*
X22500000Y-51000000D02*
X22500000Y-49000000D01*
X7100000Y-51000000D02*
X28900000Y-51000000D01*
X7100000Y-49000000D02*
X22500000Y-49000000D01*
X7100000Y-51000000D02*
X6500000Y-50400000D01*
X6500000Y-49600000D02*
X7100000Y-49000000D01*
X6500000Y-50400000D02*
X6500000Y-49600000D01*
X14500000Y-51000000D02*
X14500000Y-49000000D01*
X28900000Y-51000000D02*
X28900000Y-49000000D01*
X22500000Y-49000000D02*
X28900000Y-49000000D01*
X22500000Y-49100000D02*
X28900000Y-49100000D01*
X22550000Y-51000000D02*
X22550000Y-49000000D01*
X28850000Y-51000000D02*
X28850000Y-49000000D01*
X22500000Y-50900000D02*
X28900000Y-50900000D01*
X22500000Y-53000000D02*
X22500000Y-51000000D01*
X7100000Y-53000000D02*
X28900000Y-53000000D01*
X7100000Y-51000000D02*
X22500000Y-51000000D01*
X7100000Y-53000000D02*
X6500000Y-52400000D01*
X6500000Y-51600000D02*
X7100000Y-51000000D01*
X6500000Y-52400000D02*
X6500000Y-51600000D01*
X14500000Y-53000000D02*
X14500000Y-51000000D01*
X28900000Y-53000000D02*
X28900000Y-51000000D01*
X22500000Y-51000000D02*
X28900000Y-51000000D01*
X22500000Y-51100000D02*
X28900000Y-51100000D01*
X22550000Y-53000000D02*
X22550000Y-51000000D01*
X28850000Y-53000000D02*
X28850000Y-51000000D01*
X22500000Y-52900000D02*
X28900000Y-52900000D01*
X22500000Y-55000000D02*
X22500000Y-53000000D01*
X7100000Y-55000000D02*
X28900000Y-55000000D01*
X7100000Y-53000000D02*
X22500000Y-53000000D01*
X7100000Y-55000000D02*
X6500000Y-54400000D01*
X6500000Y-53600000D02*
X7100000Y-53000000D01*
X6500000Y-54400000D02*
X6500000Y-53600000D01*
X14500000Y-55000000D02*
X14500000Y-53000000D01*
X28900000Y-55000000D02*
X28900000Y-53000000D01*
X22500000Y-53000000D02*
X28900000Y-53000000D01*
X22500000Y-53100000D02*
X28900000Y-53100000D01*
X22550000Y-55000000D02*
X22550000Y-53000000D01*
X28850000Y-55000000D02*
X28850000Y-53000000D01*
X22500000Y-54900000D02*
X28900000Y-54900000D01*
X22500000Y-57000000D02*
X22500000Y-55000000D01*
X7100000Y-57000000D02*
X28900000Y-57000000D01*
X7100000Y-55000000D02*
X22500000Y-55000000D01*
X7100000Y-57000000D02*
X6500000Y-56400000D01*
X6500000Y-55600000D02*
X7100000Y-55000000D01*
X6500000Y-56400000D02*
X6500000Y-55600000D01*
X14500000Y-57000000D02*
X14500000Y-55000000D01*
X28900000Y-57000000D02*
X28900000Y-55000000D01*
X22500000Y-55000000D02*
X28900000Y-55000000D01*
X22500000Y-55100000D02*
X28900000Y-55100000D01*
X22550000Y-57000000D02*
X22550000Y-55000000D01*
X28850000Y-57000000D02*
X28850000Y-55000000D01*
X22500000Y-56900000D02*
X28900000Y-56900000D01*
X22500000Y-59000000D02*
X22500000Y-57000000D01*
X7100000Y-59000000D02*
X28900000Y-59000000D01*
X7100000Y-57000000D02*
X22500000Y-57000000D01*
X7100000Y-59000000D02*
X6500000Y-58400000D01*
X6500000Y-57600000D02*
X7100000Y-57000000D01*
X6500000Y-58400000D02*
X6500000Y-57600000D01*
X14500000Y-59000000D02*
X14500000Y-57000000D01*
X28900000Y-59000000D02*
X28900000Y-57000000D01*
X22500000Y-57000000D02*
X28900000Y-57000000D01*
X22500000Y-57100000D02*
X28900000Y-57100000D01*
X22550000Y-59000000D02*
X22550000Y-57000000D01*
X28850000Y-59000000D02*
X28850000Y-57000000D01*
X22500000Y-58900000D02*
X28900000Y-58900000D01*
X22500000Y-60900000D02*
X28900000Y-60900000D01*
X28850000Y-61000000D02*
X28850000Y-59000000D01*
X22550000Y-61000000D02*
X22550000Y-59000000D01*
X22500000Y-59100000D02*
X28900000Y-59100000D01*
X22500000Y-59000000D02*
X28900000Y-59000000D01*
X28900000Y-61000000D02*
X28900000Y-59000000D01*
X14500000Y-61000000D02*
X14500000Y-59000000D01*
X6500000Y-60400000D02*
X6500000Y-59600000D01*
X6500000Y-59600000D02*
X7100000Y-59000000D01*
X7100000Y-61000000D02*
X6500000Y-60400000D01*
X7100000Y-59000000D02*
X22500000Y-59000000D01*
X7100000Y-61000000D02*
X28900000Y-61000000D01*
X22500000Y-61000000D02*
X22500000Y-59000000D01*
X22500000Y-62900000D02*
X28900000Y-62900000D01*
X28850000Y-63000000D02*
X28850000Y-61000000D01*
X22550000Y-63000000D02*
X22550000Y-61000000D01*
X22500000Y-61100000D02*
X28900000Y-61100000D01*
X22500000Y-61000000D02*
X28900000Y-61000000D01*
X28900000Y-63000000D02*
X28900000Y-61000000D01*
X14500000Y-63000000D02*
X14500000Y-61000000D01*
X6500000Y-62400000D02*
X6500000Y-61600000D01*
X6500000Y-61600000D02*
X7100000Y-61000000D01*
X7100000Y-63000000D02*
X6500000Y-62400000D01*
X7100000Y-61000000D02*
X22500000Y-61000000D01*
X7100000Y-63000000D02*
X28900000Y-63000000D01*
X22500000Y-63000000D02*
X22500000Y-61000000D01*
D12*
X13247285Y-5600000D02*
X13333000Y-5557142D01*
X13461571Y-5557142D01*
X13590142Y-5600000D01*
X13675857Y-5685714D01*
X13718714Y-5771428D01*
X13761571Y-5942857D01*
X13761571Y-6071428D01*
X13718714Y-6242857D01*
X13675857Y-6328571D01*
X13590142Y-6414285D01*
X13461571Y-6457142D01*
X13375857Y-6457142D01*
X13247285Y-6414285D01*
X13204428Y-6371428D01*
X13204428Y-6071428D01*
X13375857Y-6071428D01*
X12818714Y-6457142D02*
X12818714Y-5557142D01*
X12304428Y-6457142D01*
X12304428Y-5557142D01*
X11875857Y-6457142D02*
X11875857Y-5557142D01*
X11661571Y-5557142D01*
X11533000Y-5600000D01*
X11447285Y-5685714D01*
X11404428Y-5771428D01*
X11361571Y-5942857D01*
X11361571Y-6071428D01*
X11404428Y-6242857D01*
X11447285Y-6328571D01*
X11533000Y-6414285D01*
X11661571Y-6457142D01*
X11875857Y-6457142D01*
X21247285Y-5600000D02*
X21333000Y-5557142D01*
X21461571Y-5557142D01*
X21590142Y-5600000D01*
X21675857Y-5685714D01*
X21718714Y-5771428D01*
X21761571Y-5942857D01*
X21761571Y-6071428D01*
X21718714Y-6242857D01*
X21675857Y-6328571D01*
X21590142Y-6414285D01*
X21461571Y-6457142D01*
X21375857Y-6457142D01*
X21247285Y-6414285D01*
X21204428Y-6371428D01*
X21204428Y-6071428D01*
X21375857Y-6071428D01*
X20818714Y-6457142D02*
X20818714Y-5557142D01*
X20304428Y-6457142D01*
X20304428Y-5557142D01*
X19875857Y-6457142D02*
X19875857Y-5557142D01*
X19661571Y-5557142D01*
X19533000Y-5600000D01*
X19447285Y-5685714D01*
X19404428Y-5771428D01*
X19361571Y-5942857D01*
X19361571Y-6071428D01*
X19404428Y-6242857D01*
X19447285Y-6328571D01*
X19533000Y-6414285D01*
X19661571Y-6457142D01*
X19875857Y-6457142D01*
X13761571Y-16414285D02*
X13633000Y-16457142D01*
X13418714Y-16457142D01*
X13333000Y-16414285D01*
X13290142Y-16371428D01*
X13247285Y-16285714D01*
X13247285Y-16200000D01*
X13290142Y-16114285D01*
X13333000Y-16071428D01*
X13418714Y-16028571D01*
X13590142Y-15985714D01*
X13675857Y-15942857D01*
X13718714Y-15900000D01*
X13761571Y-15814285D01*
X13761571Y-15728571D01*
X13718714Y-15642857D01*
X13675857Y-15600000D01*
X13590142Y-15557142D01*
X13375857Y-15557142D01*
X13247285Y-15600000D01*
X12690142Y-16028571D02*
X12690142Y-16457142D01*
X12990142Y-15557142D02*
X12690142Y-16028571D01*
X12390142Y-15557142D01*
X12133000Y-16414285D02*
X12004428Y-16457142D01*
X11790142Y-16457142D01*
X11704428Y-16414285D01*
X11661571Y-16371428D01*
X11618714Y-16285714D01*
X11618714Y-16200000D01*
X11661571Y-16114285D01*
X11704428Y-16071428D01*
X11790142Y-16028571D01*
X11961571Y-15985714D01*
X12047285Y-15942857D01*
X12090142Y-15900000D01*
X12133000Y-15814285D01*
X12133000Y-15728571D01*
X12090142Y-15642857D01*
X12047285Y-15600000D01*
X11961571Y-15557142D01*
X11747285Y-15557142D01*
X11618714Y-15600000D01*
X21761571Y-16414285D02*
X21633000Y-16457142D01*
X21418714Y-16457142D01*
X21333000Y-16414285D01*
X21290142Y-16371428D01*
X21247285Y-16285714D01*
X21247285Y-16200000D01*
X21290142Y-16114285D01*
X21333000Y-16071428D01*
X21418714Y-16028571D01*
X21590142Y-15985714D01*
X21675857Y-15942857D01*
X21718714Y-15900000D01*
X21761571Y-15814285D01*
X21761571Y-15728571D01*
X21718714Y-15642857D01*
X21675857Y-15600000D01*
X21590142Y-15557142D01*
X21375857Y-15557142D01*
X21247285Y-15600000D01*
X20690142Y-16028571D02*
X20690142Y-16457142D01*
X20990142Y-15557142D02*
X20690142Y-16028571D01*
X20390142Y-15557142D01*
X20133000Y-16414285D02*
X20004428Y-16457142D01*
X19790142Y-16457142D01*
X19704428Y-16414285D01*
X19661571Y-16371428D01*
X19618714Y-16285714D01*
X19618714Y-16200000D01*
X19661571Y-16114285D01*
X19704428Y-16071428D01*
X19790142Y-16028571D01*
X19961571Y-15985714D01*
X20047285Y-15942857D01*
X20090142Y-15900000D01*
X20133000Y-15814285D01*
X20133000Y-15728571D01*
X20090142Y-15642857D01*
X20047285Y-15600000D01*
X19961571Y-15557142D01*
X19747285Y-15557142D01*
X19618714Y-15600000D01*
X13247285Y-7600000D02*
X13333000Y-7557142D01*
X13461571Y-7557142D01*
X13590142Y-7600000D01*
X13675857Y-7685714D01*
X13718714Y-7771428D01*
X13761571Y-7942857D01*
X13761571Y-8071428D01*
X13718714Y-8242857D01*
X13675857Y-8328571D01*
X13590142Y-8414285D01*
X13461571Y-8457142D01*
X13375857Y-8457142D01*
X13247285Y-8414285D01*
X13204428Y-8371428D01*
X13204428Y-8071428D01*
X13375857Y-8071428D01*
X12818714Y-8457142D02*
X12818714Y-7557142D01*
X12304428Y-8457142D01*
X12304428Y-7557142D01*
X11875857Y-8457142D02*
X11875857Y-7557142D01*
X11661571Y-7557142D01*
X11533000Y-7600000D01*
X11447285Y-7685714D01*
X11404428Y-7771428D01*
X11361571Y-7942857D01*
X11361571Y-8071428D01*
X11404428Y-8242857D01*
X11447285Y-8328571D01*
X11533000Y-8414285D01*
X11661571Y-8457142D01*
X11875857Y-8457142D01*
X21247285Y-7600000D02*
X21333000Y-7557142D01*
X21461571Y-7557142D01*
X21590142Y-7600000D01*
X21675857Y-7685714D01*
X21718714Y-7771428D01*
X21761571Y-7942857D01*
X21761571Y-8071428D01*
X21718714Y-8242857D01*
X21675857Y-8328571D01*
X21590142Y-8414285D01*
X21461571Y-8457142D01*
X21375857Y-8457142D01*
X21247285Y-8414285D01*
X21204428Y-8371428D01*
X21204428Y-8071428D01*
X21375857Y-8071428D01*
X20818714Y-8457142D02*
X20818714Y-7557142D01*
X20304428Y-8457142D01*
X20304428Y-7557142D01*
X19875857Y-8457142D02*
X19875857Y-7557142D01*
X19661571Y-7557142D01*
X19533000Y-7600000D01*
X19447285Y-7685714D01*
X19404428Y-7771428D01*
X19361571Y-7942857D01*
X19361571Y-8071428D01*
X19404428Y-8242857D01*
X19447285Y-8328571D01*
X19533000Y-8414285D01*
X19661571Y-8457142D01*
X19875857Y-8457142D01*
X13247285Y-9600000D02*
X13333000Y-9557142D01*
X13461571Y-9557142D01*
X13590142Y-9600000D01*
X13675857Y-9685714D01*
X13718714Y-9771428D01*
X13761571Y-9942857D01*
X13761571Y-10071428D01*
X13718714Y-10242857D01*
X13675857Y-10328571D01*
X13590142Y-10414285D01*
X13461571Y-10457142D01*
X13375857Y-10457142D01*
X13247285Y-10414285D01*
X13204428Y-10371428D01*
X13204428Y-10071428D01*
X13375857Y-10071428D01*
X12818714Y-10457142D02*
X12818714Y-9557142D01*
X12304428Y-10457142D01*
X12304428Y-9557142D01*
X11875857Y-10457142D02*
X11875857Y-9557142D01*
X11661571Y-9557142D01*
X11533000Y-9600000D01*
X11447285Y-9685714D01*
X11404428Y-9771428D01*
X11361571Y-9942857D01*
X11361571Y-10071428D01*
X11404428Y-10242857D01*
X11447285Y-10328571D01*
X11533000Y-10414285D01*
X11661571Y-10457142D01*
X11875857Y-10457142D01*
X21247285Y-9600000D02*
X21333000Y-9557142D01*
X21461571Y-9557142D01*
X21590142Y-9600000D01*
X21675857Y-9685714D01*
X21718714Y-9771428D01*
X21761571Y-9942857D01*
X21761571Y-10071428D01*
X21718714Y-10242857D01*
X21675857Y-10328571D01*
X21590142Y-10414285D01*
X21461571Y-10457142D01*
X21375857Y-10457142D01*
X21247285Y-10414285D01*
X21204428Y-10371428D01*
X21204428Y-10071428D01*
X21375857Y-10071428D01*
X20818714Y-10457142D02*
X20818714Y-9557142D01*
X20304428Y-10457142D01*
X20304428Y-9557142D01*
X19875857Y-10457142D02*
X19875857Y-9557142D01*
X19661571Y-9557142D01*
X19533000Y-9600000D01*
X19447285Y-9685714D01*
X19404428Y-9771428D01*
X19361571Y-9942857D01*
X19361571Y-10071428D01*
X19404428Y-10242857D01*
X19447285Y-10328571D01*
X19533000Y-10414285D01*
X19661571Y-10457142D01*
X19875857Y-10457142D01*
X13847285Y-3557142D02*
X13547285Y-4457142D01*
X13247285Y-3557142D01*
X12947285Y-3557142D02*
X12947285Y-4285714D01*
X12904428Y-4371428D01*
X12861571Y-4414285D01*
X12775857Y-4457142D01*
X12604428Y-4457142D01*
X12518714Y-4414285D01*
X12475857Y-4371428D01*
X12433000Y-4285714D01*
X12433000Y-3557142D01*
X12047285Y-4414285D02*
X11918714Y-4457142D01*
X11704428Y-4457142D01*
X11618714Y-4414285D01*
X11575857Y-4371428D01*
X11533000Y-4285714D01*
X11533000Y-4200000D01*
X11575857Y-4114285D01*
X11618714Y-4071428D01*
X11704428Y-4028571D01*
X11875857Y-3985714D01*
X11961571Y-3942857D01*
X12004428Y-3900000D01*
X12047285Y-3814285D01*
X12047285Y-3728571D01*
X12004428Y-3642857D01*
X11961571Y-3600000D01*
X11875857Y-3557142D01*
X11661571Y-3557142D01*
X11533000Y-3600000D01*
X10847285Y-3985714D02*
X10718714Y-4028571D01*
X10675857Y-4071428D01*
X10633000Y-4157142D01*
X10633000Y-4285714D01*
X10675857Y-4371428D01*
X10718714Y-4414285D01*
X10804428Y-4457142D01*
X11147285Y-4457142D01*
X11147285Y-3557142D01*
X10847285Y-3557142D01*
X10761571Y-3600000D01*
X10718714Y-3642857D01*
X10675857Y-3728571D01*
X10675857Y-3814285D01*
X10718714Y-3900000D01*
X10761571Y-3942857D01*
X10847285Y-3985714D01*
X11147285Y-3985714D01*
X21847285Y-3557142D02*
X21547285Y-4457142D01*
X21247285Y-3557142D01*
X20947285Y-3557142D02*
X20947285Y-4285714D01*
X20904428Y-4371428D01*
X20861571Y-4414285D01*
X20775857Y-4457142D01*
X20604428Y-4457142D01*
X20518714Y-4414285D01*
X20475857Y-4371428D01*
X20433000Y-4285714D01*
X20433000Y-3557142D01*
X20047285Y-4414285D02*
X19918714Y-4457142D01*
X19704428Y-4457142D01*
X19618714Y-4414285D01*
X19575857Y-4371428D01*
X19533000Y-4285714D01*
X19533000Y-4200000D01*
X19575857Y-4114285D01*
X19618714Y-4071428D01*
X19704428Y-4028571D01*
X19875857Y-3985714D01*
X19961571Y-3942857D01*
X20004428Y-3900000D01*
X20047285Y-3814285D01*
X20047285Y-3728571D01*
X20004428Y-3642857D01*
X19961571Y-3600000D01*
X19875857Y-3557142D01*
X19661571Y-3557142D01*
X19533000Y-3600000D01*
X18847285Y-3985714D02*
X18718714Y-4028571D01*
X18675857Y-4071428D01*
X18633000Y-4157142D01*
X18633000Y-4285714D01*
X18675857Y-4371428D01*
X18718714Y-4414285D01*
X18804428Y-4457142D01*
X19147285Y-4457142D01*
X19147285Y-3557142D01*
X18847285Y-3557142D01*
X18761571Y-3600000D01*
X18718714Y-3642857D01*
X18675857Y-3728571D01*
X18675857Y-3814285D01*
X18718714Y-3900000D01*
X18761571Y-3942857D01*
X18847285Y-3985714D01*
X19147285Y-3985714D01*
X13761571Y-14414285D02*
X13633000Y-14457142D01*
X13418714Y-14457142D01*
X13333000Y-14414285D01*
X13290142Y-14371428D01*
X13247285Y-14285714D01*
X13247285Y-14200000D01*
X13290142Y-14114285D01*
X13333000Y-14071428D01*
X13418714Y-14028571D01*
X13590142Y-13985714D01*
X13675857Y-13942857D01*
X13718714Y-13900000D01*
X13761571Y-13814285D01*
X13761571Y-13728571D01*
X13718714Y-13642857D01*
X13675857Y-13600000D01*
X13590142Y-13557142D01*
X13375857Y-13557142D01*
X13247285Y-13600000D01*
X12690142Y-14028571D02*
X12690142Y-14457142D01*
X12990142Y-13557142D02*
X12690142Y-14028571D01*
X12390142Y-13557142D01*
X12133000Y-14414285D02*
X12004428Y-14457142D01*
X11790142Y-14457142D01*
X11704428Y-14414285D01*
X11661571Y-14371428D01*
X11618714Y-14285714D01*
X11618714Y-14200000D01*
X11661571Y-14114285D01*
X11704428Y-14071428D01*
X11790142Y-14028571D01*
X11961571Y-13985714D01*
X12047285Y-13942857D01*
X12090142Y-13900000D01*
X12133000Y-13814285D01*
X12133000Y-13728571D01*
X12090142Y-13642857D01*
X12047285Y-13600000D01*
X11961571Y-13557142D01*
X11747285Y-13557142D01*
X11618714Y-13600000D01*
X21761571Y-14414285D02*
X21633000Y-14457142D01*
X21418714Y-14457142D01*
X21333000Y-14414285D01*
X21290142Y-14371428D01*
X21247285Y-14285714D01*
X21247285Y-14200000D01*
X21290142Y-14114285D01*
X21333000Y-14071428D01*
X21418714Y-14028571D01*
X21590142Y-13985714D01*
X21675857Y-13942857D01*
X21718714Y-13900000D01*
X21761571Y-13814285D01*
X21761571Y-13728571D01*
X21718714Y-13642857D01*
X21675857Y-13600000D01*
X21590142Y-13557142D01*
X21375857Y-13557142D01*
X21247285Y-13600000D01*
X20690142Y-14028571D02*
X20690142Y-14457142D01*
X20990142Y-13557142D02*
X20690142Y-14028571D01*
X20390142Y-13557142D01*
X20133000Y-14414285D02*
X20004428Y-14457142D01*
X19790142Y-14457142D01*
X19704428Y-14414285D01*
X19661571Y-14371428D01*
X19618714Y-14285714D01*
X19618714Y-14200000D01*
X19661571Y-14114285D01*
X19704428Y-14071428D01*
X19790142Y-14028571D01*
X19961571Y-13985714D01*
X20047285Y-13942857D01*
X20090142Y-13900000D01*
X20133000Y-13814285D01*
X20133000Y-13728571D01*
X20090142Y-13642857D01*
X20047285Y-13600000D01*
X19961571Y-13557142D01*
X19747285Y-13557142D01*
X19618714Y-13600000D01*
X13847285Y-1557142D02*
X13547285Y-2457142D01*
X13247285Y-1557142D01*
X12947285Y-1557142D02*
X12947285Y-2285714D01*
X12904428Y-2371428D01*
X12861571Y-2414285D01*
X12775857Y-2457142D01*
X12604428Y-2457142D01*
X12518714Y-2414285D01*
X12475857Y-2371428D01*
X12433000Y-2285714D01*
X12433000Y-1557142D01*
X12047285Y-2414285D02*
X11918714Y-2457142D01*
X11704428Y-2457142D01*
X11618714Y-2414285D01*
X11575857Y-2371428D01*
X11533000Y-2285714D01*
X11533000Y-2200000D01*
X11575857Y-2114285D01*
X11618714Y-2071428D01*
X11704428Y-2028571D01*
X11875857Y-1985714D01*
X11961571Y-1942857D01*
X12004428Y-1900000D01*
X12047285Y-1814285D01*
X12047285Y-1728571D01*
X12004428Y-1642857D01*
X11961571Y-1600000D01*
X11875857Y-1557142D01*
X11661571Y-1557142D01*
X11533000Y-1600000D01*
X10847285Y-1985714D02*
X10718714Y-2028571D01*
X10675857Y-2071428D01*
X10633000Y-2157142D01*
X10633000Y-2285714D01*
X10675857Y-2371428D01*
X10718714Y-2414285D01*
X10804428Y-2457142D01*
X11147285Y-2457142D01*
X11147285Y-1557142D01*
X10847285Y-1557142D01*
X10761571Y-1600000D01*
X10718714Y-1642857D01*
X10675857Y-1728571D01*
X10675857Y-1814285D01*
X10718714Y-1900000D01*
X10761571Y-1942857D01*
X10847285Y-1985714D01*
X11147285Y-1985714D01*
X21847285Y-1557142D02*
X21547285Y-2457142D01*
X21247285Y-1557142D01*
X20947285Y-1557142D02*
X20947285Y-2285714D01*
X20904428Y-2371428D01*
X20861571Y-2414285D01*
X20775857Y-2457142D01*
X20604428Y-2457142D01*
X20518714Y-2414285D01*
X20475857Y-2371428D01*
X20433000Y-2285714D01*
X20433000Y-1557142D01*
X20047285Y-2414285D02*
X19918714Y-2457142D01*
X19704428Y-2457142D01*
X19618714Y-2414285D01*
X19575857Y-2371428D01*
X19533000Y-2285714D01*
X19533000Y-2200000D01*
X19575857Y-2114285D01*
X19618714Y-2071428D01*
X19704428Y-2028571D01*
X19875857Y-1985714D01*
X19961571Y-1942857D01*
X20004428Y-1900000D01*
X20047285Y-1814285D01*
X20047285Y-1728571D01*
X20004428Y-1642857D01*
X19961571Y-1600000D01*
X19875857Y-1557142D01*
X19661571Y-1557142D01*
X19533000Y-1600000D01*
X18847285Y-1985714D02*
X18718714Y-2028571D01*
X18675857Y-2071428D01*
X18633000Y-2157142D01*
X18633000Y-2285714D01*
X18675857Y-2371428D01*
X18718714Y-2414285D01*
X18804428Y-2457142D01*
X19147285Y-2457142D01*
X19147285Y-1557142D01*
X18847285Y-1557142D01*
X18761571Y-1600000D01*
X18718714Y-1642857D01*
X18675857Y-1728571D01*
X18675857Y-1814285D01*
X18718714Y-1900000D01*
X18761571Y-1942857D01*
X18847285Y-1985714D01*
X19147285Y-1985714D01*
X13761571Y-12414285D02*
X13633000Y-12457142D01*
X13418714Y-12457142D01*
X13333000Y-12414285D01*
X13290142Y-12371428D01*
X13247285Y-12285714D01*
X13247285Y-12200000D01*
X13290142Y-12114285D01*
X13333000Y-12071428D01*
X13418714Y-12028571D01*
X13590142Y-11985714D01*
X13675857Y-11942857D01*
X13718714Y-11900000D01*
X13761571Y-11814285D01*
X13761571Y-11728571D01*
X13718714Y-11642857D01*
X13675857Y-11600000D01*
X13590142Y-11557142D01*
X13375857Y-11557142D01*
X13247285Y-11600000D01*
X12690142Y-12028571D02*
X12690142Y-12457142D01*
X12990142Y-11557142D02*
X12690142Y-12028571D01*
X12390142Y-11557142D01*
X12133000Y-12414285D02*
X12004428Y-12457142D01*
X11790142Y-12457142D01*
X11704428Y-12414285D01*
X11661571Y-12371428D01*
X11618714Y-12285714D01*
X11618714Y-12200000D01*
X11661571Y-12114285D01*
X11704428Y-12071428D01*
X11790142Y-12028571D01*
X11961571Y-11985714D01*
X12047285Y-11942857D01*
X12090142Y-11900000D01*
X12133000Y-11814285D01*
X12133000Y-11728571D01*
X12090142Y-11642857D01*
X12047285Y-11600000D01*
X11961571Y-11557142D01*
X11747285Y-11557142D01*
X11618714Y-11600000D01*
X21761571Y-12414285D02*
X21633000Y-12457142D01*
X21418714Y-12457142D01*
X21333000Y-12414285D01*
X21290142Y-12371428D01*
X21247285Y-12285714D01*
X21247285Y-12200000D01*
X21290142Y-12114285D01*
X21333000Y-12071428D01*
X21418714Y-12028571D01*
X21590142Y-11985714D01*
X21675857Y-11942857D01*
X21718714Y-11900000D01*
X21761571Y-11814285D01*
X21761571Y-11728571D01*
X21718714Y-11642857D01*
X21675857Y-11600000D01*
X21590142Y-11557142D01*
X21375857Y-11557142D01*
X21247285Y-11600000D01*
X20690142Y-12028571D02*
X20690142Y-12457142D01*
X20990142Y-11557142D02*
X20690142Y-12028571D01*
X20390142Y-11557142D01*
X20133000Y-12414285D02*
X20004428Y-12457142D01*
X19790142Y-12457142D01*
X19704428Y-12414285D01*
X19661571Y-12371428D01*
X19618714Y-12285714D01*
X19618714Y-12200000D01*
X19661571Y-12114285D01*
X19704428Y-12071428D01*
X19790142Y-12028571D01*
X19961571Y-11985714D01*
X20047285Y-11942857D01*
X20090142Y-11900000D01*
X20133000Y-11814285D01*
X20133000Y-11728571D01*
X20090142Y-11642857D01*
X20047285Y-11600000D01*
X19961571Y-11557142D01*
X19747285Y-11557142D01*
X19618714Y-11600000D01*
X13761571Y-48414285D02*
X13633000Y-48457142D01*
X13418714Y-48457142D01*
X13333000Y-48414285D01*
X13290142Y-48371428D01*
X13247285Y-48285714D01*
X13247285Y-48200000D01*
X13290142Y-48114285D01*
X13333000Y-48071428D01*
X13418714Y-48028571D01*
X13590142Y-47985714D01*
X13675857Y-47942857D01*
X13718714Y-47900000D01*
X13761571Y-47814285D01*
X13761571Y-47728571D01*
X13718714Y-47642857D01*
X13675857Y-47600000D01*
X13590142Y-47557142D01*
X13375857Y-47557142D01*
X13247285Y-47600000D01*
X12861571Y-48457142D02*
X12861571Y-47557142D01*
X12433000Y-48457142D02*
X12433000Y-47557142D01*
X12133000Y-48200000D01*
X11833000Y-47557142D01*
X11833000Y-48457142D01*
X11404428Y-48114285D02*
X10718714Y-48114285D01*
X9818714Y-47600000D02*
X9904428Y-47557142D01*
X10033000Y-47557142D01*
X10161571Y-47600000D01*
X10247285Y-47685714D01*
X10290142Y-47771428D01*
X10333000Y-47942857D01*
X10333000Y-48071428D01*
X10290142Y-48242857D01*
X10247285Y-48328571D01*
X10161571Y-48414285D01*
X10033000Y-48457142D01*
X9947285Y-48457142D01*
X9818714Y-48414285D01*
X9775857Y-48371428D01*
X9775857Y-48071428D01*
X9947285Y-48071428D01*
X9390142Y-48457142D02*
X9390142Y-47557142D01*
X9047285Y-47557142D01*
X8961571Y-47600000D01*
X8918714Y-47642857D01*
X8875857Y-47728571D01*
X8875857Y-47857142D01*
X8918714Y-47942857D01*
X8961571Y-47985714D01*
X9047285Y-48028571D01*
X9390142Y-48028571D01*
X8533000Y-48414285D02*
X8404428Y-48457142D01*
X8190142Y-48457142D01*
X8104428Y-48414285D01*
X8061571Y-48371428D01*
X8018714Y-48285714D01*
X8018714Y-48200000D01*
X8061571Y-48114285D01*
X8104428Y-48071428D01*
X8190142Y-48028571D01*
X8361571Y-47985714D01*
X8447285Y-47942857D01*
X8490142Y-47900000D01*
X8533000Y-47814285D01*
X8533000Y-47728571D01*
X8490142Y-47642857D01*
X8447285Y-47600000D01*
X8361571Y-47557142D01*
X8147285Y-47557142D01*
X8018714Y-47600000D01*
X21761571Y-48414285D02*
X21633000Y-48457142D01*
X21418714Y-48457142D01*
X21333000Y-48414285D01*
X21290142Y-48371428D01*
X21247285Y-48285714D01*
X21247285Y-48200000D01*
X21290142Y-48114285D01*
X21333000Y-48071428D01*
X21418714Y-48028571D01*
X21590142Y-47985714D01*
X21675857Y-47942857D01*
X21718714Y-47900000D01*
X21761571Y-47814285D01*
X21761571Y-47728571D01*
X21718714Y-47642857D01*
X21675857Y-47600000D01*
X21590142Y-47557142D01*
X21375857Y-47557142D01*
X21247285Y-47600000D01*
X20861571Y-48457142D02*
X20861571Y-47557142D01*
X20433000Y-48457142D02*
X20433000Y-47557142D01*
X20133000Y-48200000D01*
X19833000Y-47557142D01*
X19833000Y-48457142D01*
X19404428Y-48114285D02*
X18718714Y-48114285D01*
X17818714Y-47600000D02*
X17904428Y-47557142D01*
X18033000Y-47557142D01*
X18161571Y-47600000D01*
X18247285Y-47685714D01*
X18290142Y-47771428D01*
X18333000Y-47942857D01*
X18333000Y-48071428D01*
X18290142Y-48242857D01*
X18247285Y-48328571D01*
X18161571Y-48414285D01*
X18033000Y-48457142D01*
X17947285Y-48457142D01*
X17818714Y-48414285D01*
X17775857Y-48371428D01*
X17775857Y-48071428D01*
X17947285Y-48071428D01*
X17390142Y-48457142D02*
X17390142Y-47557142D01*
X17047285Y-47557142D01*
X16961571Y-47600000D01*
X16918714Y-47642857D01*
X16875857Y-47728571D01*
X16875857Y-47857142D01*
X16918714Y-47942857D01*
X16961571Y-47985714D01*
X17047285Y-48028571D01*
X17390142Y-48028571D01*
X16533000Y-48414285D02*
X16404428Y-48457142D01*
X16190142Y-48457142D01*
X16104428Y-48414285D01*
X16061571Y-48371428D01*
X16018714Y-48285714D01*
X16018714Y-48200000D01*
X16061571Y-48114285D01*
X16104428Y-48071428D01*
X16190142Y-48028571D01*
X16361571Y-47985714D01*
X16447285Y-47942857D01*
X16490142Y-47900000D01*
X16533000Y-47814285D01*
X16533000Y-47728571D01*
X16490142Y-47642857D01*
X16447285Y-47600000D01*
X16361571Y-47557142D01*
X16147285Y-47557142D01*
X16018714Y-47600000D01*
X13247285Y-49600000D02*
X13333000Y-49557142D01*
X13461571Y-49557142D01*
X13590142Y-49600000D01*
X13675857Y-49685714D01*
X13718714Y-49771428D01*
X13761571Y-49942857D01*
X13761571Y-50071428D01*
X13718714Y-50242857D01*
X13675857Y-50328571D01*
X13590142Y-50414285D01*
X13461571Y-50457142D01*
X13375857Y-50457142D01*
X13247285Y-50414285D01*
X13204428Y-50371428D01*
X13204428Y-50071428D01*
X13375857Y-50071428D01*
X12818714Y-50457142D02*
X12818714Y-49557142D01*
X12304428Y-50457142D01*
X12304428Y-49557142D01*
X11875857Y-50457142D02*
X11875857Y-49557142D01*
X11661571Y-49557142D01*
X11533000Y-49600000D01*
X11447285Y-49685714D01*
X11404428Y-49771428D01*
X11361571Y-49942857D01*
X11361571Y-50071428D01*
X11404428Y-50242857D01*
X11447285Y-50328571D01*
X11533000Y-50414285D01*
X11661571Y-50457142D01*
X11875857Y-50457142D01*
X21761571Y-50414285D02*
X21633000Y-50457142D01*
X21418714Y-50457142D01*
X21333000Y-50414285D01*
X21290142Y-50371428D01*
X21247285Y-50285714D01*
X21247285Y-50200000D01*
X21290142Y-50114285D01*
X21333000Y-50071428D01*
X21418714Y-50028571D01*
X21590142Y-49985714D01*
X21675857Y-49942857D01*
X21718714Y-49900000D01*
X21761571Y-49814285D01*
X21761571Y-49728571D01*
X21718714Y-49642857D01*
X21675857Y-49600000D01*
X21590142Y-49557142D01*
X21375857Y-49557142D01*
X21247285Y-49600000D01*
X20861571Y-50457142D02*
X20861571Y-49557142D01*
X20433000Y-50457142D02*
X20433000Y-49557142D01*
X20133000Y-50200000D01*
X19833000Y-49557142D01*
X19833000Y-50457142D01*
X19404428Y-50114285D02*
X18718714Y-50114285D01*
X17775857Y-50457142D02*
X18075857Y-50028571D01*
X18290142Y-50457142D02*
X18290142Y-49557142D01*
X17947285Y-49557142D01*
X17861571Y-49600000D01*
X17818714Y-49642857D01*
X17775857Y-49728571D01*
X17775857Y-49857142D01*
X17818714Y-49942857D01*
X17861571Y-49985714D01*
X17947285Y-50028571D01*
X18290142Y-50028571D01*
X17090142Y-49985714D02*
X17390142Y-49985714D01*
X17390142Y-50457142D02*
X17390142Y-49557142D01*
X16961571Y-49557142D01*
X13290142Y-52457142D02*
X13718714Y-52457142D01*
X13718714Y-51557142D01*
X12990142Y-51985714D02*
X12690142Y-51985714D01*
X12561571Y-52457142D02*
X12990142Y-52457142D01*
X12990142Y-51557142D01*
X12561571Y-51557142D01*
X12175857Y-52457142D02*
X12175857Y-51557142D01*
X11961571Y-51557142D01*
X11833000Y-51600000D01*
X11747285Y-51685714D01*
X11704428Y-51771428D01*
X11661571Y-51942857D01*
X11661571Y-52071428D01*
X11704428Y-52242857D01*
X11747285Y-52328571D01*
X11833000Y-52414285D01*
X11961571Y-52457142D01*
X12175857Y-52457142D01*
X10804428Y-52457142D02*
X11318714Y-52457142D01*
X11061571Y-52457142D02*
X11061571Y-51557142D01*
X11147285Y-51685714D01*
X11233000Y-51771428D01*
X11318714Y-51814285D01*
X21718714Y-51557142D02*
X21718714Y-52285714D01*
X21675857Y-52371428D01*
X21633000Y-52414285D01*
X21547285Y-52457142D01*
X21375857Y-52457142D01*
X21290142Y-52414285D01*
X21247285Y-52371428D01*
X21204428Y-52285714D01*
X21204428Y-51557142D01*
X20818714Y-52414285D02*
X20690142Y-52457142D01*
X20475857Y-52457142D01*
X20390142Y-52414285D01*
X20347285Y-52371428D01*
X20304428Y-52285714D01*
X20304428Y-52200000D01*
X20347285Y-52114285D01*
X20390142Y-52071428D01*
X20475857Y-52028571D01*
X20647285Y-51985714D01*
X20733000Y-51942857D01*
X20775857Y-51900000D01*
X20818714Y-51814285D01*
X20818714Y-51728571D01*
X20775857Y-51642857D01*
X20733000Y-51600000D01*
X20647285Y-51557142D01*
X20433000Y-51557142D01*
X20304428Y-51600000D01*
X19618714Y-51985714D02*
X19490142Y-52028571D01*
X19447285Y-52071428D01*
X19404428Y-52157142D01*
X19404428Y-52285714D01*
X19447285Y-52371428D01*
X19490142Y-52414285D01*
X19575857Y-52457142D01*
X19918714Y-52457142D01*
X19918714Y-51557142D01*
X19618714Y-51557142D01*
X19533000Y-51600000D01*
X19490142Y-51642857D01*
X19447285Y-51728571D01*
X19447285Y-51814285D01*
X19490142Y-51900000D01*
X19533000Y-51942857D01*
X19618714Y-51985714D01*
X19918714Y-51985714D01*
X19018714Y-52114285D02*
X18333000Y-52114285D01*
X18033000Y-51557142D02*
X17518714Y-51557142D01*
X17775857Y-52457142D02*
X17775857Y-51557142D01*
X17304428Y-51557142D02*
X16704428Y-52457142D01*
X16704428Y-51557142D02*
X17304428Y-52457142D01*
X13290142Y-54457142D02*
X13718714Y-54457142D01*
X13718714Y-53557142D01*
X12990142Y-53985714D02*
X12690142Y-53985714D01*
X12561571Y-54457142D02*
X12990142Y-54457142D01*
X12990142Y-53557142D01*
X12561571Y-53557142D01*
X12175857Y-54457142D02*
X12175857Y-53557142D01*
X11961571Y-53557142D01*
X11833000Y-53600000D01*
X11747285Y-53685714D01*
X11704428Y-53771428D01*
X11661571Y-53942857D01*
X11661571Y-54071428D01*
X11704428Y-54242857D01*
X11747285Y-54328571D01*
X11833000Y-54414285D01*
X11961571Y-54457142D01*
X12175857Y-54457142D01*
X11318714Y-53642857D02*
X11275857Y-53600000D01*
X11190142Y-53557142D01*
X10975857Y-53557142D01*
X10890142Y-53600000D01*
X10847285Y-53642857D01*
X10804428Y-53728571D01*
X10804428Y-53814285D01*
X10847285Y-53942857D01*
X11361571Y-54457142D01*
X10804428Y-54457142D01*
X21718714Y-53557142D02*
X21718714Y-54285714D01*
X21675857Y-54371428D01*
X21633000Y-54414285D01*
X21547285Y-54457142D01*
X21375857Y-54457142D01*
X21290142Y-54414285D01*
X21247285Y-54371428D01*
X21204428Y-54285714D01*
X21204428Y-53557142D01*
X20818714Y-54414285D02*
X20690142Y-54457142D01*
X20475857Y-54457142D01*
X20390142Y-54414285D01*
X20347285Y-54371428D01*
X20304428Y-54285714D01*
X20304428Y-54200000D01*
X20347285Y-54114285D01*
X20390142Y-54071428D01*
X20475857Y-54028571D01*
X20647285Y-53985714D01*
X20733000Y-53942857D01*
X20775857Y-53900000D01*
X20818714Y-53814285D01*
X20818714Y-53728571D01*
X20775857Y-53642857D01*
X20733000Y-53600000D01*
X20647285Y-53557142D01*
X20433000Y-53557142D01*
X20304428Y-53600000D01*
X19618714Y-53985714D02*
X19490142Y-54028571D01*
X19447285Y-54071428D01*
X19404428Y-54157142D01*
X19404428Y-54285714D01*
X19447285Y-54371428D01*
X19490142Y-54414285D01*
X19575857Y-54457142D01*
X19918714Y-54457142D01*
X19918714Y-53557142D01*
X19618714Y-53557142D01*
X19533000Y-53600000D01*
X19490142Y-53642857D01*
X19447285Y-53728571D01*
X19447285Y-53814285D01*
X19490142Y-53900000D01*
X19533000Y-53942857D01*
X19618714Y-53985714D01*
X19918714Y-53985714D01*
X19018714Y-54114285D02*
X18333000Y-54114285D01*
X17390142Y-54457142D02*
X17690142Y-54028571D01*
X17904428Y-54457142D02*
X17904428Y-53557142D01*
X17561571Y-53557142D01*
X17475857Y-53600000D01*
X17433000Y-53642857D01*
X17390142Y-53728571D01*
X17390142Y-53857142D01*
X17433000Y-53942857D01*
X17475857Y-53985714D01*
X17561571Y-54028571D01*
X17904428Y-54028571D01*
X17090142Y-53557142D02*
X16490142Y-54457142D01*
X16490142Y-53557142D02*
X17090142Y-54457142D01*
X13290142Y-56457142D02*
X13718714Y-56457142D01*
X13718714Y-55557142D01*
X12990142Y-55985714D02*
X12690142Y-55985714D01*
X12561571Y-56457142D02*
X12990142Y-56457142D01*
X12990142Y-55557142D01*
X12561571Y-55557142D01*
X12175857Y-56457142D02*
X12175857Y-55557142D01*
X11961571Y-55557142D01*
X11833000Y-55600000D01*
X11747285Y-55685714D01*
X11704428Y-55771428D01*
X11661571Y-55942857D01*
X11661571Y-56071428D01*
X11704428Y-56242857D01*
X11747285Y-56328571D01*
X11833000Y-56414285D01*
X11961571Y-56457142D01*
X12175857Y-56457142D01*
X11361571Y-55557142D02*
X10804428Y-55557142D01*
X11104428Y-55900000D01*
X10975857Y-55900000D01*
X10890142Y-55942857D01*
X10847285Y-55985714D01*
X10804428Y-56071428D01*
X10804428Y-56285714D01*
X10847285Y-56371428D01*
X10890142Y-56414285D01*
X10975857Y-56457142D01*
X11233000Y-56457142D01*
X11318714Y-56414285D01*
X11361571Y-56371428D01*
X21718714Y-55557142D02*
X21718714Y-56285714D01*
X21675857Y-56371428D01*
X21633000Y-56414285D01*
X21547285Y-56457142D01*
X21375857Y-56457142D01*
X21290142Y-56414285D01*
X21247285Y-56371428D01*
X21204428Y-56285714D01*
X21204428Y-55557142D01*
X20818714Y-56414285D02*
X20690142Y-56457142D01*
X20475857Y-56457142D01*
X20390142Y-56414285D01*
X20347285Y-56371428D01*
X20304428Y-56285714D01*
X20304428Y-56200000D01*
X20347285Y-56114285D01*
X20390142Y-56071428D01*
X20475857Y-56028571D01*
X20647285Y-55985714D01*
X20733000Y-55942857D01*
X20775857Y-55900000D01*
X20818714Y-55814285D01*
X20818714Y-55728571D01*
X20775857Y-55642857D01*
X20733000Y-55600000D01*
X20647285Y-55557142D01*
X20433000Y-55557142D01*
X20304428Y-55600000D01*
X19618714Y-55985714D02*
X19490142Y-56028571D01*
X19447285Y-56071428D01*
X19404428Y-56157142D01*
X19404428Y-56285714D01*
X19447285Y-56371428D01*
X19490142Y-56414285D01*
X19575857Y-56457142D01*
X19918714Y-56457142D01*
X19918714Y-55557142D01*
X19618714Y-55557142D01*
X19533000Y-55600000D01*
X19490142Y-55642857D01*
X19447285Y-55728571D01*
X19447285Y-55814285D01*
X19490142Y-55900000D01*
X19533000Y-55942857D01*
X19618714Y-55985714D01*
X19918714Y-55985714D01*
X19018714Y-56114285D02*
X18333000Y-56114285D01*
X17904428Y-56457142D02*
X17904428Y-55557142D01*
X17690142Y-55557142D01*
X17561571Y-55600000D01*
X17475857Y-55685714D01*
X17433000Y-55771428D01*
X17390142Y-55942857D01*
X17390142Y-56071428D01*
X17433000Y-56242857D01*
X17475857Y-56328571D01*
X17561571Y-56414285D01*
X17690142Y-56457142D01*
X17904428Y-56457142D01*
X17004428Y-55985714D02*
X16704428Y-55985714D01*
X16575857Y-56457142D02*
X17004428Y-56457142D01*
X17004428Y-55557142D01*
X16575857Y-55557142D01*
X16318714Y-55557142D02*
X15804428Y-55557142D01*
X16061571Y-56457142D02*
X16061571Y-55557142D01*
X13761571Y-58414285D02*
X13633000Y-58457142D01*
X13418714Y-58457142D01*
X13333000Y-58414285D01*
X13290142Y-58371428D01*
X13247285Y-58285714D01*
X13247285Y-58200000D01*
X13290142Y-58114285D01*
X13333000Y-58071428D01*
X13418714Y-58028571D01*
X13590142Y-57985714D01*
X13675857Y-57942857D01*
X13718714Y-57900000D01*
X13761571Y-57814285D01*
X13761571Y-57728571D01*
X13718714Y-57642857D01*
X13675857Y-57600000D01*
X13590142Y-57557142D01*
X13375857Y-57557142D01*
X13247285Y-57600000D01*
X12947285Y-57557142D02*
X12733000Y-58457142D01*
X12561571Y-57814285D01*
X12390142Y-58457142D01*
X12175857Y-57557142D01*
X21761571Y-58414285D02*
X21633000Y-58457142D01*
X21418714Y-58457142D01*
X21333000Y-58414285D01*
X21290142Y-58371428D01*
X21247285Y-58285714D01*
X21247285Y-58200000D01*
X21290142Y-58114285D01*
X21333000Y-58071428D01*
X21418714Y-58028571D01*
X21590142Y-57985714D01*
X21675857Y-57942857D01*
X21718714Y-57900000D01*
X21761571Y-57814285D01*
X21761571Y-57728571D01*
X21718714Y-57642857D01*
X21675857Y-57600000D01*
X21590142Y-57557142D01*
X21375857Y-57557142D01*
X21247285Y-57600000D01*
X20861571Y-58457142D02*
X20861571Y-57557142D01*
X20433000Y-58457142D02*
X20433000Y-57557142D01*
X20133000Y-58200000D01*
X19833000Y-57557142D01*
X19833000Y-58457142D01*
X19404428Y-58114285D02*
X18718714Y-58114285D01*
X18418714Y-57557142D02*
X17904428Y-57557142D01*
X18161571Y-58457142D02*
X18161571Y-57557142D01*
X17690142Y-57557142D02*
X17090142Y-58457142D01*
X17090142Y-57557142D02*
X17690142Y-58457142D01*
X13761571Y-60414285D02*
X13633000Y-60457142D01*
X13418714Y-60457142D01*
X13333000Y-60414285D01*
X13290142Y-60371428D01*
X13247285Y-60285714D01*
X13247285Y-60200000D01*
X13290142Y-60114285D01*
X13333000Y-60071428D01*
X13418714Y-60028571D01*
X13590142Y-59985714D01*
X13675857Y-59942857D01*
X13718714Y-59900000D01*
X13761571Y-59814285D01*
X13761571Y-59728571D01*
X13718714Y-59642857D01*
X13675857Y-59600000D01*
X13590142Y-59557142D01*
X13375857Y-59557142D01*
X13247285Y-59600000D01*
X12861571Y-60457142D02*
X12861571Y-59557142D01*
X12433000Y-60457142D02*
X12433000Y-59557142D01*
X12133000Y-60200000D01*
X11833000Y-59557142D01*
X11833000Y-60457142D01*
X11404428Y-60114285D02*
X10718714Y-60114285D01*
X10333000Y-60414285D02*
X10204428Y-60457142D01*
X9990142Y-60457142D01*
X9904428Y-60414285D01*
X9861571Y-60371428D01*
X9818714Y-60285714D01*
X9818714Y-60200000D01*
X9861571Y-60114285D01*
X9904428Y-60071428D01*
X9990142Y-60028571D01*
X10161571Y-59985714D01*
X10247285Y-59942857D01*
X10290142Y-59900000D01*
X10333000Y-59814285D01*
X10333000Y-59728571D01*
X10290142Y-59642857D01*
X10247285Y-59600000D01*
X10161571Y-59557142D01*
X9947285Y-59557142D01*
X9818714Y-59600000D01*
X9561571Y-59557142D02*
X9047285Y-59557142D01*
X9304428Y-60457142D02*
X9304428Y-59557142D01*
X8790142Y-60200000D02*
X8361571Y-60200000D01*
X8875857Y-60457142D02*
X8575857Y-59557142D01*
X8275857Y-60457142D01*
X8104428Y-59557142D02*
X7590142Y-59557142D01*
X7847285Y-60457142D02*
X7847285Y-59557142D01*
X21761571Y-60414285D02*
X21633000Y-60457142D01*
X21418714Y-60457142D01*
X21333000Y-60414285D01*
X21290142Y-60371428D01*
X21247285Y-60285714D01*
X21247285Y-60200000D01*
X21290142Y-60114285D01*
X21333000Y-60071428D01*
X21418714Y-60028571D01*
X21590142Y-59985714D01*
X21675857Y-59942857D01*
X21718714Y-59900000D01*
X21761571Y-59814285D01*
X21761571Y-59728571D01*
X21718714Y-59642857D01*
X21675857Y-59600000D01*
X21590142Y-59557142D01*
X21375857Y-59557142D01*
X21247285Y-59600000D01*
X20861571Y-60457142D02*
X20861571Y-59557142D01*
X20433000Y-60457142D02*
X20433000Y-59557142D01*
X20133000Y-60200000D01*
X19833000Y-59557142D01*
X19833000Y-60457142D01*
X19404428Y-60114285D02*
X18718714Y-60114285D01*
X17775857Y-60457142D02*
X18075857Y-60028571D01*
X18290142Y-60457142D02*
X18290142Y-59557142D01*
X17947285Y-59557142D01*
X17861571Y-59600000D01*
X17818714Y-59642857D01*
X17775857Y-59728571D01*
X17775857Y-59857142D01*
X17818714Y-59942857D01*
X17861571Y-59985714D01*
X17947285Y-60028571D01*
X18290142Y-60028571D01*
X17475857Y-59557142D02*
X16875857Y-60457142D01*
X16875857Y-59557142D02*
X17475857Y-60457142D01*
X13761571Y-62414285D02*
X13633000Y-62457142D01*
X13418714Y-62457142D01*
X13333000Y-62414285D01*
X13290142Y-62371428D01*
X13247285Y-62285714D01*
X13247285Y-62200000D01*
X13290142Y-62114285D01*
X13333000Y-62071428D01*
X13418714Y-62028571D01*
X13590142Y-61985714D01*
X13675857Y-61942857D01*
X13718714Y-61900000D01*
X13761571Y-61814285D01*
X13761571Y-61728571D01*
X13718714Y-61642857D01*
X13675857Y-61600000D01*
X13590142Y-61557142D01*
X13375857Y-61557142D01*
X13247285Y-61600000D01*
X12861571Y-62457142D02*
X12861571Y-61557142D01*
X12433000Y-62457142D02*
X12433000Y-61557142D01*
X12133000Y-62200000D01*
X11833000Y-61557142D01*
X11833000Y-62457142D01*
X11404428Y-62114285D02*
X10718714Y-62114285D01*
X10290142Y-62457142D02*
X10290142Y-61557142D01*
X9947285Y-61557142D01*
X9861571Y-61600000D01*
X9818714Y-61642857D01*
X9775857Y-61728571D01*
X9775857Y-61857142D01*
X9818714Y-61942857D01*
X9861571Y-61985714D01*
X9947285Y-62028571D01*
X10290142Y-62028571D01*
X9475857Y-61557142D02*
X9261571Y-62457142D01*
X9090142Y-61814285D01*
X8918714Y-62457142D01*
X8704428Y-61557142D01*
X7847285Y-62457142D02*
X8147285Y-62028571D01*
X8361571Y-62457142D02*
X8361571Y-61557142D01*
X8018714Y-61557142D01*
X7933000Y-61600000D01*
X7890142Y-61642857D01*
X7847285Y-61728571D01*
X7847285Y-61857142D01*
X7890142Y-61942857D01*
X7933000Y-61985714D01*
X8018714Y-62028571D01*
X8361571Y-62028571D01*
X21804428Y-61557142D02*
X21247285Y-61557142D01*
X21547285Y-61900000D01*
X21418714Y-61900000D01*
X21333000Y-61942857D01*
X21290142Y-61985714D01*
X21247285Y-62071428D01*
X21247285Y-62285714D01*
X21290142Y-62371428D01*
X21333000Y-62414285D01*
X21418714Y-62457142D01*
X21675857Y-62457142D01*
X21761571Y-62414285D01*
X21804428Y-62371428D01*
X20990142Y-61557142D02*
X20690142Y-62457142D01*
X20390142Y-61557142D01*
X20175857Y-61557142D02*
X19618714Y-61557142D01*
X19918714Y-61900000D01*
X19790142Y-61900000D01*
X19704428Y-61942857D01*
X19661571Y-61985714D01*
X19618714Y-62071428D01*
X19618714Y-62285714D01*
X19661571Y-62371428D01*
X19704428Y-62414285D01*
X19790142Y-62457142D01*
X20047285Y-62457142D01*
X20133000Y-62414285D01*
X20175857Y-62371428D01*
%LPC*%
D13*
X18500000Y-28900000D03*
D14*
X8000000Y-44200000D03*
X9000000Y-44200000D03*
X10000000Y-44200000D03*
X11000000Y-44200000D03*
X12000000Y-44200000D03*
X13000000Y-44200000D03*
X14000000Y-44200000D03*
X15000000Y-44200000D03*
X16000000Y-44200000D03*
X17000000Y-44200000D03*
X18000000Y-44200000D03*
X19000000Y-44200000D03*
X20000000Y-44200000D03*
X21000000Y-44200000D03*
X22000000Y-44200000D03*
X23000000Y-44200000D03*
X24000000Y-44200000D03*
D15*
X28200000Y-40000000D03*
X28200000Y-39000000D03*
X28200000Y-38000000D03*
X28200000Y-37000000D03*
X28200000Y-36000000D03*
X28200000Y-35000000D03*
X28200000Y-34000000D03*
X28200000Y-33000000D03*
X28200000Y-32000000D03*
X28200000Y-31000000D03*
X28200000Y-30000000D03*
X28200000Y-29000000D03*
X28200000Y-28000000D03*
X28200000Y-27000000D03*
X28200000Y-26000000D03*
X28200000Y-25000000D03*
X28200000Y-24000000D03*
D14*
X24000000Y-19800000D03*
X23000000Y-19800000D03*
X22000000Y-19800000D03*
X21000000Y-19800000D03*
X20000000Y-19800000D03*
X19000000Y-19800000D03*
X18000000Y-19800000D03*
X17000000Y-19800000D03*
X16000000Y-19800000D03*
X15000000Y-19800000D03*
X14000000Y-19800000D03*
X13000000Y-19800000D03*
X12000000Y-19800000D03*
X11000000Y-19800000D03*
X10000000Y-19800000D03*
X9000000Y-19800000D03*
X8000000Y-19800000D03*
D15*
X3800000Y-24000000D03*
X3800000Y-25000000D03*
X3800000Y-26000000D03*
X3800000Y-27000000D03*
X3800000Y-28000000D03*
X3800000Y-29000000D03*
X3800000Y-30000000D03*
X3800000Y-31000000D03*
X3800000Y-32000000D03*
X3800000Y-33000000D03*
X3800000Y-34000000D03*
X3800000Y-35000000D03*
X3800000Y-36000000D03*
X3800000Y-37000000D03*
X3800000Y-38000000D03*
X3800000Y-39000000D03*
X3800000Y-40000000D03*
D16*
X650000Y-49000000D03*
X650000Y-45000000D03*
D17*
X4350000Y-17125000D03*
X4350000Y-21275000D03*
G36*
G01*
X22700000Y-16600000D02*
X22700000Y-15400000D01*
G75*
G02*
X22850000Y-15250000I150000J0D01*
G01*
X28550000Y-15250000D01*
G75*
G02*
X28700000Y-15400000I0J-150000D01*
G01*
X28700000Y-16600000D01*
G75*
G02*
X28550000Y-16750000I-150000J0D01*
G01*
X22850000Y-16750000D01*
G75*
G02*
X22700000Y-16600000I0J150000D01*
G01*
G37*
G36*
G01*
X22700000Y-14600000D02*
X22700000Y-13400000D01*
G75*
G02*
X22850000Y-13250000I150000J0D01*
G01*
X28550000Y-13250000D01*
G75*
G02*
X28700000Y-13400000I0J-150000D01*
G01*
X28700000Y-14600000D01*
G75*
G02*
X28550000Y-14750000I-150000J0D01*
G01*
X22850000Y-14750000D01*
G75*
G02*
X22700000Y-14600000I0J150000D01*
G01*
G37*
G36*
G01*
X22700000Y-12600000D02*
X22700000Y-11400000D01*
G75*
G02*
X22850000Y-11250000I150000J0D01*
G01*
X28550000Y-11250000D01*
G75*
G02*
X28700000Y-11400000I0J-150000D01*
G01*
X28700000Y-12600000D01*
G75*
G02*
X28550000Y-12750000I-150000J0D01*
G01*
X22850000Y-12750000D01*
G75*
G02*
X22700000Y-12600000I0J150000D01*
G01*
G37*
G36*
G01*
X22700000Y-10600000D02*
X22700000Y-9400000D01*
G75*
G02*
X22850000Y-9250000I150000J0D01*
G01*
X28550000Y-9250000D01*
G75*
G02*
X28700000Y-9400000I0J-150000D01*
G01*
X28700000Y-10600000D01*
G75*
G02*
X28550000Y-10750000I-150000J0D01*
G01*
X22850000Y-10750000D01*
G75*
G02*
X22700000Y-10600000I0J150000D01*
G01*
G37*
G36*
G01*
X22700000Y-8600000D02*
X22700000Y-7400000D01*
G75*
G02*
X22850000Y-7250000I150000J0D01*
G01*
X28550000Y-7250000D01*
G75*
G02*
X28700000Y-7400000I0J-150000D01*
G01*
X28700000Y-8600000D01*
G75*
G02*
X28550000Y-8750000I-150000J0D01*
G01*
X22850000Y-8750000D01*
G75*
G02*
X22700000Y-8600000I0J150000D01*
G01*
G37*
G36*
G01*
X22700000Y-6600000D02*
X22700000Y-5400000D01*
G75*
G02*
X22850000Y-5250000I150000J0D01*
G01*
X28550000Y-5250000D01*
G75*
G02*
X28700000Y-5400000I0J-150000D01*
G01*
X28700000Y-6600000D01*
G75*
G02*
X28550000Y-6750000I-150000J0D01*
G01*
X22850000Y-6750000D01*
G75*
G02*
X22700000Y-6600000I0J150000D01*
G01*
G37*
G36*
G01*
X22700000Y-4600000D02*
X22700000Y-3400000D01*
G75*
G02*
X22850000Y-3250000I150000J0D01*
G01*
X28550000Y-3250000D01*
G75*
G02*
X28700000Y-3400000I0J-150000D01*
G01*
X28700000Y-4600000D01*
G75*
G02*
X28550000Y-4750000I-150000J0D01*
G01*
X22850000Y-4750000D01*
G75*
G02*
X22700000Y-4600000I0J150000D01*
G01*
G37*
G36*
G01*
X22700000Y-2600000D02*
X22700000Y-1400000D01*
G75*
G02*
X22850000Y-1250000I150000J0D01*
G01*
X28550000Y-1250000D01*
G75*
G02*
X28700000Y-1400000I0J-150000D01*
G01*
X28700000Y-2600000D01*
G75*
G02*
X28550000Y-2750000I-150000J0D01*
G01*
X22850000Y-2750000D01*
G75*
G02*
X22700000Y-2600000I0J150000D01*
G01*
G37*
G36*
G01*
X22700000Y-62600000D02*
X22700000Y-61400000D01*
G75*
G02*
X22850000Y-61250000I150000J0D01*
G01*
X28550000Y-61250000D01*
G75*
G02*
X28700000Y-61400000I0J-150000D01*
G01*
X28700000Y-62600000D01*
G75*
G02*
X28550000Y-62750000I-150000J0D01*
G01*
X22850000Y-62750000D01*
G75*
G02*
X22700000Y-62600000I0J150000D01*
G01*
G37*
G36*
G01*
X22700000Y-60600000D02*
X22700000Y-59400000D01*
G75*
G02*
X22850000Y-59250000I150000J0D01*
G01*
X28550000Y-59250000D01*
G75*
G02*
X28700000Y-59400000I0J-150000D01*
G01*
X28700000Y-60600000D01*
G75*
G02*
X28550000Y-60750000I-150000J0D01*
G01*
X22850000Y-60750000D01*
G75*
G02*
X22700000Y-60600000I0J150000D01*
G01*
G37*
G36*
G01*
X22700000Y-58600000D02*
X22700000Y-57400000D01*
G75*
G02*
X22850000Y-57250000I150000J0D01*
G01*
X28550000Y-57250000D01*
G75*
G02*
X28700000Y-57400000I0J-150000D01*
G01*
X28700000Y-58600000D01*
G75*
G02*
X28550000Y-58750000I-150000J0D01*
G01*
X22850000Y-58750000D01*
G75*
G02*
X22700000Y-58600000I0J150000D01*
G01*
G37*
G36*
G01*
X22700000Y-56600000D02*
X22700000Y-55400000D01*
G75*
G02*
X22850000Y-55250000I150000J0D01*
G01*
X28550000Y-55250000D01*
G75*
G02*
X28700000Y-55400000I0J-150000D01*
G01*
X28700000Y-56600000D01*
G75*
G02*
X28550000Y-56750000I-150000J0D01*
G01*
X22850000Y-56750000D01*
G75*
G02*
X22700000Y-56600000I0J150000D01*
G01*
G37*
G36*
G01*
X22700000Y-54600000D02*
X22700000Y-53400000D01*
G75*
G02*
X22850000Y-53250000I150000J0D01*
G01*
X28550000Y-53250000D01*
G75*
G02*
X28700000Y-53400000I0J-150000D01*
G01*
X28700000Y-54600000D01*
G75*
G02*
X28550000Y-54750000I-150000J0D01*
G01*
X22850000Y-54750000D01*
G75*
G02*
X22700000Y-54600000I0J150000D01*
G01*
G37*
G36*
G01*
X22700000Y-52600000D02*
X22700000Y-51400000D01*
G75*
G02*
X22850000Y-51250000I150000J0D01*
G01*
X28550000Y-51250000D01*
G75*
G02*
X28700000Y-51400000I0J-150000D01*
G01*
X28700000Y-52600000D01*
G75*
G02*
X28550000Y-52750000I-150000J0D01*
G01*
X22850000Y-52750000D01*
G75*
G02*
X22700000Y-52600000I0J150000D01*
G01*
G37*
G36*
G01*
X22700000Y-50600000D02*
X22700000Y-49400000D01*
G75*
G02*
X22850000Y-49250000I150000J0D01*
G01*
X28550000Y-49250000D01*
G75*
G02*
X28700000Y-49400000I0J-150000D01*
G01*
X28700000Y-50600000D01*
G75*
G02*
X28550000Y-50750000I-150000J0D01*
G01*
X22850000Y-50750000D01*
G75*
G02*
X22700000Y-50600000I0J150000D01*
G01*
G37*
G36*
G01*
X22700000Y-48600000D02*
X22700000Y-47400000D01*
G75*
G02*
X22850000Y-47250000I150000J0D01*
G01*
X28550000Y-47250000D01*
G75*
G02*
X28700000Y-47400000I0J-150000D01*
G01*
X28700000Y-48600000D01*
G75*
G02*
X28550000Y-48750000I-150000J0D01*
G01*
X22850000Y-48750000D01*
G75*
G02*
X22700000Y-48600000I0J150000D01*
G01*
G37*
M02*
