G04 #@! TF.GenerationSoftware,KiCad,Pcbnew,(5.1.9)-1*
G04 #@! TF.CreationDate,2023-01-31T21:08:26+01:00*
G04 #@! TF.ProjectId,Side,53696465-2e6b-4696-9361-645f70636258,rev?*
G04 #@! TF.SameCoordinates,PXd59f80PYd59f80*
G04 #@! TF.FileFunction,Legend,Top*
G04 #@! TF.FilePolarity,Positive*
%FSLAX46Y46*%
G04 Gerber Fmt 4.6, Leading zero omitted, Abs format (unit mm)*
G04 Created by KiCad (PCBNEW (5.1.9)-1) date 2023-01-31 21:08:26*
%MOMM*%
%LPD*%
G01*
G04 APERTURE LIST*
%ADD10C,0.010000*%
%ADD11C,0.050000*%
%ADD12C,0.080000*%
%ADD13C,0.060000*%
%ADD14C,0.100000*%
%ADD15C,0.200000*%
%ADD16C,0.150000*%
%ADD17C,0.120000*%
%ADD18C,0.070000*%
%ADD19C,0.030000*%
%ADD20R,0.900000X0.450000*%
%ADD21R,0.900000X0.350000*%
%ADD22R,1.000000X0.700000*%
%ADD23R,2.000000X1.200000*%
%ADD24R,2.000000X0.650000*%
%ADD25O,0.800000X0.800000*%
%ADD26R,1.000000X1.600000*%
%ADD27R,0.900000X0.250000*%
%ADD28R,0.250000X0.900000*%
%ADD29R,0.900000X0.270000*%
%ADD30R,0.800000X0.800000*%
%ADD31R,0.700000X1.000000*%
%ADD32R,2.000000X0.400000*%
%ADD33C,0.600000*%
%ADD34R,2.000000X2.000000*%
%ADD35R,1.100000X0.400000*%
%ADD36R,1.000000X0.600000*%
%ADD37R,1.200000X1.000000*%
%ADD38R,1.700000X1.200000*%
%ADD39R,2.400000X1.600000*%
%ADD40R,2.800000X2.800000*%
%ADD41R,1.200000X0.550000*%
%ADD42R,1.300000X1.000000*%
G04 APERTURE END LIST*
D10*
G36*
X23468264Y-30052744D02*
G01*
X23473204Y-30041078D01*
X23476560Y-30035012D01*
X23489005Y-30023398D01*
X23516860Y-30003266D01*
X23557793Y-29975997D01*
X23609471Y-29942972D01*
X23669563Y-29905571D01*
X23735738Y-29865175D01*
X23805663Y-29823164D01*
X23877008Y-29780921D01*
X23947439Y-29739824D01*
X24014626Y-29701256D01*
X24076238Y-29666595D01*
X24129941Y-29637225D01*
X24173405Y-29614524D01*
X24204298Y-29599874D01*
X24220214Y-29594657D01*
X24239766Y-29599776D01*
X24274126Y-29614806D01*
X24321030Y-29638635D01*
X24378214Y-29670154D01*
X24402554Y-29684139D01*
X24557519Y-29774118D01*
X24625728Y-29671439D01*
X24715082Y-29547276D01*
X24806621Y-29440990D01*
X24897970Y-29353961D01*
X25041597Y-29243626D01*
X25194717Y-29151229D01*
X25356909Y-29076982D01*
X25527752Y-29021093D01*
X25603165Y-29002888D01*
X25669472Y-28992027D01*
X25750284Y-28984296D01*
X25840178Y-28979739D01*
X25933734Y-28978397D01*
X26025529Y-28980315D01*
X26110141Y-28985534D01*
X26182150Y-28994098D01*
X26204520Y-28998124D01*
X26256845Y-29010529D01*
X26321445Y-29028559D01*
X26391782Y-29050164D01*
X26461317Y-29073290D01*
X26523512Y-29095887D01*
X26551247Y-29106940D01*
X26558683Y-29109670D01*
X26566654Y-29110964D01*
X26576678Y-29110042D01*
X26590270Y-29106129D01*
X26608948Y-29098447D01*
X26634227Y-29086220D01*
X26667624Y-29068670D01*
X26710656Y-29045021D01*
X26764837Y-29014496D01*
X26831686Y-28976318D01*
X26912718Y-28929710D01*
X27009450Y-28873895D01*
X27035820Y-28858668D01*
X27137909Y-28799796D01*
X27223977Y-28750393D01*
X27295537Y-28709661D01*
X27354105Y-28676804D01*
X27401195Y-28651026D01*
X27438321Y-28631531D01*
X27467000Y-28617521D01*
X27488745Y-28608202D01*
X27505071Y-28602775D01*
X27517492Y-28600444D01*
X27527059Y-28600373D01*
X27542116Y-28601875D01*
X27554604Y-28604830D01*
X27564764Y-28610996D01*
X27572838Y-28622132D01*
X27579066Y-28639994D01*
X27583689Y-28666343D01*
X27586948Y-28702935D01*
X27589085Y-28751530D01*
X27590339Y-28813885D01*
X27590953Y-28891759D01*
X27591167Y-28986910D01*
X27591210Y-29068380D01*
X27591200Y-29171327D01*
X27591033Y-29255869D01*
X27590629Y-29323919D01*
X27589907Y-29377395D01*
X27588783Y-29418208D01*
X27587178Y-29448276D01*
X27585009Y-29469511D01*
X27582195Y-29483830D01*
X27578656Y-29493145D01*
X27574308Y-29499373D01*
X27572809Y-29500951D01*
X27558255Y-29511817D01*
X27529181Y-29530648D01*
X27488794Y-29555471D01*
X27440297Y-29584313D01*
X27391491Y-29612575D01*
X27228724Y-29705649D01*
X27286536Y-29821023D01*
X27353564Y-29975066D01*
X27405726Y-30138698D01*
X27425960Y-30224080D01*
X27434611Y-30280854D01*
X27440658Y-30352638D01*
X27444105Y-30434292D01*
X27444957Y-30520675D01*
X27443220Y-30606648D01*
X27438899Y-30687068D01*
X27431999Y-30756795D01*
X27425384Y-30797752D01*
X27382189Y-30964869D01*
X27321871Y-31125475D01*
X27245624Y-31277549D01*
X27154641Y-31419068D01*
X27050116Y-31548012D01*
X26995671Y-31601280D01*
X26995671Y-31219760D01*
X26996736Y-31209871D01*
X26997746Y-31181288D01*
X26998685Y-31135637D01*
X26999540Y-31074542D01*
X27000296Y-30999631D01*
X27000938Y-30912529D01*
X27001451Y-30814862D01*
X27001821Y-30708255D01*
X27002033Y-30594335D01*
X27002080Y-30508560D01*
X27001974Y-30390401D01*
X27001667Y-30278401D01*
X27001178Y-30174186D01*
X27000524Y-30079379D01*
X26999722Y-29995602D01*
X26998788Y-29924479D01*
X26997742Y-29867634D01*
X26996600Y-29826689D01*
X26995380Y-29803268D01*
X26994460Y-29798168D01*
X26983873Y-29803317D01*
X26958329Y-29817319D01*
X26920385Y-29838726D01*
X26872598Y-29866087D01*
X26817526Y-29897951D01*
X26783640Y-29917699D01*
X26580440Y-30036424D01*
X26575162Y-30981234D01*
X26782212Y-31100497D01*
X26840887Y-31134144D01*
X26893650Y-31164114D01*
X26937978Y-31188997D01*
X26971345Y-31207381D01*
X26991226Y-31217857D01*
X26995671Y-31219760D01*
X26995671Y-31601280D01*
X26933242Y-31662360D01*
X26896963Y-31692701D01*
X26809343Y-31763320D01*
X26809191Y-32302766D01*
X26809137Y-32421228D01*
X26809005Y-32521034D01*
X26808736Y-32603850D01*
X26808269Y-32671340D01*
X26807543Y-32725168D01*
X26806499Y-32767000D01*
X26805075Y-32798499D01*
X26803212Y-32821331D01*
X26800849Y-32837160D01*
X26797925Y-32847651D01*
X26794380Y-32854469D01*
X26790154Y-32859278D01*
X26788949Y-32860392D01*
X26763195Y-32873561D01*
X26735609Y-32872961D01*
X26721991Y-32867274D01*
X26699820Y-32856204D01*
X26699820Y-32743627D01*
X26701011Y-32733743D01*
X26702145Y-32705066D01*
X26703208Y-32659124D01*
X26704185Y-32597445D01*
X26705061Y-32521555D01*
X26705822Y-32432982D01*
X26706454Y-32333253D01*
X26706942Y-32223896D01*
X26707271Y-32106439D01*
X26707428Y-31982408D01*
X26707440Y-31938343D01*
X26707440Y-31132925D01*
X26395694Y-30952995D01*
X26323576Y-30911453D01*
X26257294Y-30873428D01*
X26198832Y-30840048D01*
X26150175Y-30812439D01*
X26113311Y-30791730D01*
X26090224Y-30779046D01*
X26087421Y-30777671D01*
X26087421Y-30245723D01*
X26146709Y-30212042D01*
X26165208Y-30201451D01*
X26199747Y-30181592D01*
X26248775Y-30153362D01*
X26310735Y-30117655D01*
X26384076Y-30075369D01*
X26467242Y-30027399D01*
X26558681Y-29974642D01*
X26656837Y-29917993D01*
X26760158Y-29858349D01*
X26847878Y-29807699D01*
X27489760Y-29437037D01*
X27489760Y-29078719D01*
X27489552Y-28995691D01*
X27488960Y-28919484D01*
X27488034Y-28852384D01*
X27486823Y-28796680D01*
X27485374Y-28754660D01*
X27483736Y-28728610D01*
X27482140Y-28720712D01*
X27472350Y-28725725D01*
X27446324Y-28740151D01*
X27405408Y-28763219D01*
X27350951Y-28794159D01*
X27284300Y-28832199D01*
X27206801Y-28876569D01*
X27119804Y-28926499D01*
X27024654Y-28981218D01*
X26922700Y-29039954D01*
X26815290Y-29101938D01*
X26783640Y-29120221D01*
X26092760Y-29519420D01*
X26090090Y-29882571D01*
X26087421Y-30245723D01*
X26087421Y-30777671D01*
X26082861Y-30775433D01*
X26082759Y-30785714D01*
X26082792Y-30814788D01*
X26082952Y-30861128D01*
X26083230Y-30923206D01*
X26083619Y-30999495D01*
X26084111Y-31088470D01*
X26084696Y-31188602D01*
X26085367Y-31298365D01*
X26086116Y-31416232D01*
X26086934Y-31540676D01*
X26087267Y-31590263D01*
X26092760Y-32402726D01*
X26392480Y-32573109D01*
X26463609Y-32613425D01*
X26529152Y-32650346D01*
X26587013Y-32682708D01*
X26635097Y-32709349D01*
X26671310Y-32729108D01*
X26693555Y-32740821D01*
X26699820Y-32743627D01*
X26699820Y-32856204D01*
X26693073Y-32852835D01*
X26651211Y-32830949D01*
X26598760Y-32802924D01*
X26538077Y-32770066D01*
X26471517Y-32733682D01*
X26401436Y-32695079D01*
X26330189Y-32655563D01*
X26260132Y-32616440D01*
X26193621Y-32579019D01*
X26133011Y-32544604D01*
X26080658Y-32514503D01*
X26038918Y-32490023D01*
X26016925Y-32476606D01*
X26016925Y-31790475D01*
X26014202Y-31544151D01*
X26011480Y-31297828D01*
X25607690Y-31064791D01*
X25203901Y-30831755D01*
X24998335Y-30950229D01*
X24998335Y-30866491D01*
X25008938Y-30862280D01*
X25034519Y-30849205D01*
X25072632Y-30828671D01*
X25120830Y-30802079D01*
X25176664Y-30770831D01*
X25237688Y-30736331D01*
X25301455Y-30699981D01*
X25365516Y-30663182D01*
X25427426Y-30627338D01*
X25484736Y-30593851D01*
X25534999Y-30564124D01*
X25575767Y-30539559D01*
X25604595Y-30521558D01*
X25619033Y-30511524D01*
X25620239Y-30510105D01*
X25611639Y-30504111D01*
X25586751Y-30488768D01*
X25546904Y-30464855D01*
X25493425Y-30433151D01*
X25427641Y-30394434D01*
X25350882Y-30349483D01*
X25264476Y-30299078D01*
X25201398Y-30262400D01*
X25201398Y-30183001D01*
X25212598Y-30178159D01*
X25239553Y-30164125D01*
X25280446Y-30141910D01*
X25333461Y-30112526D01*
X25396781Y-30076988D01*
X25468591Y-30036305D01*
X25547074Y-29991493D01*
X25615263Y-29952300D01*
X26016249Y-29721160D01*
X26016404Y-29475183D01*
X26016560Y-29229205D01*
X25785420Y-29362703D01*
X25723494Y-29398462D01*
X25647553Y-29442303D01*
X25561183Y-29492157D01*
X25467970Y-29545952D01*
X25371503Y-29601620D01*
X25275366Y-29657090D01*
X25183147Y-29710292D01*
X25174356Y-29715363D01*
X25094440Y-29761706D01*
X25020287Y-29805173D01*
X24953692Y-29844679D01*
X24896449Y-29879138D01*
X24850351Y-29907465D01*
X24817192Y-29928573D01*
X24798765Y-29941377D01*
X24795527Y-29944683D01*
X24804218Y-29952396D01*
X24827608Y-29968238D01*
X24862658Y-29990424D01*
X24906328Y-30017169D01*
X24955579Y-30046689D01*
X25007372Y-30077200D01*
X25058668Y-30106916D01*
X25106427Y-30134053D01*
X25147610Y-30156826D01*
X25179179Y-30173452D01*
X25198093Y-30182145D01*
X25201398Y-30183001D01*
X25201398Y-30262400D01*
X25169749Y-30243997D01*
X25068031Y-30185019D01*
X24960649Y-30122923D01*
X24925480Y-30102620D01*
X24816467Y-30039753D01*
X24712559Y-29979902D01*
X24615094Y-29923836D01*
X24525414Y-29872322D01*
X24444860Y-29826127D01*
X24374772Y-29786020D01*
X24316491Y-29752769D01*
X24271357Y-29727141D01*
X24240712Y-29709904D01*
X24225895Y-29701825D01*
X24224720Y-29701300D01*
X24214597Y-29706088D01*
X24189542Y-29719780D01*
X24151991Y-29740953D01*
X24104377Y-29768183D01*
X24049134Y-29800047D01*
X23988695Y-29835120D01*
X23925495Y-29871978D01*
X23861968Y-29909197D01*
X23800547Y-29945355D01*
X23743666Y-29979025D01*
X23693759Y-30008786D01*
X23653260Y-30033213D01*
X23624602Y-30050881D01*
X23610220Y-30060368D01*
X23609004Y-30061520D01*
X23617504Y-30067121D01*
X23641996Y-30081922D01*
X23680862Y-30104985D01*
X23732484Y-30135374D01*
X23795242Y-30172149D01*
X23867520Y-30214375D01*
X23947699Y-30261112D01*
X24034159Y-30311424D01*
X24125284Y-30364372D01*
X24219455Y-30419020D01*
X24315053Y-30474429D01*
X24410461Y-30529663D01*
X24504059Y-30583782D01*
X24594230Y-30635850D01*
X24679355Y-30684929D01*
X24757817Y-30730082D01*
X24827996Y-30770370D01*
X24888274Y-30804857D01*
X24937034Y-30832604D01*
X24972656Y-30852673D01*
X24993524Y-30864128D01*
X24998335Y-30866491D01*
X24998335Y-30950229D01*
X24995550Y-30951835D01*
X24937026Y-30985781D01*
X24884857Y-31016455D01*
X24841473Y-31042395D01*
X24809305Y-31062136D01*
X24790786Y-31074215D01*
X24787218Y-31077258D01*
X24795733Y-31082915D01*
X24820115Y-31097710D01*
X24858627Y-31120632D01*
X24909529Y-31150671D01*
X24971084Y-31186818D01*
X25041554Y-31228062D01*
X25119201Y-31273394D01*
X25202287Y-31321802D01*
X25289074Y-31372278D01*
X25377824Y-31423811D01*
X25466799Y-31475391D01*
X25554261Y-31526009D01*
X25638473Y-31574653D01*
X25717695Y-31620314D01*
X25790191Y-31661982D01*
X25854222Y-31698648D01*
X25908051Y-31729300D01*
X25947384Y-31751498D01*
X26016925Y-31790475D01*
X26016925Y-32476606D01*
X26010146Y-32472470D01*
X25996699Y-32463151D01*
X25996576Y-32463031D01*
X25994691Y-32451686D01*
X25992576Y-32423160D01*
X25990388Y-32380588D01*
X25988282Y-32327105D01*
X25986416Y-32265845D01*
X25986080Y-32252721D01*
X25984277Y-32183385D01*
X25982576Y-32131789D01*
X25980652Y-32095355D01*
X25978184Y-32071509D01*
X25974848Y-32057673D01*
X25970322Y-32051270D01*
X25964282Y-32049726D01*
X25960680Y-32049962D01*
X25934632Y-32050453D01*
X25893274Y-32048654D01*
X25841428Y-32045010D01*
X25783918Y-32039968D01*
X25725569Y-32033973D01*
X25671204Y-32027472D01*
X25625646Y-32020910D01*
X25603722Y-32016962D01*
X25437759Y-31972974D01*
X25278270Y-31910451D01*
X25126831Y-31830577D01*
X24985017Y-31734539D01*
X24854405Y-31623520D01*
X24736570Y-31498706D01*
X24633088Y-31361283D01*
X24552856Y-31226527D01*
X24495838Y-31107405D01*
X24451346Y-30988733D01*
X24417191Y-30863782D01*
X24392348Y-30733295D01*
X24375720Y-30627829D01*
X23934077Y-30372615D01*
X23829005Y-30311816D01*
X23740293Y-30260177D01*
X23666671Y-30216760D01*
X23606866Y-30180624D01*
X23559606Y-30150833D01*
X23523619Y-30126447D01*
X23497634Y-30106527D01*
X23480378Y-30090136D01*
X23470578Y-30076334D01*
X23466965Y-30064182D01*
X23468264Y-30052744D01*
G37*
X23468264Y-30052744D02*
X23473204Y-30041078D01*
X23476560Y-30035012D01*
X23489005Y-30023398D01*
X23516860Y-30003266D01*
X23557793Y-29975997D01*
X23609471Y-29942972D01*
X23669563Y-29905571D01*
X23735738Y-29865175D01*
X23805663Y-29823164D01*
X23877008Y-29780921D01*
X23947439Y-29739824D01*
X24014626Y-29701256D01*
X24076238Y-29666595D01*
X24129941Y-29637225D01*
X24173405Y-29614524D01*
X24204298Y-29599874D01*
X24220214Y-29594657D01*
X24239766Y-29599776D01*
X24274126Y-29614806D01*
X24321030Y-29638635D01*
X24378214Y-29670154D01*
X24402554Y-29684139D01*
X24557519Y-29774118D01*
X24625728Y-29671439D01*
X24715082Y-29547276D01*
X24806621Y-29440990D01*
X24897970Y-29353961D01*
X25041597Y-29243626D01*
X25194717Y-29151229D01*
X25356909Y-29076982D01*
X25527752Y-29021093D01*
X25603165Y-29002888D01*
X25669472Y-28992027D01*
X25750284Y-28984296D01*
X25840178Y-28979739D01*
X25933734Y-28978397D01*
X26025529Y-28980315D01*
X26110141Y-28985534D01*
X26182150Y-28994098D01*
X26204520Y-28998124D01*
X26256845Y-29010529D01*
X26321445Y-29028559D01*
X26391782Y-29050164D01*
X26461317Y-29073290D01*
X26523512Y-29095887D01*
X26551247Y-29106940D01*
X26558683Y-29109670D01*
X26566654Y-29110964D01*
X26576678Y-29110042D01*
X26590270Y-29106129D01*
X26608948Y-29098447D01*
X26634227Y-29086220D01*
X26667624Y-29068670D01*
X26710656Y-29045021D01*
X26764837Y-29014496D01*
X26831686Y-28976318D01*
X26912718Y-28929710D01*
X27009450Y-28873895D01*
X27035820Y-28858668D01*
X27137909Y-28799796D01*
X27223977Y-28750393D01*
X27295537Y-28709661D01*
X27354105Y-28676804D01*
X27401195Y-28651026D01*
X27438321Y-28631531D01*
X27467000Y-28617521D01*
X27488745Y-28608202D01*
X27505071Y-28602775D01*
X27517492Y-28600444D01*
X27527059Y-28600373D01*
X27542116Y-28601875D01*
X27554604Y-28604830D01*
X27564764Y-28610996D01*
X27572838Y-28622132D01*
X27579066Y-28639994D01*
X27583689Y-28666343D01*
X27586948Y-28702935D01*
X27589085Y-28751530D01*
X27590339Y-28813885D01*
X27590953Y-28891759D01*
X27591167Y-28986910D01*
X27591210Y-29068380D01*
X27591200Y-29171327D01*
X27591033Y-29255869D01*
X27590629Y-29323919D01*
X27589907Y-29377395D01*
X27588783Y-29418208D01*
X27587178Y-29448276D01*
X27585009Y-29469511D01*
X27582195Y-29483830D01*
X27578656Y-29493145D01*
X27574308Y-29499373D01*
X27572809Y-29500951D01*
X27558255Y-29511817D01*
X27529181Y-29530648D01*
X27488794Y-29555471D01*
X27440297Y-29584313D01*
X27391491Y-29612575D01*
X27228724Y-29705649D01*
X27286536Y-29821023D01*
X27353564Y-29975066D01*
X27405726Y-30138698D01*
X27425960Y-30224080D01*
X27434611Y-30280854D01*
X27440658Y-30352638D01*
X27444105Y-30434292D01*
X27444957Y-30520675D01*
X27443220Y-30606648D01*
X27438899Y-30687068D01*
X27431999Y-30756795D01*
X27425384Y-30797752D01*
X27382189Y-30964869D01*
X27321871Y-31125475D01*
X27245624Y-31277549D01*
X27154641Y-31419068D01*
X27050116Y-31548012D01*
X26995671Y-31601280D01*
X26995671Y-31219760D01*
X26996736Y-31209871D01*
X26997746Y-31181288D01*
X26998685Y-31135637D01*
X26999540Y-31074542D01*
X27000296Y-30999631D01*
X27000938Y-30912529D01*
X27001451Y-30814862D01*
X27001821Y-30708255D01*
X27002033Y-30594335D01*
X27002080Y-30508560D01*
X27001974Y-30390401D01*
X27001667Y-30278401D01*
X27001178Y-30174186D01*
X27000524Y-30079379D01*
X26999722Y-29995602D01*
X26998788Y-29924479D01*
X26997742Y-29867634D01*
X26996600Y-29826689D01*
X26995380Y-29803268D01*
X26994460Y-29798168D01*
X26983873Y-29803317D01*
X26958329Y-29817319D01*
X26920385Y-29838726D01*
X26872598Y-29866087D01*
X26817526Y-29897951D01*
X26783640Y-29917699D01*
X26580440Y-30036424D01*
X26575162Y-30981234D01*
X26782212Y-31100497D01*
X26840887Y-31134144D01*
X26893650Y-31164114D01*
X26937978Y-31188997D01*
X26971345Y-31207381D01*
X26991226Y-31217857D01*
X26995671Y-31219760D01*
X26995671Y-31601280D01*
X26933242Y-31662360D01*
X26896963Y-31692701D01*
X26809343Y-31763320D01*
X26809191Y-32302766D01*
X26809137Y-32421228D01*
X26809005Y-32521034D01*
X26808736Y-32603850D01*
X26808269Y-32671340D01*
X26807543Y-32725168D01*
X26806499Y-32767000D01*
X26805075Y-32798499D01*
X26803212Y-32821331D01*
X26800849Y-32837160D01*
X26797925Y-32847651D01*
X26794380Y-32854469D01*
X26790154Y-32859278D01*
X26788949Y-32860392D01*
X26763195Y-32873561D01*
X26735609Y-32872961D01*
X26721991Y-32867274D01*
X26699820Y-32856204D01*
X26699820Y-32743627D01*
X26701011Y-32733743D01*
X26702145Y-32705066D01*
X26703208Y-32659124D01*
X26704185Y-32597445D01*
X26705061Y-32521555D01*
X26705822Y-32432982D01*
X26706454Y-32333253D01*
X26706942Y-32223896D01*
X26707271Y-32106439D01*
X26707428Y-31982408D01*
X26707440Y-31938343D01*
X26707440Y-31132925D01*
X26395694Y-30952995D01*
X26323576Y-30911453D01*
X26257294Y-30873428D01*
X26198832Y-30840048D01*
X26150175Y-30812439D01*
X26113311Y-30791730D01*
X26090224Y-30779046D01*
X26087421Y-30777671D01*
X26087421Y-30245723D01*
X26146709Y-30212042D01*
X26165208Y-30201451D01*
X26199747Y-30181592D01*
X26248775Y-30153362D01*
X26310735Y-30117655D01*
X26384076Y-30075369D01*
X26467242Y-30027399D01*
X26558681Y-29974642D01*
X26656837Y-29917993D01*
X26760158Y-29858349D01*
X26847878Y-29807699D01*
X27489760Y-29437037D01*
X27489760Y-29078719D01*
X27489552Y-28995691D01*
X27488960Y-28919484D01*
X27488034Y-28852384D01*
X27486823Y-28796680D01*
X27485374Y-28754660D01*
X27483736Y-28728610D01*
X27482140Y-28720712D01*
X27472350Y-28725725D01*
X27446324Y-28740151D01*
X27405408Y-28763219D01*
X27350951Y-28794159D01*
X27284300Y-28832199D01*
X27206801Y-28876569D01*
X27119804Y-28926499D01*
X27024654Y-28981218D01*
X26922700Y-29039954D01*
X26815290Y-29101938D01*
X26783640Y-29120221D01*
X26092760Y-29519420D01*
X26090090Y-29882571D01*
X26087421Y-30245723D01*
X26087421Y-30777671D01*
X26082861Y-30775433D01*
X26082759Y-30785714D01*
X26082792Y-30814788D01*
X26082952Y-30861128D01*
X26083230Y-30923206D01*
X26083619Y-30999495D01*
X26084111Y-31088470D01*
X26084696Y-31188602D01*
X26085367Y-31298365D01*
X26086116Y-31416232D01*
X26086934Y-31540676D01*
X26087267Y-31590263D01*
X26092760Y-32402726D01*
X26392480Y-32573109D01*
X26463609Y-32613425D01*
X26529152Y-32650346D01*
X26587013Y-32682708D01*
X26635097Y-32709349D01*
X26671310Y-32729108D01*
X26693555Y-32740821D01*
X26699820Y-32743627D01*
X26699820Y-32856204D01*
X26693073Y-32852835D01*
X26651211Y-32830949D01*
X26598760Y-32802924D01*
X26538077Y-32770066D01*
X26471517Y-32733682D01*
X26401436Y-32695079D01*
X26330189Y-32655563D01*
X26260132Y-32616440D01*
X26193621Y-32579019D01*
X26133011Y-32544604D01*
X26080658Y-32514503D01*
X26038918Y-32490023D01*
X26016925Y-32476606D01*
X26016925Y-31790475D01*
X26014202Y-31544151D01*
X26011480Y-31297828D01*
X25607690Y-31064791D01*
X25203901Y-30831755D01*
X24998335Y-30950229D01*
X24998335Y-30866491D01*
X25008938Y-30862280D01*
X25034519Y-30849205D01*
X25072632Y-30828671D01*
X25120830Y-30802079D01*
X25176664Y-30770831D01*
X25237688Y-30736331D01*
X25301455Y-30699981D01*
X25365516Y-30663182D01*
X25427426Y-30627338D01*
X25484736Y-30593851D01*
X25534999Y-30564124D01*
X25575767Y-30539559D01*
X25604595Y-30521558D01*
X25619033Y-30511524D01*
X25620239Y-30510105D01*
X25611639Y-30504111D01*
X25586751Y-30488768D01*
X25546904Y-30464855D01*
X25493425Y-30433151D01*
X25427641Y-30394434D01*
X25350882Y-30349483D01*
X25264476Y-30299078D01*
X25201398Y-30262400D01*
X25201398Y-30183001D01*
X25212598Y-30178159D01*
X25239553Y-30164125D01*
X25280446Y-30141910D01*
X25333461Y-30112526D01*
X25396781Y-30076988D01*
X25468591Y-30036305D01*
X25547074Y-29991493D01*
X25615263Y-29952300D01*
X26016249Y-29721160D01*
X26016404Y-29475183D01*
X26016560Y-29229205D01*
X25785420Y-29362703D01*
X25723494Y-29398462D01*
X25647553Y-29442303D01*
X25561183Y-29492157D01*
X25467970Y-29545952D01*
X25371503Y-29601620D01*
X25275366Y-29657090D01*
X25183147Y-29710292D01*
X25174356Y-29715363D01*
X25094440Y-29761706D01*
X25020287Y-29805173D01*
X24953692Y-29844679D01*
X24896449Y-29879138D01*
X24850351Y-29907465D01*
X24817192Y-29928573D01*
X24798765Y-29941377D01*
X24795527Y-29944683D01*
X24804218Y-29952396D01*
X24827608Y-29968238D01*
X24862658Y-29990424D01*
X24906328Y-30017169D01*
X24955579Y-30046689D01*
X25007372Y-30077200D01*
X25058668Y-30106916D01*
X25106427Y-30134053D01*
X25147610Y-30156826D01*
X25179179Y-30173452D01*
X25198093Y-30182145D01*
X25201398Y-30183001D01*
X25201398Y-30262400D01*
X25169749Y-30243997D01*
X25068031Y-30185019D01*
X24960649Y-30122923D01*
X24925480Y-30102620D01*
X24816467Y-30039753D01*
X24712559Y-29979902D01*
X24615094Y-29923836D01*
X24525414Y-29872322D01*
X24444860Y-29826127D01*
X24374772Y-29786020D01*
X24316491Y-29752769D01*
X24271357Y-29727141D01*
X24240712Y-29709904D01*
X24225895Y-29701825D01*
X24224720Y-29701300D01*
X24214597Y-29706088D01*
X24189542Y-29719780D01*
X24151991Y-29740953D01*
X24104377Y-29768183D01*
X24049134Y-29800047D01*
X23988695Y-29835120D01*
X23925495Y-29871978D01*
X23861968Y-29909197D01*
X23800547Y-29945355D01*
X23743666Y-29979025D01*
X23693759Y-30008786D01*
X23653260Y-30033213D01*
X23624602Y-30050881D01*
X23610220Y-30060368D01*
X23609004Y-30061520D01*
X23617504Y-30067121D01*
X23641996Y-30081922D01*
X23680862Y-30104985D01*
X23732484Y-30135374D01*
X23795242Y-30172149D01*
X23867520Y-30214375D01*
X23947699Y-30261112D01*
X24034159Y-30311424D01*
X24125284Y-30364372D01*
X24219455Y-30419020D01*
X24315053Y-30474429D01*
X24410461Y-30529663D01*
X24504059Y-30583782D01*
X24594230Y-30635850D01*
X24679355Y-30684929D01*
X24757817Y-30730082D01*
X24827996Y-30770370D01*
X24888274Y-30804857D01*
X24937034Y-30832604D01*
X24972656Y-30852673D01*
X24993524Y-30864128D01*
X24998335Y-30866491D01*
X24998335Y-30950229D01*
X24995550Y-30951835D01*
X24937026Y-30985781D01*
X24884857Y-31016455D01*
X24841473Y-31042395D01*
X24809305Y-31062136D01*
X24790786Y-31074215D01*
X24787218Y-31077258D01*
X24795733Y-31082915D01*
X24820115Y-31097710D01*
X24858627Y-31120632D01*
X24909529Y-31150671D01*
X24971084Y-31186818D01*
X25041554Y-31228062D01*
X25119201Y-31273394D01*
X25202287Y-31321802D01*
X25289074Y-31372278D01*
X25377824Y-31423811D01*
X25466799Y-31475391D01*
X25554261Y-31526009D01*
X25638473Y-31574653D01*
X25717695Y-31620314D01*
X25790191Y-31661982D01*
X25854222Y-31698648D01*
X25908051Y-31729300D01*
X25947384Y-31751498D01*
X26016925Y-31790475D01*
X26016925Y-32476606D01*
X26010146Y-32472470D01*
X25996699Y-32463151D01*
X25996576Y-32463031D01*
X25994691Y-32451686D01*
X25992576Y-32423160D01*
X25990388Y-32380588D01*
X25988282Y-32327105D01*
X25986416Y-32265845D01*
X25986080Y-32252721D01*
X25984277Y-32183385D01*
X25982576Y-32131789D01*
X25980652Y-32095355D01*
X25978184Y-32071509D01*
X25974848Y-32057673D01*
X25970322Y-32051270D01*
X25964282Y-32049726D01*
X25960680Y-32049962D01*
X25934632Y-32050453D01*
X25893274Y-32048654D01*
X25841428Y-32045010D01*
X25783918Y-32039968D01*
X25725569Y-32033973D01*
X25671204Y-32027472D01*
X25625646Y-32020910D01*
X25603722Y-32016962D01*
X25437759Y-31972974D01*
X25278270Y-31910451D01*
X25126831Y-31830577D01*
X24985017Y-31734539D01*
X24854405Y-31623520D01*
X24736570Y-31498706D01*
X24633088Y-31361283D01*
X24552856Y-31226527D01*
X24495838Y-31107405D01*
X24451346Y-30988733D01*
X24417191Y-30863782D01*
X24392348Y-30733295D01*
X24375720Y-30627829D01*
X23934077Y-30372615D01*
X23829005Y-30311816D01*
X23740293Y-30260177D01*
X23666671Y-30216760D01*
X23606866Y-30180624D01*
X23559606Y-30150833D01*
X23523619Y-30126447D01*
X23497634Y-30106527D01*
X23480378Y-30090136D01*
X23470578Y-30076334D01*
X23466965Y-30064182D01*
X23468264Y-30052744D01*
D11*
G36*
X8950000Y-45500000D02*
G01*
X9250000Y-45750000D01*
X8950000Y-46000000D01*
X8950000Y-45500000D01*
G37*
X8950000Y-45500000D02*
X9250000Y-45750000D01*
X8950000Y-46000000D01*
X8950000Y-45500000D01*
D12*
X9500000Y-44000000D02*
X9500000Y-46200000D01*
X9500000Y-46200000D02*
X8100000Y-46200000D01*
X8100000Y-46200000D02*
X8100000Y-44000000D01*
X8100000Y-44000000D02*
X9500000Y-44000000D01*
X9500000Y-50400000D02*
X9500000Y-52600000D01*
X9500000Y-52600000D02*
X8100000Y-52600000D01*
X8100000Y-52600000D02*
X8100000Y-50400000D01*
X8100000Y-50400000D02*
X9500000Y-50400000D01*
D11*
G36*
X8950000Y-51900000D02*
G01*
X9250000Y-52150000D01*
X8950000Y-52400000D01*
X8950000Y-51900000D01*
G37*
X8950000Y-51900000D02*
X9250000Y-52150000D01*
X8950000Y-52400000D01*
X8950000Y-51900000D01*
D13*
X9200000Y-9000000D02*
X8400000Y-9000000D01*
X9200000Y-10600000D02*
X9200000Y-9000000D01*
X8400000Y-10600000D02*
X9200000Y-10600000D01*
X8400000Y-9000000D02*
X8400000Y-10600000D01*
X9200000Y-10300000D02*
X8400000Y-10300000D01*
X9200000Y-9300000D02*
X8400000Y-9300000D01*
X9200000Y-10350000D02*
X8400000Y-10350000D01*
X8400000Y-10550000D02*
X9200000Y-10550000D01*
X8400000Y-10500000D02*
X9200000Y-10500000D01*
X9200000Y-10450000D02*
X8400000Y-10450000D01*
X8400000Y-10400000D02*
X9200000Y-10400000D01*
X8400000Y-9100000D02*
X9200000Y-9100000D01*
X9200000Y-9150000D02*
X8400000Y-9150000D01*
X8400000Y-9200000D02*
X9200000Y-9200000D01*
X8400000Y-9250000D02*
X9200000Y-9250000D01*
X9200000Y-9050000D02*
X8400000Y-9050000D01*
X9200000Y-9000000D02*
X8400000Y-9000000D01*
X8400000Y-9300000D02*
X9200000Y-9300000D01*
D14*
X7300000Y-37800000D02*
X7300000Y-38800000D01*
X6900000Y-37800000D02*
X6900000Y-38800000D01*
X6500000Y-37800000D02*
X6500000Y-38800000D01*
X6100000Y-37800000D02*
X6100000Y-38800000D01*
X3400000Y-37800000D02*
X3400000Y-38800000D01*
X3000000Y-37800000D02*
X3000000Y-38800000D01*
X4200000Y-37800000D02*
X4200000Y-38800000D01*
X3800000Y-37800000D02*
X3800000Y-38800000D01*
X3800000Y-26200000D02*
X3800000Y-25200000D01*
X4200000Y-26200000D02*
X4200000Y-25200000D01*
X3400000Y-26200000D02*
X3400000Y-25200000D01*
X3000000Y-26200000D02*
X3000000Y-25200000D01*
X7300000Y-26200000D02*
X7300000Y-25200000D01*
X6900000Y-26200000D02*
X6900000Y-25200000D01*
G36*
X-500000Y-32300000D02*
G01*
X-500000Y-34400000D01*
X1400000Y-34400000D01*
X1100000Y-34800000D01*
X-500000Y-34800000D01*
X-500000Y-36800000D01*
X200000Y-36800000D01*
X200000Y-37700000D01*
X0Y-38000000D01*
X-800000Y-38000000D01*
X-800000Y-26000000D01*
X-100000Y-26000000D01*
X100000Y-26100000D01*
X200000Y-26400000D01*
X200000Y-27300000D01*
X-500000Y-27300000D01*
X-500000Y-29300000D01*
X1100000Y-29300000D01*
X1400000Y-29700000D01*
X-500000Y-29700000D01*
X-500000Y-31900000D01*
X1400000Y-31900000D01*
X1400000Y-32300000D01*
X-500000Y-32300000D01*
G37*
X-500000Y-32300000D02*
X-500000Y-34400000D01*
X1400000Y-34400000D01*
X1100000Y-34800000D01*
X-500000Y-34800000D01*
X-500000Y-36800000D01*
X200000Y-36800000D01*
X200000Y-37700000D01*
X0Y-38000000D01*
X-800000Y-38000000D01*
X-800000Y-26000000D01*
X-100000Y-26000000D01*
X100000Y-26100000D01*
X200000Y-26400000D01*
X200000Y-27300000D01*
X-500000Y-27300000D01*
X-500000Y-29300000D01*
X1100000Y-29300000D01*
X1400000Y-29700000D01*
X-500000Y-29700000D01*
X-500000Y-31900000D01*
X1400000Y-31900000D01*
X1400000Y-32300000D01*
X-500000Y-32300000D01*
D15*
X10200000Y-34800000D02*
X10200000Y-28800000D01*
D14*
G36*
X11600000Y-36400000D02*
G01*
X11200000Y-36300000D01*
X11200000Y-34900000D01*
X10200000Y-34900000D01*
X10200000Y-34100000D01*
X11200000Y-34100000D01*
X11200000Y-32400000D01*
X10200000Y-32400000D01*
X10200000Y-31600000D01*
X11200000Y-31600000D01*
X11200000Y-29900000D01*
X10200000Y-29900000D01*
X10200000Y-29100000D01*
X11200000Y-29100000D01*
X11200000Y-27400000D01*
X11300000Y-27300000D01*
X11700000Y-27200000D01*
X12000000Y-27200000D01*
X12000000Y-36400000D01*
X11600000Y-36400000D01*
G37*
X11600000Y-36400000D02*
X11200000Y-36300000D01*
X11200000Y-34900000D01*
X10200000Y-34900000D01*
X10200000Y-34100000D01*
X11200000Y-34100000D01*
X11200000Y-32400000D01*
X10200000Y-32400000D01*
X10200000Y-31600000D01*
X11200000Y-31600000D01*
X11200000Y-29900000D01*
X10200000Y-29900000D01*
X10200000Y-29100000D01*
X11200000Y-29100000D01*
X11200000Y-27400000D01*
X11300000Y-27300000D01*
X11700000Y-27200000D01*
X12000000Y-27200000D01*
X12000000Y-36400000D01*
X11600000Y-36400000D01*
D15*
X-1000000Y-38000000D02*
X-200000Y-38000000D01*
X13200000Y-38800000D02*
X-1000000Y-38800000D01*
X-1000000Y-38000000D02*
X-1000000Y-38800000D01*
X200000Y-36100000D02*
X200000Y-37600000D01*
X1400000Y-29800000D02*
X1400000Y-34300000D01*
X1224264Y-34724264D02*
X375736Y-35675736D01*
X375736Y-28424264D02*
X1224264Y-29375736D01*
X-1000000Y-26000000D02*
X-200000Y-26000000D01*
X-1000000Y-25200000D02*
X-1000000Y-26000000D01*
X200000Y-26400000D02*
X200000Y-28000000D01*
D14*
X2300000Y-28000000D02*
G75*
G03*
X2300000Y-28000000I-700000J0D01*
G01*
X2300000Y-36100000D02*
G75*
G03*
X2300000Y-36100000I-700000J0D01*
G01*
X9700000Y-36100000D02*
G75*
G03*
X9700000Y-36100000I-700000J0D01*
G01*
X9700000Y-33400000D02*
G75*
G03*
X9700000Y-33400000I-700000J0D01*
G01*
X9700000Y-30700000D02*
G75*
G03*
X9700000Y-30700000I-700000J0D01*
G01*
X9700000Y-28000000D02*
G75*
G03*
X9700000Y-28000000I-700000J0D01*
G01*
X6500000Y-26200000D02*
X6500000Y-25200000D01*
X6100000Y-26200000D02*
X6100000Y-25200000D01*
D15*
X11800000Y-36400000D02*
X13200000Y-36400000D01*
X13200000Y-38800000D02*
X13200000Y-36400000D01*
X11800000Y-27200000D02*
X13200000Y-27200000D01*
X13200000Y-25200000D02*
X-1000000Y-25200000D01*
X13200000Y-27200000D02*
X13200000Y-25200000D01*
D14*
X13000000Y-36800000D02*
X13000000Y-37400000D01*
X13000000Y-37400000D02*
X11800000Y-37400000D01*
X11800000Y-37400000D02*
X11800000Y-36800000D01*
X11800000Y-36800000D02*
X13000000Y-36800000D01*
X3800000Y-37800000D02*
G75*
G02*
X4200000Y-37800000I200000J0D01*
G01*
X3000000Y-37800000D02*
G75*
G02*
X3400000Y-37800000I200000J0D01*
G01*
X6100000Y-37800000D02*
G75*
G02*
X6500000Y-37800000I200000J0D01*
G01*
X6900000Y-37800000D02*
G75*
G02*
X7300000Y-37800000I200000J0D01*
G01*
X3400000Y-26200000D02*
G75*
G02*
X3000000Y-26200000I-200000J0D01*
G01*
X4200000Y-26200000D02*
G75*
G02*
X3800000Y-26200000I-200000J0D01*
G01*
X7300000Y-26200000D02*
G75*
G02*
X6900000Y-26200000I-200000J0D01*
G01*
D15*
X200000Y-37600000D02*
G75*
G02*
X-200000Y-38000000I-400000J0D01*
G01*
X1224264Y-34724264D02*
G75*
G03*
X1400000Y-34300000I-424264J424264D01*
G01*
X375736Y-35675736D02*
G75*
G03*
X200000Y-36100000I424264J-424264D01*
G01*
X1224264Y-29375736D02*
G75*
G02*
X1400000Y-29800000I-424264J-424264D01*
G01*
X375736Y-28424264D02*
G75*
G02*
X200000Y-28000000I424264J424264D01*
G01*
X-200000Y-26000000D02*
G75*
G02*
X200000Y-26400000I0J-400000D01*
G01*
D14*
X6500000Y-26200000D02*
G75*
G02*
X6100000Y-26200000I-200000J0D01*
G01*
D15*
X11800000Y-36400000D02*
G75*
G02*
X10200000Y-34800000I0J1600000D01*
G01*
X10200000Y-28800000D02*
G75*
G02*
X11800000Y-27200000I1600000J0D01*
G01*
D16*
G36*
X2000000Y-46700000D02*
G01*
X2000000Y-47300000D01*
X2200000Y-47300000D01*
X2200000Y-47600000D01*
X900000Y-47600000D01*
X900000Y-47400000D01*
X1800000Y-47400000D01*
X1800000Y-46600000D01*
X900000Y-46600000D01*
X900000Y-46400000D01*
X2200000Y-46400000D01*
X2200000Y-46700000D01*
X2000000Y-46700000D01*
G37*
X2000000Y-46700000D02*
X2000000Y-47300000D01*
X2200000Y-47300000D01*
X2200000Y-47600000D01*
X900000Y-47600000D01*
X900000Y-47400000D01*
X1800000Y-47400000D01*
X1800000Y-46600000D01*
X900000Y-46600000D01*
X900000Y-46400000D01*
X2200000Y-46400000D01*
X2200000Y-46700000D01*
X2000000Y-46700000D01*
D14*
X300000Y-47700000D02*
X300000Y-48000000D01*
X-200000Y-47500000D02*
X300000Y-47700000D01*
D17*
X0Y-48000000D02*
X0Y-48300000D01*
D14*
X2000000Y-48300000D02*
X1800000Y-48300000D01*
X2800000Y-48300000D02*
X2600000Y-48300000D01*
X1100000Y-48500000D02*
X1700000Y-48500000D01*
X1100000Y-48400000D02*
X1100000Y-48500000D01*
X1700000Y-48400000D02*
X1700000Y-48500000D01*
X2100000Y-48400000D02*
X2100000Y-48600000D01*
X1000000Y-48300000D02*
X800000Y-48300000D01*
X700000Y-48400000D02*
X700000Y-48600000D01*
X700000Y-48600000D02*
X200000Y-48600000D01*
X200000Y-48300000D02*
X0Y-48300000D01*
X200000Y-48600000D02*
X200000Y-48300000D01*
X2600000Y-48600000D02*
X2100000Y-48600000D01*
X2600000Y-48600000D02*
X2600000Y-48300000D01*
D17*
X300000Y-48000000D02*
X0Y-48000000D01*
D14*
X-200000Y-46500000D02*
X-200000Y-47500000D01*
X-200000Y-46500000D02*
X300000Y-46300000D01*
X300000Y-46000000D02*
X300000Y-46300000D01*
X300000Y-46000000D02*
X0Y-46000000D01*
X0Y-46000000D02*
X0Y-45700000D01*
X0Y-45700000D02*
X200000Y-45700000D01*
X200000Y-45400000D02*
X200000Y-45700000D01*
X200000Y-45400000D02*
X700000Y-45400000D01*
X700000Y-45600000D02*
X700000Y-45400000D01*
X800000Y-45700000D02*
X1000000Y-45700000D01*
X1100000Y-45600000D02*
X1100000Y-45500000D01*
X1700000Y-45500000D02*
X1100000Y-45500000D01*
X1700000Y-45600000D02*
X1700000Y-45500000D01*
X1800000Y-45700000D02*
X2000000Y-45700000D01*
X2100000Y-45600000D02*
X2100000Y-45400000D01*
X2100000Y-45400000D02*
X2600000Y-45400000D01*
X2800000Y-48300000D02*
X2800000Y-45700000D01*
D11*
X0Y-47900000D02*
X0Y-48700000D01*
X-700000Y-47900000D02*
X0Y-47900000D01*
X-700000Y-47900000D02*
X-700000Y-46100000D01*
X-700000Y-46100000D02*
X0Y-46100000D01*
D14*
X2600000Y-45700000D02*
X2800000Y-45700000D01*
X2600000Y-45400000D02*
X2600000Y-45700000D01*
D11*
X0Y-45300000D02*
X0Y-46100000D01*
X2800000Y-48700000D02*
X0Y-48700000D01*
X2800000Y-45300000D02*
X2800000Y-48700000D01*
X2800000Y-45300000D02*
X0Y-45300000D01*
D14*
X1000000Y-48300000D02*
G75*
G02*
X1100000Y-48400000I0J-100000D01*
G01*
X700000Y-48400000D02*
G75*
G02*
X800000Y-48300000I100000J0D01*
G01*
X1700000Y-48400000D02*
G75*
G02*
X1800000Y-48300000I100000J0D01*
G01*
X2000000Y-48300000D02*
G75*
G02*
X2100000Y-48400000I0J-100000D01*
G01*
X800000Y-45700000D02*
G75*
G02*
X700000Y-45600000I0J100000D01*
G01*
X1100000Y-45600000D02*
G75*
G02*
X1000000Y-45700000I-100000J0D01*
G01*
X1800000Y-45700000D02*
G75*
G02*
X1700000Y-45600000I0J100000D01*
G01*
X2100000Y-45600000D02*
G75*
G02*
X2000000Y-45700000I-100000J0D01*
G01*
D11*
G36*
X16150000Y-17250000D02*
G01*
X15650000Y-17250000D01*
X15650000Y-17750000D01*
X15550000Y-17750000D01*
X15550000Y-17150000D01*
X16150000Y-17150000D01*
X16150000Y-17250000D01*
G37*
X16150000Y-17250000D02*
X15650000Y-17250000D01*
X15650000Y-17750000D01*
X15550000Y-17750000D01*
X15550000Y-17150000D01*
X16150000Y-17150000D01*
X16150000Y-17250000D01*
D14*
X16100000Y-20700000D02*
X16100000Y-17700000D01*
X19100000Y-20700000D02*
X16100000Y-20700000D01*
X19100000Y-17700000D02*
X19100000Y-20700000D01*
X16100000Y-17700000D02*
X19100000Y-17700000D01*
D10*
G36*
X23533368Y-20521743D02*
G01*
X23534042Y-20459850D01*
X23535525Y-20410368D01*
X23538111Y-20369343D01*
X23542092Y-20332822D01*
X23547764Y-20296849D01*
X23555419Y-20257472D01*
X23560429Y-20233648D01*
X23611310Y-20041288D01*
X23679667Y-19859294D01*
X23765496Y-19687672D01*
X23868795Y-19526429D01*
X23989558Y-19375570D01*
X24087599Y-19273116D01*
X24233778Y-19144889D01*
X24390596Y-19033798D01*
X24557119Y-18940278D01*
X24732411Y-18864765D01*
X24915536Y-18807693D01*
X25105558Y-18769499D01*
X25193600Y-18758533D01*
X25208425Y-18755029D01*
X25216884Y-18744902D01*
X25221671Y-18722983D01*
X25224080Y-18700080D01*
X25227800Y-18667924D01*
X25233440Y-18650778D01*
X25244019Y-18643363D01*
X25257898Y-18640909D01*
X25278256Y-18634701D01*
X25281824Y-18625076D01*
X25272200Y-18592065D01*
X25262865Y-18546812D01*
X25254840Y-18496277D01*
X25249145Y-18447416D01*
X25246800Y-18407187D01*
X25247403Y-18390291D01*
X25259205Y-18329622D01*
X25280591Y-18268315D01*
X25309023Y-18211225D01*
X25341960Y-18163207D01*
X25376865Y-18129116D01*
X25387605Y-18122181D01*
X25419454Y-18114878D01*
X25452790Y-18127595D01*
X25487214Y-18160120D01*
X25505337Y-18184678D01*
X25551057Y-18268653D01*
X25576826Y-18354893D01*
X25582863Y-18444730D01*
X25569385Y-18539497D01*
X25565692Y-18554227D01*
X25555458Y-18594081D01*
X25551080Y-18618571D01*
X25553235Y-18631983D01*
X25562601Y-18638601D01*
X25579680Y-18642676D01*
X25597134Y-18647378D01*
X25606209Y-18656171D01*
X25609639Y-18674620D01*
X25610160Y-18704713D01*
X25611082Y-18737283D01*
X25615195Y-18754926D01*
X25624518Y-18763003D01*
X25633020Y-18765397D01*
X25652293Y-18769371D01*
X25686117Y-18776320D01*
X25729134Y-18785145D01*
X25761532Y-18791785D01*
X25939166Y-18838283D01*
X26113437Y-18903861D01*
X26281641Y-18987288D01*
X26441077Y-19087333D01*
X26491928Y-19124254D01*
X26566229Y-19180175D01*
X26589229Y-19158568D01*
X26618691Y-19140371D01*
X26647385Y-19139125D01*
X26665400Y-19149660D01*
X26677915Y-19156695D01*
X26686965Y-19147120D01*
X26696216Y-19132641D01*
X26714153Y-19105817D01*
X26737858Y-19070982D01*
X26755374Y-19045520D01*
X26783574Y-19005640D01*
X26806079Y-18977923D01*
X26828351Y-18957548D01*
X26855850Y-18939697D01*
X26894038Y-18919546D01*
X26903443Y-18914814D01*
X26971283Y-18885211D01*
X27032024Y-18867476D01*
X27083383Y-18861924D01*
X27123076Y-18868871D01*
X27143032Y-18881673D01*
X27160170Y-18911972D01*
X27163885Y-18955672D01*
X27154187Y-19013540D01*
X27145498Y-19044252D01*
X27119354Y-19113755D01*
X27086438Y-19171338D01*
X27043227Y-19221301D01*
X26986196Y-19267943D01*
X26934106Y-19302186D01*
X26861052Y-19347017D01*
X26882889Y-19368854D01*
X26904726Y-19390692D01*
X26870967Y-19425523D01*
X26837207Y-19460353D01*
X26910928Y-19570437D01*
X27009306Y-19734981D01*
X27090105Y-19907989D01*
X27152455Y-20087303D01*
X27195486Y-20270765D01*
X27197103Y-20279940D01*
X27219138Y-20406960D01*
X27273423Y-20406960D01*
X27304997Y-20407663D01*
X27321934Y-20411713D01*
X27329913Y-20422025D01*
X27333915Y-20437997D01*
X27341299Y-20459504D01*
X27352888Y-20463864D01*
X27356370Y-20462799D01*
X27373010Y-20458471D01*
X27404440Y-20451940D01*
X27445392Y-20444264D01*
X27471417Y-20439705D01*
X27528874Y-20431509D01*
X27575936Y-20429713D01*
X27618984Y-20435347D01*
X27664401Y-20449438D01*
X27718570Y-20473013D01*
X27738887Y-20482773D01*
X27797885Y-20515717D01*
X27837208Y-20547786D01*
X27857436Y-20579733D01*
X27859146Y-20612310D01*
X27852549Y-20630480D01*
X27830710Y-20657545D01*
X27793688Y-20686331D01*
X27746183Y-20714388D01*
X27692900Y-20739263D01*
X27638539Y-20758504D01*
X27587803Y-20769657D01*
X27585012Y-20770011D01*
X27553791Y-20770108D01*
X27508820Y-20765567D01*
X27455905Y-20757263D01*
X27400851Y-20746073D01*
X27361652Y-20736312D01*
X27345805Y-20735731D01*
X27337183Y-20748567D01*
X27333966Y-20761750D01*
X27329134Y-20779866D01*
X27320254Y-20789161D01*
X27301642Y-20792573D01*
X27273423Y-20793040D01*
X27219138Y-20793040D01*
X27197103Y-20920061D01*
X27155158Y-21103237D01*
X27093921Y-21282522D01*
X27014370Y-21455493D01*
X26917480Y-21619728D01*
X26911781Y-21628288D01*
X26883627Y-21669703D01*
X26858955Y-21704833D01*
X26840219Y-21730266D01*
X26829870Y-21742595D01*
X26829250Y-21743068D01*
X26830329Y-21752478D01*
X26843970Y-21769659D01*
X26854953Y-21780093D01*
X26878476Y-21807185D01*
X26890031Y-21834216D01*
X26888153Y-21856258D01*
X26880160Y-21864920D01*
X26870838Y-21875551D01*
X26877887Y-21888006D01*
X26902701Y-21904725D01*
X26903020Y-21904908D01*
X26977851Y-21952174D01*
X27036102Y-21999769D01*
X27081197Y-22051605D01*
X27116558Y-22111589D01*
X27144717Y-22181037D01*
X27161633Y-22245583D01*
X27163542Y-22296545D01*
X27150744Y-22333700D01*
X27123540Y-22356829D01*
X27082231Y-22365711D01*
X27027115Y-22360125D01*
X26958494Y-22339850D01*
X26938952Y-22332335D01*
X26871926Y-22298437D01*
X26814109Y-22252907D01*
X26761864Y-22192473D01*
X26729016Y-22143399D01*
X26705215Y-22105778D01*
X26688993Y-22083474D01*
X26678033Y-22074059D01*
X26670016Y-22075103D01*
X26666833Y-22078241D01*
X26647333Y-22091816D01*
X26623951Y-22088108D01*
X26594456Y-22066628D01*
X26588549Y-22061053D01*
X26555050Y-22028585D01*
X26527105Y-22050537D01*
X26443063Y-22111302D01*
X26346209Y-22172559D01*
X26242176Y-22231275D01*
X26136598Y-22284418D01*
X26035110Y-22328954D01*
X25956204Y-22357800D01*
X25912486Y-22370798D01*
X25859050Y-22384953D01*
X25800381Y-22399268D01*
X25740960Y-22412748D01*
X25685271Y-22424395D01*
X25637797Y-22433213D01*
X25603020Y-22438206D01*
X25591103Y-22438960D01*
X25578696Y-22441059D01*
X25572220Y-22450602D01*
X25569802Y-22472461D01*
X25569520Y-22495094D01*
X25568886Y-22527310D01*
X25565125Y-22544775D01*
X25555444Y-22553057D01*
X25538229Y-22557487D01*
X25516814Y-22564311D01*
X25511158Y-22575782D01*
X25512912Y-22585173D01*
X25517316Y-22604541D01*
X25523986Y-22638004D01*
X25531757Y-22679627D01*
X25535056Y-22698040D01*
X25543585Y-22762410D01*
X25543178Y-22817358D01*
X25532729Y-22869891D01*
X25511133Y-22927020D01*
X25492900Y-22965350D01*
X25463386Y-23018265D01*
X25435489Y-23054189D01*
X25406570Y-23076002D01*
X25383546Y-23084608D01*
X25368858Y-23086261D01*
X25368858Y-22078411D01*
X25541337Y-22068704D01*
X25715127Y-22038875D01*
X25798120Y-22017563D01*
X25863842Y-21995274D01*
X25940301Y-21963541D01*
X26021994Y-21925130D01*
X26103418Y-21882812D01*
X26179072Y-21839355D01*
X26243453Y-21797529D01*
X26261582Y-21784333D01*
X26391476Y-21673832D01*
X26507330Y-21549609D01*
X26608186Y-21413399D01*
X26693087Y-21266937D01*
X26761078Y-21111957D01*
X26811200Y-20950194D01*
X26842499Y-20783382D01*
X26849281Y-20718742D01*
X26852769Y-20677333D01*
X26855730Y-20644160D01*
X26857726Y-20624019D01*
X26858231Y-20620320D01*
X26857943Y-20608782D01*
X26856201Y-20581174D01*
X26853293Y-20541674D01*
X26849638Y-20496009D01*
X26825776Y-20319249D01*
X26784188Y-20152317D01*
X26724671Y-19994755D01*
X26647019Y-19846101D01*
X26551030Y-19705896D01*
X26445075Y-19582631D01*
X26353581Y-19492995D01*
X26261337Y-19417060D01*
X26162125Y-19350261D01*
X26049731Y-19288030D01*
X26031800Y-19279030D01*
X25897270Y-19218507D01*
X25767972Y-19173994D01*
X25638474Y-19144201D01*
X25503344Y-19127841D01*
X25376480Y-19123530D01*
X25204682Y-19132490D01*
X25040630Y-19159622D01*
X24882615Y-19205441D01*
X24728926Y-19270459D01*
X24577855Y-19355192D01*
X24553520Y-19370804D01*
X24497841Y-19411274D01*
X24434733Y-19463945D01*
X24368259Y-19524809D01*
X24302483Y-19589857D01*
X24241467Y-19655079D01*
X24189274Y-19716468D01*
X24152034Y-19766880D01*
X24071998Y-19902946D01*
X24004337Y-20050108D01*
X23951412Y-20202532D01*
X23916706Y-20348143D01*
X23907119Y-20420073D01*
X23901326Y-20505372D01*
X23899325Y-20597446D01*
X23901118Y-20689700D01*
X23906704Y-20775541D01*
X23916083Y-20848374D01*
X23916706Y-20851858D01*
X23953292Y-21003850D01*
X24006878Y-21156171D01*
X24075102Y-21302987D01*
X24152034Y-21433120D01*
X24192239Y-21487223D01*
X24245068Y-21548921D01*
X24306463Y-21614212D01*
X24372366Y-21679091D01*
X24438719Y-21739553D01*
X24501462Y-21791594D01*
X24553520Y-21829255D01*
X24707705Y-21918384D01*
X24867114Y-21987982D01*
X25030964Y-22037932D01*
X25198473Y-22068114D01*
X25368858Y-22078411D01*
X25368858Y-23086261D01*
X25365598Y-23086629D01*
X25349099Y-23080566D01*
X25328563Y-23063502D01*
X25311619Y-23046351D01*
X25275618Y-22998849D01*
X25243891Y-22938689D01*
X25219828Y-22873511D01*
X25206817Y-22810959D01*
X25206685Y-22809710D01*
X25206607Y-22777925D01*
X25210467Y-22733388D01*
X25217244Y-22683051D01*
X25225916Y-22633868D01*
X25235461Y-22592792D01*
X25241184Y-22574925D01*
X25236324Y-22564445D01*
X25217258Y-22559092D01*
X25200802Y-22555820D01*
X25191832Y-22547341D01*
X25187572Y-22528402D01*
X25185523Y-22499068D01*
X25182526Y-22442336D01*
X25099163Y-22429794D01*
X24910047Y-22391205D01*
X24727461Y-22333579D01*
X24552489Y-22257454D01*
X24386217Y-22163370D01*
X24229728Y-22051866D01*
X24087599Y-21926885D01*
X23954227Y-21783527D01*
X23838319Y-21629780D01*
X23739878Y-21465651D01*
X23658906Y-21291145D01*
X23595408Y-21106268D01*
X23560429Y-20966353D01*
X23551592Y-20923533D01*
X23544896Y-20886232D01*
X23540048Y-20850496D01*
X23536752Y-20812371D01*
X23534716Y-20767903D01*
X23533646Y-20713139D01*
X23533248Y-20644124D01*
X23533209Y-20600000D01*
X23533368Y-20521743D01*
G37*
X23533368Y-20521743D02*
X23534042Y-20459850D01*
X23535525Y-20410368D01*
X23538111Y-20369343D01*
X23542092Y-20332822D01*
X23547764Y-20296849D01*
X23555419Y-20257472D01*
X23560429Y-20233648D01*
X23611310Y-20041288D01*
X23679667Y-19859294D01*
X23765496Y-19687672D01*
X23868795Y-19526429D01*
X23989558Y-19375570D01*
X24087599Y-19273116D01*
X24233778Y-19144889D01*
X24390596Y-19033798D01*
X24557119Y-18940278D01*
X24732411Y-18864765D01*
X24915536Y-18807693D01*
X25105558Y-18769499D01*
X25193600Y-18758533D01*
X25208425Y-18755029D01*
X25216884Y-18744902D01*
X25221671Y-18722983D01*
X25224080Y-18700080D01*
X25227800Y-18667924D01*
X25233440Y-18650778D01*
X25244019Y-18643363D01*
X25257898Y-18640909D01*
X25278256Y-18634701D01*
X25281824Y-18625076D01*
X25272200Y-18592065D01*
X25262865Y-18546812D01*
X25254840Y-18496277D01*
X25249145Y-18447416D01*
X25246800Y-18407187D01*
X25247403Y-18390291D01*
X25259205Y-18329622D01*
X25280591Y-18268315D01*
X25309023Y-18211225D01*
X25341960Y-18163207D01*
X25376865Y-18129116D01*
X25387605Y-18122181D01*
X25419454Y-18114878D01*
X25452790Y-18127595D01*
X25487214Y-18160120D01*
X25505337Y-18184678D01*
X25551057Y-18268653D01*
X25576826Y-18354893D01*
X25582863Y-18444730D01*
X25569385Y-18539497D01*
X25565692Y-18554227D01*
X25555458Y-18594081D01*
X25551080Y-18618571D01*
X25553235Y-18631983D01*
X25562601Y-18638601D01*
X25579680Y-18642676D01*
X25597134Y-18647378D01*
X25606209Y-18656171D01*
X25609639Y-18674620D01*
X25610160Y-18704713D01*
X25611082Y-18737283D01*
X25615195Y-18754926D01*
X25624518Y-18763003D01*
X25633020Y-18765397D01*
X25652293Y-18769371D01*
X25686117Y-18776320D01*
X25729134Y-18785145D01*
X25761532Y-18791785D01*
X25939166Y-18838283D01*
X26113437Y-18903861D01*
X26281641Y-18987288D01*
X26441077Y-19087333D01*
X26491928Y-19124254D01*
X26566229Y-19180175D01*
X26589229Y-19158568D01*
X26618691Y-19140371D01*
X26647385Y-19139125D01*
X26665400Y-19149660D01*
X26677915Y-19156695D01*
X26686965Y-19147120D01*
X26696216Y-19132641D01*
X26714153Y-19105817D01*
X26737858Y-19070982D01*
X26755374Y-19045520D01*
X26783574Y-19005640D01*
X26806079Y-18977923D01*
X26828351Y-18957548D01*
X26855850Y-18939697D01*
X26894038Y-18919546D01*
X26903443Y-18914814D01*
X26971283Y-18885211D01*
X27032024Y-18867476D01*
X27083383Y-18861924D01*
X27123076Y-18868871D01*
X27143032Y-18881673D01*
X27160170Y-18911972D01*
X27163885Y-18955672D01*
X27154187Y-19013540D01*
X27145498Y-19044252D01*
X27119354Y-19113755D01*
X27086438Y-19171338D01*
X27043227Y-19221301D01*
X26986196Y-19267943D01*
X26934106Y-19302186D01*
X26861052Y-19347017D01*
X26882889Y-19368854D01*
X26904726Y-19390692D01*
X26870967Y-19425523D01*
X26837207Y-19460353D01*
X26910928Y-19570437D01*
X27009306Y-19734981D01*
X27090105Y-19907989D01*
X27152455Y-20087303D01*
X27195486Y-20270765D01*
X27197103Y-20279940D01*
X27219138Y-20406960D01*
X27273423Y-20406960D01*
X27304997Y-20407663D01*
X27321934Y-20411713D01*
X27329913Y-20422025D01*
X27333915Y-20437997D01*
X27341299Y-20459504D01*
X27352888Y-20463864D01*
X27356370Y-20462799D01*
X27373010Y-20458471D01*
X27404440Y-20451940D01*
X27445392Y-20444264D01*
X27471417Y-20439705D01*
X27528874Y-20431509D01*
X27575936Y-20429713D01*
X27618984Y-20435347D01*
X27664401Y-20449438D01*
X27718570Y-20473013D01*
X27738887Y-20482773D01*
X27797885Y-20515717D01*
X27837208Y-20547786D01*
X27857436Y-20579733D01*
X27859146Y-20612310D01*
X27852549Y-20630480D01*
X27830710Y-20657545D01*
X27793688Y-20686331D01*
X27746183Y-20714388D01*
X27692900Y-20739263D01*
X27638539Y-20758504D01*
X27587803Y-20769657D01*
X27585012Y-20770011D01*
X27553791Y-20770108D01*
X27508820Y-20765567D01*
X27455905Y-20757263D01*
X27400851Y-20746073D01*
X27361652Y-20736312D01*
X27345805Y-20735731D01*
X27337183Y-20748567D01*
X27333966Y-20761750D01*
X27329134Y-20779866D01*
X27320254Y-20789161D01*
X27301642Y-20792573D01*
X27273423Y-20793040D01*
X27219138Y-20793040D01*
X27197103Y-20920061D01*
X27155158Y-21103237D01*
X27093921Y-21282522D01*
X27014370Y-21455493D01*
X26917480Y-21619728D01*
X26911781Y-21628288D01*
X26883627Y-21669703D01*
X26858955Y-21704833D01*
X26840219Y-21730266D01*
X26829870Y-21742595D01*
X26829250Y-21743068D01*
X26830329Y-21752478D01*
X26843970Y-21769659D01*
X26854953Y-21780093D01*
X26878476Y-21807185D01*
X26890031Y-21834216D01*
X26888153Y-21856258D01*
X26880160Y-21864920D01*
X26870838Y-21875551D01*
X26877887Y-21888006D01*
X26902701Y-21904725D01*
X26903020Y-21904908D01*
X26977851Y-21952174D01*
X27036102Y-21999769D01*
X27081197Y-22051605D01*
X27116558Y-22111589D01*
X27144717Y-22181037D01*
X27161633Y-22245583D01*
X27163542Y-22296545D01*
X27150744Y-22333700D01*
X27123540Y-22356829D01*
X27082231Y-22365711D01*
X27027115Y-22360125D01*
X26958494Y-22339850D01*
X26938952Y-22332335D01*
X26871926Y-22298437D01*
X26814109Y-22252907D01*
X26761864Y-22192473D01*
X26729016Y-22143399D01*
X26705215Y-22105778D01*
X26688993Y-22083474D01*
X26678033Y-22074059D01*
X26670016Y-22075103D01*
X26666833Y-22078241D01*
X26647333Y-22091816D01*
X26623951Y-22088108D01*
X26594456Y-22066628D01*
X26588549Y-22061053D01*
X26555050Y-22028585D01*
X26527105Y-22050537D01*
X26443063Y-22111302D01*
X26346209Y-22172559D01*
X26242176Y-22231275D01*
X26136598Y-22284418D01*
X26035110Y-22328954D01*
X25956204Y-22357800D01*
X25912486Y-22370798D01*
X25859050Y-22384953D01*
X25800381Y-22399268D01*
X25740960Y-22412748D01*
X25685271Y-22424395D01*
X25637797Y-22433213D01*
X25603020Y-22438206D01*
X25591103Y-22438960D01*
X25578696Y-22441059D01*
X25572220Y-22450602D01*
X25569802Y-22472461D01*
X25569520Y-22495094D01*
X25568886Y-22527310D01*
X25565125Y-22544775D01*
X25555444Y-22553057D01*
X25538229Y-22557487D01*
X25516814Y-22564311D01*
X25511158Y-22575782D01*
X25512912Y-22585173D01*
X25517316Y-22604541D01*
X25523986Y-22638004D01*
X25531757Y-22679627D01*
X25535056Y-22698040D01*
X25543585Y-22762410D01*
X25543178Y-22817358D01*
X25532729Y-22869891D01*
X25511133Y-22927020D01*
X25492900Y-22965350D01*
X25463386Y-23018265D01*
X25435489Y-23054189D01*
X25406570Y-23076002D01*
X25383546Y-23084608D01*
X25368858Y-23086261D01*
X25368858Y-22078411D01*
X25541337Y-22068704D01*
X25715127Y-22038875D01*
X25798120Y-22017563D01*
X25863842Y-21995274D01*
X25940301Y-21963541D01*
X26021994Y-21925130D01*
X26103418Y-21882812D01*
X26179072Y-21839355D01*
X26243453Y-21797529D01*
X26261582Y-21784333D01*
X26391476Y-21673832D01*
X26507330Y-21549609D01*
X26608186Y-21413399D01*
X26693087Y-21266937D01*
X26761078Y-21111957D01*
X26811200Y-20950194D01*
X26842499Y-20783382D01*
X26849281Y-20718742D01*
X26852769Y-20677333D01*
X26855730Y-20644160D01*
X26857726Y-20624019D01*
X26858231Y-20620320D01*
X26857943Y-20608782D01*
X26856201Y-20581174D01*
X26853293Y-20541674D01*
X26849638Y-20496009D01*
X26825776Y-20319249D01*
X26784188Y-20152317D01*
X26724671Y-19994755D01*
X26647019Y-19846101D01*
X26551030Y-19705896D01*
X26445075Y-19582631D01*
X26353581Y-19492995D01*
X26261337Y-19417060D01*
X26162125Y-19350261D01*
X26049731Y-19288030D01*
X26031800Y-19279030D01*
X25897270Y-19218507D01*
X25767972Y-19173994D01*
X25638474Y-19144201D01*
X25503344Y-19127841D01*
X25376480Y-19123530D01*
X25204682Y-19132490D01*
X25040630Y-19159622D01*
X24882615Y-19205441D01*
X24728926Y-19270459D01*
X24577855Y-19355192D01*
X24553520Y-19370804D01*
X24497841Y-19411274D01*
X24434733Y-19463945D01*
X24368259Y-19524809D01*
X24302483Y-19589857D01*
X24241467Y-19655079D01*
X24189274Y-19716468D01*
X24152034Y-19766880D01*
X24071998Y-19902946D01*
X24004337Y-20050108D01*
X23951412Y-20202532D01*
X23916706Y-20348143D01*
X23907119Y-20420073D01*
X23901326Y-20505372D01*
X23899325Y-20597446D01*
X23901118Y-20689700D01*
X23906704Y-20775541D01*
X23916083Y-20848374D01*
X23916706Y-20851858D01*
X23953292Y-21003850D01*
X24006878Y-21156171D01*
X24075102Y-21302987D01*
X24152034Y-21433120D01*
X24192239Y-21487223D01*
X24245068Y-21548921D01*
X24306463Y-21614212D01*
X24372366Y-21679091D01*
X24438719Y-21739553D01*
X24501462Y-21791594D01*
X24553520Y-21829255D01*
X24707705Y-21918384D01*
X24867114Y-21987982D01*
X25030964Y-22037932D01*
X25198473Y-22068114D01*
X25368858Y-22078411D01*
X25368858Y-23086261D01*
X25365598Y-23086629D01*
X25349099Y-23080566D01*
X25328563Y-23063502D01*
X25311619Y-23046351D01*
X25275618Y-22998849D01*
X25243891Y-22938689D01*
X25219828Y-22873511D01*
X25206817Y-22810959D01*
X25206685Y-22809710D01*
X25206607Y-22777925D01*
X25210467Y-22733388D01*
X25217244Y-22683051D01*
X25225916Y-22633868D01*
X25235461Y-22592792D01*
X25241184Y-22574925D01*
X25236324Y-22564445D01*
X25217258Y-22559092D01*
X25200802Y-22555820D01*
X25191832Y-22547341D01*
X25187572Y-22528402D01*
X25185523Y-22499068D01*
X25182526Y-22442336D01*
X25099163Y-22429794D01*
X24910047Y-22391205D01*
X24727461Y-22333579D01*
X24552489Y-22257454D01*
X24386217Y-22163370D01*
X24229728Y-22051866D01*
X24087599Y-21926885D01*
X23954227Y-21783527D01*
X23838319Y-21629780D01*
X23739878Y-21465651D01*
X23658906Y-21291145D01*
X23595408Y-21106268D01*
X23560429Y-20966353D01*
X23551592Y-20923533D01*
X23544896Y-20886232D01*
X23540048Y-20850496D01*
X23536752Y-20812371D01*
X23534716Y-20767903D01*
X23533646Y-20713139D01*
X23533248Y-20644124D01*
X23533209Y-20600000D01*
X23533368Y-20521743D01*
G36*
X24180767Y-20371063D02*
G01*
X24187975Y-20366542D01*
X24191170Y-20366320D01*
X24201957Y-20371644D01*
X24228327Y-20386983D01*
X24268757Y-20411392D01*
X24321722Y-20443923D01*
X24385696Y-20483631D01*
X24459154Y-20529569D01*
X24540573Y-20580789D01*
X24628425Y-20636347D01*
X24721188Y-20695294D01*
X24721935Y-20695769D01*
X24814375Y-20754589D01*
X24901603Y-20809967D01*
X24982134Y-20860968D01*
X25054484Y-20906660D01*
X25117168Y-20946108D01*
X25168702Y-20978377D01*
X25207601Y-21002535D01*
X25232382Y-21017646D01*
X25241560Y-21022777D01*
X25241577Y-21022769D01*
X25238893Y-21012965D01*
X25230308Y-20985565D01*
X25216372Y-20942244D01*
X25197632Y-20884677D01*
X25174638Y-20814538D01*
X25147939Y-20733501D01*
X25118084Y-20643240D01*
X25085622Y-20545429D01*
X25051173Y-20441961D01*
X25016521Y-20337749D01*
X24983866Y-20238981D01*
X24953771Y-20147391D01*
X24926794Y-20064711D01*
X24903497Y-19992675D01*
X24884441Y-19933016D01*
X24870186Y-19887468D01*
X24861293Y-19857765D01*
X24858319Y-19845721D01*
X24865933Y-19830644D01*
X24874727Y-19827840D01*
X24886260Y-19832590D01*
X24914087Y-19846300D01*
X24956685Y-19868163D01*
X25012528Y-19897370D01*
X25080092Y-19933115D01*
X25157855Y-19974588D01*
X25244291Y-20020984D01*
X25337877Y-20071493D01*
X25437088Y-20125308D01*
X25478560Y-20147880D01*
X25579271Y-20202713D01*
X25674664Y-20254579D01*
X25763253Y-20302674D01*
X25843550Y-20346195D01*
X25914070Y-20384339D01*
X25973327Y-20416301D01*
X26019832Y-20441279D01*
X26052101Y-20458468D01*
X26068647Y-20467065D01*
X26070551Y-20467920D01*
X26069572Y-20458640D01*
X26064025Y-20432900D01*
X26054661Y-20393850D01*
X26042232Y-20344644D01*
X26029966Y-20297740D01*
X26010594Y-20223518D01*
X25996644Y-20166633D01*
X25987818Y-20124922D01*
X25983815Y-20096225D01*
X25984337Y-20078380D01*
X25989084Y-20069226D01*
X25997756Y-20066601D01*
X25997952Y-20066600D01*
X26007709Y-20074080D01*
X26028956Y-20095307D01*
X26060119Y-20128465D01*
X26099624Y-20171736D01*
X26145900Y-20223303D01*
X26197371Y-20281349D01*
X26252465Y-20344056D01*
X26309609Y-20409609D01*
X26367228Y-20476189D01*
X26423751Y-20541979D01*
X26477603Y-20605162D01*
X26527210Y-20663922D01*
X26571001Y-20716440D01*
X26607400Y-20760899D01*
X26634836Y-20795484D01*
X26651734Y-20818375D01*
X26656640Y-20827358D01*
X26647431Y-20839521D01*
X26622891Y-20852562D01*
X26608380Y-20857841D01*
X26572046Y-20869287D01*
X26523908Y-20883979D01*
X26467015Y-20901032D01*
X26404415Y-20919563D01*
X26339158Y-20938687D01*
X26274292Y-20957520D01*
X26212868Y-20975177D01*
X26157933Y-20990775D01*
X26112536Y-21003430D01*
X26079728Y-21012257D01*
X26062557Y-21016372D01*
X26061042Y-21016560D01*
X26051475Y-21010751D01*
X26047950Y-20992103D01*
X26050540Y-20958788D01*
X26059319Y-20908978D01*
X26066715Y-20874320D01*
X26074619Y-20834804D01*
X26079305Y-20803165D01*
X26080111Y-20784333D01*
X26079174Y-20781464D01*
X26068479Y-20774756D01*
X26042596Y-20759938D01*
X26003917Y-20738309D01*
X25954830Y-20711166D01*
X25897728Y-20679805D01*
X25835002Y-20645524D01*
X25769041Y-20609619D01*
X25702237Y-20573389D01*
X25636980Y-20538130D01*
X25575662Y-20505138D01*
X25520674Y-20475712D01*
X25474405Y-20451149D01*
X25439247Y-20432744D01*
X25417591Y-20421797D01*
X25411594Y-20419279D01*
X25412397Y-20429606D01*
X25415807Y-20458119D01*
X25421565Y-20502885D01*
X25429411Y-20561974D01*
X25439086Y-20633453D01*
X25450330Y-20715391D01*
X25462882Y-20805858D01*
X25476485Y-20902920D01*
X25478726Y-20918825D01*
X25492429Y-21017028D01*
X25505003Y-21109173D01*
X25516202Y-21193295D01*
X25525776Y-21267428D01*
X25533477Y-21329604D01*
X25539057Y-21377858D01*
X25542267Y-21410222D01*
X25542859Y-21424732D01*
X25542709Y-21425242D01*
X25529141Y-21431341D01*
X25514403Y-21430780D01*
X25501317Y-21426598D01*
X25470801Y-21415911D01*
X25424465Y-21399307D01*
X25363921Y-21377374D01*
X25290778Y-21350700D01*
X25206649Y-21319875D01*
X25113143Y-21285486D01*
X25011873Y-21248121D01*
X24904447Y-21208369D01*
X24839953Y-21184451D01*
X24707660Y-21135252D01*
X24593349Y-21092515D01*
X24495892Y-21055791D01*
X24414163Y-21024633D01*
X24347035Y-20998591D01*
X24293381Y-20977218D01*
X24252073Y-20960063D01*
X24221985Y-20946679D01*
X24201989Y-20936618D01*
X24190960Y-20929430D01*
X24187759Y-20924863D01*
X24193651Y-20914191D01*
X24212810Y-20901525D01*
X24247466Y-20885645D01*
X24289605Y-20869148D01*
X24331853Y-20852698D01*
X24366636Y-20838018D01*
X24389747Y-20826954D01*
X24396940Y-20822063D01*
X24393819Y-20810999D01*
X24382066Y-20784827D01*
X24362990Y-20746161D01*
X24337903Y-20697615D01*
X24308113Y-20641804D01*
X24290015Y-20608625D01*
X24250129Y-20535342D01*
X24219854Y-20477837D01*
X24198485Y-20434385D01*
X24185317Y-20403257D01*
X24179646Y-20382725D01*
X24180767Y-20371063D01*
G37*
X24180767Y-20371063D02*
X24187975Y-20366542D01*
X24191170Y-20366320D01*
X24201957Y-20371644D01*
X24228327Y-20386983D01*
X24268757Y-20411392D01*
X24321722Y-20443923D01*
X24385696Y-20483631D01*
X24459154Y-20529569D01*
X24540573Y-20580789D01*
X24628425Y-20636347D01*
X24721188Y-20695294D01*
X24721935Y-20695769D01*
X24814375Y-20754589D01*
X24901603Y-20809967D01*
X24982134Y-20860968D01*
X25054484Y-20906660D01*
X25117168Y-20946108D01*
X25168702Y-20978377D01*
X25207601Y-21002535D01*
X25232382Y-21017646D01*
X25241560Y-21022777D01*
X25241577Y-21022769D01*
X25238893Y-21012965D01*
X25230308Y-20985565D01*
X25216372Y-20942244D01*
X25197632Y-20884677D01*
X25174638Y-20814538D01*
X25147939Y-20733501D01*
X25118084Y-20643240D01*
X25085622Y-20545429D01*
X25051173Y-20441961D01*
X25016521Y-20337749D01*
X24983866Y-20238981D01*
X24953771Y-20147391D01*
X24926794Y-20064711D01*
X24903497Y-19992675D01*
X24884441Y-19933016D01*
X24870186Y-19887468D01*
X24861293Y-19857765D01*
X24858319Y-19845721D01*
X24865933Y-19830644D01*
X24874727Y-19827840D01*
X24886260Y-19832590D01*
X24914087Y-19846300D01*
X24956685Y-19868163D01*
X25012528Y-19897370D01*
X25080092Y-19933115D01*
X25157855Y-19974588D01*
X25244291Y-20020984D01*
X25337877Y-20071493D01*
X25437088Y-20125308D01*
X25478560Y-20147880D01*
X25579271Y-20202713D01*
X25674664Y-20254579D01*
X25763253Y-20302674D01*
X25843550Y-20346195D01*
X25914070Y-20384339D01*
X25973327Y-20416301D01*
X26019832Y-20441279D01*
X26052101Y-20458468D01*
X26068647Y-20467065D01*
X26070551Y-20467920D01*
X26069572Y-20458640D01*
X26064025Y-20432900D01*
X26054661Y-20393850D01*
X26042232Y-20344644D01*
X26029966Y-20297740D01*
X26010594Y-20223518D01*
X25996644Y-20166633D01*
X25987818Y-20124922D01*
X25983815Y-20096225D01*
X25984337Y-20078380D01*
X25989084Y-20069226D01*
X25997756Y-20066601D01*
X25997952Y-20066600D01*
X26007709Y-20074080D01*
X26028956Y-20095307D01*
X26060119Y-20128465D01*
X26099624Y-20171736D01*
X26145900Y-20223303D01*
X26197371Y-20281349D01*
X26252465Y-20344056D01*
X26309609Y-20409609D01*
X26367228Y-20476189D01*
X26423751Y-20541979D01*
X26477603Y-20605162D01*
X26527210Y-20663922D01*
X26571001Y-20716440D01*
X26607400Y-20760899D01*
X26634836Y-20795484D01*
X26651734Y-20818375D01*
X26656640Y-20827358D01*
X26647431Y-20839521D01*
X26622891Y-20852562D01*
X26608380Y-20857841D01*
X26572046Y-20869287D01*
X26523908Y-20883979D01*
X26467015Y-20901032D01*
X26404415Y-20919563D01*
X26339158Y-20938687D01*
X26274292Y-20957520D01*
X26212868Y-20975177D01*
X26157933Y-20990775D01*
X26112536Y-21003430D01*
X26079728Y-21012257D01*
X26062557Y-21016372D01*
X26061042Y-21016560D01*
X26051475Y-21010751D01*
X26047950Y-20992103D01*
X26050540Y-20958788D01*
X26059319Y-20908978D01*
X26066715Y-20874320D01*
X26074619Y-20834804D01*
X26079305Y-20803165D01*
X26080111Y-20784333D01*
X26079174Y-20781464D01*
X26068479Y-20774756D01*
X26042596Y-20759938D01*
X26003917Y-20738309D01*
X25954830Y-20711166D01*
X25897728Y-20679805D01*
X25835002Y-20645524D01*
X25769041Y-20609619D01*
X25702237Y-20573389D01*
X25636980Y-20538130D01*
X25575662Y-20505138D01*
X25520674Y-20475712D01*
X25474405Y-20451149D01*
X25439247Y-20432744D01*
X25417591Y-20421797D01*
X25411594Y-20419279D01*
X25412397Y-20429606D01*
X25415807Y-20458119D01*
X25421565Y-20502885D01*
X25429411Y-20561974D01*
X25439086Y-20633453D01*
X25450330Y-20715391D01*
X25462882Y-20805858D01*
X25476485Y-20902920D01*
X25478726Y-20918825D01*
X25492429Y-21017028D01*
X25505003Y-21109173D01*
X25516202Y-21193295D01*
X25525776Y-21267428D01*
X25533477Y-21329604D01*
X25539057Y-21377858D01*
X25542267Y-21410222D01*
X25542859Y-21424732D01*
X25542709Y-21425242D01*
X25529141Y-21431341D01*
X25514403Y-21430780D01*
X25501317Y-21426598D01*
X25470801Y-21415911D01*
X25424465Y-21399307D01*
X25363921Y-21377374D01*
X25290778Y-21350700D01*
X25206649Y-21319875D01*
X25113143Y-21285486D01*
X25011873Y-21248121D01*
X24904447Y-21208369D01*
X24839953Y-21184451D01*
X24707660Y-21135252D01*
X24593349Y-21092515D01*
X24495892Y-21055791D01*
X24414163Y-21024633D01*
X24347035Y-20998591D01*
X24293381Y-20977218D01*
X24252073Y-20960063D01*
X24221985Y-20946679D01*
X24201989Y-20936618D01*
X24190960Y-20929430D01*
X24187759Y-20924863D01*
X24193651Y-20914191D01*
X24212810Y-20901525D01*
X24247466Y-20885645D01*
X24289605Y-20869148D01*
X24331853Y-20852698D01*
X24366636Y-20838018D01*
X24389747Y-20826954D01*
X24396940Y-20822063D01*
X24393819Y-20810999D01*
X24382066Y-20784827D01*
X24362990Y-20746161D01*
X24337903Y-20697615D01*
X24308113Y-20641804D01*
X24290015Y-20608625D01*
X24250129Y-20535342D01*
X24219854Y-20477837D01*
X24198485Y-20434385D01*
X24185317Y-20403257D01*
X24179646Y-20382725D01*
X24180767Y-20371063D01*
G36*
X26644736Y-25731889D02*
G01*
X26656314Y-25632154D01*
X26664085Y-25590479D01*
X26689594Y-25492115D01*
X26724319Y-25397710D01*
X26767946Y-25307697D01*
X26820164Y-25222509D01*
X26880658Y-25142580D01*
X26949116Y-25068342D01*
X27025224Y-25000230D01*
X27108670Y-24938675D01*
X27157100Y-24908059D01*
X27184441Y-24892616D01*
X27214316Y-24877247D01*
X27244863Y-24862760D01*
X27274218Y-24849964D01*
X27300519Y-24839666D01*
X27321903Y-24832674D01*
X27336507Y-24829798D01*
X27337578Y-24829767D01*
X27344575Y-24830444D01*
X27352262Y-24833072D01*
X27361848Y-24838492D01*
X27374540Y-24847547D01*
X27391546Y-24861077D01*
X27414074Y-24879924D01*
X27434098Y-24897006D01*
X27539922Y-24992785D01*
X27643775Y-25096753D01*
X27743910Y-25206943D01*
X27838581Y-25321387D01*
X27926041Y-25438118D01*
X27967202Y-25497740D01*
X27993065Y-25537039D01*
X28018641Y-25577213D01*
X28043321Y-25617196D01*
X28066495Y-25655920D01*
X28087554Y-25692316D01*
X28105890Y-25725317D01*
X28120892Y-25753855D01*
X28131952Y-25776863D01*
X28138461Y-25793272D01*
X28139989Y-25800598D01*
X28137684Y-25811253D01*
X28131681Y-25827124D01*
X28124077Y-25843180D01*
X28077934Y-25926971D01*
X28025189Y-26014513D01*
X27967380Y-26103484D01*
X27906047Y-26191560D01*
X27842729Y-26276416D01*
X27807755Y-26320700D01*
X27751979Y-26387153D01*
X27689817Y-26456489D01*
X27623572Y-26526332D01*
X27555551Y-26594306D01*
X27488058Y-26658033D01*
X27433841Y-26706215D01*
X27405014Y-26730716D01*
X27382548Y-26749026D01*
X27365388Y-26761893D01*
X27352473Y-26770065D01*
X27342746Y-26774292D01*
X27336083Y-26775342D01*
X27328275Y-26773412D01*
X27313219Y-26768119D01*
X27292953Y-26760230D01*
X27269512Y-26750512D01*
X27264963Y-26748563D01*
X27174429Y-26704217D01*
X27089904Y-26652056D01*
X27011698Y-26592671D01*
X26940116Y-26526655D01*
X26875467Y-26454600D01*
X26818057Y-26377100D01*
X26768195Y-26294746D01*
X26726188Y-26208132D01*
X26692343Y-26117849D01*
X26666968Y-26024491D01*
X26650370Y-25928650D01*
X26642857Y-25830918D01*
X26644736Y-25731889D01*
G37*
X26644736Y-25731889D02*
X26656314Y-25632154D01*
X26664085Y-25590479D01*
X26689594Y-25492115D01*
X26724319Y-25397710D01*
X26767946Y-25307697D01*
X26820164Y-25222509D01*
X26880658Y-25142580D01*
X26949116Y-25068342D01*
X27025224Y-25000230D01*
X27108670Y-24938675D01*
X27157100Y-24908059D01*
X27184441Y-24892616D01*
X27214316Y-24877247D01*
X27244863Y-24862760D01*
X27274218Y-24849964D01*
X27300519Y-24839666D01*
X27321903Y-24832674D01*
X27336507Y-24829798D01*
X27337578Y-24829767D01*
X27344575Y-24830444D01*
X27352262Y-24833072D01*
X27361848Y-24838492D01*
X27374540Y-24847547D01*
X27391546Y-24861077D01*
X27414074Y-24879924D01*
X27434098Y-24897006D01*
X27539922Y-24992785D01*
X27643775Y-25096753D01*
X27743910Y-25206943D01*
X27838581Y-25321387D01*
X27926041Y-25438118D01*
X27967202Y-25497740D01*
X27993065Y-25537039D01*
X28018641Y-25577213D01*
X28043321Y-25617196D01*
X28066495Y-25655920D01*
X28087554Y-25692316D01*
X28105890Y-25725317D01*
X28120892Y-25753855D01*
X28131952Y-25776863D01*
X28138461Y-25793272D01*
X28139989Y-25800598D01*
X28137684Y-25811253D01*
X28131681Y-25827124D01*
X28124077Y-25843180D01*
X28077934Y-25926971D01*
X28025189Y-26014513D01*
X27967380Y-26103484D01*
X27906047Y-26191560D01*
X27842729Y-26276416D01*
X27807755Y-26320700D01*
X27751979Y-26387153D01*
X27689817Y-26456489D01*
X27623572Y-26526332D01*
X27555551Y-26594306D01*
X27488058Y-26658033D01*
X27433841Y-26706215D01*
X27405014Y-26730716D01*
X27382548Y-26749026D01*
X27365388Y-26761893D01*
X27352473Y-26770065D01*
X27342746Y-26774292D01*
X27336083Y-26775342D01*
X27328275Y-26773412D01*
X27313219Y-26768119D01*
X27292953Y-26760230D01*
X27269512Y-26750512D01*
X27264963Y-26748563D01*
X27174429Y-26704217D01*
X27089904Y-26652056D01*
X27011698Y-26592671D01*
X26940116Y-26526655D01*
X26875467Y-26454600D01*
X26818057Y-26377100D01*
X26768195Y-26294746D01*
X26726188Y-26208132D01*
X26692343Y-26117849D01*
X26666968Y-26024491D01*
X26650370Y-25928650D01*
X26642857Y-25830918D01*
X26644736Y-25731889D01*
G36*
X25552793Y-25724694D02*
G01*
X25562603Y-25578610D01*
X25569543Y-25518155D01*
X25593183Y-25374184D01*
X25626603Y-25232592D01*
X25669612Y-25093792D01*
X25722022Y-24958198D01*
X25783643Y-24826226D01*
X25854286Y-24698289D01*
X25933761Y-24574803D01*
X26021880Y-24456180D01*
X26094121Y-24369980D01*
X26127929Y-24332179D01*
X26156093Y-24301925D01*
X26179161Y-24278709D01*
X26197681Y-24262021D01*
X26212200Y-24251353D01*
X26223265Y-24246194D01*
X26227907Y-24245520D01*
X26241203Y-24247369D01*
X26262642Y-24252622D01*
X26290963Y-24260841D01*
X26324905Y-24271587D01*
X26363206Y-24284420D01*
X26404604Y-24298904D01*
X26447838Y-24314597D01*
X26491646Y-24331063D01*
X26534767Y-24347862D01*
X26575940Y-24364555D01*
X26603144Y-24376036D01*
X26636250Y-24390629D01*
X26672128Y-24407057D01*
X26709459Y-24424657D01*
X26746923Y-24442769D01*
X26783201Y-24460728D01*
X26816973Y-24477874D01*
X26846920Y-24493544D01*
X26871722Y-24507075D01*
X26890060Y-24517807D01*
X26900615Y-24525075D01*
X26901258Y-24525647D01*
X26912470Y-24541480D01*
X26915790Y-24558933D01*
X26910737Y-24574971D01*
X26909370Y-24576884D01*
X26903007Y-24582893D01*
X26890189Y-24593425D01*
X26872703Y-24607059D01*
X26852334Y-24622376D01*
X26849680Y-24624334D01*
X26753567Y-24701205D01*
X26665089Y-24784602D01*
X26584473Y-24874213D01*
X26511946Y-24969727D01*
X26447735Y-25070835D01*
X26392067Y-25177223D01*
X26345169Y-25288583D01*
X26326978Y-25340260D01*
X26299019Y-25432923D01*
X26278018Y-25522116D01*
X26263376Y-25611157D01*
X26254495Y-25703369D01*
X26251842Y-25756820D01*
X26252772Y-25874896D01*
X26263610Y-25992573D01*
X26284109Y-26109110D01*
X26314024Y-26223767D01*
X26353107Y-26335803D01*
X26401112Y-26444477D01*
X26457794Y-26549048D01*
X26522905Y-26648775D01*
X26568571Y-26709320D01*
X26608869Y-26756883D01*
X26655326Y-26806622D01*
X26705688Y-26856396D01*
X26757699Y-26904066D01*
X26809105Y-26947492D01*
X26857652Y-26984533D01*
X26861025Y-26986930D01*
X26879196Y-27000352D01*
X26894776Y-27012907D01*
X26905403Y-27022649D01*
X26908015Y-27025701D01*
X26915433Y-27043528D01*
X26912824Y-27060874D01*
X26900316Y-27076964D01*
X26899367Y-27077777D01*
X26889064Y-27084716D01*
X26870815Y-27095188D01*
X26845934Y-27108547D01*
X26815737Y-27124150D01*
X26781537Y-27141351D01*
X26744650Y-27159504D01*
X26706391Y-27177965D01*
X26668073Y-27196089D01*
X26631013Y-27213230D01*
X26596524Y-27228744D01*
X26565922Y-27241985D01*
X26557631Y-27245444D01*
X26526066Y-27258096D01*
X26490639Y-27271647D01*
X26452750Y-27285624D01*
X26413803Y-27299551D01*
X26375200Y-27312951D01*
X26338342Y-27325350D01*
X26304633Y-27336273D01*
X26275472Y-27345244D01*
X26252264Y-27351787D01*
X26236411Y-27355428D01*
X26231513Y-27356017D01*
X26224503Y-27355744D01*
X26217729Y-27353838D01*
X26209949Y-27349312D01*
X26199915Y-27341179D01*
X26186384Y-27328451D01*
X26168110Y-27310140D01*
X26149004Y-27290566D01*
X26052512Y-27184079D01*
X25963995Y-27071591D01*
X25883613Y-26953593D01*
X25811528Y-26830575D01*
X25747900Y-26703029D01*
X25692890Y-26571447D01*
X25646658Y-26436319D01*
X25609365Y-26298138D01*
X25581171Y-26157393D01*
X25562237Y-26014577D01*
X25552724Y-25870180D01*
X25552793Y-25724694D01*
G37*
X25552793Y-25724694D02*
X25562603Y-25578610D01*
X25569543Y-25518155D01*
X25593183Y-25374184D01*
X25626603Y-25232592D01*
X25669612Y-25093792D01*
X25722022Y-24958198D01*
X25783643Y-24826226D01*
X25854286Y-24698289D01*
X25933761Y-24574803D01*
X26021880Y-24456180D01*
X26094121Y-24369980D01*
X26127929Y-24332179D01*
X26156093Y-24301925D01*
X26179161Y-24278709D01*
X26197681Y-24262021D01*
X26212200Y-24251353D01*
X26223265Y-24246194D01*
X26227907Y-24245520D01*
X26241203Y-24247369D01*
X26262642Y-24252622D01*
X26290963Y-24260841D01*
X26324905Y-24271587D01*
X26363206Y-24284420D01*
X26404604Y-24298904D01*
X26447838Y-24314597D01*
X26491646Y-24331063D01*
X26534767Y-24347862D01*
X26575940Y-24364555D01*
X26603144Y-24376036D01*
X26636250Y-24390629D01*
X26672128Y-24407057D01*
X26709459Y-24424657D01*
X26746923Y-24442769D01*
X26783201Y-24460728D01*
X26816973Y-24477874D01*
X26846920Y-24493544D01*
X26871722Y-24507075D01*
X26890060Y-24517807D01*
X26900615Y-24525075D01*
X26901258Y-24525647D01*
X26912470Y-24541480D01*
X26915790Y-24558933D01*
X26910737Y-24574971D01*
X26909370Y-24576884D01*
X26903007Y-24582893D01*
X26890189Y-24593425D01*
X26872703Y-24607059D01*
X26852334Y-24622376D01*
X26849680Y-24624334D01*
X26753567Y-24701205D01*
X26665089Y-24784602D01*
X26584473Y-24874213D01*
X26511946Y-24969727D01*
X26447735Y-25070835D01*
X26392067Y-25177223D01*
X26345169Y-25288583D01*
X26326978Y-25340260D01*
X26299019Y-25432923D01*
X26278018Y-25522116D01*
X26263376Y-25611157D01*
X26254495Y-25703369D01*
X26251842Y-25756820D01*
X26252772Y-25874896D01*
X26263610Y-25992573D01*
X26284109Y-26109110D01*
X26314024Y-26223767D01*
X26353107Y-26335803D01*
X26401112Y-26444477D01*
X26457794Y-26549048D01*
X26522905Y-26648775D01*
X26568571Y-26709320D01*
X26608869Y-26756883D01*
X26655326Y-26806622D01*
X26705688Y-26856396D01*
X26757699Y-26904066D01*
X26809105Y-26947492D01*
X26857652Y-26984533D01*
X26861025Y-26986930D01*
X26879196Y-27000352D01*
X26894776Y-27012907D01*
X26905403Y-27022649D01*
X26908015Y-27025701D01*
X26915433Y-27043528D01*
X26912824Y-27060874D01*
X26900316Y-27076964D01*
X26899367Y-27077777D01*
X26889064Y-27084716D01*
X26870815Y-27095188D01*
X26845934Y-27108547D01*
X26815737Y-27124150D01*
X26781537Y-27141351D01*
X26744650Y-27159504D01*
X26706391Y-27177965D01*
X26668073Y-27196089D01*
X26631013Y-27213230D01*
X26596524Y-27228744D01*
X26565922Y-27241985D01*
X26557631Y-27245444D01*
X26526066Y-27258096D01*
X26490639Y-27271647D01*
X26452750Y-27285624D01*
X26413803Y-27299551D01*
X26375200Y-27312951D01*
X26338342Y-27325350D01*
X26304633Y-27336273D01*
X26275472Y-27345244D01*
X26252264Y-27351787D01*
X26236411Y-27355428D01*
X26231513Y-27356017D01*
X26224503Y-27355744D01*
X26217729Y-27353838D01*
X26209949Y-27349312D01*
X26199915Y-27341179D01*
X26186384Y-27328451D01*
X26168110Y-27310140D01*
X26149004Y-27290566D01*
X26052512Y-27184079D01*
X25963995Y-27071591D01*
X25883613Y-26953593D01*
X25811528Y-26830575D01*
X25747900Y-26703029D01*
X25692890Y-26571447D01*
X25646658Y-26436319D01*
X25609365Y-26298138D01*
X25581171Y-26157393D01*
X25562237Y-26014577D01*
X25552724Y-25870180D01*
X25552793Y-25724694D01*
G36*
X24465025Y-25767977D02*
G01*
X24465372Y-25726209D01*
X24465903Y-25686686D01*
X24466609Y-25651069D01*
X24467480Y-25621018D01*
X24468508Y-25598194D01*
X24469395Y-25586640D01*
X24470752Y-25573621D01*
X24472875Y-25552875D01*
X24475523Y-25526782D01*
X24478454Y-25497727D01*
X24479982Y-25482500D01*
X24501638Y-25315724D01*
X24533042Y-25148877D01*
X24573866Y-24983182D01*
X24623782Y-24819863D01*
X24682460Y-24660143D01*
X24732794Y-24541738D01*
X24751387Y-24501656D01*
X24771847Y-24459504D01*
X24793598Y-24416307D01*
X24816066Y-24373092D01*
X24838677Y-24330883D01*
X24860856Y-24290706D01*
X24882027Y-24253588D01*
X24901617Y-24220554D01*
X24919050Y-24192630D01*
X24933752Y-24170841D01*
X24945148Y-24156213D01*
X24952318Y-24149916D01*
X24965697Y-24146024D01*
X24987992Y-24142153D01*
X25017960Y-24138383D01*
X25054360Y-24134795D01*
X25095949Y-24131468D01*
X25141482Y-24128484D01*
X25189717Y-24125923D01*
X25239412Y-24123866D01*
X25289323Y-24122392D01*
X25338208Y-24121582D01*
X25384823Y-24121518D01*
X25390299Y-24121565D01*
X25451007Y-24122402D01*
X25502232Y-24123671D01*
X25544644Y-24125430D01*
X25578914Y-24127741D01*
X25605712Y-24130662D01*
X25625708Y-24134253D01*
X25639572Y-24138575D01*
X25647974Y-24143685D01*
X25648869Y-24144594D01*
X25655897Y-24154472D01*
X25658637Y-24165034D01*
X25656605Y-24177543D01*
X25649317Y-24193262D01*
X25636290Y-24213454D01*
X25617038Y-24239381D01*
X25608176Y-24250763D01*
X25578762Y-24289623D01*
X25546186Y-24335068D01*
X25512041Y-24384702D01*
X25477921Y-24436130D01*
X25445417Y-24486959D01*
X25416121Y-24534792D01*
X25394498Y-24572083D01*
X25321878Y-24712004D01*
X25258404Y-24855989D01*
X25204166Y-25003500D01*
X25159254Y-25153996D01*
X25123755Y-25306940D01*
X25097760Y-25461791D01*
X25081358Y-25618011D01*
X25074638Y-25775060D01*
X25077689Y-25932401D01*
X25090601Y-26089492D01*
X25113463Y-26245796D01*
X25115531Y-26257200D01*
X25147691Y-26405495D01*
X25189278Y-26552624D01*
X25239856Y-26697617D01*
X25298989Y-26839499D01*
X25366241Y-26977298D01*
X25441177Y-27110043D01*
X25523359Y-27236759D01*
X25603202Y-27344902D01*
X25624694Y-27372384D01*
X25640519Y-27393240D01*
X25651305Y-27408820D01*
X25657678Y-27420474D01*
X25660265Y-27429553D01*
X25659693Y-27437407D01*
X25656589Y-27445386D01*
X25653008Y-27452206D01*
X25647557Y-27460295D01*
X25640191Y-27465743D01*
X25628571Y-27469457D01*
X25610363Y-27472349D01*
X25597460Y-27473835D01*
X25582397Y-27474892D01*
X25558693Y-27475840D01*
X25527865Y-27476670D01*
X25491431Y-27477373D01*
X25450909Y-27477942D01*
X25407817Y-27478367D01*
X25363672Y-27478640D01*
X25319993Y-27478752D01*
X25278298Y-27478694D01*
X25240104Y-27478459D01*
X25206929Y-27478038D01*
X25180291Y-27477421D01*
X25161708Y-27476600D01*
X25158040Y-27476323D01*
X25131187Y-27473980D01*
X25102799Y-27471539D01*
X25078016Y-27469441D01*
X25072660Y-27468995D01*
X25035507Y-27465527D01*
X25003171Y-27461743D01*
X24977046Y-27457845D01*
X24958523Y-27454035D01*
X24949930Y-27451092D01*
X24942988Y-27444225D01*
X24932090Y-27429475D01*
X24917907Y-27408000D01*
X24901111Y-27380962D01*
X24882370Y-27349521D01*
X24862358Y-27314839D01*
X24841744Y-27278075D01*
X24821200Y-27240391D01*
X24801395Y-27202948D01*
X24783002Y-27166906D01*
X24768373Y-27136968D01*
X24701823Y-26988782D01*
X24644098Y-26841745D01*
X24594847Y-26694506D01*
X24553722Y-26545714D01*
X24520371Y-26394015D01*
X24494447Y-26238059D01*
X24475598Y-26076493D01*
X24467300Y-25972720D01*
X24466357Y-25952360D01*
X24465651Y-25924280D01*
X24465174Y-25890140D01*
X24464917Y-25851603D01*
X24464870Y-25810328D01*
X24465025Y-25767977D01*
G37*
X24465025Y-25767977D02*
X24465372Y-25726209D01*
X24465903Y-25686686D01*
X24466609Y-25651069D01*
X24467480Y-25621018D01*
X24468508Y-25598194D01*
X24469395Y-25586640D01*
X24470752Y-25573621D01*
X24472875Y-25552875D01*
X24475523Y-25526782D01*
X24478454Y-25497727D01*
X24479982Y-25482500D01*
X24501638Y-25315724D01*
X24533042Y-25148877D01*
X24573866Y-24983182D01*
X24623782Y-24819863D01*
X24682460Y-24660143D01*
X24732794Y-24541738D01*
X24751387Y-24501656D01*
X24771847Y-24459504D01*
X24793598Y-24416307D01*
X24816066Y-24373092D01*
X24838677Y-24330883D01*
X24860856Y-24290706D01*
X24882027Y-24253588D01*
X24901617Y-24220554D01*
X24919050Y-24192630D01*
X24933752Y-24170841D01*
X24945148Y-24156213D01*
X24952318Y-24149916D01*
X24965697Y-24146024D01*
X24987992Y-24142153D01*
X25017960Y-24138383D01*
X25054360Y-24134795D01*
X25095949Y-24131468D01*
X25141482Y-24128484D01*
X25189717Y-24125923D01*
X25239412Y-24123866D01*
X25289323Y-24122392D01*
X25338208Y-24121582D01*
X25384823Y-24121518D01*
X25390299Y-24121565D01*
X25451007Y-24122402D01*
X25502232Y-24123671D01*
X25544644Y-24125430D01*
X25578914Y-24127741D01*
X25605712Y-24130662D01*
X25625708Y-24134253D01*
X25639572Y-24138575D01*
X25647974Y-24143685D01*
X25648869Y-24144594D01*
X25655897Y-24154472D01*
X25658637Y-24165034D01*
X25656605Y-24177543D01*
X25649317Y-24193262D01*
X25636290Y-24213454D01*
X25617038Y-24239381D01*
X25608176Y-24250763D01*
X25578762Y-24289623D01*
X25546186Y-24335068D01*
X25512041Y-24384702D01*
X25477921Y-24436130D01*
X25445417Y-24486959D01*
X25416121Y-24534792D01*
X25394498Y-24572083D01*
X25321878Y-24712004D01*
X25258404Y-24855989D01*
X25204166Y-25003500D01*
X25159254Y-25153996D01*
X25123755Y-25306940D01*
X25097760Y-25461791D01*
X25081358Y-25618011D01*
X25074638Y-25775060D01*
X25077689Y-25932401D01*
X25090601Y-26089492D01*
X25113463Y-26245796D01*
X25115531Y-26257200D01*
X25147691Y-26405495D01*
X25189278Y-26552624D01*
X25239856Y-26697617D01*
X25298989Y-26839499D01*
X25366241Y-26977298D01*
X25441177Y-27110043D01*
X25523359Y-27236759D01*
X25603202Y-27344902D01*
X25624694Y-27372384D01*
X25640519Y-27393240D01*
X25651305Y-27408820D01*
X25657678Y-27420474D01*
X25660265Y-27429553D01*
X25659693Y-27437407D01*
X25656589Y-27445386D01*
X25653008Y-27452206D01*
X25647557Y-27460295D01*
X25640191Y-27465743D01*
X25628571Y-27469457D01*
X25610363Y-27472349D01*
X25597460Y-27473835D01*
X25582397Y-27474892D01*
X25558693Y-27475840D01*
X25527865Y-27476670D01*
X25491431Y-27477373D01*
X25450909Y-27477942D01*
X25407817Y-27478367D01*
X25363672Y-27478640D01*
X25319993Y-27478752D01*
X25278298Y-27478694D01*
X25240104Y-27478459D01*
X25206929Y-27478038D01*
X25180291Y-27477421D01*
X25161708Y-27476600D01*
X25158040Y-27476323D01*
X25131187Y-27473980D01*
X25102799Y-27471539D01*
X25078016Y-27469441D01*
X25072660Y-27468995D01*
X25035507Y-27465527D01*
X25003171Y-27461743D01*
X24977046Y-27457845D01*
X24958523Y-27454035D01*
X24949930Y-27451092D01*
X24942988Y-27444225D01*
X24932090Y-27429475D01*
X24917907Y-27408000D01*
X24901111Y-27380962D01*
X24882370Y-27349521D01*
X24862358Y-27314839D01*
X24841744Y-27278075D01*
X24821200Y-27240391D01*
X24801395Y-27202948D01*
X24783002Y-27166906D01*
X24768373Y-27136968D01*
X24701823Y-26988782D01*
X24644098Y-26841745D01*
X24594847Y-26694506D01*
X24553722Y-26545714D01*
X24520371Y-26394015D01*
X24494447Y-26238059D01*
X24475598Y-26076493D01*
X24467300Y-25972720D01*
X24466357Y-25952360D01*
X24465651Y-25924280D01*
X24465174Y-25890140D01*
X24464917Y-25851603D01*
X24464870Y-25810328D01*
X24465025Y-25767977D01*
G36*
X23061852Y-25172874D02*
G01*
X23072357Y-25137249D01*
X23075671Y-25130181D01*
X23090641Y-25105333D01*
X23108893Y-25086177D01*
X23133446Y-25069740D01*
X23141280Y-25065521D01*
X23160319Y-25059331D01*
X23184971Y-25056287D01*
X23211339Y-25056391D01*
X23235526Y-25059647D01*
X23252476Y-25065417D01*
X23261112Y-25070689D01*
X23276788Y-25080953D01*
X23298238Y-25095351D01*
X23324196Y-25113028D01*
X23353395Y-25133124D01*
X23384568Y-25154783D01*
X23386262Y-25155966D01*
X23502830Y-25237379D01*
X23518341Y-25217700D01*
X23534215Y-25199242D01*
X23556104Y-25176115D01*
X23582153Y-25150071D01*
X23610503Y-25122863D01*
X23639299Y-25096245D01*
X23666683Y-25071969D01*
X23690799Y-25051789D01*
X23707721Y-25038897D01*
X23793431Y-24984440D01*
X23882812Y-24939414D01*
X23975590Y-24903915D01*
X24071491Y-24878038D01*
X24170239Y-24861878D01*
X24231176Y-24856863D01*
X24261702Y-24855674D01*
X24283861Y-24856139D01*
X24299379Y-24858764D01*
X24309986Y-24864056D01*
X24317408Y-24872521D01*
X24322994Y-24883747D01*
X24325866Y-24891662D01*
X24327100Y-24899534D01*
X24326423Y-24909414D01*
X24323566Y-24923355D01*
X24318257Y-24943410D01*
X24312399Y-24964061D01*
X24269710Y-25131219D01*
X24236608Y-25301128D01*
X24213143Y-25473030D01*
X24199366Y-25646164D01*
X24195330Y-25819773D01*
X24201086Y-25993096D01*
X24216685Y-26165376D01*
X24226065Y-26236414D01*
X24236769Y-26303066D01*
X24250388Y-26376055D01*
X24266236Y-26452220D01*
X24283622Y-26528400D01*
X24301858Y-26601433D01*
X24319665Y-26666124D01*
X24325131Y-26685007D01*
X24328158Y-26696779D01*
X24329037Y-26704114D01*
X24328057Y-26709688D01*
X24325512Y-26716174D01*
X24325197Y-26716940D01*
X24318497Y-26729523D01*
X24309309Y-26737940D01*
X24295693Y-26742935D01*
X24275709Y-26745251D01*
X24250232Y-26745657D01*
X24160925Y-26740074D01*
X24071062Y-26724886D01*
X23981742Y-26700513D01*
X23894061Y-26667375D01*
X23809117Y-26625891D01*
X23728008Y-26576481D01*
X23651831Y-26519566D01*
X23645630Y-26514406D01*
X23605158Y-26478421D01*
X23568025Y-26440811D01*
X23531645Y-26398811D01*
X23501212Y-26360016D01*
X23484560Y-26338963D01*
X23471460Y-26324361D01*
X23462662Y-26316997D01*
X23459652Y-26316436D01*
X23453931Y-26320228D01*
X23441134Y-26328973D01*
X23422514Y-26341806D01*
X23399325Y-26357862D01*
X23372819Y-26376276D01*
X23356907Y-26387356D01*
X23328479Y-26406977D01*
X23302029Y-26424874D01*
X23278955Y-26440128D01*
X23260657Y-26451822D01*
X23248532Y-26459039D01*
X23245147Y-26460710D01*
X23232037Y-26463914D01*
X23213315Y-26466202D01*
X23197160Y-26466978D01*
X23159783Y-26462803D01*
X23126889Y-26449575D01*
X23098931Y-26427567D01*
X23076362Y-26397054D01*
X23073861Y-26392504D01*
X23065188Y-26367629D01*
X23061702Y-26338084D01*
X23063338Y-26307665D01*
X23070030Y-26280172D01*
X23076026Y-26267360D01*
X23081476Y-26258362D01*
X23086918Y-26250416D01*
X23093320Y-26242725D01*
X23101647Y-26234495D01*
X23112868Y-26224929D01*
X23127949Y-26213231D01*
X23147856Y-26198604D01*
X23173558Y-26180254D01*
X23206019Y-26157382D01*
X23230180Y-26140432D01*
X23260430Y-26119101D01*
X23287768Y-26099590D01*
X23311139Y-26082671D01*
X23329487Y-26069117D01*
X23341756Y-26059699D01*
X23346893Y-26055189D01*
X23346983Y-26054985D01*
X23345967Y-26048850D01*
X23343249Y-26034995D01*
X23339270Y-26015630D01*
X23335576Y-25998120D01*
X23321398Y-25911606D01*
X23315122Y-25823610D01*
X23316660Y-25735900D01*
X23325924Y-25650247D01*
X23342826Y-25568420D01*
X23359636Y-25512980D01*
X23370263Y-25482500D01*
X23359923Y-25474076D01*
X23353233Y-25469094D01*
X23339347Y-25459106D01*
X23319402Y-25444917D01*
X23294536Y-25427335D01*
X23265887Y-25407164D01*
X23234593Y-25385210D01*
X23225255Y-25378675D01*
X23193174Y-25355975D01*
X23163297Y-25334345D01*
X23136796Y-25314674D01*
X23114849Y-25297851D01*
X23098631Y-25284765D01*
X23089316Y-25276306D01*
X23088182Y-25274990D01*
X23069881Y-25243088D01*
X23061066Y-25208602D01*
X23061852Y-25172874D01*
G37*
X23061852Y-25172874D02*
X23072357Y-25137249D01*
X23075671Y-25130181D01*
X23090641Y-25105333D01*
X23108893Y-25086177D01*
X23133446Y-25069740D01*
X23141280Y-25065521D01*
X23160319Y-25059331D01*
X23184971Y-25056287D01*
X23211339Y-25056391D01*
X23235526Y-25059647D01*
X23252476Y-25065417D01*
X23261112Y-25070689D01*
X23276788Y-25080953D01*
X23298238Y-25095351D01*
X23324196Y-25113028D01*
X23353395Y-25133124D01*
X23384568Y-25154783D01*
X23386262Y-25155966D01*
X23502830Y-25237379D01*
X23518341Y-25217700D01*
X23534215Y-25199242D01*
X23556104Y-25176115D01*
X23582153Y-25150071D01*
X23610503Y-25122863D01*
X23639299Y-25096245D01*
X23666683Y-25071969D01*
X23690799Y-25051789D01*
X23707721Y-25038897D01*
X23793431Y-24984440D01*
X23882812Y-24939414D01*
X23975590Y-24903915D01*
X24071491Y-24878038D01*
X24170239Y-24861878D01*
X24231176Y-24856863D01*
X24261702Y-24855674D01*
X24283861Y-24856139D01*
X24299379Y-24858764D01*
X24309986Y-24864056D01*
X24317408Y-24872521D01*
X24322994Y-24883747D01*
X24325866Y-24891662D01*
X24327100Y-24899534D01*
X24326423Y-24909414D01*
X24323566Y-24923355D01*
X24318257Y-24943410D01*
X24312399Y-24964061D01*
X24269710Y-25131219D01*
X24236608Y-25301128D01*
X24213143Y-25473030D01*
X24199366Y-25646164D01*
X24195330Y-25819773D01*
X24201086Y-25993096D01*
X24216685Y-26165376D01*
X24226065Y-26236414D01*
X24236769Y-26303066D01*
X24250388Y-26376055D01*
X24266236Y-26452220D01*
X24283622Y-26528400D01*
X24301858Y-26601433D01*
X24319665Y-26666124D01*
X24325131Y-26685007D01*
X24328158Y-26696779D01*
X24329037Y-26704114D01*
X24328057Y-26709688D01*
X24325512Y-26716174D01*
X24325197Y-26716940D01*
X24318497Y-26729523D01*
X24309309Y-26737940D01*
X24295693Y-26742935D01*
X24275709Y-26745251D01*
X24250232Y-26745657D01*
X24160925Y-26740074D01*
X24071062Y-26724886D01*
X23981742Y-26700513D01*
X23894061Y-26667375D01*
X23809117Y-26625891D01*
X23728008Y-26576481D01*
X23651831Y-26519566D01*
X23645630Y-26514406D01*
X23605158Y-26478421D01*
X23568025Y-26440811D01*
X23531645Y-26398811D01*
X23501212Y-26360016D01*
X23484560Y-26338963D01*
X23471460Y-26324361D01*
X23462662Y-26316997D01*
X23459652Y-26316436D01*
X23453931Y-26320228D01*
X23441134Y-26328973D01*
X23422514Y-26341806D01*
X23399325Y-26357862D01*
X23372819Y-26376276D01*
X23356907Y-26387356D01*
X23328479Y-26406977D01*
X23302029Y-26424874D01*
X23278955Y-26440128D01*
X23260657Y-26451822D01*
X23248532Y-26459039D01*
X23245147Y-26460710D01*
X23232037Y-26463914D01*
X23213315Y-26466202D01*
X23197160Y-26466978D01*
X23159783Y-26462803D01*
X23126889Y-26449575D01*
X23098931Y-26427567D01*
X23076362Y-26397054D01*
X23073861Y-26392504D01*
X23065188Y-26367629D01*
X23061702Y-26338084D01*
X23063338Y-26307665D01*
X23070030Y-26280172D01*
X23076026Y-26267360D01*
X23081476Y-26258362D01*
X23086918Y-26250416D01*
X23093320Y-26242725D01*
X23101647Y-26234495D01*
X23112868Y-26224929D01*
X23127949Y-26213231D01*
X23147856Y-26198604D01*
X23173558Y-26180254D01*
X23206019Y-26157382D01*
X23230180Y-26140432D01*
X23260430Y-26119101D01*
X23287768Y-26099590D01*
X23311139Y-26082671D01*
X23329487Y-26069117D01*
X23341756Y-26059699D01*
X23346893Y-26055189D01*
X23346983Y-26054985D01*
X23345967Y-26048850D01*
X23343249Y-26034995D01*
X23339270Y-26015630D01*
X23335576Y-25998120D01*
X23321398Y-25911606D01*
X23315122Y-25823610D01*
X23316660Y-25735900D01*
X23325924Y-25650247D01*
X23342826Y-25568420D01*
X23359636Y-25512980D01*
X23370263Y-25482500D01*
X23359923Y-25474076D01*
X23353233Y-25469094D01*
X23339347Y-25459106D01*
X23319402Y-25444917D01*
X23294536Y-25427335D01*
X23265887Y-25407164D01*
X23234593Y-25385210D01*
X23225255Y-25378675D01*
X23193174Y-25355975D01*
X23163297Y-25334345D01*
X23136796Y-25314674D01*
X23114849Y-25297851D01*
X23098631Y-25284765D01*
X23089316Y-25276306D01*
X23088182Y-25274990D01*
X23069881Y-25243088D01*
X23061066Y-25208602D01*
X23061852Y-25172874D01*
D13*
X25400000Y-36200000D02*
X26200000Y-36200000D01*
X25400000Y-34600000D02*
X25400000Y-36200000D01*
X26200000Y-34600000D02*
X25400000Y-34600000D01*
X26200000Y-36200000D02*
X26200000Y-34600000D01*
X25400000Y-34900000D02*
X26200000Y-34900000D01*
X25400000Y-35900000D02*
X26200000Y-35900000D01*
X25400000Y-34850000D02*
X26200000Y-34850000D01*
X26200000Y-34650000D02*
X25400000Y-34650000D01*
X26200000Y-34700000D02*
X25400000Y-34700000D01*
X25400000Y-34750000D02*
X26200000Y-34750000D01*
X26200000Y-34800000D02*
X25400000Y-34800000D01*
X26200000Y-36100000D02*
X25400000Y-36100000D01*
X25400000Y-36050000D02*
X26200000Y-36050000D01*
X26200000Y-36000000D02*
X25400000Y-36000000D01*
X26200000Y-35950000D02*
X25400000Y-35950000D01*
X25400000Y-36150000D02*
X26200000Y-36150000D01*
X25400000Y-36200000D02*
X26200000Y-36200000D01*
X26200000Y-35900000D02*
X25400000Y-35900000D01*
X25900000Y-46600000D02*
X25900000Y-45800000D01*
X24300000Y-46600000D02*
X25900000Y-46600000D01*
X24300000Y-45800000D02*
X24300000Y-46600000D01*
X25900000Y-45800000D02*
X24300000Y-45800000D01*
X24600000Y-46600000D02*
X24600000Y-45800000D01*
X25600000Y-46600000D02*
X25600000Y-45800000D01*
X24550000Y-46600000D02*
X24550000Y-45800000D01*
X24350000Y-45800000D02*
X24350000Y-46600000D01*
X24400000Y-45800000D02*
X24400000Y-46600000D01*
X24450000Y-46600000D02*
X24450000Y-45800000D01*
X24500000Y-45800000D02*
X24500000Y-46600000D01*
X25800000Y-45800000D02*
X25800000Y-46600000D01*
X25750000Y-46600000D02*
X25750000Y-45800000D01*
X25700000Y-45800000D02*
X25700000Y-46600000D01*
X25650000Y-45800000D02*
X25650000Y-46600000D01*
X25850000Y-46600000D02*
X25850000Y-45800000D01*
X25900000Y-46600000D02*
X25900000Y-45800000D01*
X25600000Y-45800000D02*
X25600000Y-46600000D01*
G36*
X25400000Y-39600000D02*
G01*
X25400000Y-39300000D01*
X26200000Y-39300000D01*
X26200000Y-39600000D01*
X25400000Y-39600000D01*
G37*
X25400000Y-39600000D02*
X25400000Y-39300000D01*
X26200000Y-39300000D01*
X26200000Y-39600000D01*
X25400000Y-39600000D01*
G36*
X25400000Y-38300000D02*
G01*
X25400000Y-38000000D01*
X26200000Y-38000000D01*
X26200000Y-38300000D01*
X25400000Y-38300000D01*
G37*
X25400000Y-38300000D02*
X25400000Y-38000000D01*
X26200000Y-38000000D01*
X26200000Y-38300000D01*
X25400000Y-38300000D01*
X25400000Y-38300000D02*
X25400000Y-39300000D01*
X26200000Y-39300000D02*
X26200000Y-38300000D01*
D14*
X3800000Y-17600000D02*
X3800000Y-20800000D01*
D16*
X4100000Y-17700000D02*
X4100000Y-20700000D01*
X4700000Y-20700000D02*
X4700000Y-22600000D01*
X4700000Y-15800000D02*
X4700000Y-17700000D01*
X-1050000Y-22200000D02*
X-1050000Y-16200000D01*
X-397932Y-22200000D02*
X-397932Y-22549367D01*
X-1050000Y-22200000D02*
X-400000Y-22200000D01*
X-600000Y-22650000D02*
X-1000000Y-22950000D01*
X-400000Y-22900000D02*
X-800000Y-23200000D01*
X-800000Y-23200000D02*
X-1000000Y-22950000D01*
X-397932Y-16200000D02*
X-397932Y-15850633D01*
X-1050000Y-16200000D02*
X-400000Y-16200000D01*
X-600000Y-15750000D02*
X-1000000Y-15450000D01*
X-400000Y-15500000D02*
X-800000Y-15200000D01*
X4400000Y-15500000D02*
X-400000Y-15500000D01*
X-800000Y-15200000D02*
X-1000000Y-15450000D01*
X4400000Y-22900000D02*
X-400000Y-22900000D01*
D14*
X4100000Y-17400000D02*
X4100000Y-17700000D01*
X3600000Y-16700000D02*
X4100000Y-16700000D01*
X3400000Y-17200000D02*
X3400000Y-16900000D01*
X4300000Y-17200000D02*
X4300000Y-16900000D01*
X4100000Y-21700000D02*
X3600000Y-21700000D01*
X4300000Y-21200000D02*
X4300000Y-21500000D01*
X3400000Y-21200000D02*
X3400000Y-21500000D01*
X4100000Y-20700000D02*
X4100000Y-21000000D01*
G36*
X800000Y-17300000D02*
G01*
X800000Y-17400000D01*
X300000Y-17400000D01*
X300000Y-16800000D01*
X800000Y-16800000D01*
X800000Y-16900000D01*
X1900000Y-16900000D01*
X1900000Y-17300000D01*
X800000Y-17300000D01*
G37*
X800000Y-17300000D02*
X800000Y-17400000D01*
X300000Y-17400000D01*
X300000Y-16800000D01*
X800000Y-16800000D01*
X800000Y-16900000D01*
X1900000Y-16900000D01*
X1900000Y-17300000D01*
X800000Y-17300000D01*
X300000Y-16800000D02*
X-100000Y-16800000D01*
X300000Y-17400000D02*
X-100000Y-17400000D01*
G36*
X800000Y-21500000D02*
G01*
X800000Y-21600000D01*
X300000Y-21600000D01*
X300000Y-21000000D01*
X800000Y-21000000D01*
X800000Y-21100000D01*
X1900000Y-21100000D01*
X1900000Y-21500000D01*
X800000Y-21500000D01*
G37*
X800000Y-21500000D02*
X800000Y-21600000D01*
X300000Y-21600000D01*
X300000Y-21000000D01*
X800000Y-21000000D01*
X800000Y-21100000D01*
X1900000Y-21100000D01*
X1900000Y-21500000D01*
X800000Y-21500000D01*
X300000Y-21600000D02*
X-100000Y-21600000D01*
X300000Y-21000000D02*
X-100000Y-21000000D01*
D16*
G36*
X2000000Y-15500000D02*
G01*
X2000000Y-15400000D01*
X2400000Y-15400000D01*
X2400000Y-15500000D01*
X2000000Y-15500000D01*
G37*
X2000000Y-15500000D02*
X2000000Y-15400000D01*
X2400000Y-15400000D01*
X2400000Y-15500000D01*
X2000000Y-15500000D01*
G36*
X1400000Y-15500000D02*
G01*
X1400000Y-15400000D01*
X1800000Y-15400000D01*
X1800000Y-15500000D01*
X1400000Y-15500000D01*
G37*
X1400000Y-15500000D02*
X1400000Y-15400000D01*
X1800000Y-15400000D01*
X1800000Y-15500000D01*
X1400000Y-15500000D01*
G36*
X1400000Y-23000000D02*
G01*
X1400000Y-22900000D01*
X1800000Y-22900000D01*
X1800000Y-23000000D01*
X1400000Y-23000000D01*
G37*
X1400000Y-23000000D02*
X1400000Y-22900000D01*
X1800000Y-22900000D01*
X1800000Y-23000000D01*
X1400000Y-23000000D01*
G36*
X2000000Y-23000000D02*
G01*
X2000000Y-22900000D01*
X2400000Y-22900000D01*
X2400000Y-23000000D01*
X2000000Y-23000000D01*
G37*
X2000000Y-23000000D02*
X2000000Y-22900000D01*
X2400000Y-22900000D01*
X2400000Y-23000000D01*
X2000000Y-23000000D01*
D14*
X3800000Y-20800000D02*
G75*
G02*
X3600000Y-21000000I-200000J0D01*
G01*
X3600000Y-21700000D02*
G75*
G02*
X3400000Y-21500000I0J200000D01*
G01*
X4300000Y-21500000D02*
G75*
G02*
X4100000Y-21700000I-200000J0D01*
G01*
X4100000Y-21000000D02*
G75*
G02*
X4300000Y-21200000I0J-200000D01*
G01*
X3400000Y-21200000D02*
G75*
G02*
X3600000Y-21000000I200000J0D01*
G01*
X3600000Y-17400000D02*
G75*
G02*
X3800000Y-17600000I0J-200000D01*
G01*
D16*
X-397932Y-15850633D02*
G75*
G02*
X-600000Y-15750000I197932J650633D01*
G01*
X-398010Y-22549390D02*
G75*
G03*
X-600000Y-22650000I198010J-650610D01*
G01*
X4400000Y-15500000D02*
G75*
G02*
X4700000Y-15800000I0J-300000D01*
G01*
X4700000Y-17700000D02*
G75*
G02*
X4400000Y-18000000I-300000J0D01*
G01*
X4400000Y-20400000D02*
G75*
G02*
X4700000Y-20700000I0J-300000D01*
G01*
X4700000Y-22600000D02*
G75*
G02*
X4400000Y-22900000I-300000J0D01*
G01*
X4400000Y-18000000D02*
G75*
G02*
X4100000Y-17700000I0J300000D01*
G01*
X4100000Y-20700000D02*
G75*
G02*
X4400000Y-20400000I300000J0D01*
G01*
D14*
X4100000Y-16700000D02*
G75*
G02*
X4300000Y-16900000I0J-200000D01*
G01*
X3400000Y-16900000D02*
G75*
G02*
X3600000Y-16700000I200000J0D01*
G01*
X3600000Y-17400000D02*
G75*
G02*
X3400000Y-17200000I0J200000D01*
G01*
X4300000Y-17200000D02*
G75*
G02*
X4100000Y-17400000I-200000J0D01*
G01*
D18*
X4100000Y-40300000D02*
X4100000Y-43500000D01*
D19*
X5700000Y-42700000D02*
X4100000Y-42700000D01*
X5700000Y-41900000D02*
X4100000Y-41900000D01*
X5700000Y-41100000D02*
X4100000Y-41100000D01*
D18*
X5700000Y-40300000D02*
X4100000Y-40300000D01*
X5700000Y-43500000D02*
X4100000Y-43500000D01*
X5700000Y-40300000D02*
X5700000Y-43500000D01*
D14*
X-600000Y-41700000D02*
X-600000Y-42100000D01*
X400000Y-40900000D02*
X200000Y-40900000D01*
X400000Y-42900000D02*
X200000Y-42900000D01*
X900000Y-43600000D02*
X400000Y-43600000D01*
X900000Y-40200000D02*
X900000Y-43600000D01*
X400000Y-40200000D02*
X900000Y-40200000D01*
X400000Y-43600000D02*
X400000Y-40200000D01*
X200000Y-42900000D02*
G75*
G02*
X-600000Y-42100000I0J800000D01*
G01*
X-600000Y-41700000D02*
G75*
G02*
X200000Y-40900000I800000J0D01*
G01*
D13*
X5300000Y-46200000D02*
X4500000Y-46200000D01*
X5300000Y-47800000D02*
X5300000Y-46200000D01*
X4500000Y-47800000D02*
X5300000Y-47800000D01*
X4500000Y-46200000D02*
X4500000Y-47800000D01*
X5300000Y-47500000D02*
X4500000Y-47500000D01*
X5300000Y-46500000D02*
X4500000Y-46500000D01*
X5300000Y-47550000D02*
X4500000Y-47550000D01*
X4500000Y-47750000D02*
X5300000Y-47750000D01*
X4500000Y-47700000D02*
X5300000Y-47700000D01*
X5300000Y-47650000D02*
X4500000Y-47650000D01*
X4500000Y-47600000D02*
X5300000Y-47600000D01*
X4500000Y-46300000D02*
X5300000Y-46300000D01*
X5300000Y-46350000D02*
X4500000Y-46350000D01*
X4500000Y-46400000D02*
X5300000Y-46400000D01*
X4500000Y-46450000D02*
X5300000Y-46450000D01*
X5300000Y-46250000D02*
X4500000Y-46250000D01*
X5300000Y-46200000D02*
X4500000Y-46200000D01*
X4500000Y-46500000D02*
X5300000Y-46500000D01*
D12*
X8100000Y-43000000D02*
X8100000Y-40800000D01*
X8100000Y-40800000D02*
X9500000Y-40800000D01*
X9500000Y-40800000D02*
X9500000Y-43000000D01*
X9500000Y-43000000D02*
X8100000Y-43000000D01*
D11*
G36*
X8650000Y-41500000D02*
G01*
X8350000Y-41250000D01*
X8650000Y-41000000D01*
X8650000Y-41500000D01*
G37*
X8650000Y-41500000D02*
X8350000Y-41250000D01*
X8650000Y-41000000D01*
X8650000Y-41500000D01*
D12*
X9700000Y-15100000D02*
X9700000Y-12900000D01*
X7900000Y-15100000D02*
X7900000Y-12900000D01*
X9700000Y-15600000D02*
X7900000Y-15600000D01*
X9700000Y-12400000D02*
X7900000Y-12400000D01*
G36*
X9700000Y-15100000D02*
G01*
X9700000Y-15600000D01*
X7900000Y-15600000D01*
X7900000Y-15100000D01*
X9700000Y-15100000D01*
G37*
X9700000Y-15100000D02*
X9700000Y-15600000D01*
X7900000Y-15600000D01*
X7900000Y-15100000D01*
X9700000Y-15100000D01*
X9700000Y-12900000D02*
X7900000Y-12900000D01*
G36*
X9700000Y-12400000D02*
G01*
X9700000Y-12900000D01*
X7900000Y-12900000D01*
X7900000Y-12400000D01*
X9700000Y-12400000D01*
G37*
X9700000Y-12400000D02*
X9700000Y-12900000D01*
X7900000Y-12900000D01*
X7900000Y-12400000D01*
X9700000Y-12400000D01*
X16900000Y-38900000D02*
X16900000Y-36700000D01*
X16900000Y-36700000D02*
X18300000Y-36700000D01*
X18300000Y-36700000D02*
X18300000Y-38900000D01*
X18300000Y-38900000D02*
X16900000Y-38900000D01*
D11*
G36*
X17450000Y-37400000D02*
G01*
X17150000Y-37150000D01*
X17450000Y-36900000D01*
X17450000Y-37400000D01*
G37*
X17450000Y-37400000D02*
X17150000Y-37150000D01*
X17450000Y-36900000D01*
X17450000Y-37400000D01*
D17*
X16250000Y-13100000D02*
X18950000Y-13100000D01*
X16250000Y-9000000D02*
X16250000Y-13100000D01*
X16250000Y-9000000D02*
X18950000Y-9000000D01*
D14*
G36*
X18950000Y-9750000D02*
G01*
X16250000Y-9750000D01*
X16250000Y-10200000D01*
X18950000Y-10200000D01*
X18950000Y-9750000D01*
G37*
X18950000Y-9750000D02*
X16250000Y-9750000D01*
X16250000Y-10200000D01*
X18950000Y-10200000D01*
X18950000Y-9750000D01*
D17*
X18950000Y-9000000D02*
X18950000Y-13100000D01*
D13*
X16800000Y-30600000D02*
X16800000Y-31400000D01*
X18400000Y-30600000D02*
X16800000Y-30600000D01*
X18400000Y-31400000D02*
X18400000Y-30600000D01*
X16800000Y-31400000D02*
X18400000Y-31400000D01*
X18100000Y-30600000D02*
X18100000Y-31400000D01*
X17100000Y-30600000D02*
X17100000Y-31400000D01*
X18150000Y-30600000D02*
X18150000Y-31400000D01*
X18350000Y-31400000D02*
X18350000Y-30600000D01*
X18300000Y-31400000D02*
X18300000Y-30600000D01*
X18250000Y-30600000D02*
X18250000Y-31400000D01*
X18200000Y-31400000D02*
X18200000Y-30600000D01*
X16900000Y-31400000D02*
X16900000Y-30600000D01*
X16950000Y-30600000D02*
X16950000Y-31400000D01*
X17000000Y-31400000D02*
X17000000Y-30600000D01*
X17050000Y-31400000D02*
X17050000Y-30600000D01*
X16850000Y-30600000D02*
X16850000Y-31400000D01*
X16800000Y-30600000D02*
X16800000Y-31400000D01*
X17100000Y-31400000D02*
X17100000Y-30600000D01*
D18*
X16800000Y-32400000D02*
X16800000Y-35600000D01*
D19*
X18400000Y-34800000D02*
X16800000Y-34800000D01*
X18400000Y-34000000D02*
X16800000Y-34000000D01*
X18400000Y-33200000D02*
X16800000Y-33200000D01*
D18*
X18400000Y-32400000D02*
X16800000Y-32400000D01*
X18400000Y-35600000D02*
X16800000Y-35600000D01*
X18400000Y-32400000D02*
X18400000Y-35600000D01*
D13*
X9200000Y-22000000D02*
X8400000Y-22000000D01*
X9200000Y-23600000D02*
X9200000Y-22000000D01*
X8400000Y-23600000D02*
X9200000Y-23600000D01*
X8400000Y-22000000D02*
X8400000Y-23600000D01*
X9200000Y-23300000D02*
X8400000Y-23300000D01*
X9200000Y-22300000D02*
X8400000Y-22300000D01*
X9200000Y-23350000D02*
X8400000Y-23350000D01*
X8400000Y-23550000D02*
X9200000Y-23550000D01*
X8400000Y-23500000D02*
X9200000Y-23500000D01*
X9200000Y-23450000D02*
X8400000Y-23450000D01*
X8400000Y-23400000D02*
X9200000Y-23400000D01*
X8400000Y-22100000D02*
X9200000Y-22100000D01*
X9200000Y-22150000D02*
X8400000Y-22150000D01*
X8400000Y-22200000D02*
X9200000Y-22200000D01*
X8400000Y-22250000D02*
X9200000Y-22250000D01*
X9200000Y-22050000D02*
X8400000Y-22050000D01*
X9200000Y-22000000D02*
X8400000Y-22000000D01*
X8400000Y-22300000D02*
X9200000Y-22300000D01*
X18400000Y-44600000D02*
X18400000Y-43800000D01*
X16800000Y-44600000D02*
X18400000Y-44600000D01*
X16800000Y-43800000D02*
X16800000Y-44600000D01*
X18400000Y-43800000D02*
X16800000Y-43800000D01*
X17100000Y-44600000D02*
X17100000Y-43800000D01*
X18100000Y-44600000D02*
X18100000Y-43800000D01*
X17050000Y-44600000D02*
X17050000Y-43800000D01*
X16850000Y-43800000D02*
X16850000Y-44600000D01*
X16900000Y-43800000D02*
X16900000Y-44600000D01*
X16950000Y-44600000D02*
X16950000Y-43800000D01*
X17000000Y-43800000D02*
X17000000Y-44600000D01*
X18300000Y-43800000D02*
X18300000Y-44600000D01*
X18250000Y-44600000D02*
X18250000Y-43800000D01*
X18200000Y-43800000D02*
X18200000Y-44600000D01*
X18150000Y-43800000D02*
X18150000Y-44600000D01*
X18350000Y-44600000D02*
X18350000Y-43800000D01*
X18400000Y-44600000D02*
X18400000Y-43800000D01*
X18100000Y-43800000D02*
X18100000Y-44600000D01*
D14*
G36*
X17700000Y-50300000D02*
G01*
X17700000Y-50700000D01*
X17500000Y-50700000D01*
X17500000Y-50300000D01*
X17100000Y-50300000D01*
X17100000Y-50100000D01*
X17500000Y-50100000D01*
X17500000Y-49700000D01*
X17700000Y-49700000D01*
X17700000Y-50100000D01*
X18100000Y-50100000D01*
X18100000Y-50300000D01*
X17700000Y-50300000D01*
G37*
X17700000Y-50300000D02*
X17700000Y-50700000D01*
X17500000Y-50700000D01*
X17500000Y-50300000D01*
X17100000Y-50300000D01*
X17100000Y-50100000D01*
X17500000Y-50100000D01*
X17500000Y-49700000D01*
X17700000Y-49700000D01*
X17700000Y-50100000D01*
X18100000Y-50100000D01*
X18100000Y-50300000D01*
X17700000Y-50300000D01*
G36*
X15400000Y-50500000D02*
G01*
X15400000Y-49900000D01*
X16800000Y-49900000D01*
X16800000Y-50500000D01*
X15400000Y-50500000D01*
G37*
X15400000Y-50500000D02*
X15400000Y-49900000D01*
X16800000Y-49900000D01*
X16800000Y-50500000D01*
X15400000Y-50500000D01*
G36*
X18400000Y-50500000D02*
G01*
X18400000Y-49900000D01*
X19800000Y-49900000D01*
X19800000Y-50500000D01*
X18400000Y-50500000D01*
G37*
X18400000Y-50500000D02*
X18400000Y-49900000D01*
X19800000Y-49900000D01*
X19800000Y-50500000D01*
X18400000Y-50500000D01*
D16*
X19800000Y-54900000D02*
X19800000Y-47500000D01*
X19800000Y-47500000D02*
X15400000Y-47500000D01*
X19800000Y-54900000D02*
X15400000Y-54900000D01*
X15400000Y-54900000D02*
X15400000Y-47500000D01*
D13*
X18400000Y-27800000D02*
X18400000Y-27000000D01*
X16800000Y-27800000D02*
X18400000Y-27800000D01*
X16800000Y-27000000D02*
X16800000Y-27800000D01*
X18400000Y-27000000D02*
X16800000Y-27000000D01*
X17100000Y-27800000D02*
X17100000Y-27000000D01*
X18100000Y-27800000D02*
X18100000Y-27000000D01*
X17050000Y-27800000D02*
X17050000Y-27000000D01*
X16850000Y-27000000D02*
X16850000Y-27800000D01*
X16900000Y-27000000D02*
X16900000Y-27800000D01*
X16950000Y-27800000D02*
X16950000Y-27000000D01*
X17000000Y-27000000D02*
X17000000Y-27800000D01*
X18300000Y-27000000D02*
X18300000Y-27800000D01*
X18250000Y-27800000D02*
X18250000Y-27000000D01*
X18200000Y-27000000D02*
X18200000Y-27800000D01*
X18150000Y-27000000D02*
X18150000Y-27800000D01*
X18350000Y-27800000D02*
X18350000Y-27000000D01*
X18400000Y-27800000D02*
X18400000Y-27000000D01*
X18100000Y-27000000D02*
X18100000Y-27800000D01*
G36*
X18400000Y-29600000D02*
G01*
X18100000Y-29600000D01*
X18100000Y-28800000D01*
X18400000Y-28800000D01*
X18400000Y-29600000D01*
G37*
X18400000Y-29600000D02*
X18100000Y-29600000D01*
X18100000Y-28800000D01*
X18400000Y-28800000D01*
X18400000Y-29600000D01*
G36*
X17100000Y-29600000D02*
G01*
X16800000Y-29600000D01*
X16800000Y-28800000D01*
X17100000Y-28800000D01*
X17100000Y-29600000D01*
G37*
X17100000Y-29600000D02*
X16800000Y-29600000D01*
X16800000Y-28800000D01*
X17100000Y-28800000D01*
X17100000Y-29600000D01*
X17100000Y-29600000D02*
X18100000Y-29600000D01*
X18100000Y-28800000D02*
X17100000Y-28800000D01*
G36*
X16800000Y-23400000D02*
G01*
X17100000Y-23400000D01*
X17100000Y-24200000D01*
X16800000Y-24200000D01*
X16800000Y-23400000D01*
G37*
X16800000Y-23400000D02*
X17100000Y-23400000D01*
X17100000Y-24200000D01*
X16800000Y-24200000D01*
X16800000Y-23400000D01*
G36*
X18100000Y-23400000D02*
G01*
X18400000Y-23400000D01*
X18400000Y-24200000D01*
X18100000Y-24200000D01*
X18100000Y-23400000D01*
G37*
X18100000Y-23400000D02*
X18400000Y-23400000D01*
X18400000Y-24200000D01*
X18100000Y-24200000D01*
X18100000Y-23400000D01*
X18100000Y-23400000D02*
X17100000Y-23400000D01*
X17100000Y-24200000D02*
X18100000Y-24200000D01*
G36*
X18400000Y-26000000D02*
G01*
X18100000Y-26000000D01*
X18100000Y-25200000D01*
X18400000Y-25200000D01*
X18400000Y-26000000D01*
G37*
X18400000Y-26000000D02*
X18100000Y-26000000D01*
X18100000Y-25200000D01*
X18400000Y-25200000D01*
X18400000Y-26000000D01*
G36*
X17100000Y-26000000D02*
G01*
X16800000Y-26000000D01*
X16800000Y-25200000D01*
X17100000Y-25200000D01*
X17100000Y-26000000D01*
G37*
X17100000Y-26000000D02*
X16800000Y-26000000D01*
X16800000Y-25200000D01*
X17100000Y-25200000D01*
X17100000Y-26000000D01*
X17100000Y-26000000D02*
X18100000Y-26000000D01*
X18100000Y-25200000D02*
X17100000Y-25200000D01*
D14*
G36*
X8600000Y-18450000D02*
G01*
X8350000Y-18247500D01*
X8600000Y-18050000D01*
X8600000Y-18450000D01*
G37*
X8600000Y-18450000D02*
X8350000Y-18247500D01*
X8600000Y-18050000D01*
X8600000Y-18450000D01*
D12*
X9752500Y-20787500D02*
X7847500Y-20787500D01*
X7847500Y-20787500D02*
X7847500Y-17612500D01*
X7847500Y-17612500D02*
X9689000Y-17612500D01*
X9689000Y-17612500D02*
X9752500Y-17612500D01*
X9752500Y-17612500D02*
X9752500Y-20787500D01*
D13*
G36*
X9600000Y-58800000D02*
G01*
X9300000Y-58800000D01*
X9300000Y-58000000D01*
X9600000Y-58000000D01*
X9600000Y-58800000D01*
G37*
X9600000Y-58800000D02*
X9300000Y-58800000D01*
X9300000Y-58000000D01*
X9600000Y-58000000D01*
X9600000Y-58800000D01*
G36*
X8300000Y-58800000D02*
G01*
X8000000Y-58800000D01*
X8000000Y-58000000D01*
X8300000Y-58000000D01*
X8300000Y-58800000D01*
G37*
X8300000Y-58800000D02*
X8000000Y-58800000D01*
X8000000Y-58000000D01*
X8300000Y-58000000D01*
X8300000Y-58800000D01*
X8300000Y-58800000D02*
X9300000Y-58800000D01*
X9300000Y-58000000D02*
X8300000Y-58000000D01*
D12*
X9500000Y-47200000D02*
X9500000Y-49400000D01*
X9500000Y-49400000D02*
X8100000Y-49400000D01*
X8100000Y-49400000D02*
X8100000Y-47200000D01*
X8100000Y-47200000D02*
X9500000Y-47200000D01*
D11*
G36*
X8950000Y-48700000D02*
G01*
X9250000Y-48950000D01*
X8950000Y-49200000D01*
X8950000Y-48700000D01*
G37*
X8950000Y-48700000D02*
X9250000Y-48950000D01*
X8950000Y-49200000D01*
X8950000Y-48700000D01*
D18*
X9600000Y-56900000D02*
X9600000Y-53700000D01*
D19*
X8000000Y-54500000D02*
X9600000Y-54500000D01*
X8000000Y-55300000D02*
X9600000Y-55300000D01*
X8000000Y-56100000D02*
X9600000Y-56100000D01*
D18*
X8000000Y-56900000D02*
X9600000Y-56900000D01*
X8000000Y-53700000D02*
X9600000Y-53700000D01*
X8000000Y-56900000D02*
X8000000Y-53700000D01*
D12*
X25100000Y-41800000D02*
X25100000Y-43800000D01*
X26500000Y-43800000D02*
X26500000Y-41800000D01*
G36*
X25100000Y-42250000D02*
G01*
X25100000Y-41800000D01*
X26500000Y-41800000D01*
X26500000Y-42250000D01*
X25100000Y-42250000D01*
G37*
X25100000Y-42250000D02*
X25100000Y-41800000D01*
X26500000Y-41800000D01*
X26500000Y-42250000D01*
X25100000Y-42250000D01*
G36*
X25100000Y-43800000D02*
G01*
X25100000Y-43350000D01*
X26500000Y-43350000D01*
X26500000Y-43800000D01*
X25100000Y-43800000D01*
G37*
X25100000Y-43800000D02*
X25100000Y-43350000D01*
X26500000Y-43350000D01*
X26500000Y-43800000D01*
X25100000Y-43800000D01*
%LPC*%
D20*
X9850000Y-44450000D03*
X9850000Y-45750000D03*
X7750000Y-45100000D03*
D21*
X9850000Y-51500000D03*
X9850000Y-52150000D03*
X9850000Y-50850000D03*
X7750000Y-50850000D03*
X7750000Y-52150000D03*
X7750000Y-51500000D03*
D22*
X8800000Y-9050000D03*
X8800000Y-10550000D03*
D23*
X9000000Y-38700000D03*
X9000000Y-25300000D03*
X1200000Y-38700000D03*
D24*
X13000000Y-28200000D03*
X13000000Y-29300000D03*
X13000000Y-30400000D03*
X13000000Y-31500000D03*
X13000000Y-32600000D03*
X13000000Y-33700000D03*
X13000000Y-34800000D03*
X13000000Y-35900000D03*
D23*
X1200000Y-25300000D03*
D24*
X13000000Y-37000000D03*
D25*
X650000Y-49000000D03*
X650000Y-45000000D03*
D26*
X2150000Y-48900000D03*
X2150000Y-45100000D03*
X650000Y-48900000D03*
X650000Y-45100000D03*
D27*
X15950000Y-20425000D03*
D14*
G36*
X16499985Y-20399993D02*
G01*
X16400007Y-20400000D01*
X16400000Y-20399993D01*
X16400007Y-20300015D01*
X16499985Y-20399993D01*
G37*
D28*
X16375000Y-20850000D03*
X18825000Y-20850000D03*
D14*
G36*
X18799993Y-20300015D02*
G01*
X18800000Y-20399993D01*
X18799993Y-20400000D01*
X18700015Y-20399993D01*
X18799993Y-20300015D01*
G37*
D27*
X19250000Y-20425000D03*
D28*
X18825000Y-17550000D03*
D14*
G36*
X18700015Y-18000007D02*
G01*
X18799993Y-18000000D01*
X18800000Y-18000007D01*
X18799993Y-18099985D01*
X18700015Y-18000007D01*
G37*
D27*
X19250000Y-17975000D03*
D14*
G36*
X16400007Y-18099985D02*
G01*
X16400000Y-18000007D01*
X16400007Y-18000000D01*
X16499985Y-18000007D01*
X16400007Y-18099985D01*
G37*
D28*
X16375000Y-17550000D03*
D27*
X15950000Y-17975000D03*
D29*
X15950000Y-18950000D03*
D27*
X15950000Y-19450000D03*
X15950000Y-19950000D03*
X15950000Y-18450000D03*
D28*
X16850000Y-20850000D03*
X18350000Y-20850000D03*
X17850000Y-20850000D03*
X17350000Y-20850000D03*
X17850000Y-17550000D03*
X17350000Y-17550000D03*
X16850000Y-17550000D03*
X18350000Y-17550000D03*
D27*
X19250000Y-19950000D03*
X19250000Y-18450000D03*
X19250000Y-18950000D03*
X19250000Y-19450000D03*
D30*
X18000000Y-18800000D03*
X17200000Y-18800000D03*
X17200000Y-19600000D03*
X18000000Y-19600000D03*
D22*
X25800000Y-36150000D03*
X25800000Y-34650000D03*
D31*
X25850000Y-46200000D03*
X24350000Y-46200000D03*
D22*
X25800000Y-39550000D03*
X25800000Y-38050000D03*
D32*
X4800000Y-19200000D03*
D33*
X4350000Y-17125000D03*
X4350000Y-21275000D03*
D32*
X4800000Y-18550000D03*
X4800000Y-17900000D03*
X4800000Y-19850000D03*
X4800000Y-20500000D03*
D34*
X1900000Y-15800000D03*
X1900000Y-22600000D03*
D35*
X5750000Y-41500000D03*
X4050000Y-41500000D03*
X4050000Y-42300000D03*
X5750000Y-42300000D03*
X5750000Y-43100000D03*
X4050000Y-43100000D03*
X4050000Y-40700000D03*
X5750000Y-40700000D03*
D36*
X1100000Y-42325000D03*
X1100000Y-41475000D03*
D37*
X750000Y-40400000D03*
X750000Y-43400000D03*
D22*
X4900000Y-46250000D03*
X4900000Y-47750000D03*
D21*
X7750000Y-41900000D03*
X7750000Y-41250000D03*
X7750000Y-42550000D03*
X9850000Y-42550000D03*
X9850000Y-41250000D03*
X9850000Y-41900000D03*
D38*
X8800000Y-12400000D03*
X8800000Y-15600000D03*
D21*
X16550000Y-37800000D03*
X16550000Y-37150000D03*
X16550000Y-38450000D03*
X18650000Y-38450000D03*
X18650000Y-37150000D03*
X18650000Y-37800000D03*
D39*
X17600000Y-13200000D03*
X17600000Y-8800000D03*
D31*
X16850000Y-31000000D03*
X18350000Y-31000000D03*
D35*
X18450000Y-33600000D03*
X16750000Y-33600000D03*
X16750000Y-34400000D03*
X18450000Y-34400000D03*
X18450000Y-35200000D03*
X16750000Y-35200000D03*
X16750000Y-32800000D03*
X18450000Y-32800000D03*
D22*
X8800000Y-22050000D03*
X8800000Y-23550000D03*
D31*
X18350000Y-44200000D03*
X16850000Y-44200000D03*
D40*
X17600000Y-54400000D03*
X17600000Y-48000000D03*
D31*
X18350000Y-27400000D03*
X16850000Y-27400000D03*
X18350000Y-29200000D03*
X16850000Y-29200000D03*
X16850000Y-23800000D03*
X18350000Y-23800000D03*
X18350000Y-25600000D03*
X16850000Y-25600000D03*
D41*
X10006500Y-19200000D03*
X10006500Y-18247500D03*
X10006500Y-20152500D03*
X7593500Y-20152500D03*
X7593500Y-19200000D03*
X7593500Y-18247500D03*
D31*
X9550000Y-58400000D03*
X8050000Y-58400000D03*
D21*
X9850000Y-48300000D03*
X9850000Y-48950000D03*
X9850000Y-47650000D03*
X7750000Y-47650000D03*
X7750000Y-48950000D03*
X7750000Y-48300000D03*
D35*
X7950000Y-55700000D03*
X9650000Y-55700000D03*
X9650000Y-54900000D03*
X7950000Y-54900000D03*
X7950000Y-54100000D03*
X9650000Y-54100000D03*
X9650000Y-56500000D03*
X7950000Y-56500000D03*
G36*
G01*
X22700000Y-16600000D02*
X22700000Y-15400000D01*
G75*
G02*
X22850000Y-15250000I150000J0D01*
G01*
X28550000Y-15250000D01*
G75*
G02*
X28700000Y-15400000I0J-150000D01*
G01*
X28700000Y-16600000D01*
G75*
G02*
X28550000Y-16750000I-150000J0D01*
G01*
X22850000Y-16750000D01*
G75*
G02*
X22700000Y-16600000I0J150000D01*
G01*
G37*
G36*
G01*
X22700000Y-14600000D02*
X22700000Y-13400000D01*
G75*
G02*
X22850000Y-13250000I150000J0D01*
G01*
X28550000Y-13250000D01*
G75*
G02*
X28700000Y-13400000I0J-150000D01*
G01*
X28700000Y-14600000D01*
G75*
G02*
X28550000Y-14750000I-150000J0D01*
G01*
X22850000Y-14750000D01*
G75*
G02*
X22700000Y-14600000I0J150000D01*
G01*
G37*
G36*
G01*
X22700000Y-12600000D02*
X22700000Y-11400000D01*
G75*
G02*
X22850000Y-11250000I150000J0D01*
G01*
X28550000Y-11250000D01*
G75*
G02*
X28700000Y-11400000I0J-150000D01*
G01*
X28700000Y-12600000D01*
G75*
G02*
X28550000Y-12750000I-150000J0D01*
G01*
X22850000Y-12750000D01*
G75*
G02*
X22700000Y-12600000I0J150000D01*
G01*
G37*
G36*
G01*
X22700000Y-10600000D02*
X22700000Y-9400000D01*
G75*
G02*
X22850000Y-9250000I150000J0D01*
G01*
X28550000Y-9250000D01*
G75*
G02*
X28700000Y-9400000I0J-150000D01*
G01*
X28700000Y-10600000D01*
G75*
G02*
X28550000Y-10750000I-150000J0D01*
G01*
X22850000Y-10750000D01*
G75*
G02*
X22700000Y-10600000I0J150000D01*
G01*
G37*
G36*
G01*
X22700000Y-8600000D02*
X22700000Y-7400000D01*
G75*
G02*
X22850000Y-7250000I150000J0D01*
G01*
X28550000Y-7250000D01*
G75*
G02*
X28700000Y-7400000I0J-150000D01*
G01*
X28700000Y-8600000D01*
G75*
G02*
X28550000Y-8750000I-150000J0D01*
G01*
X22850000Y-8750000D01*
G75*
G02*
X22700000Y-8600000I0J150000D01*
G01*
G37*
G36*
G01*
X22700000Y-6600000D02*
X22700000Y-5400000D01*
G75*
G02*
X22850000Y-5250000I150000J0D01*
G01*
X28550000Y-5250000D01*
G75*
G02*
X28700000Y-5400000I0J-150000D01*
G01*
X28700000Y-6600000D01*
G75*
G02*
X28550000Y-6750000I-150000J0D01*
G01*
X22850000Y-6750000D01*
G75*
G02*
X22700000Y-6600000I0J150000D01*
G01*
G37*
G36*
G01*
X22700000Y-4600000D02*
X22700000Y-3400000D01*
G75*
G02*
X22850000Y-3250000I150000J0D01*
G01*
X28550000Y-3250000D01*
G75*
G02*
X28700000Y-3400000I0J-150000D01*
G01*
X28700000Y-4600000D01*
G75*
G02*
X28550000Y-4750000I-150000J0D01*
G01*
X22850000Y-4750000D01*
G75*
G02*
X22700000Y-4600000I0J150000D01*
G01*
G37*
G36*
G01*
X22700000Y-2600000D02*
X22700000Y-1400000D01*
G75*
G02*
X22850000Y-1250000I150000J0D01*
G01*
X28550000Y-1250000D01*
G75*
G02*
X28700000Y-1400000I0J-150000D01*
G01*
X28700000Y-2600000D01*
G75*
G02*
X28550000Y-2750000I-150000J0D01*
G01*
X22850000Y-2750000D01*
G75*
G02*
X22700000Y-2600000I0J150000D01*
G01*
G37*
G36*
G01*
X22700000Y-62600000D02*
X22700000Y-61400000D01*
G75*
G02*
X22850000Y-61250000I150000J0D01*
G01*
X28550000Y-61250000D01*
G75*
G02*
X28700000Y-61400000I0J-150000D01*
G01*
X28700000Y-62600000D01*
G75*
G02*
X28550000Y-62750000I-150000J0D01*
G01*
X22850000Y-62750000D01*
G75*
G02*
X22700000Y-62600000I0J150000D01*
G01*
G37*
G36*
G01*
X22700000Y-60600000D02*
X22700000Y-59400000D01*
G75*
G02*
X22850000Y-59250000I150000J0D01*
G01*
X28550000Y-59250000D01*
G75*
G02*
X28700000Y-59400000I0J-150000D01*
G01*
X28700000Y-60600000D01*
G75*
G02*
X28550000Y-60750000I-150000J0D01*
G01*
X22850000Y-60750000D01*
G75*
G02*
X22700000Y-60600000I0J150000D01*
G01*
G37*
G36*
G01*
X22700000Y-58600000D02*
X22700000Y-57400000D01*
G75*
G02*
X22850000Y-57250000I150000J0D01*
G01*
X28550000Y-57250000D01*
G75*
G02*
X28700000Y-57400000I0J-150000D01*
G01*
X28700000Y-58600000D01*
G75*
G02*
X28550000Y-58750000I-150000J0D01*
G01*
X22850000Y-58750000D01*
G75*
G02*
X22700000Y-58600000I0J150000D01*
G01*
G37*
G36*
G01*
X22700000Y-56600000D02*
X22700000Y-55400000D01*
G75*
G02*
X22850000Y-55250000I150000J0D01*
G01*
X28550000Y-55250000D01*
G75*
G02*
X28700000Y-55400000I0J-150000D01*
G01*
X28700000Y-56600000D01*
G75*
G02*
X28550000Y-56750000I-150000J0D01*
G01*
X22850000Y-56750000D01*
G75*
G02*
X22700000Y-56600000I0J150000D01*
G01*
G37*
G36*
G01*
X22700000Y-54600000D02*
X22700000Y-53400000D01*
G75*
G02*
X22850000Y-53250000I150000J0D01*
G01*
X28550000Y-53250000D01*
G75*
G02*
X28700000Y-53400000I0J-150000D01*
G01*
X28700000Y-54600000D01*
G75*
G02*
X28550000Y-54750000I-150000J0D01*
G01*
X22850000Y-54750000D01*
G75*
G02*
X22700000Y-54600000I0J150000D01*
G01*
G37*
G36*
G01*
X22700000Y-52600000D02*
X22700000Y-51400000D01*
G75*
G02*
X22850000Y-51250000I150000J0D01*
G01*
X28550000Y-51250000D01*
G75*
G02*
X28700000Y-51400000I0J-150000D01*
G01*
X28700000Y-52600000D01*
G75*
G02*
X28550000Y-52750000I-150000J0D01*
G01*
X22850000Y-52750000D01*
G75*
G02*
X22700000Y-52600000I0J150000D01*
G01*
G37*
G36*
G01*
X22700000Y-50600000D02*
X22700000Y-49400000D01*
G75*
G02*
X22850000Y-49250000I150000J0D01*
G01*
X28550000Y-49250000D01*
G75*
G02*
X28700000Y-49400000I0J-150000D01*
G01*
X28700000Y-50600000D01*
G75*
G02*
X28550000Y-50750000I-150000J0D01*
G01*
X22850000Y-50750000D01*
G75*
G02*
X22700000Y-50600000I0J150000D01*
G01*
G37*
G36*
G01*
X22700000Y-48600000D02*
X22700000Y-47400000D01*
G75*
G02*
X22850000Y-47250000I150000J0D01*
G01*
X28550000Y-47250000D01*
G75*
G02*
X28700000Y-47400000I0J-150000D01*
G01*
X28700000Y-48600000D01*
G75*
G02*
X28550000Y-48750000I-150000J0D01*
G01*
X22850000Y-48750000D01*
G75*
G02*
X22700000Y-48600000I0J150000D01*
G01*
G37*
D42*
X25800000Y-43800000D03*
X25800000Y-41800000D03*
M02*
