M48
; DRILL file {KiCad (5.1.9)-1} date 02/02/23 22:46:10
; FORMAT={-:-/ absolute / inch / decimal}
; #@! TF.CreationDate,2023-02-02T22:46:10+01:00
; #@! TF.GenerationSoftware,Kicad,Pcbnew,(5.1.9)-1
; #@! TF.FileFunction,Plated,1,2,PTH
FMAT,2
INCH
T1C0.0118
%
G90
G05
T1
X0.0492Y-0.9079
X0.0492Y-0.9783
X0.0591Y-0.5965
X0.0591Y-1.0098
X0.1043Y-1.3209
X0.1043Y-1.4724
X0.1181Y-0.8268
X0.1417Y-1.2795
X0.1457Y-1.3445
X0.1496Y-1.0197
X0.1496Y-1.0591
X0.1496Y-1.1102
X0.1496Y-0.5906
X0.1496Y-0.626
X0.1713Y-1.4724
X0.1811Y-0.7953
X0.1811Y-0.9055
X0.2283Y-0.7638
X0.2323Y-0.8504
X0.3012Y-0.1811
X0.3012Y-1.4724
X0.3071Y-0.3071
X0.3091Y-0.7185
X0.3091Y-1.1319
X0.3268Y-1.3445
X0.3307Y-1.2776
X0.3327Y-0.7185
X0.3327Y-1.1319
X0.3543Y-0.3071
X0.3563Y-0.7185
X0.3563Y-1.1319
X0.3681Y-0.1811
X0.3681Y-1.3228
X0.3681Y-1.4724
X0.4685Y-1.061
X0.4783Y-0.7638
X0.4921Y-1.061
X0.498Y-0.1811
X0.5118Y-0.3071
X0.5118Y-0.437
X0.5118Y-0.5472
X0.5197Y-0.7638
X0.5197Y-0.8976
X0.5512Y-0.3071
X0.565Y-0.1811
X0.5689Y-1.061
X0.5906Y-0.437
X0.5906Y-0.5472
X0.5925Y-1.061
X0.6319Y-0.7283
X0.6673Y-1.061
X0.6693Y-0.439
X0.6693Y-0.5472
X0.6909Y-1.061
X0.6949Y-1.3209
X0.6949Y-1.4724
X0.7264Y-0.7283
X0.7323Y-1.2795
X0.7362Y-1.3445
X0.748Y-0.437
X0.748Y-0.5472
X0.7618Y-1.4724
X0.7677Y-1.061
X0.7756Y-0.7776
X0.7913Y-1.061
X0.8346Y-0.7165
X0.8386Y-0.7776
X0.8858Y-0.5457
X0.8917Y-0.1811
X0.8917Y-1.4724
X0.8976Y-0.3071
X0.8976Y-0.7323
X0.8976Y-0.7638
X0.9035Y-0.9272
X0.9173Y-1.3445
X0.9213Y-1.2776
X0.9272Y-0.9272
X0.9449Y-0.3071
X0.9508Y-0.9272
X0.9528Y-0.7323
X0.9587Y-0.1811
X0.9587Y-1.3228
X0.9587Y-1.4724
X0.9961Y-0.7638
X1.0236Y-0.7087
X1.0276Y-0.7638
X1.0472Y-1.0276
X1.0787Y-0.5217
X1.0886Y-0.1811
X1.1024Y-0.3071
X1.1378Y-0.7185
X1.1417Y-0.3071
X1.1555Y-0.1811
X1.1614Y-0.7185
X1.185Y-0.7185
T0
M30
