G04 #@! TF.GenerationSoftware,KiCad,Pcbnew,(5.1.9)-1*
G04 #@! TF.CreationDate,2023-02-02T22:46:09+01:00*
G04 #@! TF.ProjectId,Leds,4c656473-2e6b-4696-9361-645f70636258,rev?*
G04 #@! TF.SameCoordinates,PXd59f80PYd59f80*
G04 #@! TF.FileFunction,Copper,L1,Top*
G04 #@! TF.FilePolarity,Positive*
%FSLAX46Y46*%
G04 Gerber Fmt 4.6, Leading zero omitted, Abs format (unit mm)*
G04 Created by KiCad (PCBNEW (5.1.9)-1) date 2023-02-02 22:46:09*
%MOMM*%
%LPD*%
G01*
G04 APERTURE LIST*
G04 #@! TA.AperFunction,SMDPad,CuDef*
%ADD10R,0.900000X1.600000*%
G04 #@! TD*
G04 #@! TA.AperFunction,SMDPad,CuDef*
%ADD11R,1.200000X2.500000*%
G04 #@! TD*
G04 #@! TA.AperFunction,ViaPad*
%ADD12C,0.600000*%
G04 #@! TD*
G04 #@! TA.AperFunction,Conductor*
%ADD13C,0.200000*%
G04 #@! TD*
G04 #@! TA.AperFunction,Conductor*
%ADD14C,0.300000*%
G04 #@! TD*
G04 #@! TA.AperFunction,Conductor*
%ADD15C,0.150000*%
G04 #@! TD*
G04 #@! TA.AperFunction,Conductor*
%ADD16C,0.100000*%
G04 #@! TD*
G04 APERTURE END LIST*
D10*
X19350000Y-32400000D03*
X17650000Y-32400000D03*
X19350000Y-35600000D03*
X17650000Y-35600000D03*
X24350000Y-32400000D03*
X22650000Y-32400000D03*
X24350000Y-35600000D03*
X22650000Y-35600000D03*
X9350000Y-32400000D03*
X7650000Y-32400000D03*
X9350000Y-35600000D03*
X7650000Y-35600000D03*
X4350000Y-32400000D03*
X2650000Y-32400000D03*
X4350000Y-35600000D03*
X2650000Y-35600000D03*
X27650000Y-9600000D03*
X29350000Y-9600000D03*
X27650000Y-6400000D03*
X29350000Y-6400000D03*
X22650000Y-9600000D03*
X24350000Y-9600000D03*
X22650000Y-6400000D03*
X24350000Y-6400000D03*
X12650000Y-9600000D03*
X14350000Y-9600000D03*
X12650000Y-6400000D03*
X14350000Y-6400000D03*
X7650000Y-9600000D03*
X9350000Y-9600000D03*
X7650000Y-6400000D03*
X9350000Y-6400000D03*
D11*
X17270000Y-16593000D03*
X17270000Y-25407000D03*
X14730000Y-16593000D03*
X14730000Y-25407000D03*
X19810000Y-25407000D03*
X19810000Y-16593000D03*
X12190000Y-16593000D03*
X12190000Y-25407000D03*
D12*
X13000000Y-13900000D03*
X15000000Y-13900000D03*
X17000000Y-13900000D03*
X19000000Y-13900000D03*
X25300000Y-19400000D03*
X22800000Y-19400000D03*
X4600000Y-20200000D03*
X3800000Y-15000000D03*
X3799930Y-26900000D03*
X4600000Y-23000000D03*
X21200000Y-18200000D03*
X26000000Y-18000000D03*
X3800000Y-15900000D03*
X3799930Y-25900070D03*
X24200000Y-18600000D03*
X22800000Y-18600000D03*
X1250000Y-23060000D03*
X1250000Y-24850000D03*
X5800000Y-19400000D03*
X3799930Y-28200000D03*
X9000000Y-7800000D03*
X7800000Y-7800000D03*
X14000000Y-7800000D03*
X13000000Y-7800000D03*
X22800000Y-7800000D03*
X24000000Y-7800000D03*
X28000000Y-7800000D03*
X29000000Y-7800000D03*
X2650000Y-33550000D03*
X3600000Y-32500000D03*
X8400000Y-32450000D03*
X9350000Y-33600000D03*
X18600000Y-32500000D03*
X17650000Y-33550000D03*
X24350000Y-33600000D03*
X23400000Y-32450000D03*
X27400000Y-13250000D03*
X18700000Y-34150000D03*
X3700000Y-34150000D03*
X8300000Y-34150000D03*
X23300000Y-34150000D03*
X5900000Y-21600000D03*
X12150000Y-19400000D03*
X3000000Y-21000000D03*
X26600000Y-26100000D03*
X24350000Y-37400000D03*
X2650000Y-37400000D03*
X7650000Y-37400000D03*
X4350000Y-37400000D03*
X9350000Y-37400000D03*
X17650000Y-37400000D03*
X19350000Y-37400000D03*
X22650000Y-37400000D03*
X29350000Y-4600000D03*
X27650000Y-4600000D03*
X24350000Y-4600000D03*
X22650000Y-4600000D03*
X14350000Y-4600000D03*
X12650000Y-4600000D03*
X9350000Y-4600000D03*
X7650000Y-4600000D03*
X16050000Y-18500000D03*
X18450000Y-18500000D03*
X21300000Y-19750000D03*
X19700000Y-19750000D03*
X16950000Y-26950000D03*
X19500000Y-26950000D03*
X20100000Y-26950000D03*
X17550000Y-26950000D03*
X14450000Y-26950000D03*
X15050000Y-26950000D03*
X11900000Y-26950000D03*
X12500000Y-26950000D03*
X1500000Y-25650000D03*
X1500000Y-15150000D03*
X22950000Y-23550000D03*
X23550000Y-23550000D03*
X24150000Y-23550000D03*
X29500000Y-18250000D03*
X28900000Y-18250000D03*
X30100000Y-18250000D03*
X9050000Y-18250000D03*
X8450000Y-18250000D03*
X7850000Y-18250000D03*
X19000000Y-11100000D03*
X17000000Y-11150000D03*
X15000000Y-11100000D03*
X13000000Y-11100000D03*
X22500000Y-13860000D03*
X26100000Y-19400000D03*
X7850000Y-28750000D03*
X8450000Y-28750000D03*
X9050000Y-28750000D03*
X13200000Y-22800000D03*
X13200000Y-19400000D03*
D13*
X13000000Y-13900000D02*
X13000000Y-15200000D01*
X12190000Y-16010000D02*
X12190000Y-16593000D01*
X13000000Y-15200000D02*
X12190000Y-16010000D01*
X15000000Y-16323000D02*
X14730000Y-16593000D01*
X15000000Y-13900000D02*
X15000000Y-16323000D01*
X17000000Y-16323000D02*
X17270000Y-16593000D01*
X17000000Y-13900000D02*
X17000000Y-16323000D01*
X19000000Y-13900000D02*
X19000000Y-15200000D01*
X19810000Y-16010000D02*
X19810000Y-16593000D01*
X19000000Y-15200000D02*
X19810000Y-16010000D01*
X22800000Y-19400000D02*
X25300000Y-19400000D01*
X4600000Y-15800000D02*
X3800000Y-15000000D01*
X4600000Y-20200000D02*
X4600000Y-15800000D01*
X4600000Y-26099930D02*
X3799930Y-26900000D01*
X4600000Y-23000000D02*
X4600000Y-26099930D01*
X21400000Y-18000000D02*
X21200000Y-18200000D01*
X26000000Y-18000000D02*
X21400000Y-18000000D01*
X3799930Y-25900070D02*
X3799930Y-25700070D01*
X24200000Y-18600000D02*
X22800000Y-18600000D01*
X3799930Y-25900070D02*
X4000000Y-25700000D01*
X4000000Y-25700000D02*
X3999999Y-23288001D01*
X3999999Y-16099999D02*
X3800000Y-15900000D01*
X3999999Y-23288001D02*
X3999999Y-16099999D01*
X1250000Y-23060000D02*
X1250000Y-24850000D01*
X5800000Y-19400000D02*
X5200000Y-20000000D01*
X5200000Y-26799930D02*
X3799930Y-28200000D01*
X5200000Y-20000000D02*
X5200000Y-26799930D01*
X9000000Y-9200000D02*
X9350000Y-9550000D01*
X9000000Y-7800000D02*
X9000000Y-9200000D01*
X7800000Y-9350000D02*
X7650000Y-9500000D01*
X7800000Y-7800000D02*
X7800000Y-9350000D01*
X14000000Y-9200000D02*
X14350000Y-9550000D01*
X14000000Y-7800000D02*
X14000000Y-9200000D01*
X13000000Y-9150000D02*
X12650000Y-9500000D01*
X13000000Y-7800000D02*
X13000000Y-9150000D01*
X22800000Y-9350000D02*
X22650000Y-9500000D01*
X22800000Y-7800000D02*
X22800000Y-9350000D01*
X24000000Y-9200000D02*
X24350000Y-9550000D01*
X24000000Y-7800000D02*
X24000000Y-9200000D01*
X28000000Y-9150000D02*
X27650000Y-9500000D01*
X28000000Y-7800000D02*
X28000000Y-9150000D01*
X29000000Y-9200000D02*
X29350000Y-9550000D01*
X29000000Y-7800000D02*
X29000000Y-9200000D01*
X2650000Y-33550000D02*
X2650000Y-32450000D01*
X4350000Y-32500000D02*
X3600000Y-32500000D01*
X8400000Y-32450000D02*
X7650000Y-32450000D01*
X9350000Y-33600000D02*
X9350000Y-32500000D01*
X18600000Y-32500000D02*
X19350000Y-32500000D01*
X17650000Y-33550000D02*
X17650000Y-32450000D01*
X24350000Y-33600000D02*
X24350000Y-32500000D01*
X23400000Y-32450000D02*
X22650000Y-32450000D01*
D14*
X14730000Y-26630000D02*
X15050000Y-26950000D01*
X14730000Y-25407000D02*
X14730000Y-26630000D01*
X14730000Y-26670000D02*
X14450000Y-26950000D01*
X14730000Y-25407000D02*
X14730000Y-26670000D01*
X12190000Y-26640000D02*
X12500000Y-26950000D01*
X12190000Y-25407000D02*
X12190000Y-26640000D01*
X12190000Y-26660000D02*
X11900000Y-26950000D01*
X12190000Y-25407000D02*
X12190000Y-26660000D01*
X17270000Y-26630000D02*
X16950000Y-26950000D01*
X17270000Y-25407000D02*
X17270000Y-26630000D01*
X17270000Y-26670000D02*
X17550000Y-26950000D01*
X17270000Y-25407000D02*
X17270000Y-26670000D01*
X19810000Y-26640000D02*
X19500000Y-26950000D01*
X19810000Y-25407000D02*
X19810000Y-26640000D01*
X19810000Y-26660000D02*
X20100000Y-26950000D01*
X19810000Y-25407000D02*
X19810000Y-26660000D01*
D13*
X2650000Y-37400000D02*
X2650000Y-35600000D01*
X4350000Y-37400000D02*
X4350000Y-35600000D01*
X7650000Y-37400000D02*
X7650000Y-35600000D01*
X9350000Y-37400000D02*
X9350000Y-35600000D01*
X17650000Y-37400000D02*
X17650000Y-35600000D01*
X19350000Y-37400000D02*
X19350000Y-35600000D01*
X22650000Y-37400000D02*
X22650000Y-35600000D01*
X24350000Y-37400000D02*
X24350000Y-35600000D01*
X29350000Y-4600000D02*
X29350000Y-6400000D01*
X27650000Y-4600000D02*
X27650000Y-6400000D01*
X24350000Y-4600000D02*
X24350000Y-6400000D01*
X22650000Y-4600000D02*
X22650000Y-6400000D01*
X12650000Y-4600000D02*
X12650000Y-6400000D01*
X14350000Y-4600000D02*
X14350000Y-6400000D01*
X7650000Y-4600000D02*
X7650000Y-6400000D01*
X9350000Y-4600000D02*
X9350000Y-6400000D01*
X13200000Y-22800000D02*
X13200000Y-19400000D01*
D15*
X1356511Y-488215D02*
X1382243Y-573041D01*
X1424029Y-651216D01*
X1480263Y-719737D01*
X1548784Y-775971D01*
X1626959Y-817757D01*
X1711785Y-843489D01*
X1752867Y-847535D01*
X1800000Y-852177D01*
X1822104Y-850000D01*
X3377895Y-850000D01*
X3400000Y-852177D01*
X3422104Y-850000D01*
X3422105Y-850000D01*
X3488215Y-843489D01*
X3573041Y-817757D01*
X3651216Y-775971D01*
X3719737Y-719737D01*
X3775971Y-651216D01*
X3817757Y-573041D01*
X3843489Y-488215D01*
X3847253Y-450000D01*
X4950001Y-450000D01*
X4950000Y-1177895D01*
X4947823Y-1200000D01*
X4956511Y-1288215D01*
X4982243Y-1373041D01*
X5024029Y-1451216D01*
X5080263Y-1519737D01*
X5148784Y-1575971D01*
X5226959Y-1617757D01*
X5311785Y-1643489D01*
X5400000Y-1652177D01*
X5422104Y-1650000D01*
X8777896Y-1650000D01*
X8800000Y-1652177D01*
X8888215Y-1643489D01*
X8973041Y-1617757D01*
X9051216Y-1575971D01*
X9119737Y-1519737D01*
X9175971Y-1451216D01*
X9217757Y-1373041D01*
X9243489Y-1288215D01*
X9250000Y-1222105D01*
X9250000Y-1222104D01*
X9252177Y-1200000D01*
X9250000Y-1177895D01*
X9250000Y-450000D01*
X22750001Y-450000D01*
X22750000Y-1177895D01*
X22747823Y-1200000D01*
X22756511Y-1288215D01*
X22782243Y-1373041D01*
X22824029Y-1451216D01*
X22880263Y-1519737D01*
X22948784Y-1575971D01*
X23026959Y-1617757D01*
X23111785Y-1643489D01*
X23200000Y-1652177D01*
X23222104Y-1650000D01*
X26577896Y-1650000D01*
X26600000Y-1652177D01*
X26688215Y-1643489D01*
X26773041Y-1617757D01*
X26851216Y-1575971D01*
X26919737Y-1519737D01*
X26975971Y-1451216D01*
X27017757Y-1373041D01*
X27043489Y-1288215D01*
X27050000Y-1222105D01*
X27050000Y-1222104D01*
X27052177Y-1200000D01*
X27050000Y-1177895D01*
X27050000Y-450000D01*
X28152747Y-450000D01*
X28156511Y-488215D01*
X28182243Y-573041D01*
X28224029Y-651216D01*
X28280263Y-719737D01*
X28348784Y-775971D01*
X28426959Y-817757D01*
X28511785Y-843489D01*
X28552867Y-847535D01*
X28600000Y-852177D01*
X28622104Y-850000D01*
X30177895Y-850000D01*
X30200000Y-852177D01*
X30222104Y-850000D01*
X30222105Y-850000D01*
X30288215Y-843489D01*
X30373041Y-817757D01*
X30451216Y-775971D01*
X30519737Y-719737D01*
X30575971Y-651216D01*
X30617757Y-573041D01*
X30643489Y-488215D01*
X30647253Y-450000D01*
X31550001Y-450000D01*
X31550000Y-41550000D01*
X30647253Y-41550000D01*
X30645852Y-41535773D01*
X30643489Y-41511785D01*
X30617757Y-41426959D01*
X30575971Y-41348784D01*
X30519737Y-41280263D01*
X30518077Y-41278901D01*
X30451216Y-41224029D01*
X30373041Y-41182243D01*
X30288215Y-41156511D01*
X30222105Y-41150000D01*
X30222104Y-41150000D01*
X30200000Y-41147823D01*
X30177895Y-41150000D01*
X28622104Y-41150000D01*
X28600000Y-41147823D01*
X28577895Y-41150000D01*
X28511785Y-41156511D01*
X28426959Y-41182243D01*
X28348784Y-41224029D01*
X28280263Y-41280263D01*
X28224029Y-41348784D01*
X28182243Y-41426959D01*
X28156511Y-41511785D01*
X28152747Y-41550000D01*
X27050000Y-41550000D01*
X27050000Y-40822105D01*
X27052177Y-40800000D01*
X27043489Y-40711785D01*
X27017757Y-40626959D01*
X26975971Y-40548784D01*
X26919737Y-40480263D01*
X26851216Y-40424029D01*
X26773041Y-40382243D01*
X26688215Y-40356511D01*
X26622105Y-40350000D01*
X26622104Y-40350000D01*
X26600000Y-40347823D01*
X26577895Y-40350000D01*
X23222105Y-40350000D01*
X23200000Y-40347823D01*
X23177896Y-40350000D01*
X23177895Y-40350000D01*
X23111785Y-40356511D01*
X23026959Y-40382243D01*
X22948784Y-40424029D01*
X22880263Y-40480263D01*
X22824029Y-40548784D01*
X22782243Y-40626959D01*
X22756511Y-40711785D01*
X22747823Y-40800000D01*
X22750001Y-40822114D01*
X22750000Y-41550000D01*
X9250000Y-41550000D01*
X9250000Y-40822105D01*
X9252177Y-40800000D01*
X9243489Y-40711785D01*
X9217757Y-40626959D01*
X9175971Y-40548784D01*
X9119737Y-40480263D01*
X9051216Y-40424029D01*
X8973041Y-40382243D01*
X8888215Y-40356511D01*
X8822105Y-40350000D01*
X8822104Y-40350000D01*
X8800000Y-40347823D01*
X8777895Y-40350000D01*
X5422105Y-40350000D01*
X5400000Y-40347823D01*
X5377896Y-40350000D01*
X5377895Y-40350000D01*
X5311785Y-40356511D01*
X5226959Y-40382243D01*
X5148784Y-40424029D01*
X5080263Y-40480263D01*
X5024029Y-40548784D01*
X4982243Y-40626959D01*
X4956511Y-40711785D01*
X4947823Y-40800000D01*
X4950001Y-40822114D01*
X4950000Y-41550000D01*
X3847253Y-41550000D01*
X3845852Y-41535773D01*
X3843489Y-41511785D01*
X3817757Y-41426959D01*
X3775971Y-41348784D01*
X3719737Y-41280263D01*
X3718077Y-41278901D01*
X3651216Y-41224029D01*
X3573041Y-41182243D01*
X3488215Y-41156511D01*
X3422105Y-41150000D01*
X3422104Y-41150000D01*
X3400000Y-41147823D01*
X3377895Y-41150000D01*
X1822104Y-41150000D01*
X1800000Y-41147823D01*
X1777895Y-41150000D01*
X1711785Y-41156511D01*
X1626959Y-41182243D01*
X1548784Y-41224029D01*
X1480263Y-41280263D01*
X1424029Y-41348784D01*
X1382243Y-41426959D01*
X1356511Y-41511785D01*
X1352747Y-41550000D01*
X450000Y-41550000D01*
X450000Y-36400000D01*
X1823186Y-36400000D01*
X1830426Y-36473513D01*
X1851869Y-36544200D01*
X1886691Y-36609347D01*
X1933552Y-36666448D01*
X1990653Y-36713309D01*
X2055800Y-36748131D01*
X2126487Y-36769574D01*
X2200000Y-36776814D01*
X2531250Y-36775000D01*
X2625000Y-36681250D01*
X2625000Y-35625000D01*
X2675000Y-35625000D01*
X2675000Y-36681250D01*
X2768750Y-36775000D01*
X3100000Y-36776814D01*
X3173513Y-36769574D01*
X3244200Y-36748131D01*
X3309347Y-36713309D01*
X3366448Y-36666448D01*
X3413309Y-36609347D01*
X3448131Y-36544200D01*
X3469574Y-36473513D01*
X3476814Y-36400000D01*
X3523186Y-36400000D01*
X3530426Y-36473513D01*
X3551869Y-36544200D01*
X3586691Y-36609347D01*
X3633552Y-36666448D01*
X3690653Y-36713309D01*
X3755800Y-36748131D01*
X3826487Y-36769574D01*
X3900000Y-36776814D01*
X4231250Y-36775000D01*
X4325000Y-36681250D01*
X4325000Y-35625000D01*
X4375000Y-35625000D01*
X4375000Y-36681250D01*
X4468750Y-36775000D01*
X4800000Y-36776814D01*
X4873513Y-36769574D01*
X4944200Y-36748131D01*
X5009347Y-36713309D01*
X5066448Y-36666448D01*
X5113309Y-36609347D01*
X5148131Y-36544200D01*
X5169574Y-36473513D01*
X5176814Y-36400000D01*
X6823186Y-36400000D01*
X6830426Y-36473513D01*
X6851869Y-36544200D01*
X6886691Y-36609347D01*
X6933552Y-36666448D01*
X6990653Y-36713309D01*
X7055800Y-36748131D01*
X7126487Y-36769574D01*
X7200000Y-36776814D01*
X7531250Y-36775000D01*
X7625000Y-36681250D01*
X7625000Y-35625000D01*
X7675000Y-35625000D01*
X7675000Y-36681250D01*
X7768750Y-36775000D01*
X8100000Y-36776814D01*
X8173513Y-36769574D01*
X8244200Y-36748131D01*
X8309347Y-36713309D01*
X8366448Y-36666448D01*
X8413309Y-36609347D01*
X8448131Y-36544200D01*
X8469574Y-36473513D01*
X8476814Y-36400000D01*
X8523186Y-36400000D01*
X8530426Y-36473513D01*
X8551869Y-36544200D01*
X8586691Y-36609347D01*
X8633552Y-36666448D01*
X8690653Y-36713309D01*
X8755800Y-36748131D01*
X8826487Y-36769574D01*
X8900000Y-36776814D01*
X9231250Y-36775000D01*
X9325000Y-36681250D01*
X9325000Y-35625000D01*
X9375000Y-35625000D01*
X9375000Y-36681250D01*
X9468750Y-36775000D01*
X9800000Y-36776814D01*
X9873513Y-36769574D01*
X9944200Y-36748131D01*
X10009347Y-36713309D01*
X10066448Y-36666448D01*
X10113309Y-36609347D01*
X10148131Y-36544200D01*
X10169574Y-36473513D01*
X10176814Y-36400000D01*
X16823186Y-36400000D01*
X16830426Y-36473513D01*
X16851869Y-36544200D01*
X16886691Y-36609347D01*
X16933552Y-36666448D01*
X16990653Y-36713309D01*
X17055800Y-36748131D01*
X17126487Y-36769574D01*
X17200000Y-36776814D01*
X17531250Y-36775000D01*
X17625000Y-36681250D01*
X17625000Y-35625000D01*
X17675000Y-35625000D01*
X17675000Y-36681250D01*
X17768750Y-36775000D01*
X18100000Y-36776814D01*
X18173513Y-36769574D01*
X18244200Y-36748131D01*
X18309347Y-36713309D01*
X18366448Y-36666448D01*
X18413309Y-36609347D01*
X18448131Y-36544200D01*
X18469574Y-36473513D01*
X18476814Y-36400000D01*
X18523186Y-36400000D01*
X18530426Y-36473513D01*
X18551869Y-36544200D01*
X18586691Y-36609347D01*
X18633552Y-36666448D01*
X18690653Y-36713309D01*
X18755800Y-36748131D01*
X18826487Y-36769574D01*
X18900000Y-36776814D01*
X19231250Y-36775000D01*
X19325000Y-36681250D01*
X19325000Y-35625000D01*
X19375000Y-35625000D01*
X19375000Y-36681250D01*
X19468750Y-36775000D01*
X19800000Y-36776814D01*
X19873513Y-36769574D01*
X19944200Y-36748131D01*
X20009347Y-36713309D01*
X20066448Y-36666448D01*
X20113309Y-36609347D01*
X20148131Y-36544200D01*
X20169574Y-36473513D01*
X20176814Y-36400000D01*
X21823186Y-36400000D01*
X21830426Y-36473513D01*
X21851869Y-36544200D01*
X21886691Y-36609347D01*
X21933552Y-36666448D01*
X21990653Y-36713309D01*
X22055800Y-36748131D01*
X22126487Y-36769574D01*
X22200000Y-36776814D01*
X22531250Y-36775000D01*
X22625000Y-36681250D01*
X22625000Y-35625000D01*
X22675000Y-35625000D01*
X22675000Y-36681250D01*
X22768750Y-36775000D01*
X23100000Y-36776814D01*
X23173513Y-36769574D01*
X23244200Y-36748131D01*
X23309347Y-36713309D01*
X23366448Y-36666448D01*
X23413309Y-36609347D01*
X23448131Y-36544200D01*
X23469574Y-36473513D01*
X23476814Y-36400000D01*
X23523186Y-36400000D01*
X23530426Y-36473513D01*
X23551869Y-36544200D01*
X23586691Y-36609347D01*
X23633552Y-36666448D01*
X23690653Y-36713309D01*
X23755800Y-36748131D01*
X23826487Y-36769574D01*
X23900000Y-36776814D01*
X24231250Y-36775000D01*
X24325000Y-36681250D01*
X24325000Y-35625000D01*
X24375000Y-35625000D01*
X24375000Y-36681250D01*
X24468750Y-36775000D01*
X24800000Y-36776814D01*
X24873513Y-36769574D01*
X24944200Y-36748131D01*
X25009347Y-36713309D01*
X25066448Y-36666448D01*
X25113309Y-36609347D01*
X25148131Y-36544200D01*
X25169574Y-36473513D01*
X25176814Y-36400000D01*
X25175000Y-35718750D01*
X25081250Y-35625000D01*
X24375000Y-35625000D01*
X24325000Y-35625000D01*
X23618750Y-35625000D01*
X23525000Y-35718750D01*
X23523186Y-36400000D01*
X23476814Y-36400000D01*
X23475000Y-35718750D01*
X23381250Y-35625000D01*
X22675000Y-35625000D01*
X22625000Y-35625000D01*
X21918750Y-35625000D01*
X21825000Y-35718750D01*
X21823186Y-36400000D01*
X20176814Y-36400000D01*
X20175000Y-35718750D01*
X20081250Y-35625000D01*
X19375000Y-35625000D01*
X19325000Y-35625000D01*
X18618750Y-35625000D01*
X18525000Y-35718750D01*
X18523186Y-36400000D01*
X18476814Y-36400000D01*
X18475000Y-35718750D01*
X18381250Y-35625000D01*
X17675000Y-35625000D01*
X17625000Y-35625000D01*
X16918750Y-35625000D01*
X16825000Y-35718750D01*
X16823186Y-36400000D01*
X10176814Y-36400000D01*
X10175000Y-35718750D01*
X10081250Y-35625000D01*
X9375000Y-35625000D01*
X9325000Y-35625000D01*
X8618750Y-35625000D01*
X8525000Y-35718750D01*
X8523186Y-36400000D01*
X8476814Y-36400000D01*
X8475000Y-35718750D01*
X8381250Y-35625000D01*
X7675000Y-35625000D01*
X7625000Y-35625000D01*
X6918750Y-35625000D01*
X6825000Y-35718750D01*
X6823186Y-36400000D01*
X5176814Y-36400000D01*
X5175000Y-35718750D01*
X5081250Y-35625000D01*
X4375000Y-35625000D01*
X4325000Y-35625000D01*
X3618750Y-35625000D01*
X3525000Y-35718750D01*
X3523186Y-36400000D01*
X3476814Y-36400000D01*
X3475000Y-35718750D01*
X3381250Y-35625000D01*
X2675000Y-35625000D01*
X2625000Y-35625000D01*
X1918750Y-35625000D01*
X1825000Y-35718750D01*
X1823186Y-36400000D01*
X450000Y-36400000D01*
X450000Y-34800000D01*
X1823186Y-34800000D01*
X1825000Y-35481250D01*
X1918750Y-35575000D01*
X2625000Y-35575000D01*
X2625000Y-34518750D01*
X2675000Y-34518750D01*
X2675000Y-35575000D01*
X3381250Y-35575000D01*
X3475000Y-35481250D01*
X3476814Y-34800000D01*
X3523186Y-34800000D01*
X3525000Y-35481250D01*
X3618750Y-35575000D01*
X4325000Y-35575000D01*
X4325000Y-34518750D01*
X4375000Y-34518750D01*
X4375000Y-35575000D01*
X5081250Y-35575000D01*
X5175000Y-35481250D01*
X5176814Y-34800000D01*
X6823186Y-34800000D01*
X6825000Y-35481250D01*
X6918750Y-35575000D01*
X7625000Y-35575000D01*
X7625000Y-34518750D01*
X7675000Y-34518750D01*
X7675000Y-35575000D01*
X8381250Y-35575000D01*
X8475000Y-35481250D01*
X8476814Y-34800000D01*
X8523186Y-34800000D01*
X8525000Y-35481250D01*
X8618750Y-35575000D01*
X9325000Y-35575000D01*
X9325000Y-34518750D01*
X9375000Y-34518750D01*
X9375000Y-35575000D01*
X10081250Y-35575000D01*
X10175000Y-35481250D01*
X10176814Y-34800000D01*
X16823186Y-34800000D01*
X16825000Y-35481250D01*
X16918750Y-35575000D01*
X17625000Y-35575000D01*
X17625000Y-34518750D01*
X17675000Y-34518750D01*
X17675000Y-35575000D01*
X18381250Y-35575000D01*
X18475000Y-35481250D01*
X18476814Y-34800000D01*
X18523186Y-34800000D01*
X18525000Y-35481250D01*
X18618750Y-35575000D01*
X19325000Y-35575000D01*
X19325000Y-34518750D01*
X19375000Y-34518750D01*
X19375000Y-35575000D01*
X20081250Y-35575000D01*
X20175000Y-35481250D01*
X20176814Y-34800000D01*
X21823186Y-34800000D01*
X21825000Y-35481250D01*
X21918750Y-35575000D01*
X22625000Y-35575000D01*
X22625000Y-34518750D01*
X22675000Y-34518750D01*
X22675000Y-35575000D01*
X23381250Y-35575000D01*
X23475000Y-35481250D01*
X23476814Y-34800000D01*
X23523186Y-34800000D01*
X23525000Y-35481250D01*
X23618750Y-35575000D01*
X24325000Y-35575000D01*
X24325000Y-34518750D01*
X24375000Y-34518750D01*
X24375000Y-35575000D01*
X25081250Y-35575000D01*
X25175000Y-35481250D01*
X25176814Y-34800000D01*
X25169574Y-34726487D01*
X25148131Y-34655800D01*
X25113309Y-34590653D01*
X25066448Y-34533552D01*
X25009347Y-34486691D01*
X24944200Y-34451869D01*
X24873513Y-34430426D01*
X24800000Y-34423186D01*
X24468750Y-34425000D01*
X24375000Y-34518750D01*
X24325000Y-34518750D01*
X24231250Y-34425000D01*
X23900000Y-34423186D01*
X23826487Y-34430426D01*
X23755800Y-34451869D01*
X23690653Y-34486691D01*
X23633552Y-34533552D01*
X23586691Y-34590653D01*
X23551869Y-34655800D01*
X23530426Y-34726487D01*
X23523186Y-34800000D01*
X23476814Y-34800000D01*
X23469574Y-34726487D01*
X23448131Y-34655800D01*
X23413309Y-34590653D01*
X23366448Y-34533552D01*
X23309347Y-34486691D01*
X23244200Y-34451869D01*
X23173513Y-34430426D01*
X23100000Y-34423186D01*
X22768750Y-34425000D01*
X22675000Y-34518750D01*
X22625000Y-34518750D01*
X22531250Y-34425000D01*
X22200000Y-34423186D01*
X22126487Y-34430426D01*
X22055800Y-34451869D01*
X21990653Y-34486691D01*
X21933552Y-34533552D01*
X21886691Y-34590653D01*
X21851869Y-34655800D01*
X21830426Y-34726487D01*
X21823186Y-34800000D01*
X20176814Y-34800000D01*
X20169574Y-34726487D01*
X20148131Y-34655800D01*
X20113309Y-34590653D01*
X20066448Y-34533552D01*
X20009347Y-34486691D01*
X19944200Y-34451869D01*
X19873513Y-34430426D01*
X19800000Y-34423186D01*
X19468750Y-34425000D01*
X19375000Y-34518750D01*
X19325000Y-34518750D01*
X19231250Y-34425000D01*
X18900000Y-34423186D01*
X18826487Y-34430426D01*
X18755800Y-34451869D01*
X18690653Y-34486691D01*
X18633552Y-34533552D01*
X18586691Y-34590653D01*
X18551869Y-34655800D01*
X18530426Y-34726487D01*
X18523186Y-34800000D01*
X18476814Y-34800000D01*
X18469574Y-34726487D01*
X18448131Y-34655800D01*
X18413309Y-34590653D01*
X18366448Y-34533552D01*
X18309347Y-34486691D01*
X18244200Y-34451869D01*
X18173513Y-34430426D01*
X18100000Y-34423186D01*
X17768750Y-34425000D01*
X17675000Y-34518750D01*
X17625000Y-34518750D01*
X17531250Y-34425000D01*
X17200000Y-34423186D01*
X17126487Y-34430426D01*
X17055800Y-34451869D01*
X16990653Y-34486691D01*
X16933552Y-34533552D01*
X16886691Y-34590653D01*
X16851869Y-34655800D01*
X16830426Y-34726487D01*
X16823186Y-34800000D01*
X10176814Y-34800000D01*
X10169574Y-34726487D01*
X10148131Y-34655800D01*
X10113309Y-34590653D01*
X10066448Y-34533552D01*
X10009347Y-34486691D01*
X9944200Y-34451869D01*
X9873513Y-34430426D01*
X9800000Y-34423186D01*
X9468750Y-34425000D01*
X9375000Y-34518750D01*
X9325000Y-34518750D01*
X9231250Y-34425000D01*
X8900000Y-34423186D01*
X8826487Y-34430426D01*
X8755800Y-34451869D01*
X8690653Y-34486691D01*
X8633552Y-34533552D01*
X8586691Y-34590653D01*
X8551869Y-34655800D01*
X8530426Y-34726487D01*
X8523186Y-34800000D01*
X8476814Y-34800000D01*
X8469574Y-34726487D01*
X8448131Y-34655800D01*
X8413309Y-34590653D01*
X8366448Y-34533552D01*
X8309347Y-34486691D01*
X8244200Y-34451869D01*
X8173513Y-34430426D01*
X8100000Y-34423186D01*
X7768750Y-34425000D01*
X7675000Y-34518750D01*
X7625000Y-34518750D01*
X7531250Y-34425000D01*
X7200000Y-34423186D01*
X7126487Y-34430426D01*
X7055800Y-34451869D01*
X6990653Y-34486691D01*
X6933552Y-34533552D01*
X6886691Y-34590653D01*
X6851869Y-34655800D01*
X6830426Y-34726487D01*
X6823186Y-34800000D01*
X5176814Y-34800000D01*
X5169574Y-34726487D01*
X5148131Y-34655800D01*
X5113309Y-34590653D01*
X5066448Y-34533552D01*
X5009347Y-34486691D01*
X4944200Y-34451869D01*
X4873513Y-34430426D01*
X4800000Y-34423186D01*
X4468750Y-34425000D01*
X4375000Y-34518750D01*
X4325000Y-34518750D01*
X4231250Y-34425000D01*
X3900000Y-34423186D01*
X3826487Y-34430426D01*
X3755800Y-34451869D01*
X3690653Y-34486691D01*
X3633552Y-34533552D01*
X3586691Y-34590653D01*
X3551869Y-34655800D01*
X3530426Y-34726487D01*
X3523186Y-34800000D01*
X3476814Y-34800000D01*
X3469574Y-34726487D01*
X3448131Y-34655800D01*
X3413309Y-34590653D01*
X3366448Y-34533552D01*
X3309347Y-34486691D01*
X3244200Y-34451869D01*
X3173513Y-34430426D01*
X3100000Y-34423186D01*
X2768750Y-34425000D01*
X2675000Y-34518750D01*
X2625000Y-34518750D01*
X2531250Y-34425000D01*
X2200000Y-34423186D01*
X2126487Y-34430426D01*
X2055800Y-34451869D01*
X1990653Y-34486691D01*
X1933552Y-34533552D01*
X1886691Y-34590653D01*
X1851869Y-34655800D01*
X1830426Y-34726487D01*
X1823186Y-34800000D01*
X450000Y-34800000D01*
X450000Y-31600000D01*
X1823186Y-31600000D01*
X1823186Y-33200000D01*
X1830426Y-33273513D01*
X1851869Y-33344200D01*
X1886691Y-33409347D01*
X1933552Y-33466448D01*
X1975000Y-33500463D01*
X1975000Y-33616482D01*
X2000940Y-33746890D01*
X2051823Y-33869732D01*
X2125693Y-33980287D01*
X2219713Y-34074307D01*
X2330268Y-34148177D01*
X2453110Y-34199060D01*
X2583518Y-34225000D01*
X2716482Y-34225000D01*
X2846890Y-34199060D01*
X2969732Y-34148177D01*
X3080287Y-34074307D01*
X3174307Y-33980287D01*
X3248177Y-33869732D01*
X3299060Y-33746890D01*
X3325000Y-33616482D01*
X3325000Y-33500463D01*
X3366448Y-33466448D01*
X3413309Y-33409347D01*
X3448131Y-33344200D01*
X3469574Y-33273513D01*
X3476814Y-33200000D01*
X3476814Y-33163721D01*
X3523186Y-33172945D01*
X3523186Y-33200000D01*
X3530426Y-33273513D01*
X3551869Y-33344200D01*
X3586691Y-33409347D01*
X3633552Y-33466448D01*
X3690653Y-33513309D01*
X3755800Y-33548131D01*
X3826487Y-33569574D01*
X3900000Y-33576814D01*
X4800000Y-33576814D01*
X4873513Y-33569574D01*
X4944200Y-33548131D01*
X5009347Y-33513309D01*
X5066448Y-33466448D01*
X5113309Y-33409347D01*
X5148131Y-33344200D01*
X5169574Y-33273513D01*
X5176814Y-33200000D01*
X5176814Y-31600000D01*
X6823186Y-31600000D01*
X6823186Y-33200000D01*
X6830426Y-33273513D01*
X6851869Y-33344200D01*
X6886691Y-33409347D01*
X6933552Y-33466448D01*
X6990653Y-33513309D01*
X7055800Y-33548131D01*
X7126487Y-33569574D01*
X7200000Y-33576814D01*
X8100000Y-33576814D01*
X8173513Y-33569574D01*
X8244200Y-33548131D01*
X8309347Y-33513309D01*
X8366448Y-33466448D01*
X8413309Y-33409347D01*
X8448131Y-33344200D01*
X8469574Y-33273513D01*
X8476814Y-33200000D01*
X8476814Y-33122945D01*
X8523186Y-33113721D01*
X8523186Y-33200000D01*
X8530426Y-33273513D01*
X8551869Y-33344200D01*
X8586691Y-33409347D01*
X8633552Y-33466448D01*
X8680652Y-33505102D01*
X8675000Y-33533518D01*
X8675000Y-33666482D01*
X8700940Y-33796890D01*
X8751823Y-33919732D01*
X8825693Y-34030287D01*
X8919713Y-34124307D01*
X9030268Y-34198177D01*
X9153110Y-34249060D01*
X9283518Y-34275000D01*
X9416482Y-34275000D01*
X9546890Y-34249060D01*
X9669732Y-34198177D01*
X9780287Y-34124307D01*
X9874307Y-34030287D01*
X9948177Y-33919732D01*
X9999060Y-33796890D01*
X10025000Y-33666482D01*
X10025000Y-33533518D01*
X10019348Y-33505102D01*
X10066448Y-33466448D01*
X10113309Y-33409347D01*
X10148131Y-33344200D01*
X10169574Y-33273513D01*
X10176814Y-33200000D01*
X10176814Y-31600000D01*
X16823186Y-31600000D01*
X16823186Y-33200000D01*
X16830426Y-33273513D01*
X16851869Y-33344200D01*
X16886691Y-33409347D01*
X16933552Y-33466448D01*
X16975000Y-33500463D01*
X16975000Y-33616482D01*
X17000940Y-33746890D01*
X17051823Y-33869732D01*
X17125693Y-33980287D01*
X17219713Y-34074307D01*
X17330268Y-34148177D01*
X17453110Y-34199060D01*
X17583518Y-34225000D01*
X17716482Y-34225000D01*
X17846890Y-34199060D01*
X17969732Y-34148177D01*
X18080287Y-34074307D01*
X18174307Y-33980287D01*
X18248177Y-33869732D01*
X18299060Y-33746890D01*
X18325000Y-33616482D01*
X18325000Y-33500463D01*
X18366448Y-33466448D01*
X18413309Y-33409347D01*
X18448131Y-33344200D01*
X18469574Y-33273513D01*
X18476814Y-33200000D01*
X18476814Y-33163721D01*
X18523186Y-33172945D01*
X18523186Y-33200000D01*
X18530426Y-33273513D01*
X18551869Y-33344200D01*
X18586691Y-33409347D01*
X18633552Y-33466448D01*
X18690653Y-33513309D01*
X18755800Y-33548131D01*
X18826487Y-33569574D01*
X18900000Y-33576814D01*
X19800000Y-33576814D01*
X19873513Y-33569574D01*
X19944200Y-33548131D01*
X20009347Y-33513309D01*
X20066448Y-33466448D01*
X20113309Y-33409347D01*
X20148131Y-33344200D01*
X20169574Y-33273513D01*
X20176814Y-33200000D01*
X20176814Y-31600000D01*
X21823186Y-31600000D01*
X21823186Y-33200000D01*
X21830426Y-33273513D01*
X21851869Y-33344200D01*
X21886691Y-33409347D01*
X21933552Y-33466448D01*
X21990653Y-33513309D01*
X22055800Y-33548131D01*
X22126487Y-33569574D01*
X22200000Y-33576814D01*
X23100000Y-33576814D01*
X23173513Y-33569574D01*
X23244200Y-33548131D01*
X23309347Y-33513309D01*
X23366448Y-33466448D01*
X23413309Y-33409347D01*
X23448131Y-33344200D01*
X23469574Y-33273513D01*
X23476814Y-33200000D01*
X23476814Y-33122945D01*
X23523186Y-33113721D01*
X23523186Y-33200000D01*
X23530426Y-33273513D01*
X23551869Y-33344200D01*
X23586691Y-33409347D01*
X23633552Y-33466448D01*
X23680652Y-33505102D01*
X23675000Y-33533518D01*
X23675000Y-33666482D01*
X23700940Y-33796890D01*
X23751823Y-33919732D01*
X23825693Y-34030287D01*
X23919713Y-34124307D01*
X24030268Y-34198177D01*
X24153110Y-34249060D01*
X24283518Y-34275000D01*
X24416482Y-34275000D01*
X24546890Y-34249060D01*
X24669732Y-34198177D01*
X24780287Y-34124307D01*
X24874307Y-34030287D01*
X24948177Y-33919732D01*
X24999060Y-33796890D01*
X25025000Y-33666482D01*
X25025000Y-33533518D01*
X25019348Y-33505102D01*
X25066448Y-33466448D01*
X25113309Y-33409347D01*
X25148131Y-33344200D01*
X25169574Y-33273513D01*
X25176814Y-33200000D01*
X25176814Y-31600000D01*
X25169574Y-31526487D01*
X25148131Y-31455800D01*
X25113309Y-31390653D01*
X25066448Y-31333552D01*
X25009347Y-31286691D01*
X24944200Y-31251869D01*
X24873513Y-31230426D01*
X24800000Y-31223186D01*
X23900000Y-31223186D01*
X23826487Y-31230426D01*
X23755800Y-31251869D01*
X23690653Y-31286691D01*
X23633552Y-31333552D01*
X23586691Y-31390653D01*
X23551869Y-31455800D01*
X23530426Y-31526487D01*
X23523186Y-31600000D01*
X23523186Y-31786279D01*
X23476814Y-31777055D01*
X23476814Y-31600000D01*
X23469574Y-31526487D01*
X23448131Y-31455800D01*
X23413309Y-31390653D01*
X23366448Y-31333552D01*
X23309347Y-31286691D01*
X23244200Y-31251869D01*
X23173513Y-31230426D01*
X23100000Y-31223186D01*
X22200000Y-31223186D01*
X22126487Y-31230426D01*
X22055800Y-31251869D01*
X21990653Y-31286691D01*
X21933552Y-31333552D01*
X21886691Y-31390653D01*
X21851869Y-31455800D01*
X21830426Y-31526487D01*
X21823186Y-31600000D01*
X20176814Y-31600000D01*
X20169574Y-31526487D01*
X20148131Y-31455800D01*
X20113309Y-31390653D01*
X20066448Y-31333552D01*
X20009347Y-31286691D01*
X19944200Y-31251869D01*
X19873513Y-31230426D01*
X19800000Y-31223186D01*
X18900000Y-31223186D01*
X18826487Y-31230426D01*
X18755800Y-31251869D01*
X18690653Y-31286691D01*
X18633552Y-31333552D01*
X18586691Y-31390653D01*
X18551869Y-31455800D01*
X18530426Y-31526487D01*
X18523186Y-31600000D01*
X18523186Y-31827055D01*
X18476814Y-31836279D01*
X18476814Y-31600000D01*
X18469574Y-31526487D01*
X18448131Y-31455800D01*
X18413309Y-31390653D01*
X18366448Y-31333552D01*
X18309347Y-31286691D01*
X18244200Y-31251869D01*
X18173513Y-31230426D01*
X18100000Y-31223186D01*
X17200000Y-31223186D01*
X17126487Y-31230426D01*
X17055800Y-31251869D01*
X16990653Y-31286691D01*
X16933552Y-31333552D01*
X16886691Y-31390653D01*
X16851869Y-31455800D01*
X16830426Y-31526487D01*
X16823186Y-31600000D01*
X10176814Y-31600000D01*
X10169574Y-31526487D01*
X10148131Y-31455800D01*
X10113309Y-31390653D01*
X10066448Y-31333552D01*
X10009347Y-31286691D01*
X9944200Y-31251869D01*
X9873513Y-31230426D01*
X9800000Y-31223186D01*
X8900000Y-31223186D01*
X8826487Y-31230426D01*
X8755800Y-31251869D01*
X8690653Y-31286691D01*
X8633552Y-31333552D01*
X8586691Y-31390653D01*
X8551869Y-31455800D01*
X8530426Y-31526487D01*
X8523186Y-31600000D01*
X8523186Y-31786279D01*
X8476814Y-31777055D01*
X8476814Y-31600000D01*
X8469574Y-31526487D01*
X8448131Y-31455800D01*
X8413309Y-31390653D01*
X8366448Y-31333552D01*
X8309347Y-31286691D01*
X8244200Y-31251869D01*
X8173513Y-31230426D01*
X8100000Y-31223186D01*
X7200000Y-31223186D01*
X7126487Y-31230426D01*
X7055800Y-31251869D01*
X6990653Y-31286691D01*
X6933552Y-31333552D01*
X6886691Y-31390653D01*
X6851869Y-31455800D01*
X6830426Y-31526487D01*
X6823186Y-31600000D01*
X5176814Y-31600000D01*
X5169574Y-31526487D01*
X5148131Y-31455800D01*
X5113309Y-31390653D01*
X5066448Y-31333552D01*
X5009347Y-31286691D01*
X4944200Y-31251869D01*
X4873513Y-31230426D01*
X4800000Y-31223186D01*
X3900000Y-31223186D01*
X3826487Y-31230426D01*
X3755800Y-31251869D01*
X3690653Y-31286691D01*
X3633552Y-31333552D01*
X3586691Y-31390653D01*
X3551869Y-31455800D01*
X3530426Y-31526487D01*
X3523186Y-31600000D01*
X3523186Y-31827055D01*
X3476814Y-31836279D01*
X3476814Y-31600000D01*
X3469574Y-31526487D01*
X3448131Y-31455800D01*
X3413309Y-31390653D01*
X3366448Y-31333552D01*
X3309347Y-31286691D01*
X3244200Y-31251869D01*
X3173513Y-31230426D01*
X3100000Y-31223186D01*
X2200000Y-31223186D01*
X2126487Y-31230426D01*
X2055800Y-31251869D01*
X1990653Y-31286691D01*
X1933552Y-31333552D01*
X1886691Y-31390653D01*
X1851869Y-31455800D01*
X1830426Y-31526487D01*
X1823186Y-31600000D01*
X450000Y-31600000D01*
X450000Y-25833588D01*
X3124930Y-25833588D01*
X3124930Y-25966552D01*
X3150870Y-26096960D01*
X3201753Y-26219802D01*
X3275623Y-26330357D01*
X3345301Y-26400035D01*
X3275623Y-26469713D01*
X3201753Y-26580268D01*
X3150870Y-26703110D01*
X3124930Y-26833518D01*
X3124930Y-26966482D01*
X3150870Y-27096890D01*
X3201753Y-27219732D01*
X3275623Y-27330287D01*
X3369643Y-27424307D01*
X3480198Y-27498177D01*
X3603040Y-27549060D01*
X3607766Y-27550000D01*
X3603040Y-27550940D01*
X3480198Y-27601823D01*
X3369643Y-27675693D01*
X3275623Y-27769713D01*
X3201753Y-27880268D01*
X3150870Y-28003110D01*
X3124930Y-28133518D01*
X3124930Y-28266482D01*
X3150870Y-28396890D01*
X3201753Y-28519732D01*
X3275623Y-28630287D01*
X3369643Y-28724307D01*
X3480198Y-28798177D01*
X3603040Y-28849060D01*
X3733448Y-28875000D01*
X3866412Y-28875000D01*
X3996820Y-28849060D01*
X4119662Y-28798177D01*
X4230217Y-28724307D01*
X4324237Y-28630287D01*
X4398107Y-28519732D01*
X4448990Y-28396890D01*
X4474930Y-28266482D01*
X4474930Y-28196750D01*
X5519371Y-27152310D01*
X5537501Y-27137431D01*
X5596859Y-27065103D01*
X5640966Y-26982584D01*
X5668127Y-26893046D01*
X5675000Y-26823262D01*
X5677298Y-26799930D01*
X5675000Y-26776598D01*
X5675000Y-26657000D01*
X11213186Y-26657000D01*
X11220426Y-26730513D01*
X11241869Y-26801200D01*
X11276691Y-26866347D01*
X11323552Y-26923448D01*
X11380653Y-26970309D01*
X11445800Y-27005131D01*
X11516487Y-27026574D01*
X11590000Y-27033814D01*
X12071250Y-27032000D01*
X12165000Y-26938250D01*
X12165000Y-25432000D01*
X12215000Y-25432000D01*
X12215000Y-26938250D01*
X12308750Y-27032000D01*
X12790000Y-27033814D01*
X12863513Y-27026574D01*
X12934200Y-27005131D01*
X12999347Y-26970309D01*
X13056448Y-26923448D01*
X13103309Y-26866347D01*
X13138131Y-26801200D01*
X13159574Y-26730513D01*
X13166814Y-26657000D01*
X13753186Y-26657000D01*
X13760426Y-26730513D01*
X13781869Y-26801200D01*
X13816691Y-26866347D01*
X13863552Y-26923448D01*
X13920653Y-26970309D01*
X13985800Y-27005131D01*
X14056487Y-27026574D01*
X14130000Y-27033814D01*
X14611250Y-27032000D01*
X14705000Y-26938250D01*
X14705000Y-25432000D01*
X14755000Y-25432000D01*
X14755000Y-26938250D01*
X14848750Y-27032000D01*
X15330000Y-27033814D01*
X15403513Y-27026574D01*
X15474200Y-27005131D01*
X15539347Y-26970309D01*
X15596448Y-26923448D01*
X15643309Y-26866347D01*
X15678131Y-26801200D01*
X15699574Y-26730513D01*
X15706814Y-26657000D01*
X16293186Y-26657000D01*
X16300426Y-26730513D01*
X16321869Y-26801200D01*
X16356691Y-26866347D01*
X16403552Y-26923448D01*
X16460653Y-26970309D01*
X16525800Y-27005131D01*
X16596487Y-27026574D01*
X16670000Y-27033814D01*
X17151250Y-27032000D01*
X17245000Y-26938250D01*
X17245000Y-25432000D01*
X17295000Y-25432000D01*
X17295000Y-26938250D01*
X17388750Y-27032000D01*
X17870000Y-27033814D01*
X17943513Y-27026574D01*
X18014200Y-27005131D01*
X18079347Y-26970309D01*
X18136448Y-26923448D01*
X18183309Y-26866347D01*
X18218131Y-26801200D01*
X18239574Y-26730513D01*
X18246814Y-26657000D01*
X18833186Y-26657000D01*
X18840426Y-26730513D01*
X18861869Y-26801200D01*
X18896691Y-26866347D01*
X18943552Y-26923448D01*
X19000653Y-26970309D01*
X19065800Y-27005131D01*
X19136487Y-27026574D01*
X19210000Y-27033814D01*
X19691250Y-27032000D01*
X19785000Y-26938250D01*
X19785000Y-25432000D01*
X19835000Y-25432000D01*
X19835000Y-26938250D01*
X19928750Y-27032000D01*
X20410000Y-27033814D01*
X20483513Y-27026574D01*
X20554200Y-27005131D01*
X20619347Y-26970309D01*
X20676448Y-26923448D01*
X20723309Y-26866347D01*
X20758131Y-26801200D01*
X20779574Y-26730513D01*
X20786814Y-26657000D01*
X20785000Y-25525750D01*
X20691250Y-25432000D01*
X19835000Y-25432000D01*
X19785000Y-25432000D01*
X18928750Y-25432000D01*
X18835000Y-25525750D01*
X18833186Y-26657000D01*
X18246814Y-26657000D01*
X18245000Y-25525750D01*
X18151250Y-25432000D01*
X17295000Y-25432000D01*
X17245000Y-25432000D01*
X16388750Y-25432000D01*
X16295000Y-25525750D01*
X16293186Y-26657000D01*
X15706814Y-26657000D01*
X15705000Y-25525750D01*
X15611250Y-25432000D01*
X14755000Y-25432000D01*
X14705000Y-25432000D01*
X13848750Y-25432000D01*
X13755000Y-25525750D01*
X13753186Y-26657000D01*
X13166814Y-26657000D01*
X13165000Y-25525750D01*
X13071250Y-25432000D01*
X12215000Y-25432000D01*
X12165000Y-25432000D01*
X11308750Y-25432000D01*
X11215000Y-25525750D01*
X11213186Y-26657000D01*
X5675000Y-26657000D01*
X5675000Y-24157000D01*
X11213186Y-24157000D01*
X11215000Y-25288250D01*
X11308750Y-25382000D01*
X12165000Y-25382000D01*
X12165000Y-23875750D01*
X12215000Y-23875750D01*
X12215000Y-25382000D01*
X13071250Y-25382000D01*
X13165000Y-25288250D01*
X13166814Y-24157000D01*
X13753186Y-24157000D01*
X13755000Y-25288250D01*
X13848750Y-25382000D01*
X14705000Y-25382000D01*
X14705000Y-23875750D01*
X14755000Y-23875750D01*
X14755000Y-25382000D01*
X15611250Y-25382000D01*
X15705000Y-25288250D01*
X15706814Y-24157000D01*
X16293186Y-24157000D01*
X16295000Y-25288250D01*
X16388750Y-25382000D01*
X17245000Y-25382000D01*
X17245000Y-23875750D01*
X17295000Y-23875750D01*
X17295000Y-25382000D01*
X18151250Y-25382000D01*
X18245000Y-25288250D01*
X18246814Y-24157000D01*
X18833186Y-24157000D01*
X18835000Y-25288250D01*
X18928750Y-25382000D01*
X19785000Y-25382000D01*
X19785000Y-23875750D01*
X19835000Y-23875750D01*
X19835000Y-25382000D01*
X20691250Y-25382000D01*
X20785000Y-25288250D01*
X20786814Y-24157000D01*
X20779574Y-24083487D01*
X20758131Y-24012800D01*
X20723309Y-23947653D01*
X20676448Y-23890552D01*
X20619347Y-23843691D01*
X20554200Y-23808869D01*
X20483513Y-23787426D01*
X20410000Y-23780186D01*
X19928750Y-23782000D01*
X19835000Y-23875750D01*
X19785000Y-23875750D01*
X19691250Y-23782000D01*
X19210000Y-23780186D01*
X19136487Y-23787426D01*
X19065800Y-23808869D01*
X19000653Y-23843691D01*
X18943552Y-23890552D01*
X18896691Y-23947653D01*
X18861869Y-24012800D01*
X18840426Y-24083487D01*
X18833186Y-24157000D01*
X18246814Y-24157000D01*
X18239574Y-24083487D01*
X18218131Y-24012800D01*
X18183309Y-23947653D01*
X18136448Y-23890552D01*
X18079347Y-23843691D01*
X18014200Y-23808869D01*
X17943513Y-23787426D01*
X17870000Y-23780186D01*
X17388750Y-23782000D01*
X17295000Y-23875750D01*
X17245000Y-23875750D01*
X17151250Y-23782000D01*
X16670000Y-23780186D01*
X16596487Y-23787426D01*
X16525800Y-23808869D01*
X16460653Y-23843691D01*
X16403552Y-23890552D01*
X16356691Y-23947653D01*
X16321869Y-24012800D01*
X16300426Y-24083487D01*
X16293186Y-24157000D01*
X15706814Y-24157000D01*
X15699574Y-24083487D01*
X15678131Y-24012800D01*
X15643309Y-23947653D01*
X15596448Y-23890552D01*
X15539347Y-23843691D01*
X15474200Y-23808869D01*
X15403513Y-23787426D01*
X15330000Y-23780186D01*
X14848750Y-23782000D01*
X14755000Y-23875750D01*
X14705000Y-23875750D01*
X14611250Y-23782000D01*
X14130000Y-23780186D01*
X14056487Y-23787426D01*
X13985800Y-23808869D01*
X13920653Y-23843691D01*
X13863552Y-23890552D01*
X13816691Y-23947653D01*
X13781869Y-24012800D01*
X13760426Y-24083487D01*
X13753186Y-24157000D01*
X13166814Y-24157000D01*
X13159574Y-24083487D01*
X13138131Y-24012800D01*
X13103309Y-23947653D01*
X13056448Y-23890552D01*
X12999347Y-23843691D01*
X12934200Y-23808869D01*
X12863513Y-23787426D01*
X12790000Y-23780186D01*
X12308750Y-23782000D01*
X12215000Y-23875750D01*
X12165000Y-23875750D01*
X12071250Y-23782000D01*
X11590000Y-23780186D01*
X11516487Y-23787426D01*
X11445800Y-23808869D01*
X11380653Y-23843691D01*
X11323552Y-23890552D01*
X11276691Y-23947653D01*
X11241869Y-24012800D01*
X11220426Y-24083487D01*
X11213186Y-24157000D01*
X5675000Y-24157000D01*
X5675000Y-20196750D01*
X5796750Y-20075000D01*
X5866482Y-20075000D01*
X5996890Y-20049060D01*
X6119732Y-19998177D01*
X6230287Y-19924307D01*
X6324307Y-19830287D01*
X6398177Y-19719732D01*
X6449060Y-19596890D01*
X6475000Y-19466482D01*
X6475000Y-19333518D01*
X12525000Y-19333518D01*
X12525000Y-19466482D01*
X12550940Y-19596890D01*
X12601823Y-19719732D01*
X12675693Y-19830287D01*
X12725001Y-19879595D01*
X12725000Y-22320406D01*
X12675693Y-22369713D01*
X12601823Y-22480268D01*
X12550940Y-22603110D01*
X12525000Y-22733518D01*
X12525000Y-22866482D01*
X12550940Y-22996890D01*
X12601823Y-23119732D01*
X12675693Y-23230287D01*
X12769713Y-23324307D01*
X12880268Y-23398177D01*
X13003110Y-23449060D01*
X13133518Y-23475000D01*
X13266482Y-23475000D01*
X13396890Y-23449060D01*
X13519732Y-23398177D01*
X13630287Y-23324307D01*
X13724307Y-23230287D01*
X13798177Y-23119732D01*
X13849060Y-22996890D01*
X13875000Y-22866482D01*
X13875000Y-22733518D01*
X13849060Y-22603110D01*
X13798177Y-22480268D01*
X13724307Y-22369713D01*
X13675000Y-22320406D01*
X13675000Y-19879594D01*
X13724307Y-19830287D01*
X13798177Y-19719732D01*
X13849060Y-19596890D01*
X13875000Y-19466482D01*
X13875000Y-19333518D01*
X13849060Y-19203110D01*
X13798177Y-19080268D01*
X13724307Y-18969713D01*
X13630287Y-18875693D01*
X13519732Y-18801823D01*
X13396890Y-18750940D01*
X13266482Y-18725000D01*
X13133518Y-18725000D01*
X13003110Y-18750940D01*
X12880268Y-18801823D01*
X12769713Y-18875693D01*
X12675693Y-18969713D01*
X12601823Y-19080268D01*
X12550940Y-19203110D01*
X12525000Y-19333518D01*
X6475000Y-19333518D01*
X6449060Y-19203110D01*
X6398177Y-19080268D01*
X6324307Y-18969713D01*
X6230287Y-18875693D01*
X6119732Y-18801823D01*
X5996890Y-18750940D01*
X5866482Y-18725000D01*
X5733518Y-18725000D01*
X5603110Y-18750940D01*
X5480268Y-18801823D01*
X5369713Y-18875693D01*
X5275693Y-18969713D01*
X5201823Y-19080268D01*
X5150940Y-19203110D01*
X5125000Y-19333518D01*
X5125000Y-19403250D01*
X5075000Y-19453250D01*
X5075000Y-15823332D01*
X5077298Y-15800000D01*
X5068127Y-15706884D01*
X5040966Y-15617345D01*
X5025602Y-15588602D01*
X4996859Y-15534827D01*
X4937501Y-15462499D01*
X4919377Y-15447625D01*
X4814752Y-15343000D01*
X11213186Y-15343000D01*
X11213186Y-17843000D01*
X11220426Y-17916513D01*
X11241869Y-17987200D01*
X11276691Y-18052347D01*
X11323552Y-18109448D01*
X11380653Y-18156309D01*
X11445800Y-18191131D01*
X11516487Y-18212574D01*
X11590000Y-18219814D01*
X12790000Y-18219814D01*
X12863513Y-18212574D01*
X12934200Y-18191131D01*
X12999347Y-18156309D01*
X13056448Y-18109448D01*
X13103309Y-18052347D01*
X13138131Y-17987200D01*
X13159574Y-17916513D01*
X13166814Y-17843000D01*
X13166814Y-15704937D01*
X13319371Y-15552380D01*
X13337501Y-15537501D01*
X13396859Y-15465173D01*
X13440966Y-15382654D01*
X13452994Y-15343000D01*
X13753186Y-15343000D01*
X13753186Y-17843000D01*
X13760426Y-17916513D01*
X13781869Y-17987200D01*
X13816691Y-18052347D01*
X13863552Y-18109448D01*
X13920653Y-18156309D01*
X13985800Y-18191131D01*
X14056487Y-18212574D01*
X14130000Y-18219814D01*
X15330000Y-18219814D01*
X15403513Y-18212574D01*
X15474200Y-18191131D01*
X15539347Y-18156309D01*
X15596448Y-18109448D01*
X15643309Y-18052347D01*
X15678131Y-17987200D01*
X15699574Y-17916513D01*
X15706814Y-17843000D01*
X15706814Y-15343000D01*
X16293186Y-15343000D01*
X16293186Y-17843000D01*
X16300426Y-17916513D01*
X16321869Y-17987200D01*
X16356691Y-18052347D01*
X16403552Y-18109448D01*
X16460653Y-18156309D01*
X16525800Y-18191131D01*
X16596487Y-18212574D01*
X16670000Y-18219814D01*
X17870000Y-18219814D01*
X17943513Y-18212574D01*
X18014200Y-18191131D01*
X18079347Y-18156309D01*
X18136448Y-18109448D01*
X18183309Y-18052347D01*
X18218131Y-17987200D01*
X18239574Y-17916513D01*
X18246814Y-17843000D01*
X18246814Y-15343000D01*
X18239574Y-15269487D01*
X18218131Y-15198800D01*
X18183309Y-15133653D01*
X18136448Y-15076552D01*
X18079347Y-15029691D01*
X18014200Y-14994869D01*
X17943513Y-14973426D01*
X17870000Y-14966186D01*
X17475000Y-14966186D01*
X17475000Y-14379594D01*
X17524307Y-14330287D01*
X17598177Y-14219732D01*
X17649060Y-14096890D01*
X17675000Y-13966482D01*
X17675000Y-13833518D01*
X18325000Y-13833518D01*
X18325000Y-13966482D01*
X18350940Y-14096890D01*
X18401823Y-14219732D01*
X18475693Y-14330287D01*
X18525000Y-14379594D01*
X18525001Y-15176658D01*
X18522702Y-15200000D01*
X18531873Y-15293116D01*
X18547006Y-15343000D01*
X18559035Y-15382654D01*
X18603142Y-15465173D01*
X18662500Y-15537501D01*
X18680629Y-15552379D01*
X18833186Y-15704936D01*
X18833186Y-17843000D01*
X18840426Y-17916513D01*
X18861869Y-17987200D01*
X18896691Y-18052347D01*
X18943552Y-18109448D01*
X19000653Y-18156309D01*
X19065800Y-18191131D01*
X19136487Y-18212574D01*
X19210000Y-18219814D01*
X20410000Y-18219814D01*
X20483513Y-18212574D01*
X20525000Y-18199989D01*
X20525000Y-18266482D01*
X20550940Y-18396890D01*
X20601823Y-18519732D01*
X20675693Y-18630287D01*
X20769713Y-18724307D01*
X20880268Y-18798177D01*
X21003110Y-18849060D01*
X21133518Y-18875000D01*
X21266482Y-18875000D01*
X21396890Y-18849060D01*
X21519732Y-18798177D01*
X21630287Y-18724307D01*
X21724307Y-18630287D01*
X21798177Y-18519732D01*
X21816706Y-18475000D01*
X22136640Y-18475000D01*
X22125000Y-18533518D01*
X22125000Y-18666482D01*
X22150940Y-18796890D01*
X22201823Y-18919732D01*
X22255456Y-19000000D01*
X22201823Y-19080268D01*
X22150940Y-19203110D01*
X22125000Y-19333518D01*
X22125000Y-19466482D01*
X22150940Y-19596890D01*
X22201823Y-19719732D01*
X22275693Y-19830287D01*
X22369713Y-19924307D01*
X22480268Y-19998177D01*
X22603110Y-20049060D01*
X22733518Y-20075000D01*
X22866482Y-20075000D01*
X22996890Y-20049060D01*
X23119732Y-19998177D01*
X23230287Y-19924307D01*
X23279594Y-19875000D01*
X24820406Y-19875000D01*
X24869713Y-19924307D01*
X24980268Y-19998177D01*
X25103110Y-20049060D01*
X25233518Y-20075000D01*
X25366482Y-20075000D01*
X25496890Y-20049060D01*
X25619732Y-19998177D01*
X25730287Y-19924307D01*
X25824307Y-19830287D01*
X25898177Y-19719732D01*
X25949060Y-19596890D01*
X25975000Y-19466482D01*
X25975000Y-19333518D01*
X25949060Y-19203110D01*
X25898177Y-19080268D01*
X25824307Y-18969713D01*
X25730287Y-18875693D01*
X25619732Y-18801823D01*
X25496890Y-18750940D01*
X25366482Y-18725000D01*
X25233518Y-18725000D01*
X25103110Y-18750940D01*
X24980268Y-18801823D01*
X24869713Y-18875693D01*
X24820406Y-18925000D01*
X24794657Y-18925000D01*
X24798177Y-18919732D01*
X24849060Y-18796890D01*
X24875000Y-18666482D01*
X24875000Y-18533518D01*
X24863360Y-18475000D01*
X25520406Y-18475000D01*
X25569713Y-18524307D01*
X25680268Y-18598177D01*
X25803110Y-18649060D01*
X25933518Y-18675000D01*
X26066482Y-18675000D01*
X26196890Y-18649060D01*
X26319732Y-18598177D01*
X26430287Y-18524307D01*
X26524307Y-18430287D01*
X26598177Y-18319732D01*
X26649060Y-18196890D01*
X26675000Y-18066482D01*
X26675000Y-17933518D01*
X26649060Y-17803110D01*
X26598177Y-17680268D01*
X26524307Y-17569713D01*
X26430287Y-17475693D01*
X26319732Y-17401823D01*
X26196890Y-17350940D01*
X26066482Y-17325000D01*
X25933518Y-17325000D01*
X25803110Y-17350940D01*
X25680268Y-17401823D01*
X25569713Y-17475693D01*
X25520406Y-17525000D01*
X21423332Y-17525000D01*
X21400000Y-17522702D01*
X21376668Y-17525000D01*
X21306884Y-17531873D01*
X21304567Y-17532576D01*
X21266482Y-17525000D01*
X21133518Y-17525000D01*
X21003110Y-17550940D01*
X20880268Y-17601823D01*
X20786814Y-17664267D01*
X20786814Y-15343000D01*
X20779574Y-15269487D01*
X20758131Y-15198800D01*
X20723309Y-15133653D01*
X20676448Y-15076552D01*
X20619347Y-15029691D01*
X20554200Y-14994869D01*
X20483513Y-14973426D01*
X20410000Y-14966186D01*
X19475000Y-14966186D01*
X19475000Y-14379594D01*
X19524307Y-14330287D01*
X19598177Y-14219732D01*
X19649060Y-14096890D01*
X19675000Y-13966482D01*
X19675000Y-13833518D01*
X19649060Y-13703110D01*
X19598177Y-13580268D01*
X19524307Y-13469713D01*
X19430287Y-13375693D01*
X19319732Y-13301823D01*
X19196890Y-13250940D01*
X19066482Y-13225000D01*
X18933518Y-13225000D01*
X18803110Y-13250940D01*
X18680268Y-13301823D01*
X18569713Y-13375693D01*
X18475693Y-13469713D01*
X18401823Y-13580268D01*
X18350940Y-13703110D01*
X18325000Y-13833518D01*
X17675000Y-13833518D01*
X17649060Y-13703110D01*
X17598177Y-13580268D01*
X17524307Y-13469713D01*
X17430287Y-13375693D01*
X17319732Y-13301823D01*
X17196890Y-13250940D01*
X17066482Y-13225000D01*
X16933518Y-13225000D01*
X16803110Y-13250940D01*
X16680268Y-13301823D01*
X16569713Y-13375693D01*
X16475693Y-13469713D01*
X16401823Y-13580268D01*
X16350940Y-13703110D01*
X16325000Y-13833518D01*
X16325000Y-13966482D01*
X16350940Y-14096890D01*
X16401823Y-14219732D01*
X16475693Y-14330287D01*
X16525000Y-14379594D01*
X16525000Y-14995296D01*
X16460653Y-15029691D01*
X16403552Y-15076552D01*
X16356691Y-15133653D01*
X16321869Y-15198800D01*
X16300426Y-15269487D01*
X16293186Y-15343000D01*
X15706814Y-15343000D01*
X15699574Y-15269487D01*
X15678131Y-15198800D01*
X15643309Y-15133653D01*
X15596448Y-15076552D01*
X15539347Y-15029691D01*
X15475000Y-14995297D01*
X15475000Y-14379594D01*
X15524307Y-14330287D01*
X15598177Y-14219732D01*
X15649060Y-14096890D01*
X15675000Y-13966482D01*
X15675000Y-13833518D01*
X15649060Y-13703110D01*
X15598177Y-13580268D01*
X15524307Y-13469713D01*
X15430287Y-13375693D01*
X15319732Y-13301823D01*
X15196890Y-13250940D01*
X15066482Y-13225000D01*
X14933518Y-13225000D01*
X14803110Y-13250940D01*
X14680268Y-13301823D01*
X14569713Y-13375693D01*
X14475693Y-13469713D01*
X14401823Y-13580268D01*
X14350940Y-13703110D01*
X14325000Y-13833518D01*
X14325000Y-13966482D01*
X14350940Y-14096890D01*
X14401823Y-14219732D01*
X14475693Y-14330287D01*
X14525000Y-14379594D01*
X14525000Y-14966186D01*
X14130000Y-14966186D01*
X14056487Y-14973426D01*
X13985800Y-14994869D01*
X13920653Y-15029691D01*
X13863552Y-15076552D01*
X13816691Y-15133653D01*
X13781869Y-15198800D01*
X13760426Y-15269487D01*
X13753186Y-15343000D01*
X13452994Y-15343000D01*
X13468127Y-15293116D01*
X13475000Y-15223332D01*
X13477298Y-15200000D01*
X13475000Y-15176668D01*
X13475000Y-14379594D01*
X13524307Y-14330287D01*
X13598177Y-14219732D01*
X13649060Y-14096890D01*
X13675000Y-13966482D01*
X13675000Y-13833518D01*
X13649060Y-13703110D01*
X13598177Y-13580268D01*
X13524307Y-13469713D01*
X13430287Y-13375693D01*
X13319732Y-13301823D01*
X13196890Y-13250940D01*
X13066482Y-13225000D01*
X12933518Y-13225000D01*
X12803110Y-13250940D01*
X12680268Y-13301823D01*
X12569713Y-13375693D01*
X12475693Y-13469713D01*
X12401823Y-13580268D01*
X12350940Y-13703110D01*
X12325000Y-13833518D01*
X12325000Y-13966482D01*
X12350940Y-14096890D01*
X12401823Y-14219732D01*
X12475693Y-14330287D01*
X12525000Y-14379594D01*
X12525001Y-14966186D01*
X11590000Y-14966186D01*
X11516487Y-14973426D01*
X11445800Y-14994869D01*
X11380653Y-15029691D01*
X11323552Y-15076552D01*
X11276691Y-15133653D01*
X11241869Y-15198800D01*
X11220426Y-15269487D01*
X11213186Y-15343000D01*
X4814752Y-15343000D01*
X4475000Y-15003249D01*
X4475000Y-14933518D01*
X4449060Y-14803110D01*
X4398177Y-14680268D01*
X4324307Y-14569713D01*
X4230287Y-14475693D01*
X4119732Y-14401823D01*
X3996890Y-14350940D01*
X3866482Y-14325000D01*
X3733518Y-14325000D01*
X3603110Y-14350940D01*
X3480268Y-14401823D01*
X3369713Y-14475693D01*
X3275693Y-14569713D01*
X3201823Y-14680268D01*
X3150940Y-14803110D01*
X3125000Y-14933518D01*
X3125000Y-15066482D01*
X3150940Y-15196890D01*
X3201823Y-15319732D01*
X3275693Y-15430287D01*
X3295406Y-15450000D01*
X3275693Y-15469713D01*
X3201823Y-15580268D01*
X3150940Y-15703110D01*
X3125000Y-15833518D01*
X3125000Y-15966482D01*
X3150940Y-16096890D01*
X3201823Y-16219732D01*
X3275693Y-16330287D01*
X3369713Y-16424307D01*
X3480268Y-16498177D01*
X3525000Y-16516706D01*
X3524999Y-23264669D01*
X3524999Y-23264670D01*
X3525001Y-25283335D01*
X3480198Y-25301893D01*
X3369643Y-25375763D01*
X3275623Y-25469783D01*
X3201753Y-25580338D01*
X3150870Y-25703180D01*
X3124930Y-25833588D01*
X450000Y-25833588D01*
X450000Y-22993518D01*
X575000Y-22993518D01*
X575000Y-23126482D01*
X600940Y-23256890D01*
X651823Y-23379732D01*
X725693Y-23490287D01*
X775000Y-23539594D01*
X775001Y-24370405D01*
X725693Y-24419713D01*
X651823Y-24530268D01*
X600940Y-24653110D01*
X575000Y-24783518D01*
X575000Y-24916482D01*
X600940Y-25046890D01*
X651823Y-25169732D01*
X725693Y-25280287D01*
X819713Y-25374307D01*
X930268Y-25448177D01*
X1053110Y-25499060D01*
X1183518Y-25525000D01*
X1316482Y-25525000D01*
X1446890Y-25499060D01*
X1569732Y-25448177D01*
X1680287Y-25374307D01*
X1774307Y-25280287D01*
X1848177Y-25169732D01*
X1899060Y-25046890D01*
X1925000Y-24916482D01*
X1925000Y-24783518D01*
X1899060Y-24653110D01*
X1848177Y-24530268D01*
X1774307Y-24419713D01*
X1725000Y-24370406D01*
X1725000Y-23539594D01*
X1774307Y-23490287D01*
X1848177Y-23379732D01*
X1899060Y-23256890D01*
X1925000Y-23126482D01*
X1925000Y-22993518D01*
X1899060Y-22863110D01*
X1848177Y-22740268D01*
X1774307Y-22629713D01*
X1680287Y-22535693D01*
X1569732Y-22461823D01*
X1446890Y-22410940D01*
X1316482Y-22385000D01*
X1183518Y-22385000D01*
X1053110Y-22410940D01*
X930268Y-22461823D01*
X819713Y-22535693D01*
X725693Y-22629713D01*
X651823Y-22740268D01*
X600940Y-22863110D01*
X575000Y-22993518D01*
X450000Y-22993518D01*
X450000Y-7200000D01*
X6823186Y-7200000D01*
X6830426Y-7273513D01*
X6851869Y-7344200D01*
X6886691Y-7409347D01*
X6933552Y-7466448D01*
X6990653Y-7513309D01*
X7055800Y-7548131D01*
X7126487Y-7569574D01*
X7163328Y-7573202D01*
X7150940Y-7603110D01*
X7125000Y-7733518D01*
X7125000Y-7866482D01*
X7150940Y-7996890D01*
X7201823Y-8119732D01*
X7275693Y-8230287D01*
X7325000Y-8279594D01*
X7325000Y-8423186D01*
X7200000Y-8423186D01*
X7126487Y-8430426D01*
X7055800Y-8451869D01*
X6990653Y-8486691D01*
X6933552Y-8533552D01*
X6886691Y-8590653D01*
X6851869Y-8655800D01*
X6830426Y-8726487D01*
X6823186Y-8800000D01*
X6823186Y-10400000D01*
X6830426Y-10473513D01*
X6851869Y-10544200D01*
X6886691Y-10609347D01*
X6933552Y-10666448D01*
X6990653Y-10713309D01*
X7055800Y-10748131D01*
X7126487Y-10769574D01*
X7200000Y-10776814D01*
X8100000Y-10776814D01*
X8173513Y-10769574D01*
X8244200Y-10748131D01*
X8309347Y-10713309D01*
X8366448Y-10666448D01*
X8413309Y-10609347D01*
X8448131Y-10544200D01*
X8469574Y-10473513D01*
X8476814Y-10400000D01*
X8476814Y-8800000D01*
X8469574Y-8726487D01*
X8448131Y-8655800D01*
X8413309Y-8590653D01*
X8366448Y-8533552D01*
X8309347Y-8486691D01*
X8275000Y-8468332D01*
X8275000Y-8279594D01*
X8324307Y-8230287D01*
X8398177Y-8119732D01*
X8400000Y-8115331D01*
X8401823Y-8119732D01*
X8475693Y-8230287D01*
X8525000Y-8279594D01*
X8525001Y-8781574D01*
X8523186Y-8800000D01*
X8523186Y-9195086D01*
X8522702Y-9200000D01*
X8523186Y-9204914D01*
X8523186Y-10400000D01*
X8530426Y-10473513D01*
X8551869Y-10544200D01*
X8586691Y-10609347D01*
X8633552Y-10666448D01*
X8690653Y-10713309D01*
X8755800Y-10748131D01*
X8826487Y-10769574D01*
X8900000Y-10776814D01*
X9800000Y-10776814D01*
X9873513Y-10769574D01*
X9944200Y-10748131D01*
X10009347Y-10713309D01*
X10066448Y-10666448D01*
X10113309Y-10609347D01*
X10148131Y-10544200D01*
X10169574Y-10473513D01*
X10176814Y-10400000D01*
X10176814Y-8800000D01*
X10169574Y-8726487D01*
X10148131Y-8655800D01*
X10113309Y-8590653D01*
X10066448Y-8533552D01*
X10009347Y-8486691D01*
X9944200Y-8451869D01*
X9873513Y-8430426D01*
X9800000Y-8423186D01*
X9475000Y-8423186D01*
X9475000Y-8279594D01*
X9524307Y-8230287D01*
X9598177Y-8119732D01*
X9649060Y-7996890D01*
X9675000Y-7866482D01*
X9675000Y-7733518D01*
X9649060Y-7603110D01*
X9637800Y-7575926D01*
X9800000Y-7576814D01*
X9873513Y-7569574D01*
X9944200Y-7548131D01*
X10009347Y-7513309D01*
X10066448Y-7466448D01*
X10113309Y-7409347D01*
X10148131Y-7344200D01*
X10169574Y-7273513D01*
X10176814Y-7200000D01*
X11823186Y-7200000D01*
X11830426Y-7273513D01*
X11851869Y-7344200D01*
X11886691Y-7409347D01*
X11933552Y-7466448D01*
X11990653Y-7513309D01*
X12055800Y-7548131D01*
X12126487Y-7569574D01*
X12200000Y-7576814D01*
X12362200Y-7575926D01*
X12350940Y-7603110D01*
X12325000Y-7733518D01*
X12325000Y-7866482D01*
X12350940Y-7996890D01*
X12401823Y-8119732D01*
X12475693Y-8230287D01*
X12525000Y-8279594D01*
X12525000Y-8423186D01*
X12200000Y-8423186D01*
X12126487Y-8430426D01*
X12055800Y-8451869D01*
X11990653Y-8486691D01*
X11933552Y-8533552D01*
X11886691Y-8590653D01*
X11851869Y-8655800D01*
X11830426Y-8726487D01*
X11823186Y-8800000D01*
X11823186Y-10400000D01*
X11830426Y-10473513D01*
X11851869Y-10544200D01*
X11886691Y-10609347D01*
X11933552Y-10666448D01*
X11990653Y-10713309D01*
X12055800Y-10748131D01*
X12126487Y-10769574D01*
X12200000Y-10776814D01*
X13100000Y-10776814D01*
X13173513Y-10769574D01*
X13244200Y-10748131D01*
X13309347Y-10713309D01*
X13366448Y-10666448D01*
X13413309Y-10609347D01*
X13448131Y-10544200D01*
X13469574Y-10473513D01*
X13476814Y-10400000D01*
X13476814Y-9154914D01*
X13477298Y-9150000D01*
X13476814Y-9145086D01*
X13476814Y-8800000D01*
X13475000Y-8781581D01*
X13475000Y-8279594D01*
X13500000Y-8254594D01*
X13525000Y-8279594D01*
X13525001Y-8781574D01*
X13523186Y-8800000D01*
X13523186Y-9195086D01*
X13522702Y-9200000D01*
X13523186Y-9204914D01*
X13523186Y-10400000D01*
X13530426Y-10473513D01*
X13551869Y-10544200D01*
X13586691Y-10609347D01*
X13633552Y-10666448D01*
X13690653Y-10713309D01*
X13755800Y-10748131D01*
X13826487Y-10769574D01*
X13900000Y-10776814D01*
X14800000Y-10776814D01*
X14873513Y-10769574D01*
X14944200Y-10748131D01*
X15009347Y-10713309D01*
X15066448Y-10666448D01*
X15113309Y-10609347D01*
X15148131Y-10544200D01*
X15169574Y-10473513D01*
X15176814Y-10400000D01*
X15176814Y-8800000D01*
X15169574Y-8726487D01*
X15148131Y-8655800D01*
X15113309Y-8590653D01*
X15066448Y-8533552D01*
X15009347Y-8486691D01*
X14944200Y-8451869D01*
X14873513Y-8430426D01*
X14800000Y-8423186D01*
X14475000Y-8423186D01*
X14475000Y-8279594D01*
X14524307Y-8230287D01*
X14598177Y-8119732D01*
X14649060Y-7996890D01*
X14675000Y-7866482D01*
X14675000Y-7733518D01*
X14649060Y-7603110D01*
X14637800Y-7575926D01*
X14800000Y-7576814D01*
X14873513Y-7569574D01*
X14944200Y-7548131D01*
X15009347Y-7513309D01*
X15066448Y-7466448D01*
X15113309Y-7409347D01*
X15148131Y-7344200D01*
X15169574Y-7273513D01*
X15176814Y-7200000D01*
X21823186Y-7200000D01*
X21830426Y-7273513D01*
X21851869Y-7344200D01*
X21886691Y-7409347D01*
X21933552Y-7466448D01*
X21990653Y-7513309D01*
X22055800Y-7548131D01*
X22126487Y-7569574D01*
X22163328Y-7573202D01*
X22150940Y-7603110D01*
X22125000Y-7733518D01*
X22125000Y-7866482D01*
X22150940Y-7996890D01*
X22201823Y-8119732D01*
X22275693Y-8230287D01*
X22325000Y-8279594D01*
X22325000Y-8423186D01*
X22200000Y-8423186D01*
X22126487Y-8430426D01*
X22055800Y-8451869D01*
X21990653Y-8486691D01*
X21933552Y-8533552D01*
X21886691Y-8590653D01*
X21851869Y-8655800D01*
X21830426Y-8726487D01*
X21823186Y-8800000D01*
X21823186Y-10400000D01*
X21830426Y-10473513D01*
X21851869Y-10544200D01*
X21886691Y-10609347D01*
X21933552Y-10666448D01*
X21990653Y-10713309D01*
X22055800Y-10748131D01*
X22126487Y-10769574D01*
X22200000Y-10776814D01*
X23100000Y-10776814D01*
X23173513Y-10769574D01*
X23244200Y-10748131D01*
X23309347Y-10713309D01*
X23366448Y-10666448D01*
X23413309Y-10609347D01*
X23448131Y-10544200D01*
X23469574Y-10473513D01*
X23476814Y-10400000D01*
X23476814Y-8800000D01*
X23469574Y-8726487D01*
X23448131Y-8655800D01*
X23413309Y-8590653D01*
X23366448Y-8533552D01*
X23309347Y-8486691D01*
X23275000Y-8468332D01*
X23275000Y-8279594D01*
X23324307Y-8230287D01*
X23398177Y-8119732D01*
X23400000Y-8115331D01*
X23401823Y-8119732D01*
X23475693Y-8230287D01*
X23525000Y-8279594D01*
X23525001Y-8781574D01*
X23523186Y-8800000D01*
X23523186Y-9195086D01*
X23522702Y-9200000D01*
X23523186Y-9204914D01*
X23523186Y-10400000D01*
X23530426Y-10473513D01*
X23551869Y-10544200D01*
X23586691Y-10609347D01*
X23633552Y-10666448D01*
X23690653Y-10713309D01*
X23755800Y-10748131D01*
X23826487Y-10769574D01*
X23900000Y-10776814D01*
X24800000Y-10776814D01*
X24873513Y-10769574D01*
X24944200Y-10748131D01*
X25009347Y-10713309D01*
X25066448Y-10666448D01*
X25113309Y-10609347D01*
X25148131Y-10544200D01*
X25169574Y-10473513D01*
X25176814Y-10400000D01*
X25176814Y-8800000D01*
X25169574Y-8726487D01*
X25148131Y-8655800D01*
X25113309Y-8590653D01*
X25066448Y-8533552D01*
X25009347Y-8486691D01*
X24944200Y-8451869D01*
X24873513Y-8430426D01*
X24800000Y-8423186D01*
X24475000Y-8423186D01*
X24475000Y-8279594D01*
X24524307Y-8230287D01*
X24598177Y-8119732D01*
X24649060Y-7996890D01*
X24675000Y-7866482D01*
X24675000Y-7733518D01*
X24649060Y-7603110D01*
X24637800Y-7575926D01*
X24800000Y-7576814D01*
X24873513Y-7569574D01*
X24944200Y-7548131D01*
X25009347Y-7513309D01*
X25066448Y-7466448D01*
X25113309Y-7409347D01*
X25148131Y-7344200D01*
X25169574Y-7273513D01*
X25176814Y-7200000D01*
X26823186Y-7200000D01*
X26830426Y-7273513D01*
X26851869Y-7344200D01*
X26886691Y-7409347D01*
X26933552Y-7466448D01*
X26990653Y-7513309D01*
X27055800Y-7548131D01*
X27126487Y-7569574D01*
X27200000Y-7576814D01*
X27362200Y-7575926D01*
X27350940Y-7603110D01*
X27325000Y-7733518D01*
X27325000Y-7866482D01*
X27350940Y-7996890D01*
X27401823Y-8119732D01*
X27475693Y-8230287D01*
X27525000Y-8279594D01*
X27525000Y-8423186D01*
X27200000Y-8423186D01*
X27126487Y-8430426D01*
X27055800Y-8451869D01*
X26990653Y-8486691D01*
X26933552Y-8533552D01*
X26886691Y-8590653D01*
X26851869Y-8655800D01*
X26830426Y-8726487D01*
X26823186Y-8800000D01*
X26823186Y-10400000D01*
X26830426Y-10473513D01*
X26851869Y-10544200D01*
X26886691Y-10609347D01*
X26933552Y-10666448D01*
X26990653Y-10713309D01*
X27055800Y-10748131D01*
X27126487Y-10769574D01*
X27200000Y-10776814D01*
X28100000Y-10776814D01*
X28173513Y-10769574D01*
X28244200Y-10748131D01*
X28309347Y-10713309D01*
X28366448Y-10666448D01*
X28413309Y-10609347D01*
X28448131Y-10544200D01*
X28469574Y-10473513D01*
X28476814Y-10400000D01*
X28476814Y-9154914D01*
X28477298Y-9150000D01*
X28476814Y-9145086D01*
X28476814Y-8800000D01*
X28475000Y-8781581D01*
X28475000Y-8279594D01*
X28500000Y-8254594D01*
X28525000Y-8279594D01*
X28525001Y-8781574D01*
X28523186Y-8800000D01*
X28523186Y-9195086D01*
X28522702Y-9200000D01*
X28523186Y-9204914D01*
X28523186Y-10400000D01*
X28530426Y-10473513D01*
X28551869Y-10544200D01*
X28586691Y-10609347D01*
X28633552Y-10666448D01*
X28690653Y-10713309D01*
X28755800Y-10748131D01*
X28826487Y-10769574D01*
X28900000Y-10776814D01*
X29800000Y-10776814D01*
X29873513Y-10769574D01*
X29944200Y-10748131D01*
X30009347Y-10713309D01*
X30066448Y-10666448D01*
X30113309Y-10609347D01*
X30148131Y-10544200D01*
X30169574Y-10473513D01*
X30176814Y-10400000D01*
X30176814Y-8800000D01*
X30169574Y-8726487D01*
X30148131Y-8655800D01*
X30113309Y-8590653D01*
X30066448Y-8533552D01*
X30009347Y-8486691D01*
X29944200Y-8451869D01*
X29873513Y-8430426D01*
X29800000Y-8423186D01*
X29475000Y-8423186D01*
X29475000Y-8279594D01*
X29524307Y-8230287D01*
X29598177Y-8119732D01*
X29649060Y-7996890D01*
X29675000Y-7866482D01*
X29675000Y-7733518D01*
X29649060Y-7603110D01*
X29637800Y-7575926D01*
X29800000Y-7576814D01*
X29873513Y-7569574D01*
X29944200Y-7548131D01*
X30009347Y-7513309D01*
X30066448Y-7466448D01*
X30113309Y-7409347D01*
X30148131Y-7344200D01*
X30169574Y-7273513D01*
X30176814Y-7200000D01*
X30175000Y-6518750D01*
X30081250Y-6425000D01*
X29375000Y-6425000D01*
X29375000Y-6445000D01*
X29325000Y-6445000D01*
X29325000Y-6425000D01*
X28618750Y-6425000D01*
X28525000Y-6518750D01*
X28523186Y-7200000D01*
X28530426Y-7273513D01*
X28540077Y-7305329D01*
X28500000Y-7345406D01*
X28459923Y-7305329D01*
X28469574Y-7273513D01*
X28476814Y-7200000D01*
X28475000Y-6518750D01*
X28381250Y-6425000D01*
X27675000Y-6425000D01*
X27675000Y-6445000D01*
X27625000Y-6445000D01*
X27625000Y-6425000D01*
X26918750Y-6425000D01*
X26825000Y-6518750D01*
X26823186Y-7200000D01*
X25176814Y-7200000D01*
X25175000Y-6518750D01*
X25081250Y-6425000D01*
X24375000Y-6425000D01*
X24375000Y-6445000D01*
X24325000Y-6445000D01*
X24325000Y-6425000D01*
X23618750Y-6425000D01*
X23525000Y-6518750D01*
X23523186Y-7200000D01*
X23530426Y-7273513D01*
X23540077Y-7305329D01*
X23475693Y-7369713D01*
X23401823Y-7480268D01*
X23400000Y-7484669D01*
X23398177Y-7480268D01*
X23378847Y-7451339D01*
X23413309Y-7409347D01*
X23448131Y-7344200D01*
X23469574Y-7273513D01*
X23476814Y-7200000D01*
X23475000Y-6518750D01*
X23381250Y-6425000D01*
X22675000Y-6425000D01*
X22675000Y-6445000D01*
X22625000Y-6445000D01*
X22625000Y-6425000D01*
X21918750Y-6425000D01*
X21825000Y-6518750D01*
X21823186Y-7200000D01*
X15176814Y-7200000D01*
X15175000Y-6518750D01*
X15081250Y-6425000D01*
X14375000Y-6425000D01*
X14375000Y-6445000D01*
X14325000Y-6445000D01*
X14325000Y-6425000D01*
X13618750Y-6425000D01*
X13525000Y-6518750D01*
X13523186Y-7200000D01*
X13530426Y-7273513D01*
X13540077Y-7305329D01*
X13500000Y-7345406D01*
X13459923Y-7305329D01*
X13469574Y-7273513D01*
X13476814Y-7200000D01*
X13475000Y-6518750D01*
X13381250Y-6425000D01*
X12675000Y-6425000D01*
X12675000Y-6445000D01*
X12625000Y-6445000D01*
X12625000Y-6425000D01*
X11918750Y-6425000D01*
X11825000Y-6518750D01*
X11823186Y-7200000D01*
X10176814Y-7200000D01*
X10175000Y-6518750D01*
X10081250Y-6425000D01*
X9375000Y-6425000D01*
X9375000Y-6445000D01*
X9325000Y-6445000D01*
X9325000Y-6425000D01*
X8618750Y-6425000D01*
X8525000Y-6518750D01*
X8523186Y-7200000D01*
X8530426Y-7273513D01*
X8540077Y-7305329D01*
X8475693Y-7369713D01*
X8401823Y-7480268D01*
X8400000Y-7484669D01*
X8398177Y-7480268D01*
X8378847Y-7451339D01*
X8413309Y-7409347D01*
X8448131Y-7344200D01*
X8469574Y-7273513D01*
X8476814Y-7200000D01*
X8475000Y-6518750D01*
X8381250Y-6425000D01*
X7675000Y-6425000D01*
X7675000Y-6445000D01*
X7625000Y-6445000D01*
X7625000Y-6425000D01*
X6918750Y-6425000D01*
X6825000Y-6518750D01*
X6823186Y-7200000D01*
X450000Y-7200000D01*
X450000Y-5600000D01*
X6823186Y-5600000D01*
X6825000Y-6281250D01*
X6918750Y-6375000D01*
X7625000Y-6375000D01*
X7625000Y-5318750D01*
X7675000Y-5318750D01*
X7675000Y-6375000D01*
X8381250Y-6375000D01*
X8475000Y-6281250D01*
X8476814Y-5600000D01*
X8523186Y-5600000D01*
X8525000Y-6281250D01*
X8618750Y-6375000D01*
X9325000Y-6375000D01*
X9325000Y-5318750D01*
X9375000Y-5318750D01*
X9375000Y-6375000D01*
X10081250Y-6375000D01*
X10175000Y-6281250D01*
X10176814Y-5600000D01*
X11823186Y-5600000D01*
X11825000Y-6281250D01*
X11918750Y-6375000D01*
X12625000Y-6375000D01*
X12625000Y-5318750D01*
X12675000Y-5318750D01*
X12675000Y-6375000D01*
X13381250Y-6375000D01*
X13475000Y-6281250D01*
X13476814Y-5600000D01*
X13523186Y-5600000D01*
X13525000Y-6281250D01*
X13618750Y-6375000D01*
X14325000Y-6375000D01*
X14325000Y-5318750D01*
X14375000Y-5318750D01*
X14375000Y-6375000D01*
X15081250Y-6375000D01*
X15175000Y-6281250D01*
X15176814Y-5600000D01*
X21823186Y-5600000D01*
X21825000Y-6281250D01*
X21918750Y-6375000D01*
X22625000Y-6375000D01*
X22625000Y-5318750D01*
X22675000Y-5318750D01*
X22675000Y-6375000D01*
X23381250Y-6375000D01*
X23475000Y-6281250D01*
X23476814Y-5600000D01*
X23523186Y-5600000D01*
X23525000Y-6281250D01*
X23618750Y-6375000D01*
X24325000Y-6375000D01*
X24325000Y-5318750D01*
X24375000Y-5318750D01*
X24375000Y-6375000D01*
X25081250Y-6375000D01*
X25175000Y-6281250D01*
X25176814Y-5600000D01*
X26823186Y-5600000D01*
X26825000Y-6281250D01*
X26918750Y-6375000D01*
X27625000Y-6375000D01*
X27625000Y-5318750D01*
X27675000Y-5318750D01*
X27675000Y-6375000D01*
X28381250Y-6375000D01*
X28475000Y-6281250D01*
X28476814Y-5600000D01*
X28523186Y-5600000D01*
X28525000Y-6281250D01*
X28618750Y-6375000D01*
X29325000Y-6375000D01*
X29325000Y-5318750D01*
X29375000Y-5318750D01*
X29375000Y-6375000D01*
X30081250Y-6375000D01*
X30175000Y-6281250D01*
X30176814Y-5600000D01*
X30169574Y-5526487D01*
X30148131Y-5455800D01*
X30113309Y-5390653D01*
X30066448Y-5333552D01*
X30009347Y-5286691D01*
X29944200Y-5251869D01*
X29873513Y-5230426D01*
X29800000Y-5223186D01*
X29468750Y-5225000D01*
X29375000Y-5318750D01*
X29325000Y-5318750D01*
X29231250Y-5225000D01*
X28900000Y-5223186D01*
X28826487Y-5230426D01*
X28755800Y-5251869D01*
X28690653Y-5286691D01*
X28633552Y-5333552D01*
X28586691Y-5390653D01*
X28551869Y-5455800D01*
X28530426Y-5526487D01*
X28523186Y-5600000D01*
X28476814Y-5600000D01*
X28469574Y-5526487D01*
X28448131Y-5455800D01*
X28413309Y-5390653D01*
X28366448Y-5333552D01*
X28309347Y-5286691D01*
X28244200Y-5251869D01*
X28173513Y-5230426D01*
X28100000Y-5223186D01*
X27768750Y-5225000D01*
X27675000Y-5318750D01*
X27625000Y-5318750D01*
X27531250Y-5225000D01*
X27200000Y-5223186D01*
X27126487Y-5230426D01*
X27055800Y-5251869D01*
X26990653Y-5286691D01*
X26933552Y-5333552D01*
X26886691Y-5390653D01*
X26851869Y-5455800D01*
X26830426Y-5526487D01*
X26823186Y-5600000D01*
X25176814Y-5600000D01*
X25169574Y-5526487D01*
X25148131Y-5455800D01*
X25113309Y-5390653D01*
X25066448Y-5333552D01*
X25009347Y-5286691D01*
X24944200Y-5251869D01*
X24873513Y-5230426D01*
X24800000Y-5223186D01*
X24468750Y-5225000D01*
X24375000Y-5318750D01*
X24325000Y-5318750D01*
X24231250Y-5225000D01*
X23900000Y-5223186D01*
X23826487Y-5230426D01*
X23755800Y-5251869D01*
X23690653Y-5286691D01*
X23633552Y-5333552D01*
X23586691Y-5390653D01*
X23551869Y-5455800D01*
X23530426Y-5526487D01*
X23523186Y-5600000D01*
X23476814Y-5600000D01*
X23469574Y-5526487D01*
X23448131Y-5455800D01*
X23413309Y-5390653D01*
X23366448Y-5333552D01*
X23309347Y-5286691D01*
X23244200Y-5251869D01*
X23173513Y-5230426D01*
X23100000Y-5223186D01*
X22768750Y-5225000D01*
X22675000Y-5318750D01*
X22625000Y-5318750D01*
X22531250Y-5225000D01*
X22200000Y-5223186D01*
X22126487Y-5230426D01*
X22055800Y-5251869D01*
X21990653Y-5286691D01*
X21933552Y-5333552D01*
X21886691Y-5390653D01*
X21851869Y-5455800D01*
X21830426Y-5526487D01*
X21823186Y-5600000D01*
X15176814Y-5600000D01*
X15169574Y-5526487D01*
X15148131Y-5455800D01*
X15113309Y-5390653D01*
X15066448Y-5333552D01*
X15009347Y-5286691D01*
X14944200Y-5251869D01*
X14873513Y-5230426D01*
X14800000Y-5223186D01*
X14468750Y-5225000D01*
X14375000Y-5318750D01*
X14325000Y-5318750D01*
X14231250Y-5225000D01*
X13900000Y-5223186D01*
X13826487Y-5230426D01*
X13755800Y-5251869D01*
X13690653Y-5286691D01*
X13633552Y-5333552D01*
X13586691Y-5390653D01*
X13551869Y-5455800D01*
X13530426Y-5526487D01*
X13523186Y-5600000D01*
X13476814Y-5600000D01*
X13469574Y-5526487D01*
X13448131Y-5455800D01*
X13413309Y-5390653D01*
X13366448Y-5333552D01*
X13309347Y-5286691D01*
X13244200Y-5251869D01*
X13173513Y-5230426D01*
X13100000Y-5223186D01*
X12768750Y-5225000D01*
X12675000Y-5318750D01*
X12625000Y-5318750D01*
X12531250Y-5225000D01*
X12200000Y-5223186D01*
X12126487Y-5230426D01*
X12055800Y-5251869D01*
X11990653Y-5286691D01*
X11933552Y-5333552D01*
X11886691Y-5390653D01*
X11851869Y-5455800D01*
X11830426Y-5526487D01*
X11823186Y-5600000D01*
X10176814Y-5600000D01*
X10169574Y-5526487D01*
X10148131Y-5455800D01*
X10113309Y-5390653D01*
X10066448Y-5333552D01*
X10009347Y-5286691D01*
X9944200Y-5251869D01*
X9873513Y-5230426D01*
X9800000Y-5223186D01*
X9468750Y-5225000D01*
X9375000Y-5318750D01*
X9325000Y-5318750D01*
X9231250Y-5225000D01*
X8900000Y-5223186D01*
X8826487Y-5230426D01*
X8755800Y-5251869D01*
X8690653Y-5286691D01*
X8633552Y-5333552D01*
X8586691Y-5390653D01*
X8551869Y-5455800D01*
X8530426Y-5526487D01*
X8523186Y-5600000D01*
X8476814Y-5600000D01*
X8469574Y-5526487D01*
X8448131Y-5455800D01*
X8413309Y-5390653D01*
X8366448Y-5333552D01*
X8309347Y-5286691D01*
X8244200Y-5251869D01*
X8173513Y-5230426D01*
X8100000Y-5223186D01*
X7768750Y-5225000D01*
X7675000Y-5318750D01*
X7625000Y-5318750D01*
X7531250Y-5225000D01*
X7200000Y-5223186D01*
X7126487Y-5230426D01*
X7055800Y-5251869D01*
X6990653Y-5286691D01*
X6933552Y-5333552D01*
X6886691Y-5390653D01*
X6851869Y-5455800D01*
X6830426Y-5526487D01*
X6823186Y-5600000D01*
X450000Y-5600000D01*
X450000Y-450000D01*
X1352747Y-450000D01*
X1356511Y-488215D01*
G04 #@! TA.AperFunction,Conductor*
D16*
G36*
X1356511Y-488215D02*
G01*
X1382243Y-573041D01*
X1424029Y-651216D01*
X1480263Y-719737D01*
X1548784Y-775971D01*
X1626959Y-817757D01*
X1711785Y-843489D01*
X1752867Y-847535D01*
X1800000Y-852177D01*
X1822104Y-850000D01*
X3377895Y-850000D01*
X3400000Y-852177D01*
X3422104Y-850000D01*
X3422105Y-850000D01*
X3488215Y-843489D01*
X3573041Y-817757D01*
X3651216Y-775971D01*
X3719737Y-719737D01*
X3775971Y-651216D01*
X3817757Y-573041D01*
X3843489Y-488215D01*
X3847253Y-450000D01*
X4950001Y-450000D01*
X4950000Y-1177895D01*
X4947823Y-1200000D01*
X4956511Y-1288215D01*
X4982243Y-1373041D01*
X5024029Y-1451216D01*
X5080263Y-1519737D01*
X5148784Y-1575971D01*
X5226959Y-1617757D01*
X5311785Y-1643489D01*
X5400000Y-1652177D01*
X5422104Y-1650000D01*
X8777896Y-1650000D01*
X8800000Y-1652177D01*
X8888215Y-1643489D01*
X8973041Y-1617757D01*
X9051216Y-1575971D01*
X9119737Y-1519737D01*
X9175971Y-1451216D01*
X9217757Y-1373041D01*
X9243489Y-1288215D01*
X9250000Y-1222105D01*
X9250000Y-1222104D01*
X9252177Y-1200000D01*
X9250000Y-1177895D01*
X9250000Y-450000D01*
X22750001Y-450000D01*
X22750000Y-1177895D01*
X22747823Y-1200000D01*
X22756511Y-1288215D01*
X22782243Y-1373041D01*
X22824029Y-1451216D01*
X22880263Y-1519737D01*
X22948784Y-1575971D01*
X23026959Y-1617757D01*
X23111785Y-1643489D01*
X23200000Y-1652177D01*
X23222104Y-1650000D01*
X26577896Y-1650000D01*
X26600000Y-1652177D01*
X26688215Y-1643489D01*
X26773041Y-1617757D01*
X26851216Y-1575971D01*
X26919737Y-1519737D01*
X26975971Y-1451216D01*
X27017757Y-1373041D01*
X27043489Y-1288215D01*
X27050000Y-1222105D01*
X27050000Y-1222104D01*
X27052177Y-1200000D01*
X27050000Y-1177895D01*
X27050000Y-450000D01*
X28152747Y-450000D01*
X28156511Y-488215D01*
X28182243Y-573041D01*
X28224029Y-651216D01*
X28280263Y-719737D01*
X28348784Y-775971D01*
X28426959Y-817757D01*
X28511785Y-843489D01*
X28552867Y-847535D01*
X28600000Y-852177D01*
X28622104Y-850000D01*
X30177895Y-850000D01*
X30200000Y-852177D01*
X30222104Y-850000D01*
X30222105Y-850000D01*
X30288215Y-843489D01*
X30373041Y-817757D01*
X30451216Y-775971D01*
X30519737Y-719737D01*
X30575971Y-651216D01*
X30617757Y-573041D01*
X30643489Y-488215D01*
X30647253Y-450000D01*
X31550001Y-450000D01*
X31550000Y-41550000D01*
X30647253Y-41550000D01*
X30645852Y-41535773D01*
X30643489Y-41511785D01*
X30617757Y-41426959D01*
X30575971Y-41348784D01*
X30519737Y-41280263D01*
X30518077Y-41278901D01*
X30451216Y-41224029D01*
X30373041Y-41182243D01*
X30288215Y-41156511D01*
X30222105Y-41150000D01*
X30222104Y-41150000D01*
X30200000Y-41147823D01*
X30177895Y-41150000D01*
X28622104Y-41150000D01*
X28600000Y-41147823D01*
X28577895Y-41150000D01*
X28511785Y-41156511D01*
X28426959Y-41182243D01*
X28348784Y-41224029D01*
X28280263Y-41280263D01*
X28224029Y-41348784D01*
X28182243Y-41426959D01*
X28156511Y-41511785D01*
X28152747Y-41550000D01*
X27050000Y-41550000D01*
X27050000Y-40822105D01*
X27052177Y-40800000D01*
X27043489Y-40711785D01*
X27017757Y-40626959D01*
X26975971Y-40548784D01*
X26919737Y-40480263D01*
X26851216Y-40424029D01*
X26773041Y-40382243D01*
X26688215Y-40356511D01*
X26622105Y-40350000D01*
X26622104Y-40350000D01*
X26600000Y-40347823D01*
X26577895Y-40350000D01*
X23222105Y-40350000D01*
X23200000Y-40347823D01*
X23177896Y-40350000D01*
X23177895Y-40350000D01*
X23111785Y-40356511D01*
X23026959Y-40382243D01*
X22948784Y-40424029D01*
X22880263Y-40480263D01*
X22824029Y-40548784D01*
X22782243Y-40626959D01*
X22756511Y-40711785D01*
X22747823Y-40800000D01*
X22750001Y-40822114D01*
X22750000Y-41550000D01*
X9250000Y-41550000D01*
X9250000Y-40822105D01*
X9252177Y-40800000D01*
X9243489Y-40711785D01*
X9217757Y-40626959D01*
X9175971Y-40548784D01*
X9119737Y-40480263D01*
X9051216Y-40424029D01*
X8973041Y-40382243D01*
X8888215Y-40356511D01*
X8822105Y-40350000D01*
X8822104Y-40350000D01*
X8800000Y-40347823D01*
X8777895Y-40350000D01*
X5422105Y-40350000D01*
X5400000Y-40347823D01*
X5377896Y-40350000D01*
X5377895Y-40350000D01*
X5311785Y-40356511D01*
X5226959Y-40382243D01*
X5148784Y-40424029D01*
X5080263Y-40480263D01*
X5024029Y-40548784D01*
X4982243Y-40626959D01*
X4956511Y-40711785D01*
X4947823Y-40800000D01*
X4950001Y-40822114D01*
X4950000Y-41550000D01*
X3847253Y-41550000D01*
X3845852Y-41535773D01*
X3843489Y-41511785D01*
X3817757Y-41426959D01*
X3775971Y-41348784D01*
X3719737Y-41280263D01*
X3718077Y-41278901D01*
X3651216Y-41224029D01*
X3573041Y-41182243D01*
X3488215Y-41156511D01*
X3422105Y-41150000D01*
X3422104Y-41150000D01*
X3400000Y-41147823D01*
X3377895Y-41150000D01*
X1822104Y-41150000D01*
X1800000Y-41147823D01*
X1777895Y-41150000D01*
X1711785Y-41156511D01*
X1626959Y-41182243D01*
X1548784Y-41224029D01*
X1480263Y-41280263D01*
X1424029Y-41348784D01*
X1382243Y-41426959D01*
X1356511Y-41511785D01*
X1352747Y-41550000D01*
X450000Y-41550000D01*
X450000Y-36400000D01*
X1823186Y-36400000D01*
X1830426Y-36473513D01*
X1851869Y-36544200D01*
X1886691Y-36609347D01*
X1933552Y-36666448D01*
X1990653Y-36713309D01*
X2055800Y-36748131D01*
X2126487Y-36769574D01*
X2200000Y-36776814D01*
X2531250Y-36775000D01*
X2625000Y-36681250D01*
X2625000Y-35625000D01*
X2675000Y-35625000D01*
X2675000Y-36681250D01*
X2768750Y-36775000D01*
X3100000Y-36776814D01*
X3173513Y-36769574D01*
X3244200Y-36748131D01*
X3309347Y-36713309D01*
X3366448Y-36666448D01*
X3413309Y-36609347D01*
X3448131Y-36544200D01*
X3469574Y-36473513D01*
X3476814Y-36400000D01*
X3523186Y-36400000D01*
X3530426Y-36473513D01*
X3551869Y-36544200D01*
X3586691Y-36609347D01*
X3633552Y-36666448D01*
X3690653Y-36713309D01*
X3755800Y-36748131D01*
X3826487Y-36769574D01*
X3900000Y-36776814D01*
X4231250Y-36775000D01*
X4325000Y-36681250D01*
X4325000Y-35625000D01*
X4375000Y-35625000D01*
X4375000Y-36681250D01*
X4468750Y-36775000D01*
X4800000Y-36776814D01*
X4873513Y-36769574D01*
X4944200Y-36748131D01*
X5009347Y-36713309D01*
X5066448Y-36666448D01*
X5113309Y-36609347D01*
X5148131Y-36544200D01*
X5169574Y-36473513D01*
X5176814Y-36400000D01*
X6823186Y-36400000D01*
X6830426Y-36473513D01*
X6851869Y-36544200D01*
X6886691Y-36609347D01*
X6933552Y-36666448D01*
X6990653Y-36713309D01*
X7055800Y-36748131D01*
X7126487Y-36769574D01*
X7200000Y-36776814D01*
X7531250Y-36775000D01*
X7625000Y-36681250D01*
X7625000Y-35625000D01*
X7675000Y-35625000D01*
X7675000Y-36681250D01*
X7768750Y-36775000D01*
X8100000Y-36776814D01*
X8173513Y-36769574D01*
X8244200Y-36748131D01*
X8309347Y-36713309D01*
X8366448Y-36666448D01*
X8413309Y-36609347D01*
X8448131Y-36544200D01*
X8469574Y-36473513D01*
X8476814Y-36400000D01*
X8523186Y-36400000D01*
X8530426Y-36473513D01*
X8551869Y-36544200D01*
X8586691Y-36609347D01*
X8633552Y-36666448D01*
X8690653Y-36713309D01*
X8755800Y-36748131D01*
X8826487Y-36769574D01*
X8900000Y-36776814D01*
X9231250Y-36775000D01*
X9325000Y-36681250D01*
X9325000Y-35625000D01*
X9375000Y-35625000D01*
X9375000Y-36681250D01*
X9468750Y-36775000D01*
X9800000Y-36776814D01*
X9873513Y-36769574D01*
X9944200Y-36748131D01*
X10009347Y-36713309D01*
X10066448Y-36666448D01*
X10113309Y-36609347D01*
X10148131Y-36544200D01*
X10169574Y-36473513D01*
X10176814Y-36400000D01*
X16823186Y-36400000D01*
X16830426Y-36473513D01*
X16851869Y-36544200D01*
X16886691Y-36609347D01*
X16933552Y-36666448D01*
X16990653Y-36713309D01*
X17055800Y-36748131D01*
X17126487Y-36769574D01*
X17200000Y-36776814D01*
X17531250Y-36775000D01*
X17625000Y-36681250D01*
X17625000Y-35625000D01*
X17675000Y-35625000D01*
X17675000Y-36681250D01*
X17768750Y-36775000D01*
X18100000Y-36776814D01*
X18173513Y-36769574D01*
X18244200Y-36748131D01*
X18309347Y-36713309D01*
X18366448Y-36666448D01*
X18413309Y-36609347D01*
X18448131Y-36544200D01*
X18469574Y-36473513D01*
X18476814Y-36400000D01*
X18523186Y-36400000D01*
X18530426Y-36473513D01*
X18551869Y-36544200D01*
X18586691Y-36609347D01*
X18633552Y-36666448D01*
X18690653Y-36713309D01*
X18755800Y-36748131D01*
X18826487Y-36769574D01*
X18900000Y-36776814D01*
X19231250Y-36775000D01*
X19325000Y-36681250D01*
X19325000Y-35625000D01*
X19375000Y-35625000D01*
X19375000Y-36681250D01*
X19468750Y-36775000D01*
X19800000Y-36776814D01*
X19873513Y-36769574D01*
X19944200Y-36748131D01*
X20009347Y-36713309D01*
X20066448Y-36666448D01*
X20113309Y-36609347D01*
X20148131Y-36544200D01*
X20169574Y-36473513D01*
X20176814Y-36400000D01*
X21823186Y-36400000D01*
X21830426Y-36473513D01*
X21851869Y-36544200D01*
X21886691Y-36609347D01*
X21933552Y-36666448D01*
X21990653Y-36713309D01*
X22055800Y-36748131D01*
X22126487Y-36769574D01*
X22200000Y-36776814D01*
X22531250Y-36775000D01*
X22625000Y-36681250D01*
X22625000Y-35625000D01*
X22675000Y-35625000D01*
X22675000Y-36681250D01*
X22768750Y-36775000D01*
X23100000Y-36776814D01*
X23173513Y-36769574D01*
X23244200Y-36748131D01*
X23309347Y-36713309D01*
X23366448Y-36666448D01*
X23413309Y-36609347D01*
X23448131Y-36544200D01*
X23469574Y-36473513D01*
X23476814Y-36400000D01*
X23523186Y-36400000D01*
X23530426Y-36473513D01*
X23551869Y-36544200D01*
X23586691Y-36609347D01*
X23633552Y-36666448D01*
X23690653Y-36713309D01*
X23755800Y-36748131D01*
X23826487Y-36769574D01*
X23900000Y-36776814D01*
X24231250Y-36775000D01*
X24325000Y-36681250D01*
X24325000Y-35625000D01*
X24375000Y-35625000D01*
X24375000Y-36681250D01*
X24468750Y-36775000D01*
X24800000Y-36776814D01*
X24873513Y-36769574D01*
X24944200Y-36748131D01*
X25009347Y-36713309D01*
X25066448Y-36666448D01*
X25113309Y-36609347D01*
X25148131Y-36544200D01*
X25169574Y-36473513D01*
X25176814Y-36400000D01*
X25175000Y-35718750D01*
X25081250Y-35625000D01*
X24375000Y-35625000D01*
X24325000Y-35625000D01*
X23618750Y-35625000D01*
X23525000Y-35718750D01*
X23523186Y-36400000D01*
X23476814Y-36400000D01*
X23475000Y-35718750D01*
X23381250Y-35625000D01*
X22675000Y-35625000D01*
X22625000Y-35625000D01*
X21918750Y-35625000D01*
X21825000Y-35718750D01*
X21823186Y-36400000D01*
X20176814Y-36400000D01*
X20175000Y-35718750D01*
X20081250Y-35625000D01*
X19375000Y-35625000D01*
X19325000Y-35625000D01*
X18618750Y-35625000D01*
X18525000Y-35718750D01*
X18523186Y-36400000D01*
X18476814Y-36400000D01*
X18475000Y-35718750D01*
X18381250Y-35625000D01*
X17675000Y-35625000D01*
X17625000Y-35625000D01*
X16918750Y-35625000D01*
X16825000Y-35718750D01*
X16823186Y-36400000D01*
X10176814Y-36400000D01*
X10175000Y-35718750D01*
X10081250Y-35625000D01*
X9375000Y-35625000D01*
X9325000Y-35625000D01*
X8618750Y-35625000D01*
X8525000Y-35718750D01*
X8523186Y-36400000D01*
X8476814Y-36400000D01*
X8475000Y-35718750D01*
X8381250Y-35625000D01*
X7675000Y-35625000D01*
X7625000Y-35625000D01*
X6918750Y-35625000D01*
X6825000Y-35718750D01*
X6823186Y-36400000D01*
X5176814Y-36400000D01*
X5175000Y-35718750D01*
X5081250Y-35625000D01*
X4375000Y-35625000D01*
X4325000Y-35625000D01*
X3618750Y-35625000D01*
X3525000Y-35718750D01*
X3523186Y-36400000D01*
X3476814Y-36400000D01*
X3475000Y-35718750D01*
X3381250Y-35625000D01*
X2675000Y-35625000D01*
X2625000Y-35625000D01*
X1918750Y-35625000D01*
X1825000Y-35718750D01*
X1823186Y-36400000D01*
X450000Y-36400000D01*
X450000Y-34800000D01*
X1823186Y-34800000D01*
X1825000Y-35481250D01*
X1918750Y-35575000D01*
X2625000Y-35575000D01*
X2625000Y-34518750D01*
X2675000Y-34518750D01*
X2675000Y-35575000D01*
X3381250Y-35575000D01*
X3475000Y-35481250D01*
X3476814Y-34800000D01*
X3523186Y-34800000D01*
X3525000Y-35481250D01*
X3618750Y-35575000D01*
X4325000Y-35575000D01*
X4325000Y-34518750D01*
X4375000Y-34518750D01*
X4375000Y-35575000D01*
X5081250Y-35575000D01*
X5175000Y-35481250D01*
X5176814Y-34800000D01*
X6823186Y-34800000D01*
X6825000Y-35481250D01*
X6918750Y-35575000D01*
X7625000Y-35575000D01*
X7625000Y-34518750D01*
X7675000Y-34518750D01*
X7675000Y-35575000D01*
X8381250Y-35575000D01*
X8475000Y-35481250D01*
X8476814Y-34800000D01*
X8523186Y-34800000D01*
X8525000Y-35481250D01*
X8618750Y-35575000D01*
X9325000Y-35575000D01*
X9325000Y-34518750D01*
X9375000Y-34518750D01*
X9375000Y-35575000D01*
X10081250Y-35575000D01*
X10175000Y-35481250D01*
X10176814Y-34800000D01*
X16823186Y-34800000D01*
X16825000Y-35481250D01*
X16918750Y-35575000D01*
X17625000Y-35575000D01*
X17625000Y-34518750D01*
X17675000Y-34518750D01*
X17675000Y-35575000D01*
X18381250Y-35575000D01*
X18475000Y-35481250D01*
X18476814Y-34800000D01*
X18523186Y-34800000D01*
X18525000Y-35481250D01*
X18618750Y-35575000D01*
X19325000Y-35575000D01*
X19325000Y-34518750D01*
X19375000Y-34518750D01*
X19375000Y-35575000D01*
X20081250Y-35575000D01*
X20175000Y-35481250D01*
X20176814Y-34800000D01*
X21823186Y-34800000D01*
X21825000Y-35481250D01*
X21918750Y-35575000D01*
X22625000Y-35575000D01*
X22625000Y-34518750D01*
X22675000Y-34518750D01*
X22675000Y-35575000D01*
X23381250Y-35575000D01*
X23475000Y-35481250D01*
X23476814Y-34800000D01*
X23523186Y-34800000D01*
X23525000Y-35481250D01*
X23618750Y-35575000D01*
X24325000Y-35575000D01*
X24325000Y-34518750D01*
X24375000Y-34518750D01*
X24375000Y-35575000D01*
X25081250Y-35575000D01*
X25175000Y-35481250D01*
X25176814Y-34800000D01*
X25169574Y-34726487D01*
X25148131Y-34655800D01*
X25113309Y-34590653D01*
X25066448Y-34533552D01*
X25009347Y-34486691D01*
X24944200Y-34451869D01*
X24873513Y-34430426D01*
X24800000Y-34423186D01*
X24468750Y-34425000D01*
X24375000Y-34518750D01*
X24325000Y-34518750D01*
X24231250Y-34425000D01*
X23900000Y-34423186D01*
X23826487Y-34430426D01*
X23755800Y-34451869D01*
X23690653Y-34486691D01*
X23633552Y-34533552D01*
X23586691Y-34590653D01*
X23551869Y-34655800D01*
X23530426Y-34726487D01*
X23523186Y-34800000D01*
X23476814Y-34800000D01*
X23469574Y-34726487D01*
X23448131Y-34655800D01*
X23413309Y-34590653D01*
X23366448Y-34533552D01*
X23309347Y-34486691D01*
X23244200Y-34451869D01*
X23173513Y-34430426D01*
X23100000Y-34423186D01*
X22768750Y-34425000D01*
X22675000Y-34518750D01*
X22625000Y-34518750D01*
X22531250Y-34425000D01*
X22200000Y-34423186D01*
X22126487Y-34430426D01*
X22055800Y-34451869D01*
X21990653Y-34486691D01*
X21933552Y-34533552D01*
X21886691Y-34590653D01*
X21851869Y-34655800D01*
X21830426Y-34726487D01*
X21823186Y-34800000D01*
X20176814Y-34800000D01*
X20169574Y-34726487D01*
X20148131Y-34655800D01*
X20113309Y-34590653D01*
X20066448Y-34533552D01*
X20009347Y-34486691D01*
X19944200Y-34451869D01*
X19873513Y-34430426D01*
X19800000Y-34423186D01*
X19468750Y-34425000D01*
X19375000Y-34518750D01*
X19325000Y-34518750D01*
X19231250Y-34425000D01*
X18900000Y-34423186D01*
X18826487Y-34430426D01*
X18755800Y-34451869D01*
X18690653Y-34486691D01*
X18633552Y-34533552D01*
X18586691Y-34590653D01*
X18551869Y-34655800D01*
X18530426Y-34726487D01*
X18523186Y-34800000D01*
X18476814Y-34800000D01*
X18469574Y-34726487D01*
X18448131Y-34655800D01*
X18413309Y-34590653D01*
X18366448Y-34533552D01*
X18309347Y-34486691D01*
X18244200Y-34451869D01*
X18173513Y-34430426D01*
X18100000Y-34423186D01*
X17768750Y-34425000D01*
X17675000Y-34518750D01*
X17625000Y-34518750D01*
X17531250Y-34425000D01*
X17200000Y-34423186D01*
X17126487Y-34430426D01*
X17055800Y-34451869D01*
X16990653Y-34486691D01*
X16933552Y-34533552D01*
X16886691Y-34590653D01*
X16851869Y-34655800D01*
X16830426Y-34726487D01*
X16823186Y-34800000D01*
X10176814Y-34800000D01*
X10169574Y-34726487D01*
X10148131Y-34655800D01*
X10113309Y-34590653D01*
X10066448Y-34533552D01*
X10009347Y-34486691D01*
X9944200Y-34451869D01*
X9873513Y-34430426D01*
X9800000Y-34423186D01*
X9468750Y-34425000D01*
X9375000Y-34518750D01*
X9325000Y-34518750D01*
X9231250Y-34425000D01*
X8900000Y-34423186D01*
X8826487Y-34430426D01*
X8755800Y-34451869D01*
X8690653Y-34486691D01*
X8633552Y-34533552D01*
X8586691Y-34590653D01*
X8551869Y-34655800D01*
X8530426Y-34726487D01*
X8523186Y-34800000D01*
X8476814Y-34800000D01*
X8469574Y-34726487D01*
X8448131Y-34655800D01*
X8413309Y-34590653D01*
X8366448Y-34533552D01*
X8309347Y-34486691D01*
X8244200Y-34451869D01*
X8173513Y-34430426D01*
X8100000Y-34423186D01*
X7768750Y-34425000D01*
X7675000Y-34518750D01*
X7625000Y-34518750D01*
X7531250Y-34425000D01*
X7200000Y-34423186D01*
X7126487Y-34430426D01*
X7055800Y-34451869D01*
X6990653Y-34486691D01*
X6933552Y-34533552D01*
X6886691Y-34590653D01*
X6851869Y-34655800D01*
X6830426Y-34726487D01*
X6823186Y-34800000D01*
X5176814Y-34800000D01*
X5169574Y-34726487D01*
X5148131Y-34655800D01*
X5113309Y-34590653D01*
X5066448Y-34533552D01*
X5009347Y-34486691D01*
X4944200Y-34451869D01*
X4873513Y-34430426D01*
X4800000Y-34423186D01*
X4468750Y-34425000D01*
X4375000Y-34518750D01*
X4325000Y-34518750D01*
X4231250Y-34425000D01*
X3900000Y-34423186D01*
X3826487Y-34430426D01*
X3755800Y-34451869D01*
X3690653Y-34486691D01*
X3633552Y-34533552D01*
X3586691Y-34590653D01*
X3551869Y-34655800D01*
X3530426Y-34726487D01*
X3523186Y-34800000D01*
X3476814Y-34800000D01*
X3469574Y-34726487D01*
X3448131Y-34655800D01*
X3413309Y-34590653D01*
X3366448Y-34533552D01*
X3309347Y-34486691D01*
X3244200Y-34451869D01*
X3173513Y-34430426D01*
X3100000Y-34423186D01*
X2768750Y-34425000D01*
X2675000Y-34518750D01*
X2625000Y-34518750D01*
X2531250Y-34425000D01*
X2200000Y-34423186D01*
X2126487Y-34430426D01*
X2055800Y-34451869D01*
X1990653Y-34486691D01*
X1933552Y-34533552D01*
X1886691Y-34590653D01*
X1851869Y-34655800D01*
X1830426Y-34726487D01*
X1823186Y-34800000D01*
X450000Y-34800000D01*
X450000Y-31600000D01*
X1823186Y-31600000D01*
X1823186Y-33200000D01*
X1830426Y-33273513D01*
X1851869Y-33344200D01*
X1886691Y-33409347D01*
X1933552Y-33466448D01*
X1975000Y-33500463D01*
X1975000Y-33616482D01*
X2000940Y-33746890D01*
X2051823Y-33869732D01*
X2125693Y-33980287D01*
X2219713Y-34074307D01*
X2330268Y-34148177D01*
X2453110Y-34199060D01*
X2583518Y-34225000D01*
X2716482Y-34225000D01*
X2846890Y-34199060D01*
X2969732Y-34148177D01*
X3080287Y-34074307D01*
X3174307Y-33980287D01*
X3248177Y-33869732D01*
X3299060Y-33746890D01*
X3325000Y-33616482D01*
X3325000Y-33500463D01*
X3366448Y-33466448D01*
X3413309Y-33409347D01*
X3448131Y-33344200D01*
X3469574Y-33273513D01*
X3476814Y-33200000D01*
X3476814Y-33163721D01*
X3523186Y-33172945D01*
X3523186Y-33200000D01*
X3530426Y-33273513D01*
X3551869Y-33344200D01*
X3586691Y-33409347D01*
X3633552Y-33466448D01*
X3690653Y-33513309D01*
X3755800Y-33548131D01*
X3826487Y-33569574D01*
X3900000Y-33576814D01*
X4800000Y-33576814D01*
X4873513Y-33569574D01*
X4944200Y-33548131D01*
X5009347Y-33513309D01*
X5066448Y-33466448D01*
X5113309Y-33409347D01*
X5148131Y-33344200D01*
X5169574Y-33273513D01*
X5176814Y-33200000D01*
X5176814Y-31600000D01*
X6823186Y-31600000D01*
X6823186Y-33200000D01*
X6830426Y-33273513D01*
X6851869Y-33344200D01*
X6886691Y-33409347D01*
X6933552Y-33466448D01*
X6990653Y-33513309D01*
X7055800Y-33548131D01*
X7126487Y-33569574D01*
X7200000Y-33576814D01*
X8100000Y-33576814D01*
X8173513Y-33569574D01*
X8244200Y-33548131D01*
X8309347Y-33513309D01*
X8366448Y-33466448D01*
X8413309Y-33409347D01*
X8448131Y-33344200D01*
X8469574Y-33273513D01*
X8476814Y-33200000D01*
X8476814Y-33122945D01*
X8523186Y-33113721D01*
X8523186Y-33200000D01*
X8530426Y-33273513D01*
X8551869Y-33344200D01*
X8586691Y-33409347D01*
X8633552Y-33466448D01*
X8680652Y-33505102D01*
X8675000Y-33533518D01*
X8675000Y-33666482D01*
X8700940Y-33796890D01*
X8751823Y-33919732D01*
X8825693Y-34030287D01*
X8919713Y-34124307D01*
X9030268Y-34198177D01*
X9153110Y-34249060D01*
X9283518Y-34275000D01*
X9416482Y-34275000D01*
X9546890Y-34249060D01*
X9669732Y-34198177D01*
X9780287Y-34124307D01*
X9874307Y-34030287D01*
X9948177Y-33919732D01*
X9999060Y-33796890D01*
X10025000Y-33666482D01*
X10025000Y-33533518D01*
X10019348Y-33505102D01*
X10066448Y-33466448D01*
X10113309Y-33409347D01*
X10148131Y-33344200D01*
X10169574Y-33273513D01*
X10176814Y-33200000D01*
X10176814Y-31600000D01*
X16823186Y-31600000D01*
X16823186Y-33200000D01*
X16830426Y-33273513D01*
X16851869Y-33344200D01*
X16886691Y-33409347D01*
X16933552Y-33466448D01*
X16975000Y-33500463D01*
X16975000Y-33616482D01*
X17000940Y-33746890D01*
X17051823Y-33869732D01*
X17125693Y-33980287D01*
X17219713Y-34074307D01*
X17330268Y-34148177D01*
X17453110Y-34199060D01*
X17583518Y-34225000D01*
X17716482Y-34225000D01*
X17846890Y-34199060D01*
X17969732Y-34148177D01*
X18080287Y-34074307D01*
X18174307Y-33980287D01*
X18248177Y-33869732D01*
X18299060Y-33746890D01*
X18325000Y-33616482D01*
X18325000Y-33500463D01*
X18366448Y-33466448D01*
X18413309Y-33409347D01*
X18448131Y-33344200D01*
X18469574Y-33273513D01*
X18476814Y-33200000D01*
X18476814Y-33163721D01*
X18523186Y-33172945D01*
X18523186Y-33200000D01*
X18530426Y-33273513D01*
X18551869Y-33344200D01*
X18586691Y-33409347D01*
X18633552Y-33466448D01*
X18690653Y-33513309D01*
X18755800Y-33548131D01*
X18826487Y-33569574D01*
X18900000Y-33576814D01*
X19800000Y-33576814D01*
X19873513Y-33569574D01*
X19944200Y-33548131D01*
X20009347Y-33513309D01*
X20066448Y-33466448D01*
X20113309Y-33409347D01*
X20148131Y-33344200D01*
X20169574Y-33273513D01*
X20176814Y-33200000D01*
X20176814Y-31600000D01*
X21823186Y-31600000D01*
X21823186Y-33200000D01*
X21830426Y-33273513D01*
X21851869Y-33344200D01*
X21886691Y-33409347D01*
X21933552Y-33466448D01*
X21990653Y-33513309D01*
X22055800Y-33548131D01*
X22126487Y-33569574D01*
X22200000Y-33576814D01*
X23100000Y-33576814D01*
X23173513Y-33569574D01*
X23244200Y-33548131D01*
X23309347Y-33513309D01*
X23366448Y-33466448D01*
X23413309Y-33409347D01*
X23448131Y-33344200D01*
X23469574Y-33273513D01*
X23476814Y-33200000D01*
X23476814Y-33122945D01*
X23523186Y-33113721D01*
X23523186Y-33200000D01*
X23530426Y-33273513D01*
X23551869Y-33344200D01*
X23586691Y-33409347D01*
X23633552Y-33466448D01*
X23680652Y-33505102D01*
X23675000Y-33533518D01*
X23675000Y-33666482D01*
X23700940Y-33796890D01*
X23751823Y-33919732D01*
X23825693Y-34030287D01*
X23919713Y-34124307D01*
X24030268Y-34198177D01*
X24153110Y-34249060D01*
X24283518Y-34275000D01*
X24416482Y-34275000D01*
X24546890Y-34249060D01*
X24669732Y-34198177D01*
X24780287Y-34124307D01*
X24874307Y-34030287D01*
X24948177Y-33919732D01*
X24999060Y-33796890D01*
X25025000Y-33666482D01*
X25025000Y-33533518D01*
X25019348Y-33505102D01*
X25066448Y-33466448D01*
X25113309Y-33409347D01*
X25148131Y-33344200D01*
X25169574Y-33273513D01*
X25176814Y-33200000D01*
X25176814Y-31600000D01*
X25169574Y-31526487D01*
X25148131Y-31455800D01*
X25113309Y-31390653D01*
X25066448Y-31333552D01*
X25009347Y-31286691D01*
X24944200Y-31251869D01*
X24873513Y-31230426D01*
X24800000Y-31223186D01*
X23900000Y-31223186D01*
X23826487Y-31230426D01*
X23755800Y-31251869D01*
X23690653Y-31286691D01*
X23633552Y-31333552D01*
X23586691Y-31390653D01*
X23551869Y-31455800D01*
X23530426Y-31526487D01*
X23523186Y-31600000D01*
X23523186Y-31786279D01*
X23476814Y-31777055D01*
X23476814Y-31600000D01*
X23469574Y-31526487D01*
X23448131Y-31455800D01*
X23413309Y-31390653D01*
X23366448Y-31333552D01*
X23309347Y-31286691D01*
X23244200Y-31251869D01*
X23173513Y-31230426D01*
X23100000Y-31223186D01*
X22200000Y-31223186D01*
X22126487Y-31230426D01*
X22055800Y-31251869D01*
X21990653Y-31286691D01*
X21933552Y-31333552D01*
X21886691Y-31390653D01*
X21851869Y-31455800D01*
X21830426Y-31526487D01*
X21823186Y-31600000D01*
X20176814Y-31600000D01*
X20169574Y-31526487D01*
X20148131Y-31455800D01*
X20113309Y-31390653D01*
X20066448Y-31333552D01*
X20009347Y-31286691D01*
X19944200Y-31251869D01*
X19873513Y-31230426D01*
X19800000Y-31223186D01*
X18900000Y-31223186D01*
X18826487Y-31230426D01*
X18755800Y-31251869D01*
X18690653Y-31286691D01*
X18633552Y-31333552D01*
X18586691Y-31390653D01*
X18551869Y-31455800D01*
X18530426Y-31526487D01*
X18523186Y-31600000D01*
X18523186Y-31827055D01*
X18476814Y-31836279D01*
X18476814Y-31600000D01*
X18469574Y-31526487D01*
X18448131Y-31455800D01*
X18413309Y-31390653D01*
X18366448Y-31333552D01*
X18309347Y-31286691D01*
X18244200Y-31251869D01*
X18173513Y-31230426D01*
X18100000Y-31223186D01*
X17200000Y-31223186D01*
X17126487Y-31230426D01*
X17055800Y-31251869D01*
X16990653Y-31286691D01*
X16933552Y-31333552D01*
X16886691Y-31390653D01*
X16851869Y-31455800D01*
X16830426Y-31526487D01*
X16823186Y-31600000D01*
X10176814Y-31600000D01*
X10169574Y-31526487D01*
X10148131Y-31455800D01*
X10113309Y-31390653D01*
X10066448Y-31333552D01*
X10009347Y-31286691D01*
X9944200Y-31251869D01*
X9873513Y-31230426D01*
X9800000Y-31223186D01*
X8900000Y-31223186D01*
X8826487Y-31230426D01*
X8755800Y-31251869D01*
X8690653Y-31286691D01*
X8633552Y-31333552D01*
X8586691Y-31390653D01*
X8551869Y-31455800D01*
X8530426Y-31526487D01*
X8523186Y-31600000D01*
X8523186Y-31786279D01*
X8476814Y-31777055D01*
X8476814Y-31600000D01*
X8469574Y-31526487D01*
X8448131Y-31455800D01*
X8413309Y-31390653D01*
X8366448Y-31333552D01*
X8309347Y-31286691D01*
X8244200Y-31251869D01*
X8173513Y-31230426D01*
X8100000Y-31223186D01*
X7200000Y-31223186D01*
X7126487Y-31230426D01*
X7055800Y-31251869D01*
X6990653Y-31286691D01*
X6933552Y-31333552D01*
X6886691Y-31390653D01*
X6851869Y-31455800D01*
X6830426Y-31526487D01*
X6823186Y-31600000D01*
X5176814Y-31600000D01*
X5169574Y-31526487D01*
X5148131Y-31455800D01*
X5113309Y-31390653D01*
X5066448Y-31333552D01*
X5009347Y-31286691D01*
X4944200Y-31251869D01*
X4873513Y-31230426D01*
X4800000Y-31223186D01*
X3900000Y-31223186D01*
X3826487Y-31230426D01*
X3755800Y-31251869D01*
X3690653Y-31286691D01*
X3633552Y-31333552D01*
X3586691Y-31390653D01*
X3551869Y-31455800D01*
X3530426Y-31526487D01*
X3523186Y-31600000D01*
X3523186Y-31827055D01*
X3476814Y-31836279D01*
X3476814Y-31600000D01*
X3469574Y-31526487D01*
X3448131Y-31455800D01*
X3413309Y-31390653D01*
X3366448Y-31333552D01*
X3309347Y-31286691D01*
X3244200Y-31251869D01*
X3173513Y-31230426D01*
X3100000Y-31223186D01*
X2200000Y-31223186D01*
X2126487Y-31230426D01*
X2055800Y-31251869D01*
X1990653Y-31286691D01*
X1933552Y-31333552D01*
X1886691Y-31390653D01*
X1851869Y-31455800D01*
X1830426Y-31526487D01*
X1823186Y-31600000D01*
X450000Y-31600000D01*
X450000Y-25833588D01*
X3124930Y-25833588D01*
X3124930Y-25966552D01*
X3150870Y-26096960D01*
X3201753Y-26219802D01*
X3275623Y-26330357D01*
X3345301Y-26400035D01*
X3275623Y-26469713D01*
X3201753Y-26580268D01*
X3150870Y-26703110D01*
X3124930Y-26833518D01*
X3124930Y-26966482D01*
X3150870Y-27096890D01*
X3201753Y-27219732D01*
X3275623Y-27330287D01*
X3369643Y-27424307D01*
X3480198Y-27498177D01*
X3603040Y-27549060D01*
X3607766Y-27550000D01*
X3603040Y-27550940D01*
X3480198Y-27601823D01*
X3369643Y-27675693D01*
X3275623Y-27769713D01*
X3201753Y-27880268D01*
X3150870Y-28003110D01*
X3124930Y-28133518D01*
X3124930Y-28266482D01*
X3150870Y-28396890D01*
X3201753Y-28519732D01*
X3275623Y-28630287D01*
X3369643Y-28724307D01*
X3480198Y-28798177D01*
X3603040Y-28849060D01*
X3733448Y-28875000D01*
X3866412Y-28875000D01*
X3996820Y-28849060D01*
X4119662Y-28798177D01*
X4230217Y-28724307D01*
X4324237Y-28630287D01*
X4398107Y-28519732D01*
X4448990Y-28396890D01*
X4474930Y-28266482D01*
X4474930Y-28196750D01*
X5519371Y-27152310D01*
X5537501Y-27137431D01*
X5596859Y-27065103D01*
X5640966Y-26982584D01*
X5668127Y-26893046D01*
X5675000Y-26823262D01*
X5677298Y-26799930D01*
X5675000Y-26776598D01*
X5675000Y-26657000D01*
X11213186Y-26657000D01*
X11220426Y-26730513D01*
X11241869Y-26801200D01*
X11276691Y-26866347D01*
X11323552Y-26923448D01*
X11380653Y-26970309D01*
X11445800Y-27005131D01*
X11516487Y-27026574D01*
X11590000Y-27033814D01*
X12071250Y-27032000D01*
X12165000Y-26938250D01*
X12165000Y-25432000D01*
X12215000Y-25432000D01*
X12215000Y-26938250D01*
X12308750Y-27032000D01*
X12790000Y-27033814D01*
X12863513Y-27026574D01*
X12934200Y-27005131D01*
X12999347Y-26970309D01*
X13056448Y-26923448D01*
X13103309Y-26866347D01*
X13138131Y-26801200D01*
X13159574Y-26730513D01*
X13166814Y-26657000D01*
X13753186Y-26657000D01*
X13760426Y-26730513D01*
X13781869Y-26801200D01*
X13816691Y-26866347D01*
X13863552Y-26923448D01*
X13920653Y-26970309D01*
X13985800Y-27005131D01*
X14056487Y-27026574D01*
X14130000Y-27033814D01*
X14611250Y-27032000D01*
X14705000Y-26938250D01*
X14705000Y-25432000D01*
X14755000Y-25432000D01*
X14755000Y-26938250D01*
X14848750Y-27032000D01*
X15330000Y-27033814D01*
X15403513Y-27026574D01*
X15474200Y-27005131D01*
X15539347Y-26970309D01*
X15596448Y-26923448D01*
X15643309Y-26866347D01*
X15678131Y-26801200D01*
X15699574Y-26730513D01*
X15706814Y-26657000D01*
X16293186Y-26657000D01*
X16300426Y-26730513D01*
X16321869Y-26801200D01*
X16356691Y-26866347D01*
X16403552Y-26923448D01*
X16460653Y-26970309D01*
X16525800Y-27005131D01*
X16596487Y-27026574D01*
X16670000Y-27033814D01*
X17151250Y-27032000D01*
X17245000Y-26938250D01*
X17245000Y-25432000D01*
X17295000Y-25432000D01*
X17295000Y-26938250D01*
X17388750Y-27032000D01*
X17870000Y-27033814D01*
X17943513Y-27026574D01*
X18014200Y-27005131D01*
X18079347Y-26970309D01*
X18136448Y-26923448D01*
X18183309Y-26866347D01*
X18218131Y-26801200D01*
X18239574Y-26730513D01*
X18246814Y-26657000D01*
X18833186Y-26657000D01*
X18840426Y-26730513D01*
X18861869Y-26801200D01*
X18896691Y-26866347D01*
X18943552Y-26923448D01*
X19000653Y-26970309D01*
X19065800Y-27005131D01*
X19136487Y-27026574D01*
X19210000Y-27033814D01*
X19691250Y-27032000D01*
X19785000Y-26938250D01*
X19785000Y-25432000D01*
X19835000Y-25432000D01*
X19835000Y-26938250D01*
X19928750Y-27032000D01*
X20410000Y-27033814D01*
X20483513Y-27026574D01*
X20554200Y-27005131D01*
X20619347Y-26970309D01*
X20676448Y-26923448D01*
X20723309Y-26866347D01*
X20758131Y-26801200D01*
X20779574Y-26730513D01*
X20786814Y-26657000D01*
X20785000Y-25525750D01*
X20691250Y-25432000D01*
X19835000Y-25432000D01*
X19785000Y-25432000D01*
X18928750Y-25432000D01*
X18835000Y-25525750D01*
X18833186Y-26657000D01*
X18246814Y-26657000D01*
X18245000Y-25525750D01*
X18151250Y-25432000D01*
X17295000Y-25432000D01*
X17245000Y-25432000D01*
X16388750Y-25432000D01*
X16295000Y-25525750D01*
X16293186Y-26657000D01*
X15706814Y-26657000D01*
X15705000Y-25525750D01*
X15611250Y-25432000D01*
X14755000Y-25432000D01*
X14705000Y-25432000D01*
X13848750Y-25432000D01*
X13755000Y-25525750D01*
X13753186Y-26657000D01*
X13166814Y-26657000D01*
X13165000Y-25525750D01*
X13071250Y-25432000D01*
X12215000Y-25432000D01*
X12165000Y-25432000D01*
X11308750Y-25432000D01*
X11215000Y-25525750D01*
X11213186Y-26657000D01*
X5675000Y-26657000D01*
X5675000Y-24157000D01*
X11213186Y-24157000D01*
X11215000Y-25288250D01*
X11308750Y-25382000D01*
X12165000Y-25382000D01*
X12165000Y-23875750D01*
X12215000Y-23875750D01*
X12215000Y-25382000D01*
X13071250Y-25382000D01*
X13165000Y-25288250D01*
X13166814Y-24157000D01*
X13753186Y-24157000D01*
X13755000Y-25288250D01*
X13848750Y-25382000D01*
X14705000Y-25382000D01*
X14705000Y-23875750D01*
X14755000Y-23875750D01*
X14755000Y-25382000D01*
X15611250Y-25382000D01*
X15705000Y-25288250D01*
X15706814Y-24157000D01*
X16293186Y-24157000D01*
X16295000Y-25288250D01*
X16388750Y-25382000D01*
X17245000Y-25382000D01*
X17245000Y-23875750D01*
X17295000Y-23875750D01*
X17295000Y-25382000D01*
X18151250Y-25382000D01*
X18245000Y-25288250D01*
X18246814Y-24157000D01*
X18833186Y-24157000D01*
X18835000Y-25288250D01*
X18928750Y-25382000D01*
X19785000Y-25382000D01*
X19785000Y-23875750D01*
X19835000Y-23875750D01*
X19835000Y-25382000D01*
X20691250Y-25382000D01*
X20785000Y-25288250D01*
X20786814Y-24157000D01*
X20779574Y-24083487D01*
X20758131Y-24012800D01*
X20723309Y-23947653D01*
X20676448Y-23890552D01*
X20619347Y-23843691D01*
X20554200Y-23808869D01*
X20483513Y-23787426D01*
X20410000Y-23780186D01*
X19928750Y-23782000D01*
X19835000Y-23875750D01*
X19785000Y-23875750D01*
X19691250Y-23782000D01*
X19210000Y-23780186D01*
X19136487Y-23787426D01*
X19065800Y-23808869D01*
X19000653Y-23843691D01*
X18943552Y-23890552D01*
X18896691Y-23947653D01*
X18861869Y-24012800D01*
X18840426Y-24083487D01*
X18833186Y-24157000D01*
X18246814Y-24157000D01*
X18239574Y-24083487D01*
X18218131Y-24012800D01*
X18183309Y-23947653D01*
X18136448Y-23890552D01*
X18079347Y-23843691D01*
X18014200Y-23808869D01*
X17943513Y-23787426D01*
X17870000Y-23780186D01*
X17388750Y-23782000D01*
X17295000Y-23875750D01*
X17245000Y-23875750D01*
X17151250Y-23782000D01*
X16670000Y-23780186D01*
X16596487Y-23787426D01*
X16525800Y-23808869D01*
X16460653Y-23843691D01*
X16403552Y-23890552D01*
X16356691Y-23947653D01*
X16321869Y-24012800D01*
X16300426Y-24083487D01*
X16293186Y-24157000D01*
X15706814Y-24157000D01*
X15699574Y-24083487D01*
X15678131Y-24012800D01*
X15643309Y-23947653D01*
X15596448Y-23890552D01*
X15539347Y-23843691D01*
X15474200Y-23808869D01*
X15403513Y-23787426D01*
X15330000Y-23780186D01*
X14848750Y-23782000D01*
X14755000Y-23875750D01*
X14705000Y-23875750D01*
X14611250Y-23782000D01*
X14130000Y-23780186D01*
X14056487Y-23787426D01*
X13985800Y-23808869D01*
X13920653Y-23843691D01*
X13863552Y-23890552D01*
X13816691Y-23947653D01*
X13781869Y-24012800D01*
X13760426Y-24083487D01*
X13753186Y-24157000D01*
X13166814Y-24157000D01*
X13159574Y-24083487D01*
X13138131Y-24012800D01*
X13103309Y-23947653D01*
X13056448Y-23890552D01*
X12999347Y-23843691D01*
X12934200Y-23808869D01*
X12863513Y-23787426D01*
X12790000Y-23780186D01*
X12308750Y-23782000D01*
X12215000Y-23875750D01*
X12165000Y-23875750D01*
X12071250Y-23782000D01*
X11590000Y-23780186D01*
X11516487Y-23787426D01*
X11445800Y-23808869D01*
X11380653Y-23843691D01*
X11323552Y-23890552D01*
X11276691Y-23947653D01*
X11241869Y-24012800D01*
X11220426Y-24083487D01*
X11213186Y-24157000D01*
X5675000Y-24157000D01*
X5675000Y-20196750D01*
X5796750Y-20075000D01*
X5866482Y-20075000D01*
X5996890Y-20049060D01*
X6119732Y-19998177D01*
X6230287Y-19924307D01*
X6324307Y-19830287D01*
X6398177Y-19719732D01*
X6449060Y-19596890D01*
X6475000Y-19466482D01*
X6475000Y-19333518D01*
X12525000Y-19333518D01*
X12525000Y-19466482D01*
X12550940Y-19596890D01*
X12601823Y-19719732D01*
X12675693Y-19830287D01*
X12725001Y-19879595D01*
X12725000Y-22320406D01*
X12675693Y-22369713D01*
X12601823Y-22480268D01*
X12550940Y-22603110D01*
X12525000Y-22733518D01*
X12525000Y-22866482D01*
X12550940Y-22996890D01*
X12601823Y-23119732D01*
X12675693Y-23230287D01*
X12769713Y-23324307D01*
X12880268Y-23398177D01*
X13003110Y-23449060D01*
X13133518Y-23475000D01*
X13266482Y-23475000D01*
X13396890Y-23449060D01*
X13519732Y-23398177D01*
X13630287Y-23324307D01*
X13724307Y-23230287D01*
X13798177Y-23119732D01*
X13849060Y-22996890D01*
X13875000Y-22866482D01*
X13875000Y-22733518D01*
X13849060Y-22603110D01*
X13798177Y-22480268D01*
X13724307Y-22369713D01*
X13675000Y-22320406D01*
X13675000Y-19879594D01*
X13724307Y-19830287D01*
X13798177Y-19719732D01*
X13849060Y-19596890D01*
X13875000Y-19466482D01*
X13875000Y-19333518D01*
X13849060Y-19203110D01*
X13798177Y-19080268D01*
X13724307Y-18969713D01*
X13630287Y-18875693D01*
X13519732Y-18801823D01*
X13396890Y-18750940D01*
X13266482Y-18725000D01*
X13133518Y-18725000D01*
X13003110Y-18750940D01*
X12880268Y-18801823D01*
X12769713Y-18875693D01*
X12675693Y-18969713D01*
X12601823Y-19080268D01*
X12550940Y-19203110D01*
X12525000Y-19333518D01*
X6475000Y-19333518D01*
X6449060Y-19203110D01*
X6398177Y-19080268D01*
X6324307Y-18969713D01*
X6230287Y-18875693D01*
X6119732Y-18801823D01*
X5996890Y-18750940D01*
X5866482Y-18725000D01*
X5733518Y-18725000D01*
X5603110Y-18750940D01*
X5480268Y-18801823D01*
X5369713Y-18875693D01*
X5275693Y-18969713D01*
X5201823Y-19080268D01*
X5150940Y-19203110D01*
X5125000Y-19333518D01*
X5125000Y-19403250D01*
X5075000Y-19453250D01*
X5075000Y-15823332D01*
X5077298Y-15800000D01*
X5068127Y-15706884D01*
X5040966Y-15617345D01*
X5025602Y-15588602D01*
X4996859Y-15534827D01*
X4937501Y-15462499D01*
X4919377Y-15447625D01*
X4814752Y-15343000D01*
X11213186Y-15343000D01*
X11213186Y-17843000D01*
X11220426Y-17916513D01*
X11241869Y-17987200D01*
X11276691Y-18052347D01*
X11323552Y-18109448D01*
X11380653Y-18156309D01*
X11445800Y-18191131D01*
X11516487Y-18212574D01*
X11590000Y-18219814D01*
X12790000Y-18219814D01*
X12863513Y-18212574D01*
X12934200Y-18191131D01*
X12999347Y-18156309D01*
X13056448Y-18109448D01*
X13103309Y-18052347D01*
X13138131Y-17987200D01*
X13159574Y-17916513D01*
X13166814Y-17843000D01*
X13166814Y-15704937D01*
X13319371Y-15552380D01*
X13337501Y-15537501D01*
X13396859Y-15465173D01*
X13440966Y-15382654D01*
X13452994Y-15343000D01*
X13753186Y-15343000D01*
X13753186Y-17843000D01*
X13760426Y-17916513D01*
X13781869Y-17987200D01*
X13816691Y-18052347D01*
X13863552Y-18109448D01*
X13920653Y-18156309D01*
X13985800Y-18191131D01*
X14056487Y-18212574D01*
X14130000Y-18219814D01*
X15330000Y-18219814D01*
X15403513Y-18212574D01*
X15474200Y-18191131D01*
X15539347Y-18156309D01*
X15596448Y-18109448D01*
X15643309Y-18052347D01*
X15678131Y-17987200D01*
X15699574Y-17916513D01*
X15706814Y-17843000D01*
X15706814Y-15343000D01*
X16293186Y-15343000D01*
X16293186Y-17843000D01*
X16300426Y-17916513D01*
X16321869Y-17987200D01*
X16356691Y-18052347D01*
X16403552Y-18109448D01*
X16460653Y-18156309D01*
X16525800Y-18191131D01*
X16596487Y-18212574D01*
X16670000Y-18219814D01*
X17870000Y-18219814D01*
X17943513Y-18212574D01*
X18014200Y-18191131D01*
X18079347Y-18156309D01*
X18136448Y-18109448D01*
X18183309Y-18052347D01*
X18218131Y-17987200D01*
X18239574Y-17916513D01*
X18246814Y-17843000D01*
X18246814Y-15343000D01*
X18239574Y-15269487D01*
X18218131Y-15198800D01*
X18183309Y-15133653D01*
X18136448Y-15076552D01*
X18079347Y-15029691D01*
X18014200Y-14994869D01*
X17943513Y-14973426D01*
X17870000Y-14966186D01*
X17475000Y-14966186D01*
X17475000Y-14379594D01*
X17524307Y-14330287D01*
X17598177Y-14219732D01*
X17649060Y-14096890D01*
X17675000Y-13966482D01*
X17675000Y-13833518D01*
X18325000Y-13833518D01*
X18325000Y-13966482D01*
X18350940Y-14096890D01*
X18401823Y-14219732D01*
X18475693Y-14330287D01*
X18525000Y-14379594D01*
X18525001Y-15176658D01*
X18522702Y-15200000D01*
X18531873Y-15293116D01*
X18547006Y-15343000D01*
X18559035Y-15382654D01*
X18603142Y-15465173D01*
X18662500Y-15537501D01*
X18680629Y-15552379D01*
X18833186Y-15704936D01*
X18833186Y-17843000D01*
X18840426Y-17916513D01*
X18861869Y-17987200D01*
X18896691Y-18052347D01*
X18943552Y-18109448D01*
X19000653Y-18156309D01*
X19065800Y-18191131D01*
X19136487Y-18212574D01*
X19210000Y-18219814D01*
X20410000Y-18219814D01*
X20483513Y-18212574D01*
X20525000Y-18199989D01*
X20525000Y-18266482D01*
X20550940Y-18396890D01*
X20601823Y-18519732D01*
X20675693Y-18630287D01*
X20769713Y-18724307D01*
X20880268Y-18798177D01*
X21003110Y-18849060D01*
X21133518Y-18875000D01*
X21266482Y-18875000D01*
X21396890Y-18849060D01*
X21519732Y-18798177D01*
X21630287Y-18724307D01*
X21724307Y-18630287D01*
X21798177Y-18519732D01*
X21816706Y-18475000D01*
X22136640Y-18475000D01*
X22125000Y-18533518D01*
X22125000Y-18666482D01*
X22150940Y-18796890D01*
X22201823Y-18919732D01*
X22255456Y-19000000D01*
X22201823Y-19080268D01*
X22150940Y-19203110D01*
X22125000Y-19333518D01*
X22125000Y-19466482D01*
X22150940Y-19596890D01*
X22201823Y-19719732D01*
X22275693Y-19830287D01*
X22369713Y-19924307D01*
X22480268Y-19998177D01*
X22603110Y-20049060D01*
X22733518Y-20075000D01*
X22866482Y-20075000D01*
X22996890Y-20049060D01*
X23119732Y-19998177D01*
X23230287Y-19924307D01*
X23279594Y-19875000D01*
X24820406Y-19875000D01*
X24869713Y-19924307D01*
X24980268Y-19998177D01*
X25103110Y-20049060D01*
X25233518Y-20075000D01*
X25366482Y-20075000D01*
X25496890Y-20049060D01*
X25619732Y-19998177D01*
X25730287Y-19924307D01*
X25824307Y-19830287D01*
X25898177Y-19719732D01*
X25949060Y-19596890D01*
X25975000Y-19466482D01*
X25975000Y-19333518D01*
X25949060Y-19203110D01*
X25898177Y-19080268D01*
X25824307Y-18969713D01*
X25730287Y-18875693D01*
X25619732Y-18801823D01*
X25496890Y-18750940D01*
X25366482Y-18725000D01*
X25233518Y-18725000D01*
X25103110Y-18750940D01*
X24980268Y-18801823D01*
X24869713Y-18875693D01*
X24820406Y-18925000D01*
X24794657Y-18925000D01*
X24798177Y-18919732D01*
X24849060Y-18796890D01*
X24875000Y-18666482D01*
X24875000Y-18533518D01*
X24863360Y-18475000D01*
X25520406Y-18475000D01*
X25569713Y-18524307D01*
X25680268Y-18598177D01*
X25803110Y-18649060D01*
X25933518Y-18675000D01*
X26066482Y-18675000D01*
X26196890Y-18649060D01*
X26319732Y-18598177D01*
X26430287Y-18524307D01*
X26524307Y-18430287D01*
X26598177Y-18319732D01*
X26649060Y-18196890D01*
X26675000Y-18066482D01*
X26675000Y-17933518D01*
X26649060Y-17803110D01*
X26598177Y-17680268D01*
X26524307Y-17569713D01*
X26430287Y-17475693D01*
X26319732Y-17401823D01*
X26196890Y-17350940D01*
X26066482Y-17325000D01*
X25933518Y-17325000D01*
X25803110Y-17350940D01*
X25680268Y-17401823D01*
X25569713Y-17475693D01*
X25520406Y-17525000D01*
X21423332Y-17525000D01*
X21400000Y-17522702D01*
X21376668Y-17525000D01*
X21306884Y-17531873D01*
X21304567Y-17532576D01*
X21266482Y-17525000D01*
X21133518Y-17525000D01*
X21003110Y-17550940D01*
X20880268Y-17601823D01*
X20786814Y-17664267D01*
X20786814Y-15343000D01*
X20779574Y-15269487D01*
X20758131Y-15198800D01*
X20723309Y-15133653D01*
X20676448Y-15076552D01*
X20619347Y-15029691D01*
X20554200Y-14994869D01*
X20483513Y-14973426D01*
X20410000Y-14966186D01*
X19475000Y-14966186D01*
X19475000Y-14379594D01*
X19524307Y-14330287D01*
X19598177Y-14219732D01*
X19649060Y-14096890D01*
X19675000Y-13966482D01*
X19675000Y-13833518D01*
X19649060Y-13703110D01*
X19598177Y-13580268D01*
X19524307Y-13469713D01*
X19430287Y-13375693D01*
X19319732Y-13301823D01*
X19196890Y-13250940D01*
X19066482Y-13225000D01*
X18933518Y-13225000D01*
X18803110Y-13250940D01*
X18680268Y-13301823D01*
X18569713Y-13375693D01*
X18475693Y-13469713D01*
X18401823Y-13580268D01*
X18350940Y-13703110D01*
X18325000Y-13833518D01*
X17675000Y-13833518D01*
X17649060Y-13703110D01*
X17598177Y-13580268D01*
X17524307Y-13469713D01*
X17430287Y-13375693D01*
X17319732Y-13301823D01*
X17196890Y-13250940D01*
X17066482Y-13225000D01*
X16933518Y-13225000D01*
X16803110Y-13250940D01*
X16680268Y-13301823D01*
X16569713Y-13375693D01*
X16475693Y-13469713D01*
X16401823Y-13580268D01*
X16350940Y-13703110D01*
X16325000Y-13833518D01*
X16325000Y-13966482D01*
X16350940Y-14096890D01*
X16401823Y-14219732D01*
X16475693Y-14330287D01*
X16525000Y-14379594D01*
X16525000Y-14995296D01*
X16460653Y-15029691D01*
X16403552Y-15076552D01*
X16356691Y-15133653D01*
X16321869Y-15198800D01*
X16300426Y-15269487D01*
X16293186Y-15343000D01*
X15706814Y-15343000D01*
X15699574Y-15269487D01*
X15678131Y-15198800D01*
X15643309Y-15133653D01*
X15596448Y-15076552D01*
X15539347Y-15029691D01*
X15475000Y-14995297D01*
X15475000Y-14379594D01*
X15524307Y-14330287D01*
X15598177Y-14219732D01*
X15649060Y-14096890D01*
X15675000Y-13966482D01*
X15675000Y-13833518D01*
X15649060Y-13703110D01*
X15598177Y-13580268D01*
X15524307Y-13469713D01*
X15430287Y-13375693D01*
X15319732Y-13301823D01*
X15196890Y-13250940D01*
X15066482Y-13225000D01*
X14933518Y-13225000D01*
X14803110Y-13250940D01*
X14680268Y-13301823D01*
X14569713Y-13375693D01*
X14475693Y-13469713D01*
X14401823Y-13580268D01*
X14350940Y-13703110D01*
X14325000Y-13833518D01*
X14325000Y-13966482D01*
X14350940Y-14096890D01*
X14401823Y-14219732D01*
X14475693Y-14330287D01*
X14525000Y-14379594D01*
X14525000Y-14966186D01*
X14130000Y-14966186D01*
X14056487Y-14973426D01*
X13985800Y-14994869D01*
X13920653Y-15029691D01*
X13863552Y-15076552D01*
X13816691Y-15133653D01*
X13781869Y-15198800D01*
X13760426Y-15269487D01*
X13753186Y-15343000D01*
X13452994Y-15343000D01*
X13468127Y-15293116D01*
X13475000Y-15223332D01*
X13477298Y-15200000D01*
X13475000Y-15176668D01*
X13475000Y-14379594D01*
X13524307Y-14330287D01*
X13598177Y-14219732D01*
X13649060Y-14096890D01*
X13675000Y-13966482D01*
X13675000Y-13833518D01*
X13649060Y-13703110D01*
X13598177Y-13580268D01*
X13524307Y-13469713D01*
X13430287Y-13375693D01*
X13319732Y-13301823D01*
X13196890Y-13250940D01*
X13066482Y-13225000D01*
X12933518Y-13225000D01*
X12803110Y-13250940D01*
X12680268Y-13301823D01*
X12569713Y-13375693D01*
X12475693Y-13469713D01*
X12401823Y-13580268D01*
X12350940Y-13703110D01*
X12325000Y-13833518D01*
X12325000Y-13966482D01*
X12350940Y-14096890D01*
X12401823Y-14219732D01*
X12475693Y-14330287D01*
X12525000Y-14379594D01*
X12525001Y-14966186D01*
X11590000Y-14966186D01*
X11516487Y-14973426D01*
X11445800Y-14994869D01*
X11380653Y-15029691D01*
X11323552Y-15076552D01*
X11276691Y-15133653D01*
X11241869Y-15198800D01*
X11220426Y-15269487D01*
X11213186Y-15343000D01*
X4814752Y-15343000D01*
X4475000Y-15003249D01*
X4475000Y-14933518D01*
X4449060Y-14803110D01*
X4398177Y-14680268D01*
X4324307Y-14569713D01*
X4230287Y-14475693D01*
X4119732Y-14401823D01*
X3996890Y-14350940D01*
X3866482Y-14325000D01*
X3733518Y-14325000D01*
X3603110Y-14350940D01*
X3480268Y-14401823D01*
X3369713Y-14475693D01*
X3275693Y-14569713D01*
X3201823Y-14680268D01*
X3150940Y-14803110D01*
X3125000Y-14933518D01*
X3125000Y-15066482D01*
X3150940Y-15196890D01*
X3201823Y-15319732D01*
X3275693Y-15430287D01*
X3295406Y-15450000D01*
X3275693Y-15469713D01*
X3201823Y-15580268D01*
X3150940Y-15703110D01*
X3125000Y-15833518D01*
X3125000Y-15966482D01*
X3150940Y-16096890D01*
X3201823Y-16219732D01*
X3275693Y-16330287D01*
X3369713Y-16424307D01*
X3480268Y-16498177D01*
X3525000Y-16516706D01*
X3524999Y-23264669D01*
X3524999Y-23264670D01*
X3525001Y-25283335D01*
X3480198Y-25301893D01*
X3369643Y-25375763D01*
X3275623Y-25469783D01*
X3201753Y-25580338D01*
X3150870Y-25703180D01*
X3124930Y-25833588D01*
X450000Y-25833588D01*
X450000Y-22993518D01*
X575000Y-22993518D01*
X575000Y-23126482D01*
X600940Y-23256890D01*
X651823Y-23379732D01*
X725693Y-23490287D01*
X775000Y-23539594D01*
X775001Y-24370405D01*
X725693Y-24419713D01*
X651823Y-24530268D01*
X600940Y-24653110D01*
X575000Y-24783518D01*
X575000Y-24916482D01*
X600940Y-25046890D01*
X651823Y-25169732D01*
X725693Y-25280287D01*
X819713Y-25374307D01*
X930268Y-25448177D01*
X1053110Y-25499060D01*
X1183518Y-25525000D01*
X1316482Y-25525000D01*
X1446890Y-25499060D01*
X1569732Y-25448177D01*
X1680287Y-25374307D01*
X1774307Y-25280287D01*
X1848177Y-25169732D01*
X1899060Y-25046890D01*
X1925000Y-24916482D01*
X1925000Y-24783518D01*
X1899060Y-24653110D01*
X1848177Y-24530268D01*
X1774307Y-24419713D01*
X1725000Y-24370406D01*
X1725000Y-23539594D01*
X1774307Y-23490287D01*
X1848177Y-23379732D01*
X1899060Y-23256890D01*
X1925000Y-23126482D01*
X1925000Y-22993518D01*
X1899060Y-22863110D01*
X1848177Y-22740268D01*
X1774307Y-22629713D01*
X1680287Y-22535693D01*
X1569732Y-22461823D01*
X1446890Y-22410940D01*
X1316482Y-22385000D01*
X1183518Y-22385000D01*
X1053110Y-22410940D01*
X930268Y-22461823D01*
X819713Y-22535693D01*
X725693Y-22629713D01*
X651823Y-22740268D01*
X600940Y-22863110D01*
X575000Y-22993518D01*
X450000Y-22993518D01*
X450000Y-7200000D01*
X6823186Y-7200000D01*
X6830426Y-7273513D01*
X6851869Y-7344200D01*
X6886691Y-7409347D01*
X6933552Y-7466448D01*
X6990653Y-7513309D01*
X7055800Y-7548131D01*
X7126487Y-7569574D01*
X7163328Y-7573202D01*
X7150940Y-7603110D01*
X7125000Y-7733518D01*
X7125000Y-7866482D01*
X7150940Y-7996890D01*
X7201823Y-8119732D01*
X7275693Y-8230287D01*
X7325000Y-8279594D01*
X7325000Y-8423186D01*
X7200000Y-8423186D01*
X7126487Y-8430426D01*
X7055800Y-8451869D01*
X6990653Y-8486691D01*
X6933552Y-8533552D01*
X6886691Y-8590653D01*
X6851869Y-8655800D01*
X6830426Y-8726487D01*
X6823186Y-8800000D01*
X6823186Y-10400000D01*
X6830426Y-10473513D01*
X6851869Y-10544200D01*
X6886691Y-10609347D01*
X6933552Y-10666448D01*
X6990653Y-10713309D01*
X7055800Y-10748131D01*
X7126487Y-10769574D01*
X7200000Y-10776814D01*
X8100000Y-10776814D01*
X8173513Y-10769574D01*
X8244200Y-10748131D01*
X8309347Y-10713309D01*
X8366448Y-10666448D01*
X8413309Y-10609347D01*
X8448131Y-10544200D01*
X8469574Y-10473513D01*
X8476814Y-10400000D01*
X8476814Y-8800000D01*
X8469574Y-8726487D01*
X8448131Y-8655800D01*
X8413309Y-8590653D01*
X8366448Y-8533552D01*
X8309347Y-8486691D01*
X8275000Y-8468332D01*
X8275000Y-8279594D01*
X8324307Y-8230287D01*
X8398177Y-8119732D01*
X8400000Y-8115331D01*
X8401823Y-8119732D01*
X8475693Y-8230287D01*
X8525000Y-8279594D01*
X8525001Y-8781574D01*
X8523186Y-8800000D01*
X8523186Y-9195086D01*
X8522702Y-9200000D01*
X8523186Y-9204914D01*
X8523186Y-10400000D01*
X8530426Y-10473513D01*
X8551869Y-10544200D01*
X8586691Y-10609347D01*
X8633552Y-10666448D01*
X8690653Y-10713309D01*
X8755800Y-10748131D01*
X8826487Y-10769574D01*
X8900000Y-10776814D01*
X9800000Y-10776814D01*
X9873513Y-10769574D01*
X9944200Y-10748131D01*
X10009347Y-10713309D01*
X10066448Y-10666448D01*
X10113309Y-10609347D01*
X10148131Y-10544200D01*
X10169574Y-10473513D01*
X10176814Y-10400000D01*
X10176814Y-8800000D01*
X10169574Y-8726487D01*
X10148131Y-8655800D01*
X10113309Y-8590653D01*
X10066448Y-8533552D01*
X10009347Y-8486691D01*
X9944200Y-8451869D01*
X9873513Y-8430426D01*
X9800000Y-8423186D01*
X9475000Y-8423186D01*
X9475000Y-8279594D01*
X9524307Y-8230287D01*
X9598177Y-8119732D01*
X9649060Y-7996890D01*
X9675000Y-7866482D01*
X9675000Y-7733518D01*
X9649060Y-7603110D01*
X9637800Y-7575926D01*
X9800000Y-7576814D01*
X9873513Y-7569574D01*
X9944200Y-7548131D01*
X10009347Y-7513309D01*
X10066448Y-7466448D01*
X10113309Y-7409347D01*
X10148131Y-7344200D01*
X10169574Y-7273513D01*
X10176814Y-7200000D01*
X11823186Y-7200000D01*
X11830426Y-7273513D01*
X11851869Y-7344200D01*
X11886691Y-7409347D01*
X11933552Y-7466448D01*
X11990653Y-7513309D01*
X12055800Y-7548131D01*
X12126487Y-7569574D01*
X12200000Y-7576814D01*
X12362200Y-7575926D01*
X12350940Y-7603110D01*
X12325000Y-7733518D01*
X12325000Y-7866482D01*
X12350940Y-7996890D01*
X12401823Y-8119732D01*
X12475693Y-8230287D01*
X12525000Y-8279594D01*
X12525000Y-8423186D01*
X12200000Y-8423186D01*
X12126487Y-8430426D01*
X12055800Y-8451869D01*
X11990653Y-8486691D01*
X11933552Y-8533552D01*
X11886691Y-8590653D01*
X11851869Y-8655800D01*
X11830426Y-8726487D01*
X11823186Y-8800000D01*
X11823186Y-10400000D01*
X11830426Y-10473513D01*
X11851869Y-10544200D01*
X11886691Y-10609347D01*
X11933552Y-10666448D01*
X11990653Y-10713309D01*
X12055800Y-10748131D01*
X12126487Y-10769574D01*
X12200000Y-10776814D01*
X13100000Y-10776814D01*
X13173513Y-10769574D01*
X13244200Y-10748131D01*
X13309347Y-10713309D01*
X13366448Y-10666448D01*
X13413309Y-10609347D01*
X13448131Y-10544200D01*
X13469574Y-10473513D01*
X13476814Y-10400000D01*
X13476814Y-9154914D01*
X13477298Y-9150000D01*
X13476814Y-9145086D01*
X13476814Y-8800000D01*
X13475000Y-8781581D01*
X13475000Y-8279594D01*
X13500000Y-8254594D01*
X13525000Y-8279594D01*
X13525001Y-8781574D01*
X13523186Y-8800000D01*
X13523186Y-9195086D01*
X13522702Y-9200000D01*
X13523186Y-9204914D01*
X13523186Y-10400000D01*
X13530426Y-10473513D01*
X13551869Y-10544200D01*
X13586691Y-10609347D01*
X13633552Y-10666448D01*
X13690653Y-10713309D01*
X13755800Y-10748131D01*
X13826487Y-10769574D01*
X13900000Y-10776814D01*
X14800000Y-10776814D01*
X14873513Y-10769574D01*
X14944200Y-10748131D01*
X15009347Y-10713309D01*
X15066448Y-10666448D01*
X15113309Y-10609347D01*
X15148131Y-10544200D01*
X15169574Y-10473513D01*
X15176814Y-10400000D01*
X15176814Y-8800000D01*
X15169574Y-8726487D01*
X15148131Y-8655800D01*
X15113309Y-8590653D01*
X15066448Y-8533552D01*
X15009347Y-8486691D01*
X14944200Y-8451869D01*
X14873513Y-8430426D01*
X14800000Y-8423186D01*
X14475000Y-8423186D01*
X14475000Y-8279594D01*
X14524307Y-8230287D01*
X14598177Y-8119732D01*
X14649060Y-7996890D01*
X14675000Y-7866482D01*
X14675000Y-7733518D01*
X14649060Y-7603110D01*
X14637800Y-7575926D01*
X14800000Y-7576814D01*
X14873513Y-7569574D01*
X14944200Y-7548131D01*
X15009347Y-7513309D01*
X15066448Y-7466448D01*
X15113309Y-7409347D01*
X15148131Y-7344200D01*
X15169574Y-7273513D01*
X15176814Y-7200000D01*
X21823186Y-7200000D01*
X21830426Y-7273513D01*
X21851869Y-7344200D01*
X21886691Y-7409347D01*
X21933552Y-7466448D01*
X21990653Y-7513309D01*
X22055800Y-7548131D01*
X22126487Y-7569574D01*
X22163328Y-7573202D01*
X22150940Y-7603110D01*
X22125000Y-7733518D01*
X22125000Y-7866482D01*
X22150940Y-7996890D01*
X22201823Y-8119732D01*
X22275693Y-8230287D01*
X22325000Y-8279594D01*
X22325000Y-8423186D01*
X22200000Y-8423186D01*
X22126487Y-8430426D01*
X22055800Y-8451869D01*
X21990653Y-8486691D01*
X21933552Y-8533552D01*
X21886691Y-8590653D01*
X21851869Y-8655800D01*
X21830426Y-8726487D01*
X21823186Y-8800000D01*
X21823186Y-10400000D01*
X21830426Y-10473513D01*
X21851869Y-10544200D01*
X21886691Y-10609347D01*
X21933552Y-10666448D01*
X21990653Y-10713309D01*
X22055800Y-10748131D01*
X22126487Y-10769574D01*
X22200000Y-10776814D01*
X23100000Y-10776814D01*
X23173513Y-10769574D01*
X23244200Y-10748131D01*
X23309347Y-10713309D01*
X23366448Y-10666448D01*
X23413309Y-10609347D01*
X23448131Y-10544200D01*
X23469574Y-10473513D01*
X23476814Y-10400000D01*
X23476814Y-8800000D01*
X23469574Y-8726487D01*
X23448131Y-8655800D01*
X23413309Y-8590653D01*
X23366448Y-8533552D01*
X23309347Y-8486691D01*
X23275000Y-8468332D01*
X23275000Y-8279594D01*
X23324307Y-8230287D01*
X23398177Y-8119732D01*
X23400000Y-8115331D01*
X23401823Y-8119732D01*
X23475693Y-8230287D01*
X23525000Y-8279594D01*
X23525001Y-8781574D01*
X23523186Y-8800000D01*
X23523186Y-9195086D01*
X23522702Y-9200000D01*
X23523186Y-9204914D01*
X23523186Y-10400000D01*
X23530426Y-10473513D01*
X23551869Y-10544200D01*
X23586691Y-10609347D01*
X23633552Y-10666448D01*
X23690653Y-10713309D01*
X23755800Y-10748131D01*
X23826487Y-10769574D01*
X23900000Y-10776814D01*
X24800000Y-10776814D01*
X24873513Y-10769574D01*
X24944200Y-10748131D01*
X25009347Y-10713309D01*
X25066448Y-10666448D01*
X25113309Y-10609347D01*
X25148131Y-10544200D01*
X25169574Y-10473513D01*
X25176814Y-10400000D01*
X25176814Y-8800000D01*
X25169574Y-8726487D01*
X25148131Y-8655800D01*
X25113309Y-8590653D01*
X25066448Y-8533552D01*
X25009347Y-8486691D01*
X24944200Y-8451869D01*
X24873513Y-8430426D01*
X24800000Y-8423186D01*
X24475000Y-8423186D01*
X24475000Y-8279594D01*
X24524307Y-8230287D01*
X24598177Y-8119732D01*
X24649060Y-7996890D01*
X24675000Y-7866482D01*
X24675000Y-7733518D01*
X24649060Y-7603110D01*
X24637800Y-7575926D01*
X24800000Y-7576814D01*
X24873513Y-7569574D01*
X24944200Y-7548131D01*
X25009347Y-7513309D01*
X25066448Y-7466448D01*
X25113309Y-7409347D01*
X25148131Y-7344200D01*
X25169574Y-7273513D01*
X25176814Y-7200000D01*
X26823186Y-7200000D01*
X26830426Y-7273513D01*
X26851869Y-7344200D01*
X26886691Y-7409347D01*
X26933552Y-7466448D01*
X26990653Y-7513309D01*
X27055800Y-7548131D01*
X27126487Y-7569574D01*
X27200000Y-7576814D01*
X27362200Y-7575926D01*
X27350940Y-7603110D01*
X27325000Y-7733518D01*
X27325000Y-7866482D01*
X27350940Y-7996890D01*
X27401823Y-8119732D01*
X27475693Y-8230287D01*
X27525000Y-8279594D01*
X27525000Y-8423186D01*
X27200000Y-8423186D01*
X27126487Y-8430426D01*
X27055800Y-8451869D01*
X26990653Y-8486691D01*
X26933552Y-8533552D01*
X26886691Y-8590653D01*
X26851869Y-8655800D01*
X26830426Y-8726487D01*
X26823186Y-8800000D01*
X26823186Y-10400000D01*
X26830426Y-10473513D01*
X26851869Y-10544200D01*
X26886691Y-10609347D01*
X26933552Y-10666448D01*
X26990653Y-10713309D01*
X27055800Y-10748131D01*
X27126487Y-10769574D01*
X27200000Y-10776814D01*
X28100000Y-10776814D01*
X28173513Y-10769574D01*
X28244200Y-10748131D01*
X28309347Y-10713309D01*
X28366448Y-10666448D01*
X28413309Y-10609347D01*
X28448131Y-10544200D01*
X28469574Y-10473513D01*
X28476814Y-10400000D01*
X28476814Y-9154914D01*
X28477298Y-9150000D01*
X28476814Y-9145086D01*
X28476814Y-8800000D01*
X28475000Y-8781581D01*
X28475000Y-8279594D01*
X28500000Y-8254594D01*
X28525000Y-8279594D01*
X28525001Y-8781574D01*
X28523186Y-8800000D01*
X28523186Y-9195086D01*
X28522702Y-9200000D01*
X28523186Y-9204914D01*
X28523186Y-10400000D01*
X28530426Y-10473513D01*
X28551869Y-10544200D01*
X28586691Y-10609347D01*
X28633552Y-10666448D01*
X28690653Y-10713309D01*
X28755800Y-10748131D01*
X28826487Y-10769574D01*
X28900000Y-10776814D01*
X29800000Y-10776814D01*
X29873513Y-10769574D01*
X29944200Y-10748131D01*
X30009347Y-10713309D01*
X30066448Y-10666448D01*
X30113309Y-10609347D01*
X30148131Y-10544200D01*
X30169574Y-10473513D01*
X30176814Y-10400000D01*
X30176814Y-8800000D01*
X30169574Y-8726487D01*
X30148131Y-8655800D01*
X30113309Y-8590653D01*
X30066448Y-8533552D01*
X30009347Y-8486691D01*
X29944200Y-8451869D01*
X29873513Y-8430426D01*
X29800000Y-8423186D01*
X29475000Y-8423186D01*
X29475000Y-8279594D01*
X29524307Y-8230287D01*
X29598177Y-8119732D01*
X29649060Y-7996890D01*
X29675000Y-7866482D01*
X29675000Y-7733518D01*
X29649060Y-7603110D01*
X29637800Y-7575926D01*
X29800000Y-7576814D01*
X29873513Y-7569574D01*
X29944200Y-7548131D01*
X30009347Y-7513309D01*
X30066448Y-7466448D01*
X30113309Y-7409347D01*
X30148131Y-7344200D01*
X30169574Y-7273513D01*
X30176814Y-7200000D01*
X30175000Y-6518750D01*
X30081250Y-6425000D01*
X29375000Y-6425000D01*
X29375000Y-6445000D01*
X29325000Y-6445000D01*
X29325000Y-6425000D01*
X28618750Y-6425000D01*
X28525000Y-6518750D01*
X28523186Y-7200000D01*
X28530426Y-7273513D01*
X28540077Y-7305329D01*
X28500000Y-7345406D01*
X28459923Y-7305329D01*
X28469574Y-7273513D01*
X28476814Y-7200000D01*
X28475000Y-6518750D01*
X28381250Y-6425000D01*
X27675000Y-6425000D01*
X27675000Y-6445000D01*
X27625000Y-6445000D01*
X27625000Y-6425000D01*
X26918750Y-6425000D01*
X26825000Y-6518750D01*
X26823186Y-7200000D01*
X25176814Y-7200000D01*
X25175000Y-6518750D01*
X25081250Y-6425000D01*
X24375000Y-6425000D01*
X24375000Y-6445000D01*
X24325000Y-6445000D01*
X24325000Y-6425000D01*
X23618750Y-6425000D01*
X23525000Y-6518750D01*
X23523186Y-7200000D01*
X23530426Y-7273513D01*
X23540077Y-7305329D01*
X23475693Y-7369713D01*
X23401823Y-7480268D01*
X23400000Y-7484669D01*
X23398177Y-7480268D01*
X23378847Y-7451339D01*
X23413309Y-7409347D01*
X23448131Y-7344200D01*
X23469574Y-7273513D01*
X23476814Y-7200000D01*
X23475000Y-6518750D01*
X23381250Y-6425000D01*
X22675000Y-6425000D01*
X22675000Y-6445000D01*
X22625000Y-6445000D01*
X22625000Y-6425000D01*
X21918750Y-6425000D01*
X21825000Y-6518750D01*
X21823186Y-7200000D01*
X15176814Y-7200000D01*
X15175000Y-6518750D01*
X15081250Y-6425000D01*
X14375000Y-6425000D01*
X14375000Y-6445000D01*
X14325000Y-6445000D01*
X14325000Y-6425000D01*
X13618750Y-6425000D01*
X13525000Y-6518750D01*
X13523186Y-7200000D01*
X13530426Y-7273513D01*
X13540077Y-7305329D01*
X13500000Y-7345406D01*
X13459923Y-7305329D01*
X13469574Y-7273513D01*
X13476814Y-7200000D01*
X13475000Y-6518750D01*
X13381250Y-6425000D01*
X12675000Y-6425000D01*
X12675000Y-6445000D01*
X12625000Y-6445000D01*
X12625000Y-6425000D01*
X11918750Y-6425000D01*
X11825000Y-6518750D01*
X11823186Y-7200000D01*
X10176814Y-7200000D01*
X10175000Y-6518750D01*
X10081250Y-6425000D01*
X9375000Y-6425000D01*
X9375000Y-6445000D01*
X9325000Y-6445000D01*
X9325000Y-6425000D01*
X8618750Y-6425000D01*
X8525000Y-6518750D01*
X8523186Y-7200000D01*
X8530426Y-7273513D01*
X8540077Y-7305329D01*
X8475693Y-7369713D01*
X8401823Y-7480268D01*
X8400000Y-7484669D01*
X8398177Y-7480268D01*
X8378847Y-7451339D01*
X8413309Y-7409347D01*
X8448131Y-7344200D01*
X8469574Y-7273513D01*
X8476814Y-7200000D01*
X8475000Y-6518750D01*
X8381250Y-6425000D01*
X7675000Y-6425000D01*
X7675000Y-6445000D01*
X7625000Y-6445000D01*
X7625000Y-6425000D01*
X6918750Y-6425000D01*
X6825000Y-6518750D01*
X6823186Y-7200000D01*
X450000Y-7200000D01*
X450000Y-5600000D01*
X6823186Y-5600000D01*
X6825000Y-6281250D01*
X6918750Y-6375000D01*
X7625000Y-6375000D01*
X7625000Y-5318750D01*
X7675000Y-5318750D01*
X7675000Y-6375000D01*
X8381250Y-6375000D01*
X8475000Y-6281250D01*
X8476814Y-5600000D01*
X8523186Y-5600000D01*
X8525000Y-6281250D01*
X8618750Y-6375000D01*
X9325000Y-6375000D01*
X9325000Y-5318750D01*
X9375000Y-5318750D01*
X9375000Y-6375000D01*
X10081250Y-6375000D01*
X10175000Y-6281250D01*
X10176814Y-5600000D01*
X11823186Y-5600000D01*
X11825000Y-6281250D01*
X11918750Y-6375000D01*
X12625000Y-6375000D01*
X12625000Y-5318750D01*
X12675000Y-5318750D01*
X12675000Y-6375000D01*
X13381250Y-6375000D01*
X13475000Y-6281250D01*
X13476814Y-5600000D01*
X13523186Y-5600000D01*
X13525000Y-6281250D01*
X13618750Y-6375000D01*
X14325000Y-6375000D01*
X14325000Y-5318750D01*
X14375000Y-5318750D01*
X14375000Y-6375000D01*
X15081250Y-6375000D01*
X15175000Y-6281250D01*
X15176814Y-5600000D01*
X21823186Y-5600000D01*
X21825000Y-6281250D01*
X21918750Y-6375000D01*
X22625000Y-6375000D01*
X22625000Y-5318750D01*
X22675000Y-5318750D01*
X22675000Y-6375000D01*
X23381250Y-6375000D01*
X23475000Y-6281250D01*
X23476814Y-5600000D01*
X23523186Y-5600000D01*
X23525000Y-6281250D01*
X23618750Y-6375000D01*
X24325000Y-6375000D01*
X24325000Y-5318750D01*
X24375000Y-5318750D01*
X24375000Y-6375000D01*
X25081250Y-6375000D01*
X25175000Y-6281250D01*
X25176814Y-5600000D01*
X26823186Y-5600000D01*
X26825000Y-6281250D01*
X26918750Y-6375000D01*
X27625000Y-6375000D01*
X27625000Y-5318750D01*
X27675000Y-5318750D01*
X27675000Y-6375000D01*
X28381250Y-6375000D01*
X28475000Y-6281250D01*
X28476814Y-5600000D01*
X28523186Y-5600000D01*
X28525000Y-6281250D01*
X28618750Y-6375000D01*
X29325000Y-6375000D01*
X29325000Y-5318750D01*
X29375000Y-5318750D01*
X29375000Y-6375000D01*
X30081250Y-6375000D01*
X30175000Y-6281250D01*
X30176814Y-5600000D01*
X30169574Y-5526487D01*
X30148131Y-5455800D01*
X30113309Y-5390653D01*
X30066448Y-5333552D01*
X30009347Y-5286691D01*
X29944200Y-5251869D01*
X29873513Y-5230426D01*
X29800000Y-5223186D01*
X29468750Y-5225000D01*
X29375000Y-5318750D01*
X29325000Y-5318750D01*
X29231250Y-5225000D01*
X28900000Y-5223186D01*
X28826487Y-5230426D01*
X28755800Y-5251869D01*
X28690653Y-5286691D01*
X28633552Y-5333552D01*
X28586691Y-5390653D01*
X28551869Y-5455800D01*
X28530426Y-5526487D01*
X28523186Y-5600000D01*
X28476814Y-5600000D01*
X28469574Y-5526487D01*
X28448131Y-5455800D01*
X28413309Y-5390653D01*
X28366448Y-5333552D01*
X28309347Y-5286691D01*
X28244200Y-5251869D01*
X28173513Y-5230426D01*
X28100000Y-5223186D01*
X27768750Y-5225000D01*
X27675000Y-5318750D01*
X27625000Y-5318750D01*
X27531250Y-5225000D01*
X27200000Y-5223186D01*
X27126487Y-5230426D01*
X27055800Y-5251869D01*
X26990653Y-5286691D01*
X26933552Y-5333552D01*
X26886691Y-5390653D01*
X26851869Y-5455800D01*
X26830426Y-5526487D01*
X26823186Y-5600000D01*
X25176814Y-5600000D01*
X25169574Y-5526487D01*
X25148131Y-5455800D01*
X25113309Y-5390653D01*
X25066448Y-5333552D01*
X25009347Y-5286691D01*
X24944200Y-5251869D01*
X24873513Y-5230426D01*
X24800000Y-5223186D01*
X24468750Y-5225000D01*
X24375000Y-5318750D01*
X24325000Y-5318750D01*
X24231250Y-5225000D01*
X23900000Y-5223186D01*
X23826487Y-5230426D01*
X23755800Y-5251869D01*
X23690653Y-5286691D01*
X23633552Y-5333552D01*
X23586691Y-5390653D01*
X23551869Y-5455800D01*
X23530426Y-5526487D01*
X23523186Y-5600000D01*
X23476814Y-5600000D01*
X23469574Y-5526487D01*
X23448131Y-5455800D01*
X23413309Y-5390653D01*
X23366448Y-5333552D01*
X23309347Y-5286691D01*
X23244200Y-5251869D01*
X23173513Y-5230426D01*
X23100000Y-5223186D01*
X22768750Y-5225000D01*
X22675000Y-5318750D01*
X22625000Y-5318750D01*
X22531250Y-5225000D01*
X22200000Y-5223186D01*
X22126487Y-5230426D01*
X22055800Y-5251869D01*
X21990653Y-5286691D01*
X21933552Y-5333552D01*
X21886691Y-5390653D01*
X21851869Y-5455800D01*
X21830426Y-5526487D01*
X21823186Y-5600000D01*
X15176814Y-5600000D01*
X15169574Y-5526487D01*
X15148131Y-5455800D01*
X15113309Y-5390653D01*
X15066448Y-5333552D01*
X15009347Y-5286691D01*
X14944200Y-5251869D01*
X14873513Y-5230426D01*
X14800000Y-5223186D01*
X14468750Y-5225000D01*
X14375000Y-5318750D01*
X14325000Y-5318750D01*
X14231250Y-5225000D01*
X13900000Y-5223186D01*
X13826487Y-5230426D01*
X13755800Y-5251869D01*
X13690653Y-5286691D01*
X13633552Y-5333552D01*
X13586691Y-5390653D01*
X13551869Y-5455800D01*
X13530426Y-5526487D01*
X13523186Y-5600000D01*
X13476814Y-5600000D01*
X13469574Y-5526487D01*
X13448131Y-5455800D01*
X13413309Y-5390653D01*
X13366448Y-5333552D01*
X13309347Y-5286691D01*
X13244200Y-5251869D01*
X13173513Y-5230426D01*
X13100000Y-5223186D01*
X12768750Y-5225000D01*
X12675000Y-5318750D01*
X12625000Y-5318750D01*
X12531250Y-5225000D01*
X12200000Y-5223186D01*
X12126487Y-5230426D01*
X12055800Y-5251869D01*
X11990653Y-5286691D01*
X11933552Y-5333552D01*
X11886691Y-5390653D01*
X11851869Y-5455800D01*
X11830426Y-5526487D01*
X11823186Y-5600000D01*
X10176814Y-5600000D01*
X10169574Y-5526487D01*
X10148131Y-5455800D01*
X10113309Y-5390653D01*
X10066448Y-5333552D01*
X10009347Y-5286691D01*
X9944200Y-5251869D01*
X9873513Y-5230426D01*
X9800000Y-5223186D01*
X9468750Y-5225000D01*
X9375000Y-5318750D01*
X9325000Y-5318750D01*
X9231250Y-5225000D01*
X8900000Y-5223186D01*
X8826487Y-5230426D01*
X8755800Y-5251869D01*
X8690653Y-5286691D01*
X8633552Y-5333552D01*
X8586691Y-5390653D01*
X8551869Y-5455800D01*
X8530426Y-5526487D01*
X8523186Y-5600000D01*
X8476814Y-5600000D01*
X8469574Y-5526487D01*
X8448131Y-5455800D01*
X8413309Y-5390653D01*
X8366448Y-5333552D01*
X8309347Y-5286691D01*
X8244200Y-5251869D01*
X8173513Y-5230426D01*
X8100000Y-5223186D01*
X7768750Y-5225000D01*
X7675000Y-5318750D01*
X7625000Y-5318750D01*
X7531250Y-5225000D01*
X7200000Y-5223186D01*
X7126487Y-5230426D01*
X7055800Y-5251869D01*
X6990653Y-5286691D01*
X6933552Y-5333552D01*
X6886691Y-5390653D01*
X6851869Y-5455800D01*
X6830426Y-5526487D01*
X6823186Y-5600000D01*
X450000Y-5600000D01*
X450000Y-450000D01*
X1352747Y-450000D01*
X1356511Y-488215D01*
G37*
G04 #@! TD.AperFunction*
M02*
