G04 #@! TF.GenerationSoftware,KiCad,Pcbnew,(5.1.9)-1*
G04 #@! TF.CreationDate,2023-02-02T22:46:09+01:00*
G04 #@! TF.ProjectId,Leds,4c656473-2e6b-4696-9361-645f70636258,rev?*
G04 #@! TF.SameCoordinates,PXd59f80PYd59f80*
G04 #@! TF.FileFunction,Legend,Bot*
G04 #@! TF.FilePolarity,Positive*
%FSLAX46Y46*%
G04 Gerber Fmt 4.6, Leading zero omitted, Abs format (unit mm)*
G04 Created by KiCad (PCBNEW (5.1.9)-1) date 2023-02-02 22:46:09*
%MOMM*%
%LPD*%
G01*
G04 APERTURE LIST*
%ADD10C,0.060000*%
%ADD11C,0.150000*%
%ADD12C,0.100000*%
%ADD13C,0.280000*%
%ADD14C,0.200000*%
%ADD15C,0.070000*%
%ADD16C,0.030000*%
%ADD17R,1.000000X0.700000*%
%ADD18R,1.800000X1.000000*%
%ADD19R,1.800000X0.600000*%
%ADD20R,1.500000X0.400000*%
%ADD21R,0.400000X1.100000*%
G04 APERTURE END LIST*
D10*
X12600000Y-11700000D02*
X13400000Y-11700000D01*
X12600000Y-13300000D02*
X12600000Y-11700000D01*
X13400000Y-13300000D02*
X12600000Y-13300000D01*
X13400000Y-11700000D02*
X13400000Y-13300000D01*
X12600000Y-13000000D02*
X13400000Y-13000000D01*
X12600000Y-12000000D02*
X13400000Y-12000000D01*
X12600000Y-13050000D02*
X13400000Y-13050000D01*
X13400000Y-13250000D02*
X12600000Y-13250000D01*
X13400000Y-13200000D02*
X12600000Y-13200000D01*
X12600000Y-13150000D02*
X13400000Y-13150000D01*
X13400000Y-13100000D02*
X12600000Y-13100000D01*
X13400000Y-11800000D02*
X12600000Y-11800000D01*
X12600000Y-11850000D02*
X13400000Y-11850000D01*
X13400000Y-11900000D02*
X12600000Y-11900000D01*
X13400000Y-11950000D02*
X12600000Y-11950000D01*
X12600000Y-11750000D02*
X13400000Y-11750000D01*
X12600000Y-11700000D02*
X13400000Y-11700000D01*
X13400000Y-12000000D02*
X12600000Y-12000000D01*
X14600000Y-11700000D02*
X15400000Y-11700000D01*
X14600000Y-13300000D02*
X14600000Y-11700000D01*
X15400000Y-13300000D02*
X14600000Y-13300000D01*
X15400000Y-11700000D02*
X15400000Y-13300000D01*
X14600000Y-13000000D02*
X15400000Y-13000000D01*
X14600000Y-12000000D02*
X15400000Y-12000000D01*
X14600000Y-13050000D02*
X15400000Y-13050000D01*
X15400000Y-13250000D02*
X14600000Y-13250000D01*
X15400000Y-13200000D02*
X14600000Y-13200000D01*
X14600000Y-13150000D02*
X15400000Y-13150000D01*
X15400000Y-13100000D02*
X14600000Y-13100000D01*
X15400000Y-11800000D02*
X14600000Y-11800000D01*
X14600000Y-11850000D02*
X15400000Y-11850000D01*
X15400000Y-11900000D02*
X14600000Y-11900000D01*
X15400000Y-11950000D02*
X14600000Y-11950000D01*
X14600000Y-11750000D02*
X15400000Y-11750000D01*
X14600000Y-11700000D02*
X15400000Y-11700000D01*
X15400000Y-12000000D02*
X14600000Y-12000000D01*
X16600000Y-11700000D02*
X17400000Y-11700000D01*
X16600000Y-13300000D02*
X16600000Y-11700000D01*
X17400000Y-13300000D02*
X16600000Y-13300000D01*
X17400000Y-11700000D02*
X17400000Y-13300000D01*
X16600000Y-13000000D02*
X17400000Y-13000000D01*
X16600000Y-12000000D02*
X17400000Y-12000000D01*
X16600000Y-13050000D02*
X17400000Y-13050000D01*
X17400000Y-13250000D02*
X16600000Y-13250000D01*
X17400000Y-13200000D02*
X16600000Y-13200000D01*
X16600000Y-13150000D02*
X17400000Y-13150000D01*
X17400000Y-13100000D02*
X16600000Y-13100000D01*
X17400000Y-11800000D02*
X16600000Y-11800000D01*
X16600000Y-11850000D02*
X17400000Y-11850000D01*
X17400000Y-11900000D02*
X16600000Y-11900000D01*
X17400000Y-11950000D02*
X16600000Y-11950000D01*
X16600000Y-11750000D02*
X17400000Y-11750000D01*
X16600000Y-11700000D02*
X17400000Y-11700000D01*
X17400000Y-12000000D02*
X16600000Y-12000000D01*
X18600000Y-11700000D02*
X19400000Y-11700000D01*
X18600000Y-13300000D02*
X18600000Y-11700000D01*
X19400000Y-13300000D02*
X18600000Y-13300000D01*
X19400000Y-11700000D02*
X19400000Y-13300000D01*
X18600000Y-13000000D02*
X19400000Y-13000000D01*
X18600000Y-12000000D02*
X19400000Y-12000000D01*
X18600000Y-13050000D02*
X19400000Y-13050000D01*
X19400000Y-13250000D02*
X18600000Y-13250000D01*
X19400000Y-13200000D02*
X18600000Y-13200000D01*
X18600000Y-13150000D02*
X19400000Y-13150000D01*
X19400000Y-13100000D02*
X18600000Y-13100000D01*
X19400000Y-11800000D02*
X18600000Y-11800000D01*
X18600000Y-11850000D02*
X19400000Y-11850000D01*
X19400000Y-11900000D02*
X18600000Y-11900000D01*
X19400000Y-11950000D02*
X18600000Y-11950000D01*
X18600000Y-11750000D02*
X19400000Y-11750000D01*
X18600000Y-11700000D02*
X19400000Y-11700000D01*
X19400000Y-12000000D02*
X18600000Y-12000000D01*
X20900000Y-21300000D02*
X20100000Y-21300000D01*
X20900000Y-19700000D02*
X20900000Y-21300000D01*
X20100000Y-19700000D02*
X20900000Y-19700000D01*
X20100000Y-21300000D02*
X20100000Y-19700000D01*
X20900000Y-20000000D02*
X20100000Y-20000000D01*
X20900000Y-21000000D02*
X20100000Y-21000000D01*
X20900000Y-19950000D02*
X20100000Y-19950000D01*
X20100000Y-19750000D02*
X20900000Y-19750000D01*
X20100000Y-19800000D02*
X20900000Y-19800000D01*
X20900000Y-19850000D02*
X20100000Y-19850000D01*
X20100000Y-19900000D02*
X20900000Y-19900000D01*
X20100000Y-21200000D02*
X20900000Y-21200000D01*
X20900000Y-21150000D02*
X20100000Y-21150000D01*
X20100000Y-21100000D02*
X20900000Y-21100000D01*
X20100000Y-21050000D02*
X20900000Y-21050000D01*
X20900000Y-21250000D02*
X20100000Y-21250000D01*
X20900000Y-21300000D02*
X20100000Y-21300000D01*
X20100000Y-21000000D02*
X20900000Y-21000000D01*
D11*
X14800000Y-27400000D02*
X14000000Y-24100000D01*
X14000000Y-18000000D02*
X14000000Y-24100000D01*
X14000000Y-18000000D02*
X14800000Y-14600000D01*
X14800000Y-14600000D02*
X17200000Y-14600000D01*
X14800000Y-27400000D02*
X17200000Y-27400000D01*
X17200000Y-14600000D02*
X17200000Y-27400000D01*
D12*
X3300000Y-18000000D02*
X7700000Y-18000000D01*
X7700000Y-13000000D02*
X3300000Y-13000000D01*
X7700000Y-18000000D02*
X7700000Y-13000000D01*
X3300000Y-13000000D02*
X3300000Y-18000000D01*
X7000000Y-13935000D02*
X7400000Y-13535000D01*
X7000000Y-13135000D02*
X7000000Y-13935000D01*
X7400000Y-13535000D02*
X7000000Y-13135000D01*
D13*
X7200000Y-13535000D02*
X7100000Y-13535000D01*
D14*
X7100000Y-13335000D02*
X7100000Y-13735000D01*
D12*
X3300000Y-28500000D02*
X7700000Y-28500000D01*
X7700000Y-23500000D02*
X3300000Y-23500000D01*
X7700000Y-28500000D02*
X7700000Y-23500000D01*
X3300000Y-23500000D02*
X3300000Y-28500000D01*
X7000000Y-24435000D02*
X7400000Y-24035000D01*
X7000000Y-23635000D02*
X7000000Y-24435000D01*
X7400000Y-24035000D02*
X7000000Y-23635000D01*
D13*
X7200000Y-24035000D02*
X7100000Y-24035000D01*
D14*
X7100000Y-23835000D02*
X7100000Y-24235000D01*
D12*
X28700000Y-28400000D02*
X28700000Y-23650000D01*
X24300000Y-23650000D02*
X24300000Y-28400000D01*
X28700000Y-23650000D02*
X24300000Y-23650000D01*
D14*
X24900000Y-27900000D02*
X24900000Y-27500000D01*
D13*
X24800000Y-27700000D02*
X24900000Y-27700000D01*
D12*
X24600000Y-27700000D02*
X25000000Y-28100000D01*
X25000000Y-28100000D02*
X25000000Y-27300000D01*
X25000000Y-27300000D02*
X24600000Y-27700000D01*
X24300000Y-28400000D02*
X28700000Y-28400000D01*
X24300000Y-18000000D02*
X28700000Y-18000000D01*
X28700000Y-13000000D02*
X24300000Y-13000000D01*
X28700000Y-18000000D02*
X28700000Y-13000000D01*
X24300000Y-13000000D02*
X24300000Y-18000000D01*
X28000000Y-13935000D02*
X28400000Y-13535000D01*
X28000000Y-13135000D02*
X28000000Y-13935000D01*
X28400000Y-13535000D02*
X28000000Y-13135000D01*
D13*
X28200000Y-13535000D02*
X28100000Y-13535000D01*
D14*
X28100000Y-13335000D02*
X28100000Y-13735000D01*
D15*
X12600000Y-7800000D02*
X9400000Y-7800000D01*
D16*
X10200000Y-6200000D02*
X10200000Y-7800000D01*
X11000000Y-6200000D02*
X11000000Y-7800000D01*
X11800000Y-6200000D02*
X11800000Y-7800000D01*
D15*
X12600000Y-6200000D02*
X12600000Y-7800000D01*
X9400000Y-6200000D02*
X9400000Y-7800000D01*
X12600000Y-6200000D02*
X9400000Y-6200000D01*
X24400000Y-6200000D02*
X27600000Y-6200000D01*
D16*
X26800000Y-7800000D02*
X26800000Y-6200000D01*
X26000000Y-7800000D02*
X26000000Y-6200000D01*
X25200000Y-7800000D02*
X25200000Y-6200000D01*
D15*
X24400000Y-7800000D02*
X24400000Y-6200000D01*
X27600000Y-7800000D02*
X27600000Y-6200000D01*
X24400000Y-7800000D02*
X27600000Y-7800000D01*
X7600000Y-35800000D02*
X4400000Y-35800000D01*
D16*
X5200000Y-34200000D02*
X5200000Y-35800000D01*
X6000000Y-34200000D02*
X6000000Y-35800000D01*
X6800000Y-34200000D02*
X6800000Y-35800000D01*
D15*
X7600000Y-34200000D02*
X7600000Y-35800000D01*
X4400000Y-34200000D02*
X4400000Y-35800000D01*
X7600000Y-34200000D02*
X4400000Y-34200000D01*
X19400000Y-34200000D02*
X22600000Y-34200000D01*
D16*
X21800000Y-35800000D02*
X21800000Y-34200000D01*
X21000000Y-35800000D02*
X21000000Y-34200000D01*
X20200000Y-35800000D02*
X20200000Y-34200000D01*
D15*
X19400000Y-35800000D02*
X19400000Y-34200000D01*
X22600000Y-35800000D02*
X22600000Y-34200000D01*
X19400000Y-35800000D02*
X22600000Y-35800000D01*
X16900000Y-6200000D02*
X20100000Y-6200000D01*
D16*
X19300000Y-7800000D02*
X19300000Y-6200000D01*
X18500000Y-7800000D02*
X18500000Y-6200000D01*
X17700000Y-7800000D02*
X17700000Y-6200000D01*
D15*
X16900000Y-7800000D02*
X16900000Y-6200000D01*
X20100000Y-7800000D02*
X20100000Y-6200000D01*
X16900000Y-7800000D02*
X20100000Y-7800000D01*
X28100000Y-21800000D02*
X24900000Y-21800000D01*
D16*
X25700000Y-20200000D02*
X25700000Y-21800000D01*
X26500000Y-20200000D02*
X26500000Y-21800000D01*
X27300000Y-20200000D02*
X27300000Y-21800000D01*
D15*
X28100000Y-20200000D02*
X28100000Y-21800000D01*
X24900000Y-20200000D02*
X24900000Y-21800000D01*
X28100000Y-20200000D02*
X24900000Y-20200000D01*
%LPC*%
D17*
X13000000Y-11750000D03*
X13000000Y-13250000D03*
X15000000Y-11750000D03*
X15000000Y-13250000D03*
X17000000Y-11750000D03*
X17000000Y-13250000D03*
X19000000Y-11750000D03*
X19000000Y-13250000D03*
X20500000Y-21250000D03*
X20500000Y-19750000D03*
D18*
X17250000Y-25000000D03*
X14750000Y-17000000D03*
X17250000Y-17000000D03*
X14750000Y-25000000D03*
D19*
X14750000Y-19500000D03*
X17250000Y-18500000D03*
X14750000Y-21500000D03*
X17250000Y-20500000D03*
X17250000Y-22500000D03*
X14750000Y-23500000D03*
D20*
X2550000Y-13210000D03*
X2550000Y-13860000D03*
X2550000Y-14510000D03*
X2550000Y-15160000D03*
X2550000Y-15810000D03*
X2550000Y-16460000D03*
X2550000Y-17110000D03*
X2550000Y-17760000D03*
X8450000Y-17760000D03*
X8450000Y-17110000D03*
X8450000Y-16460000D03*
X8450000Y-15810000D03*
X8450000Y-15160000D03*
X8450000Y-14510000D03*
X8450000Y-13860000D03*
X8450000Y-13210000D03*
X2550000Y-23710000D03*
X2550000Y-24360000D03*
X2550000Y-25010000D03*
X2550000Y-25660000D03*
X2550000Y-26310000D03*
X2550000Y-26960000D03*
X2550000Y-27610000D03*
X2550000Y-28260000D03*
X8450000Y-28260000D03*
X8450000Y-27610000D03*
X8450000Y-26960000D03*
X8450000Y-26310000D03*
X8450000Y-25660000D03*
X8450000Y-25010000D03*
X8450000Y-24360000D03*
X8450000Y-23710000D03*
X23550000Y-25375000D03*
X23550000Y-24725000D03*
X23550000Y-24075000D03*
X29450000Y-24075000D03*
X29450000Y-24725000D03*
X29450000Y-25375000D03*
X29450000Y-27975000D03*
X29450000Y-27325000D03*
X29450000Y-26675000D03*
X29450000Y-26025000D03*
X23550000Y-26025000D03*
X23550000Y-26675000D03*
X23550000Y-27325000D03*
X23550000Y-27975000D03*
X23550000Y-13210000D03*
X23550000Y-13860000D03*
X23550000Y-14510000D03*
X23550000Y-15160000D03*
X23550000Y-15810000D03*
X23550000Y-16460000D03*
X23550000Y-17110000D03*
X23550000Y-17760000D03*
X29450000Y-17760000D03*
X29450000Y-17110000D03*
X29450000Y-16460000D03*
X29450000Y-15810000D03*
X29450000Y-15160000D03*
X29450000Y-14510000D03*
X29450000Y-13860000D03*
X29450000Y-13210000D03*
D21*
X11400000Y-6150000D03*
X11400000Y-7850000D03*
X10600000Y-7850000D03*
X10600000Y-6150000D03*
X9800000Y-6150000D03*
X9800000Y-7850000D03*
X12200000Y-7850000D03*
X12200000Y-6150000D03*
X25600000Y-7850000D03*
X25600000Y-6150000D03*
X26400000Y-6150000D03*
X26400000Y-7850000D03*
X27200000Y-7850000D03*
X27200000Y-6150000D03*
X24800000Y-6150000D03*
X24800000Y-7850000D03*
X6400000Y-34150000D03*
X6400000Y-35850000D03*
X5600000Y-35850000D03*
X5600000Y-34150000D03*
X4800000Y-34150000D03*
X4800000Y-35850000D03*
X7200000Y-35850000D03*
X7200000Y-34150000D03*
X20600000Y-35850000D03*
X20600000Y-34150000D03*
X21400000Y-34150000D03*
X21400000Y-35850000D03*
X22200000Y-35850000D03*
X22200000Y-34150000D03*
X19800000Y-34150000D03*
X19800000Y-35850000D03*
X18100000Y-7850000D03*
X18100000Y-6150000D03*
X18900000Y-6150000D03*
X18900000Y-7850000D03*
X19700000Y-7850000D03*
X19700000Y-6150000D03*
X17300000Y-6150000D03*
X17300000Y-7850000D03*
X26900000Y-20150000D03*
X26900000Y-21850000D03*
X26100000Y-21850000D03*
X26100000Y-20150000D03*
X25300000Y-20150000D03*
X25300000Y-21850000D03*
X27700000Y-21850000D03*
X27700000Y-20150000D03*
M02*
