G04 #@! TF.GenerationSoftware,KiCad,Pcbnew,(5.1.9)-1*
G04 #@! TF.CreationDate,2023-02-02T22:46:09+01:00*
G04 #@! TF.ProjectId,Leds,4c656473-2e6b-4696-9361-645f70636258,rev?*
G04 #@! TF.SameCoordinates,PXd59f80PYd59f80*
G04 #@! TF.FileFunction,Copper,L2,Bot*
G04 #@! TF.FilePolarity,Positive*
%FSLAX46Y46*%
G04 Gerber Fmt 4.6, Leading zero omitted, Abs format (unit mm)*
G04 Created by KiCad (PCBNEW (5.1.9)-1) date 2023-02-02 22:46:09*
%MOMM*%
%LPD*%
G01*
G04 APERTURE LIST*
G04 #@! TA.AperFunction,SMDPad,CuDef*
%ADD10R,1.000000X0.700000*%
G04 #@! TD*
G04 #@! TA.AperFunction,SMDPad,CuDef*
%ADD11R,1.800000X1.000000*%
G04 #@! TD*
G04 #@! TA.AperFunction,SMDPad,CuDef*
%ADD12R,1.800000X0.600000*%
G04 #@! TD*
G04 #@! TA.AperFunction,SMDPad,CuDef*
%ADD13R,1.500000X0.400000*%
G04 #@! TD*
G04 #@! TA.AperFunction,SMDPad,CuDef*
%ADD14R,0.400000X1.100000*%
G04 #@! TD*
G04 #@! TA.AperFunction,ViaPad*
%ADD15C,0.600000*%
G04 #@! TD*
G04 #@! TA.AperFunction,Conductor*
%ADD16C,0.200000*%
G04 #@! TD*
G04 #@! TA.AperFunction,Conductor*
%ADD17C,0.300000*%
G04 #@! TD*
G04 #@! TA.AperFunction,Conductor*
%ADD18C,0.150000*%
G04 #@! TD*
G04 #@! TA.AperFunction,Conductor*
%ADD19C,0.100000*%
G04 #@! TD*
G04 APERTURE END LIST*
D10*
X13000000Y-11750000D03*
X13000000Y-13250000D03*
X15000000Y-11750000D03*
X15000000Y-13250000D03*
X17000000Y-11750000D03*
X17000000Y-13250000D03*
X19000000Y-11750000D03*
X19000000Y-13250000D03*
X20500000Y-21250000D03*
X20500000Y-19750000D03*
D11*
X17250000Y-25000000D03*
X14750000Y-17000000D03*
X17250000Y-17000000D03*
X14750000Y-25000000D03*
D12*
X14750000Y-19500000D03*
X17250000Y-18500000D03*
X14750000Y-21500000D03*
X17250000Y-20500000D03*
X17250000Y-22500000D03*
X14750000Y-23500000D03*
D13*
X2550000Y-13210000D03*
X2550000Y-13860000D03*
X2550000Y-14510000D03*
X2550000Y-15160000D03*
X2550000Y-15810000D03*
X2550000Y-16460000D03*
X2550000Y-17110000D03*
X2550000Y-17760000D03*
X8450000Y-17760000D03*
X8450000Y-17110000D03*
X8450000Y-16460000D03*
X8450000Y-15810000D03*
X8450000Y-15160000D03*
X8450000Y-14510000D03*
X8450000Y-13860000D03*
X8450000Y-13210000D03*
X2550000Y-23710000D03*
X2550000Y-24360000D03*
X2550000Y-25010000D03*
X2550000Y-25660000D03*
X2550000Y-26310000D03*
X2550000Y-26960000D03*
X2550000Y-27610000D03*
X2550000Y-28260000D03*
X8450000Y-28260000D03*
X8450000Y-27610000D03*
X8450000Y-26960000D03*
X8450000Y-26310000D03*
X8450000Y-25660000D03*
X8450000Y-25010000D03*
X8450000Y-24360000D03*
X8450000Y-23710000D03*
X23550000Y-25375000D03*
X23550000Y-24725000D03*
X23550000Y-24075000D03*
X29450000Y-24075000D03*
X29450000Y-24725000D03*
X29450000Y-25375000D03*
X29450000Y-27975000D03*
X29450000Y-27325000D03*
X29450000Y-26675000D03*
X29450000Y-26025000D03*
X23550000Y-26025000D03*
X23550000Y-26675000D03*
X23550000Y-27325000D03*
X23550000Y-27975000D03*
X23550000Y-13210000D03*
X23550000Y-13860000D03*
X23550000Y-14510000D03*
X23550000Y-15160000D03*
X23550000Y-15810000D03*
X23550000Y-16460000D03*
X23550000Y-17110000D03*
X23550000Y-17760000D03*
X29450000Y-17760000D03*
X29450000Y-17110000D03*
X29450000Y-16460000D03*
X29450000Y-15810000D03*
X29450000Y-15160000D03*
X29450000Y-14510000D03*
X29450000Y-13860000D03*
X29450000Y-13210000D03*
D14*
X11400000Y-6150000D03*
X11400000Y-7850000D03*
X10600000Y-7850000D03*
X10600000Y-6150000D03*
X9800000Y-6150000D03*
X9800000Y-7850000D03*
X12200000Y-7850000D03*
X12200000Y-6150000D03*
X25600000Y-7850000D03*
X25600000Y-6150000D03*
X26400000Y-6150000D03*
X26400000Y-7850000D03*
X27200000Y-7850000D03*
X27200000Y-6150000D03*
X24800000Y-6150000D03*
X24800000Y-7850000D03*
X6400000Y-34150000D03*
X6400000Y-35850000D03*
X5600000Y-35850000D03*
X5600000Y-34150000D03*
X4800000Y-34150000D03*
X4800000Y-35850000D03*
X7200000Y-35850000D03*
X7200000Y-34150000D03*
X20600000Y-35850000D03*
X20600000Y-34150000D03*
X21400000Y-34150000D03*
X21400000Y-35850000D03*
X22200000Y-35850000D03*
X22200000Y-34150000D03*
X19800000Y-34150000D03*
X19800000Y-35850000D03*
X18100000Y-7850000D03*
X18100000Y-6150000D03*
X18900000Y-6150000D03*
X18900000Y-7850000D03*
X19700000Y-7850000D03*
X19700000Y-6150000D03*
X17300000Y-6150000D03*
X17300000Y-7850000D03*
X26900000Y-20150000D03*
X26900000Y-21850000D03*
X26100000Y-21850000D03*
X26100000Y-20150000D03*
X25300000Y-20150000D03*
X25300000Y-21850000D03*
X27700000Y-21850000D03*
X27700000Y-20150000D03*
D15*
X13000000Y-13900000D03*
X15000000Y-13900000D03*
X17000000Y-13900000D03*
X19000000Y-13900000D03*
X25300000Y-19400000D03*
X22800000Y-19400000D03*
X4600000Y-20200000D03*
X3800000Y-15000000D03*
X3799930Y-26900000D03*
X4600000Y-23000000D03*
X21200000Y-18200000D03*
X26000000Y-18000000D03*
X3800000Y-15900000D03*
X3799930Y-25900070D03*
X24200000Y-18600000D03*
X22800000Y-18600000D03*
X1250000Y-23060000D03*
X1250000Y-24850000D03*
X5800000Y-19400000D03*
X3799930Y-28200000D03*
X9000000Y-7800000D03*
X7800000Y-7800000D03*
X14000000Y-7800000D03*
X13000000Y-7800000D03*
X22800000Y-7800000D03*
X24000000Y-7800000D03*
X28000000Y-7800000D03*
X29000000Y-7800000D03*
X2650000Y-33550000D03*
X3600000Y-32500000D03*
X8400000Y-32450000D03*
X9350000Y-33600000D03*
X18600000Y-32500000D03*
X17650000Y-33550000D03*
X24350000Y-33600000D03*
X23400000Y-32450000D03*
X27400000Y-13250000D03*
X18700000Y-34150000D03*
X3700000Y-34150000D03*
X8300000Y-34150000D03*
X23300000Y-34150000D03*
X5900000Y-21600000D03*
X12150000Y-19400000D03*
X3000000Y-21000000D03*
X26600000Y-26100000D03*
X24350000Y-37400000D03*
X2650000Y-37400000D03*
X7650000Y-37400000D03*
X4350000Y-37400000D03*
X9350000Y-37400000D03*
X17650000Y-37400000D03*
X19350000Y-37400000D03*
X22650000Y-37400000D03*
X29350000Y-4600000D03*
X27650000Y-4600000D03*
X24350000Y-4600000D03*
X22650000Y-4600000D03*
X14350000Y-4600000D03*
X12650000Y-4600000D03*
X9350000Y-4600000D03*
X7650000Y-4600000D03*
X16050000Y-18500000D03*
X18450000Y-18500000D03*
X21300000Y-19750000D03*
X19700000Y-19750000D03*
X16950000Y-26950000D03*
X19500000Y-26950000D03*
X20100000Y-26950000D03*
X17550000Y-26950000D03*
X14450000Y-26950000D03*
X15050000Y-26950000D03*
X11900000Y-26950000D03*
X12500000Y-26950000D03*
X1500000Y-25650000D03*
X1500000Y-15150000D03*
X22950000Y-23550000D03*
X23550000Y-23550000D03*
X24150000Y-23550000D03*
X29500000Y-18250000D03*
X28900000Y-18250000D03*
X30100000Y-18250000D03*
X9050000Y-18250000D03*
X8450000Y-18250000D03*
X7850000Y-18250000D03*
X19000000Y-11100000D03*
X17000000Y-11150000D03*
X15000000Y-11100000D03*
X13000000Y-11100000D03*
X22500000Y-13860000D03*
X26100000Y-19400000D03*
X7850000Y-28750000D03*
X8450000Y-28750000D03*
X9050000Y-28750000D03*
X13200000Y-22800000D03*
X13200000Y-19400000D03*
D16*
X23550000Y-16460000D02*
X22260000Y-16460000D01*
X22260000Y-16460000D02*
X21510030Y-15710030D01*
X14810030Y-15710030D02*
X13000000Y-13900000D01*
X21510030Y-15710030D02*
X14810030Y-15710030D01*
X13000000Y-13900000D02*
X13000000Y-13250000D01*
X17300000Y-8700000D02*
X17300000Y-7750000D01*
X15599960Y-10400040D02*
X17300000Y-8700000D01*
X14399960Y-10400040D02*
X15599960Y-10400040D01*
X14000000Y-10800000D02*
X14399960Y-10400040D01*
X14000000Y-13000000D02*
X14000000Y-10800000D01*
X13750000Y-13250000D02*
X14000000Y-13000000D01*
X13000000Y-13250000D02*
X13750000Y-13250000D01*
X16410020Y-15310020D02*
X15000000Y-13900000D01*
X21675718Y-15310020D02*
X16410020Y-15310020D01*
X22175698Y-15810000D02*
X21675718Y-15310020D01*
X23550000Y-15810000D02*
X22175698Y-15810000D01*
X15000000Y-13900000D02*
X15000000Y-13250000D01*
X15000000Y-13250000D02*
X15750000Y-13250000D01*
X15750000Y-13250000D02*
X16000000Y-13000000D01*
X16000000Y-13000000D02*
X16000000Y-11000000D01*
X18100000Y-8900000D02*
X18100000Y-7750000D01*
X16000000Y-11000000D02*
X18100000Y-8900000D01*
X18010010Y-14910010D02*
X17000000Y-13900000D01*
X21841406Y-14910010D02*
X18010010Y-14910010D01*
X22091396Y-15160000D02*
X21841406Y-14910010D01*
X23550000Y-15160000D02*
X22091396Y-15160000D01*
X17000000Y-13900000D02*
X17000000Y-13250000D01*
X17000000Y-13250000D02*
X17750000Y-13250000D01*
X17750000Y-13250000D02*
X18000000Y-13000000D01*
X18000000Y-13000000D02*
X18000000Y-10000000D01*
X18900000Y-9100000D02*
X18900000Y-7750000D01*
X18000000Y-10000000D02*
X18900000Y-9100000D01*
X19610000Y-14510000D02*
X19000000Y-13900000D01*
X23550000Y-14510000D02*
X19610000Y-14510000D01*
X19000000Y-13900000D02*
X19000000Y-13250000D01*
X19000000Y-13250000D02*
X19750000Y-13250000D01*
X19750000Y-13250000D02*
X20000000Y-13000000D01*
X20000000Y-13000000D02*
X20000000Y-9400000D01*
X19700000Y-9100000D02*
X19700000Y-7750000D01*
X20000000Y-9400000D02*
X19700000Y-9100000D01*
D17*
X2550000Y-13210000D02*
X1390000Y-13210000D01*
X1390000Y-13210000D02*
X600000Y-14000000D01*
X1210000Y-27610000D02*
X2550000Y-27610000D01*
X600000Y-27000000D02*
X1210000Y-27610000D01*
X690000Y-23710000D02*
X600000Y-23800000D01*
X2550000Y-23710000D02*
X690000Y-23710000D01*
X600000Y-23800000D02*
X600000Y-27000000D01*
X690000Y-17110000D02*
X600000Y-17200000D01*
X2550000Y-17110000D02*
X690000Y-17110000D01*
X600000Y-17200000D02*
X600000Y-23800000D01*
X600000Y-14000000D02*
X600000Y-17200000D01*
D16*
X25300000Y-19400000D02*
X25300000Y-20250000D01*
D17*
X13919998Y-22500000D02*
X12770018Y-21350020D01*
X17250000Y-22500000D02*
X13919998Y-22500000D01*
X12770018Y-21350020D02*
X7249980Y-21350020D01*
X7249980Y-21350020D02*
X4890000Y-23710000D01*
X2550000Y-23710000D02*
X4890000Y-23710000D01*
D16*
X23550000Y-13210000D02*
X20610000Y-13210000D01*
X20610000Y-13210000D02*
X20400000Y-13000000D01*
X20400000Y-9097097D02*
X20399990Y-9097087D01*
X20400000Y-13000000D02*
X20400000Y-9097097D01*
X29450000Y-26675000D02*
X29450000Y-27975000D01*
X25300000Y-19400000D02*
X25300000Y-18700000D01*
X29450000Y-25375000D02*
X29450000Y-24725000D01*
X17250000Y-22500000D02*
X18500000Y-22500000D01*
X19750000Y-21250000D02*
X20500000Y-21250000D01*
X18500000Y-22500000D02*
X19750000Y-21250000D01*
X21750000Y-21250000D02*
X22800000Y-20200000D01*
X20500000Y-21250000D02*
X21750000Y-21250000D01*
X22800000Y-20200000D02*
X22800000Y-19400000D01*
X25300000Y-18700000D02*
X25300000Y-17700000D01*
X25300000Y-17700000D02*
X25599990Y-17400010D01*
X25599990Y-17400010D02*
X25599990Y-13799990D01*
X30600000Y-12600000D02*
X31200010Y-13200010D01*
X31200010Y-21400010D02*
X31200000Y-21400020D01*
X31200010Y-13200010D02*
X31200010Y-21400010D01*
X30825000Y-27975000D02*
X29450000Y-27975000D01*
X31200000Y-27600000D02*
X30825000Y-27975000D01*
X31125000Y-24725000D02*
X31200000Y-24800000D01*
X29450000Y-24725000D02*
X31125000Y-24725000D01*
X31200000Y-24800000D02*
X31200000Y-27600000D01*
X31200000Y-21400020D02*
X31200000Y-24800000D01*
X25575000Y-27975000D02*
X24925000Y-27325000D01*
X29450000Y-27975000D02*
X25575000Y-27975000D01*
X23550000Y-27325000D02*
X24925000Y-27325000D01*
X25590000Y-13210000D02*
X25599990Y-13200010D01*
X23550000Y-13210000D02*
X25590000Y-13210000D01*
X25599990Y-13799990D02*
X25599990Y-13200010D01*
X25599990Y-13200010D02*
X26200000Y-12600000D01*
X26200000Y-12600000D02*
X30600000Y-12600000D01*
X20400000Y-13000000D02*
X20400000Y-6500000D01*
X20150000Y-6250000D02*
X19700000Y-6250000D01*
X20400000Y-6500000D02*
X20150000Y-6250000D01*
X19700000Y-6250000D02*
X18900000Y-6250000D01*
X18100000Y-6250000D02*
X18900000Y-6250000D01*
X18100000Y-6250000D02*
X17300000Y-6250000D01*
X23550000Y-24725000D02*
X19325000Y-24725000D01*
X18100000Y-23500000D02*
X14750000Y-23500000D01*
X19325000Y-24725000D02*
X18100000Y-23500000D01*
X4900000Y-20500000D02*
X4600000Y-20200000D01*
X17250000Y-20500000D02*
X4900000Y-20500000D01*
X3310000Y-14510000D02*
X2550000Y-14510000D01*
X3800000Y-15000000D02*
X3310000Y-14510000D01*
X3500000Y-16460000D02*
X3800000Y-16760000D01*
X2550000Y-16460000D02*
X3500000Y-16460000D01*
X3739930Y-26960000D02*
X3799930Y-26900000D01*
X2550000Y-26960000D02*
X3739930Y-26960000D01*
X14750000Y-21500000D02*
X14100000Y-21500000D01*
X14100000Y-21500000D02*
X13500010Y-20900010D01*
X3800000Y-20288002D02*
X3800000Y-16760000D01*
X4412008Y-20900010D02*
X3800000Y-20288002D01*
X4600000Y-21000020D02*
X4499990Y-20900010D01*
X4499990Y-20900010D02*
X4412008Y-20900010D01*
X4600000Y-21088002D02*
X3800000Y-20288002D01*
X4600000Y-23000000D02*
X4600000Y-21088002D01*
X4600000Y-23000000D02*
X4600000Y-21000020D01*
X13500010Y-20900010D02*
X4499990Y-20900010D01*
X14750000Y-21500000D02*
X18500000Y-21500000D01*
X18500000Y-21500000D02*
X19000000Y-21000000D01*
X19000000Y-21000000D02*
X19000000Y-19565698D01*
X20365698Y-18200000D02*
X21200000Y-18200000D01*
X19000000Y-19565698D02*
X20365698Y-18200000D01*
X26000000Y-14400000D02*
X26540000Y-13860000D01*
X26000000Y-18000000D02*
X26000000Y-14400000D01*
X26540000Y-13860000D02*
X29450000Y-13860000D01*
X3710000Y-15810000D02*
X3800000Y-15900000D01*
X2550000Y-15810000D02*
X3710000Y-15810000D01*
X3390000Y-26310000D02*
X3799930Y-25900070D01*
X2550000Y-26310000D02*
X3390000Y-26310000D01*
X4200000Y-16300000D02*
X3800000Y-15900000D01*
X14750000Y-19500000D02*
X14100000Y-19500000D01*
X14100000Y-19500000D02*
X13500010Y-20099990D01*
X13500010Y-20099990D02*
X7100010Y-20099990D01*
X7100010Y-20099990D02*
X6200000Y-20099990D01*
X5499990Y-20099990D02*
X4200000Y-18800000D01*
X7100010Y-20099990D02*
X5499990Y-20099990D01*
X4200000Y-18800000D02*
X4200000Y-16300000D01*
X23550000Y-26025000D02*
X22575000Y-26025000D01*
X22575000Y-26025000D02*
X22200000Y-26400000D01*
X22200000Y-26400000D02*
X22200000Y-27600000D01*
X22575000Y-27975000D02*
X23550000Y-27975000D01*
X22200000Y-27600000D02*
X22575000Y-27975000D01*
X18500000Y-19500000D02*
X14750000Y-19500000D01*
X20400000Y-17600000D02*
X18500000Y-19500000D01*
X21800000Y-17600000D02*
X20400000Y-17600000D01*
X22800000Y-18600000D02*
X21800000Y-17600000D01*
X24775000Y-26025000D02*
X25699990Y-25100010D01*
X23550000Y-26025000D02*
X24775000Y-26025000D01*
X25300000Y-21750000D02*
X25300000Y-21500000D01*
X24200000Y-18600000D02*
X24200000Y-21584302D01*
X25699990Y-23084291D02*
X25699990Y-25100010D01*
X25300000Y-22200000D02*
X25057850Y-22442150D01*
X25300000Y-21850000D02*
X25300000Y-22200000D01*
X25057850Y-22442150D02*
X25699990Y-23084291D01*
X24200000Y-21584302D02*
X25057850Y-22442150D01*
X9200000Y-12800000D02*
X9199992Y-12799992D01*
X8790000Y-13210000D02*
X9200000Y-12800000D01*
X8450000Y-13210000D02*
X8790000Y-13210000D01*
X9199992Y-12799992D02*
X9199992Y-10355815D01*
X10600000Y-8955807D02*
X10600000Y-7850000D01*
X9199992Y-10355815D02*
X10600000Y-8955807D01*
X8450000Y-13860000D02*
X9340000Y-13860000D01*
X9340000Y-13860000D02*
X9600000Y-13600000D01*
X11400000Y-8721506D02*
X11400000Y-7850000D01*
X9600000Y-10521505D02*
X11400000Y-8721506D01*
X9600000Y-13600000D02*
X9600000Y-10521505D01*
X9690000Y-14510000D02*
X10000010Y-14199990D01*
X8450000Y-14510000D02*
X9690000Y-14510000D01*
X12200000Y-8487204D02*
X12200000Y-7850000D01*
X10000010Y-10687194D02*
X12200000Y-8487204D01*
X10000010Y-14199990D02*
X10000010Y-10687194D01*
X24800000Y-8600000D02*
X24800000Y-7750000D01*
X24600010Y-8799990D02*
X24800000Y-8600000D01*
X10040000Y-15160000D02*
X10400020Y-14799980D01*
X8450000Y-15160000D02*
X10040000Y-15160000D01*
X14999972Y-8200028D02*
X14999972Y-4902932D01*
X14400000Y-8800000D02*
X14999972Y-8200028D01*
X22000030Y-8434332D02*
X22365688Y-8799990D01*
X22365688Y-8799990D02*
X24600010Y-8799990D01*
X22000030Y-4902933D02*
X22000030Y-8434332D01*
X20897067Y-3799970D02*
X22000030Y-4902933D01*
X16102933Y-3799970D02*
X20897067Y-3799970D01*
X14999972Y-4902932D02*
X16102933Y-3799970D01*
X13737208Y-8800000D02*
X14400000Y-8800000D01*
X13337238Y-9199970D02*
X13737208Y-8800000D01*
X12052933Y-9199970D02*
X13337238Y-9199970D01*
X10400020Y-10852883D02*
X12052933Y-9199970D01*
X10400020Y-14799980D02*
X10400020Y-10852883D01*
X8450000Y-15810000D02*
X10190000Y-15810000D01*
X10190000Y-15810000D02*
X10800030Y-15199970D01*
X15399982Y-8365717D02*
X15399982Y-5068621D01*
X21600020Y-5068622D02*
X21600020Y-8600020D01*
X21600020Y-8600020D02*
X22200000Y-9200000D01*
X22200000Y-9200000D02*
X25200000Y-9200000D01*
X25200000Y-9200000D02*
X25600000Y-8800000D01*
X25600000Y-8800000D02*
X25600000Y-7750000D01*
X20731378Y-4199980D02*
X21600020Y-5068622D01*
X16268622Y-4199980D02*
X20731378Y-4199980D01*
X15399983Y-5068620D02*
X16268622Y-4199980D01*
X14565689Y-9200010D02*
X15399982Y-8365717D01*
X15399982Y-8365717D02*
X15399983Y-5068620D01*
X13902896Y-9200010D02*
X14565689Y-9200010D01*
X13502926Y-9599980D02*
X13902896Y-9200010D01*
X12218622Y-9599980D02*
X13502926Y-9599980D01*
X10800030Y-11018572D02*
X12218622Y-9599980D01*
X10800030Y-15199970D02*
X10800030Y-11018572D01*
X26400000Y-8800000D02*
X26400000Y-7750000D01*
X25600000Y-9600000D02*
X26400000Y-8800000D01*
X22034301Y-9600000D02*
X25600000Y-9600000D01*
X21200010Y-8765709D02*
X22034301Y-9600000D01*
X8450000Y-16460000D02*
X10540000Y-16460000D01*
X10540000Y-16460000D02*
X11200040Y-15799960D01*
X13668614Y-9999990D02*
X14068584Y-9600020D01*
X20565689Y-4599990D02*
X21200010Y-5234311D01*
X14068584Y-9600020D02*
X14731378Y-9600020D01*
X14731378Y-9600020D02*
X15799992Y-8531406D01*
X21200010Y-5234311D02*
X21200010Y-8765709D01*
X15799992Y-8531406D02*
X15799992Y-5234310D01*
X15799992Y-5234310D02*
X16434311Y-4599990D01*
X16434311Y-4599990D02*
X20565689Y-4599990D01*
X12384311Y-9999990D02*
X13668614Y-9999990D01*
X11200040Y-11184261D02*
X12384311Y-9999990D01*
X11200040Y-15799960D02*
X11200040Y-11184261D01*
X20800000Y-5400000D02*
X20800000Y-8931398D01*
X20400000Y-5000000D02*
X20800000Y-5400000D01*
X16600000Y-5000000D02*
X20400000Y-5000000D01*
X16200000Y-5400000D02*
X16600000Y-5000000D01*
X20800000Y-8931398D02*
X21868602Y-10000000D01*
X8450000Y-17110000D02*
X10690000Y-17110000D01*
X14897067Y-10000030D02*
X16200000Y-8697097D01*
X10690000Y-17110000D02*
X11600050Y-16199950D01*
X16200000Y-8697097D02*
X16200000Y-5400000D01*
X21868602Y-10000000D02*
X26200000Y-10000000D01*
X26200000Y-10000000D02*
X27200000Y-9000000D01*
X27200000Y-9000000D02*
X27200000Y-7750000D01*
X14234272Y-10000030D02*
X14897067Y-10000030D01*
X13834302Y-10400000D02*
X14234272Y-10000030D01*
X11600050Y-11349950D02*
X12550000Y-10400000D01*
X11600050Y-16199950D02*
X11600050Y-11349950D01*
X12550000Y-10400000D02*
X13834302Y-10400000D01*
X1250000Y-23060000D02*
X1250000Y-18150000D01*
X1640000Y-17760000D02*
X2550000Y-17760000D01*
X1250000Y-18150000D02*
X1640000Y-17760000D01*
X1410000Y-25010000D02*
X1250000Y-24850000D01*
X2550000Y-25010000D02*
X1410000Y-25010000D01*
X2550000Y-13860000D02*
X4774302Y-13860000D01*
X8300000Y-12300000D02*
X8799982Y-11800018D01*
X7700000Y-12300000D02*
X8300000Y-12300000D01*
X7200000Y-12800000D02*
X7700000Y-12300000D01*
X7200000Y-13400000D02*
X7200000Y-12800000D01*
X6740000Y-13860000D02*
X7200000Y-13400000D01*
X2550000Y-13860000D02*
X6740000Y-13860000D01*
X9800000Y-9190109D02*
X9800000Y-7850000D01*
X8799982Y-10190126D02*
X9800000Y-9190109D01*
X8799982Y-11800018D02*
X8799982Y-10190126D01*
X5600000Y-30782195D02*
X4799940Y-29982136D01*
X5600000Y-33250000D02*
X5600000Y-30782195D01*
X4799940Y-29982136D02*
X4799940Y-25400060D01*
X6490000Y-23710000D02*
X8450000Y-23710000D01*
X4799940Y-25400060D02*
X6490000Y-23710000D01*
X5600000Y-33400000D02*
X5600000Y-34250000D01*
X5600000Y-30782195D02*
X5600000Y-33400000D01*
X6400000Y-31016496D02*
X6400000Y-33250000D01*
X5199950Y-29816447D02*
X6400000Y-31016496D01*
X5199950Y-25800050D02*
X5199950Y-29816447D01*
X6640000Y-24360000D02*
X5199950Y-25800050D01*
X8450000Y-24360000D02*
X6640000Y-24360000D01*
X6400000Y-33140000D02*
X6400000Y-34250000D01*
X6400000Y-31016496D02*
X6400000Y-33140000D01*
X8450000Y-25010000D02*
X6790000Y-25010000D01*
X6790000Y-25010000D02*
X5599960Y-26200040D01*
X5599960Y-29650758D02*
X7200000Y-31250798D01*
X5599960Y-26200040D02*
X5599960Y-29650758D01*
X7200000Y-31250798D02*
X7200000Y-33250000D01*
X7200000Y-34250000D02*
X7200000Y-31250798D01*
X5999970Y-29485069D02*
X7114931Y-30600030D01*
X7114931Y-30600030D02*
X19200030Y-30600030D01*
X19800000Y-31200000D02*
X19800000Y-33250000D01*
X19200030Y-30600030D02*
X19800000Y-31200000D01*
X5999970Y-29485069D02*
X5999970Y-26600030D01*
X6940000Y-25660000D02*
X8450000Y-25660000D01*
X5999970Y-26600030D02*
X6940000Y-25660000D01*
X19800000Y-33250000D02*
X19800000Y-34250000D01*
X6399980Y-29319380D02*
X7280620Y-30200020D01*
X7280620Y-30200020D02*
X20000020Y-30200020D01*
X20600000Y-30800000D02*
X20600000Y-33250000D01*
X20000020Y-30200020D02*
X20600000Y-30800000D01*
X6399980Y-29319380D02*
X6399980Y-27000020D01*
X7090000Y-26310000D02*
X8450000Y-26310000D01*
X6399980Y-27000020D02*
X7090000Y-26310000D01*
X20600000Y-33250000D02*
X20600000Y-34250000D01*
X6799990Y-29153691D02*
X7446309Y-29800010D01*
X7446309Y-29800010D02*
X20800010Y-29800010D01*
X21400000Y-30400000D02*
X21400000Y-33250000D01*
X20800010Y-29800010D02*
X21400000Y-30400000D01*
X6799990Y-29153691D02*
X6799990Y-27400010D01*
X7240000Y-26960000D02*
X8450000Y-26960000D01*
X6799990Y-27400010D02*
X7240000Y-26960000D01*
X21400000Y-33250000D02*
X21400000Y-34250000D01*
X7500000Y-27610000D02*
X7200000Y-27910000D01*
X8450000Y-27610000D02*
X7500000Y-27610000D01*
X7200000Y-28988002D02*
X7611998Y-29400000D01*
X7200000Y-27910000D02*
X7200000Y-28988002D01*
X7611998Y-29400000D02*
X21400000Y-29400000D01*
X22200000Y-30200000D02*
X22200000Y-33250000D01*
X21400000Y-29400000D02*
X22200000Y-30200000D01*
X22200000Y-33250000D02*
X22200000Y-34250000D01*
X23550000Y-17110000D02*
X22344302Y-17110000D01*
X22344302Y-17110000D02*
X21344342Y-16110040D01*
X13910040Y-16110040D02*
X12255658Y-16110040D01*
X21344342Y-16110040D02*
X13910040Y-16110040D01*
X13910040Y-16110040D02*
X12289960Y-16110040D01*
X8965698Y-19400000D02*
X5800000Y-19400000D01*
X12255658Y-16110040D02*
X8965698Y-19400000D01*
X3739930Y-28260000D02*
X3799930Y-28200000D01*
X2550000Y-28260000D02*
X3739930Y-28260000D01*
X4800000Y-30547894D02*
X4399930Y-30147825D01*
X4800000Y-34250000D02*
X4800000Y-30547894D01*
X4399930Y-30147825D02*
X4399930Y-24799930D01*
X3960000Y-24360000D02*
X2550000Y-24360000D01*
X4399930Y-24799930D02*
X3960000Y-24360000D01*
X24925000Y-26675000D02*
X23550000Y-26675000D01*
X26100000Y-25500000D02*
X24925000Y-26675000D01*
X26100000Y-22700000D02*
X30100000Y-22700000D01*
X26100000Y-21750000D02*
X26100000Y-22700000D01*
X26100000Y-22700000D02*
X26100000Y-25500000D01*
X30100000Y-22700000D02*
X30800000Y-22000000D01*
X30410000Y-13210000D02*
X30800000Y-13600000D01*
X29450000Y-13210000D02*
X30410000Y-13210000D01*
X30800000Y-22000000D02*
X30800000Y-13600000D01*
X24624960Y-25375000D02*
X25299980Y-24699980D01*
X23550000Y-25375000D02*
X24624960Y-25375000D01*
X25299980Y-24699980D02*
X25299980Y-23249980D01*
X23550000Y-21500000D02*
X23550000Y-17760000D01*
X25299980Y-23249980D02*
X23550000Y-21500000D01*
X9800000Y-6250000D02*
X9350000Y-6250000D01*
X9000000Y-6600000D02*
X9000000Y-7800000D01*
X9350000Y-6250000D02*
X9000000Y-6600000D01*
X7800000Y-7800000D02*
X7800000Y-6000000D01*
X10600000Y-6150000D02*
X10600000Y-5400000D01*
X8599999Y-5200001D02*
X7800000Y-6000000D01*
X10400001Y-5200001D02*
X8599999Y-5200001D01*
X10600000Y-5400000D02*
X10400001Y-5200001D01*
X14000000Y-6000000D02*
X14000000Y-7800000D01*
X11400000Y-6150000D02*
X11400000Y-5400000D01*
X11400000Y-5400000D02*
X11600000Y-5200000D01*
X13200000Y-5200000D02*
X14000000Y-6000000D01*
X11600000Y-5200000D02*
X13200000Y-5200000D01*
X12200000Y-6250000D02*
X12650000Y-6250000D01*
X13000000Y-6600000D02*
X13000000Y-7800000D01*
X12650000Y-6250000D02*
X13000000Y-6600000D01*
X22800000Y-7800000D02*
X22800000Y-6000000D01*
X25600000Y-6150000D02*
X25600000Y-5450000D01*
X25600000Y-5450000D02*
X25350000Y-5200000D01*
X23600000Y-5200000D02*
X22800000Y-6000000D01*
X25350000Y-5200000D02*
X23600000Y-5200000D01*
X24800000Y-6250000D02*
X24350000Y-6250000D01*
X24000000Y-6600000D02*
X24000000Y-7800000D01*
X24350000Y-6250000D02*
X24000000Y-6600000D01*
X27200000Y-6250000D02*
X27650000Y-6250000D01*
X28000000Y-6600000D02*
X28000000Y-7800000D01*
X27650000Y-6250000D02*
X28000000Y-6600000D01*
X29000000Y-6000000D02*
X29000000Y-7800000D01*
X26400000Y-6150000D02*
X26400000Y-5400000D01*
X26400000Y-5400000D02*
X26600000Y-5200000D01*
X28200000Y-5200000D02*
X29000000Y-6000000D01*
X26600000Y-5200000D02*
X28200000Y-5200000D01*
X2650000Y-34850000D02*
X2650000Y-33550000D01*
X3650000Y-35850000D02*
X2650000Y-34850000D01*
X4800000Y-35850000D02*
X3650000Y-35850000D01*
X5600000Y-35750000D02*
X5600000Y-36400000D01*
X5600000Y-36400000D02*
X5200000Y-36800000D01*
X5200000Y-36800000D02*
X4034302Y-36800000D01*
X2811998Y-32500000D02*
X3600000Y-32500000D01*
X2049999Y-33261999D02*
X2811998Y-32500000D01*
X2049999Y-34815697D02*
X2049999Y-33261999D01*
X4034302Y-36800000D02*
X2049999Y-34815697D01*
X6400000Y-35750000D02*
X6400000Y-36400000D01*
X6400000Y-36400000D02*
X6800000Y-36800000D01*
X9088002Y-32450000D02*
X8400000Y-32450000D01*
X9950001Y-33311999D02*
X9088002Y-32450000D01*
X9950001Y-34815697D02*
X9950001Y-33311999D01*
X7965698Y-36800000D02*
X9950001Y-34815697D01*
X6800000Y-36800000D02*
X7965698Y-36800000D01*
X9350000Y-34850000D02*
X9350000Y-33600000D01*
X8350000Y-35850000D02*
X9350000Y-34850000D01*
X7200000Y-35850000D02*
X8350000Y-35850000D01*
X20600000Y-35750000D02*
X20600000Y-36400000D01*
X20600000Y-36400000D02*
X20200000Y-36800000D01*
X17811998Y-32500000D02*
X18600000Y-32500000D01*
X17049999Y-33261999D02*
X17811998Y-32500000D01*
X17049999Y-34615698D02*
X17049999Y-33261999D01*
X19234301Y-36800000D02*
X17049999Y-34615698D01*
X20200000Y-36800000D02*
X19234301Y-36800000D01*
X17650000Y-33550000D02*
X17650000Y-34650000D01*
X18850000Y-35850000D02*
X17650000Y-34650000D01*
X19800000Y-35850000D02*
X18850000Y-35850000D01*
X24350000Y-33600000D02*
X24350000Y-34850000D01*
X23350000Y-35850000D02*
X24350000Y-34850000D01*
X22200000Y-35850000D02*
X23350000Y-35850000D01*
X21400000Y-36425000D02*
X21775000Y-36800000D01*
X21400000Y-35750000D02*
X21400000Y-36425000D01*
X24088002Y-32450000D02*
X23400000Y-32450000D01*
X24950001Y-33311999D02*
X24088002Y-32450000D01*
X24950001Y-34815697D02*
X24950001Y-33311999D01*
X22965698Y-36800000D02*
X24950001Y-34815697D01*
X21775000Y-36800000D02*
X22965698Y-36800000D01*
X26100000Y-20250000D02*
X26100000Y-19400000D01*
D17*
X23475000Y-24075000D02*
X22950000Y-23550000D01*
X23550000Y-24075000D02*
X23475000Y-24075000D01*
X23625000Y-24075000D02*
X24150000Y-23550000D01*
X23550000Y-24075000D02*
X23625000Y-24075000D01*
X23550000Y-23550000D02*
X23550000Y-24075000D01*
X22950000Y-23550000D02*
X24150000Y-23550000D01*
X29610000Y-17760000D02*
X30100000Y-18250000D01*
X29450000Y-17760000D02*
X29610000Y-17760000D01*
X29390000Y-17760000D02*
X28900000Y-18250000D01*
X29450000Y-17760000D02*
X29390000Y-17760000D01*
X28900000Y-18250000D02*
X30100000Y-18250000D01*
X9050000Y-18250000D02*
X7850000Y-18250000D01*
X8340000Y-17760000D02*
X7850000Y-18250000D01*
X8450000Y-17760000D02*
X8340000Y-17760000D01*
X8560000Y-17760000D02*
X9050000Y-18250000D01*
X8450000Y-17760000D02*
X8560000Y-17760000D01*
X8450000Y-18250000D02*
X8450000Y-17760000D01*
X8340000Y-28260000D02*
X7850000Y-28750000D01*
X8450000Y-28260000D02*
X8340000Y-28260000D01*
X7850000Y-28750000D02*
X9050000Y-28750000D01*
X8560000Y-28260000D02*
X9050000Y-28750000D01*
X8450000Y-28260000D02*
X8560000Y-28260000D01*
D16*
X15000000Y-11750000D02*
X15000000Y-11100000D01*
X17000000Y-11150000D02*
X17000000Y-11750000D01*
X19000000Y-11100000D02*
X19000000Y-11750000D01*
X1510000Y-25660000D02*
X1500000Y-25650000D01*
X2550000Y-25660000D02*
X1510000Y-25660000D01*
X1510000Y-15160000D02*
X1500000Y-15150000D01*
X2550000Y-15160000D02*
X1510000Y-15160000D01*
X23550000Y-13860000D02*
X22500000Y-13860000D01*
X16050000Y-18500000D02*
X18450000Y-18500000D01*
X19700000Y-19750000D02*
X21300000Y-19750000D01*
X13000000Y-11100000D02*
X13000000Y-11750000D01*
X14750000Y-25000000D02*
X17250000Y-25000000D01*
X14750000Y-17000000D02*
X17250000Y-17000000D01*
X13200000Y-17400000D02*
X13600000Y-17000000D01*
X13200000Y-19400000D02*
X13200000Y-17400000D01*
X13600000Y-17000000D02*
X14750000Y-17000000D01*
X13200000Y-22800000D02*
X13200000Y-24600000D01*
X13600000Y-25000000D02*
X14750000Y-25000000D01*
X13200000Y-24600000D02*
X13600000Y-25000000D01*
D18*
X12879723Y-22202187D02*
X12769713Y-22275693D01*
X12675693Y-22369713D01*
X12601823Y-22480268D01*
X12550940Y-22603110D01*
X12525000Y-22733518D01*
X12525000Y-22866482D01*
X12550940Y-22996890D01*
X12601823Y-23119732D01*
X12675693Y-23230287D01*
X12725000Y-23279594D01*
X12725001Y-24576658D01*
X12722702Y-24600000D01*
X12731873Y-24693116D01*
X12752924Y-24762510D01*
X12759035Y-24782654D01*
X12803142Y-24865173D01*
X12862500Y-24937501D01*
X12880629Y-24952379D01*
X13247620Y-25319371D01*
X13262499Y-25337501D01*
X13334827Y-25396859D01*
X13417346Y-25440966D01*
X13473186Y-25457905D01*
X13473186Y-25500000D01*
X13480426Y-25573513D01*
X13501869Y-25644200D01*
X13536691Y-25709347D01*
X13583552Y-25766448D01*
X13640653Y-25813309D01*
X13705800Y-25848131D01*
X13776487Y-25869574D01*
X13850000Y-25876814D01*
X15650000Y-25876814D01*
X15723513Y-25869574D01*
X15794200Y-25848131D01*
X15859347Y-25813309D01*
X15916448Y-25766448D01*
X15963309Y-25709347D01*
X15998131Y-25644200D01*
X16000000Y-25638039D01*
X16001869Y-25644200D01*
X16036691Y-25709347D01*
X16083552Y-25766448D01*
X16140653Y-25813309D01*
X16205800Y-25848131D01*
X16276487Y-25869574D01*
X16350000Y-25876814D01*
X18150000Y-25876814D01*
X18223513Y-25869574D01*
X18294200Y-25848131D01*
X18359347Y-25813309D01*
X18416448Y-25766448D01*
X18463309Y-25709347D01*
X18498131Y-25644200D01*
X18519574Y-25573513D01*
X18526814Y-25500000D01*
X18526814Y-24598565D01*
X18972625Y-25044377D01*
X18987499Y-25062501D01*
X19005622Y-25077374D01*
X19059827Y-25121859D01*
X19142346Y-25165966D01*
X19231884Y-25193127D01*
X19325000Y-25202298D01*
X19348332Y-25200000D01*
X22423186Y-25200000D01*
X22423186Y-25574679D01*
X22392346Y-25584034D01*
X22309827Y-25628141D01*
X22237499Y-25687499D01*
X22222620Y-25705629D01*
X21880634Y-26047616D01*
X21862499Y-26062499D01*
X21803141Y-26134827D01*
X21759034Y-26217347D01*
X21748844Y-26250940D01*
X21731873Y-26306884D01*
X21722702Y-26400000D01*
X21725000Y-26423333D01*
X21725001Y-27576658D01*
X21722702Y-27600000D01*
X21731873Y-27693116D01*
X21749852Y-27752383D01*
X21759035Y-27782654D01*
X21803142Y-27865173D01*
X21862500Y-27937501D01*
X21880629Y-27952379D01*
X22222620Y-28294371D01*
X22237499Y-28312501D01*
X22309827Y-28371859D01*
X22392346Y-28415966D01*
X22454722Y-28434888D01*
X22481883Y-28443127D01*
X22542923Y-28449139D01*
X22590653Y-28488309D01*
X22655800Y-28523131D01*
X22726487Y-28544574D01*
X22800000Y-28551814D01*
X24300000Y-28551814D01*
X24373513Y-28544574D01*
X24444200Y-28523131D01*
X24509347Y-28488309D01*
X24566448Y-28441448D01*
X24613309Y-28384347D01*
X24648131Y-28319200D01*
X24669574Y-28248513D01*
X24676814Y-28175000D01*
X24676814Y-27800000D01*
X24728250Y-27800000D01*
X25222625Y-28294377D01*
X25237499Y-28312501D01*
X25309827Y-28371859D01*
X25338712Y-28387298D01*
X25392345Y-28415966D01*
X25481884Y-28443127D01*
X25575000Y-28452298D01*
X25598332Y-28450000D01*
X28443973Y-28450000D01*
X28490653Y-28488309D01*
X28555800Y-28523131D01*
X28626487Y-28544574D01*
X28700000Y-28551814D01*
X30200000Y-28551814D01*
X30273513Y-28544574D01*
X30344200Y-28523131D01*
X30409347Y-28488309D01*
X30456027Y-28450000D01*
X30801668Y-28450000D01*
X30825000Y-28452298D01*
X30848332Y-28450000D01*
X30918116Y-28443127D01*
X31007654Y-28415966D01*
X31090173Y-28371859D01*
X31162501Y-28312501D01*
X31177384Y-28294366D01*
X31519371Y-27952380D01*
X31537501Y-27937501D01*
X31550000Y-27922271D01*
X31550000Y-41550000D01*
X30647253Y-41550000D01*
X30645852Y-41535773D01*
X30643489Y-41511785D01*
X30617757Y-41426959D01*
X30575971Y-41348784D01*
X30519737Y-41280263D01*
X30518077Y-41278901D01*
X30451216Y-41224029D01*
X30373041Y-41182243D01*
X30288215Y-41156511D01*
X30222105Y-41150000D01*
X30222104Y-41150000D01*
X30200000Y-41147823D01*
X30177895Y-41150000D01*
X28622104Y-41150000D01*
X28600000Y-41147823D01*
X28577895Y-41150000D01*
X28511785Y-41156511D01*
X28426959Y-41182243D01*
X28348784Y-41224029D01*
X28280263Y-41280263D01*
X28224029Y-41348784D01*
X28182243Y-41426959D01*
X28156511Y-41511785D01*
X28152747Y-41550000D01*
X27050000Y-41550000D01*
X27050000Y-40822105D01*
X27052177Y-40800000D01*
X27043489Y-40711785D01*
X27017757Y-40626959D01*
X26975971Y-40548784D01*
X26919737Y-40480263D01*
X26851216Y-40424029D01*
X26773041Y-40382243D01*
X26688215Y-40356511D01*
X26622105Y-40350000D01*
X26622104Y-40350000D01*
X26600000Y-40347823D01*
X26577895Y-40350000D01*
X23222105Y-40350000D01*
X23200000Y-40347823D01*
X23177896Y-40350000D01*
X23177895Y-40350000D01*
X23111785Y-40356511D01*
X23026959Y-40382243D01*
X22948784Y-40424029D01*
X22880263Y-40480263D01*
X22824029Y-40548784D01*
X22782243Y-40626959D01*
X22756511Y-40711785D01*
X22747823Y-40800000D01*
X22750001Y-40822114D01*
X22750000Y-41550000D01*
X9250000Y-41550000D01*
X9250000Y-40822105D01*
X9252177Y-40800000D01*
X9243489Y-40711785D01*
X9217757Y-40626959D01*
X9175971Y-40548784D01*
X9119737Y-40480263D01*
X9051216Y-40424029D01*
X8973041Y-40382243D01*
X8888215Y-40356511D01*
X8822105Y-40350000D01*
X8822104Y-40350000D01*
X8800000Y-40347823D01*
X8777895Y-40350000D01*
X5422105Y-40350000D01*
X5400000Y-40347823D01*
X5377896Y-40350000D01*
X5377895Y-40350000D01*
X5311785Y-40356511D01*
X5226959Y-40382243D01*
X5148784Y-40424029D01*
X5080263Y-40480263D01*
X5024029Y-40548784D01*
X4982243Y-40626959D01*
X4956511Y-40711785D01*
X4947823Y-40800000D01*
X4950001Y-40822114D01*
X4950000Y-41550000D01*
X3847253Y-41550000D01*
X3845852Y-41535773D01*
X3843489Y-41511785D01*
X3817757Y-41426959D01*
X3775971Y-41348784D01*
X3719737Y-41280263D01*
X3718077Y-41278901D01*
X3651216Y-41224029D01*
X3573041Y-41182243D01*
X3488215Y-41156511D01*
X3422105Y-41150000D01*
X3422104Y-41150000D01*
X3400000Y-41147823D01*
X3377895Y-41150000D01*
X1822104Y-41150000D01*
X1800000Y-41147823D01*
X1777895Y-41150000D01*
X1711785Y-41156511D01*
X1626959Y-41182243D01*
X1548784Y-41224029D01*
X1480263Y-41280263D01*
X1424029Y-41348784D01*
X1382243Y-41426959D01*
X1356511Y-41511785D01*
X1352747Y-41550000D01*
X450000Y-41550000D01*
X450000Y-27592461D01*
X820533Y-27962995D01*
X836973Y-27983027D01*
X916914Y-28048633D01*
X1008119Y-28097383D01*
X1107082Y-28127403D01*
X1184212Y-28135000D01*
X1184219Y-28135000D01*
X1209999Y-28137539D01*
X1235779Y-28135000D01*
X1423186Y-28135000D01*
X1423186Y-28460000D01*
X1430426Y-28533513D01*
X1451869Y-28604200D01*
X1486691Y-28669347D01*
X1533552Y-28726448D01*
X1590653Y-28773309D01*
X1655800Y-28808131D01*
X1726487Y-28829574D01*
X1800000Y-28836814D01*
X3300000Y-28836814D01*
X3373513Y-28829574D01*
X3444200Y-28808131D01*
X3472476Y-28793017D01*
X3480198Y-28798177D01*
X3603040Y-28849060D01*
X3733448Y-28875000D01*
X3866412Y-28875000D01*
X3924930Y-28863360D01*
X3924930Y-30124493D01*
X3922632Y-30147825D01*
X3931803Y-30240941D01*
X3936800Y-30257413D01*
X3958964Y-30330478D01*
X4003071Y-30412998D01*
X4062429Y-30485326D01*
X4080564Y-30500209D01*
X4325001Y-30744646D01*
X4325000Y-33343972D01*
X4286691Y-33390653D01*
X4251869Y-33455800D01*
X4230426Y-33526487D01*
X4223186Y-33600000D01*
X4223186Y-34700000D01*
X4230426Y-34773513D01*
X4251869Y-34844200D01*
X4286691Y-34909347D01*
X4333552Y-34966448D01*
X4374436Y-35000000D01*
X4333552Y-35033552D01*
X4286691Y-35090653D01*
X4251869Y-35155800D01*
X4230426Y-35226487D01*
X4223186Y-35300000D01*
X4223186Y-35375000D01*
X3846752Y-35375000D01*
X3125000Y-34653250D01*
X3125000Y-34029594D01*
X3174307Y-33980287D01*
X3248177Y-33869732D01*
X3299060Y-33746890D01*
X3325000Y-33616482D01*
X3325000Y-33483518D01*
X3299060Y-33353110D01*
X3248177Y-33230268D01*
X3174307Y-33119713D01*
X3080287Y-33025693D01*
X3007015Y-32976734D01*
X3008749Y-32975000D01*
X3120406Y-32975000D01*
X3169713Y-33024307D01*
X3280268Y-33098177D01*
X3403110Y-33149060D01*
X3533518Y-33175000D01*
X3666482Y-33175000D01*
X3796890Y-33149060D01*
X3919732Y-33098177D01*
X4030287Y-33024307D01*
X4124307Y-32930287D01*
X4198177Y-32819732D01*
X4249060Y-32696890D01*
X4275000Y-32566482D01*
X4275000Y-32433518D01*
X4249060Y-32303110D01*
X4198177Y-32180268D01*
X4124307Y-32069713D01*
X4030287Y-31975693D01*
X3919732Y-31901823D01*
X3796890Y-31850940D01*
X3666482Y-31825000D01*
X3533518Y-31825000D01*
X3403110Y-31850940D01*
X3280268Y-31901823D01*
X3169713Y-31975693D01*
X3120406Y-32025000D01*
X2835329Y-32025000D01*
X2811997Y-32022702D01*
X2718881Y-32031873D01*
X2691720Y-32040112D01*
X2629344Y-32059034D01*
X2546825Y-32103141D01*
X2474497Y-32162499D01*
X2459618Y-32180629D01*
X1730628Y-32909620D01*
X1712499Y-32924498D01*
X1653141Y-32996826D01*
X1626416Y-33046826D01*
X1609034Y-33079345D01*
X1581872Y-33168883D01*
X1572701Y-33261999D01*
X1575000Y-33285341D01*
X1574999Y-34792364D01*
X1572701Y-34815697D01*
X1581872Y-34908813D01*
X1589839Y-34935075D01*
X1609033Y-34998350D01*
X1653140Y-35080870D01*
X1712498Y-35153198D01*
X1730633Y-35168081D01*
X3681923Y-37119372D01*
X3696801Y-37137501D01*
X3769129Y-37196859D01*
X3851648Y-37240966D01*
X3914024Y-37259888D01*
X3941185Y-37268127D01*
X4034301Y-37277298D01*
X4057633Y-37275000D01*
X5176668Y-37275000D01*
X5200000Y-37277298D01*
X5223332Y-37275000D01*
X5293116Y-37268127D01*
X5382654Y-37240966D01*
X5465173Y-37196859D01*
X5537501Y-37137501D01*
X5552384Y-37119366D01*
X5914658Y-36757092D01*
X5944200Y-36748131D01*
X6000000Y-36718305D01*
X6055800Y-36748131D01*
X6085343Y-36757093D01*
X6447620Y-37119371D01*
X6462499Y-37137501D01*
X6534827Y-37196859D01*
X6617346Y-37240966D01*
X6679722Y-37259888D01*
X6706883Y-37268127D01*
X6799999Y-37277298D01*
X6823331Y-37275000D01*
X7942366Y-37275000D01*
X7965698Y-37277298D01*
X7989030Y-37275000D01*
X8058814Y-37268127D01*
X8148352Y-37240966D01*
X8230871Y-37196859D01*
X8303199Y-37137501D01*
X8318082Y-37119366D01*
X10269373Y-35168076D01*
X10287502Y-35153198D01*
X10346860Y-35080870D01*
X10390967Y-34998351D01*
X10418128Y-34908813D01*
X10421623Y-34873331D01*
X10427299Y-34815698D01*
X10425001Y-34792366D01*
X10425001Y-33335331D01*
X10427299Y-33311999D01*
X10418128Y-33218883D01*
X10390967Y-33129345D01*
X10385819Y-33119713D01*
X10346860Y-33046826D01*
X10287502Y-32974498D01*
X10269378Y-32959624D01*
X9440386Y-32130634D01*
X9425503Y-32112499D01*
X9353175Y-32053141D01*
X9270656Y-32009034D01*
X9181118Y-31981873D01*
X9088002Y-31972702D01*
X9064670Y-31975000D01*
X8879594Y-31975000D01*
X8830287Y-31925693D01*
X8719732Y-31851823D01*
X8596890Y-31800940D01*
X8466482Y-31775000D01*
X8333518Y-31775000D01*
X8203110Y-31800940D01*
X8080268Y-31851823D01*
X7969713Y-31925693D01*
X7875693Y-32019713D01*
X7801823Y-32130268D01*
X7750940Y-32253110D01*
X7725000Y-32383518D01*
X7725000Y-32516482D01*
X7750940Y-32646890D01*
X7801823Y-32769732D01*
X7875693Y-32880287D01*
X7969713Y-32974307D01*
X8080268Y-33048177D01*
X8203110Y-33099060D01*
X8333518Y-33125000D01*
X8466482Y-33125000D01*
X8596890Y-33099060D01*
X8719732Y-33048177D01*
X8830287Y-32974307D01*
X8879594Y-32925000D01*
X8891252Y-32925000D01*
X8992986Y-33026734D01*
X8919713Y-33075693D01*
X8825693Y-33169713D01*
X8751823Y-33280268D01*
X8700940Y-33403110D01*
X8675000Y-33533518D01*
X8675000Y-33666482D01*
X8700940Y-33796890D01*
X8751823Y-33919732D01*
X8825693Y-34030287D01*
X8875001Y-34079595D01*
X8875000Y-34653248D01*
X8153250Y-35375000D01*
X7776814Y-35375000D01*
X7776814Y-35300000D01*
X7769574Y-35226487D01*
X7748131Y-35155800D01*
X7713309Y-35090653D01*
X7666448Y-35033552D01*
X7625564Y-35000000D01*
X7666448Y-34966448D01*
X7713309Y-34909347D01*
X7748131Y-34844200D01*
X7769574Y-34773513D01*
X7776814Y-34700000D01*
X7776814Y-33600000D01*
X7769574Y-33526487D01*
X7748131Y-33455800D01*
X7713309Y-33390653D01*
X7675000Y-33343973D01*
X7675000Y-31274129D01*
X7677298Y-31250797D01*
X7668127Y-31157681D01*
X7652718Y-31106885D01*
X7643055Y-31075030D01*
X19003280Y-31075030D01*
X19325000Y-31396752D01*
X19325001Y-33226659D01*
X19325000Y-33226669D01*
X19325000Y-33343973D01*
X19286691Y-33390653D01*
X19251869Y-33455800D01*
X19230426Y-33526487D01*
X19223186Y-33600000D01*
X19223186Y-34700000D01*
X19230426Y-34773513D01*
X19251869Y-34844200D01*
X19286691Y-34909347D01*
X19333552Y-34966448D01*
X19374436Y-35000000D01*
X19333552Y-35033552D01*
X19286691Y-35090653D01*
X19251869Y-35155800D01*
X19230426Y-35226487D01*
X19223186Y-35300000D01*
X19223186Y-35375000D01*
X19046751Y-35375000D01*
X18125000Y-34453250D01*
X18125000Y-34029594D01*
X18174307Y-33980287D01*
X18248177Y-33869732D01*
X18299060Y-33746890D01*
X18325000Y-33616482D01*
X18325000Y-33483518D01*
X18299060Y-33353110D01*
X18248177Y-33230268D01*
X18174307Y-33119713D01*
X18080287Y-33025693D01*
X18007015Y-32976734D01*
X18008749Y-32975000D01*
X18120406Y-32975000D01*
X18169713Y-33024307D01*
X18280268Y-33098177D01*
X18403110Y-33149060D01*
X18533518Y-33175000D01*
X18666482Y-33175000D01*
X18796890Y-33149060D01*
X18919732Y-33098177D01*
X19030287Y-33024307D01*
X19124307Y-32930287D01*
X19198177Y-32819732D01*
X19249060Y-32696890D01*
X19275000Y-32566482D01*
X19275000Y-32433518D01*
X19249060Y-32303110D01*
X19198177Y-32180268D01*
X19124307Y-32069713D01*
X19030287Y-31975693D01*
X18919732Y-31901823D01*
X18796890Y-31850940D01*
X18666482Y-31825000D01*
X18533518Y-31825000D01*
X18403110Y-31850940D01*
X18280268Y-31901823D01*
X18169713Y-31975693D01*
X18120406Y-32025000D01*
X17835329Y-32025000D01*
X17811997Y-32022702D01*
X17718881Y-32031873D01*
X17691720Y-32040112D01*
X17629344Y-32059034D01*
X17546825Y-32103141D01*
X17474497Y-32162499D01*
X17459618Y-32180629D01*
X16730628Y-32909620D01*
X16712499Y-32924498D01*
X16653141Y-32996826D01*
X16626416Y-33046826D01*
X16609034Y-33079345D01*
X16581872Y-33168883D01*
X16572701Y-33261999D01*
X16575000Y-33285341D01*
X16574999Y-34592365D01*
X16572701Y-34615698D01*
X16577788Y-34667346D01*
X16581872Y-34708813D01*
X16609033Y-34798351D01*
X16653140Y-34880871D01*
X16712498Y-34953199D01*
X16730633Y-34968082D01*
X18881926Y-37119377D01*
X18896800Y-37137501D01*
X18914922Y-37152373D01*
X18914923Y-37152374D01*
X18969128Y-37196859D01*
X19051647Y-37240966D01*
X19141185Y-37268127D01*
X19234301Y-37277298D01*
X19257633Y-37275000D01*
X20176668Y-37275000D01*
X20200000Y-37277298D01*
X20223332Y-37275000D01*
X20293116Y-37268127D01*
X20382654Y-37240966D01*
X20465173Y-37196859D01*
X20537501Y-37137501D01*
X20552384Y-37119366D01*
X20914658Y-36757092D01*
X20944200Y-36748131D01*
X21000000Y-36718305D01*
X21046727Y-36743281D01*
X21062500Y-36762501D01*
X21080629Y-36777379D01*
X21422620Y-37119371D01*
X21437499Y-37137501D01*
X21509827Y-37196859D01*
X21592346Y-37240966D01*
X21654722Y-37259888D01*
X21681883Y-37268127D01*
X21774999Y-37277298D01*
X21798332Y-37275000D01*
X22942366Y-37275000D01*
X22965698Y-37277298D01*
X22989030Y-37275000D01*
X23058814Y-37268127D01*
X23148352Y-37240966D01*
X23230871Y-37196859D01*
X23303199Y-37137501D01*
X23318082Y-37119366D01*
X25269373Y-35168076D01*
X25287502Y-35153198D01*
X25346860Y-35080870D01*
X25390967Y-34998351D01*
X25418128Y-34908813D01*
X25421623Y-34873331D01*
X25427299Y-34815698D01*
X25425001Y-34792366D01*
X25425001Y-33335331D01*
X25427299Y-33311999D01*
X25418128Y-33218883D01*
X25390967Y-33129345D01*
X25385819Y-33119713D01*
X25346860Y-33046826D01*
X25287502Y-32974498D01*
X25269378Y-32959624D01*
X24440386Y-32130634D01*
X24425503Y-32112499D01*
X24353175Y-32053141D01*
X24270656Y-32009034D01*
X24181118Y-31981873D01*
X24088002Y-31972702D01*
X24064670Y-31975000D01*
X23879594Y-31975000D01*
X23830287Y-31925693D01*
X23719732Y-31851823D01*
X23596890Y-31800940D01*
X23466482Y-31775000D01*
X23333518Y-31775000D01*
X23203110Y-31800940D01*
X23080268Y-31851823D01*
X22969713Y-31925693D01*
X22875693Y-32019713D01*
X22801823Y-32130268D01*
X22750940Y-32253110D01*
X22725000Y-32383518D01*
X22725000Y-32516482D01*
X22750940Y-32646890D01*
X22801823Y-32769732D01*
X22875693Y-32880287D01*
X22969713Y-32974307D01*
X23080268Y-33048177D01*
X23203110Y-33099060D01*
X23333518Y-33125000D01*
X23466482Y-33125000D01*
X23596890Y-33099060D01*
X23719732Y-33048177D01*
X23830287Y-32974307D01*
X23879594Y-32925000D01*
X23891252Y-32925000D01*
X23992986Y-33026734D01*
X23919713Y-33075693D01*
X23825693Y-33169713D01*
X23751823Y-33280268D01*
X23700940Y-33403110D01*
X23675000Y-33533518D01*
X23675000Y-33666482D01*
X23700940Y-33796890D01*
X23751823Y-33919732D01*
X23825693Y-34030287D01*
X23875000Y-34079594D01*
X23875001Y-34653247D01*
X23153250Y-35375000D01*
X22776814Y-35375000D01*
X22776814Y-35300000D01*
X22769574Y-35226487D01*
X22748131Y-35155800D01*
X22713309Y-35090653D01*
X22666448Y-35033552D01*
X22625564Y-35000000D01*
X22666448Y-34966448D01*
X22713309Y-34909347D01*
X22748131Y-34844200D01*
X22769574Y-34773513D01*
X22776814Y-34700000D01*
X22776814Y-33600000D01*
X22769574Y-33526487D01*
X22748131Y-33455800D01*
X22713309Y-33390653D01*
X22675000Y-33343973D01*
X22675000Y-30223332D01*
X22677298Y-30200000D01*
X22668127Y-30106884D01*
X22640966Y-30017345D01*
X22615731Y-29970135D01*
X22596859Y-29934827D01*
X22537501Y-29862499D01*
X22519377Y-29847625D01*
X21752384Y-29080634D01*
X21737501Y-29062499D01*
X21665173Y-29003141D01*
X21582654Y-28959034D01*
X21493116Y-28931873D01*
X21423332Y-28925000D01*
X21400000Y-28922702D01*
X21376668Y-28925000D01*
X7808749Y-28925000D01*
X7720504Y-28836755D01*
X8331250Y-28835000D01*
X8425000Y-28741250D01*
X8425000Y-28285000D01*
X8475000Y-28285000D01*
X8475000Y-28741250D01*
X8568750Y-28835000D01*
X9200000Y-28836814D01*
X9273513Y-28829574D01*
X9344200Y-28808131D01*
X9409347Y-28773309D01*
X9466448Y-28726448D01*
X9513309Y-28669347D01*
X9548131Y-28604200D01*
X9569574Y-28533513D01*
X9576814Y-28460000D01*
X9575000Y-28378750D01*
X9481250Y-28285000D01*
X8475000Y-28285000D01*
X8425000Y-28285000D01*
X8405000Y-28285000D01*
X8405000Y-28235000D01*
X8425000Y-28235000D01*
X8425000Y-28215000D01*
X8475000Y-28215000D01*
X8475000Y-28235000D01*
X9481250Y-28235000D01*
X9575000Y-28141250D01*
X9576814Y-28060000D01*
X9569574Y-27986487D01*
X9553955Y-27935000D01*
X9569574Y-27883513D01*
X9576814Y-27810000D01*
X9576814Y-27410000D01*
X9569574Y-27336487D01*
X9553955Y-27285000D01*
X9569574Y-27233513D01*
X9576814Y-27160000D01*
X9576814Y-26760000D01*
X9569574Y-26686487D01*
X9553955Y-26635000D01*
X9569574Y-26583513D01*
X9576814Y-26510000D01*
X9576814Y-26110000D01*
X9569574Y-26036487D01*
X9553955Y-25985000D01*
X9569574Y-25933513D01*
X9576814Y-25860000D01*
X9576814Y-25460000D01*
X9569574Y-25386487D01*
X9553955Y-25335000D01*
X9569574Y-25283513D01*
X9576814Y-25210000D01*
X9576814Y-24810000D01*
X9569574Y-24736487D01*
X9553955Y-24685000D01*
X9569574Y-24633513D01*
X9576814Y-24560000D01*
X9576814Y-24160000D01*
X9569574Y-24086487D01*
X9553955Y-24035000D01*
X9569574Y-23983513D01*
X9576814Y-23910000D01*
X9576814Y-23510000D01*
X9569574Y-23436487D01*
X9548131Y-23365800D01*
X9513309Y-23300653D01*
X9466448Y-23243552D01*
X9409347Y-23196691D01*
X9344200Y-23161869D01*
X9273513Y-23140426D01*
X9200000Y-23133186D01*
X7700000Y-23133186D01*
X7626487Y-23140426D01*
X7555800Y-23161869D01*
X7490653Y-23196691D01*
X7443973Y-23235000D01*
X6513332Y-23235000D01*
X6490000Y-23232702D01*
X6396884Y-23241873D01*
X6307345Y-23269034D01*
X6300936Y-23272460D01*
X6224827Y-23313141D01*
X6152499Y-23372499D01*
X6137625Y-23390623D01*
X4857206Y-24671043D01*
X4840896Y-24617276D01*
X4796789Y-24534757D01*
X4737431Y-24462429D01*
X4719301Y-24447550D01*
X4506750Y-24235000D01*
X4864220Y-24235000D01*
X4890000Y-24237539D01*
X4915780Y-24235000D01*
X4915788Y-24235000D01*
X4992918Y-24227403D01*
X5091881Y-24197383D01*
X5183086Y-24148633D01*
X5263027Y-24083027D01*
X5279471Y-24062990D01*
X7467442Y-21875020D01*
X12552557Y-21875020D01*
X12879723Y-22202187D01*
G04 #@! TA.AperFunction,Conductor*
D19*
G36*
X12879723Y-22202187D02*
G01*
X12769713Y-22275693D01*
X12675693Y-22369713D01*
X12601823Y-22480268D01*
X12550940Y-22603110D01*
X12525000Y-22733518D01*
X12525000Y-22866482D01*
X12550940Y-22996890D01*
X12601823Y-23119732D01*
X12675693Y-23230287D01*
X12725000Y-23279594D01*
X12725001Y-24576658D01*
X12722702Y-24600000D01*
X12731873Y-24693116D01*
X12752924Y-24762510D01*
X12759035Y-24782654D01*
X12803142Y-24865173D01*
X12862500Y-24937501D01*
X12880629Y-24952379D01*
X13247620Y-25319371D01*
X13262499Y-25337501D01*
X13334827Y-25396859D01*
X13417346Y-25440966D01*
X13473186Y-25457905D01*
X13473186Y-25500000D01*
X13480426Y-25573513D01*
X13501869Y-25644200D01*
X13536691Y-25709347D01*
X13583552Y-25766448D01*
X13640653Y-25813309D01*
X13705800Y-25848131D01*
X13776487Y-25869574D01*
X13850000Y-25876814D01*
X15650000Y-25876814D01*
X15723513Y-25869574D01*
X15794200Y-25848131D01*
X15859347Y-25813309D01*
X15916448Y-25766448D01*
X15963309Y-25709347D01*
X15998131Y-25644200D01*
X16000000Y-25638039D01*
X16001869Y-25644200D01*
X16036691Y-25709347D01*
X16083552Y-25766448D01*
X16140653Y-25813309D01*
X16205800Y-25848131D01*
X16276487Y-25869574D01*
X16350000Y-25876814D01*
X18150000Y-25876814D01*
X18223513Y-25869574D01*
X18294200Y-25848131D01*
X18359347Y-25813309D01*
X18416448Y-25766448D01*
X18463309Y-25709347D01*
X18498131Y-25644200D01*
X18519574Y-25573513D01*
X18526814Y-25500000D01*
X18526814Y-24598565D01*
X18972625Y-25044377D01*
X18987499Y-25062501D01*
X19005622Y-25077374D01*
X19059827Y-25121859D01*
X19142346Y-25165966D01*
X19231884Y-25193127D01*
X19325000Y-25202298D01*
X19348332Y-25200000D01*
X22423186Y-25200000D01*
X22423186Y-25574679D01*
X22392346Y-25584034D01*
X22309827Y-25628141D01*
X22237499Y-25687499D01*
X22222620Y-25705629D01*
X21880634Y-26047616D01*
X21862499Y-26062499D01*
X21803141Y-26134827D01*
X21759034Y-26217347D01*
X21748844Y-26250940D01*
X21731873Y-26306884D01*
X21722702Y-26400000D01*
X21725000Y-26423333D01*
X21725001Y-27576658D01*
X21722702Y-27600000D01*
X21731873Y-27693116D01*
X21749852Y-27752383D01*
X21759035Y-27782654D01*
X21803142Y-27865173D01*
X21862500Y-27937501D01*
X21880629Y-27952379D01*
X22222620Y-28294371D01*
X22237499Y-28312501D01*
X22309827Y-28371859D01*
X22392346Y-28415966D01*
X22454722Y-28434888D01*
X22481883Y-28443127D01*
X22542923Y-28449139D01*
X22590653Y-28488309D01*
X22655800Y-28523131D01*
X22726487Y-28544574D01*
X22800000Y-28551814D01*
X24300000Y-28551814D01*
X24373513Y-28544574D01*
X24444200Y-28523131D01*
X24509347Y-28488309D01*
X24566448Y-28441448D01*
X24613309Y-28384347D01*
X24648131Y-28319200D01*
X24669574Y-28248513D01*
X24676814Y-28175000D01*
X24676814Y-27800000D01*
X24728250Y-27800000D01*
X25222625Y-28294377D01*
X25237499Y-28312501D01*
X25309827Y-28371859D01*
X25338712Y-28387298D01*
X25392345Y-28415966D01*
X25481884Y-28443127D01*
X25575000Y-28452298D01*
X25598332Y-28450000D01*
X28443973Y-28450000D01*
X28490653Y-28488309D01*
X28555800Y-28523131D01*
X28626487Y-28544574D01*
X28700000Y-28551814D01*
X30200000Y-28551814D01*
X30273513Y-28544574D01*
X30344200Y-28523131D01*
X30409347Y-28488309D01*
X30456027Y-28450000D01*
X30801668Y-28450000D01*
X30825000Y-28452298D01*
X30848332Y-28450000D01*
X30918116Y-28443127D01*
X31007654Y-28415966D01*
X31090173Y-28371859D01*
X31162501Y-28312501D01*
X31177384Y-28294366D01*
X31519371Y-27952380D01*
X31537501Y-27937501D01*
X31550000Y-27922271D01*
X31550000Y-41550000D01*
X30647253Y-41550000D01*
X30645852Y-41535773D01*
X30643489Y-41511785D01*
X30617757Y-41426959D01*
X30575971Y-41348784D01*
X30519737Y-41280263D01*
X30518077Y-41278901D01*
X30451216Y-41224029D01*
X30373041Y-41182243D01*
X30288215Y-41156511D01*
X30222105Y-41150000D01*
X30222104Y-41150000D01*
X30200000Y-41147823D01*
X30177895Y-41150000D01*
X28622104Y-41150000D01*
X28600000Y-41147823D01*
X28577895Y-41150000D01*
X28511785Y-41156511D01*
X28426959Y-41182243D01*
X28348784Y-41224029D01*
X28280263Y-41280263D01*
X28224029Y-41348784D01*
X28182243Y-41426959D01*
X28156511Y-41511785D01*
X28152747Y-41550000D01*
X27050000Y-41550000D01*
X27050000Y-40822105D01*
X27052177Y-40800000D01*
X27043489Y-40711785D01*
X27017757Y-40626959D01*
X26975971Y-40548784D01*
X26919737Y-40480263D01*
X26851216Y-40424029D01*
X26773041Y-40382243D01*
X26688215Y-40356511D01*
X26622105Y-40350000D01*
X26622104Y-40350000D01*
X26600000Y-40347823D01*
X26577895Y-40350000D01*
X23222105Y-40350000D01*
X23200000Y-40347823D01*
X23177896Y-40350000D01*
X23177895Y-40350000D01*
X23111785Y-40356511D01*
X23026959Y-40382243D01*
X22948784Y-40424029D01*
X22880263Y-40480263D01*
X22824029Y-40548784D01*
X22782243Y-40626959D01*
X22756511Y-40711785D01*
X22747823Y-40800000D01*
X22750001Y-40822114D01*
X22750000Y-41550000D01*
X9250000Y-41550000D01*
X9250000Y-40822105D01*
X9252177Y-40800000D01*
X9243489Y-40711785D01*
X9217757Y-40626959D01*
X9175971Y-40548784D01*
X9119737Y-40480263D01*
X9051216Y-40424029D01*
X8973041Y-40382243D01*
X8888215Y-40356511D01*
X8822105Y-40350000D01*
X8822104Y-40350000D01*
X8800000Y-40347823D01*
X8777895Y-40350000D01*
X5422105Y-40350000D01*
X5400000Y-40347823D01*
X5377896Y-40350000D01*
X5377895Y-40350000D01*
X5311785Y-40356511D01*
X5226959Y-40382243D01*
X5148784Y-40424029D01*
X5080263Y-40480263D01*
X5024029Y-40548784D01*
X4982243Y-40626959D01*
X4956511Y-40711785D01*
X4947823Y-40800000D01*
X4950001Y-40822114D01*
X4950000Y-41550000D01*
X3847253Y-41550000D01*
X3845852Y-41535773D01*
X3843489Y-41511785D01*
X3817757Y-41426959D01*
X3775971Y-41348784D01*
X3719737Y-41280263D01*
X3718077Y-41278901D01*
X3651216Y-41224029D01*
X3573041Y-41182243D01*
X3488215Y-41156511D01*
X3422105Y-41150000D01*
X3422104Y-41150000D01*
X3400000Y-41147823D01*
X3377895Y-41150000D01*
X1822104Y-41150000D01*
X1800000Y-41147823D01*
X1777895Y-41150000D01*
X1711785Y-41156511D01*
X1626959Y-41182243D01*
X1548784Y-41224029D01*
X1480263Y-41280263D01*
X1424029Y-41348784D01*
X1382243Y-41426959D01*
X1356511Y-41511785D01*
X1352747Y-41550000D01*
X450000Y-41550000D01*
X450000Y-27592461D01*
X820533Y-27962995D01*
X836973Y-27983027D01*
X916914Y-28048633D01*
X1008119Y-28097383D01*
X1107082Y-28127403D01*
X1184212Y-28135000D01*
X1184219Y-28135000D01*
X1209999Y-28137539D01*
X1235779Y-28135000D01*
X1423186Y-28135000D01*
X1423186Y-28460000D01*
X1430426Y-28533513D01*
X1451869Y-28604200D01*
X1486691Y-28669347D01*
X1533552Y-28726448D01*
X1590653Y-28773309D01*
X1655800Y-28808131D01*
X1726487Y-28829574D01*
X1800000Y-28836814D01*
X3300000Y-28836814D01*
X3373513Y-28829574D01*
X3444200Y-28808131D01*
X3472476Y-28793017D01*
X3480198Y-28798177D01*
X3603040Y-28849060D01*
X3733448Y-28875000D01*
X3866412Y-28875000D01*
X3924930Y-28863360D01*
X3924930Y-30124493D01*
X3922632Y-30147825D01*
X3931803Y-30240941D01*
X3936800Y-30257413D01*
X3958964Y-30330478D01*
X4003071Y-30412998D01*
X4062429Y-30485326D01*
X4080564Y-30500209D01*
X4325001Y-30744646D01*
X4325000Y-33343972D01*
X4286691Y-33390653D01*
X4251869Y-33455800D01*
X4230426Y-33526487D01*
X4223186Y-33600000D01*
X4223186Y-34700000D01*
X4230426Y-34773513D01*
X4251869Y-34844200D01*
X4286691Y-34909347D01*
X4333552Y-34966448D01*
X4374436Y-35000000D01*
X4333552Y-35033552D01*
X4286691Y-35090653D01*
X4251869Y-35155800D01*
X4230426Y-35226487D01*
X4223186Y-35300000D01*
X4223186Y-35375000D01*
X3846752Y-35375000D01*
X3125000Y-34653250D01*
X3125000Y-34029594D01*
X3174307Y-33980287D01*
X3248177Y-33869732D01*
X3299060Y-33746890D01*
X3325000Y-33616482D01*
X3325000Y-33483518D01*
X3299060Y-33353110D01*
X3248177Y-33230268D01*
X3174307Y-33119713D01*
X3080287Y-33025693D01*
X3007015Y-32976734D01*
X3008749Y-32975000D01*
X3120406Y-32975000D01*
X3169713Y-33024307D01*
X3280268Y-33098177D01*
X3403110Y-33149060D01*
X3533518Y-33175000D01*
X3666482Y-33175000D01*
X3796890Y-33149060D01*
X3919732Y-33098177D01*
X4030287Y-33024307D01*
X4124307Y-32930287D01*
X4198177Y-32819732D01*
X4249060Y-32696890D01*
X4275000Y-32566482D01*
X4275000Y-32433518D01*
X4249060Y-32303110D01*
X4198177Y-32180268D01*
X4124307Y-32069713D01*
X4030287Y-31975693D01*
X3919732Y-31901823D01*
X3796890Y-31850940D01*
X3666482Y-31825000D01*
X3533518Y-31825000D01*
X3403110Y-31850940D01*
X3280268Y-31901823D01*
X3169713Y-31975693D01*
X3120406Y-32025000D01*
X2835329Y-32025000D01*
X2811997Y-32022702D01*
X2718881Y-32031873D01*
X2691720Y-32040112D01*
X2629344Y-32059034D01*
X2546825Y-32103141D01*
X2474497Y-32162499D01*
X2459618Y-32180629D01*
X1730628Y-32909620D01*
X1712499Y-32924498D01*
X1653141Y-32996826D01*
X1626416Y-33046826D01*
X1609034Y-33079345D01*
X1581872Y-33168883D01*
X1572701Y-33261999D01*
X1575000Y-33285341D01*
X1574999Y-34792364D01*
X1572701Y-34815697D01*
X1581872Y-34908813D01*
X1589839Y-34935075D01*
X1609033Y-34998350D01*
X1653140Y-35080870D01*
X1712498Y-35153198D01*
X1730633Y-35168081D01*
X3681923Y-37119372D01*
X3696801Y-37137501D01*
X3769129Y-37196859D01*
X3851648Y-37240966D01*
X3914024Y-37259888D01*
X3941185Y-37268127D01*
X4034301Y-37277298D01*
X4057633Y-37275000D01*
X5176668Y-37275000D01*
X5200000Y-37277298D01*
X5223332Y-37275000D01*
X5293116Y-37268127D01*
X5382654Y-37240966D01*
X5465173Y-37196859D01*
X5537501Y-37137501D01*
X5552384Y-37119366D01*
X5914658Y-36757092D01*
X5944200Y-36748131D01*
X6000000Y-36718305D01*
X6055800Y-36748131D01*
X6085343Y-36757093D01*
X6447620Y-37119371D01*
X6462499Y-37137501D01*
X6534827Y-37196859D01*
X6617346Y-37240966D01*
X6679722Y-37259888D01*
X6706883Y-37268127D01*
X6799999Y-37277298D01*
X6823331Y-37275000D01*
X7942366Y-37275000D01*
X7965698Y-37277298D01*
X7989030Y-37275000D01*
X8058814Y-37268127D01*
X8148352Y-37240966D01*
X8230871Y-37196859D01*
X8303199Y-37137501D01*
X8318082Y-37119366D01*
X10269373Y-35168076D01*
X10287502Y-35153198D01*
X10346860Y-35080870D01*
X10390967Y-34998351D01*
X10418128Y-34908813D01*
X10421623Y-34873331D01*
X10427299Y-34815698D01*
X10425001Y-34792366D01*
X10425001Y-33335331D01*
X10427299Y-33311999D01*
X10418128Y-33218883D01*
X10390967Y-33129345D01*
X10385819Y-33119713D01*
X10346860Y-33046826D01*
X10287502Y-32974498D01*
X10269378Y-32959624D01*
X9440386Y-32130634D01*
X9425503Y-32112499D01*
X9353175Y-32053141D01*
X9270656Y-32009034D01*
X9181118Y-31981873D01*
X9088002Y-31972702D01*
X9064670Y-31975000D01*
X8879594Y-31975000D01*
X8830287Y-31925693D01*
X8719732Y-31851823D01*
X8596890Y-31800940D01*
X8466482Y-31775000D01*
X8333518Y-31775000D01*
X8203110Y-31800940D01*
X8080268Y-31851823D01*
X7969713Y-31925693D01*
X7875693Y-32019713D01*
X7801823Y-32130268D01*
X7750940Y-32253110D01*
X7725000Y-32383518D01*
X7725000Y-32516482D01*
X7750940Y-32646890D01*
X7801823Y-32769732D01*
X7875693Y-32880287D01*
X7969713Y-32974307D01*
X8080268Y-33048177D01*
X8203110Y-33099060D01*
X8333518Y-33125000D01*
X8466482Y-33125000D01*
X8596890Y-33099060D01*
X8719732Y-33048177D01*
X8830287Y-32974307D01*
X8879594Y-32925000D01*
X8891252Y-32925000D01*
X8992986Y-33026734D01*
X8919713Y-33075693D01*
X8825693Y-33169713D01*
X8751823Y-33280268D01*
X8700940Y-33403110D01*
X8675000Y-33533518D01*
X8675000Y-33666482D01*
X8700940Y-33796890D01*
X8751823Y-33919732D01*
X8825693Y-34030287D01*
X8875001Y-34079595D01*
X8875000Y-34653248D01*
X8153250Y-35375000D01*
X7776814Y-35375000D01*
X7776814Y-35300000D01*
X7769574Y-35226487D01*
X7748131Y-35155800D01*
X7713309Y-35090653D01*
X7666448Y-35033552D01*
X7625564Y-35000000D01*
X7666448Y-34966448D01*
X7713309Y-34909347D01*
X7748131Y-34844200D01*
X7769574Y-34773513D01*
X7776814Y-34700000D01*
X7776814Y-33600000D01*
X7769574Y-33526487D01*
X7748131Y-33455800D01*
X7713309Y-33390653D01*
X7675000Y-33343973D01*
X7675000Y-31274129D01*
X7677298Y-31250797D01*
X7668127Y-31157681D01*
X7652718Y-31106885D01*
X7643055Y-31075030D01*
X19003280Y-31075030D01*
X19325000Y-31396752D01*
X19325001Y-33226659D01*
X19325000Y-33226669D01*
X19325000Y-33343973D01*
X19286691Y-33390653D01*
X19251869Y-33455800D01*
X19230426Y-33526487D01*
X19223186Y-33600000D01*
X19223186Y-34700000D01*
X19230426Y-34773513D01*
X19251869Y-34844200D01*
X19286691Y-34909347D01*
X19333552Y-34966448D01*
X19374436Y-35000000D01*
X19333552Y-35033552D01*
X19286691Y-35090653D01*
X19251869Y-35155800D01*
X19230426Y-35226487D01*
X19223186Y-35300000D01*
X19223186Y-35375000D01*
X19046751Y-35375000D01*
X18125000Y-34453250D01*
X18125000Y-34029594D01*
X18174307Y-33980287D01*
X18248177Y-33869732D01*
X18299060Y-33746890D01*
X18325000Y-33616482D01*
X18325000Y-33483518D01*
X18299060Y-33353110D01*
X18248177Y-33230268D01*
X18174307Y-33119713D01*
X18080287Y-33025693D01*
X18007015Y-32976734D01*
X18008749Y-32975000D01*
X18120406Y-32975000D01*
X18169713Y-33024307D01*
X18280268Y-33098177D01*
X18403110Y-33149060D01*
X18533518Y-33175000D01*
X18666482Y-33175000D01*
X18796890Y-33149060D01*
X18919732Y-33098177D01*
X19030287Y-33024307D01*
X19124307Y-32930287D01*
X19198177Y-32819732D01*
X19249060Y-32696890D01*
X19275000Y-32566482D01*
X19275000Y-32433518D01*
X19249060Y-32303110D01*
X19198177Y-32180268D01*
X19124307Y-32069713D01*
X19030287Y-31975693D01*
X18919732Y-31901823D01*
X18796890Y-31850940D01*
X18666482Y-31825000D01*
X18533518Y-31825000D01*
X18403110Y-31850940D01*
X18280268Y-31901823D01*
X18169713Y-31975693D01*
X18120406Y-32025000D01*
X17835329Y-32025000D01*
X17811997Y-32022702D01*
X17718881Y-32031873D01*
X17691720Y-32040112D01*
X17629344Y-32059034D01*
X17546825Y-32103141D01*
X17474497Y-32162499D01*
X17459618Y-32180629D01*
X16730628Y-32909620D01*
X16712499Y-32924498D01*
X16653141Y-32996826D01*
X16626416Y-33046826D01*
X16609034Y-33079345D01*
X16581872Y-33168883D01*
X16572701Y-33261999D01*
X16575000Y-33285341D01*
X16574999Y-34592365D01*
X16572701Y-34615698D01*
X16577788Y-34667346D01*
X16581872Y-34708813D01*
X16609033Y-34798351D01*
X16653140Y-34880871D01*
X16712498Y-34953199D01*
X16730633Y-34968082D01*
X18881926Y-37119377D01*
X18896800Y-37137501D01*
X18914922Y-37152373D01*
X18914923Y-37152374D01*
X18969128Y-37196859D01*
X19051647Y-37240966D01*
X19141185Y-37268127D01*
X19234301Y-37277298D01*
X19257633Y-37275000D01*
X20176668Y-37275000D01*
X20200000Y-37277298D01*
X20223332Y-37275000D01*
X20293116Y-37268127D01*
X20382654Y-37240966D01*
X20465173Y-37196859D01*
X20537501Y-37137501D01*
X20552384Y-37119366D01*
X20914658Y-36757092D01*
X20944200Y-36748131D01*
X21000000Y-36718305D01*
X21046727Y-36743281D01*
X21062500Y-36762501D01*
X21080629Y-36777379D01*
X21422620Y-37119371D01*
X21437499Y-37137501D01*
X21509827Y-37196859D01*
X21592346Y-37240966D01*
X21654722Y-37259888D01*
X21681883Y-37268127D01*
X21774999Y-37277298D01*
X21798332Y-37275000D01*
X22942366Y-37275000D01*
X22965698Y-37277298D01*
X22989030Y-37275000D01*
X23058814Y-37268127D01*
X23148352Y-37240966D01*
X23230871Y-37196859D01*
X23303199Y-37137501D01*
X23318082Y-37119366D01*
X25269373Y-35168076D01*
X25287502Y-35153198D01*
X25346860Y-35080870D01*
X25390967Y-34998351D01*
X25418128Y-34908813D01*
X25421623Y-34873331D01*
X25427299Y-34815698D01*
X25425001Y-34792366D01*
X25425001Y-33335331D01*
X25427299Y-33311999D01*
X25418128Y-33218883D01*
X25390967Y-33129345D01*
X25385819Y-33119713D01*
X25346860Y-33046826D01*
X25287502Y-32974498D01*
X25269378Y-32959624D01*
X24440386Y-32130634D01*
X24425503Y-32112499D01*
X24353175Y-32053141D01*
X24270656Y-32009034D01*
X24181118Y-31981873D01*
X24088002Y-31972702D01*
X24064670Y-31975000D01*
X23879594Y-31975000D01*
X23830287Y-31925693D01*
X23719732Y-31851823D01*
X23596890Y-31800940D01*
X23466482Y-31775000D01*
X23333518Y-31775000D01*
X23203110Y-31800940D01*
X23080268Y-31851823D01*
X22969713Y-31925693D01*
X22875693Y-32019713D01*
X22801823Y-32130268D01*
X22750940Y-32253110D01*
X22725000Y-32383518D01*
X22725000Y-32516482D01*
X22750940Y-32646890D01*
X22801823Y-32769732D01*
X22875693Y-32880287D01*
X22969713Y-32974307D01*
X23080268Y-33048177D01*
X23203110Y-33099060D01*
X23333518Y-33125000D01*
X23466482Y-33125000D01*
X23596890Y-33099060D01*
X23719732Y-33048177D01*
X23830287Y-32974307D01*
X23879594Y-32925000D01*
X23891252Y-32925000D01*
X23992986Y-33026734D01*
X23919713Y-33075693D01*
X23825693Y-33169713D01*
X23751823Y-33280268D01*
X23700940Y-33403110D01*
X23675000Y-33533518D01*
X23675000Y-33666482D01*
X23700940Y-33796890D01*
X23751823Y-33919732D01*
X23825693Y-34030287D01*
X23875000Y-34079594D01*
X23875001Y-34653247D01*
X23153250Y-35375000D01*
X22776814Y-35375000D01*
X22776814Y-35300000D01*
X22769574Y-35226487D01*
X22748131Y-35155800D01*
X22713309Y-35090653D01*
X22666448Y-35033552D01*
X22625564Y-35000000D01*
X22666448Y-34966448D01*
X22713309Y-34909347D01*
X22748131Y-34844200D01*
X22769574Y-34773513D01*
X22776814Y-34700000D01*
X22776814Y-33600000D01*
X22769574Y-33526487D01*
X22748131Y-33455800D01*
X22713309Y-33390653D01*
X22675000Y-33343973D01*
X22675000Y-30223332D01*
X22677298Y-30200000D01*
X22668127Y-30106884D01*
X22640966Y-30017345D01*
X22615731Y-29970135D01*
X22596859Y-29934827D01*
X22537501Y-29862499D01*
X22519377Y-29847625D01*
X21752384Y-29080634D01*
X21737501Y-29062499D01*
X21665173Y-29003141D01*
X21582654Y-28959034D01*
X21493116Y-28931873D01*
X21423332Y-28925000D01*
X21400000Y-28922702D01*
X21376668Y-28925000D01*
X7808749Y-28925000D01*
X7720504Y-28836755D01*
X8331250Y-28835000D01*
X8425000Y-28741250D01*
X8425000Y-28285000D01*
X8475000Y-28285000D01*
X8475000Y-28741250D01*
X8568750Y-28835000D01*
X9200000Y-28836814D01*
X9273513Y-28829574D01*
X9344200Y-28808131D01*
X9409347Y-28773309D01*
X9466448Y-28726448D01*
X9513309Y-28669347D01*
X9548131Y-28604200D01*
X9569574Y-28533513D01*
X9576814Y-28460000D01*
X9575000Y-28378750D01*
X9481250Y-28285000D01*
X8475000Y-28285000D01*
X8425000Y-28285000D01*
X8405000Y-28285000D01*
X8405000Y-28235000D01*
X8425000Y-28235000D01*
X8425000Y-28215000D01*
X8475000Y-28215000D01*
X8475000Y-28235000D01*
X9481250Y-28235000D01*
X9575000Y-28141250D01*
X9576814Y-28060000D01*
X9569574Y-27986487D01*
X9553955Y-27935000D01*
X9569574Y-27883513D01*
X9576814Y-27810000D01*
X9576814Y-27410000D01*
X9569574Y-27336487D01*
X9553955Y-27285000D01*
X9569574Y-27233513D01*
X9576814Y-27160000D01*
X9576814Y-26760000D01*
X9569574Y-26686487D01*
X9553955Y-26635000D01*
X9569574Y-26583513D01*
X9576814Y-26510000D01*
X9576814Y-26110000D01*
X9569574Y-26036487D01*
X9553955Y-25985000D01*
X9569574Y-25933513D01*
X9576814Y-25860000D01*
X9576814Y-25460000D01*
X9569574Y-25386487D01*
X9553955Y-25335000D01*
X9569574Y-25283513D01*
X9576814Y-25210000D01*
X9576814Y-24810000D01*
X9569574Y-24736487D01*
X9553955Y-24685000D01*
X9569574Y-24633513D01*
X9576814Y-24560000D01*
X9576814Y-24160000D01*
X9569574Y-24086487D01*
X9553955Y-24035000D01*
X9569574Y-23983513D01*
X9576814Y-23910000D01*
X9576814Y-23510000D01*
X9569574Y-23436487D01*
X9548131Y-23365800D01*
X9513309Y-23300653D01*
X9466448Y-23243552D01*
X9409347Y-23196691D01*
X9344200Y-23161869D01*
X9273513Y-23140426D01*
X9200000Y-23133186D01*
X7700000Y-23133186D01*
X7626487Y-23140426D01*
X7555800Y-23161869D01*
X7490653Y-23196691D01*
X7443973Y-23235000D01*
X6513332Y-23235000D01*
X6490000Y-23232702D01*
X6396884Y-23241873D01*
X6307345Y-23269034D01*
X6300936Y-23272460D01*
X6224827Y-23313141D01*
X6152499Y-23372499D01*
X6137625Y-23390623D01*
X4857206Y-24671043D01*
X4840896Y-24617276D01*
X4796789Y-24534757D01*
X4737431Y-24462429D01*
X4719301Y-24447550D01*
X4506750Y-24235000D01*
X4864220Y-24235000D01*
X4890000Y-24237539D01*
X4915780Y-24235000D01*
X4915788Y-24235000D01*
X4992918Y-24227403D01*
X5091881Y-24197383D01*
X5183086Y-24148633D01*
X5263027Y-24083027D01*
X5279471Y-24062990D01*
X7467442Y-21875020D01*
X12552557Y-21875020D01*
X12879723Y-22202187D01*
G37*
G04 #@! TD.AperFunction*
D18*
X30725001Y-24250000D02*
X30576814Y-24250000D01*
X30576814Y-23875000D01*
X30569574Y-23801487D01*
X30548131Y-23730800D01*
X30513309Y-23665653D01*
X30466448Y-23608552D01*
X30409347Y-23561691D01*
X30344200Y-23526869D01*
X30273513Y-23505426D01*
X30200000Y-23498186D01*
X28700000Y-23498186D01*
X28626487Y-23505426D01*
X28555800Y-23526869D01*
X28490653Y-23561691D01*
X28433552Y-23608552D01*
X28386691Y-23665653D01*
X28351869Y-23730800D01*
X28330426Y-23801487D01*
X28323186Y-23875000D01*
X28323186Y-24275000D01*
X28330426Y-24348513D01*
X28346045Y-24400000D01*
X28330426Y-24451487D01*
X28323186Y-24525000D01*
X28323186Y-24925000D01*
X28330426Y-24998513D01*
X28346045Y-25050000D01*
X28330426Y-25101487D01*
X28323186Y-25175000D01*
X28323186Y-25575000D01*
X28330426Y-25648513D01*
X28346045Y-25700000D01*
X28330426Y-25751487D01*
X28323186Y-25825000D01*
X28323186Y-26225000D01*
X28330426Y-26298513D01*
X28346045Y-26350000D01*
X28330426Y-26401487D01*
X28323186Y-26475000D01*
X28323186Y-26875000D01*
X28330426Y-26948513D01*
X28346045Y-27000000D01*
X28330426Y-27051487D01*
X28323186Y-27125000D01*
X28323186Y-27500000D01*
X25771752Y-27500000D01*
X25277384Y-27005633D01*
X25272760Y-27000000D01*
X25277384Y-26994366D01*
X26419371Y-25852380D01*
X26437501Y-25837501D01*
X26496859Y-25765173D01*
X26540966Y-25682654D01*
X26560762Y-25617396D01*
X26568127Y-25593117D01*
X26577298Y-25500000D01*
X26575000Y-25476668D01*
X26575000Y-23175000D01*
X30076668Y-23175000D01*
X30100000Y-23177298D01*
X30123332Y-23175000D01*
X30193116Y-23168127D01*
X30282654Y-23140966D01*
X30365173Y-23096859D01*
X30437501Y-23037501D01*
X30452384Y-23019366D01*
X30725000Y-22746750D01*
X30725001Y-24250000D01*
G04 #@! TA.AperFunction,Conductor*
D19*
G36*
X30725001Y-24250000D02*
G01*
X30576814Y-24250000D01*
X30576814Y-23875000D01*
X30569574Y-23801487D01*
X30548131Y-23730800D01*
X30513309Y-23665653D01*
X30466448Y-23608552D01*
X30409347Y-23561691D01*
X30344200Y-23526869D01*
X30273513Y-23505426D01*
X30200000Y-23498186D01*
X28700000Y-23498186D01*
X28626487Y-23505426D01*
X28555800Y-23526869D01*
X28490653Y-23561691D01*
X28433552Y-23608552D01*
X28386691Y-23665653D01*
X28351869Y-23730800D01*
X28330426Y-23801487D01*
X28323186Y-23875000D01*
X28323186Y-24275000D01*
X28330426Y-24348513D01*
X28346045Y-24400000D01*
X28330426Y-24451487D01*
X28323186Y-24525000D01*
X28323186Y-24925000D01*
X28330426Y-24998513D01*
X28346045Y-25050000D01*
X28330426Y-25101487D01*
X28323186Y-25175000D01*
X28323186Y-25575000D01*
X28330426Y-25648513D01*
X28346045Y-25700000D01*
X28330426Y-25751487D01*
X28323186Y-25825000D01*
X28323186Y-26225000D01*
X28330426Y-26298513D01*
X28346045Y-26350000D01*
X28330426Y-26401487D01*
X28323186Y-26475000D01*
X28323186Y-26875000D01*
X28330426Y-26948513D01*
X28346045Y-27000000D01*
X28330426Y-27051487D01*
X28323186Y-27125000D01*
X28323186Y-27500000D01*
X25771752Y-27500000D01*
X25277384Y-27005633D01*
X25272760Y-27000000D01*
X25277384Y-26994366D01*
X26419371Y-25852380D01*
X26437501Y-25837501D01*
X26496859Y-25765173D01*
X26540966Y-25682654D01*
X26560762Y-25617396D01*
X26568127Y-25593117D01*
X26577298Y-25500000D01*
X26575000Y-25476668D01*
X26575000Y-23175000D01*
X30076668Y-23175000D01*
X30100000Y-23177298D01*
X30123332Y-23175000D01*
X30193116Y-23168127D01*
X30282654Y-23140966D01*
X30365173Y-23096859D01*
X30437501Y-23037501D01*
X30452384Y-23019366D01*
X30725000Y-22746750D01*
X30725001Y-24250000D01*
G37*
G04 #@! TD.AperFunction*
D18*
X1425000Y-25541250D02*
X1518750Y-25635000D01*
X2525000Y-25635000D01*
X2525000Y-25615000D01*
X2575000Y-25615000D01*
X2575000Y-25635000D01*
X2595000Y-25635000D01*
X2595000Y-25685000D01*
X2575000Y-25685000D01*
X2575000Y-25705000D01*
X2525000Y-25705000D01*
X2525000Y-25685000D01*
X1518750Y-25685000D01*
X1425000Y-25778750D01*
X1423186Y-25860000D01*
X1430426Y-25933513D01*
X1446045Y-25985000D01*
X1430426Y-26036487D01*
X1423186Y-26110000D01*
X1423186Y-26510000D01*
X1430426Y-26583513D01*
X1446045Y-26635000D01*
X1430426Y-26686487D01*
X1423186Y-26760000D01*
X1423186Y-27080724D01*
X1125000Y-26782539D01*
X1125000Y-25513360D01*
X1183518Y-25525000D01*
X1316482Y-25525000D01*
X1424159Y-25503582D01*
X1425000Y-25541250D01*
G04 #@! TA.AperFunction,Conductor*
D19*
G36*
X1425000Y-25541250D02*
G01*
X1518750Y-25635000D01*
X2525000Y-25635000D01*
X2525000Y-25615000D01*
X2575000Y-25615000D01*
X2575000Y-25635000D01*
X2595000Y-25635000D01*
X2595000Y-25685000D01*
X2575000Y-25685000D01*
X2575000Y-25705000D01*
X2525000Y-25705000D01*
X2525000Y-25685000D01*
X1518750Y-25685000D01*
X1425000Y-25778750D01*
X1423186Y-25860000D01*
X1430426Y-25933513D01*
X1446045Y-25985000D01*
X1430426Y-26036487D01*
X1423186Y-26110000D01*
X1423186Y-26510000D01*
X1430426Y-26583513D01*
X1446045Y-26635000D01*
X1430426Y-26686487D01*
X1423186Y-26760000D01*
X1423186Y-27080724D01*
X1125000Y-26782539D01*
X1125000Y-25513360D01*
X1183518Y-25525000D01*
X1316482Y-25525000D01*
X1424159Y-25503582D01*
X1425000Y-25541250D01*
G37*
G04 #@! TD.AperFunction*
D18*
X23075000Y-21476668D02*
X23072702Y-21500000D01*
X23081873Y-21593116D01*
X23086277Y-21607634D01*
X23109034Y-21682653D01*
X23153141Y-21765173D01*
X23212499Y-21837501D01*
X23230634Y-21852384D01*
X24824981Y-23446732D01*
X24824980Y-24503229D01*
X24676814Y-24651395D01*
X24676814Y-24525000D01*
X24669574Y-24451487D01*
X24653955Y-24400000D01*
X24669574Y-24348513D01*
X24676814Y-24275000D01*
X24675000Y-24193750D01*
X24581250Y-24100000D01*
X23575000Y-24100000D01*
X23575000Y-24120000D01*
X23525000Y-24120000D01*
X23525000Y-24100000D01*
X22518750Y-24100000D01*
X22425000Y-24193750D01*
X22423744Y-24250000D01*
X19521752Y-24250000D01*
X19146752Y-23875000D01*
X22423186Y-23875000D01*
X22425000Y-23956250D01*
X22518750Y-24050000D01*
X23525000Y-24050000D01*
X23525000Y-23593750D01*
X23575000Y-23593750D01*
X23575000Y-24050000D01*
X24581250Y-24050000D01*
X24675000Y-23956250D01*
X24676814Y-23875000D01*
X24669574Y-23801487D01*
X24648131Y-23730800D01*
X24613309Y-23665653D01*
X24566448Y-23608552D01*
X24509347Y-23561691D01*
X24444200Y-23526869D01*
X24373513Y-23505426D01*
X24300000Y-23498186D01*
X23668750Y-23500000D01*
X23575000Y-23593750D01*
X23525000Y-23593750D01*
X23431250Y-23500000D01*
X22800000Y-23498186D01*
X22726487Y-23505426D01*
X22655800Y-23526869D01*
X22590653Y-23561691D01*
X22533552Y-23608552D01*
X22486691Y-23665653D01*
X22451869Y-23730800D01*
X22430426Y-23801487D01*
X22423186Y-23875000D01*
X19146752Y-23875000D01*
X18452384Y-23180634D01*
X18437501Y-23162499D01*
X18368455Y-23105834D01*
X18416448Y-23066448D01*
X18463309Y-23009347D01*
X18481418Y-22975468D01*
X18500000Y-22977298D01*
X18523332Y-22975000D01*
X18593116Y-22968127D01*
X18682654Y-22940966D01*
X18765173Y-22896859D01*
X18837501Y-22837501D01*
X18852384Y-22819366D01*
X19772961Y-21898790D01*
X19790653Y-21913309D01*
X19855800Y-21948131D01*
X19926487Y-21969574D01*
X20000000Y-21976814D01*
X21000000Y-21976814D01*
X21073513Y-21969574D01*
X21144200Y-21948131D01*
X21209347Y-21913309D01*
X21266448Y-21866448D01*
X21313309Y-21809347D01*
X21348131Y-21744200D01*
X21353955Y-21725000D01*
X21726668Y-21725000D01*
X21750000Y-21727298D01*
X21773332Y-21725000D01*
X21793162Y-21723047D01*
X21843116Y-21718127D01*
X21932654Y-21690966D01*
X22015173Y-21646859D01*
X22087501Y-21587501D01*
X22102384Y-21569366D01*
X23075000Y-20596751D01*
X23075000Y-21476668D01*
G04 #@! TA.AperFunction,Conductor*
D19*
G36*
X23075000Y-21476668D02*
G01*
X23072702Y-21500000D01*
X23081873Y-21593116D01*
X23086277Y-21607634D01*
X23109034Y-21682653D01*
X23153141Y-21765173D01*
X23212499Y-21837501D01*
X23230634Y-21852384D01*
X24824981Y-23446732D01*
X24824980Y-24503229D01*
X24676814Y-24651395D01*
X24676814Y-24525000D01*
X24669574Y-24451487D01*
X24653955Y-24400000D01*
X24669574Y-24348513D01*
X24676814Y-24275000D01*
X24675000Y-24193750D01*
X24581250Y-24100000D01*
X23575000Y-24100000D01*
X23575000Y-24120000D01*
X23525000Y-24120000D01*
X23525000Y-24100000D01*
X22518750Y-24100000D01*
X22425000Y-24193750D01*
X22423744Y-24250000D01*
X19521752Y-24250000D01*
X19146752Y-23875000D01*
X22423186Y-23875000D01*
X22425000Y-23956250D01*
X22518750Y-24050000D01*
X23525000Y-24050000D01*
X23525000Y-23593750D01*
X23575000Y-23593750D01*
X23575000Y-24050000D01*
X24581250Y-24050000D01*
X24675000Y-23956250D01*
X24676814Y-23875000D01*
X24669574Y-23801487D01*
X24648131Y-23730800D01*
X24613309Y-23665653D01*
X24566448Y-23608552D01*
X24509347Y-23561691D01*
X24444200Y-23526869D01*
X24373513Y-23505426D01*
X24300000Y-23498186D01*
X23668750Y-23500000D01*
X23575000Y-23593750D01*
X23525000Y-23593750D01*
X23431250Y-23500000D01*
X22800000Y-23498186D01*
X22726487Y-23505426D01*
X22655800Y-23526869D01*
X22590653Y-23561691D01*
X22533552Y-23608552D01*
X22486691Y-23665653D01*
X22451869Y-23730800D01*
X22430426Y-23801487D01*
X22423186Y-23875000D01*
X19146752Y-23875000D01*
X18452384Y-23180634D01*
X18437501Y-23162499D01*
X18368455Y-23105834D01*
X18416448Y-23066448D01*
X18463309Y-23009347D01*
X18481418Y-22975468D01*
X18500000Y-22977298D01*
X18523332Y-22975000D01*
X18593116Y-22968127D01*
X18682654Y-22940966D01*
X18765173Y-22896859D01*
X18837501Y-22837501D01*
X18852384Y-22819366D01*
X19772961Y-21898790D01*
X19790653Y-21913309D01*
X19855800Y-21948131D01*
X19926487Y-21969574D01*
X20000000Y-21976814D01*
X21000000Y-21976814D01*
X21073513Y-21969574D01*
X21144200Y-21948131D01*
X21209347Y-21913309D01*
X21266448Y-21866448D01*
X21313309Y-21809347D01*
X21348131Y-21744200D01*
X21353955Y-21725000D01*
X21726668Y-21725000D01*
X21750000Y-21727298D01*
X21773332Y-21725000D01*
X21793162Y-21723047D01*
X21843116Y-21718127D01*
X21932654Y-21690966D01*
X22015173Y-21646859D01*
X22087501Y-21587501D01*
X22102384Y-21569366D01*
X23075000Y-20596751D01*
X23075000Y-21476668D01*
G37*
G04 #@! TD.AperFunction*
D18*
X1800000Y-18336814D02*
X3300000Y-18336814D01*
X3325001Y-18334352D01*
X3325000Y-20264670D01*
X3322702Y-20288002D01*
X3331873Y-20381118D01*
X3336658Y-20396890D01*
X3359034Y-20470655D01*
X3403141Y-20553175D01*
X3462499Y-20625503D01*
X3480634Y-20640386D01*
X4059631Y-21219384D01*
X4074507Y-21237511D01*
X4092629Y-21252383D01*
X4125001Y-21284754D01*
X4125000Y-22520406D01*
X4075693Y-22569713D01*
X4001823Y-22680268D01*
X3950940Y-22803110D01*
X3925000Y-22933518D01*
X3925000Y-23066482D01*
X3948575Y-23185000D01*
X3487475Y-23185000D01*
X3444200Y-23161869D01*
X3373513Y-23140426D01*
X3300000Y-23133186D01*
X1923666Y-23133186D01*
X1925000Y-23126482D01*
X1925000Y-22993518D01*
X1899060Y-22863110D01*
X1848177Y-22740268D01*
X1774307Y-22629713D01*
X1725000Y-22580406D01*
X1725000Y-18346750D01*
X1740770Y-18330981D01*
X1800000Y-18336814D01*
G04 #@! TA.AperFunction,Conductor*
D19*
G36*
X1800000Y-18336814D02*
G01*
X3300000Y-18336814D01*
X3325001Y-18334352D01*
X3325000Y-20264670D01*
X3322702Y-20288002D01*
X3331873Y-20381118D01*
X3336658Y-20396890D01*
X3359034Y-20470655D01*
X3403141Y-20553175D01*
X3462499Y-20625503D01*
X3480634Y-20640386D01*
X4059631Y-21219384D01*
X4074507Y-21237511D01*
X4092629Y-21252383D01*
X4125001Y-21284754D01*
X4125000Y-22520406D01*
X4075693Y-22569713D01*
X4001823Y-22680268D01*
X3950940Y-22803110D01*
X3925000Y-22933518D01*
X3925000Y-23066482D01*
X3948575Y-23185000D01*
X3487475Y-23185000D01*
X3444200Y-23161869D01*
X3373513Y-23140426D01*
X3300000Y-23133186D01*
X1923666Y-23133186D01*
X1925000Y-23126482D01*
X1925000Y-22993518D01*
X1899060Y-22863110D01*
X1848177Y-22740268D01*
X1774307Y-22629713D01*
X1725000Y-22580406D01*
X1725000Y-18346750D01*
X1740770Y-18330981D01*
X1800000Y-18336814D01*
G37*
G04 #@! TD.AperFunction*
D18*
X5189803Y-22667736D02*
X5124307Y-22569713D01*
X5075000Y-22520406D01*
X5075000Y-21375010D01*
X6482528Y-21375010D01*
X5189803Y-22667736D01*
G04 #@! TA.AperFunction,Conductor*
D19*
G36*
X5189803Y-22667736D02*
G01*
X5124307Y-22569713D01*
X5075000Y-22520406D01*
X5075000Y-21375010D01*
X6482528Y-21375010D01*
X5189803Y-22667736D01*
G37*
G04 #@! TD.AperFunction*
D18*
X28323186Y-14710000D02*
X28330426Y-14783513D01*
X28346045Y-14835000D01*
X28330426Y-14886487D01*
X28323186Y-14960000D01*
X28323186Y-15360000D01*
X28330426Y-15433513D01*
X28346045Y-15485000D01*
X28330426Y-15536487D01*
X28323186Y-15610000D01*
X28323186Y-16010000D01*
X28330426Y-16083513D01*
X28346045Y-16135000D01*
X28330426Y-16186487D01*
X28323186Y-16260000D01*
X28323186Y-16660000D01*
X28330426Y-16733513D01*
X28346045Y-16785000D01*
X28330426Y-16836487D01*
X28323186Y-16910000D01*
X28323186Y-17310000D01*
X28330426Y-17383513D01*
X28346045Y-17435000D01*
X28330426Y-17486487D01*
X28323186Y-17560000D01*
X28325000Y-17641250D01*
X28418750Y-17735000D01*
X29425000Y-17735000D01*
X29425000Y-17715000D01*
X29475000Y-17715000D01*
X29475000Y-17735000D01*
X29495000Y-17735000D01*
X29495000Y-17785000D01*
X29475000Y-17785000D01*
X29475000Y-18241250D01*
X29568750Y-18335000D01*
X30200000Y-18336814D01*
X30273513Y-18329574D01*
X30325000Y-18313955D01*
X30325000Y-21803249D01*
X29903250Y-22225000D01*
X28276814Y-22225000D01*
X28276814Y-21300000D01*
X28269574Y-21226487D01*
X28248131Y-21155800D01*
X28213309Y-21090653D01*
X28166448Y-21033552D01*
X28125564Y-21000000D01*
X28166448Y-20966448D01*
X28213309Y-20909347D01*
X28248131Y-20844200D01*
X28269574Y-20773513D01*
X28276814Y-20700000D01*
X28276814Y-19600000D01*
X28269574Y-19526487D01*
X28248131Y-19455800D01*
X28213309Y-19390653D01*
X28166448Y-19333552D01*
X28109347Y-19286691D01*
X28044200Y-19251869D01*
X27973513Y-19230426D01*
X27900000Y-19223186D01*
X27500000Y-19223186D01*
X27426487Y-19230426D01*
X27355800Y-19251869D01*
X27300000Y-19281695D01*
X27244200Y-19251869D01*
X27173513Y-19230426D01*
X27100000Y-19223186D01*
X26700000Y-19223186D01*
X26626487Y-19230426D01*
X26555800Y-19251869D01*
X26500000Y-19281695D01*
X26444200Y-19251869D01*
X26373513Y-19230426D01*
X26300000Y-19223186D01*
X26218750Y-19225000D01*
X26125000Y-19318750D01*
X26125000Y-20125000D01*
X26145000Y-20125000D01*
X26145000Y-20175000D01*
X26125000Y-20175000D01*
X26125000Y-20195000D01*
X26075000Y-20195000D01*
X26075000Y-20175000D01*
X26055000Y-20175000D01*
X26055000Y-20125000D01*
X26075000Y-20125000D01*
X26075000Y-19318750D01*
X25981250Y-19225000D01*
X25953290Y-19224376D01*
X25949060Y-19203110D01*
X25898177Y-19080268D01*
X25824307Y-18969713D01*
X25775000Y-18920406D01*
X25775000Y-18637416D01*
X25803110Y-18649060D01*
X25933518Y-18675000D01*
X26066482Y-18675000D01*
X26196890Y-18649060D01*
X26319732Y-18598177D01*
X26430287Y-18524307D01*
X26524307Y-18430287D01*
X26598177Y-18319732D01*
X26649060Y-18196890D01*
X26675000Y-18066482D01*
X26675000Y-17960000D01*
X28323186Y-17960000D01*
X28330426Y-18033513D01*
X28351869Y-18104200D01*
X28386691Y-18169347D01*
X28433552Y-18226448D01*
X28490653Y-18273309D01*
X28555800Y-18308131D01*
X28626487Y-18329574D01*
X28700000Y-18336814D01*
X29331250Y-18335000D01*
X29425000Y-18241250D01*
X29425000Y-17785000D01*
X28418750Y-17785000D01*
X28325000Y-17878750D01*
X28323186Y-17960000D01*
X26675000Y-17960000D01*
X26675000Y-17933518D01*
X26649060Y-17803110D01*
X26598177Y-17680268D01*
X26524307Y-17569713D01*
X26475000Y-17520406D01*
X26475000Y-14596750D01*
X26736751Y-14335000D01*
X28323186Y-14335000D01*
X28323186Y-14710000D01*
G04 #@! TA.AperFunction,Conductor*
D19*
G36*
X28323186Y-14710000D02*
G01*
X28330426Y-14783513D01*
X28346045Y-14835000D01*
X28330426Y-14886487D01*
X28323186Y-14960000D01*
X28323186Y-15360000D01*
X28330426Y-15433513D01*
X28346045Y-15485000D01*
X28330426Y-15536487D01*
X28323186Y-15610000D01*
X28323186Y-16010000D01*
X28330426Y-16083513D01*
X28346045Y-16135000D01*
X28330426Y-16186487D01*
X28323186Y-16260000D01*
X28323186Y-16660000D01*
X28330426Y-16733513D01*
X28346045Y-16785000D01*
X28330426Y-16836487D01*
X28323186Y-16910000D01*
X28323186Y-17310000D01*
X28330426Y-17383513D01*
X28346045Y-17435000D01*
X28330426Y-17486487D01*
X28323186Y-17560000D01*
X28325000Y-17641250D01*
X28418750Y-17735000D01*
X29425000Y-17735000D01*
X29425000Y-17715000D01*
X29475000Y-17715000D01*
X29475000Y-17735000D01*
X29495000Y-17735000D01*
X29495000Y-17785000D01*
X29475000Y-17785000D01*
X29475000Y-18241250D01*
X29568750Y-18335000D01*
X30200000Y-18336814D01*
X30273513Y-18329574D01*
X30325000Y-18313955D01*
X30325000Y-21803249D01*
X29903250Y-22225000D01*
X28276814Y-22225000D01*
X28276814Y-21300000D01*
X28269574Y-21226487D01*
X28248131Y-21155800D01*
X28213309Y-21090653D01*
X28166448Y-21033552D01*
X28125564Y-21000000D01*
X28166448Y-20966448D01*
X28213309Y-20909347D01*
X28248131Y-20844200D01*
X28269574Y-20773513D01*
X28276814Y-20700000D01*
X28276814Y-19600000D01*
X28269574Y-19526487D01*
X28248131Y-19455800D01*
X28213309Y-19390653D01*
X28166448Y-19333552D01*
X28109347Y-19286691D01*
X28044200Y-19251869D01*
X27973513Y-19230426D01*
X27900000Y-19223186D01*
X27500000Y-19223186D01*
X27426487Y-19230426D01*
X27355800Y-19251869D01*
X27300000Y-19281695D01*
X27244200Y-19251869D01*
X27173513Y-19230426D01*
X27100000Y-19223186D01*
X26700000Y-19223186D01*
X26626487Y-19230426D01*
X26555800Y-19251869D01*
X26500000Y-19281695D01*
X26444200Y-19251869D01*
X26373513Y-19230426D01*
X26300000Y-19223186D01*
X26218750Y-19225000D01*
X26125000Y-19318750D01*
X26125000Y-20125000D01*
X26145000Y-20125000D01*
X26145000Y-20175000D01*
X26125000Y-20175000D01*
X26125000Y-20195000D01*
X26075000Y-20195000D01*
X26075000Y-20175000D01*
X26055000Y-20175000D01*
X26055000Y-20125000D01*
X26075000Y-20125000D01*
X26075000Y-19318750D01*
X25981250Y-19225000D01*
X25953290Y-19224376D01*
X25949060Y-19203110D01*
X25898177Y-19080268D01*
X25824307Y-18969713D01*
X25775000Y-18920406D01*
X25775000Y-18637416D01*
X25803110Y-18649060D01*
X25933518Y-18675000D01*
X26066482Y-18675000D01*
X26196890Y-18649060D01*
X26319732Y-18598177D01*
X26430287Y-18524307D01*
X26524307Y-18430287D01*
X26598177Y-18319732D01*
X26649060Y-18196890D01*
X26675000Y-18066482D01*
X26675000Y-17960000D01*
X28323186Y-17960000D01*
X28330426Y-18033513D01*
X28351869Y-18104200D01*
X28386691Y-18169347D01*
X28433552Y-18226448D01*
X28490653Y-18273309D01*
X28555800Y-18308131D01*
X28626487Y-18329574D01*
X28700000Y-18336814D01*
X29331250Y-18335000D01*
X29425000Y-18241250D01*
X29425000Y-17785000D01*
X28418750Y-17785000D01*
X28325000Y-17878750D01*
X28323186Y-17960000D01*
X26675000Y-17960000D01*
X26675000Y-17933518D01*
X26649060Y-17803110D01*
X26598177Y-17680268D01*
X26524307Y-17569713D01*
X26475000Y-17520406D01*
X26475000Y-14596750D01*
X26736751Y-14335000D01*
X28323186Y-14335000D01*
X28323186Y-14710000D01*
G37*
G04 #@! TD.AperFunction*
D18*
X22125000Y-18596751D02*
X22125000Y-18666482D01*
X22150940Y-18796890D01*
X22201823Y-18919732D01*
X22255456Y-19000000D01*
X22201823Y-19080268D01*
X22150940Y-19203110D01*
X22125000Y-19333518D01*
X22125000Y-19466482D01*
X22150940Y-19596890D01*
X22201823Y-19719732D01*
X22275693Y-19830287D01*
X22325000Y-19879594D01*
X22325000Y-20003249D01*
X21553250Y-20775000D01*
X21353955Y-20775000D01*
X21348131Y-20755800D01*
X21313309Y-20690653D01*
X21266448Y-20633552D01*
X21209347Y-20586691D01*
X21144200Y-20551869D01*
X21073513Y-20530426D01*
X21000000Y-20523186D01*
X20000000Y-20523186D01*
X19926487Y-20530426D01*
X19855800Y-20551869D01*
X19790653Y-20586691D01*
X19733552Y-20633552D01*
X19686691Y-20690653D01*
X19651869Y-20755800D01*
X19642650Y-20786191D01*
X19629722Y-20790112D01*
X19567346Y-20809034D01*
X19484827Y-20853141D01*
X19475000Y-20861206D01*
X19475000Y-20100000D01*
X19623186Y-20100000D01*
X19630426Y-20173513D01*
X19651869Y-20244200D01*
X19686691Y-20309347D01*
X19733552Y-20366448D01*
X19790653Y-20413309D01*
X19855800Y-20448131D01*
X19926487Y-20469574D01*
X20000000Y-20476814D01*
X20381250Y-20475000D01*
X20475000Y-20381250D01*
X20475000Y-19775000D01*
X20525000Y-19775000D01*
X20525000Y-20381250D01*
X20618750Y-20475000D01*
X21000000Y-20476814D01*
X21073513Y-20469574D01*
X21144200Y-20448131D01*
X21209347Y-20413309D01*
X21266448Y-20366448D01*
X21313309Y-20309347D01*
X21348131Y-20244200D01*
X21369574Y-20173513D01*
X21376814Y-20100000D01*
X21375000Y-19868750D01*
X21281250Y-19775000D01*
X20525000Y-19775000D01*
X20475000Y-19775000D01*
X19718750Y-19775000D01*
X19625000Y-19868750D01*
X19623186Y-20100000D01*
X19475000Y-20100000D01*
X19475000Y-19762448D01*
X19624854Y-19612595D01*
X19625000Y-19631250D01*
X19718750Y-19725000D01*
X20475000Y-19725000D01*
X20475000Y-19118750D01*
X20525000Y-19118750D01*
X20525000Y-19725000D01*
X21281250Y-19725000D01*
X21375000Y-19631250D01*
X21376814Y-19400000D01*
X21369574Y-19326487D01*
X21348131Y-19255800D01*
X21313309Y-19190653D01*
X21266448Y-19133552D01*
X21209347Y-19086691D01*
X21144200Y-19051869D01*
X21073513Y-19030426D01*
X21000000Y-19023186D01*
X20618750Y-19025000D01*
X20525000Y-19118750D01*
X20475000Y-19118750D01*
X20381250Y-19025000D01*
X20213249Y-19024201D01*
X20562450Y-18675000D01*
X20720406Y-18675000D01*
X20769713Y-18724307D01*
X20880268Y-18798177D01*
X21003110Y-18849060D01*
X21133518Y-18875000D01*
X21266482Y-18875000D01*
X21396890Y-18849060D01*
X21519732Y-18798177D01*
X21630287Y-18724307D01*
X21724307Y-18630287D01*
X21798177Y-18519732D01*
X21849060Y-18396890D01*
X21861682Y-18333433D01*
X22125000Y-18596751D01*
G04 #@! TA.AperFunction,Conductor*
D19*
G36*
X22125000Y-18596751D02*
G01*
X22125000Y-18666482D01*
X22150940Y-18796890D01*
X22201823Y-18919732D01*
X22255456Y-19000000D01*
X22201823Y-19080268D01*
X22150940Y-19203110D01*
X22125000Y-19333518D01*
X22125000Y-19466482D01*
X22150940Y-19596890D01*
X22201823Y-19719732D01*
X22275693Y-19830287D01*
X22325000Y-19879594D01*
X22325000Y-20003249D01*
X21553250Y-20775000D01*
X21353955Y-20775000D01*
X21348131Y-20755800D01*
X21313309Y-20690653D01*
X21266448Y-20633552D01*
X21209347Y-20586691D01*
X21144200Y-20551869D01*
X21073513Y-20530426D01*
X21000000Y-20523186D01*
X20000000Y-20523186D01*
X19926487Y-20530426D01*
X19855800Y-20551869D01*
X19790653Y-20586691D01*
X19733552Y-20633552D01*
X19686691Y-20690653D01*
X19651869Y-20755800D01*
X19642650Y-20786191D01*
X19629722Y-20790112D01*
X19567346Y-20809034D01*
X19484827Y-20853141D01*
X19475000Y-20861206D01*
X19475000Y-20100000D01*
X19623186Y-20100000D01*
X19630426Y-20173513D01*
X19651869Y-20244200D01*
X19686691Y-20309347D01*
X19733552Y-20366448D01*
X19790653Y-20413309D01*
X19855800Y-20448131D01*
X19926487Y-20469574D01*
X20000000Y-20476814D01*
X20381250Y-20475000D01*
X20475000Y-20381250D01*
X20475000Y-19775000D01*
X20525000Y-19775000D01*
X20525000Y-20381250D01*
X20618750Y-20475000D01*
X21000000Y-20476814D01*
X21073513Y-20469574D01*
X21144200Y-20448131D01*
X21209347Y-20413309D01*
X21266448Y-20366448D01*
X21313309Y-20309347D01*
X21348131Y-20244200D01*
X21369574Y-20173513D01*
X21376814Y-20100000D01*
X21375000Y-19868750D01*
X21281250Y-19775000D01*
X20525000Y-19775000D01*
X20475000Y-19775000D01*
X19718750Y-19775000D01*
X19625000Y-19868750D01*
X19623186Y-20100000D01*
X19475000Y-20100000D01*
X19475000Y-19762448D01*
X19624854Y-19612595D01*
X19625000Y-19631250D01*
X19718750Y-19725000D01*
X20475000Y-19725000D01*
X20475000Y-19118750D01*
X20525000Y-19118750D01*
X20525000Y-19725000D01*
X21281250Y-19725000D01*
X21375000Y-19631250D01*
X21376814Y-19400000D01*
X21369574Y-19326487D01*
X21348131Y-19255800D01*
X21313309Y-19190653D01*
X21266448Y-19133552D01*
X21209347Y-19086691D01*
X21144200Y-19051869D01*
X21073513Y-19030426D01*
X21000000Y-19023186D01*
X20618750Y-19025000D01*
X20525000Y-19118750D01*
X20475000Y-19118750D01*
X20381250Y-19025000D01*
X20213249Y-19024201D01*
X20562450Y-18675000D01*
X20720406Y-18675000D01*
X20769713Y-18724307D01*
X20880268Y-18798177D01*
X21003110Y-18849060D01*
X21133518Y-18875000D01*
X21266482Y-18875000D01*
X21396890Y-18849060D01*
X21519732Y-18798177D01*
X21630287Y-18724307D01*
X21724307Y-18630287D01*
X21798177Y-18519732D01*
X21849060Y-18396890D01*
X21861682Y-18333433D01*
X22125000Y-18596751D01*
G37*
G04 #@! TD.AperFunction*
D18*
X13334827Y-16603141D02*
X13262499Y-16662499D01*
X13247620Y-16680629D01*
X12880629Y-17047621D01*
X12862500Y-17062499D01*
X12803142Y-17134827D01*
X12761402Y-17212917D01*
X12759035Y-17217346D01*
X12731873Y-17306884D01*
X12722702Y-17400000D01*
X12725001Y-17423341D01*
X12725000Y-18920406D01*
X12675693Y-18969713D01*
X12601823Y-19080268D01*
X12550940Y-19203110D01*
X12525000Y-19333518D01*
X12525000Y-19466482D01*
X12550940Y-19596890D01*
X12562579Y-19624990D01*
X9412458Y-19624990D01*
X12452409Y-16585040D01*
X13368692Y-16585040D01*
X13334827Y-16603141D01*
G04 #@! TA.AperFunction,Conductor*
D19*
G36*
X13334827Y-16603141D02*
G01*
X13262499Y-16662499D01*
X13247620Y-16680629D01*
X12880629Y-17047621D01*
X12862500Y-17062499D01*
X12803142Y-17134827D01*
X12761402Y-17212917D01*
X12759035Y-17217346D01*
X12731873Y-17306884D01*
X12722702Y-17400000D01*
X12725001Y-17423341D01*
X12725000Y-18920406D01*
X12675693Y-18969713D01*
X12601823Y-19080268D01*
X12550940Y-19203110D01*
X12525000Y-19333518D01*
X12525000Y-19466482D01*
X12550940Y-19596890D01*
X12562579Y-19624990D01*
X9412458Y-19624990D01*
X12452409Y-16585040D01*
X13368692Y-16585040D01*
X13334827Y-16603141D01*
G37*
G04 #@! TD.AperFunction*
D18*
X7323186Y-14060000D02*
X7330426Y-14133513D01*
X7346045Y-14185000D01*
X7330426Y-14236487D01*
X7323186Y-14310000D01*
X7323186Y-14710000D01*
X7330426Y-14783513D01*
X7346045Y-14835000D01*
X7330426Y-14886487D01*
X7323186Y-14960000D01*
X7323186Y-15360000D01*
X7330426Y-15433513D01*
X7346045Y-15485000D01*
X7330426Y-15536487D01*
X7323186Y-15610000D01*
X7323186Y-16010000D01*
X7330426Y-16083513D01*
X7346045Y-16135000D01*
X7330426Y-16186487D01*
X7323186Y-16260000D01*
X7323186Y-16660000D01*
X7330426Y-16733513D01*
X7346045Y-16785000D01*
X7330426Y-16836487D01*
X7323186Y-16910000D01*
X7323186Y-17310000D01*
X7330426Y-17383513D01*
X7346045Y-17435000D01*
X7330426Y-17486487D01*
X7323186Y-17560000D01*
X7325000Y-17641250D01*
X7418750Y-17735000D01*
X8425000Y-17735000D01*
X8425000Y-17715000D01*
X8475000Y-17715000D01*
X8475000Y-17735000D01*
X9481250Y-17735000D01*
X9575000Y-17641250D01*
X9576256Y-17585000D01*
X10108948Y-17585000D01*
X8768948Y-18925000D01*
X6279594Y-18925000D01*
X6230287Y-18875693D01*
X6119732Y-18801823D01*
X5996890Y-18750940D01*
X5866482Y-18725000D01*
X5733518Y-18725000D01*
X5603110Y-18750940D01*
X5480268Y-18801823D01*
X5369713Y-18875693D01*
X5275693Y-18969713D01*
X5201823Y-19080268D01*
X5187236Y-19115485D01*
X4675000Y-18603250D01*
X4675000Y-17960000D01*
X7323186Y-17960000D01*
X7330426Y-18033513D01*
X7351869Y-18104200D01*
X7386691Y-18169347D01*
X7433552Y-18226448D01*
X7490653Y-18273309D01*
X7555800Y-18308131D01*
X7626487Y-18329574D01*
X7700000Y-18336814D01*
X8331250Y-18335000D01*
X8425000Y-18241250D01*
X8425000Y-17785000D01*
X8475000Y-17785000D01*
X8475000Y-18241250D01*
X8568750Y-18335000D01*
X9200000Y-18336814D01*
X9273513Y-18329574D01*
X9344200Y-18308131D01*
X9409347Y-18273309D01*
X9466448Y-18226448D01*
X9513309Y-18169347D01*
X9548131Y-18104200D01*
X9569574Y-18033513D01*
X9576814Y-17960000D01*
X9575000Y-17878750D01*
X9481250Y-17785000D01*
X8475000Y-17785000D01*
X8425000Y-17785000D01*
X7418750Y-17785000D01*
X7325000Y-17878750D01*
X7323186Y-17960000D01*
X4675000Y-17960000D01*
X4675000Y-16323331D01*
X4677298Y-16299999D01*
X4668127Y-16206883D01*
X4654625Y-16162373D01*
X4640966Y-16117346D01*
X4596859Y-16034827D01*
X4537501Y-15962499D01*
X4519371Y-15947620D01*
X4475000Y-15903249D01*
X4475000Y-15833518D01*
X4449060Y-15703110D01*
X4398177Y-15580268D01*
X4324307Y-15469713D01*
X4304594Y-15450000D01*
X4324307Y-15430287D01*
X4398177Y-15319732D01*
X4449060Y-15196890D01*
X4475000Y-15066482D01*
X4475000Y-14933518D01*
X4449060Y-14803110D01*
X4398177Y-14680268D01*
X4324307Y-14569713D01*
X4230287Y-14475693D01*
X4119732Y-14401823D01*
X3996890Y-14350940D01*
X3916755Y-14335000D01*
X6716668Y-14335000D01*
X6740000Y-14337298D01*
X6763332Y-14335000D01*
X6833116Y-14328127D01*
X6922654Y-14300966D01*
X7005173Y-14256859D01*
X7077501Y-14197501D01*
X7092384Y-14179366D01*
X7323186Y-13948565D01*
X7323186Y-14060000D01*
G04 #@! TA.AperFunction,Conductor*
D19*
G36*
X7323186Y-14060000D02*
G01*
X7330426Y-14133513D01*
X7346045Y-14185000D01*
X7330426Y-14236487D01*
X7323186Y-14310000D01*
X7323186Y-14710000D01*
X7330426Y-14783513D01*
X7346045Y-14835000D01*
X7330426Y-14886487D01*
X7323186Y-14960000D01*
X7323186Y-15360000D01*
X7330426Y-15433513D01*
X7346045Y-15485000D01*
X7330426Y-15536487D01*
X7323186Y-15610000D01*
X7323186Y-16010000D01*
X7330426Y-16083513D01*
X7346045Y-16135000D01*
X7330426Y-16186487D01*
X7323186Y-16260000D01*
X7323186Y-16660000D01*
X7330426Y-16733513D01*
X7346045Y-16785000D01*
X7330426Y-16836487D01*
X7323186Y-16910000D01*
X7323186Y-17310000D01*
X7330426Y-17383513D01*
X7346045Y-17435000D01*
X7330426Y-17486487D01*
X7323186Y-17560000D01*
X7325000Y-17641250D01*
X7418750Y-17735000D01*
X8425000Y-17735000D01*
X8425000Y-17715000D01*
X8475000Y-17715000D01*
X8475000Y-17735000D01*
X9481250Y-17735000D01*
X9575000Y-17641250D01*
X9576256Y-17585000D01*
X10108948Y-17585000D01*
X8768948Y-18925000D01*
X6279594Y-18925000D01*
X6230287Y-18875693D01*
X6119732Y-18801823D01*
X5996890Y-18750940D01*
X5866482Y-18725000D01*
X5733518Y-18725000D01*
X5603110Y-18750940D01*
X5480268Y-18801823D01*
X5369713Y-18875693D01*
X5275693Y-18969713D01*
X5201823Y-19080268D01*
X5187236Y-19115485D01*
X4675000Y-18603250D01*
X4675000Y-17960000D01*
X7323186Y-17960000D01*
X7330426Y-18033513D01*
X7351869Y-18104200D01*
X7386691Y-18169347D01*
X7433552Y-18226448D01*
X7490653Y-18273309D01*
X7555800Y-18308131D01*
X7626487Y-18329574D01*
X7700000Y-18336814D01*
X8331250Y-18335000D01*
X8425000Y-18241250D01*
X8425000Y-17785000D01*
X8475000Y-17785000D01*
X8475000Y-18241250D01*
X8568750Y-18335000D01*
X9200000Y-18336814D01*
X9273513Y-18329574D01*
X9344200Y-18308131D01*
X9409347Y-18273309D01*
X9466448Y-18226448D01*
X9513309Y-18169347D01*
X9548131Y-18104200D01*
X9569574Y-18033513D01*
X9576814Y-17960000D01*
X9575000Y-17878750D01*
X9481250Y-17785000D01*
X8475000Y-17785000D01*
X8425000Y-17785000D01*
X7418750Y-17785000D01*
X7325000Y-17878750D01*
X7323186Y-17960000D01*
X4675000Y-17960000D01*
X4675000Y-16323331D01*
X4677298Y-16299999D01*
X4668127Y-16206883D01*
X4654625Y-16162373D01*
X4640966Y-16117346D01*
X4596859Y-16034827D01*
X4537501Y-15962499D01*
X4519371Y-15947620D01*
X4475000Y-15903249D01*
X4475000Y-15833518D01*
X4449060Y-15703110D01*
X4398177Y-15580268D01*
X4324307Y-15469713D01*
X4304594Y-15450000D01*
X4324307Y-15430287D01*
X4398177Y-15319732D01*
X4449060Y-15196890D01*
X4475000Y-15066482D01*
X4475000Y-14933518D01*
X4449060Y-14803110D01*
X4398177Y-14680268D01*
X4324307Y-14569713D01*
X4230287Y-14475693D01*
X4119732Y-14401823D01*
X3996890Y-14350940D01*
X3916755Y-14335000D01*
X6716668Y-14335000D01*
X6740000Y-14337298D01*
X6763332Y-14335000D01*
X6833116Y-14328127D01*
X6922654Y-14300966D01*
X7005173Y-14256859D01*
X7077501Y-14197501D01*
X7092384Y-14179366D01*
X7323186Y-13948565D01*
X7323186Y-14060000D01*
G37*
G04 #@! TD.AperFunction*
D18*
X21687551Y-17125000D02*
X20423332Y-17125000D01*
X20400000Y-17122702D01*
X20306884Y-17131873D01*
X20217345Y-17159034D01*
X20188950Y-17174212D01*
X20134827Y-17203141D01*
X20062499Y-17262499D01*
X20047625Y-17280623D01*
X18526657Y-18801592D01*
X18526814Y-18800000D01*
X18525000Y-18618750D01*
X18431250Y-18525000D01*
X17275000Y-18525000D01*
X17275000Y-18545000D01*
X17225000Y-18545000D01*
X17225000Y-18525000D01*
X16068750Y-18525000D01*
X15975000Y-18618750D01*
X15973186Y-18800000D01*
X15980426Y-18873513D01*
X16001869Y-18944200D01*
X16036691Y-19009347D01*
X16049537Y-19025000D01*
X15981668Y-19025000D01*
X15963309Y-18990653D01*
X15916448Y-18933552D01*
X15859347Y-18886691D01*
X15794200Y-18851869D01*
X15723513Y-18830426D01*
X15650000Y-18823186D01*
X13850000Y-18823186D01*
X13776487Y-18830426D01*
X13705800Y-18851869D01*
X13675000Y-18868332D01*
X13675000Y-17831668D01*
X13705800Y-17848131D01*
X13776487Y-17869574D01*
X13850000Y-17876814D01*
X15650000Y-17876814D01*
X15723513Y-17869574D01*
X15794200Y-17848131D01*
X15859347Y-17813309D01*
X15916448Y-17766448D01*
X15963309Y-17709347D01*
X15998131Y-17644200D01*
X16000000Y-17638039D01*
X16001869Y-17644200D01*
X16036691Y-17709347D01*
X16083552Y-17766448D01*
X16140653Y-17813309D01*
X16205800Y-17848131D01*
X16211961Y-17850000D01*
X16205800Y-17851869D01*
X16140653Y-17886691D01*
X16083552Y-17933552D01*
X16036691Y-17990653D01*
X16001869Y-18055800D01*
X15980426Y-18126487D01*
X15973186Y-18200000D01*
X15975000Y-18381250D01*
X16068750Y-18475000D01*
X17225000Y-18475000D01*
X17225000Y-18455000D01*
X17275000Y-18455000D01*
X17275000Y-18475000D01*
X18431250Y-18475000D01*
X18525000Y-18381250D01*
X18526814Y-18200000D01*
X18519574Y-18126487D01*
X18498131Y-18055800D01*
X18463309Y-17990653D01*
X18416448Y-17933552D01*
X18359347Y-17886691D01*
X18294200Y-17851869D01*
X18288039Y-17850000D01*
X18294200Y-17848131D01*
X18359347Y-17813309D01*
X18416448Y-17766448D01*
X18463309Y-17709347D01*
X18498131Y-17644200D01*
X18519574Y-17573513D01*
X18526814Y-17500000D01*
X18526814Y-16585040D01*
X21147592Y-16585040D01*
X21687551Y-17125000D01*
G04 #@! TA.AperFunction,Conductor*
D19*
G36*
X21687551Y-17125000D02*
G01*
X20423332Y-17125000D01*
X20400000Y-17122702D01*
X20306884Y-17131873D01*
X20217345Y-17159034D01*
X20188950Y-17174212D01*
X20134827Y-17203141D01*
X20062499Y-17262499D01*
X20047625Y-17280623D01*
X18526657Y-18801592D01*
X18526814Y-18800000D01*
X18525000Y-18618750D01*
X18431250Y-18525000D01*
X17275000Y-18525000D01*
X17275000Y-18545000D01*
X17225000Y-18545000D01*
X17225000Y-18525000D01*
X16068750Y-18525000D01*
X15975000Y-18618750D01*
X15973186Y-18800000D01*
X15980426Y-18873513D01*
X16001869Y-18944200D01*
X16036691Y-19009347D01*
X16049537Y-19025000D01*
X15981668Y-19025000D01*
X15963309Y-18990653D01*
X15916448Y-18933552D01*
X15859347Y-18886691D01*
X15794200Y-18851869D01*
X15723513Y-18830426D01*
X15650000Y-18823186D01*
X13850000Y-18823186D01*
X13776487Y-18830426D01*
X13705800Y-18851869D01*
X13675000Y-18868332D01*
X13675000Y-17831668D01*
X13705800Y-17848131D01*
X13776487Y-17869574D01*
X13850000Y-17876814D01*
X15650000Y-17876814D01*
X15723513Y-17869574D01*
X15794200Y-17848131D01*
X15859347Y-17813309D01*
X15916448Y-17766448D01*
X15963309Y-17709347D01*
X15998131Y-17644200D01*
X16000000Y-17638039D01*
X16001869Y-17644200D01*
X16036691Y-17709347D01*
X16083552Y-17766448D01*
X16140653Y-17813309D01*
X16205800Y-17848131D01*
X16211961Y-17850000D01*
X16205800Y-17851869D01*
X16140653Y-17886691D01*
X16083552Y-17933552D01*
X16036691Y-17990653D01*
X16001869Y-18055800D01*
X15980426Y-18126487D01*
X15973186Y-18200000D01*
X15975000Y-18381250D01*
X16068750Y-18475000D01*
X17225000Y-18475000D01*
X17225000Y-18455000D01*
X17275000Y-18455000D01*
X17275000Y-18475000D01*
X18431250Y-18475000D01*
X18525000Y-18381250D01*
X18526814Y-18200000D01*
X18519574Y-18126487D01*
X18498131Y-18055800D01*
X18463309Y-17990653D01*
X18416448Y-17933552D01*
X18359347Y-17886691D01*
X18294200Y-17851869D01*
X18288039Y-17850000D01*
X18294200Y-17848131D01*
X18359347Y-17813309D01*
X18416448Y-17766448D01*
X18463309Y-17709347D01*
X18498131Y-17644200D01*
X18519574Y-17573513D01*
X18526814Y-17500000D01*
X18526814Y-16585040D01*
X21147592Y-16585040D01*
X21687551Y-17125000D01*
G37*
G04 #@! TD.AperFunction*
D18*
X20257620Y-13529371D02*
X20272499Y-13547501D01*
X20344827Y-13606859D01*
X20397154Y-13634828D01*
X20427345Y-13650966D01*
X20516884Y-13678127D01*
X20610000Y-13687298D01*
X20633332Y-13685000D01*
X22423744Y-13685000D01*
X22425000Y-13741250D01*
X22518750Y-13835000D01*
X23525000Y-13835000D01*
X23525000Y-13815000D01*
X23575000Y-13815000D01*
X23575000Y-13835000D01*
X24581250Y-13835000D01*
X24675000Y-13741250D01*
X24676256Y-13685000D01*
X25124990Y-13685000D01*
X25124990Y-13823321D01*
X25124991Y-13823331D01*
X25124990Y-17203260D01*
X24980629Y-17347621D01*
X24962500Y-17362499D01*
X24903142Y-17434827D01*
X24872003Y-17493085D01*
X24859035Y-17517346D01*
X24831873Y-17606884D01*
X24822702Y-17700000D01*
X24825001Y-17723342D01*
X24825000Y-18345025D01*
X24798177Y-18280268D01*
X24724307Y-18169713D01*
X24650613Y-18096019D01*
X24669574Y-18033513D01*
X24676814Y-17960000D01*
X24676814Y-17560000D01*
X24669574Y-17486487D01*
X24653955Y-17435000D01*
X24669574Y-17383513D01*
X24676814Y-17310000D01*
X24676814Y-16910000D01*
X24669574Y-16836487D01*
X24653955Y-16785000D01*
X24669574Y-16733513D01*
X24676814Y-16660000D01*
X24676814Y-16260000D01*
X24669574Y-16186487D01*
X24653955Y-16135000D01*
X24669574Y-16083513D01*
X24676814Y-16010000D01*
X24676814Y-15610000D01*
X24669574Y-15536487D01*
X24653955Y-15485000D01*
X24669574Y-15433513D01*
X24676814Y-15360000D01*
X24676814Y-14960000D01*
X24669574Y-14886487D01*
X24653955Y-14835000D01*
X24669574Y-14783513D01*
X24676814Y-14710000D01*
X24676814Y-14310000D01*
X24669574Y-14236487D01*
X24653955Y-14185000D01*
X24669574Y-14133513D01*
X24676814Y-14060000D01*
X24675000Y-13978750D01*
X24581250Y-13885000D01*
X23575000Y-13885000D01*
X23575000Y-13905000D01*
X23525000Y-13905000D01*
X23525000Y-13885000D01*
X22518750Y-13885000D01*
X22425000Y-13978750D01*
X22423744Y-14035000D01*
X19806751Y-14035000D01*
X19693520Y-13921769D01*
X19709347Y-13913309D01*
X19766448Y-13866448D01*
X19813309Y-13809347D01*
X19848131Y-13744200D01*
X19857350Y-13713809D01*
X19932654Y-13690966D01*
X20015173Y-13646859D01*
X20087501Y-13587501D01*
X20102384Y-13569366D01*
X20200000Y-13471750D01*
X20257620Y-13529371D01*
G04 #@! TA.AperFunction,Conductor*
D19*
G36*
X20257620Y-13529371D02*
G01*
X20272499Y-13547501D01*
X20344827Y-13606859D01*
X20397154Y-13634828D01*
X20427345Y-13650966D01*
X20516884Y-13678127D01*
X20610000Y-13687298D01*
X20633332Y-13685000D01*
X22423744Y-13685000D01*
X22425000Y-13741250D01*
X22518750Y-13835000D01*
X23525000Y-13835000D01*
X23525000Y-13815000D01*
X23575000Y-13815000D01*
X23575000Y-13835000D01*
X24581250Y-13835000D01*
X24675000Y-13741250D01*
X24676256Y-13685000D01*
X25124990Y-13685000D01*
X25124990Y-13823321D01*
X25124991Y-13823331D01*
X25124990Y-17203260D01*
X24980629Y-17347621D01*
X24962500Y-17362499D01*
X24903142Y-17434827D01*
X24872003Y-17493085D01*
X24859035Y-17517346D01*
X24831873Y-17606884D01*
X24822702Y-17700000D01*
X24825001Y-17723342D01*
X24825000Y-18345025D01*
X24798177Y-18280268D01*
X24724307Y-18169713D01*
X24650613Y-18096019D01*
X24669574Y-18033513D01*
X24676814Y-17960000D01*
X24676814Y-17560000D01*
X24669574Y-17486487D01*
X24653955Y-17435000D01*
X24669574Y-17383513D01*
X24676814Y-17310000D01*
X24676814Y-16910000D01*
X24669574Y-16836487D01*
X24653955Y-16785000D01*
X24669574Y-16733513D01*
X24676814Y-16660000D01*
X24676814Y-16260000D01*
X24669574Y-16186487D01*
X24653955Y-16135000D01*
X24669574Y-16083513D01*
X24676814Y-16010000D01*
X24676814Y-15610000D01*
X24669574Y-15536487D01*
X24653955Y-15485000D01*
X24669574Y-15433513D01*
X24676814Y-15360000D01*
X24676814Y-14960000D01*
X24669574Y-14886487D01*
X24653955Y-14835000D01*
X24669574Y-14783513D01*
X24676814Y-14710000D01*
X24676814Y-14310000D01*
X24669574Y-14236487D01*
X24653955Y-14185000D01*
X24669574Y-14133513D01*
X24676814Y-14060000D01*
X24675000Y-13978750D01*
X24581250Y-13885000D01*
X23575000Y-13885000D01*
X23575000Y-13905000D01*
X23525000Y-13905000D01*
X23525000Y-13885000D01*
X22518750Y-13885000D01*
X22425000Y-13978750D01*
X22423744Y-14035000D01*
X19806751Y-14035000D01*
X19693520Y-13921769D01*
X19709347Y-13913309D01*
X19766448Y-13866448D01*
X19813309Y-13809347D01*
X19848131Y-13744200D01*
X19857350Y-13713809D01*
X19932654Y-13690966D01*
X20015173Y-13646859D01*
X20087501Y-13587501D01*
X20102384Y-13569366D01*
X20200000Y-13471750D01*
X20257620Y-13529371D01*
G37*
G04 #@! TD.AperFunction*
D18*
X1423186Y-14060000D02*
X1430426Y-14133513D01*
X1446045Y-14185000D01*
X1430426Y-14236487D01*
X1423186Y-14310000D01*
X1423186Y-14710000D01*
X1430426Y-14783513D01*
X1446045Y-14835000D01*
X1430426Y-14886487D01*
X1423186Y-14960000D01*
X1425000Y-15041250D01*
X1518750Y-15135000D01*
X2525000Y-15135000D01*
X2525000Y-15115000D01*
X2575000Y-15115000D01*
X2575000Y-15135000D01*
X2595000Y-15135000D01*
X2595000Y-15185000D01*
X2575000Y-15185000D01*
X2575000Y-15205000D01*
X2525000Y-15205000D01*
X2525000Y-15185000D01*
X1518750Y-15185000D01*
X1425000Y-15278750D01*
X1423186Y-15360000D01*
X1430426Y-15433513D01*
X1446045Y-15485000D01*
X1430426Y-15536487D01*
X1423186Y-15610000D01*
X1423186Y-16010000D01*
X1430426Y-16083513D01*
X1446045Y-16135000D01*
X1430426Y-16186487D01*
X1423186Y-16260000D01*
X1423186Y-16585000D01*
X1125000Y-16585000D01*
X1125000Y-14217461D01*
X1423186Y-13919276D01*
X1423186Y-14060000D01*
G04 #@! TA.AperFunction,Conductor*
D19*
G36*
X1423186Y-14060000D02*
G01*
X1430426Y-14133513D01*
X1446045Y-14185000D01*
X1430426Y-14236487D01*
X1423186Y-14310000D01*
X1423186Y-14710000D01*
X1430426Y-14783513D01*
X1446045Y-14835000D01*
X1430426Y-14886487D01*
X1423186Y-14960000D01*
X1425000Y-15041250D01*
X1518750Y-15135000D01*
X2525000Y-15135000D01*
X2525000Y-15115000D01*
X2575000Y-15115000D01*
X2575000Y-15135000D01*
X2595000Y-15135000D01*
X2595000Y-15185000D01*
X2575000Y-15185000D01*
X2575000Y-15205000D01*
X2525000Y-15205000D01*
X2525000Y-15185000D01*
X1518750Y-15185000D01*
X1425000Y-15278750D01*
X1423186Y-15360000D01*
X1430426Y-15433513D01*
X1446045Y-15485000D01*
X1430426Y-15536487D01*
X1423186Y-15610000D01*
X1423186Y-16010000D01*
X1430426Y-16083513D01*
X1446045Y-16135000D01*
X1430426Y-16186487D01*
X1423186Y-16260000D01*
X1423186Y-16585000D01*
X1125000Y-16585000D01*
X1125000Y-14217461D01*
X1423186Y-13919276D01*
X1423186Y-14060000D01*
G37*
G04 #@! TD.AperFunction*
D18*
X13525001Y-11025648D02*
X13500000Y-11023186D01*
X13118750Y-11025000D01*
X13025000Y-11118750D01*
X13025000Y-11725000D01*
X13045000Y-11725000D01*
X13045000Y-11775000D01*
X13025000Y-11775000D01*
X13025000Y-12381250D01*
X13118750Y-12475000D01*
X13500000Y-12476814D01*
X13525000Y-12474352D01*
X13525000Y-12525648D01*
X13500000Y-12523186D01*
X12500000Y-12523186D01*
X12426487Y-12530426D01*
X12355800Y-12551869D01*
X12290653Y-12586691D01*
X12233552Y-12633552D01*
X12186691Y-12690653D01*
X12151869Y-12755800D01*
X12130426Y-12826487D01*
X12123186Y-12900000D01*
X12123186Y-13600000D01*
X12130426Y-13673513D01*
X12151869Y-13744200D01*
X12186691Y-13809347D01*
X12233552Y-13866448D01*
X12290653Y-13913309D01*
X12325000Y-13931668D01*
X12325000Y-13966482D01*
X12350940Y-14096890D01*
X12401823Y-14219732D01*
X12475693Y-14330287D01*
X12569713Y-14424307D01*
X12680268Y-14498177D01*
X12803110Y-14549060D01*
X12933518Y-14575000D01*
X13003250Y-14575000D01*
X14063289Y-15635040D01*
X12278990Y-15635040D01*
X12255657Y-15632742D01*
X12162541Y-15641913D01*
X12144058Y-15647520D01*
X12075050Y-15668453D01*
X12075050Y-12100000D01*
X12123186Y-12100000D01*
X12130426Y-12173513D01*
X12151869Y-12244200D01*
X12186691Y-12309347D01*
X12233552Y-12366448D01*
X12290653Y-12413309D01*
X12355800Y-12448131D01*
X12426487Y-12469574D01*
X12500000Y-12476814D01*
X12881250Y-12475000D01*
X12975000Y-12381250D01*
X12975000Y-11775000D01*
X12218750Y-11775000D01*
X12125000Y-11868750D01*
X12123186Y-12100000D01*
X12075050Y-12100000D01*
X12075050Y-11546700D01*
X12123953Y-11497797D01*
X12125000Y-11631250D01*
X12218750Y-11725000D01*
X12975000Y-11725000D01*
X12975000Y-11118750D01*
X12881250Y-11025000D01*
X12598098Y-11023653D01*
X12746751Y-10875000D01*
X13525001Y-10875000D01*
X13525001Y-11025648D01*
G04 #@! TA.AperFunction,Conductor*
D19*
G36*
X13525001Y-11025648D02*
G01*
X13500000Y-11023186D01*
X13118750Y-11025000D01*
X13025000Y-11118750D01*
X13025000Y-11725000D01*
X13045000Y-11725000D01*
X13045000Y-11775000D01*
X13025000Y-11775000D01*
X13025000Y-12381250D01*
X13118750Y-12475000D01*
X13500000Y-12476814D01*
X13525000Y-12474352D01*
X13525000Y-12525648D01*
X13500000Y-12523186D01*
X12500000Y-12523186D01*
X12426487Y-12530426D01*
X12355800Y-12551869D01*
X12290653Y-12586691D01*
X12233552Y-12633552D01*
X12186691Y-12690653D01*
X12151869Y-12755800D01*
X12130426Y-12826487D01*
X12123186Y-12900000D01*
X12123186Y-13600000D01*
X12130426Y-13673513D01*
X12151869Y-13744200D01*
X12186691Y-13809347D01*
X12233552Y-13866448D01*
X12290653Y-13913309D01*
X12325000Y-13931668D01*
X12325000Y-13966482D01*
X12350940Y-14096890D01*
X12401823Y-14219732D01*
X12475693Y-14330287D01*
X12569713Y-14424307D01*
X12680268Y-14498177D01*
X12803110Y-14549060D01*
X12933518Y-14575000D01*
X13003250Y-14575000D01*
X14063289Y-15635040D01*
X12278990Y-15635040D01*
X12255657Y-15632742D01*
X12162541Y-15641913D01*
X12144058Y-15647520D01*
X12075050Y-15668453D01*
X12075050Y-12100000D01*
X12123186Y-12100000D01*
X12130426Y-12173513D01*
X12151869Y-12244200D01*
X12186691Y-12309347D01*
X12233552Y-12366448D01*
X12290653Y-12413309D01*
X12355800Y-12448131D01*
X12426487Y-12469574D01*
X12500000Y-12476814D01*
X12881250Y-12475000D01*
X12975000Y-12381250D01*
X12975000Y-11775000D01*
X12218750Y-11775000D01*
X12125000Y-11868750D01*
X12123186Y-12100000D01*
X12075050Y-12100000D01*
X12075050Y-11546700D01*
X12123953Y-11497797D01*
X12125000Y-11631250D01*
X12218750Y-11725000D01*
X12975000Y-11725000D01*
X12975000Y-11118750D01*
X12881250Y-11025000D01*
X12598098Y-11023653D01*
X12746751Y-10875000D01*
X13525001Y-10875000D01*
X13525001Y-11025648D01*
G37*
G04 #@! TD.AperFunction*
D18*
X28323186Y-13385000D02*
X26563331Y-13385000D01*
X26539999Y-13382702D01*
X26446883Y-13391873D01*
X26430447Y-13396859D01*
X26357346Y-13419034D01*
X26274827Y-13463141D01*
X26202499Y-13522499D01*
X26187620Y-13540629D01*
X26074990Y-13653259D01*
X26074990Y-13396760D01*
X26396751Y-13075000D01*
X28323186Y-13075000D01*
X28323186Y-13385000D01*
G04 #@! TA.AperFunction,Conductor*
D19*
G36*
X28323186Y-13385000D02*
G01*
X26563331Y-13385000D01*
X26539999Y-13382702D01*
X26446883Y-13391873D01*
X26430447Y-13396859D01*
X26357346Y-13419034D01*
X26274827Y-13463141D01*
X26202499Y-13522499D01*
X26187620Y-13540629D01*
X26074990Y-13653259D01*
X26074990Y-13396760D01*
X26396751Y-13075000D01*
X28323186Y-13075000D01*
X28323186Y-13385000D01*
G37*
G04 #@! TD.AperFunction*
D18*
X1356511Y-488215D02*
X1382243Y-573041D01*
X1424029Y-651216D01*
X1480263Y-719737D01*
X1548784Y-775971D01*
X1626959Y-817757D01*
X1711785Y-843489D01*
X1752867Y-847535D01*
X1800000Y-852177D01*
X1822104Y-850000D01*
X3377895Y-850000D01*
X3400000Y-852177D01*
X3422104Y-850000D01*
X3422105Y-850000D01*
X3488215Y-843489D01*
X3573041Y-817757D01*
X3651216Y-775971D01*
X3719737Y-719737D01*
X3775971Y-651216D01*
X3817757Y-573041D01*
X3843489Y-488215D01*
X3847253Y-450000D01*
X4950001Y-450000D01*
X4950000Y-1177895D01*
X4947823Y-1200000D01*
X4956511Y-1288215D01*
X4982243Y-1373041D01*
X5024029Y-1451216D01*
X5080263Y-1519737D01*
X5148784Y-1575971D01*
X5226959Y-1617757D01*
X5311785Y-1643489D01*
X5400000Y-1652177D01*
X5422104Y-1650000D01*
X8777896Y-1650000D01*
X8800000Y-1652177D01*
X8888215Y-1643489D01*
X8973041Y-1617757D01*
X9051216Y-1575971D01*
X9119737Y-1519737D01*
X9175971Y-1451216D01*
X9217757Y-1373041D01*
X9243489Y-1288215D01*
X9250000Y-1222105D01*
X9250000Y-1222104D01*
X9252177Y-1200000D01*
X9250000Y-1177895D01*
X9250000Y-450000D01*
X22750001Y-450000D01*
X22750000Y-1177895D01*
X22747823Y-1200000D01*
X22756511Y-1288215D01*
X22782243Y-1373041D01*
X22824029Y-1451216D01*
X22880263Y-1519737D01*
X22948784Y-1575971D01*
X23026959Y-1617757D01*
X23111785Y-1643489D01*
X23200000Y-1652177D01*
X23222104Y-1650000D01*
X26577896Y-1650000D01*
X26600000Y-1652177D01*
X26688215Y-1643489D01*
X26773041Y-1617757D01*
X26851216Y-1575971D01*
X26919737Y-1519737D01*
X26975971Y-1451216D01*
X27017757Y-1373041D01*
X27043489Y-1288215D01*
X27050000Y-1222105D01*
X27050000Y-1222104D01*
X27052177Y-1200000D01*
X27050000Y-1177895D01*
X27050000Y-450000D01*
X28152747Y-450000D01*
X28156511Y-488215D01*
X28182243Y-573041D01*
X28224029Y-651216D01*
X28280263Y-719737D01*
X28348784Y-775971D01*
X28426959Y-817757D01*
X28511785Y-843489D01*
X28552867Y-847535D01*
X28600000Y-852177D01*
X28622104Y-850000D01*
X30177895Y-850000D01*
X30200000Y-852177D01*
X30222104Y-850000D01*
X30222105Y-850000D01*
X30288215Y-843489D01*
X30373041Y-817757D01*
X30451216Y-775971D01*
X30519737Y-719737D01*
X30575971Y-651216D01*
X30617757Y-573041D01*
X30643489Y-488215D01*
X30647253Y-450000D01*
X31550001Y-450000D01*
X31550001Y-12877728D01*
X31537511Y-12862509D01*
X31519381Y-12847630D01*
X30952384Y-12280634D01*
X30937501Y-12262499D01*
X30865173Y-12203141D01*
X30782654Y-12159034D01*
X30693116Y-12131873D01*
X30623332Y-12125000D01*
X30600000Y-12122702D01*
X30576668Y-12125000D01*
X26223331Y-12125000D01*
X26199999Y-12122702D01*
X26106883Y-12131873D01*
X26079722Y-12140112D01*
X26017346Y-12159034D01*
X25934827Y-12203141D01*
X25862499Y-12262499D01*
X25847620Y-12280629D01*
X25393250Y-12735000D01*
X24556027Y-12735000D01*
X24509347Y-12696691D01*
X24444200Y-12661869D01*
X24373513Y-12640426D01*
X24300000Y-12633186D01*
X22800000Y-12633186D01*
X22726487Y-12640426D01*
X22655800Y-12661869D01*
X22590653Y-12696691D01*
X22543973Y-12735000D01*
X20875000Y-12735000D01*
X20875000Y-9678148D01*
X21516222Y-10319371D01*
X21531101Y-10337501D01*
X21603429Y-10396859D01*
X21685948Y-10440966D01*
X21735588Y-10456024D01*
X21775485Y-10468127D01*
X21868601Y-10477298D01*
X21891933Y-10475000D01*
X26176668Y-10475000D01*
X26200000Y-10477298D01*
X26223332Y-10475000D01*
X26293116Y-10468127D01*
X26382654Y-10440966D01*
X26465173Y-10396859D01*
X26537501Y-10337501D01*
X26552384Y-10319366D01*
X27519377Y-9352375D01*
X27537501Y-9337501D01*
X27596859Y-9265173D01*
X27640966Y-9182654D01*
X27668127Y-9093116D01*
X27669157Y-9082654D01*
X27677298Y-9000000D01*
X27675000Y-8976668D01*
X27675000Y-8656027D01*
X27713309Y-8609347D01*
X27748131Y-8544200D01*
X27769574Y-8473513D01*
X27773202Y-8436672D01*
X27803110Y-8449060D01*
X27933518Y-8475000D01*
X28066482Y-8475000D01*
X28196890Y-8449060D01*
X28319732Y-8398177D01*
X28430287Y-8324307D01*
X28500000Y-8254594D01*
X28569713Y-8324307D01*
X28680268Y-8398177D01*
X28803110Y-8449060D01*
X28933518Y-8475000D01*
X29066482Y-8475000D01*
X29196890Y-8449060D01*
X29319732Y-8398177D01*
X29430287Y-8324307D01*
X29524307Y-8230287D01*
X29598177Y-8119732D01*
X29649060Y-7996890D01*
X29675000Y-7866482D01*
X29675000Y-7733518D01*
X29649060Y-7603110D01*
X29598177Y-7480268D01*
X29524307Y-7369713D01*
X29475000Y-7320406D01*
X29475000Y-6023332D01*
X29477298Y-6000000D01*
X29468127Y-5906884D01*
X29440966Y-5817345D01*
X29406237Y-5752373D01*
X29396859Y-5734827D01*
X29337501Y-5662499D01*
X29319377Y-5647625D01*
X28552384Y-4880634D01*
X28537501Y-4862499D01*
X28465173Y-4803141D01*
X28382654Y-4759034D01*
X28293116Y-4731873D01*
X28223332Y-4725000D01*
X28200000Y-4722702D01*
X28176668Y-4725000D01*
X26623332Y-4725000D01*
X26600000Y-4722702D01*
X26576668Y-4725000D01*
X26506884Y-4731873D01*
X26417346Y-4759034D01*
X26334827Y-4803141D01*
X26262499Y-4862499D01*
X26247620Y-4880629D01*
X26080629Y-5047621D01*
X26062500Y-5062499D01*
X26003142Y-5134827D01*
X25984479Y-5169742D01*
X25937501Y-5112499D01*
X25919366Y-5097616D01*
X25702384Y-4880634D01*
X25687501Y-4862499D01*
X25615173Y-4803141D01*
X25532654Y-4759034D01*
X25443116Y-4731873D01*
X25373332Y-4725000D01*
X25350000Y-4722702D01*
X25326668Y-4725000D01*
X23623332Y-4725000D01*
X23600000Y-4722702D01*
X23506884Y-4731873D01*
X23417345Y-4759034D01*
X23403971Y-4766183D01*
X23334827Y-4803141D01*
X23262499Y-4862499D01*
X23247625Y-4880623D01*
X22480629Y-5647621D01*
X22475030Y-5652216D01*
X22475030Y-4926264D01*
X22477328Y-4902932D01*
X22468157Y-4809816D01*
X22444513Y-4731874D01*
X22440996Y-4720279D01*
X22396889Y-4637760D01*
X22337531Y-4565432D01*
X22319401Y-4550553D01*
X21249451Y-3480604D01*
X21234568Y-3462469D01*
X21162240Y-3403111D01*
X21079721Y-3359004D01*
X20990183Y-3331843D01*
X20920399Y-3324970D01*
X20897067Y-3322672D01*
X20873735Y-3324970D01*
X16126264Y-3324970D01*
X16102932Y-3322672D01*
X16009816Y-3331843D01*
X15982655Y-3340082D01*
X15920279Y-3359004D01*
X15837760Y-3403111D01*
X15765432Y-3462469D01*
X15750553Y-3480599D01*
X14680596Y-4550557D01*
X14662472Y-4565431D01*
X14603114Y-4637759D01*
X14589890Y-4662500D01*
X14559006Y-4720279D01*
X14531845Y-4809817D01*
X14522674Y-4902932D01*
X14524973Y-4926274D01*
X14524972Y-7370709D01*
X14524307Y-7369713D01*
X14475000Y-7320406D01*
X14475000Y-6023332D01*
X14477298Y-6000000D01*
X14468127Y-5906884D01*
X14440966Y-5817345D01*
X14406237Y-5752373D01*
X14396859Y-5734827D01*
X14337501Y-5662499D01*
X14319377Y-5647625D01*
X13552384Y-4880634D01*
X13537501Y-4862499D01*
X13465173Y-4803141D01*
X13382654Y-4759034D01*
X13293116Y-4731873D01*
X13223332Y-4725000D01*
X13200000Y-4722702D01*
X13176668Y-4725000D01*
X11623332Y-4725000D01*
X11600000Y-4722702D01*
X11576668Y-4725000D01*
X11506884Y-4731873D01*
X11417346Y-4759034D01*
X11334827Y-4803141D01*
X11262499Y-4862499D01*
X11247620Y-4880629D01*
X11080629Y-5047621D01*
X11062500Y-5062499D01*
X11003142Y-5134827D01*
X11000001Y-5140704D01*
X10996859Y-5134827D01*
X10937501Y-5062499D01*
X10919366Y-5047616D01*
X10752385Y-4880635D01*
X10737502Y-4862500D01*
X10665174Y-4803142D01*
X10582655Y-4759035D01*
X10493117Y-4731874D01*
X10423333Y-4725001D01*
X10400001Y-4722703D01*
X10376669Y-4725001D01*
X8623330Y-4725001D01*
X8599998Y-4722703D01*
X8506882Y-4731874D01*
X8479721Y-4740113D01*
X8417345Y-4759035D01*
X8334826Y-4803142D01*
X8262498Y-4862500D01*
X8247619Y-4880630D01*
X7480629Y-5647621D01*
X7462500Y-5662499D01*
X7403142Y-5734827D01*
X7377996Y-5781873D01*
X7359035Y-5817346D01*
X7331873Y-5906884D01*
X7322702Y-6000000D01*
X7325001Y-6023342D01*
X7325000Y-7320406D01*
X7275693Y-7369713D01*
X7201823Y-7480268D01*
X7150940Y-7603110D01*
X7125000Y-7733518D01*
X7125000Y-7866482D01*
X7150940Y-7996890D01*
X7201823Y-8119732D01*
X7275693Y-8230287D01*
X7369713Y-8324307D01*
X7480268Y-8398177D01*
X7603110Y-8449060D01*
X7733518Y-8475000D01*
X7866482Y-8475000D01*
X7996890Y-8449060D01*
X8119732Y-8398177D01*
X8230287Y-8324307D01*
X8324307Y-8230287D01*
X8398177Y-8119732D01*
X8400000Y-8115331D01*
X8401823Y-8119732D01*
X8475693Y-8230287D01*
X8569713Y-8324307D01*
X8680268Y-8398177D01*
X8803110Y-8449060D01*
X8933518Y-8475000D01*
X9066482Y-8475000D01*
X9196890Y-8449060D01*
X9226798Y-8436672D01*
X9230426Y-8473513D01*
X9251869Y-8544200D01*
X9286691Y-8609347D01*
X9325000Y-8656028D01*
X9325000Y-8993358D01*
X8480611Y-9837747D01*
X8462482Y-9852625D01*
X8411416Y-9914849D01*
X8403124Y-9924953D01*
X8359017Y-10007472D01*
X8331855Y-10097010D01*
X8322684Y-10190126D01*
X8324983Y-10213468D01*
X8324982Y-11603267D01*
X8103250Y-11825000D01*
X7723332Y-11825000D01*
X7700000Y-11822702D01*
X7606884Y-11831873D01*
X7517345Y-11859034D01*
X7488602Y-11874398D01*
X7434827Y-11903141D01*
X7362499Y-11962499D01*
X7347625Y-11980623D01*
X6880631Y-12447619D01*
X6862500Y-12462499D01*
X6803142Y-12534827D01*
X6768307Y-12600000D01*
X6759035Y-12617346D01*
X6731873Y-12706884D01*
X6722702Y-12800000D01*
X6725001Y-12823342D01*
X6725000Y-13203249D01*
X6543250Y-13385000D01*
X3676814Y-13385000D01*
X3676814Y-13010000D01*
X3669574Y-12936487D01*
X3648131Y-12865800D01*
X3613309Y-12800653D01*
X3566448Y-12743552D01*
X3509347Y-12696691D01*
X3444200Y-12661869D01*
X3373513Y-12640426D01*
X3300000Y-12633186D01*
X1800000Y-12633186D01*
X1726487Y-12640426D01*
X1655800Y-12661869D01*
X1612525Y-12685000D01*
X1415788Y-12685000D01*
X1390000Y-12682460D01*
X1364212Y-12685000D01*
X1287082Y-12692597D01*
X1188119Y-12722617D01*
X1096914Y-12771367D01*
X1016973Y-12836973D01*
X1000534Y-12857005D01*
X450000Y-13407539D01*
X450000Y-450000D01*
X1352747Y-450000D01*
X1356511Y-488215D01*
G04 #@! TA.AperFunction,Conductor*
D19*
G36*
X1356511Y-488215D02*
G01*
X1382243Y-573041D01*
X1424029Y-651216D01*
X1480263Y-719737D01*
X1548784Y-775971D01*
X1626959Y-817757D01*
X1711785Y-843489D01*
X1752867Y-847535D01*
X1800000Y-852177D01*
X1822104Y-850000D01*
X3377895Y-850000D01*
X3400000Y-852177D01*
X3422104Y-850000D01*
X3422105Y-850000D01*
X3488215Y-843489D01*
X3573041Y-817757D01*
X3651216Y-775971D01*
X3719737Y-719737D01*
X3775971Y-651216D01*
X3817757Y-573041D01*
X3843489Y-488215D01*
X3847253Y-450000D01*
X4950001Y-450000D01*
X4950000Y-1177895D01*
X4947823Y-1200000D01*
X4956511Y-1288215D01*
X4982243Y-1373041D01*
X5024029Y-1451216D01*
X5080263Y-1519737D01*
X5148784Y-1575971D01*
X5226959Y-1617757D01*
X5311785Y-1643489D01*
X5400000Y-1652177D01*
X5422104Y-1650000D01*
X8777896Y-1650000D01*
X8800000Y-1652177D01*
X8888215Y-1643489D01*
X8973041Y-1617757D01*
X9051216Y-1575971D01*
X9119737Y-1519737D01*
X9175971Y-1451216D01*
X9217757Y-1373041D01*
X9243489Y-1288215D01*
X9250000Y-1222105D01*
X9250000Y-1222104D01*
X9252177Y-1200000D01*
X9250000Y-1177895D01*
X9250000Y-450000D01*
X22750001Y-450000D01*
X22750000Y-1177895D01*
X22747823Y-1200000D01*
X22756511Y-1288215D01*
X22782243Y-1373041D01*
X22824029Y-1451216D01*
X22880263Y-1519737D01*
X22948784Y-1575971D01*
X23026959Y-1617757D01*
X23111785Y-1643489D01*
X23200000Y-1652177D01*
X23222104Y-1650000D01*
X26577896Y-1650000D01*
X26600000Y-1652177D01*
X26688215Y-1643489D01*
X26773041Y-1617757D01*
X26851216Y-1575971D01*
X26919737Y-1519737D01*
X26975971Y-1451216D01*
X27017757Y-1373041D01*
X27043489Y-1288215D01*
X27050000Y-1222105D01*
X27050000Y-1222104D01*
X27052177Y-1200000D01*
X27050000Y-1177895D01*
X27050000Y-450000D01*
X28152747Y-450000D01*
X28156511Y-488215D01*
X28182243Y-573041D01*
X28224029Y-651216D01*
X28280263Y-719737D01*
X28348784Y-775971D01*
X28426959Y-817757D01*
X28511785Y-843489D01*
X28552867Y-847535D01*
X28600000Y-852177D01*
X28622104Y-850000D01*
X30177895Y-850000D01*
X30200000Y-852177D01*
X30222104Y-850000D01*
X30222105Y-850000D01*
X30288215Y-843489D01*
X30373041Y-817757D01*
X30451216Y-775971D01*
X30519737Y-719737D01*
X30575971Y-651216D01*
X30617757Y-573041D01*
X30643489Y-488215D01*
X30647253Y-450000D01*
X31550001Y-450000D01*
X31550001Y-12877728D01*
X31537511Y-12862509D01*
X31519381Y-12847630D01*
X30952384Y-12280634D01*
X30937501Y-12262499D01*
X30865173Y-12203141D01*
X30782654Y-12159034D01*
X30693116Y-12131873D01*
X30623332Y-12125000D01*
X30600000Y-12122702D01*
X30576668Y-12125000D01*
X26223331Y-12125000D01*
X26199999Y-12122702D01*
X26106883Y-12131873D01*
X26079722Y-12140112D01*
X26017346Y-12159034D01*
X25934827Y-12203141D01*
X25862499Y-12262499D01*
X25847620Y-12280629D01*
X25393250Y-12735000D01*
X24556027Y-12735000D01*
X24509347Y-12696691D01*
X24444200Y-12661869D01*
X24373513Y-12640426D01*
X24300000Y-12633186D01*
X22800000Y-12633186D01*
X22726487Y-12640426D01*
X22655800Y-12661869D01*
X22590653Y-12696691D01*
X22543973Y-12735000D01*
X20875000Y-12735000D01*
X20875000Y-9678148D01*
X21516222Y-10319371D01*
X21531101Y-10337501D01*
X21603429Y-10396859D01*
X21685948Y-10440966D01*
X21735588Y-10456024D01*
X21775485Y-10468127D01*
X21868601Y-10477298D01*
X21891933Y-10475000D01*
X26176668Y-10475000D01*
X26200000Y-10477298D01*
X26223332Y-10475000D01*
X26293116Y-10468127D01*
X26382654Y-10440966D01*
X26465173Y-10396859D01*
X26537501Y-10337501D01*
X26552384Y-10319366D01*
X27519377Y-9352375D01*
X27537501Y-9337501D01*
X27596859Y-9265173D01*
X27640966Y-9182654D01*
X27668127Y-9093116D01*
X27669157Y-9082654D01*
X27677298Y-9000000D01*
X27675000Y-8976668D01*
X27675000Y-8656027D01*
X27713309Y-8609347D01*
X27748131Y-8544200D01*
X27769574Y-8473513D01*
X27773202Y-8436672D01*
X27803110Y-8449060D01*
X27933518Y-8475000D01*
X28066482Y-8475000D01*
X28196890Y-8449060D01*
X28319732Y-8398177D01*
X28430287Y-8324307D01*
X28500000Y-8254594D01*
X28569713Y-8324307D01*
X28680268Y-8398177D01*
X28803110Y-8449060D01*
X28933518Y-8475000D01*
X29066482Y-8475000D01*
X29196890Y-8449060D01*
X29319732Y-8398177D01*
X29430287Y-8324307D01*
X29524307Y-8230287D01*
X29598177Y-8119732D01*
X29649060Y-7996890D01*
X29675000Y-7866482D01*
X29675000Y-7733518D01*
X29649060Y-7603110D01*
X29598177Y-7480268D01*
X29524307Y-7369713D01*
X29475000Y-7320406D01*
X29475000Y-6023332D01*
X29477298Y-6000000D01*
X29468127Y-5906884D01*
X29440966Y-5817345D01*
X29406237Y-5752373D01*
X29396859Y-5734827D01*
X29337501Y-5662499D01*
X29319377Y-5647625D01*
X28552384Y-4880634D01*
X28537501Y-4862499D01*
X28465173Y-4803141D01*
X28382654Y-4759034D01*
X28293116Y-4731873D01*
X28223332Y-4725000D01*
X28200000Y-4722702D01*
X28176668Y-4725000D01*
X26623332Y-4725000D01*
X26600000Y-4722702D01*
X26576668Y-4725000D01*
X26506884Y-4731873D01*
X26417346Y-4759034D01*
X26334827Y-4803141D01*
X26262499Y-4862499D01*
X26247620Y-4880629D01*
X26080629Y-5047621D01*
X26062500Y-5062499D01*
X26003142Y-5134827D01*
X25984479Y-5169742D01*
X25937501Y-5112499D01*
X25919366Y-5097616D01*
X25702384Y-4880634D01*
X25687501Y-4862499D01*
X25615173Y-4803141D01*
X25532654Y-4759034D01*
X25443116Y-4731873D01*
X25373332Y-4725000D01*
X25350000Y-4722702D01*
X25326668Y-4725000D01*
X23623332Y-4725000D01*
X23600000Y-4722702D01*
X23506884Y-4731873D01*
X23417345Y-4759034D01*
X23403971Y-4766183D01*
X23334827Y-4803141D01*
X23262499Y-4862499D01*
X23247625Y-4880623D01*
X22480629Y-5647621D01*
X22475030Y-5652216D01*
X22475030Y-4926264D01*
X22477328Y-4902932D01*
X22468157Y-4809816D01*
X22444513Y-4731874D01*
X22440996Y-4720279D01*
X22396889Y-4637760D01*
X22337531Y-4565432D01*
X22319401Y-4550553D01*
X21249451Y-3480604D01*
X21234568Y-3462469D01*
X21162240Y-3403111D01*
X21079721Y-3359004D01*
X20990183Y-3331843D01*
X20920399Y-3324970D01*
X20897067Y-3322672D01*
X20873735Y-3324970D01*
X16126264Y-3324970D01*
X16102932Y-3322672D01*
X16009816Y-3331843D01*
X15982655Y-3340082D01*
X15920279Y-3359004D01*
X15837760Y-3403111D01*
X15765432Y-3462469D01*
X15750553Y-3480599D01*
X14680596Y-4550557D01*
X14662472Y-4565431D01*
X14603114Y-4637759D01*
X14589890Y-4662500D01*
X14559006Y-4720279D01*
X14531845Y-4809817D01*
X14522674Y-4902932D01*
X14524973Y-4926274D01*
X14524972Y-7370709D01*
X14524307Y-7369713D01*
X14475000Y-7320406D01*
X14475000Y-6023332D01*
X14477298Y-6000000D01*
X14468127Y-5906884D01*
X14440966Y-5817345D01*
X14406237Y-5752373D01*
X14396859Y-5734827D01*
X14337501Y-5662499D01*
X14319377Y-5647625D01*
X13552384Y-4880634D01*
X13537501Y-4862499D01*
X13465173Y-4803141D01*
X13382654Y-4759034D01*
X13293116Y-4731873D01*
X13223332Y-4725000D01*
X13200000Y-4722702D01*
X13176668Y-4725000D01*
X11623332Y-4725000D01*
X11600000Y-4722702D01*
X11576668Y-4725000D01*
X11506884Y-4731873D01*
X11417346Y-4759034D01*
X11334827Y-4803141D01*
X11262499Y-4862499D01*
X11247620Y-4880629D01*
X11080629Y-5047621D01*
X11062500Y-5062499D01*
X11003142Y-5134827D01*
X11000001Y-5140704D01*
X10996859Y-5134827D01*
X10937501Y-5062499D01*
X10919366Y-5047616D01*
X10752385Y-4880635D01*
X10737502Y-4862500D01*
X10665174Y-4803142D01*
X10582655Y-4759035D01*
X10493117Y-4731874D01*
X10423333Y-4725001D01*
X10400001Y-4722703D01*
X10376669Y-4725001D01*
X8623330Y-4725001D01*
X8599998Y-4722703D01*
X8506882Y-4731874D01*
X8479721Y-4740113D01*
X8417345Y-4759035D01*
X8334826Y-4803142D01*
X8262498Y-4862500D01*
X8247619Y-4880630D01*
X7480629Y-5647621D01*
X7462500Y-5662499D01*
X7403142Y-5734827D01*
X7377996Y-5781873D01*
X7359035Y-5817346D01*
X7331873Y-5906884D01*
X7322702Y-6000000D01*
X7325001Y-6023342D01*
X7325000Y-7320406D01*
X7275693Y-7369713D01*
X7201823Y-7480268D01*
X7150940Y-7603110D01*
X7125000Y-7733518D01*
X7125000Y-7866482D01*
X7150940Y-7996890D01*
X7201823Y-8119732D01*
X7275693Y-8230287D01*
X7369713Y-8324307D01*
X7480268Y-8398177D01*
X7603110Y-8449060D01*
X7733518Y-8475000D01*
X7866482Y-8475000D01*
X7996890Y-8449060D01*
X8119732Y-8398177D01*
X8230287Y-8324307D01*
X8324307Y-8230287D01*
X8398177Y-8119732D01*
X8400000Y-8115331D01*
X8401823Y-8119732D01*
X8475693Y-8230287D01*
X8569713Y-8324307D01*
X8680268Y-8398177D01*
X8803110Y-8449060D01*
X8933518Y-8475000D01*
X9066482Y-8475000D01*
X9196890Y-8449060D01*
X9226798Y-8436672D01*
X9230426Y-8473513D01*
X9251869Y-8544200D01*
X9286691Y-8609347D01*
X9325000Y-8656028D01*
X9325000Y-8993358D01*
X8480611Y-9837747D01*
X8462482Y-9852625D01*
X8411416Y-9914849D01*
X8403124Y-9924953D01*
X8359017Y-10007472D01*
X8331855Y-10097010D01*
X8322684Y-10190126D01*
X8324983Y-10213468D01*
X8324982Y-11603267D01*
X8103250Y-11825000D01*
X7723332Y-11825000D01*
X7700000Y-11822702D01*
X7606884Y-11831873D01*
X7517345Y-11859034D01*
X7488602Y-11874398D01*
X7434827Y-11903141D01*
X7362499Y-11962499D01*
X7347625Y-11980623D01*
X6880631Y-12447619D01*
X6862500Y-12462499D01*
X6803142Y-12534827D01*
X6768307Y-12600000D01*
X6759035Y-12617346D01*
X6731873Y-12706884D01*
X6722702Y-12800000D01*
X6725001Y-12823342D01*
X6725000Y-13203249D01*
X6543250Y-13385000D01*
X3676814Y-13385000D01*
X3676814Y-13010000D01*
X3669574Y-12936487D01*
X3648131Y-12865800D01*
X3613309Y-12800653D01*
X3566448Y-12743552D01*
X3509347Y-12696691D01*
X3444200Y-12661869D01*
X3373513Y-12640426D01*
X3300000Y-12633186D01*
X1800000Y-12633186D01*
X1726487Y-12640426D01*
X1655800Y-12661869D01*
X1612525Y-12685000D01*
X1415788Y-12685000D01*
X1390000Y-12682460D01*
X1364212Y-12685000D01*
X1287082Y-12692597D01*
X1188119Y-12722617D01*
X1096914Y-12771367D01*
X1016973Y-12836973D01*
X1000534Y-12857005D01*
X450000Y-13407539D01*
X450000Y-450000D01*
X1352747Y-450000D01*
X1356511Y-488215D01*
G37*
G04 #@! TD.AperFunction*
D18*
X17525001Y-11025648D02*
X17500000Y-11023186D01*
X17118750Y-11025000D01*
X17025000Y-11118750D01*
X17025000Y-11725000D01*
X17045000Y-11725000D01*
X17045000Y-11775000D01*
X17025000Y-11775000D01*
X17025000Y-12381250D01*
X17118750Y-12475000D01*
X17500000Y-12476814D01*
X17525000Y-12474352D01*
X17525000Y-12525648D01*
X17500000Y-12523186D01*
X16500000Y-12523186D01*
X16475000Y-12525648D01*
X16475000Y-12474352D01*
X16500000Y-12476814D01*
X16881250Y-12475000D01*
X16975000Y-12381250D01*
X16975000Y-11775000D01*
X16955000Y-11775000D01*
X16955000Y-11725000D01*
X16975000Y-11725000D01*
X16975000Y-11118750D01*
X16881250Y-11025000D01*
X16647861Y-11023890D01*
X17525001Y-10146750D01*
X17525001Y-11025648D01*
G04 #@! TA.AperFunction,Conductor*
D19*
G36*
X17525001Y-11025648D02*
G01*
X17500000Y-11023186D01*
X17118750Y-11025000D01*
X17025000Y-11118750D01*
X17025000Y-11725000D01*
X17045000Y-11725000D01*
X17045000Y-11775000D01*
X17025000Y-11775000D01*
X17025000Y-12381250D01*
X17118750Y-12475000D01*
X17500000Y-12476814D01*
X17525000Y-12474352D01*
X17525000Y-12525648D01*
X17500000Y-12523186D01*
X16500000Y-12523186D01*
X16475000Y-12525648D01*
X16475000Y-12474352D01*
X16500000Y-12476814D01*
X16881250Y-12475000D01*
X16975000Y-12381250D01*
X16975000Y-11775000D01*
X16955000Y-11775000D01*
X16955000Y-11725000D01*
X16975000Y-11725000D01*
X16975000Y-11118750D01*
X16881250Y-11025000D01*
X16647861Y-11023890D01*
X17525001Y-10146750D01*
X17525001Y-11025648D01*
G37*
G04 #@! TD.AperFunction*
D18*
X19303141Y-9365173D02*
X19362499Y-9437501D01*
X19380634Y-9452384D01*
X19525001Y-9596751D01*
X19525001Y-11025648D01*
X19500000Y-11023186D01*
X19118750Y-11025000D01*
X19025000Y-11118750D01*
X19025000Y-11725000D01*
X19045000Y-11725000D01*
X19045000Y-11775000D01*
X19025000Y-11775000D01*
X19025000Y-12381250D01*
X19118750Y-12475000D01*
X19500000Y-12476814D01*
X19525000Y-12474352D01*
X19525000Y-12525648D01*
X19500000Y-12523186D01*
X18500000Y-12523186D01*
X18475000Y-12525648D01*
X18475000Y-12474352D01*
X18500000Y-12476814D01*
X18881250Y-12475000D01*
X18975000Y-12381250D01*
X18975000Y-11775000D01*
X18955000Y-11775000D01*
X18955000Y-11725000D01*
X18975000Y-11725000D01*
X18975000Y-11118750D01*
X18881250Y-11025000D01*
X18500000Y-11023186D01*
X18475000Y-11025648D01*
X18475000Y-10196750D01*
X19219371Y-9452380D01*
X19237501Y-9437501D01*
X19296859Y-9365173D01*
X19300000Y-9359297D01*
X19303141Y-9365173D01*
G04 #@! TA.AperFunction,Conductor*
D19*
G36*
X19303141Y-9365173D02*
G01*
X19362499Y-9437501D01*
X19380634Y-9452384D01*
X19525001Y-9596751D01*
X19525001Y-11025648D01*
X19500000Y-11023186D01*
X19118750Y-11025000D01*
X19025000Y-11118750D01*
X19025000Y-11725000D01*
X19045000Y-11725000D01*
X19045000Y-11775000D01*
X19025000Y-11775000D01*
X19025000Y-12381250D01*
X19118750Y-12475000D01*
X19500000Y-12476814D01*
X19525000Y-12474352D01*
X19525000Y-12525648D01*
X19500000Y-12523186D01*
X18500000Y-12523186D01*
X18475000Y-12525648D01*
X18475000Y-12474352D01*
X18500000Y-12476814D01*
X18881250Y-12475000D01*
X18975000Y-12381250D01*
X18975000Y-11775000D01*
X18955000Y-11775000D01*
X18955000Y-11725000D01*
X18975000Y-11725000D01*
X18975000Y-11118750D01*
X18881250Y-11025000D01*
X18500000Y-11023186D01*
X18475000Y-11025648D01*
X18475000Y-10196750D01*
X19219371Y-9452380D01*
X19237501Y-9437501D01*
X19296859Y-9365173D01*
X19300000Y-9359297D01*
X19303141Y-9365173D01*
G37*
G04 #@! TD.AperFunction*
D18*
X15531873Y-10906884D02*
X15522702Y-11000000D01*
X15525001Y-11023342D01*
X15525001Y-11025648D01*
X15500000Y-11023186D01*
X15118750Y-11025000D01*
X15025000Y-11118750D01*
X15025000Y-11725000D01*
X15045000Y-11725000D01*
X15045000Y-11775000D01*
X15025000Y-11775000D01*
X15025000Y-12381250D01*
X15118750Y-12475000D01*
X15500000Y-12476814D01*
X15525000Y-12474352D01*
X15525000Y-12525648D01*
X15500000Y-12523186D01*
X14500000Y-12523186D01*
X14475000Y-12525648D01*
X14475000Y-12474352D01*
X14500000Y-12476814D01*
X14881250Y-12475000D01*
X14975000Y-12381250D01*
X14975000Y-11775000D01*
X14955000Y-11775000D01*
X14955000Y-11725000D01*
X14975000Y-11725000D01*
X14975000Y-11118750D01*
X14881250Y-11025000D01*
X14500000Y-11023186D01*
X14475000Y-11025648D01*
X14475000Y-10996751D01*
X14596711Y-10875040D01*
X15541533Y-10875040D01*
X15531873Y-10906884D01*
G04 #@! TA.AperFunction,Conductor*
D19*
G36*
X15531873Y-10906884D02*
G01*
X15522702Y-11000000D01*
X15525001Y-11023342D01*
X15525001Y-11025648D01*
X15500000Y-11023186D01*
X15118750Y-11025000D01*
X15025000Y-11118750D01*
X15025000Y-11725000D01*
X15045000Y-11725000D01*
X15045000Y-11775000D01*
X15025000Y-11775000D01*
X15025000Y-12381250D01*
X15118750Y-12475000D01*
X15500000Y-12476814D01*
X15525000Y-12474352D01*
X15525000Y-12525648D01*
X15500000Y-12523186D01*
X14500000Y-12523186D01*
X14475000Y-12525648D01*
X14475000Y-12474352D01*
X14500000Y-12476814D01*
X14881250Y-12475000D01*
X14975000Y-12381250D01*
X14975000Y-11775000D01*
X14955000Y-11775000D01*
X14955000Y-11725000D01*
X14975000Y-11725000D01*
X14975000Y-11118750D01*
X14881250Y-11025000D01*
X14500000Y-11023186D01*
X14475000Y-11025648D01*
X14475000Y-10996751D01*
X14596711Y-10875040D01*
X15541533Y-10875040D01*
X15531873Y-10906884D01*
G37*
G04 #@! TD.AperFunction*
M02*
