G04 #@! TF.GenerationSoftware,KiCad,Pcbnew,(5.1.9)-1*
G04 #@! TF.CreationDate,2023-02-02T22:46:09+01:00*
G04 #@! TF.ProjectId,Leds,4c656473-2e6b-4696-9361-645f70636258,rev?*
G04 #@! TF.SameCoordinates,PXd59f80PYd59f80*
G04 #@! TF.FileFunction,Paste,Top*
G04 #@! TF.FilePolarity,Positive*
%FSLAX46Y46*%
G04 Gerber Fmt 4.6, Leading zero omitted, Abs format (unit mm)*
G04 Created by KiCad (PCBNEW (5.1.9)-1) date 2023-02-02 22:46:09*
%MOMM*%
%LPD*%
G01*
G04 APERTURE LIST*
%ADD10R,0.900000X1.600000*%
%ADD11R,1.200000X2.500000*%
G04 APERTURE END LIST*
D10*
X19350000Y-32400000D03*
X17650000Y-32400000D03*
X19350000Y-35600000D03*
X17650000Y-35600000D03*
X24350000Y-32400000D03*
X22650000Y-32400000D03*
X24350000Y-35600000D03*
X22650000Y-35600000D03*
X9350000Y-32400000D03*
X7650000Y-32400000D03*
X9350000Y-35600000D03*
X7650000Y-35600000D03*
X4350000Y-32400000D03*
X2650000Y-32400000D03*
X4350000Y-35600000D03*
X2650000Y-35600000D03*
X27650000Y-9600000D03*
X29350000Y-9600000D03*
X27650000Y-6400000D03*
X29350000Y-6400000D03*
X22650000Y-9600000D03*
X24350000Y-9600000D03*
X22650000Y-6400000D03*
X24350000Y-6400000D03*
X12650000Y-9600000D03*
X14350000Y-9600000D03*
X12650000Y-6400000D03*
X14350000Y-6400000D03*
X7650000Y-9600000D03*
X9350000Y-9600000D03*
X7650000Y-6400000D03*
X9350000Y-6400000D03*
D11*
X17270000Y-16593000D03*
X17270000Y-25407000D03*
X14730000Y-16593000D03*
X14730000Y-25407000D03*
X19810000Y-25407000D03*
X19810000Y-16593000D03*
X12190000Y-16593000D03*
X12190000Y-25407000D03*
M02*
