M48
; DRILL file {KiCad (5.1.9)-1} date 02/03/23 00:57:48
; FORMAT={-:-/ absolute / inch / decimal}
; #@! TF.CreationDate,2023-02-03T00:57:48+01:00
; #@! TF.GenerationSoftware,Kicad,Pcbnew,(5.1.9)-1
; #@! TF.FileFunction,Plated,1,2,PTH
FMAT,2
INCH
T1C0.0118
T2C0.0236
T3C0.0256
T4C0.0315
T5C0.0394
T6C0.0512
T7C0.0591
%
G90
G05
T1
X0.6142Y-1.7382
X0.6417Y-1.7106
X0.6417Y-1.7657
X0.6693Y-1.7382
X0.689Y-1.8937
X0.689Y-2.0945
X0.6909Y-2.874
X0.6909Y-2.8976
X0.6909Y-2.9213
X0.7461Y-2.874
X0.7461Y-2.8976
X0.7461Y-2.9213
X0.7992Y-1.7382
X0.811Y-1.5531
X0.8268Y-0.9862
X0.8268Y-1.0413
X0.8268Y-1.2618
X0.8268Y-1.3169
X0.8268Y-1.7106
X0.8287Y-1.7657
X0.8543Y-1.7382
X0.9016Y-2.315
X0.9094Y-2.4961
X0.9134Y-1.5906
X0.9134Y-1.7382
X0.9409Y-1.7106
X0.9409Y-1.7657
X0.9528Y-1.502
X0.9606Y-1.8425
X0.9685Y-1.7382
X0.9685Y-2.6909
X0.9764Y-2.2441
X0.9764Y-2.315
X0.9902Y-2.8976
X0.9902Y-2.9213
X1.0Y-1.5669
X1.0Y-1.6929
X1.0079Y-2.7756
X1.0079Y-2.7992
X1.0197Y-2.4961
X1.0197Y-2.6535
X1.0315Y-1.8976
X1.0315Y-2.4754
X1.0315Y-2.5167
X1.0315Y-2.6329
X1.0315Y-2.6742
X1.0315Y-2.7756
X1.0315Y-2.7992
X1.0433Y-2.4961
X1.0433Y-2.6535
X1.0453Y-2.8976
X1.0453Y-2.9213
X1.0551Y-2.7756
X1.0551Y-2.7992
X1.0984Y-1.7382
X1.1004Y-2.4173
X1.1024Y-2.6909
X1.1063Y-1.8976
X1.1086Y-2.3054
X1.126Y-0.9862
X1.126Y-1.0413
X1.126Y-1.2618
X1.126Y-1.3169
X1.126Y-1.7106
X1.128Y-1.7657
X1.1516Y-2.4173
X1.1535Y-1.7382
X1.1575Y-2.1063
X1.1575Y-2.1299
X1.2087Y-2.1142
X1.2126Y-1.7382
X1.2402Y-1.7106
X1.2402Y-1.7657
X1.2421Y-2.2598
X1.252Y-2.0039
X1.252Y-2.0472
X1.252Y-2.1142
X1.2531Y-1.9676
X1.2677Y-1.7382
X1.2736Y-2.6181
X1.2736Y-2.6417
X1.2736Y-2.6654
X1.2736Y-2.689
X1.2874Y-2.874
X1.2874Y-2.8976
X1.2874Y-2.9213
X1.2972Y-2.6181
X1.2972Y-2.6417
X1.2972Y-2.6654
X1.2972Y-2.689
X1.2992Y-1.5551
X1.3071Y-2.3917
X1.3091Y-2.0472
X1.3445Y-2.874
X1.3445Y-2.8976
X1.3445Y-2.9213
X1.3681Y-2.2677
X1.3681Y-2.8327
X1.3957Y-2.7638
X1.3976Y-1.7382
X1.4094Y-1.5531
X1.4094Y-2.4409
X1.4094Y-2.5157
X1.4193Y-2.7638
X1.4252Y-0.9862
X1.4252Y-1.0413
X1.4252Y-1.2618
X1.4252Y-1.3169
X1.4252Y-1.7106
X1.4272Y-1.7657
X1.439Y-2.6929
X1.4409Y-2.4173
X1.4528Y-1.7382
X1.4646Y-2.2047
X1.4646Y-2.2598
X1.5079Y-1.6811
X1.5118Y-1.5906
X1.5118Y-1.7382
X1.5394Y-1.7106
X1.5394Y-1.7657
X1.5512Y-1.502
X1.5591Y-2.5354
X1.5591Y-2.5866
X1.5669Y-1.7382
X1.5886Y-2.874
X1.5886Y-2.8976
X1.5886Y-2.9213
X1.5906Y-2.7343
X1.6437Y-2.874
X1.6437Y-2.8976
X1.6437Y-2.9213
X1.6969Y-1.7382
X1.6969Y-1.9291
X1.7244Y-0.9862
X1.7244Y-1.0413
X1.7244Y-1.2618
X1.7244Y-1.3169
X1.7244Y-1.7106
X1.7264Y-1.7657
X1.752Y-1.7382
T2
X0.6417Y-1.7382
X0.8268Y-1.7382
X0.9409Y-1.7382
X1.126Y-1.7382
X1.2402Y-1.7382
X1.4252Y-1.7382
X1.5394Y-1.7382
X1.7244Y-1.7382
T4
X0.6329Y-3.4773
X0.7638Y-3.3465
X0.9321Y-3.4773
X1.063Y-3.3465
X1.2314Y-3.4773
X1.3622Y-3.3465
X1.5306Y-3.4773
X1.6614Y-3.3465
T5
X0.7374Y-1.8441
X0.7374Y-1.9441
X0.7374Y-2.0441
X0.7374Y-2.1441
X0.7374Y-2.2441
X0.7374Y-2.3441
X0.7374Y-2.4441
X0.7374Y-2.5441
X0.7374Y-2.6441
X0.8374Y-1.8441
X0.8374Y-1.9441
X0.8374Y-2.0441
X0.8374Y-2.1441
X0.8374Y-2.2441
X0.8374Y-2.3441
X0.8374Y-2.4441
X0.8374Y-2.5441
X0.8374Y-2.6441
T6
X0.689Y-0.685
X0.689Y-3.8031
X0.8858Y-0.685
X0.8858Y-3.8031
X1.0827Y-0.685
X1.0827Y-3.8031
X1.2795Y-0.685
X1.2795Y-3.8031
X1.4764Y-0.685
X1.4764Y-3.8031
X1.6732Y-0.685
X1.6732Y-3.8031
T7
X1.5957Y-2.0691
X1.5957Y-2.1691
X1.5957Y-2.2691
X1.5957Y-2.3691
X1.6957Y-2.1191
X1.6957Y-2.2191
X1.6957Y-2.3191
X1.6957Y-2.4191
T3
G00X0.8396Y-1.0138
M15
G01X0.814Y-1.0138
M16
G05
G00X0.8396Y-1.2894
M15
G01X0.814Y-1.2894
M16
G05
G00X1.1388Y-1.0138
M15
G01X1.1132Y-1.0138
M16
G05
G00X1.1388Y-1.2894
M15
G01X1.1132Y-1.2894
M16
G05
G00X1.438Y-1.0138
M15
G01X1.4124Y-1.0138
M16
G05
G00X1.438Y-1.2894
M15
G01X1.4124Y-1.2894
M16
G05
G00X1.7372Y-1.0138
M15
G01X1.7116Y-1.0138
M16
G05
G00X1.7372Y-1.2894
M15
G01X1.7116Y-1.2894
M16
G05
T0
M30
