G04 #@! TF.GenerationSoftware,KiCad,Pcbnew,(5.1.9)-1*
G04 #@! TF.CreationDate,2023-02-03T00:57:47+01:00*
G04 #@! TF.ProjectId,Base,42617365-2e6b-4696-9361-645f70636258,rev?*
G04 #@! TF.SameCoordinates,Original*
G04 #@! TF.FileFunction,Legend,Top*
G04 #@! TF.FilePolarity,Positive*
%FSLAX46Y46*%
G04 Gerber Fmt 4.6, Leading zero omitted, Abs format (unit mm)*
G04 Created by KiCad (PCBNEW (5.1.9)-1) date 2023-02-03 00:57:47*
%MOMM*%
%LPD*%
G01*
G04 APERTURE LIST*
%ADD10C,0.100000*%
%ADD11C,0.200000*%
%ADD12C,0.150000*%
%ADD13C,0.300000*%
%ADD14C,0.400000*%
%ADD15C,0.050000*%
%ADD16C,0.120000*%
%ADD17C,0.500000*%
%ADD18C,0.160000*%
%ADD19R,1.800000X1.000000*%
%ADD20R,1.800000X0.600000*%
%ADD21C,1.600000*%
%ADD22C,0.600000*%
%ADD23C,2.000000*%
%ADD24C,2.200000*%
%ADD25C,2.100000*%
%ADD26C,2.500000*%
%ADD27C,1.500000*%
%ADD28R,1.600000X3.200000*%
G04 APERTURE END LIST*
D10*
G36*
X30500000Y-24600000D02*
G01*
X30800000Y-24600000D01*
X30200000Y-25200000D01*
X29800000Y-25200000D01*
X29200000Y-24600000D01*
X29500000Y-24600000D01*
X30000000Y-24100000D01*
X30500000Y-24600000D01*
G37*
X30500000Y-24600000D02*
X30800000Y-24600000D01*
X30200000Y-25200000D01*
X29800000Y-25200000D01*
X29200000Y-24600000D01*
X29500000Y-24600000D01*
X30000000Y-24100000D01*
X30500000Y-24600000D01*
G36*
X37800000Y-25200000D02*
G01*
X37400000Y-25200000D01*
X36800000Y-24600000D01*
X38400000Y-24600000D01*
X37800000Y-25200000D01*
G37*
X37800000Y-25200000D02*
X37400000Y-25200000D01*
X36800000Y-24600000D01*
X38400000Y-24600000D01*
X37800000Y-25200000D01*
G36*
X44950000Y-25150000D02*
G01*
X44400000Y-24650000D01*
X44950000Y-24050000D01*
X44950000Y-25150000D01*
G37*
X44950000Y-25150000D02*
X44400000Y-24650000D01*
X44950000Y-24050000D01*
X44950000Y-25150000D01*
G36*
X15600000Y-24600000D02*
G01*
X15050000Y-25200000D01*
X15050000Y-24100000D01*
X15600000Y-24600000D01*
G37*
X15600000Y-24600000D02*
X15050000Y-25200000D01*
X15050000Y-24100000D01*
X15600000Y-24600000D01*
G36*
X22600000Y-25200000D02*
G01*
X22200000Y-25200000D01*
X21600000Y-24600000D01*
X23200000Y-24600000D01*
X22600000Y-25200000D01*
G37*
X22600000Y-25200000D02*
X22200000Y-25200000D01*
X21600000Y-24600000D01*
X23200000Y-24600000D01*
X22600000Y-25200000D01*
D11*
X36995238Y-62420476D02*
X36947619Y-62563333D01*
X36947619Y-62801428D01*
X36995238Y-62896666D01*
X37042857Y-62944285D01*
X37138095Y-62991904D01*
X37233333Y-62991904D01*
X37328571Y-62944285D01*
X37376190Y-62896666D01*
X37423809Y-62801428D01*
X37471428Y-62610952D01*
X37519047Y-62515714D01*
X37566666Y-62468095D01*
X37661904Y-62420476D01*
X37757142Y-62420476D01*
X37852380Y-62468095D01*
X37900000Y-62515714D01*
X37947619Y-62610952D01*
X37947619Y-62849047D01*
X37900000Y-62991904D01*
X37947619Y-63325238D02*
X36947619Y-63563333D01*
X37661904Y-63753809D01*
X36947619Y-63944285D01*
X37947619Y-64182380D01*
X36947619Y-64563333D02*
X37947619Y-64563333D01*
X37947619Y-64801428D01*
X37900000Y-64944285D01*
X37804761Y-65039523D01*
X37709523Y-65087142D01*
X37519047Y-65134761D01*
X37376190Y-65134761D01*
X37185714Y-65087142D01*
X37090476Y-65039523D01*
X36995238Y-64944285D01*
X36947619Y-64801428D01*
X36947619Y-64563333D01*
X37947619Y-48584285D02*
X37138095Y-48584285D01*
X37042857Y-48627142D01*
X36995238Y-48670000D01*
X36947619Y-48755714D01*
X36947619Y-48927142D01*
X36995238Y-49012857D01*
X37042857Y-49055714D01*
X37138095Y-49098571D01*
X37947619Y-49098571D01*
X37233333Y-49484285D02*
X37233333Y-49912857D01*
X36947619Y-49398571D02*
X37947619Y-49698571D01*
X36947619Y-49998571D01*
X36947619Y-50812857D02*
X37423809Y-50512857D01*
X36947619Y-50298571D02*
X37947619Y-50298571D01*
X37947619Y-50641428D01*
X37900000Y-50727142D01*
X37852380Y-50770000D01*
X37757142Y-50812857D01*
X37614285Y-50812857D01*
X37519047Y-50770000D01*
X37471428Y-50727142D01*
X37423809Y-50641428D01*
X37423809Y-50298571D01*
X37947619Y-51070000D02*
X37947619Y-51584285D01*
X36947619Y-51327142D02*
X37947619Y-51327142D01*
D12*
X31200000Y-62400000D02*
X32000000Y-59100000D01*
X32000000Y-53000000D02*
X32000000Y-59100000D01*
X32000000Y-53000000D02*
X31200000Y-49600000D01*
X31200000Y-49600000D02*
X28800000Y-49600000D01*
X31200000Y-62400000D02*
X28800000Y-62400000D01*
X28800000Y-49600000D02*
X28800000Y-62400000D01*
D10*
X36400000Y-58600000D02*
X35400000Y-58600000D01*
X36400000Y-60200000D02*
X35400000Y-60200000D01*
X36400000Y-59400000D02*
X35400000Y-59400000D01*
X36400000Y-53800000D02*
X35400000Y-53800000D01*
X36400000Y-54600000D02*
X35400000Y-54600000D01*
X36400000Y-55400000D02*
X35400000Y-55400000D01*
X36400000Y-56200000D02*
X35400000Y-56200000D01*
D13*
X36800000Y-58400000D02*
X37200000Y-58400000D01*
D11*
X36800000Y-58600000D02*
X36800000Y-59800000D01*
X37200000Y-58600000D02*
X37200000Y-59800000D01*
X36800000Y-59800000D02*
X37200000Y-59800000D01*
X36800000Y-58600000D02*
X37200000Y-58600000D01*
D13*
X37600000Y-58800000D02*
X38000000Y-58800000D01*
D11*
X37600000Y-59000000D02*
X37600000Y-60200000D01*
X37600000Y-59000000D02*
X38000000Y-59000000D01*
X37600000Y-60200000D02*
X38000000Y-60200000D01*
X38000000Y-59000000D02*
X38000000Y-60200000D01*
D13*
X36800000Y-60000000D02*
X37200000Y-60000000D01*
X36800000Y-60200000D02*
X37200000Y-60200000D01*
X37600000Y-53800000D02*
X38000000Y-53800000D01*
X37600000Y-54000000D02*
X38000000Y-54000000D01*
X36800000Y-56800000D02*
X37200000Y-56800000D01*
X36800000Y-55200000D02*
X37200000Y-55200000D01*
X37600000Y-55600000D02*
X38000000Y-55600000D01*
X37600000Y-57200000D02*
X38000000Y-57200000D01*
X37400000Y-53600000D02*
X37400000Y-60400000D01*
X36600000Y-53600000D02*
X38200000Y-53600000D01*
X36600000Y-60400000D02*
X38200000Y-60400000D01*
X38200000Y-52400000D02*
X38200000Y-61600000D01*
X36600000Y-52400000D02*
X38200000Y-52400000D01*
X36600000Y-61600000D02*
X38200000Y-61600000D01*
X36600000Y-52400000D02*
X36600000Y-61600000D01*
D10*
X35400000Y-53800000D02*
X35400000Y-60200000D01*
X36400000Y-57000000D02*
X35400000Y-57000000D01*
D11*
X37200000Y-55400000D02*
X37200000Y-56600000D01*
X36800000Y-55400000D02*
X36800000Y-56600000D01*
X36800000Y-56600000D02*
X37200000Y-56600000D01*
X36800000Y-57000000D02*
X37200000Y-57000000D01*
X36800000Y-58200000D02*
X37200000Y-58200000D01*
X36800000Y-57000000D02*
X36800000Y-58200000D01*
X36800000Y-55400000D02*
X37200000Y-55400000D01*
X37200000Y-57000000D02*
X37200000Y-58200000D01*
X36800000Y-53800000D02*
X37200000Y-53800000D01*
X37200000Y-53800000D02*
X37200000Y-55000000D01*
X36800000Y-53800000D02*
X36800000Y-55000000D01*
X36800000Y-55000000D02*
X37200000Y-55000000D01*
X37600000Y-54200000D02*
X38000000Y-54200000D01*
X37600000Y-55400000D02*
X38000000Y-55400000D01*
X37600000Y-54200000D02*
X37600000Y-55400000D01*
X38000000Y-54200000D02*
X38000000Y-55400000D01*
X37600000Y-55800000D02*
X38000000Y-55800000D01*
X37600000Y-57000000D02*
X38000000Y-57000000D01*
X37600000Y-55800000D02*
X37600000Y-57000000D01*
X38000000Y-55800000D02*
X38000000Y-57000000D01*
X37600000Y-57400000D02*
X38000000Y-57400000D01*
X37600000Y-57400000D02*
X37600000Y-58600000D01*
X37600000Y-58600000D02*
X38000000Y-58600000D01*
X38000000Y-57400000D02*
X38000000Y-58600000D01*
X36800000Y-52600000D02*
X36800000Y-53400000D01*
X38000000Y-52600000D02*
X36800000Y-52600000D01*
X38000000Y-53400000D02*
X38000000Y-52600000D01*
X36800000Y-53400000D02*
X38000000Y-53400000D01*
X36800000Y-60600000D02*
X36800000Y-61400000D01*
X38000000Y-60600000D02*
X36800000Y-60600000D01*
X38000000Y-61400000D02*
X38000000Y-60600000D01*
X36800000Y-61400000D02*
X38000000Y-61400000D01*
D10*
X36400000Y-57800000D02*
X35400000Y-57800000D01*
D11*
X36400000Y-52200000D02*
X36400000Y-61800000D01*
X38400000Y-52200000D02*
X36400000Y-52200000D01*
X38400000Y-61800000D02*
X38400000Y-52200000D01*
X36400000Y-61800000D02*
X38400000Y-61800000D01*
D10*
G36*
X20381000Y-67668000D02*
G01*
X20889000Y-68176000D01*
X19111000Y-68176000D01*
X19619000Y-67668000D01*
X19746000Y-67160000D01*
X20275000Y-67160000D01*
X20381000Y-67668000D01*
G37*
X20381000Y-67668000D02*
X20889000Y-68176000D01*
X19111000Y-68176000D01*
X19619000Y-67668000D01*
X19746000Y-67160000D01*
X20275000Y-67160000D01*
X20381000Y-67668000D01*
G36*
X19619000Y-46332000D02*
G01*
X19111000Y-45824000D01*
X20889000Y-45824000D01*
X20381000Y-46332000D01*
X20254000Y-46840000D01*
X19725000Y-46840000D01*
X19619000Y-46332000D01*
G37*
X19619000Y-46332000D02*
X19111000Y-45824000D01*
X20889000Y-45824000D01*
X20381000Y-46332000D01*
X20254000Y-46840000D01*
X19725000Y-46840000D01*
X19619000Y-46332000D01*
G36*
X19619000Y-48872000D02*
G01*
X18984000Y-48364000D01*
X18476000Y-48364000D01*
X17714000Y-48999000D01*
X17714000Y-47221000D01*
X18476000Y-47856000D01*
X19111000Y-47856000D01*
X19619000Y-47221000D01*
X19725000Y-46840000D01*
X20254000Y-46840000D01*
X20381000Y-47348000D01*
X21016000Y-47856000D01*
X21524000Y-47856000D01*
X22286000Y-47348000D01*
X22286000Y-48999000D01*
X21524000Y-48364000D01*
X21016000Y-48364000D01*
X20381000Y-48872000D01*
X20275000Y-49380000D01*
X19746000Y-49380000D01*
X19619000Y-48872000D01*
G37*
X19619000Y-48872000D02*
X18984000Y-48364000D01*
X18476000Y-48364000D01*
X17714000Y-48999000D01*
X17714000Y-47221000D01*
X18476000Y-47856000D01*
X19111000Y-47856000D01*
X19619000Y-47221000D01*
X19725000Y-46840000D01*
X20254000Y-46840000D01*
X20381000Y-47348000D01*
X21016000Y-47856000D01*
X21524000Y-47856000D01*
X22286000Y-47348000D01*
X22286000Y-48999000D01*
X21524000Y-48364000D01*
X21016000Y-48364000D01*
X20381000Y-48872000D01*
X20275000Y-49380000D01*
X19746000Y-49380000D01*
X19619000Y-48872000D01*
G36*
X19619000Y-51412000D02*
G01*
X18984000Y-50904000D01*
X18476000Y-50904000D01*
X17714000Y-51539000D01*
X17714000Y-49761000D01*
X18476000Y-50396000D01*
X19111000Y-50396000D01*
X19619000Y-49761000D01*
X19725000Y-49380000D01*
X20254000Y-49380000D01*
X20381000Y-49888000D01*
X21016000Y-50396000D01*
X21524000Y-50396000D01*
X22286000Y-49888000D01*
X22286000Y-51539000D01*
X21524000Y-50904000D01*
X21016000Y-50904000D01*
X20381000Y-51412000D01*
X20275000Y-51920000D01*
X19746000Y-51920000D01*
X19619000Y-51412000D01*
G37*
X19619000Y-51412000D02*
X18984000Y-50904000D01*
X18476000Y-50904000D01*
X17714000Y-51539000D01*
X17714000Y-49761000D01*
X18476000Y-50396000D01*
X19111000Y-50396000D01*
X19619000Y-49761000D01*
X19725000Y-49380000D01*
X20254000Y-49380000D01*
X20381000Y-49888000D01*
X21016000Y-50396000D01*
X21524000Y-50396000D01*
X22286000Y-49888000D01*
X22286000Y-51539000D01*
X21524000Y-50904000D01*
X21016000Y-50904000D01*
X20381000Y-51412000D01*
X20275000Y-51920000D01*
X19746000Y-51920000D01*
X19619000Y-51412000D01*
G36*
X19619000Y-53952000D02*
G01*
X18984000Y-53444000D01*
X18476000Y-53444000D01*
X17714000Y-54079000D01*
X17714000Y-52301000D01*
X18476000Y-52936000D01*
X19111000Y-52936000D01*
X19619000Y-52301000D01*
X19725000Y-51920000D01*
X20254000Y-51920000D01*
X20381000Y-52428000D01*
X21016000Y-52936000D01*
X21524000Y-52936000D01*
X22286000Y-52428000D01*
X22286000Y-54079000D01*
X21524000Y-53444000D01*
X21016000Y-53444000D01*
X20381000Y-53952000D01*
X20275000Y-54460000D01*
X19746000Y-54460000D01*
X19619000Y-53952000D01*
G37*
X19619000Y-53952000D02*
X18984000Y-53444000D01*
X18476000Y-53444000D01*
X17714000Y-54079000D01*
X17714000Y-52301000D01*
X18476000Y-52936000D01*
X19111000Y-52936000D01*
X19619000Y-52301000D01*
X19725000Y-51920000D01*
X20254000Y-51920000D01*
X20381000Y-52428000D01*
X21016000Y-52936000D01*
X21524000Y-52936000D01*
X22286000Y-52428000D01*
X22286000Y-54079000D01*
X21524000Y-53444000D01*
X21016000Y-53444000D01*
X20381000Y-53952000D01*
X20275000Y-54460000D01*
X19746000Y-54460000D01*
X19619000Y-53952000D01*
G36*
X19619000Y-56492000D02*
G01*
X18984000Y-55984000D01*
X18476000Y-55984000D01*
X17714000Y-56619000D01*
X17714000Y-54841000D01*
X18476000Y-55476000D01*
X19111000Y-55476000D01*
X19619000Y-54841000D01*
X19725000Y-54460000D01*
X20254000Y-54460000D01*
X20381000Y-54968000D01*
X21016000Y-55476000D01*
X21524000Y-55476000D01*
X22286000Y-54968000D01*
X22286000Y-56619000D01*
X21524000Y-55984000D01*
X21016000Y-55984000D01*
X20381000Y-56492000D01*
X20275000Y-57000000D01*
X19746000Y-57000000D01*
X19619000Y-56492000D01*
G37*
X19619000Y-56492000D02*
X18984000Y-55984000D01*
X18476000Y-55984000D01*
X17714000Y-56619000D01*
X17714000Y-54841000D01*
X18476000Y-55476000D01*
X19111000Y-55476000D01*
X19619000Y-54841000D01*
X19725000Y-54460000D01*
X20254000Y-54460000D01*
X20381000Y-54968000D01*
X21016000Y-55476000D01*
X21524000Y-55476000D01*
X22286000Y-54968000D01*
X22286000Y-56619000D01*
X21524000Y-55984000D01*
X21016000Y-55984000D01*
X20381000Y-56492000D01*
X20275000Y-57000000D01*
X19746000Y-57000000D01*
X19619000Y-56492000D01*
G36*
X19619000Y-59032000D02*
G01*
X18984000Y-58524000D01*
X18476000Y-58524000D01*
X17714000Y-59159000D01*
X17714000Y-57381000D01*
X18476000Y-58016000D01*
X19111000Y-58016000D01*
X19619000Y-57381000D01*
X19725000Y-57000000D01*
X20254000Y-57000000D01*
X20381000Y-57508000D01*
X21016000Y-58016000D01*
X21524000Y-58016000D01*
X22286000Y-57508000D01*
X22286000Y-59159000D01*
X21524000Y-58524000D01*
X21016000Y-58524000D01*
X20381000Y-59032000D01*
X20275000Y-59540000D01*
X19746000Y-59540000D01*
X19619000Y-59032000D01*
G37*
X19619000Y-59032000D02*
X18984000Y-58524000D01*
X18476000Y-58524000D01*
X17714000Y-59159000D01*
X17714000Y-57381000D01*
X18476000Y-58016000D01*
X19111000Y-58016000D01*
X19619000Y-57381000D01*
X19725000Y-57000000D01*
X20254000Y-57000000D01*
X20381000Y-57508000D01*
X21016000Y-58016000D01*
X21524000Y-58016000D01*
X22286000Y-57508000D01*
X22286000Y-59159000D01*
X21524000Y-58524000D01*
X21016000Y-58524000D01*
X20381000Y-59032000D01*
X20275000Y-59540000D01*
X19746000Y-59540000D01*
X19619000Y-59032000D01*
G36*
X19619000Y-61572000D02*
G01*
X18984000Y-61064000D01*
X18476000Y-61064000D01*
X17714000Y-61699000D01*
X17714000Y-59921000D01*
X18476000Y-60556000D01*
X19111000Y-60556000D01*
X19619000Y-59921000D01*
X19725000Y-59540000D01*
X20254000Y-59540000D01*
X20381000Y-60048000D01*
X21016000Y-60556000D01*
X21524000Y-60556000D01*
X22286000Y-60048000D01*
X22286000Y-61699000D01*
X21524000Y-61064000D01*
X21016000Y-61064000D01*
X20381000Y-61572000D01*
X20275000Y-62080000D01*
X19746000Y-62080000D01*
X19619000Y-61572000D01*
G37*
X19619000Y-61572000D02*
X18984000Y-61064000D01*
X18476000Y-61064000D01*
X17714000Y-61699000D01*
X17714000Y-59921000D01*
X18476000Y-60556000D01*
X19111000Y-60556000D01*
X19619000Y-59921000D01*
X19725000Y-59540000D01*
X20254000Y-59540000D01*
X20381000Y-60048000D01*
X21016000Y-60556000D01*
X21524000Y-60556000D01*
X22286000Y-60048000D01*
X22286000Y-61699000D01*
X21524000Y-61064000D01*
X21016000Y-61064000D01*
X20381000Y-61572000D01*
X20275000Y-62080000D01*
X19746000Y-62080000D01*
X19619000Y-61572000D01*
G36*
X19619000Y-64112000D02*
G01*
X18984000Y-63604000D01*
X18476000Y-63604000D01*
X17714000Y-64239000D01*
X17714000Y-62461000D01*
X18476000Y-63096000D01*
X19111000Y-63096000D01*
X19619000Y-62461000D01*
X19725000Y-62080000D01*
X20254000Y-62080000D01*
X20381000Y-62588000D01*
X21016000Y-63096000D01*
X21524000Y-63096000D01*
X22286000Y-62588000D01*
X22286000Y-64239000D01*
X21524000Y-63604000D01*
X21016000Y-63604000D01*
X20381000Y-64112000D01*
X20275000Y-64620000D01*
X19746000Y-64620000D01*
X19619000Y-64112000D01*
G37*
X19619000Y-64112000D02*
X18984000Y-63604000D01*
X18476000Y-63604000D01*
X17714000Y-64239000D01*
X17714000Y-62461000D01*
X18476000Y-63096000D01*
X19111000Y-63096000D01*
X19619000Y-62461000D01*
X19725000Y-62080000D01*
X20254000Y-62080000D01*
X20381000Y-62588000D01*
X21016000Y-63096000D01*
X21524000Y-63096000D01*
X22286000Y-62588000D01*
X22286000Y-64239000D01*
X21524000Y-63604000D01*
X21016000Y-63604000D01*
X20381000Y-64112000D01*
X20275000Y-64620000D01*
X19746000Y-64620000D01*
X19619000Y-64112000D01*
G36*
X19619000Y-66652000D02*
G01*
X18984000Y-66144000D01*
X18476000Y-66144000D01*
X17714000Y-66779000D01*
X17714000Y-65001000D01*
X18476000Y-65636000D01*
X19111000Y-65636000D01*
X19619000Y-65001000D01*
X19725000Y-64620000D01*
X20254000Y-64620000D01*
X20381000Y-65128000D01*
X21016000Y-65636000D01*
X21524000Y-65636000D01*
X22286000Y-65128000D01*
X22286000Y-66779000D01*
X21524000Y-66144000D01*
X21016000Y-66144000D01*
X20381000Y-66652000D01*
X20275000Y-67160000D01*
X19746000Y-67160000D01*
X19619000Y-66652000D01*
G37*
X19619000Y-66652000D02*
X18984000Y-66144000D01*
X18476000Y-66144000D01*
X17714000Y-66779000D01*
X17714000Y-65001000D01*
X18476000Y-65636000D01*
X19111000Y-65636000D01*
X19619000Y-65001000D01*
X19725000Y-64620000D01*
X20254000Y-64620000D01*
X20381000Y-65128000D01*
X21016000Y-65636000D01*
X21524000Y-65636000D01*
X22286000Y-65128000D01*
X22286000Y-66779000D01*
X21524000Y-66144000D01*
X21016000Y-66144000D01*
X20381000Y-66652000D01*
X20275000Y-67160000D01*
X19746000Y-67160000D01*
X19619000Y-66652000D01*
D11*
X22265000Y-67160000D02*
G75*
G03*
X22265000Y-67160000I-995000J0D01*
G01*
X19725000Y-67160000D02*
G75*
G03*
X19725000Y-67160000I-995000J0D01*
G01*
X22265000Y-64620000D02*
G75*
G03*
X22265000Y-64620000I-995000J0D01*
G01*
X19725000Y-64620000D02*
G75*
G03*
X19725000Y-64620000I-995000J0D01*
G01*
X22265000Y-62080000D02*
G75*
G03*
X22265000Y-62080000I-995000J0D01*
G01*
X19725000Y-62080000D02*
G75*
G03*
X19725000Y-62080000I-995000J0D01*
G01*
X22265000Y-59540000D02*
G75*
G03*
X22265000Y-59540000I-995000J0D01*
G01*
X19725000Y-59540000D02*
G75*
G03*
X19725000Y-59540000I-995000J0D01*
G01*
X22265000Y-57000000D02*
G75*
G03*
X22265000Y-57000000I-995000J0D01*
G01*
X19725000Y-57000000D02*
G75*
G03*
X19725000Y-57000000I-995000J0D01*
G01*
X22265000Y-54460000D02*
G75*
G03*
X22265000Y-54460000I-995000J0D01*
G01*
X19725000Y-54460000D02*
G75*
G03*
X19725000Y-54460000I-995000J0D01*
G01*
X22265000Y-51920000D02*
G75*
G03*
X22265000Y-51920000I-995000J0D01*
G01*
X22265000Y-49380000D02*
G75*
G03*
X22265000Y-49380000I-995000J0D01*
G01*
X19725000Y-51920000D02*
G75*
G03*
X19725000Y-51920000I-995000J0D01*
G01*
X19725000Y-49380000D02*
G75*
G03*
X19725000Y-49380000I-995000J0D01*
G01*
X19725000Y-46840000D02*
G75*
G03*
X19725000Y-46840000I-995000J0D01*
G01*
X22265000Y-46840000D02*
G75*
G03*
X22265000Y-46840000I-995000J0D01*
G01*
X22265000Y-67160000D02*
X22265000Y-46840000D01*
X17735000Y-67160000D02*
X17735000Y-46840000D01*
X21270000Y-68155000D02*
X18730000Y-68155000D01*
X21270000Y-45845000D02*
X18730000Y-45845000D01*
X45000000Y-22600000D02*
X30000000Y-22600000D01*
X30000000Y-22600000D02*
X30000000Y-24000000D01*
X30600000Y-24600000D02*
X44400000Y-24600000D01*
X30000000Y-24000000D02*
X30600000Y-24600000D01*
D10*
X35000000Y-22600000D02*
X35000000Y-24600000D01*
D11*
X44400000Y-24600000D02*
X45000000Y-24000000D01*
X45000000Y-22600000D02*
X45000000Y-24000000D01*
D10*
X40000000Y-22600000D02*
X40000000Y-24600000D01*
D11*
X15000000Y-91400000D02*
X30000000Y-91400000D01*
X30000000Y-91400000D02*
X30000000Y-90000000D01*
X29400000Y-89400000D02*
X15600000Y-89400000D01*
X30000000Y-90000000D02*
X29400000Y-89400000D01*
D10*
X25000000Y-91400000D02*
X25000000Y-89400000D01*
D11*
X15600000Y-89400000D02*
X15000000Y-90000000D01*
X15000000Y-91400000D02*
X15000000Y-90000000D01*
D10*
X20000000Y-91400000D02*
X20000000Y-89400000D01*
D11*
X30000000Y-91400000D02*
X45000000Y-91400000D01*
X45000000Y-91400000D02*
X45000000Y-90000000D01*
X44400000Y-89400000D02*
X30600000Y-89400000D01*
X45000000Y-90000000D02*
X44400000Y-89400000D01*
D10*
X40000000Y-91400000D02*
X40000000Y-89400000D01*
D11*
X30600000Y-89400000D02*
X30000000Y-90000000D01*
X30000000Y-91400000D02*
X30000000Y-90000000D01*
D10*
X35000000Y-91400000D02*
X35000000Y-89400000D01*
D11*
X30000000Y-22600000D02*
X15000000Y-22600000D01*
X15000000Y-22600000D02*
X15000000Y-24000000D01*
X15600000Y-24600000D02*
X29400000Y-24600000D01*
X15000000Y-24000000D02*
X15600000Y-24600000D01*
D10*
X20000000Y-22600000D02*
X20000000Y-24600000D01*
D11*
X29400000Y-24600000D02*
X30000000Y-24000000D01*
X30000000Y-22600000D02*
X30000000Y-24000000D01*
D10*
X25000000Y-22600000D02*
X25000000Y-24600000D01*
D12*
X18600000Y-32800000D02*
X19800000Y-32800000D01*
G36*
X18200000Y-27600000D02*
G01*
X18600000Y-27400000D01*
X18600000Y-27800000D01*
X18200000Y-27600000D01*
G37*
X18200000Y-27600000D02*
X18600000Y-27400000D01*
X18600000Y-27800000D01*
X18200000Y-27600000D01*
D13*
X18758114Y-30500000D02*
G75*
G03*
X18758114Y-30500000I-158114J0D01*
G01*
D12*
X17550000Y-27600000D02*
X18600000Y-30500000D01*
D11*
X15100000Y-25250000D02*
X15100000Y-44750000D01*
X22100000Y-25250000D02*
X22100000Y-44750000D01*
X15600000Y-24750000D02*
X21600000Y-24750000D01*
X15600000Y-45250000D02*
X21600000Y-45250000D01*
D12*
X19850000Y-25750000D02*
X18600000Y-25750000D01*
D14*
G36*
X17400000Y-41800000D02*
G01*
X19800000Y-41800000D01*
X19800000Y-42600000D01*
X17400000Y-42600000D01*
X17400000Y-41800000D01*
G37*
X17400000Y-41800000D02*
X19800000Y-41800000D01*
X19800000Y-42600000D01*
X17400000Y-42600000D01*
X17400000Y-41800000D01*
D12*
X21000000Y-42200000D02*
X19900000Y-42200000D01*
X21000000Y-42200000D02*
X21000000Y-43000000D01*
X16300000Y-42200000D02*
X16300000Y-43000000D01*
X17300000Y-42200000D02*
X16300000Y-42200000D01*
X18600000Y-25750000D02*
X18600000Y-27800000D01*
X18600000Y-30500000D02*
X18600000Y-32800000D01*
D11*
X15600000Y-45250000D02*
G75*
G02*
X15100000Y-44750000I0J500000D01*
G01*
X22100000Y-44750000D02*
G75*
G02*
X21600000Y-45250000I-500000J0D01*
G01*
X21600000Y-24750000D02*
G75*
G02*
X22100000Y-25250000I0J-500000D01*
G01*
X15100000Y-25250000D02*
G75*
G02*
X15600000Y-24750000I500000J0D01*
G01*
D10*
G36*
X32100000Y-13575000D02*
G01*
X32900000Y-13575000D01*
X32500000Y-13975000D01*
X32100000Y-13575000D01*
G37*
X32100000Y-13575000D02*
X32900000Y-13575000D01*
X32500000Y-13975000D01*
X32100000Y-13575000D01*
G36*
X37100000Y-13575000D02*
G01*
X37900000Y-13575000D01*
X37500000Y-13975000D01*
X37100000Y-13575000D01*
G37*
X37100000Y-13575000D02*
X37900000Y-13575000D01*
X37500000Y-13975000D01*
X37100000Y-13575000D01*
G36*
X42100000Y-13575000D02*
G01*
X42900000Y-13575000D01*
X42500000Y-13975000D01*
X42100000Y-13575000D01*
G37*
X42100000Y-13575000D02*
X42900000Y-13575000D01*
X42500000Y-13975000D01*
X42100000Y-13575000D01*
D15*
X33700000Y-16100000D02*
X30800000Y-18000000D01*
D16*
X34300000Y-17400000D02*
G75*
G03*
X34300000Y-17400000I-1800000J0D01*
G01*
D15*
X34200000Y-16800000D02*
X31300000Y-18700000D01*
X38700000Y-16100000D02*
X35800000Y-18000000D01*
D16*
X39300000Y-17400000D02*
G75*
G03*
X39300000Y-17400000I-1800000J0D01*
G01*
D15*
X39200000Y-16800000D02*
X36300000Y-18700000D01*
X43700000Y-16100000D02*
X40800000Y-18000000D01*
D16*
X44300000Y-17400000D02*
G75*
G03*
X44300000Y-17400000I-1800000J0D01*
G01*
D15*
X44200000Y-16800000D02*
X41300000Y-18700000D01*
D11*
X45000000Y-22600000D02*
X45000000Y-12800000D01*
X45000000Y-22600000D02*
X15000000Y-22600000D01*
D10*
X45000000Y-20700000D02*
X15000000Y-20700000D01*
D11*
X45000000Y-12800000D02*
X15000000Y-12800000D01*
D10*
X15000000Y-13300000D02*
X45000000Y-13300000D01*
X15000000Y-14200000D02*
X45000000Y-14200000D01*
G36*
X27100000Y-13575000D02*
G01*
X27900000Y-13575000D01*
X27500000Y-13975000D01*
X27100000Y-13575000D01*
G37*
X27100000Y-13575000D02*
X27900000Y-13575000D01*
X27500000Y-13975000D01*
X27100000Y-13575000D01*
G36*
X22100000Y-13575000D02*
G01*
X22900000Y-13575000D01*
X22500000Y-13975000D01*
X22100000Y-13575000D01*
G37*
X22100000Y-13575000D02*
X22900000Y-13575000D01*
X22500000Y-13975000D01*
X22100000Y-13575000D01*
D15*
X23700000Y-16100000D02*
X20800000Y-18000000D01*
D16*
X24300000Y-17400000D02*
G75*
G03*
X24300000Y-17400000I-1800000J0D01*
G01*
D15*
X29200000Y-16800000D02*
X26300000Y-18700000D01*
D11*
X15000000Y-22600000D02*
X15000000Y-12800000D01*
D15*
X19200000Y-16800000D02*
X16300000Y-18700000D01*
X18700000Y-16100000D02*
X15800000Y-18000000D01*
D16*
X29300000Y-17400000D02*
G75*
G03*
X29300000Y-17400000I-1800000J0D01*
G01*
D10*
G36*
X17100000Y-13575000D02*
G01*
X17900000Y-13575000D01*
X17500000Y-13975000D01*
X17100000Y-13575000D01*
G37*
X17100000Y-13575000D02*
X17900000Y-13575000D01*
X17500000Y-13975000D01*
X17100000Y-13575000D01*
D16*
X19300000Y-17400000D02*
G75*
G03*
X19300000Y-17400000I-1800000J0D01*
G01*
D15*
X24200000Y-16800000D02*
X21300000Y-18700000D01*
X28700000Y-16100000D02*
X25800000Y-18000000D01*
D12*
X41400000Y-32800000D02*
X42600000Y-32800000D01*
G36*
X41000000Y-27600000D02*
G01*
X41400000Y-27400000D01*
X41400000Y-27800000D01*
X41000000Y-27600000D01*
G37*
X41000000Y-27600000D02*
X41400000Y-27400000D01*
X41400000Y-27800000D01*
X41000000Y-27600000D01*
D13*
X41558114Y-30500000D02*
G75*
G03*
X41558114Y-30500000I-158114J0D01*
G01*
D12*
X40350000Y-27600000D02*
X41400000Y-30500000D01*
D11*
X37900000Y-25250000D02*
X37900000Y-44750000D01*
X44900000Y-25250000D02*
X44900000Y-44750000D01*
X38400000Y-24750000D02*
X44400000Y-24750000D01*
X38400000Y-45250000D02*
X44400000Y-45250000D01*
D12*
X42650000Y-25750000D02*
X41400000Y-25750000D01*
D14*
G36*
X40200000Y-41800000D02*
G01*
X42600000Y-41800000D01*
X42600000Y-42600000D01*
X40200000Y-42600000D01*
X40200000Y-41800000D01*
G37*
X40200000Y-41800000D02*
X42600000Y-41800000D01*
X42600000Y-42600000D01*
X40200000Y-42600000D01*
X40200000Y-41800000D01*
D12*
X43800000Y-42200000D02*
X42700000Y-42200000D01*
X43800000Y-42200000D02*
X43800000Y-43000000D01*
X39100000Y-42200000D02*
X39100000Y-43000000D01*
X40100000Y-42200000D02*
X39100000Y-42200000D01*
X41400000Y-25750000D02*
X41400000Y-27800000D01*
X41400000Y-30500000D02*
X41400000Y-32800000D01*
D11*
X38400000Y-45250000D02*
G75*
G02*
X37900000Y-44750000I0J500000D01*
G01*
X44900000Y-44750000D02*
G75*
G02*
X44400000Y-45250000I-500000J0D01*
G01*
X44400000Y-24750000D02*
G75*
G02*
X44900000Y-25250000I0J-500000D01*
G01*
X37900000Y-25250000D02*
G75*
G02*
X38400000Y-24750000I500000J0D01*
G01*
D12*
X33800000Y-32800000D02*
X35000000Y-32800000D01*
G36*
X33400000Y-27600000D02*
G01*
X33800000Y-27400000D01*
X33800000Y-27800000D01*
X33400000Y-27600000D01*
G37*
X33400000Y-27600000D02*
X33800000Y-27400000D01*
X33800000Y-27800000D01*
X33400000Y-27600000D01*
D13*
X33958114Y-30500000D02*
G75*
G03*
X33958114Y-30500000I-158114J0D01*
G01*
D12*
X32750000Y-27600000D02*
X33800000Y-30500000D01*
D11*
X30300000Y-25250000D02*
X30300000Y-44750000D01*
X37300000Y-25250000D02*
X37300000Y-44750000D01*
X30800000Y-24750000D02*
X36800000Y-24750000D01*
X30800000Y-45250000D02*
X36800000Y-45250000D01*
D12*
X35050000Y-25750000D02*
X33800000Y-25750000D01*
D14*
G36*
X32600000Y-41800000D02*
G01*
X35000000Y-41800000D01*
X35000000Y-42600000D01*
X32600000Y-42600000D01*
X32600000Y-41800000D01*
G37*
X32600000Y-41800000D02*
X35000000Y-41800000D01*
X35000000Y-42600000D01*
X32600000Y-42600000D01*
X32600000Y-41800000D01*
D12*
X36200000Y-42200000D02*
X35100000Y-42200000D01*
X36200000Y-42200000D02*
X36200000Y-43000000D01*
X31500000Y-42200000D02*
X31500000Y-43000000D01*
X32500000Y-42200000D02*
X31500000Y-42200000D01*
X33800000Y-25750000D02*
X33800000Y-27800000D01*
X33800000Y-30500000D02*
X33800000Y-32800000D01*
D11*
X30800000Y-45250000D02*
G75*
G02*
X30300000Y-44750000I0J500000D01*
G01*
X37300000Y-44750000D02*
G75*
G02*
X36800000Y-45250000I-500000J0D01*
G01*
X36800000Y-24750000D02*
G75*
G02*
X37300000Y-25250000I0J-500000D01*
G01*
X30300000Y-25250000D02*
G75*
G02*
X30800000Y-24750000I500000J0D01*
G01*
D12*
X26200000Y-32800000D02*
X27400000Y-32800000D01*
G36*
X25800000Y-27600000D02*
G01*
X26200000Y-27400000D01*
X26200000Y-27800000D01*
X25800000Y-27600000D01*
G37*
X25800000Y-27600000D02*
X26200000Y-27400000D01*
X26200000Y-27800000D01*
X25800000Y-27600000D01*
D13*
X26358114Y-30500000D02*
G75*
G03*
X26358114Y-30500000I-158114J0D01*
G01*
D12*
X25150000Y-27600000D02*
X26200000Y-30500000D01*
D11*
X22700000Y-25250000D02*
X22700000Y-44750000D01*
X29700000Y-25250000D02*
X29700000Y-44750000D01*
X23200000Y-24750000D02*
X29200000Y-24750000D01*
X23200000Y-45250000D02*
X29200000Y-45250000D01*
D12*
X27450000Y-25750000D02*
X26200000Y-25750000D01*
D14*
G36*
X25000000Y-41800000D02*
G01*
X27400000Y-41800000D01*
X27400000Y-42600000D01*
X25000000Y-42600000D01*
X25000000Y-41800000D01*
G37*
X25000000Y-41800000D02*
X27400000Y-41800000D01*
X27400000Y-42600000D01*
X25000000Y-42600000D01*
X25000000Y-41800000D01*
D12*
X28600000Y-42200000D02*
X27500000Y-42200000D01*
X28600000Y-42200000D02*
X28600000Y-43000000D01*
X23900000Y-42200000D02*
X23900000Y-43000000D01*
X24900000Y-42200000D02*
X23900000Y-42200000D01*
X26200000Y-25750000D02*
X26200000Y-27800000D01*
X26200000Y-30500000D02*
X26200000Y-32800000D01*
D11*
X23200000Y-45250000D02*
G75*
G02*
X22700000Y-44750000I0J500000D01*
G01*
X29700000Y-44750000D02*
G75*
G02*
X29200000Y-45250000I-500000J0D01*
G01*
X29200000Y-24750000D02*
G75*
G02*
X29700000Y-25250000I0J-500000D01*
G01*
X22700000Y-25250000D02*
G75*
G02*
X23200000Y-24750000I500000J0D01*
G01*
D10*
G36*
X27900000Y-100425000D02*
G01*
X27100000Y-100425000D01*
X27500000Y-100025000D01*
X27900000Y-100425000D01*
G37*
X27900000Y-100425000D02*
X27100000Y-100425000D01*
X27500000Y-100025000D01*
X27900000Y-100425000D01*
G36*
X22900000Y-100425000D02*
G01*
X22100000Y-100425000D01*
X22500000Y-100025000D01*
X22900000Y-100425000D01*
G37*
X22900000Y-100425000D02*
X22100000Y-100425000D01*
X22500000Y-100025000D01*
X22900000Y-100425000D01*
G36*
X17900000Y-100425000D02*
G01*
X17100000Y-100425000D01*
X17500000Y-100025000D01*
X17900000Y-100425000D01*
G37*
X17900000Y-100425000D02*
X17100000Y-100425000D01*
X17500000Y-100025000D01*
X17900000Y-100425000D01*
D15*
X26300000Y-97900000D02*
X29200000Y-96000000D01*
D16*
X29300000Y-96600000D02*
G75*
G03*
X29300000Y-96600000I-1800000J0D01*
G01*
D15*
X25800000Y-97200000D02*
X28700000Y-95300000D01*
X21300000Y-97900000D02*
X24200000Y-96000000D01*
D16*
X24300000Y-96600000D02*
G75*
G03*
X24300000Y-96600000I-1800000J0D01*
G01*
D15*
X20800000Y-97200000D02*
X23700000Y-95300000D01*
X16300000Y-97900000D02*
X19200000Y-96000000D01*
D16*
X19300000Y-96600000D02*
G75*
G03*
X19300000Y-96600000I-1800000J0D01*
G01*
D15*
X15800000Y-97200000D02*
X18700000Y-95300000D01*
D11*
X15000000Y-91400000D02*
X15000000Y-101200000D01*
X15000000Y-91400000D02*
X45000000Y-91400000D01*
D10*
X15000000Y-93300000D02*
X45000000Y-93300000D01*
D11*
X15000000Y-101200000D02*
X45000000Y-101200000D01*
D10*
X45000000Y-100700000D02*
X15000000Y-100700000D01*
X45000000Y-99800000D02*
X15000000Y-99800000D01*
G36*
X32900000Y-100425000D02*
G01*
X32100000Y-100425000D01*
X32500000Y-100025000D01*
X32900000Y-100425000D01*
G37*
X32900000Y-100425000D02*
X32100000Y-100425000D01*
X32500000Y-100025000D01*
X32900000Y-100425000D01*
G36*
X37900000Y-100425000D02*
G01*
X37100000Y-100425000D01*
X37500000Y-100025000D01*
X37900000Y-100425000D01*
G37*
X37900000Y-100425000D02*
X37100000Y-100425000D01*
X37500000Y-100025000D01*
X37900000Y-100425000D01*
D15*
X36300000Y-97900000D02*
X39200000Y-96000000D01*
D16*
X39300000Y-96600000D02*
G75*
G03*
X39300000Y-96600000I-1800000J0D01*
G01*
D15*
X30800000Y-97200000D02*
X33700000Y-95300000D01*
D11*
X45000000Y-91400000D02*
X45000000Y-101200000D01*
D15*
X40800000Y-97200000D02*
X43700000Y-95300000D01*
X41300000Y-97900000D02*
X44200000Y-96000000D01*
D16*
X34300000Y-96600000D02*
G75*
G03*
X34300000Y-96600000I-1800000J0D01*
G01*
D10*
G36*
X42900000Y-100425000D02*
G01*
X42100000Y-100425000D01*
X42500000Y-100025000D01*
X42900000Y-100425000D01*
G37*
X42900000Y-100425000D02*
X42100000Y-100425000D01*
X42500000Y-100025000D01*
X42900000Y-100425000D01*
D16*
X44300000Y-96600000D02*
G75*
G03*
X44300000Y-96600000I-1800000J0D01*
G01*
D15*
X35800000Y-97200000D02*
X38700000Y-95300000D01*
X31300000Y-97900000D02*
X34200000Y-96000000D01*
D11*
X39300000Y-65766000D02*
X39300000Y-48230000D01*
X44300000Y-48230000D02*
X44300000Y-65766000D01*
X42300000Y-63520000D02*
X42800000Y-63270000D01*
X43800000Y-63520000D02*
X43300000Y-63270000D01*
D17*
X43050000Y-63020000D02*
X43050000Y-63270000D01*
X42800000Y-63270000D02*
X43300000Y-63270000D01*
D11*
X43050000Y-62770000D02*
X43800000Y-63520000D01*
X43800000Y-63520000D02*
X42300000Y-63520000D01*
X42300000Y-63520000D02*
X43050000Y-62770000D01*
D10*
X43300000Y-65266000D02*
X40300000Y-65266000D01*
D11*
X40300000Y-65266000D02*
X39300000Y-65266000D01*
X44300000Y-65266000D02*
X43300000Y-65266000D01*
X40300000Y-65266000D02*
X40300000Y-64266000D01*
X40300000Y-64266000D02*
X43300000Y-64266000D01*
X43300000Y-64266000D02*
X43300000Y-65266000D01*
X39300000Y-65766000D02*
X40300000Y-65766000D01*
X40300000Y-65766000D02*
X40300000Y-65266000D01*
X43300000Y-65766000D02*
X43300000Y-65266000D01*
X44300000Y-65766000D02*
X43300000Y-65766000D01*
X43300000Y-49730000D02*
X40300000Y-49730000D01*
X43300000Y-48730000D02*
X43300000Y-49730000D01*
X40300000Y-49730000D02*
X40300000Y-48730000D01*
X43300000Y-48730000D02*
X44300000Y-48730000D01*
D10*
X43300000Y-48730000D02*
X40300000Y-48730000D01*
D11*
X40300000Y-48230000D02*
X40300000Y-48730000D01*
X40300000Y-48730000D02*
X39300000Y-48730000D01*
X43300000Y-48230000D02*
X43300000Y-48730000D01*
X43300000Y-48230000D02*
X44300000Y-48230000D01*
X39300000Y-48230000D02*
X40300000Y-48230000D01*
D12*
X22500000Y-85000000D02*
G75*
G03*
X22500000Y-85000000I-3100000J0D01*
G01*
X30100000Y-85000000D02*
G75*
G03*
X30100000Y-85000000I-3100000J0D01*
G01*
X37700000Y-85000000D02*
G75*
G03*
X37700000Y-85000000I-3100000J0D01*
G01*
X45300000Y-85000000D02*
G75*
G03*
X45300000Y-85000000I-3100000J0D01*
G01*
D10*
G36*
X37600000Y-75800000D02*
G01*
X36600000Y-76600000D01*
X35400000Y-76884441D01*
X34200000Y-76600000D01*
X33200000Y-75800000D01*
X32700000Y-74900000D01*
X38100000Y-74900000D01*
X37600000Y-75800000D01*
G37*
X37600000Y-75800000D02*
X36600000Y-76600000D01*
X35400000Y-76884441D01*
X34200000Y-76600000D01*
X33200000Y-75800000D01*
X32700000Y-74900000D01*
X38100000Y-74900000D01*
X37600000Y-75800000D01*
D12*
X38284441Y-74000000D02*
G75*
G03*
X38284441Y-74000000I-2884441J0D01*
G01*
X38700000Y-77300000D02*
X32100000Y-77300000D01*
X32100000Y-72100000D02*
X33500000Y-70700000D01*
X38700000Y-72100000D02*
X38700000Y-77300000D01*
X32100000Y-77300000D02*
X32100000Y-72100000D01*
X33500000Y-70700000D02*
X37300000Y-70700000D01*
X37300000Y-70700000D02*
X38700000Y-72100000D01*
D10*
G36*
X37000000Y-72700000D02*
G01*
X37000000Y-73100000D01*
X36800000Y-73100000D01*
X36800000Y-72700000D01*
X36400000Y-72700000D01*
X36400000Y-72500000D01*
X36800000Y-72500000D01*
X36800000Y-72100000D01*
X37000000Y-72100000D01*
X37000000Y-72500000D01*
X37400000Y-72500000D01*
X37400000Y-72700000D01*
X37000000Y-72700000D01*
G37*
X37000000Y-72700000D02*
X37000000Y-73100000D01*
X36800000Y-73100000D01*
X36800000Y-72700000D01*
X36400000Y-72700000D01*
X36400000Y-72500000D01*
X36800000Y-72500000D01*
X36800000Y-72100000D01*
X37000000Y-72100000D01*
X37000000Y-72500000D01*
X37400000Y-72500000D01*
X37400000Y-72700000D01*
X37000000Y-72700000D01*
G36*
X27800000Y-72700000D02*
G01*
X27800000Y-73100000D01*
X27600000Y-73100000D01*
X27600000Y-72700000D01*
X27200000Y-72700000D01*
X27200000Y-72500000D01*
X27600000Y-72500000D01*
X27600000Y-72100000D01*
X27800000Y-72100000D01*
X27800000Y-72500000D01*
X28200000Y-72500000D01*
X28200000Y-72700000D01*
X27800000Y-72700000D01*
G37*
X27800000Y-72700000D02*
X27800000Y-73100000D01*
X27600000Y-73100000D01*
X27600000Y-72700000D01*
X27200000Y-72700000D01*
X27200000Y-72500000D01*
X27600000Y-72500000D01*
X27600000Y-72100000D01*
X27800000Y-72100000D01*
X27800000Y-72500000D01*
X28200000Y-72500000D01*
X28200000Y-72700000D01*
X27800000Y-72700000D01*
D12*
X28100000Y-70700000D02*
X29500000Y-72100000D01*
X24300000Y-70700000D02*
X28100000Y-70700000D01*
X22900000Y-77300000D02*
X22900000Y-72100000D01*
X29500000Y-72100000D02*
X29500000Y-77300000D01*
X22900000Y-72100000D02*
X24300000Y-70700000D01*
X29500000Y-77300000D02*
X22900000Y-77300000D01*
X29084441Y-74000000D02*
G75*
G03*
X29084441Y-74000000I-2884441J0D01*
G01*
D10*
G36*
X28400000Y-75800000D02*
G01*
X27400000Y-76600000D01*
X26200000Y-76884441D01*
X25000000Y-76600000D01*
X24000000Y-75800000D01*
X23500000Y-74900000D01*
X28900000Y-74900000D01*
X28400000Y-75800000D01*
G37*
X28400000Y-75800000D02*
X27400000Y-76600000D01*
X26200000Y-76884441D01*
X25000000Y-76600000D01*
X24000000Y-75800000D01*
X23500000Y-74900000D01*
X28900000Y-74900000D01*
X28400000Y-75800000D01*
D18*
X31871428Y-24011904D02*
X31490476Y-24011904D01*
X31490476Y-23211904D01*
X32100000Y-23288095D02*
X32138095Y-23250000D01*
X32214285Y-23211904D01*
X32404761Y-23211904D01*
X32480952Y-23250000D01*
X32519047Y-23288095D01*
X32557142Y-23364285D01*
X32557142Y-23440476D01*
X32519047Y-23554761D01*
X32061904Y-24011904D01*
X32557142Y-24011904D01*
X32900000Y-23707142D02*
X33509523Y-23707142D01*
X33204761Y-24011904D02*
X33204761Y-23402380D01*
X36319047Y-23211904D02*
X36471428Y-23211904D01*
X36547619Y-23250000D01*
X36623809Y-23326190D01*
X36661904Y-23478571D01*
X36661904Y-23745238D01*
X36623809Y-23897619D01*
X36547619Y-23973809D01*
X36471428Y-24011904D01*
X36319047Y-24011904D01*
X36242857Y-23973809D01*
X36166666Y-23897619D01*
X36128571Y-23745238D01*
X36128571Y-23478571D01*
X36166666Y-23326190D01*
X36242857Y-23250000D01*
X36319047Y-23211904D01*
X37004761Y-23211904D02*
X37004761Y-23859523D01*
X37042857Y-23935714D01*
X37080952Y-23973809D01*
X37157142Y-24011904D01*
X37309523Y-24011904D01*
X37385714Y-23973809D01*
X37423809Y-23935714D01*
X37461904Y-23859523D01*
X37461904Y-23211904D01*
X37728571Y-23211904D02*
X38185714Y-23211904D01*
X37957142Y-24011904D02*
X37957142Y-23211904D01*
X38376190Y-23211904D02*
X38871428Y-23211904D01*
X38604761Y-23516666D01*
X38719047Y-23516666D01*
X38795238Y-23554761D01*
X38833333Y-23592857D01*
X38871428Y-23669047D01*
X38871428Y-23859523D01*
X38833333Y-23935714D01*
X38795238Y-23973809D01*
X38719047Y-24011904D01*
X38490476Y-24011904D01*
X38414285Y-23973809D01*
X38376190Y-23935714D01*
X41319047Y-23211904D02*
X41471428Y-23211904D01*
X41547619Y-23250000D01*
X41623809Y-23326190D01*
X41661904Y-23478571D01*
X41661904Y-23745238D01*
X41623809Y-23897619D01*
X41547619Y-23973809D01*
X41471428Y-24011904D01*
X41319047Y-24011904D01*
X41242857Y-23973809D01*
X41166666Y-23897619D01*
X41128571Y-23745238D01*
X41128571Y-23478571D01*
X41166666Y-23326190D01*
X41242857Y-23250000D01*
X41319047Y-23211904D01*
X42004761Y-23211904D02*
X42004761Y-23859523D01*
X42042857Y-23935714D01*
X42080952Y-23973809D01*
X42157142Y-24011904D01*
X42309523Y-24011904D01*
X42385714Y-23973809D01*
X42423809Y-23935714D01*
X42461904Y-23859523D01*
X42461904Y-23211904D01*
X42728571Y-23211904D02*
X43185714Y-23211904D01*
X42957142Y-24011904D02*
X42957142Y-23211904D01*
X43795238Y-23478571D02*
X43795238Y-24011904D01*
X43604761Y-23173809D02*
X43414285Y-23745238D01*
X43909523Y-23745238D01*
X26871428Y-90761904D02*
X26490476Y-90761904D01*
X26490476Y-89961904D01*
X27557142Y-90761904D02*
X27100000Y-90761904D01*
X27328571Y-90761904D02*
X27328571Y-89961904D01*
X27252380Y-90076190D01*
X27176190Y-90152380D01*
X27100000Y-90190476D01*
X27900000Y-90457142D02*
X28509523Y-90457142D01*
X21700000Y-90761904D02*
X21700000Y-89961904D01*
X22080952Y-90761904D02*
X22080952Y-89961904D01*
X22538095Y-90761904D01*
X22538095Y-89961904D01*
X22880952Y-90038095D02*
X22919047Y-90000000D01*
X22995238Y-89961904D01*
X23185714Y-89961904D01*
X23261904Y-90000000D01*
X23300000Y-90038095D01*
X23338095Y-90114285D01*
X23338095Y-90190476D01*
X23300000Y-90304761D01*
X22842857Y-90761904D01*
X23338095Y-90761904D01*
X16700000Y-90761904D02*
X16700000Y-89961904D01*
X17080952Y-90761904D02*
X17080952Y-89961904D01*
X17538095Y-90761904D01*
X17538095Y-89961904D01*
X18338095Y-90761904D02*
X17880952Y-90761904D01*
X18109523Y-90761904D02*
X18109523Y-89961904D01*
X18033333Y-90076190D01*
X17957142Y-90152380D01*
X17880952Y-90190476D01*
X41871428Y-90761904D02*
X41490476Y-90761904D01*
X41490476Y-89961904D01*
X42100000Y-90038095D02*
X42138095Y-90000000D01*
X42214285Y-89961904D01*
X42404761Y-89961904D01*
X42480952Y-90000000D01*
X42519047Y-90038095D01*
X42557142Y-90114285D01*
X42557142Y-90190476D01*
X42519047Y-90304761D01*
X42061904Y-90761904D01*
X42557142Y-90761904D01*
X42900000Y-90457142D02*
X43509523Y-90457142D01*
X36700000Y-90761904D02*
X36700000Y-89961904D01*
X37080952Y-90761904D02*
X37080952Y-89961904D01*
X37538095Y-90761904D01*
X37538095Y-89961904D01*
X38261904Y-90228571D02*
X38261904Y-90761904D01*
X38071428Y-89923809D02*
X37880952Y-90495238D01*
X38376190Y-90495238D01*
X31700000Y-90761904D02*
X31700000Y-89961904D01*
X32080952Y-90761904D02*
X32080952Y-89961904D01*
X32538095Y-90761904D01*
X32538095Y-89961904D01*
X32842857Y-89961904D02*
X33338095Y-89961904D01*
X33071428Y-90266666D01*
X33185714Y-90266666D01*
X33261904Y-90304761D01*
X33300000Y-90342857D01*
X33338095Y-90419047D01*
X33338095Y-90609523D01*
X33300000Y-90685714D01*
X33261904Y-90723809D01*
X33185714Y-90761904D01*
X32957142Y-90761904D01*
X32880952Y-90723809D01*
X32842857Y-90685714D01*
X16871428Y-24011904D02*
X16490476Y-24011904D01*
X16490476Y-23211904D01*
X17557142Y-24011904D02*
X17100000Y-24011904D01*
X17328571Y-24011904D02*
X17328571Y-23211904D01*
X17252380Y-23326190D01*
X17176190Y-23402380D01*
X17100000Y-23440476D01*
X17900000Y-23707142D02*
X18509523Y-23707142D01*
X18204761Y-24011904D02*
X18204761Y-23402380D01*
X21319047Y-23211904D02*
X21471428Y-23211904D01*
X21547619Y-23250000D01*
X21623809Y-23326190D01*
X21661904Y-23478571D01*
X21661904Y-23745238D01*
X21623809Y-23897619D01*
X21547619Y-23973809D01*
X21471428Y-24011904D01*
X21319047Y-24011904D01*
X21242857Y-23973809D01*
X21166666Y-23897619D01*
X21128571Y-23745238D01*
X21128571Y-23478571D01*
X21166666Y-23326190D01*
X21242857Y-23250000D01*
X21319047Y-23211904D01*
X22004761Y-23211904D02*
X22004761Y-23859523D01*
X22042857Y-23935714D01*
X22080952Y-23973809D01*
X22157142Y-24011904D01*
X22309523Y-24011904D01*
X22385714Y-23973809D01*
X22423809Y-23935714D01*
X22461904Y-23859523D01*
X22461904Y-23211904D01*
X22728571Y-23211904D02*
X23185714Y-23211904D01*
X22957142Y-24011904D02*
X22957142Y-23211904D01*
X23871428Y-24011904D02*
X23414285Y-24011904D01*
X23642857Y-24011904D02*
X23642857Y-23211904D01*
X23566666Y-23326190D01*
X23490476Y-23402380D01*
X23414285Y-23440476D01*
X26319047Y-23211904D02*
X26471428Y-23211904D01*
X26547619Y-23250000D01*
X26623809Y-23326190D01*
X26661904Y-23478571D01*
X26661904Y-23745238D01*
X26623809Y-23897619D01*
X26547619Y-23973809D01*
X26471428Y-24011904D01*
X26319047Y-24011904D01*
X26242857Y-23973809D01*
X26166666Y-23897619D01*
X26128571Y-23745238D01*
X26128571Y-23478571D01*
X26166666Y-23326190D01*
X26242857Y-23250000D01*
X26319047Y-23211904D01*
X27004761Y-23211904D02*
X27004761Y-23859523D01*
X27042857Y-23935714D01*
X27080952Y-23973809D01*
X27157142Y-24011904D01*
X27309523Y-24011904D01*
X27385714Y-23973809D01*
X27423809Y-23935714D01*
X27461904Y-23859523D01*
X27461904Y-23211904D01*
X27728571Y-23211904D02*
X28185714Y-23211904D01*
X27957142Y-24011904D02*
X27957142Y-23211904D01*
X28414285Y-23288095D02*
X28452380Y-23250000D01*
X28528571Y-23211904D01*
X28719047Y-23211904D01*
X28795238Y-23250000D01*
X28833333Y-23288095D01*
X28871428Y-23364285D01*
X28871428Y-23440476D01*
X28833333Y-23554761D01*
X28376190Y-24011904D01*
X28871428Y-24011904D01*
%LPC*%
D19*
X28750000Y-60000000D03*
X31250000Y-52000000D03*
X28750000Y-52000000D03*
X31250000Y-60000000D03*
D20*
X31250000Y-54500000D03*
X28750000Y-53500000D03*
X31250000Y-56500000D03*
X28750000Y-55500000D03*
X28750000Y-57500000D03*
X31250000Y-58500000D03*
D21*
X18730000Y-54460000D03*
X18730000Y-64620000D03*
X18730000Y-62080000D03*
X18730000Y-49380000D03*
X18730000Y-67160000D03*
X18730000Y-46840000D03*
X18730000Y-59540000D03*
X18730000Y-57000000D03*
X18730000Y-51920000D03*
X21270000Y-67160000D03*
X21270000Y-46840000D03*
X21270000Y-49380000D03*
X21270000Y-51920000D03*
X21270000Y-54460000D03*
X21270000Y-57000000D03*
X21270000Y-59540000D03*
X21270000Y-62080000D03*
X21270000Y-64620000D03*
D22*
X21000000Y-26450000D03*
X21000000Y-25050000D03*
X21000000Y-33450000D03*
X21000000Y-32050000D03*
D23*
X21000000Y-25750000D03*
X21000000Y-44150000D03*
X16300000Y-44150000D03*
X21000000Y-32750000D03*
D22*
X21000000Y-43450000D03*
X20300000Y-44150000D03*
X21050000Y-44850000D03*
X21700000Y-44150000D03*
X17000000Y-44150000D03*
X15600000Y-44150000D03*
X16300000Y-43450000D03*
X16300000Y-44850000D03*
D24*
X17500000Y-17400000D03*
X27500000Y-17400000D03*
X22500000Y-17400000D03*
X32500000Y-17400000D03*
X37500000Y-17400000D03*
X42500000Y-17400000D03*
D22*
X43800000Y-26450000D03*
X43800000Y-25050000D03*
X43800000Y-33450000D03*
X43800000Y-32050000D03*
D23*
X43800000Y-25750000D03*
X43800000Y-44150000D03*
X39100000Y-44150000D03*
X43800000Y-32750000D03*
D22*
X43800000Y-43450000D03*
X43100000Y-44150000D03*
X43850000Y-44850000D03*
X44500000Y-44150000D03*
X39800000Y-44150000D03*
X38400000Y-44150000D03*
X39100000Y-43450000D03*
X39100000Y-44850000D03*
X36200000Y-26450000D03*
X36200000Y-25050000D03*
X36200000Y-33450000D03*
X36200000Y-32050000D03*
D23*
X36200000Y-25750000D03*
X36200000Y-44150000D03*
X31500000Y-44150000D03*
X36200000Y-32750000D03*
D22*
X36200000Y-43450000D03*
X35500000Y-44150000D03*
X36250000Y-44850000D03*
X36900000Y-44150000D03*
X32200000Y-44150000D03*
X30800000Y-44150000D03*
X31500000Y-43450000D03*
X31500000Y-44850000D03*
X28600000Y-26450000D03*
X28600000Y-25050000D03*
X28600000Y-33450000D03*
X28600000Y-32050000D03*
D23*
X28600000Y-25750000D03*
X28600000Y-44150000D03*
X23900000Y-44150000D03*
X28600000Y-32750000D03*
D22*
X28600000Y-43450000D03*
X27900000Y-44150000D03*
X28650000Y-44850000D03*
X29300000Y-44150000D03*
X24600000Y-44150000D03*
X23200000Y-44150000D03*
X23900000Y-43450000D03*
X23900000Y-44850000D03*
D24*
X42500000Y-96600000D03*
X32500000Y-96600000D03*
X37500000Y-96600000D03*
X27500000Y-96600000D03*
X22500000Y-96600000D03*
X17500000Y-96600000D03*
D25*
X43070000Y-51320000D03*
D23*
X40530000Y-52555000D03*
X43070000Y-53825000D03*
D26*
X40530000Y-62680000D03*
D23*
X40530000Y-57635000D03*
X43070000Y-58905000D03*
X43070000Y-61445000D03*
X40530000Y-60175000D03*
X43070000Y-56365000D03*
X40530000Y-55095000D03*
D27*
X16076598Y-88323402D03*
X19400000Y-85000000D03*
X23676598Y-88323402D03*
X27000000Y-85000000D03*
X31276598Y-88323402D03*
X34600000Y-85000000D03*
X38876598Y-88323402D03*
X42200000Y-85000000D03*
D28*
X35400000Y-76900000D03*
X35400000Y-71100000D03*
X26200000Y-71100000D03*
X26200000Y-76900000D03*
M02*
