G04 #@! TF.GenerationSoftware,KiCad,Pcbnew,(5.1.9)-1*
G04 #@! TF.CreationDate,2023-02-03T00:57:47+01:00*
G04 #@! TF.ProjectId,Base,42617365-2e6b-4696-9361-645f70636258,rev?*
G04 #@! TF.SameCoordinates,Original*
G04 #@! TF.FileFunction,Soldermask,Top*
G04 #@! TF.FilePolarity,Negative*
%FSLAX46Y46*%
G04 Gerber Fmt 4.6, Leading zero omitted, Abs format (unit mm)*
G04 Created by KiCad (PCBNEW (5.1.9)-1) date 2023-02-03 00:57:47*
%MOMM*%
%LPD*%
G01*
G04 APERTURE LIST*
%ADD10R,1.800000X1.000000*%
%ADD11R,1.800000X0.600000*%
%ADD12C,1.600000*%
%ADD13C,0.600000*%
%ADD14C,2.000000*%
%ADD15C,2.200000*%
%ADD16C,2.100000*%
%ADD17C,2.500000*%
%ADD18C,1.500000*%
%ADD19R,1.600000X3.200000*%
G04 APERTURE END LIST*
D10*
X28750000Y-60000000D03*
X31250000Y-52000000D03*
X28750000Y-52000000D03*
X31250000Y-60000000D03*
D11*
X31250000Y-54500000D03*
X28750000Y-53500000D03*
X31250000Y-56500000D03*
X28750000Y-55500000D03*
X28750000Y-57500000D03*
X31250000Y-58500000D03*
D12*
X18730000Y-54460000D03*
X18730000Y-64620000D03*
X18730000Y-62080000D03*
X18730000Y-49380000D03*
X18730000Y-67160000D03*
X18730000Y-46840000D03*
X18730000Y-59540000D03*
X18730000Y-57000000D03*
X18730000Y-51920000D03*
X21270000Y-67160000D03*
X21270000Y-46840000D03*
X21270000Y-49380000D03*
X21270000Y-51920000D03*
X21270000Y-54460000D03*
X21270000Y-57000000D03*
X21270000Y-59540000D03*
X21270000Y-62080000D03*
X21270000Y-64620000D03*
D13*
X21000000Y-26450000D03*
X21000000Y-25050000D03*
X21000000Y-33450000D03*
X21000000Y-32050000D03*
D14*
X21000000Y-25750000D03*
X21000000Y-44150000D03*
X16300000Y-44150000D03*
X21000000Y-32750000D03*
D13*
X21000000Y-43450000D03*
X20300000Y-44150000D03*
X21050000Y-44850000D03*
X21700000Y-44150000D03*
X17000000Y-44150000D03*
X15600000Y-44150000D03*
X16300000Y-43450000D03*
X16300000Y-44850000D03*
D15*
X17500000Y-17400000D03*
X27500000Y-17400000D03*
X22500000Y-17400000D03*
X32500000Y-17400000D03*
X37500000Y-17400000D03*
X42500000Y-17400000D03*
D13*
X43800000Y-26450000D03*
X43800000Y-25050000D03*
X43800000Y-33450000D03*
X43800000Y-32050000D03*
D14*
X43800000Y-25750000D03*
X43800000Y-44150000D03*
X39100000Y-44150000D03*
X43800000Y-32750000D03*
D13*
X43800000Y-43450000D03*
X43100000Y-44150000D03*
X43850000Y-44850000D03*
X44500000Y-44150000D03*
X39800000Y-44150000D03*
X38400000Y-44150000D03*
X39100000Y-43450000D03*
X39100000Y-44850000D03*
X36200000Y-26450000D03*
X36200000Y-25050000D03*
X36200000Y-33450000D03*
X36200000Y-32050000D03*
D14*
X36200000Y-25750000D03*
X36200000Y-44150000D03*
X31500000Y-44150000D03*
X36200000Y-32750000D03*
D13*
X36200000Y-43450000D03*
X35500000Y-44150000D03*
X36250000Y-44850000D03*
X36900000Y-44150000D03*
X32200000Y-44150000D03*
X30800000Y-44150000D03*
X31500000Y-43450000D03*
X31500000Y-44850000D03*
X28600000Y-26450000D03*
X28600000Y-25050000D03*
X28600000Y-33450000D03*
X28600000Y-32050000D03*
D14*
X28600000Y-25750000D03*
X28600000Y-44150000D03*
X23900000Y-44150000D03*
X28600000Y-32750000D03*
D13*
X28600000Y-43450000D03*
X27900000Y-44150000D03*
X28650000Y-44850000D03*
X29300000Y-44150000D03*
X24600000Y-44150000D03*
X23200000Y-44150000D03*
X23900000Y-43450000D03*
X23900000Y-44850000D03*
D15*
X42500000Y-96600000D03*
X32500000Y-96600000D03*
X37500000Y-96600000D03*
X27500000Y-96600000D03*
X22500000Y-96600000D03*
X17500000Y-96600000D03*
D16*
X43070000Y-51320000D03*
D14*
X40530000Y-52555000D03*
X43070000Y-53825000D03*
D17*
X40530000Y-62680000D03*
D14*
X40530000Y-57635000D03*
X43070000Y-58905000D03*
X43070000Y-61445000D03*
X40530000Y-60175000D03*
X43070000Y-56365000D03*
X40530000Y-55095000D03*
D18*
X16076598Y-88323402D03*
X19400000Y-85000000D03*
X23676598Y-88323402D03*
X27000000Y-85000000D03*
X31276598Y-88323402D03*
X34600000Y-85000000D03*
X38876598Y-88323402D03*
X42200000Y-85000000D03*
D19*
X35400000Y-76900000D03*
X35400000Y-71100000D03*
X26200000Y-71100000D03*
X26200000Y-76900000D03*
M02*
