G04 #@! TF.GenerationSoftware,KiCad,Pcbnew,(5.1.9)-1*
G04 #@! TF.CreationDate,2023-02-14T09:35:45+01:00*
G04 #@! TF.ProjectId,Stlink,53746c69-6e6b-42e6-9b69-6361645f7063,rev?*
G04 #@! TF.SameCoordinates,PXd59f80PY14fb180*
G04 #@! TF.FileFunction,Legend,Top*
G04 #@! TF.FilePolarity,Positive*
%FSLAX46Y46*%
G04 Gerber Fmt 4.6, Leading zero omitted, Abs format (unit mm)*
G04 Created by KiCad (PCBNEW (5.1.9)-1) date 2023-02-14 09:35:45*
%MOMM*%
%LPD*%
G01*
G04 APERTURE LIST*
%ADD10C,0.100000*%
%ADD11C,0.200000*%
%ADD12C,0.050000*%
%ADD13C,0.500000*%
%ADD14C,0.025400*%
%ADD15C,0.150000*%
%ADD16C,0.260000*%
%ADD17C,0.160000*%
%ADD18C,2.100000*%
%ADD19C,2.000000*%
%ADD20C,2.500000*%
%ADD21R,2.200000X0.900000*%
%ADD22C,1.600000*%
G04 APERTURE END LIST*
D10*
G36*
X14226000Y-30800000D02*
G01*
X14226000Y-28514000D01*
X4574000Y-28514000D01*
X4574000Y-30800000D01*
X3812000Y-30800000D01*
X3812000Y-28260000D01*
X4320000Y-27752000D01*
X14480000Y-27752000D01*
X14988000Y-28260000D01*
X14988000Y-30800000D01*
X14226000Y-30800000D01*
G37*
X14226000Y-30800000D02*
X14226000Y-28514000D01*
X4574000Y-28514000D01*
X4574000Y-30800000D01*
X3812000Y-30800000D01*
X3812000Y-28260000D01*
X4320000Y-27752000D01*
X14480000Y-27752000D01*
X14988000Y-28260000D01*
X14988000Y-30800000D01*
X14226000Y-30800000D01*
G36*
X4574000Y-30800000D02*
G01*
X4574000Y-33086000D01*
X14226000Y-33086000D01*
X14226000Y-30800000D01*
X14988000Y-30800000D01*
X14988000Y-33340000D01*
X14480000Y-33848000D01*
X4320000Y-33848000D01*
X3812000Y-33340000D01*
X3812000Y-30800000D01*
X4574000Y-30800000D01*
G37*
X4574000Y-30800000D02*
X4574000Y-33086000D01*
X14226000Y-33086000D01*
X14226000Y-30800000D01*
X14988000Y-30800000D01*
X14988000Y-33340000D01*
X14480000Y-33848000D01*
X4320000Y-33848000D01*
X3812000Y-33340000D01*
X3812000Y-30800000D01*
X4574000Y-30800000D01*
D11*
X14226000Y-29530000D02*
G75*
G03*
X14226000Y-29530000I-1016000J0D01*
G01*
X14226000Y-32070000D02*
G75*
G03*
X14226000Y-32070000I-1016000J0D01*
G01*
X11686000Y-29530000D02*
G75*
G03*
X11686000Y-29530000I-1016000J0D01*
G01*
X11686000Y-32070000D02*
G75*
G03*
X11686000Y-32070000I-1016000J0D01*
G01*
X9146000Y-29530000D02*
G75*
G03*
X9146000Y-29530000I-1016000J0D01*
G01*
X9146000Y-32070000D02*
G75*
G03*
X9146000Y-32070000I-1016000J0D01*
G01*
X6606000Y-29530000D02*
G75*
G03*
X6606000Y-29530000I-1016000J0D01*
G01*
X6606000Y-32070000D02*
G75*
G03*
X6606000Y-32070000I-1016000J0D01*
G01*
D12*
G36*
X4574000Y-32070000D02*
G01*
X4828000Y-32832000D01*
X5590000Y-33086000D01*
X6352000Y-32832000D01*
X6606000Y-32070000D01*
X6860000Y-32070000D01*
X6860000Y-33086000D01*
X6606000Y-33340000D01*
X4574000Y-33340000D01*
X4320000Y-33086000D01*
X4320000Y-32070000D01*
X4574000Y-32070000D01*
G37*
X4574000Y-32070000D02*
X4828000Y-32832000D01*
X5590000Y-33086000D01*
X6352000Y-32832000D01*
X6606000Y-32070000D01*
X6860000Y-32070000D01*
X6860000Y-33086000D01*
X6606000Y-33340000D01*
X4574000Y-33340000D01*
X4320000Y-33086000D01*
X4320000Y-32070000D01*
X4574000Y-32070000D01*
G36*
X7114000Y-32070000D02*
G01*
X7368000Y-32832000D01*
X8130000Y-33086000D01*
X8892000Y-32832000D01*
X9146000Y-32070000D01*
X9400000Y-32070000D01*
X9400000Y-33086000D01*
X9146000Y-33340000D01*
X7114000Y-33340000D01*
X6860000Y-33086000D01*
X6860000Y-32070000D01*
X7114000Y-32070000D01*
G37*
X7114000Y-32070000D02*
X7368000Y-32832000D01*
X8130000Y-33086000D01*
X8892000Y-32832000D01*
X9146000Y-32070000D01*
X9400000Y-32070000D01*
X9400000Y-33086000D01*
X9146000Y-33340000D01*
X7114000Y-33340000D01*
X6860000Y-33086000D01*
X6860000Y-32070000D01*
X7114000Y-32070000D01*
G36*
X9654000Y-32070000D02*
G01*
X9908000Y-32832000D01*
X10670000Y-33086000D01*
X11432000Y-32832000D01*
X11686000Y-32070000D01*
X11940000Y-32070000D01*
X11940000Y-33086000D01*
X11686000Y-33340000D01*
X9654000Y-33340000D01*
X9400000Y-33086000D01*
X9400000Y-32070000D01*
X9654000Y-32070000D01*
G37*
X9654000Y-32070000D02*
X9908000Y-32832000D01*
X10670000Y-33086000D01*
X11432000Y-32832000D01*
X11686000Y-32070000D01*
X11940000Y-32070000D01*
X11940000Y-33086000D01*
X11686000Y-33340000D01*
X9654000Y-33340000D01*
X9400000Y-33086000D01*
X9400000Y-32070000D01*
X9654000Y-32070000D01*
G36*
X12194000Y-32070000D02*
G01*
X12448000Y-32832000D01*
X13210000Y-33086000D01*
X13972000Y-32832000D01*
X14226000Y-32070000D01*
X14480000Y-32070000D01*
X14480000Y-33086000D01*
X14226000Y-33340000D01*
X12194000Y-33340000D01*
X11940000Y-33086000D01*
X11940000Y-32070000D01*
X12194000Y-32070000D01*
G37*
X12194000Y-32070000D02*
X12448000Y-32832000D01*
X13210000Y-33086000D01*
X13972000Y-32832000D01*
X14226000Y-32070000D01*
X14480000Y-32070000D01*
X14480000Y-33086000D01*
X14226000Y-33340000D01*
X12194000Y-33340000D01*
X11940000Y-33086000D01*
X11940000Y-32070000D01*
X12194000Y-32070000D01*
G36*
X11686000Y-32070000D02*
G01*
X11432000Y-31308000D01*
X10670000Y-31054000D01*
X9908000Y-31308000D01*
X9654000Y-32070000D01*
X9400000Y-32070000D01*
X9400000Y-30800000D01*
X11940000Y-30800000D01*
X11940000Y-32070000D01*
X11686000Y-32070000D01*
G37*
X11686000Y-32070000D02*
X11432000Y-31308000D01*
X10670000Y-31054000D01*
X9908000Y-31308000D01*
X9654000Y-32070000D01*
X9400000Y-32070000D01*
X9400000Y-30800000D01*
X11940000Y-30800000D01*
X11940000Y-32070000D01*
X11686000Y-32070000D01*
G36*
X14226000Y-32070000D02*
G01*
X13972000Y-31308000D01*
X13210000Y-31054000D01*
X12448000Y-31308000D01*
X12194000Y-32070000D01*
X11940000Y-32070000D01*
X11940000Y-30800000D01*
X14226000Y-30800000D01*
X14480000Y-31054000D01*
X14480000Y-32070000D01*
X14226000Y-32070000D01*
G37*
X14226000Y-32070000D02*
X13972000Y-31308000D01*
X13210000Y-31054000D01*
X12448000Y-31308000D01*
X12194000Y-32070000D01*
X11940000Y-32070000D01*
X11940000Y-30800000D01*
X14226000Y-30800000D01*
X14480000Y-31054000D01*
X14480000Y-32070000D01*
X14226000Y-32070000D01*
G36*
X6606000Y-32070000D02*
G01*
X6352000Y-31308000D01*
X5590000Y-31054000D01*
X4828000Y-31308000D01*
X4574000Y-32070000D01*
X4320000Y-32070000D01*
X4320000Y-31054000D01*
X4574000Y-30800000D01*
X6860000Y-30800000D01*
X6860000Y-32070000D01*
X6606000Y-32070000D01*
G37*
X6606000Y-32070000D02*
X6352000Y-31308000D01*
X5590000Y-31054000D01*
X4828000Y-31308000D01*
X4574000Y-32070000D01*
X4320000Y-32070000D01*
X4320000Y-31054000D01*
X4574000Y-30800000D01*
X6860000Y-30800000D01*
X6860000Y-32070000D01*
X6606000Y-32070000D01*
G36*
X9146000Y-32070000D02*
G01*
X8892000Y-31308000D01*
X8130000Y-31054000D01*
X7368000Y-31308000D01*
X7114000Y-32070000D01*
X6860000Y-32070000D01*
X6860000Y-30800000D01*
X9400000Y-30800000D01*
X9400000Y-32070000D01*
X9146000Y-32070000D01*
G37*
X9146000Y-32070000D02*
X8892000Y-31308000D01*
X8130000Y-31054000D01*
X7368000Y-31308000D01*
X7114000Y-32070000D01*
X6860000Y-32070000D01*
X6860000Y-30800000D01*
X9400000Y-30800000D01*
X9400000Y-32070000D01*
X9146000Y-32070000D01*
G36*
X11686000Y-29530000D02*
G01*
X11432000Y-28768000D01*
X10670000Y-28514000D01*
X9908000Y-28768000D01*
X9654000Y-29530000D01*
X9400000Y-29530000D01*
X9400000Y-28514000D01*
X9654000Y-28260000D01*
X11686000Y-28260000D01*
X11940000Y-28514000D01*
X11940000Y-29530000D01*
X11686000Y-29530000D01*
G37*
X11686000Y-29530000D02*
X11432000Y-28768000D01*
X10670000Y-28514000D01*
X9908000Y-28768000D01*
X9654000Y-29530000D01*
X9400000Y-29530000D01*
X9400000Y-28514000D01*
X9654000Y-28260000D01*
X11686000Y-28260000D01*
X11940000Y-28514000D01*
X11940000Y-29530000D01*
X11686000Y-29530000D01*
G36*
X14226000Y-29530000D02*
G01*
X13972000Y-28768000D01*
X13210000Y-28514000D01*
X12448000Y-28768000D01*
X12194000Y-29530000D01*
X11940000Y-29530000D01*
X11940000Y-28514000D01*
X12194000Y-28260000D01*
X14226000Y-28260000D01*
X14480000Y-28514000D01*
X14480000Y-29530000D01*
X14226000Y-29530000D01*
G37*
X14226000Y-29530000D02*
X13972000Y-28768000D01*
X13210000Y-28514000D01*
X12448000Y-28768000D01*
X12194000Y-29530000D01*
X11940000Y-29530000D01*
X11940000Y-28514000D01*
X12194000Y-28260000D01*
X14226000Y-28260000D01*
X14480000Y-28514000D01*
X14480000Y-29530000D01*
X14226000Y-29530000D01*
G36*
X6606000Y-29530000D02*
G01*
X6352000Y-28768000D01*
X5590000Y-28514000D01*
X4828000Y-28768000D01*
X4574000Y-29530000D01*
X4320000Y-29530000D01*
X4320000Y-28514000D01*
X4574000Y-28260000D01*
X6606000Y-28260000D01*
X6860000Y-28514000D01*
X6860000Y-29530000D01*
X6606000Y-29530000D01*
G37*
X6606000Y-29530000D02*
X6352000Y-28768000D01*
X5590000Y-28514000D01*
X4828000Y-28768000D01*
X4574000Y-29530000D01*
X4320000Y-29530000D01*
X4320000Y-28514000D01*
X4574000Y-28260000D01*
X6606000Y-28260000D01*
X6860000Y-28514000D01*
X6860000Y-29530000D01*
X6606000Y-29530000D01*
G36*
X9146000Y-29530000D02*
G01*
X8892000Y-28768000D01*
X8130000Y-28514000D01*
X7368000Y-28768000D01*
X7114000Y-29530000D01*
X6860000Y-29530000D01*
X6860000Y-28514000D01*
X7114000Y-28260000D01*
X9146000Y-28260000D01*
X9400000Y-28514000D01*
X9400000Y-29530000D01*
X9146000Y-29530000D01*
G37*
X9146000Y-29530000D02*
X8892000Y-28768000D01*
X8130000Y-28514000D01*
X7368000Y-28768000D01*
X7114000Y-29530000D01*
X6860000Y-29530000D01*
X6860000Y-28514000D01*
X7114000Y-28260000D01*
X9146000Y-28260000D01*
X9400000Y-28514000D01*
X9400000Y-29530000D01*
X9146000Y-29530000D01*
G36*
X7114000Y-29530000D02*
G01*
X7368000Y-30292000D01*
X8130000Y-30546000D01*
X8892000Y-30292000D01*
X9146000Y-29530000D01*
X9400000Y-29530000D01*
X9400000Y-30800000D01*
X6860000Y-30800000D01*
X6860000Y-29530000D01*
X7114000Y-29530000D01*
G37*
X7114000Y-29530000D02*
X7368000Y-30292000D01*
X8130000Y-30546000D01*
X8892000Y-30292000D01*
X9146000Y-29530000D01*
X9400000Y-29530000D01*
X9400000Y-30800000D01*
X6860000Y-30800000D01*
X6860000Y-29530000D01*
X7114000Y-29530000D01*
G36*
X4574000Y-29530000D02*
G01*
X4828000Y-30292000D01*
X5590000Y-30546000D01*
X6352000Y-30292000D01*
X6606000Y-29530000D01*
X6860000Y-29530000D01*
X6860000Y-30800000D01*
X4574000Y-30800000D01*
X4320000Y-30546000D01*
X4320000Y-29530000D01*
X4574000Y-29530000D01*
G37*
X4574000Y-29530000D02*
X4828000Y-30292000D01*
X5590000Y-30546000D01*
X6352000Y-30292000D01*
X6606000Y-29530000D01*
X6860000Y-29530000D01*
X6860000Y-30800000D01*
X4574000Y-30800000D01*
X4320000Y-30546000D01*
X4320000Y-29530000D01*
X4574000Y-29530000D01*
G36*
X12194000Y-29530000D02*
G01*
X12448000Y-30292000D01*
X13210000Y-30546000D01*
X13972000Y-30292000D01*
X14226000Y-29530000D01*
X14480000Y-29530000D01*
X14480000Y-30546000D01*
X14226000Y-30800000D01*
X11940000Y-30800000D01*
X11940000Y-29530000D01*
X12194000Y-29530000D01*
G37*
X12194000Y-29530000D02*
X12448000Y-30292000D01*
X13210000Y-30546000D01*
X13972000Y-30292000D01*
X14226000Y-29530000D01*
X14480000Y-29530000D01*
X14480000Y-30546000D01*
X14226000Y-30800000D01*
X11940000Y-30800000D01*
X11940000Y-29530000D01*
X12194000Y-29530000D01*
G36*
X9654000Y-29530000D02*
G01*
X9908000Y-30292000D01*
X10670000Y-30546000D01*
X11432000Y-30292000D01*
X11686000Y-29530000D01*
X11940000Y-29530000D01*
X11940000Y-30800000D01*
X9400000Y-30800000D01*
X9400000Y-29530000D01*
X9654000Y-29530000D01*
G37*
X9654000Y-29530000D02*
X9908000Y-30292000D01*
X10670000Y-30546000D01*
X11432000Y-30292000D01*
X11686000Y-29530000D01*
X11940000Y-29530000D01*
X11940000Y-30800000D01*
X9400000Y-30800000D01*
X9400000Y-29530000D01*
X9654000Y-29530000D01*
D11*
X13982000Y-37153000D02*
X12458000Y-37153000D01*
G36*
X11950000Y-33216000D02*
G01*
X12204000Y-33470000D01*
X14236000Y-33470000D01*
X14490000Y-33216000D01*
X14490000Y-33724000D01*
X11950000Y-33724000D01*
X11950000Y-33216000D01*
G37*
X11950000Y-33216000D02*
X12204000Y-33470000D01*
X14236000Y-33470000D01*
X14490000Y-33216000D01*
X14490000Y-33724000D01*
X11950000Y-33724000D01*
X11950000Y-33216000D01*
X11950000Y-36645000D02*
X12458000Y-37153000D01*
X11950000Y-36645000D02*
X11950000Y-33216000D01*
X14490000Y-36645000D02*
X13982000Y-37153000D01*
X14490000Y-36645000D02*
X14490000Y-33216000D01*
X11442000Y-37153000D02*
X9918000Y-37153000D01*
G36*
X9410000Y-33216000D02*
G01*
X9664000Y-33470000D01*
X11696000Y-33470000D01*
X11950000Y-33216000D01*
X11950000Y-33724000D01*
X9410000Y-33724000D01*
X9410000Y-33216000D01*
G37*
X9410000Y-33216000D02*
X9664000Y-33470000D01*
X11696000Y-33470000D01*
X11950000Y-33216000D01*
X11950000Y-33724000D01*
X9410000Y-33724000D01*
X9410000Y-33216000D01*
X9410000Y-36645000D02*
X9918000Y-37153000D01*
X9410000Y-36645000D02*
X9410000Y-33216000D01*
X11950000Y-36645000D02*
X11442000Y-37153000D01*
X11950000Y-36645000D02*
X11950000Y-33216000D01*
X8892000Y-37153000D02*
X7368000Y-37153000D01*
G36*
X6860000Y-33216000D02*
G01*
X7114000Y-33470000D01*
X9146000Y-33470000D01*
X9400000Y-33216000D01*
X9400000Y-33724000D01*
X6860000Y-33724000D01*
X6860000Y-33216000D01*
G37*
X6860000Y-33216000D02*
X7114000Y-33470000D01*
X9146000Y-33470000D01*
X9400000Y-33216000D01*
X9400000Y-33724000D01*
X6860000Y-33724000D01*
X6860000Y-33216000D01*
X6860000Y-36645000D02*
X7368000Y-37153000D01*
X6860000Y-36645000D02*
X6860000Y-33216000D01*
X9400000Y-36645000D02*
X8892000Y-37153000D01*
X9400000Y-36645000D02*
X9400000Y-33216000D01*
X6362000Y-37153000D02*
X4838000Y-37153000D01*
G36*
X4330000Y-33216000D02*
G01*
X4584000Y-33470000D01*
X6616000Y-33470000D01*
X6870000Y-33216000D01*
X6870000Y-33724000D01*
X4330000Y-33724000D01*
X4330000Y-33216000D01*
G37*
X4330000Y-33216000D02*
X4584000Y-33470000D01*
X6616000Y-33470000D01*
X6870000Y-33216000D01*
X6870000Y-33724000D01*
X4330000Y-33724000D01*
X4330000Y-33216000D01*
X4330000Y-36645000D02*
X4838000Y-37153000D01*
X4330000Y-36645000D02*
X4330000Y-33216000D01*
X6870000Y-36645000D02*
X6362000Y-37153000D01*
X6870000Y-36645000D02*
X6870000Y-33216000D01*
X12478000Y-24447000D02*
X14002000Y-24447000D01*
G36*
X14510000Y-28384000D02*
G01*
X14256000Y-28130000D01*
X12224000Y-28130000D01*
X11970000Y-28384000D01*
X11970000Y-27876000D01*
X14510000Y-27876000D01*
X14510000Y-28384000D01*
G37*
X14510000Y-28384000D02*
X14256000Y-28130000D01*
X12224000Y-28130000D01*
X11970000Y-28384000D01*
X11970000Y-27876000D01*
X14510000Y-27876000D01*
X14510000Y-28384000D01*
X14510000Y-24955000D02*
X14002000Y-24447000D01*
X14510000Y-24955000D02*
X14510000Y-28384000D01*
X11970000Y-24955000D02*
X12478000Y-24447000D01*
X11970000Y-24955000D02*
X11970000Y-28384000D01*
X9928000Y-24437000D02*
X11452000Y-24437000D01*
G36*
X11960000Y-28374000D02*
G01*
X11706000Y-28120000D01*
X9674000Y-28120000D01*
X9420000Y-28374000D01*
X9420000Y-27866000D01*
X11960000Y-27866000D01*
X11960000Y-28374000D01*
G37*
X11960000Y-28374000D02*
X11706000Y-28120000D01*
X9674000Y-28120000D01*
X9420000Y-28374000D01*
X9420000Y-27866000D01*
X11960000Y-27866000D01*
X11960000Y-28374000D01*
X11960000Y-24945000D02*
X11452000Y-24437000D01*
X11960000Y-24945000D02*
X11960000Y-28374000D01*
X9420000Y-24945000D02*
X9928000Y-24437000D01*
X9420000Y-24945000D02*
X9420000Y-28374000D01*
X7368000Y-24437000D02*
X8892000Y-24437000D01*
G36*
X9400000Y-28374000D02*
G01*
X9146000Y-28120000D01*
X7114000Y-28120000D01*
X6860000Y-28374000D01*
X6860000Y-27866000D01*
X9400000Y-27866000D01*
X9400000Y-28374000D01*
G37*
X9400000Y-28374000D02*
X9146000Y-28120000D01*
X7114000Y-28120000D01*
X6860000Y-28374000D01*
X6860000Y-27866000D01*
X9400000Y-27866000D01*
X9400000Y-28374000D01*
X9400000Y-24945000D02*
X8892000Y-24437000D01*
X9400000Y-24945000D02*
X9400000Y-28374000D01*
X6860000Y-24945000D02*
X7368000Y-24437000D01*
X6860000Y-24945000D02*
X6860000Y-28374000D01*
X4838000Y-24437000D02*
X6362000Y-24437000D01*
G36*
X6870000Y-28374000D02*
G01*
X6616000Y-28120000D01*
X4584000Y-28120000D01*
X4330000Y-28374000D01*
X4330000Y-27866000D01*
X6870000Y-27866000D01*
X6870000Y-28374000D01*
G37*
X6870000Y-28374000D02*
X6616000Y-28120000D01*
X4584000Y-28120000D01*
X4330000Y-28374000D01*
X4330000Y-27866000D01*
X6870000Y-27866000D01*
X6870000Y-28374000D01*
X6870000Y-24945000D02*
X6362000Y-24437000D01*
X6870000Y-24945000D02*
X6870000Y-28374000D01*
X4330000Y-24945000D02*
X4838000Y-24437000D01*
X4330000Y-24945000D02*
X4330000Y-28374000D01*
X634000Y-39300000D02*
X18170000Y-39300000D01*
X18170000Y-44300000D02*
X634000Y-44300000D01*
X2880000Y-42300000D02*
X3130000Y-42800000D01*
X2880000Y-43800000D02*
X3130000Y-43300000D01*
D13*
X3380000Y-43050000D02*
X3130000Y-43050000D01*
X3130000Y-42800000D02*
X3130000Y-43300000D01*
D11*
X3630000Y-43050000D02*
X2880000Y-43800000D01*
X2880000Y-43800000D02*
X2880000Y-42300000D01*
X2880000Y-42300000D02*
X3630000Y-43050000D01*
D10*
X1134000Y-43300000D02*
X1134000Y-40300000D01*
D11*
X1134000Y-40300000D02*
X1134000Y-39300000D01*
X1134000Y-44300000D02*
X1134000Y-43300000D01*
X1134000Y-40300000D02*
X2134000Y-40300000D01*
X2134000Y-40300000D02*
X2134000Y-43300000D01*
X2134000Y-43300000D02*
X1134000Y-43300000D01*
X634000Y-39300000D02*
X634000Y-40300000D01*
X634000Y-40300000D02*
X1134000Y-40300000D01*
X634000Y-43300000D02*
X1134000Y-43300000D01*
X634000Y-44300000D02*
X634000Y-43300000D01*
X16670000Y-43300000D02*
X16670000Y-40300000D01*
X17670000Y-43300000D02*
X16670000Y-43300000D01*
X16670000Y-40300000D02*
X17670000Y-40300000D01*
X17670000Y-43300000D02*
X17670000Y-44300000D01*
D10*
X17670000Y-43300000D02*
X17670000Y-40300000D01*
D11*
X18170000Y-40300000D02*
X17670000Y-40300000D01*
X17670000Y-40300000D02*
X17670000Y-39300000D01*
X18170000Y-43300000D02*
X17670000Y-43300000D01*
X18170000Y-43300000D02*
X18170000Y-44300000D01*
X18170000Y-39300000D02*
X18170000Y-40300000D01*
D14*
G36*
X5299680Y2780870D02*
G01*
X5299680Y8180910D01*
X13499810Y8180910D01*
X13499810Y2780870D01*
X5299680Y2780870D01*
G37*
X5299680Y2780870D02*
X5299680Y8180910D01*
X13499810Y8180910D01*
X13499810Y2780870D01*
X5299680Y2780870D01*
D11*
X17020000Y-23341000D02*
X17020000Y6631000D01*
X4599400Y7723200D02*
X14200600Y7723200D01*
X15292800Y6631000D02*
X17020000Y6631000D01*
X1780000Y6631000D02*
X3507200Y6631000D01*
X1780000Y-23341000D02*
X1780000Y6631000D01*
X1780000Y-23341000D02*
X17020000Y-23341000D01*
X15292800Y6631000D02*
G75*
G02*
X14200600Y7723200I0J1092200D01*
G01*
X4599400Y7723200D02*
G75*
G02*
X3507200Y6631000I-1092200J0D01*
G01*
D15*
X11940000Y-33086000D02*
X12194000Y-33340000D01*
X12194000Y-33340000D02*
X14226000Y-33340000D01*
X14226000Y-33340000D02*
X14480000Y-33086000D01*
X14480000Y-31054000D02*
X14226000Y-30800000D01*
X14226000Y-30800000D02*
X12194000Y-30800000D01*
X12194000Y-30800000D02*
X11940000Y-31054000D01*
X9400000Y-33086000D02*
X9654000Y-33340000D01*
X9654000Y-33340000D02*
X11686000Y-33340000D01*
X11686000Y-33340000D02*
X11940000Y-33086000D01*
X11940000Y-31054000D02*
X11686000Y-30800000D01*
X11686000Y-30800000D02*
X9654000Y-30800000D01*
X9654000Y-30800000D02*
X9400000Y-31054000D01*
X11940000Y-31054000D02*
X11940000Y-33086000D01*
X9400000Y-33086000D02*
X9400000Y-31054000D01*
X9400000Y-31054000D02*
X9146000Y-30800000D01*
X9146000Y-33340000D02*
X9400000Y-33086000D01*
X4320000Y-33086000D02*
X4066000Y-33086000D01*
X4066000Y-33086000D02*
X4066000Y-31054000D01*
X4066000Y-31054000D02*
X4320000Y-31054000D01*
X6860000Y-33086000D02*
X7114000Y-33340000D01*
X7114000Y-33340000D02*
X9146000Y-33340000D01*
X9146000Y-30800000D02*
X7114000Y-30800000D01*
X7114000Y-30800000D02*
X6860000Y-31054000D01*
X6606000Y-30800000D02*
X6860000Y-31054000D01*
X6860000Y-31054000D02*
X6860000Y-33086000D01*
X4320000Y-31054000D02*
X4574000Y-30800000D01*
X4574000Y-30800000D02*
X6606000Y-30800000D01*
X4320000Y-33086000D02*
X4320000Y-31054000D01*
X4574000Y-33340000D02*
X6606000Y-33340000D01*
X6606000Y-33340000D02*
X6860000Y-33086000D01*
X4574000Y-33340000D02*
X4320000Y-33086000D01*
X14480000Y-33086000D02*
X14734000Y-33086000D01*
X14734000Y-33086000D02*
X14734000Y-31054000D01*
X14734000Y-31054000D02*
X14480000Y-31054000D01*
D16*
X4891500Y-32895500D02*
G75*
G03*
X4891500Y-32895500I-127000J0D01*
G01*
D15*
X14734000Y-28514000D02*
X14480000Y-28514000D01*
X12194000Y-28260000D02*
X11940000Y-28514000D01*
X11686000Y-30800000D02*
X11940000Y-30546000D01*
X4320000Y-28514000D02*
X4574000Y-28260000D01*
X14480000Y-28514000D02*
X14226000Y-28260000D01*
X6606000Y-30800000D02*
X6860000Y-30546000D01*
X14226000Y-30800000D02*
X14480000Y-30546000D01*
X11940000Y-28514000D02*
X11686000Y-28260000D01*
X7114000Y-28260000D02*
X6860000Y-28514000D01*
X4574000Y-30800000D02*
X4320000Y-30546000D01*
X11940000Y-28514000D02*
X11940000Y-30546000D01*
X9146000Y-28260000D02*
X7114000Y-28260000D01*
X14480000Y-30546000D02*
X14734000Y-30546000D01*
X9400000Y-28514000D02*
X9146000Y-28260000D01*
X9654000Y-28260000D02*
X9400000Y-28514000D01*
X4574000Y-28260000D02*
X6606000Y-28260000D01*
X14226000Y-28260000D02*
X12194000Y-28260000D01*
X6860000Y-28514000D02*
X6860000Y-30546000D01*
X4066000Y-30546000D02*
X4066000Y-28514000D01*
X6860000Y-30546000D02*
X7114000Y-30800000D01*
X4320000Y-30546000D02*
X4066000Y-30546000D01*
X6606000Y-28260000D02*
X6860000Y-28514000D01*
X9400000Y-30546000D02*
X9654000Y-30800000D01*
X4066000Y-28514000D02*
X4320000Y-28514000D01*
X14734000Y-30546000D02*
X14734000Y-28514000D01*
X11940000Y-30546000D02*
X12194000Y-30800000D01*
X11686000Y-28260000D02*
X9654000Y-28260000D01*
X9400000Y-30546000D02*
X9400000Y-28514000D01*
X9146000Y-30800000D02*
X9400000Y-30546000D01*
X4320000Y-30546000D02*
X4320000Y-28514000D01*
D17*
X13543809Y-36505161D02*
X13581904Y-36390876D01*
X13581904Y-36200400D01*
X13543809Y-36124209D01*
X13505714Y-36086114D01*
X13429523Y-36048019D01*
X13353333Y-36048019D01*
X13277142Y-36086114D01*
X13239047Y-36124209D01*
X13200952Y-36200400D01*
X13162857Y-36352780D01*
X13124761Y-36428971D01*
X13086666Y-36467066D01*
X13010476Y-36505161D01*
X12934285Y-36505161D01*
X12858095Y-36467066D01*
X12820000Y-36428971D01*
X12781904Y-36352780D01*
X12781904Y-36162304D01*
X12820000Y-36048019D01*
X12781904Y-35781352D02*
X13581904Y-35590876D01*
X13010476Y-35438495D01*
X13581904Y-35286114D01*
X12781904Y-35095638D01*
X12781904Y-34638495D02*
X12781904Y-34486114D01*
X12820000Y-34409923D01*
X12896190Y-34333733D01*
X13048571Y-34295638D01*
X13315238Y-34295638D01*
X13467619Y-34333733D01*
X13543809Y-34409923D01*
X13581904Y-34486114D01*
X13581904Y-34638495D01*
X13543809Y-34714685D01*
X13467619Y-34790876D01*
X13315238Y-34828971D01*
X13048571Y-34828971D01*
X12896190Y-34790876D01*
X12820000Y-34714685D01*
X12781904Y-34638495D01*
X11041904Y-36219447D02*
X10241904Y-36219447D01*
X10241904Y-36028971D01*
X10280000Y-35914685D01*
X10356190Y-35838495D01*
X10432380Y-35800400D01*
X10584761Y-35762304D01*
X10699047Y-35762304D01*
X10851428Y-35800400D01*
X10927619Y-35838495D01*
X11003809Y-35914685D01*
X11041904Y-36028971D01*
X11041904Y-36219447D01*
X11041904Y-35419447D02*
X10241904Y-35419447D01*
X10241904Y-34886114D02*
X10241904Y-34733733D01*
X10280000Y-34657542D01*
X10356190Y-34581352D01*
X10508571Y-34543257D01*
X10775238Y-34543257D01*
X10927619Y-34581352D01*
X11003809Y-34657542D01*
X11041904Y-34733733D01*
X11041904Y-34886114D01*
X11003809Y-34962304D01*
X10927619Y-35038495D01*
X10775238Y-35076590D01*
X10508571Y-35076590D01*
X10356190Y-35038495D01*
X10280000Y-34962304D01*
X10241904Y-34886114D01*
X8415714Y-35876590D02*
X8453809Y-35914685D01*
X8491904Y-36028971D01*
X8491904Y-36105161D01*
X8453809Y-36219447D01*
X8377619Y-36295638D01*
X8301428Y-36333733D01*
X8149047Y-36371828D01*
X8034761Y-36371828D01*
X7882380Y-36333733D01*
X7806190Y-36295638D01*
X7730000Y-36219447D01*
X7691904Y-36105161D01*
X7691904Y-36028971D01*
X7730000Y-35914685D01*
X7768095Y-35876590D01*
X8491904Y-35152780D02*
X8491904Y-35533733D01*
X7691904Y-35533733D01*
X8491904Y-34886114D02*
X7691904Y-34886114D01*
X8491904Y-34428971D02*
X8034761Y-34771828D01*
X7691904Y-34428971D02*
X8149047Y-34886114D01*
X5961904Y-35838495D02*
X5580952Y-36105161D01*
X5961904Y-36295638D02*
X5161904Y-36295638D01*
X5161904Y-35990876D01*
X5200000Y-35914685D01*
X5238095Y-35876590D01*
X5314285Y-35838495D01*
X5428571Y-35838495D01*
X5504761Y-35876590D01*
X5542857Y-35914685D01*
X5580952Y-35990876D01*
X5580952Y-36295638D01*
X5923809Y-35533733D02*
X5961904Y-35419447D01*
X5961904Y-35228971D01*
X5923809Y-35152780D01*
X5885714Y-35114685D01*
X5809523Y-35076590D01*
X5733333Y-35076590D01*
X5657142Y-35114685D01*
X5619047Y-35152780D01*
X5580952Y-35228971D01*
X5542857Y-35381352D01*
X5504761Y-35457542D01*
X5466666Y-35495638D01*
X5390476Y-35533733D01*
X5314285Y-35533733D01*
X5238095Y-35495638D01*
X5200000Y-35457542D01*
X5161904Y-35381352D01*
X5161904Y-35190876D01*
X5200000Y-35076590D01*
X5161904Y-34848019D02*
X5161904Y-34390876D01*
X5961904Y-34619447D02*
X5161904Y-34619447D01*
X12840000Y-26809123D02*
X12801904Y-26885314D01*
X12801904Y-26999600D01*
X12840000Y-27113885D01*
X12916190Y-27190076D01*
X12992380Y-27228171D01*
X13144761Y-27266266D01*
X13259047Y-27266266D01*
X13411428Y-27228171D01*
X13487619Y-27190076D01*
X13563809Y-27113885D01*
X13601904Y-26999600D01*
X13601904Y-26923409D01*
X13563809Y-26809123D01*
X13525714Y-26771028D01*
X13259047Y-26771028D01*
X13259047Y-26923409D01*
X13601904Y-26428171D02*
X12801904Y-26428171D01*
X13601904Y-25971028D01*
X12801904Y-25971028D01*
X13601904Y-25590076D02*
X12801904Y-25590076D01*
X12801904Y-25399600D01*
X12840000Y-25285314D01*
X12916190Y-25209123D01*
X12992380Y-25171028D01*
X13144761Y-25132933D01*
X13259047Y-25132933D01*
X13411428Y-25171028D01*
X13487619Y-25209123D01*
X13563809Y-25285314D01*
X13601904Y-25399600D01*
X13601904Y-25590076D01*
X11051904Y-26322933D02*
X10670952Y-26589600D01*
X11051904Y-26780076D02*
X10251904Y-26780076D01*
X10251904Y-26475314D01*
X10290000Y-26399123D01*
X10328095Y-26361028D01*
X10404285Y-26322933D01*
X10518571Y-26322933D01*
X10594761Y-26361028D01*
X10632857Y-26399123D01*
X10670952Y-26475314D01*
X10670952Y-26780076D01*
X10251904Y-26056266D02*
X11051904Y-25522933D01*
X10251904Y-25522933D02*
X11051904Y-26056266D01*
X7691904Y-26799123D02*
X7691904Y-26341980D01*
X8491904Y-26570552D02*
X7691904Y-26570552D01*
X7691904Y-26151504D02*
X8491904Y-25618171D01*
X7691904Y-25618171D02*
X8491904Y-26151504D01*
X5161904Y-27256266D02*
X5961904Y-26989600D01*
X5161904Y-26722933D01*
X5885714Y-25999123D02*
X5923809Y-26037219D01*
X5961904Y-26151504D01*
X5961904Y-26227695D01*
X5923809Y-26341980D01*
X5847619Y-26418171D01*
X5771428Y-26456266D01*
X5619047Y-26494361D01*
X5504761Y-26494361D01*
X5352380Y-26456266D01*
X5276190Y-26418171D01*
X5200000Y-26341980D01*
X5161904Y-26227695D01*
X5161904Y-26151504D01*
X5200000Y-26037219D01*
X5238095Y-25999123D01*
X5885714Y-25199123D02*
X5923809Y-25237219D01*
X5961904Y-25351504D01*
X5961904Y-25427695D01*
X5923809Y-25541980D01*
X5847619Y-25618171D01*
X5771428Y-25656266D01*
X5619047Y-25694361D01*
X5504761Y-25694361D01*
X5352380Y-25656266D01*
X5276190Y-25618171D01*
X5200000Y-25541980D01*
X5161904Y-25427695D01*
X5161904Y-25351504D01*
X5200000Y-25237219D01*
X5238095Y-25199123D01*
%LPC*%
D18*
X15080000Y-43070000D03*
D19*
X13845000Y-40530000D03*
X12575000Y-43070000D03*
D20*
X3720000Y-40530000D03*
D19*
X8765000Y-40530000D03*
X7495000Y-43070000D03*
X4955000Y-43070000D03*
X6225000Y-40530000D03*
X10035000Y-43070000D03*
X11305000Y-40530000D03*
D21*
X1698970Y-3275000D03*
X1698970Y-14705000D03*
X1698970Y-15975000D03*
X1698970Y-17245000D03*
X1698970Y-18515000D03*
X1698970Y-19785000D03*
X1698970Y-21055000D03*
X1698970Y-22325000D03*
X17101030Y-22325000D03*
X17101030Y-21055000D03*
X17101030Y-19785000D03*
X1698970Y-4545000D03*
X17101030Y-18515000D03*
X17101030Y-17245000D03*
X17101030Y-15975000D03*
X17101030Y-14705000D03*
X17101030Y-13435000D03*
X17101030Y-12165000D03*
X17101030Y-10895000D03*
X17101030Y-9625000D03*
X17101030Y-8355000D03*
X17101030Y-7085000D03*
X1698970Y-5815000D03*
X17101030Y-5815000D03*
X17101030Y-4545000D03*
X17101030Y-3275000D03*
X1698970Y-7085000D03*
X1698970Y-8355000D03*
X1698970Y-9625000D03*
X1698970Y-10895000D03*
X1698970Y-12165000D03*
X1698970Y-13435000D03*
D22*
X13210000Y-29530000D03*
X8130000Y-29530000D03*
X5590000Y-29530000D03*
X10670000Y-29530000D03*
X5590000Y-32070000D03*
X8130000Y-32070000D03*
X10670000Y-32070000D03*
X13210000Y-32070000D03*
M02*
