G04 #@! TF.GenerationSoftware,KiCad,Pcbnew,(5.1.9)-1*
G04 #@! TF.CreationDate,2023-01-31T22:09:02+01:00*
G04 #@! TF.ProjectId,Stlink,53746c69-6e6b-42e6-9b69-6361645f7063,rev?*
G04 #@! TF.SameCoordinates,PXd59f80PY14fb180*
G04 #@! TF.FileFunction,Copper,L1,Top*
G04 #@! TF.FilePolarity,Positive*
%FSLAX46Y46*%
G04 Gerber Fmt 4.6, Leading zero omitted, Abs format (unit mm)*
G04 Created by KiCad (PCBNEW (5.1.9)-1) date 2023-01-31 22:09:02*
%MOMM*%
%LPD*%
G01*
G04 APERTURE LIST*
G04 #@! TA.AperFunction,ComponentPad*
%ADD10C,2.000000*%
G04 #@! TD*
G04 #@! TA.AperFunction,SMDPad,CuDef*
%ADD11R,2.200000X0.900000*%
G04 #@! TD*
G04 #@! TA.AperFunction,ComponentPad*
%ADD12C,1.600000*%
G04 #@! TD*
G04 #@! TA.AperFunction,ViaPad*
%ADD13C,0.800000*%
G04 #@! TD*
G04 #@! TA.AperFunction,Conductor*
%ADD14C,0.400000*%
G04 #@! TD*
G04 #@! TA.AperFunction,Conductor*
%ADD15C,0.150000*%
G04 #@! TD*
G04 #@! TA.AperFunction,Conductor*
%ADD16C,0.100000*%
G04 #@! TD*
G04 APERTURE END LIST*
D10*
X13845000Y-40530000D03*
X12575000Y-43070000D03*
X8765000Y-40530000D03*
X7495000Y-43070000D03*
X4955000Y-43070000D03*
X6225000Y-40530000D03*
X10035000Y-43070000D03*
X11305000Y-40530000D03*
D11*
X1698970Y-3275000D03*
X1698970Y-14705000D03*
X1698970Y-15975000D03*
X1698970Y-17245000D03*
X1698970Y-18515000D03*
X1698970Y-19785000D03*
X1698970Y-21055000D03*
X1698970Y-22325000D03*
X17101030Y-22325000D03*
X17101030Y-21055000D03*
X17101030Y-19785000D03*
X1698970Y-4545000D03*
X17101030Y-18515000D03*
X17101030Y-17245000D03*
X17101030Y-15975000D03*
X17101030Y-14705000D03*
X17101030Y-13435000D03*
X17101030Y-12165000D03*
X17101030Y-10895000D03*
X17101030Y-9625000D03*
X17101030Y-8355000D03*
X17101030Y-7085000D03*
X1698970Y-5815000D03*
X17101030Y-5815000D03*
X17101030Y-4545000D03*
X17101030Y-3275000D03*
X1698970Y-7085000D03*
X1698970Y-8355000D03*
X1698970Y-9625000D03*
X1698970Y-10895000D03*
X1698970Y-12165000D03*
X1698970Y-13435000D03*
D12*
X13210000Y-29530000D03*
X8130000Y-29530000D03*
X5590000Y-29530000D03*
X10670000Y-29530000D03*
X5590000Y-32070000D03*
X8130000Y-32070000D03*
X10670000Y-32070000D03*
X13210000Y-32070000D03*
D13*
X7150000Y-23900000D03*
X2200000Y-34400000D03*
X5400000Y-34400000D03*
X9400000Y-3300000D03*
X3700000Y-19800000D03*
X9100000Y-22400000D03*
X3200000Y-12150000D03*
X3200000Y-8350000D03*
X15600000Y-13450000D03*
X15600000Y-10900000D03*
X15600000Y-9600000D03*
X15000000Y-32600000D03*
X15000000Y-35200000D03*
X5400000Y-38200000D03*
X6200000Y-22400000D03*
X6200000Y-19800000D03*
X4199997Y-22400000D03*
X4200000Y-4600000D03*
X5200000Y-22400000D03*
X5200000Y-5800000D03*
X6850000Y-33550000D03*
X9400000Y-18300000D03*
X9400000Y-8600000D03*
X11900000Y-35100000D03*
D14*
X17096030Y-10900000D02*
X17101030Y-10895000D01*
X15600000Y-10900000D02*
X17096030Y-10900000D01*
X17076030Y-9600000D02*
X17101030Y-9625000D01*
X15600000Y-9600000D02*
X17076030Y-9600000D01*
X17086030Y-13450000D02*
X17101030Y-13435000D01*
X15600000Y-13450000D02*
X17086030Y-13450000D01*
X1703970Y-8350000D02*
X1698970Y-8355000D01*
X3200000Y-8350000D02*
X1703970Y-8350000D01*
X1713970Y-12150000D02*
X1698970Y-12165000D01*
X3200000Y-12150000D02*
X1713970Y-12150000D01*
X15000000Y-31320000D02*
X15000000Y-32600000D01*
X13210000Y-29530000D02*
X13740000Y-30060000D01*
X15000000Y-39375000D02*
X13845000Y-40530000D01*
X15000000Y-35200000D02*
X15000000Y-39375000D01*
X13740000Y-30060000D02*
X15000000Y-31320000D01*
X1698970Y-9625000D02*
X10625000Y-9625000D01*
X10625000Y-9625000D02*
X11950000Y-10950000D01*
X11950000Y-30810000D02*
X13210000Y-32070000D01*
X11950000Y-10950000D02*
X11950000Y-30810000D01*
X14025001Y-44520001D02*
X12575000Y-43070000D01*
X15776001Y-44520001D02*
X14025001Y-44520001D01*
X16530001Y-43766001D02*
X15776001Y-44520001D01*
X16530001Y-35390001D02*
X16530001Y-43766001D01*
X13210000Y-32070000D02*
X16530001Y-35390001D01*
X6850000Y-30790000D02*
X8130000Y-32070000D01*
X6850000Y-28450000D02*
X6190010Y-27790010D01*
X6850000Y-30790000D02*
X6850000Y-28450000D01*
X6190010Y-22409990D02*
X6200000Y-22400000D01*
X6190010Y-27790010D02*
X6190010Y-22409990D01*
X1698970Y-18515000D02*
X5715000Y-18515000D01*
X6200000Y-19000000D02*
X6200000Y-19800000D01*
X5715000Y-18515000D02*
X6200000Y-19000000D01*
X4199997Y-22400000D02*
X4199997Y-29915999D01*
X4255000Y-4545000D02*
X4200000Y-4600000D01*
X17101030Y-4545000D02*
X4255000Y-4545000D01*
X3817998Y-43070000D02*
X4955000Y-43070000D01*
X2069999Y-41322001D02*
X3817998Y-43070000D01*
X2069999Y-39530001D02*
X2069999Y-41322001D01*
X4199997Y-37400003D02*
X2069999Y-39530001D01*
X4229994Y-32070000D02*
X4199997Y-32099997D01*
X5590000Y-32070000D02*
X4229994Y-32070000D01*
X4199997Y-32099997D02*
X4199997Y-37400003D01*
X4199997Y-29915999D02*
X4199997Y-32099997D01*
X5200000Y-22584002D02*
X5200000Y-22400000D01*
X5590000Y-22974002D02*
X5200000Y-22584002D01*
X5590000Y-29530000D02*
X5590000Y-22974002D01*
X17086030Y-5800000D02*
X17101030Y-5815000D01*
X5200000Y-5800000D02*
X17086030Y-5800000D01*
X6850000Y-39905000D02*
X6225000Y-40530000D01*
X6850000Y-33550000D02*
X6850000Y-39905000D01*
X9400000Y-8600000D02*
X9400000Y-7800000D01*
X8685000Y-7085000D02*
X1698970Y-7085000D01*
X9400000Y-7800000D02*
X8685000Y-7085000D01*
X10670000Y-32070000D02*
X9400000Y-30800000D01*
X9400000Y-29000000D02*
X10069990Y-28330010D01*
X9400000Y-30800000D02*
X9400000Y-29000000D01*
X10069990Y-18969990D02*
X9400000Y-18300000D01*
X10069990Y-28330010D02*
X10069990Y-18969990D01*
X7255000Y-21055000D02*
X1698970Y-21055000D01*
X8130000Y-21930000D02*
X7255000Y-21055000D01*
X8130000Y-29530000D02*
X8130000Y-21930000D01*
X1698970Y-17245000D02*
X9845000Y-17245000D01*
X9845000Y-17245000D02*
X10670000Y-18070000D01*
X10670000Y-18070000D02*
X10670000Y-29530000D01*
X11900000Y-39935000D02*
X11305000Y-40530000D01*
X11900000Y-35100000D02*
X11900000Y-39935000D01*
D15*
X15652899Y-6409200D02*
X15674707Y-6450000D01*
X15652899Y-6490800D01*
X15631456Y-6561487D01*
X15624216Y-6635000D01*
X15624216Y-7535000D01*
X15631456Y-7608513D01*
X15652899Y-7679200D01*
X15674707Y-7720000D01*
X15652899Y-7760800D01*
X15631456Y-7831487D01*
X15624216Y-7905000D01*
X15624216Y-8805000D01*
X15631456Y-8878513D01*
X15652899Y-8949200D01*
X15674707Y-8990000D01*
X15652899Y-9030800D01*
X15631456Y-9101487D01*
X15624216Y-9175000D01*
X15626030Y-9506250D01*
X15719780Y-9600000D01*
X17076030Y-9600000D01*
X17076030Y-9580000D01*
X17126030Y-9580000D01*
X17126030Y-9600000D01*
X17146030Y-9600000D01*
X17146030Y-9650000D01*
X17126030Y-9650000D01*
X17126030Y-10870000D01*
X17146030Y-10870000D01*
X17146030Y-10920000D01*
X17126030Y-10920000D01*
X17126030Y-10940000D01*
X17076030Y-10940000D01*
X17076030Y-10920000D01*
X15719780Y-10920000D01*
X15626030Y-11013750D01*
X15624216Y-11345000D01*
X15631456Y-11418513D01*
X15652899Y-11489200D01*
X15674707Y-11530000D01*
X15652899Y-11570800D01*
X15631456Y-11641487D01*
X15624216Y-11715000D01*
X15624216Y-12615000D01*
X15631456Y-12688513D01*
X15652899Y-12759200D01*
X15674707Y-12800000D01*
X15652899Y-12840800D01*
X15631456Y-12911487D01*
X15624216Y-12985000D01*
X15626030Y-13316250D01*
X15719780Y-13410000D01*
X17076030Y-13410000D01*
X17076030Y-13390000D01*
X17126030Y-13390000D01*
X17126030Y-13410000D01*
X17146030Y-13410000D01*
X17146030Y-13460000D01*
X17126030Y-13460000D01*
X17126030Y-13480000D01*
X17076030Y-13480000D01*
X17076030Y-13460000D01*
X15719780Y-13460000D01*
X15626030Y-13553750D01*
X15624216Y-13885000D01*
X15631456Y-13958513D01*
X15652899Y-14029200D01*
X15674707Y-14070000D01*
X15652899Y-14110800D01*
X15631456Y-14181487D01*
X15624216Y-14255000D01*
X15624216Y-15155000D01*
X15631456Y-15228513D01*
X15652899Y-15299200D01*
X15674707Y-15340000D01*
X15652899Y-15380800D01*
X15631456Y-15451487D01*
X15624216Y-15525000D01*
X15624216Y-16425000D01*
X15631456Y-16498513D01*
X15652899Y-16569200D01*
X15674707Y-16610000D01*
X15652899Y-16650800D01*
X15631456Y-16721487D01*
X15624216Y-16795000D01*
X15624216Y-17695000D01*
X15631456Y-17768513D01*
X15652899Y-17839200D01*
X15674707Y-17880000D01*
X15652899Y-17920800D01*
X15631456Y-17991487D01*
X15624216Y-18065000D01*
X15624216Y-18965000D01*
X15631456Y-19038513D01*
X15652899Y-19109200D01*
X15674707Y-19150000D01*
X15652899Y-19190800D01*
X15631456Y-19261487D01*
X15624216Y-19335000D01*
X15624216Y-20235000D01*
X15631456Y-20308513D01*
X15652899Y-20379200D01*
X15674707Y-20420000D01*
X15652899Y-20460800D01*
X15631456Y-20531487D01*
X15624216Y-20605000D01*
X15624216Y-21505000D01*
X15631456Y-21578513D01*
X15652899Y-21649200D01*
X15674707Y-21690000D01*
X15652899Y-21730800D01*
X15631456Y-21801487D01*
X15624216Y-21875000D01*
X15624216Y-22775000D01*
X15631456Y-22848513D01*
X15652899Y-22919200D01*
X15687721Y-22984347D01*
X15734582Y-23041448D01*
X15791683Y-23088309D01*
X15856830Y-23123131D01*
X15927517Y-23144574D01*
X16001030Y-23151814D01*
X18201030Y-23151814D01*
X18274543Y-23144574D01*
X18345230Y-23123131D01*
X18350000Y-23120581D01*
X18350000Y-43977995D01*
X18337409Y-44106407D01*
X18306504Y-44208768D01*
X18256308Y-44303173D01*
X18188733Y-44386028D01*
X18106350Y-44454182D01*
X18012298Y-44505036D01*
X17910162Y-44536652D01*
X17783166Y-44550000D01*
X16559174Y-44550000D01*
X16916613Y-44192562D01*
X16938555Y-44174555D01*
X16980440Y-44123517D01*
X17010409Y-44087000D01*
X17063802Y-43987109D01*
X17066448Y-43978385D01*
X17096681Y-43878721D01*
X17105001Y-43794247D01*
X17105001Y-43794245D01*
X17107783Y-43766002D01*
X17105001Y-43737759D01*
X17105001Y-35418243D01*
X17107783Y-35390000D01*
X17101485Y-35326059D01*
X17096681Y-35277281D01*
X17063802Y-35168893D01*
X17011880Y-35071755D01*
X17010409Y-35069002D01*
X16956560Y-35003387D01*
X16938555Y-34981447D01*
X16916614Y-34963441D01*
X14344169Y-32390997D01*
X14385000Y-32185727D01*
X14385000Y-31954273D01*
X14339845Y-31727265D01*
X14251271Y-31513429D01*
X14122682Y-31320981D01*
X13959019Y-31157318D01*
X13766571Y-31028729D01*
X13552735Y-30940155D01*
X13325727Y-30895000D01*
X13094273Y-30895000D01*
X12889003Y-30935831D01*
X12525000Y-30571828D01*
X12525000Y-30472540D01*
X12536392Y-30499675D01*
X12738510Y-30612457D01*
X12958746Y-30683641D01*
X13188638Y-30710491D01*
X13419350Y-30691976D01*
X13642017Y-30628806D01*
X13848083Y-30523411D01*
X13883608Y-30499675D01*
X13960698Y-30316053D01*
X13210000Y-29565355D01*
X13195858Y-29579498D01*
X13160503Y-29544143D01*
X13174645Y-29530000D01*
X13245355Y-29530000D01*
X13996053Y-30280698D01*
X14179675Y-30203608D01*
X14292457Y-30001490D01*
X14363641Y-29781254D01*
X14390491Y-29551362D01*
X14371976Y-29320650D01*
X14308806Y-29097983D01*
X14203411Y-28891917D01*
X14179675Y-28856392D01*
X13996053Y-28779302D01*
X13245355Y-29530000D01*
X13174645Y-29530000D01*
X13160503Y-29515858D01*
X13195858Y-29480503D01*
X13210000Y-29494645D01*
X13960698Y-28743947D01*
X13883608Y-28560325D01*
X13681490Y-28447543D01*
X13461254Y-28376359D01*
X13231362Y-28349509D01*
X13000650Y-28368024D01*
X12777983Y-28431194D01*
X12571917Y-28536589D01*
X12536392Y-28560325D01*
X12525000Y-28587460D01*
X12525000Y-10978243D01*
X12527782Y-10950000D01*
X12524827Y-10920000D01*
X12516680Y-10837280D01*
X12483801Y-10728892D01*
X12430409Y-10629003D01*
X12430408Y-10629001D01*
X12376559Y-10563386D01*
X12358554Y-10541446D01*
X12336613Y-10523440D01*
X11888173Y-10075000D01*
X15624216Y-10075000D01*
X15631456Y-10148513D01*
X15652899Y-10219200D01*
X15674707Y-10260000D01*
X15652899Y-10300800D01*
X15631456Y-10371487D01*
X15624216Y-10445000D01*
X15626030Y-10776250D01*
X15719780Y-10870000D01*
X17076030Y-10870000D01*
X17076030Y-9650000D01*
X15719780Y-9650000D01*
X15626030Y-9743750D01*
X15624216Y-10075000D01*
X11888173Y-10075000D01*
X11051565Y-9238393D01*
X11033554Y-9216446D01*
X10945998Y-9144592D01*
X10846108Y-9091199D01*
X10737720Y-9058320D01*
X10653246Y-9050000D01*
X10653243Y-9050000D01*
X10625000Y-9047218D01*
X10596757Y-9050000D01*
X10031404Y-9050000D01*
X10086796Y-8967100D01*
X10145217Y-8826059D01*
X10175000Y-8676331D01*
X10175000Y-8523669D01*
X10145217Y-8373941D01*
X10086796Y-8232900D01*
X10001982Y-8105966D01*
X9975000Y-8078984D01*
X9975000Y-7828243D01*
X9977782Y-7800000D01*
X9973921Y-7760800D01*
X9966680Y-7687280D01*
X9933801Y-7578892D01*
X9880408Y-7479002D01*
X9808554Y-7391446D01*
X9786612Y-7373439D01*
X9111565Y-6698393D01*
X9093554Y-6676446D01*
X9005998Y-6604592D01*
X8906108Y-6551199D01*
X8797720Y-6518320D01*
X8713246Y-6510000D01*
X8713243Y-6510000D01*
X8685000Y-6507218D01*
X8656757Y-6510000D01*
X5511080Y-6510000D01*
X5567100Y-6486796D01*
X5694034Y-6401982D01*
X5721016Y-6375000D01*
X15642524Y-6375000D01*
X15652899Y-6409200D01*
G04 #@! TA.AperFunction,Conductor*
D16*
G36*
X15652899Y-6409200D02*
G01*
X15674707Y-6450000D01*
X15652899Y-6490800D01*
X15631456Y-6561487D01*
X15624216Y-6635000D01*
X15624216Y-7535000D01*
X15631456Y-7608513D01*
X15652899Y-7679200D01*
X15674707Y-7720000D01*
X15652899Y-7760800D01*
X15631456Y-7831487D01*
X15624216Y-7905000D01*
X15624216Y-8805000D01*
X15631456Y-8878513D01*
X15652899Y-8949200D01*
X15674707Y-8990000D01*
X15652899Y-9030800D01*
X15631456Y-9101487D01*
X15624216Y-9175000D01*
X15626030Y-9506250D01*
X15719780Y-9600000D01*
X17076030Y-9600000D01*
X17076030Y-9580000D01*
X17126030Y-9580000D01*
X17126030Y-9600000D01*
X17146030Y-9600000D01*
X17146030Y-9650000D01*
X17126030Y-9650000D01*
X17126030Y-10870000D01*
X17146030Y-10870000D01*
X17146030Y-10920000D01*
X17126030Y-10920000D01*
X17126030Y-10940000D01*
X17076030Y-10940000D01*
X17076030Y-10920000D01*
X15719780Y-10920000D01*
X15626030Y-11013750D01*
X15624216Y-11345000D01*
X15631456Y-11418513D01*
X15652899Y-11489200D01*
X15674707Y-11530000D01*
X15652899Y-11570800D01*
X15631456Y-11641487D01*
X15624216Y-11715000D01*
X15624216Y-12615000D01*
X15631456Y-12688513D01*
X15652899Y-12759200D01*
X15674707Y-12800000D01*
X15652899Y-12840800D01*
X15631456Y-12911487D01*
X15624216Y-12985000D01*
X15626030Y-13316250D01*
X15719780Y-13410000D01*
X17076030Y-13410000D01*
X17076030Y-13390000D01*
X17126030Y-13390000D01*
X17126030Y-13410000D01*
X17146030Y-13410000D01*
X17146030Y-13460000D01*
X17126030Y-13460000D01*
X17126030Y-13480000D01*
X17076030Y-13480000D01*
X17076030Y-13460000D01*
X15719780Y-13460000D01*
X15626030Y-13553750D01*
X15624216Y-13885000D01*
X15631456Y-13958513D01*
X15652899Y-14029200D01*
X15674707Y-14070000D01*
X15652899Y-14110800D01*
X15631456Y-14181487D01*
X15624216Y-14255000D01*
X15624216Y-15155000D01*
X15631456Y-15228513D01*
X15652899Y-15299200D01*
X15674707Y-15340000D01*
X15652899Y-15380800D01*
X15631456Y-15451487D01*
X15624216Y-15525000D01*
X15624216Y-16425000D01*
X15631456Y-16498513D01*
X15652899Y-16569200D01*
X15674707Y-16610000D01*
X15652899Y-16650800D01*
X15631456Y-16721487D01*
X15624216Y-16795000D01*
X15624216Y-17695000D01*
X15631456Y-17768513D01*
X15652899Y-17839200D01*
X15674707Y-17880000D01*
X15652899Y-17920800D01*
X15631456Y-17991487D01*
X15624216Y-18065000D01*
X15624216Y-18965000D01*
X15631456Y-19038513D01*
X15652899Y-19109200D01*
X15674707Y-19150000D01*
X15652899Y-19190800D01*
X15631456Y-19261487D01*
X15624216Y-19335000D01*
X15624216Y-20235000D01*
X15631456Y-20308513D01*
X15652899Y-20379200D01*
X15674707Y-20420000D01*
X15652899Y-20460800D01*
X15631456Y-20531487D01*
X15624216Y-20605000D01*
X15624216Y-21505000D01*
X15631456Y-21578513D01*
X15652899Y-21649200D01*
X15674707Y-21690000D01*
X15652899Y-21730800D01*
X15631456Y-21801487D01*
X15624216Y-21875000D01*
X15624216Y-22775000D01*
X15631456Y-22848513D01*
X15652899Y-22919200D01*
X15687721Y-22984347D01*
X15734582Y-23041448D01*
X15791683Y-23088309D01*
X15856830Y-23123131D01*
X15927517Y-23144574D01*
X16001030Y-23151814D01*
X18201030Y-23151814D01*
X18274543Y-23144574D01*
X18345230Y-23123131D01*
X18350000Y-23120581D01*
X18350000Y-43977995D01*
X18337409Y-44106407D01*
X18306504Y-44208768D01*
X18256308Y-44303173D01*
X18188733Y-44386028D01*
X18106350Y-44454182D01*
X18012298Y-44505036D01*
X17910162Y-44536652D01*
X17783166Y-44550000D01*
X16559174Y-44550000D01*
X16916613Y-44192562D01*
X16938555Y-44174555D01*
X16980440Y-44123517D01*
X17010409Y-44087000D01*
X17063802Y-43987109D01*
X17066448Y-43978385D01*
X17096681Y-43878721D01*
X17105001Y-43794247D01*
X17105001Y-43794245D01*
X17107783Y-43766002D01*
X17105001Y-43737759D01*
X17105001Y-35418243D01*
X17107783Y-35390000D01*
X17101485Y-35326059D01*
X17096681Y-35277281D01*
X17063802Y-35168893D01*
X17011880Y-35071755D01*
X17010409Y-35069002D01*
X16956560Y-35003387D01*
X16938555Y-34981447D01*
X16916614Y-34963441D01*
X14344169Y-32390997D01*
X14385000Y-32185727D01*
X14385000Y-31954273D01*
X14339845Y-31727265D01*
X14251271Y-31513429D01*
X14122682Y-31320981D01*
X13959019Y-31157318D01*
X13766571Y-31028729D01*
X13552735Y-30940155D01*
X13325727Y-30895000D01*
X13094273Y-30895000D01*
X12889003Y-30935831D01*
X12525000Y-30571828D01*
X12525000Y-30472540D01*
X12536392Y-30499675D01*
X12738510Y-30612457D01*
X12958746Y-30683641D01*
X13188638Y-30710491D01*
X13419350Y-30691976D01*
X13642017Y-30628806D01*
X13848083Y-30523411D01*
X13883608Y-30499675D01*
X13960698Y-30316053D01*
X13210000Y-29565355D01*
X13195858Y-29579498D01*
X13160503Y-29544143D01*
X13174645Y-29530000D01*
X13245355Y-29530000D01*
X13996053Y-30280698D01*
X14179675Y-30203608D01*
X14292457Y-30001490D01*
X14363641Y-29781254D01*
X14390491Y-29551362D01*
X14371976Y-29320650D01*
X14308806Y-29097983D01*
X14203411Y-28891917D01*
X14179675Y-28856392D01*
X13996053Y-28779302D01*
X13245355Y-29530000D01*
X13174645Y-29530000D01*
X13160503Y-29515858D01*
X13195858Y-29480503D01*
X13210000Y-29494645D01*
X13960698Y-28743947D01*
X13883608Y-28560325D01*
X13681490Y-28447543D01*
X13461254Y-28376359D01*
X13231362Y-28349509D01*
X13000650Y-28368024D01*
X12777983Y-28431194D01*
X12571917Y-28536589D01*
X12536392Y-28560325D01*
X12525000Y-28587460D01*
X12525000Y-10978243D01*
X12527782Y-10950000D01*
X12524827Y-10920000D01*
X12516680Y-10837280D01*
X12483801Y-10728892D01*
X12430409Y-10629003D01*
X12430408Y-10629001D01*
X12376559Y-10563386D01*
X12358554Y-10541446D01*
X12336613Y-10523440D01*
X11888173Y-10075000D01*
X15624216Y-10075000D01*
X15631456Y-10148513D01*
X15652899Y-10219200D01*
X15674707Y-10260000D01*
X15652899Y-10300800D01*
X15631456Y-10371487D01*
X15624216Y-10445000D01*
X15626030Y-10776250D01*
X15719780Y-10870000D01*
X17076030Y-10870000D01*
X17076030Y-9650000D01*
X15719780Y-9650000D01*
X15626030Y-9743750D01*
X15624216Y-10075000D01*
X11888173Y-10075000D01*
X11051565Y-9238393D01*
X11033554Y-9216446D01*
X10945998Y-9144592D01*
X10846108Y-9091199D01*
X10737720Y-9058320D01*
X10653246Y-9050000D01*
X10653243Y-9050000D01*
X10625000Y-9047218D01*
X10596757Y-9050000D01*
X10031404Y-9050000D01*
X10086796Y-8967100D01*
X10145217Y-8826059D01*
X10175000Y-8676331D01*
X10175000Y-8523669D01*
X10145217Y-8373941D01*
X10086796Y-8232900D01*
X10001982Y-8105966D01*
X9975000Y-8078984D01*
X9975000Y-7828243D01*
X9977782Y-7800000D01*
X9973921Y-7760800D01*
X9966680Y-7687280D01*
X9933801Y-7578892D01*
X9880408Y-7479002D01*
X9808554Y-7391446D01*
X9786612Y-7373439D01*
X9111565Y-6698393D01*
X9093554Y-6676446D01*
X9005998Y-6604592D01*
X8906108Y-6551199D01*
X8797720Y-6518320D01*
X8713246Y-6510000D01*
X8713243Y-6510000D01*
X8685000Y-6507218D01*
X8656757Y-6510000D01*
X5511080Y-6510000D01*
X5567100Y-6486796D01*
X5694034Y-6401982D01*
X5721016Y-6375000D01*
X15642524Y-6375000D01*
X15652899Y-6409200D01*
G37*
G04 #@! TD.AperFunction*
D15*
X3973938Y-21654783D02*
X3832897Y-21713204D01*
X3705963Y-21798018D01*
X3598015Y-21905966D01*
X3513201Y-22032900D01*
X3454780Y-22173941D01*
X3424997Y-22323669D01*
X3424997Y-22476331D01*
X3454780Y-22626059D01*
X3513201Y-22767100D01*
X3598015Y-22894034D01*
X3624997Y-22921016D01*
X3624998Y-29887744D01*
X3624997Y-29887754D01*
X3624998Y-32071742D01*
X3624997Y-32071751D01*
X3622215Y-32099997D01*
X3624997Y-32128240D01*
X3624998Y-37161829D01*
X1683392Y-39103436D01*
X1661445Y-39121447D01*
X1633910Y-39155000D01*
X1589591Y-39209003D01*
X1558174Y-39267780D01*
X1536198Y-39308894D01*
X1503319Y-39417282D01*
X1495751Y-39494123D01*
X1492217Y-39530001D01*
X1494999Y-39558245D01*
X1495000Y-41293748D01*
X1492217Y-41322001D01*
X1503320Y-41434720D01*
X1536198Y-41543108D01*
X1589591Y-41642999D01*
X1632100Y-41694796D01*
X1661446Y-41730555D01*
X1683388Y-41748562D01*
X3391437Y-43456612D01*
X3409444Y-43478554D01*
X3431384Y-43496559D01*
X3496999Y-43550408D01*
X3533887Y-43570125D01*
X3596890Y-43603801D01*
X3700886Y-43635348D01*
X3736491Y-43721307D01*
X3886968Y-43946511D01*
X4078489Y-44138032D01*
X4303693Y-44288509D01*
X4553927Y-44392159D01*
X4819574Y-44445000D01*
X5090426Y-44445000D01*
X5356073Y-44392159D01*
X5606307Y-44288509D01*
X5831511Y-44138032D01*
X6023032Y-43946511D01*
X6173509Y-43721307D01*
X6225000Y-43596996D01*
X6276491Y-43721307D01*
X6426968Y-43946511D01*
X6618489Y-44138032D01*
X6843693Y-44288509D01*
X7093927Y-44392159D01*
X7359574Y-44445000D01*
X7630426Y-44445000D01*
X7896073Y-44392159D01*
X8146307Y-44288509D01*
X8371511Y-44138032D01*
X8563032Y-43946511D01*
X8713509Y-43721307D01*
X8765000Y-43596996D01*
X8816491Y-43721307D01*
X8966968Y-43946511D01*
X9158489Y-44138032D01*
X9383693Y-44288509D01*
X9633927Y-44392159D01*
X9899574Y-44445000D01*
X10170426Y-44445000D01*
X10436073Y-44392159D01*
X10686307Y-44288509D01*
X10911511Y-44138032D01*
X11103032Y-43946511D01*
X11253509Y-43721307D01*
X11305000Y-43596996D01*
X11356491Y-43721307D01*
X11506968Y-43946511D01*
X11698489Y-44138032D01*
X11923693Y-44288509D01*
X12173927Y-44392159D01*
X12439574Y-44445000D01*
X12710426Y-44445000D01*
X12976073Y-44392159D01*
X13052379Y-44360552D01*
X13241827Y-44550000D01*
X450000Y-44550000D01*
X450000Y-23120581D01*
X454770Y-23123131D01*
X525457Y-23144574D01*
X598970Y-23151814D01*
X2798970Y-23151814D01*
X2872483Y-23144574D01*
X2943170Y-23123131D01*
X3008317Y-23088309D01*
X3065418Y-23041448D01*
X3112279Y-22984347D01*
X3147101Y-22919200D01*
X3168544Y-22848513D01*
X3175784Y-22775000D01*
X3175784Y-21875000D01*
X3168544Y-21801487D01*
X3147101Y-21730800D01*
X3125293Y-21690000D01*
X3147101Y-21649200D01*
X3152925Y-21630000D01*
X4098530Y-21630000D01*
X3973938Y-21654783D01*
G04 #@! TA.AperFunction,Conductor*
D16*
G36*
X3973938Y-21654783D02*
G01*
X3832897Y-21713204D01*
X3705963Y-21798018D01*
X3598015Y-21905966D01*
X3513201Y-22032900D01*
X3454780Y-22173941D01*
X3424997Y-22323669D01*
X3424997Y-22476331D01*
X3454780Y-22626059D01*
X3513201Y-22767100D01*
X3598015Y-22894034D01*
X3624997Y-22921016D01*
X3624998Y-29887744D01*
X3624997Y-29887754D01*
X3624998Y-32071742D01*
X3624997Y-32071751D01*
X3622215Y-32099997D01*
X3624997Y-32128240D01*
X3624998Y-37161829D01*
X1683392Y-39103436D01*
X1661445Y-39121447D01*
X1633910Y-39155000D01*
X1589591Y-39209003D01*
X1558174Y-39267780D01*
X1536198Y-39308894D01*
X1503319Y-39417282D01*
X1495751Y-39494123D01*
X1492217Y-39530001D01*
X1494999Y-39558245D01*
X1495000Y-41293748D01*
X1492217Y-41322001D01*
X1503320Y-41434720D01*
X1536198Y-41543108D01*
X1589591Y-41642999D01*
X1632100Y-41694796D01*
X1661446Y-41730555D01*
X1683388Y-41748562D01*
X3391437Y-43456612D01*
X3409444Y-43478554D01*
X3431384Y-43496559D01*
X3496999Y-43550408D01*
X3533887Y-43570125D01*
X3596890Y-43603801D01*
X3700886Y-43635348D01*
X3736491Y-43721307D01*
X3886968Y-43946511D01*
X4078489Y-44138032D01*
X4303693Y-44288509D01*
X4553927Y-44392159D01*
X4819574Y-44445000D01*
X5090426Y-44445000D01*
X5356073Y-44392159D01*
X5606307Y-44288509D01*
X5831511Y-44138032D01*
X6023032Y-43946511D01*
X6173509Y-43721307D01*
X6225000Y-43596996D01*
X6276491Y-43721307D01*
X6426968Y-43946511D01*
X6618489Y-44138032D01*
X6843693Y-44288509D01*
X7093927Y-44392159D01*
X7359574Y-44445000D01*
X7630426Y-44445000D01*
X7896073Y-44392159D01*
X8146307Y-44288509D01*
X8371511Y-44138032D01*
X8563032Y-43946511D01*
X8713509Y-43721307D01*
X8765000Y-43596996D01*
X8816491Y-43721307D01*
X8966968Y-43946511D01*
X9158489Y-44138032D01*
X9383693Y-44288509D01*
X9633927Y-44392159D01*
X9899574Y-44445000D01*
X10170426Y-44445000D01*
X10436073Y-44392159D01*
X10686307Y-44288509D01*
X10911511Y-44138032D01*
X11103032Y-43946511D01*
X11253509Y-43721307D01*
X11305000Y-43596996D01*
X11356491Y-43721307D01*
X11506968Y-43946511D01*
X11698489Y-44138032D01*
X11923693Y-44288509D01*
X12173927Y-44392159D01*
X12439574Y-44445000D01*
X12710426Y-44445000D01*
X12976073Y-44392159D01*
X13052379Y-44360552D01*
X13241827Y-44550000D01*
X450000Y-44550000D01*
X450000Y-23120581D01*
X454770Y-23123131D01*
X525457Y-23144574D01*
X598970Y-23151814D01*
X2798970Y-23151814D01*
X2872483Y-23144574D01*
X2943170Y-23123131D01*
X3008317Y-23088309D01*
X3065418Y-23041448D01*
X3112279Y-22984347D01*
X3147101Y-22919200D01*
X3168544Y-22848513D01*
X3175784Y-22775000D01*
X3175784Y-21875000D01*
X3168544Y-21801487D01*
X3147101Y-21730800D01*
X3125293Y-21690000D01*
X3147101Y-21649200D01*
X3152925Y-21630000D01*
X4098530Y-21630000D01*
X3973938Y-21654783D01*
G37*
G04 #@! TD.AperFunction*
D15*
X4840981Y-30442682D02*
X5033429Y-30571271D01*
X5247265Y-30659845D01*
X5474273Y-30705000D01*
X5705727Y-30705000D01*
X5932735Y-30659845D01*
X6146571Y-30571271D01*
X6275000Y-30485458D01*
X6275000Y-30761757D01*
X6272218Y-30790000D01*
X6275000Y-30818243D01*
X6275000Y-30818245D01*
X6283320Y-30902719D01*
X6316199Y-31011107D01*
X6369592Y-31110998D01*
X6377799Y-31120998D01*
X6441446Y-31198554D01*
X6463393Y-31216565D01*
X6995831Y-31749003D01*
X6955000Y-31954273D01*
X6955000Y-32185727D01*
X7000155Y-32412735D01*
X7088729Y-32626571D01*
X7217318Y-32819019D01*
X7380981Y-32982682D01*
X7573429Y-33111271D01*
X7787265Y-33199845D01*
X8014273Y-33245000D01*
X8245727Y-33245000D01*
X8472735Y-33199845D01*
X8686571Y-33111271D01*
X8879019Y-32982682D01*
X9042682Y-32819019D01*
X9171271Y-32626571D01*
X9259845Y-32412735D01*
X9305000Y-32185727D01*
X9305000Y-31954273D01*
X9259845Y-31727265D01*
X9171271Y-31513429D01*
X9042682Y-31320981D01*
X8879019Y-31157318D01*
X8686571Y-31028729D01*
X8472735Y-30940155D01*
X8245727Y-30895000D01*
X8014273Y-30895000D01*
X7809003Y-30935831D01*
X7425000Y-30551828D01*
X7425000Y-30472094D01*
X7573429Y-30571271D01*
X7787265Y-30659845D01*
X8014273Y-30705000D01*
X8245727Y-30705000D01*
X8472735Y-30659845D01*
X8686571Y-30571271D01*
X8825000Y-30478776D01*
X8825000Y-30771756D01*
X8822218Y-30800000D01*
X8825000Y-30828243D01*
X8825000Y-30828245D01*
X8833320Y-30912719D01*
X8841643Y-30940155D01*
X8866199Y-31021107D01*
X8919592Y-31120998D01*
X8927799Y-31130998D01*
X8991446Y-31208554D01*
X9013393Y-31226565D01*
X9535831Y-31749003D01*
X9495000Y-31954273D01*
X9495000Y-32185727D01*
X9540155Y-32412735D01*
X9628729Y-32626571D01*
X9757318Y-32819019D01*
X9920981Y-32982682D01*
X10113429Y-33111271D01*
X10327265Y-33199845D01*
X10554273Y-33245000D01*
X10785727Y-33245000D01*
X11012735Y-33199845D01*
X11226571Y-33111271D01*
X11419019Y-32982682D01*
X11582682Y-32819019D01*
X11711271Y-32626571D01*
X11799845Y-32412735D01*
X11845000Y-32185727D01*
X11845000Y-31954273D01*
X11799845Y-31727265D01*
X11711271Y-31513429D01*
X11582682Y-31320981D01*
X11419019Y-31157318D01*
X11226571Y-31028729D01*
X11012735Y-30940155D01*
X10785727Y-30895000D01*
X10554273Y-30895000D01*
X10349003Y-30935831D01*
X9975000Y-30561828D01*
X9975000Y-30478776D01*
X10113429Y-30571271D01*
X10327265Y-30659845D01*
X10554273Y-30705000D01*
X10785727Y-30705000D01*
X11012735Y-30659845D01*
X11226571Y-30571271D01*
X11375001Y-30472094D01*
X11375001Y-30781747D01*
X11372218Y-30810000D01*
X11383321Y-30922719D01*
X11416199Y-31031107D01*
X11469592Y-31130998D01*
X11515234Y-31186613D01*
X11541447Y-31218554D01*
X11563389Y-31236561D01*
X12075831Y-31749003D01*
X12035000Y-31954273D01*
X12035000Y-32185727D01*
X12080155Y-32412735D01*
X12168729Y-32626571D01*
X12297318Y-32819019D01*
X12460981Y-32982682D01*
X12653429Y-33111271D01*
X12867265Y-33199845D01*
X13094273Y-33245000D01*
X13325727Y-33245000D01*
X13530997Y-33204169D01*
X15955001Y-35628174D01*
X15955002Y-41940824D01*
X15754991Y-41807181D01*
X15495657Y-41699762D01*
X15220350Y-41645000D01*
X14939650Y-41645000D01*
X14664343Y-41699762D01*
X14405009Y-41807181D01*
X14171615Y-41963130D01*
X13973130Y-42161615D01*
X13817181Y-42395009D01*
X13800440Y-42435426D01*
X13793509Y-42418693D01*
X13643032Y-42193489D01*
X13451511Y-42001968D01*
X13226307Y-41851491D01*
X12976073Y-41747841D01*
X12710426Y-41695000D01*
X12439574Y-41695000D01*
X12173927Y-41747841D01*
X11923693Y-41851491D01*
X11698489Y-42001968D01*
X11506968Y-42193489D01*
X11356491Y-42418693D01*
X11305000Y-42543004D01*
X11253509Y-42418693D01*
X11103032Y-42193489D01*
X10911511Y-42001968D01*
X10686307Y-41851491D01*
X10436073Y-41747841D01*
X10170426Y-41695000D01*
X9899574Y-41695000D01*
X9633927Y-41747841D01*
X9383693Y-41851491D01*
X9158489Y-42001968D01*
X8966968Y-42193489D01*
X8816491Y-42418693D01*
X8765000Y-42543004D01*
X8713509Y-42418693D01*
X8563032Y-42193489D01*
X8371511Y-42001968D01*
X8146307Y-41851491D01*
X7896073Y-41747841D01*
X7630426Y-41695000D01*
X7359574Y-41695000D01*
X7093927Y-41747841D01*
X6843693Y-41851491D01*
X6618489Y-42001968D01*
X6426968Y-42193489D01*
X6276491Y-42418693D01*
X6225000Y-42543004D01*
X6173509Y-42418693D01*
X6023032Y-42193489D01*
X5831511Y-42001968D01*
X5606307Y-41851491D01*
X5356073Y-41747841D01*
X5090426Y-41695000D01*
X4853097Y-41695000D01*
X4982220Y-41565877D01*
X5122837Y-41355430D01*
X5156968Y-41406511D01*
X5348489Y-41598032D01*
X5573693Y-41748509D01*
X5823927Y-41852159D01*
X6089574Y-41905000D01*
X6360426Y-41905000D01*
X6626073Y-41852159D01*
X6876307Y-41748509D01*
X7101511Y-41598032D01*
X7293032Y-41406511D01*
X7443509Y-41181307D01*
X7495000Y-41056996D01*
X7546491Y-41181307D01*
X7696968Y-41406511D01*
X7888489Y-41598032D01*
X8113693Y-41748509D01*
X8363927Y-41852159D01*
X8629574Y-41905000D01*
X8900426Y-41905000D01*
X9166073Y-41852159D01*
X9416307Y-41748509D01*
X9641511Y-41598032D01*
X9833032Y-41406511D01*
X9983509Y-41181307D01*
X10035000Y-41056996D01*
X10086491Y-41181307D01*
X10236968Y-41406511D01*
X10428489Y-41598032D01*
X10653693Y-41748509D01*
X10903927Y-41852159D01*
X11169574Y-41905000D01*
X11440426Y-41905000D01*
X11706073Y-41852159D01*
X11956307Y-41748509D01*
X12181511Y-41598032D01*
X12321352Y-41458191D01*
X12952165Y-41458191D01*
X13053243Y-41662292D01*
X13289356Y-41794999D01*
X13546822Y-41879093D01*
X13815746Y-41911342D01*
X14085795Y-41890507D01*
X14346590Y-41817388D01*
X14588110Y-41694796D01*
X14636757Y-41662292D01*
X14737835Y-41458191D01*
X13845000Y-40565355D01*
X12952165Y-41458191D01*
X12321352Y-41458191D01*
X12373032Y-41406511D01*
X12523509Y-41181307D01*
X12572981Y-41061870D01*
X12680204Y-41273110D01*
X12712708Y-41321757D01*
X12916809Y-41422835D01*
X13809645Y-40530000D01*
X13880355Y-40530000D01*
X14773191Y-41422835D01*
X14977292Y-41321757D01*
X15109999Y-41085644D01*
X15194093Y-40828178D01*
X15226342Y-40559254D01*
X15205507Y-40289205D01*
X15132388Y-40028410D01*
X15009796Y-39786890D01*
X14977292Y-39738243D01*
X14773191Y-39637165D01*
X13880355Y-40530000D01*
X13809645Y-40530000D01*
X12916809Y-39637165D01*
X12712708Y-39738243D01*
X12580001Y-39974356D01*
X12572565Y-39997124D01*
X12523509Y-39878693D01*
X12475000Y-39806094D01*
X12475000Y-39601809D01*
X12952165Y-39601809D01*
X13845000Y-40494645D01*
X14737835Y-39601809D01*
X14636757Y-39397708D01*
X14400644Y-39265001D01*
X14143178Y-39180907D01*
X13874254Y-39148658D01*
X13604205Y-39169493D01*
X13343410Y-39242612D01*
X13101890Y-39365204D01*
X13053243Y-39397708D01*
X12952165Y-39601809D01*
X12475000Y-39601809D01*
X12475000Y-35621016D01*
X12501982Y-35594034D01*
X12586796Y-35467100D01*
X12645217Y-35326059D01*
X12675000Y-35176331D01*
X12675000Y-35023669D01*
X12645217Y-34873941D01*
X12586796Y-34732900D01*
X12501982Y-34605966D01*
X12394034Y-34498018D01*
X12267100Y-34413204D01*
X12126059Y-34354783D01*
X11976331Y-34325000D01*
X11823669Y-34325000D01*
X11673941Y-34354783D01*
X11532900Y-34413204D01*
X11405966Y-34498018D01*
X11298018Y-34605966D01*
X11213204Y-34732900D01*
X11154783Y-34873941D01*
X11125000Y-35023669D01*
X11125000Y-35176331D01*
X11154783Y-35326059D01*
X11213204Y-35467100D01*
X11298018Y-35594034D01*
X11325000Y-35621016D01*
X11325001Y-39155000D01*
X11169574Y-39155000D01*
X10903927Y-39207841D01*
X10653693Y-39311491D01*
X10428489Y-39461968D01*
X10236968Y-39653489D01*
X10086491Y-39878693D01*
X10035000Y-40003004D01*
X9983509Y-39878693D01*
X9833032Y-39653489D01*
X9641511Y-39461968D01*
X9416307Y-39311491D01*
X9166073Y-39207841D01*
X8900426Y-39155000D01*
X8629574Y-39155000D01*
X8363927Y-39207841D01*
X8113693Y-39311491D01*
X7888489Y-39461968D01*
X7696968Y-39653489D01*
X7546491Y-39878693D01*
X7495000Y-40003004D01*
X7443509Y-39878693D01*
X7425000Y-39850992D01*
X7425000Y-34071016D01*
X7451982Y-34044034D01*
X7536796Y-33917100D01*
X7595217Y-33776059D01*
X7625000Y-33626331D01*
X7625000Y-33473669D01*
X7595217Y-33323941D01*
X7536796Y-33182900D01*
X7451982Y-33055966D01*
X7344034Y-32948018D01*
X7217100Y-32863204D01*
X7076059Y-32804783D01*
X6926331Y-32775000D01*
X6773669Y-32775000D01*
X6623941Y-32804783D01*
X6482900Y-32863204D01*
X6409358Y-32912343D01*
X6502682Y-32819019D01*
X6631271Y-32626571D01*
X6719845Y-32412735D01*
X6765000Y-32185727D01*
X6765000Y-31954273D01*
X6719845Y-31727265D01*
X6631271Y-31513429D01*
X6502682Y-31320981D01*
X6339019Y-31157318D01*
X6146571Y-31028729D01*
X5932735Y-30940155D01*
X5705727Y-30895000D01*
X5474273Y-30895000D01*
X5247265Y-30940155D01*
X5033429Y-31028729D01*
X4840981Y-31157318D01*
X4774997Y-31223302D01*
X4774997Y-30376698D01*
X4840981Y-30442682D01*
G04 #@! TA.AperFunction,Conductor*
D16*
G36*
X4840981Y-30442682D02*
G01*
X5033429Y-30571271D01*
X5247265Y-30659845D01*
X5474273Y-30705000D01*
X5705727Y-30705000D01*
X5932735Y-30659845D01*
X6146571Y-30571271D01*
X6275000Y-30485458D01*
X6275000Y-30761757D01*
X6272218Y-30790000D01*
X6275000Y-30818243D01*
X6275000Y-30818245D01*
X6283320Y-30902719D01*
X6316199Y-31011107D01*
X6369592Y-31110998D01*
X6377799Y-31120998D01*
X6441446Y-31198554D01*
X6463393Y-31216565D01*
X6995831Y-31749003D01*
X6955000Y-31954273D01*
X6955000Y-32185727D01*
X7000155Y-32412735D01*
X7088729Y-32626571D01*
X7217318Y-32819019D01*
X7380981Y-32982682D01*
X7573429Y-33111271D01*
X7787265Y-33199845D01*
X8014273Y-33245000D01*
X8245727Y-33245000D01*
X8472735Y-33199845D01*
X8686571Y-33111271D01*
X8879019Y-32982682D01*
X9042682Y-32819019D01*
X9171271Y-32626571D01*
X9259845Y-32412735D01*
X9305000Y-32185727D01*
X9305000Y-31954273D01*
X9259845Y-31727265D01*
X9171271Y-31513429D01*
X9042682Y-31320981D01*
X8879019Y-31157318D01*
X8686571Y-31028729D01*
X8472735Y-30940155D01*
X8245727Y-30895000D01*
X8014273Y-30895000D01*
X7809003Y-30935831D01*
X7425000Y-30551828D01*
X7425000Y-30472094D01*
X7573429Y-30571271D01*
X7787265Y-30659845D01*
X8014273Y-30705000D01*
X8245727Y-30705000D01*
X8472735Y-30659845D01*
X8686571Y-30571271D01*
X8825000Y-30478776D01*
X8825000Y-30771756D01*
X8822218Y-30800000D01*
X8825000Y-30828243D01*
X8825000Y-30828245D01*
X8833320Y-30912719D01*
X8841643Y-30940155D01*
X8866199Y-31021107D01*
X8919592Y-31120998D01*
X8927799Y-31130998D01*
X8991446Y-31208554D01*
X9013393Y-31226565D01*
X9535831Y-31749003D01*
X9495000Y-31954273D01*
X9495000Y-32185727D01*
X9540155Y-32412735D01*
X9628729Y-32626571D01*
X9757318Y-32819019D01*
X9920981Y-32982682D01*
X10113429Y-33111271D01*
X10327265Y-33199845D01*
X10554273Y-33245000D01*
X10785727Y-33245000D01*
X11012735Y-33199845D01*
X11226571Y-33111271D01*
X11419019Y-32982682D01*
X11582682Y-32819019D01*
X11711271Y-32626571D01*
X11799845Y-32412735D01*
X11845000Y-32185727D01*
X11845000Y-31954273D01*
X11799845Y-31727265D01*
X11711271Y-31513429D01*
X11582682Y-31320981D01*
X11419019Y-31157318D01*
X11226571Y-31028729D01*
X11012735Y-30940155D01*
X10785727Y-30895000D01*
X10554273Y-30895000D01*
X10349003Y-30935831D01*
X9975000Y-30561828D01*
X9975000Y-30478776D01*
X10113429Y-30571271D01*
X10327265Y-30659845D01*
X10554273Y-30705000D01*
X10785727Y-30705000D01*
X11012735Y-30659845D01*
X11226571Y-30571271D01*
X11375001Y-30472094D01*
X11375001Y-30781747D01*
X11372218Y-30810000D01*
X11383321Y-30922719D01*
X11416199Y-31031107D01*
X11469592Y-31130998D01*
X11515234Y-31186613D01*
X11541447Y-31218554D01*
X11563389Y-31236561D01*
X12075831Y-31749003D01*
X12035000Y-31954273D01*
X12035000Y-32185727D01*
X12080155Y-32412735D01*
X12168729Y-32626571D01*
X12297318Y-32819019D01*
X12460981Y-32982682D01*
X12653429Y-33111271D01*
X12867265Y-33199845D01*
X13094273Y-33245000D01*
X13325727Y-33245000D01*
X13530997Y-33204169D01*
X15955001Y-35628174D01*
X15955002Y-41940824D01*
X15754991Y-41807181D01*
X15495657Y-41699762D01*
X15220350Y-41645000D01*
X14939650Y-41645000D01*
X14664343Y-41699762D01*
X14405009Y-41807181D01*
X14171615Y-41963130D01*
X13973130Y-42161615D01*
X13817181Y-42395009D01*
X13800440Y-42435426D01*
X13793509Y-42418693D01*
X13643032Y-42193489D01*
X13451511Y-42001968D01*
X13226307Y-41851491D01*
X12976073Y-41747841D01*
X12710426Y-41695000D01*
X12439574Y-41695000D01*
X12173927Y-41747841D01*
X11923693Y-41851491D01*
X11698489Y-42001968D01*
X11506968Y-42193489D01*
X11356491Y-42418693D01*
X11305000Y-42543004D01*
X11253509Y-42418693D01*
X11103032Y-42193489D01*
X10911511Y-42001968D01*
X10686307Y-41851491D01*
X10436073Y-41747841D01*
X10170426Y-41695000D01*
X9899574Y-41695000D01*
X9633927Y-41747841D01*
X9383693Y-41851491D01*
X9158489Y-42001968D01*
X8966968Y-42193489D01*
X8816491Y-42418693D01*
X8765000Y-42543004D01*
X8713509Y-42418693D01*
X8563032Y-42193489D01*
X8371511Y-42001968D01*
X8146307Y-41851491D01*
X7896073Y-41747841D01*
X7630426Y-41695000D01*
X7359574Y-41695000D01*
X7093927Y-41747841D01*
X6843693Y-41851491D01*
X6618489Y-42001968D01*
X6426968Y-42193489D01*
X6276491Y-42418693D01*
X6225000Y-42543004D01*
X6173509Y-42418693D01*
X6023032Y-42193489D01*
X5831511Y-42001968D01*
X5606307Y-41851491D01*
X5356073Y-41747841D01*
X5090426Y-41695000D01*
X4853097Y-41695000D01*
X4982220Y-41565877D01*
X5122837Y-41355430D01*
X5156968Y-41406511D01*
X5348489Y-41598032D01*
X5573693Y-41748509D01*
X5823927Y-41852159D01*
X6089574Y-41905000D01*
X6360426Y-41905000D01*
X6626073Y-41852159D01*
X6876307Y-41748509D01*
X7101511Y-41598032D01*
X7293032Y-41406511D01*
X7443509Y-41181307D01*
X7495000Y-41056996D01*
X7546491Y-41181307D01*
X7696968Y-41406511D01*
X7888489Y-41598032D01*
X8113693Y-41748509D01*
X8363927Y-41852159D01*
X8629574Y-41905000D01*
X8900426Y-41905000D01*
X9166073Y-41852159D01*
X9416307Y-41748509D01*
X9641511Y-41598032D01*
X9833032Y-41406511D01*
X9983509Y-41181307D01*
X10035000Y-41056996D01*
X10086491Y-41181307D01*
X10236968Y-41406511D01*
X10428489Y-41598032D01*
X10653693Y-41748509D01*
X10903927Y-41852159D01*
X11169574Y-41905000D01*
X11440426Y-41905000D01*
X11706073Y-41852159D01*
X11956307Y-41748509D01*
X12181511Y-41598032D01*
X12321352Y-41458191D01*
X12952165Y-41458191D01*
X13053243Y-41662292D01*
X13289356Y-41794999D01*
X13546822Y-41879093D01*
X13815746Y-41911342D01*
X14085795Y-41890507D01*
X14346590Y-41817388D01*
X14588110Y-41694796D01*
X14636757Y-41662292D01*
X14737835Y-41458191D01*
X13845000Y-40565355D01*
X12952165Y-41458191D01*
X12321352Y-41458191D01*
X12373032Y-41406511D01*
X12523509Y-41181307D01*
X12572981Y-41061870D01*
X12680204Y-41273110D01*
X12712708Y-41321757D01*
X12916809Y-41422835D01*
X13809645Y-40530000D01*
X13880355Y-40530000D01*
X14773191Y-41422835D01*
X14977292Y-41321757D01*
X15109999Y-41085644D01*
X15194093Y-40828178D01*
X15226342Y-40559254D01*
X15205507Y-40289205D01*
X15132388Y-40028410D01*
X15009796Y-39786890D01*
X14977292Y-39738243D01*
X14773191Y-39637165D01*
X13880355Y-40530000D01*
X13809645Y-40530000D01*
X12916809Y-39637165D01*
X12712708Y-39738243D01*
X12580001Y-39974356D01*
X12572565Y-39997124D01*
X12523509Y-39878693D01*
X12475000Y-39806094D01*
X12475000Y-39601809D01*
X12952165Y-39601809D01*
X13845000Y-40494645D01*
X14737835Y-39601809D01*
X14636757Y-39397708D01*
X14400644Y-39265001D01*
X14143178Y-39180907D01*
X13874254Y-39148658D01*
X13604205Y-39169493D01*
X13343410Y-39242612D01*
X13101890Y-39365204D01*
X13053243Y-39397708D01*
X12952165Y-39601809D01*
X12475000Y-39601809D01*
X12475000Y-35621016D01*
X12501982Y-35594034D01*
X12586796Y-35467100D01*
X12645217Y-35326059D01*
X12675000Y-35176331D01*
X12675000Y-35023669D01*
X12645217Y-34873941D01*
X12586796Y-34732900D01*
X12501982Y-34605966D01*
X12394034Y-34498018D01*
X12267100Y-34413204D01*
X12126059Y-34354783D01*
X11976331Y-34325000D01*
X11823669Y-34325000D01*
X11673941Y-34354783D01*
X11532900Y-34413204D01*
X11405966Y-34498018D01*
X11298018Y-34605966D01*
X11213204Y-34732900D01*
X11154783Y-34873941D01*
X11125000Y-35023669D01*
X11125000Y-35176331D01*
X11154783Y-35326059D01*
X11213204Y-35467100D01*
X11298018Y-35594034D01*
X11325000Y-35621016D01*
X11325001Y-39155000D01*
X11169574Y-39155000D01*
X10903927Y-39207841D01*
X10653693Y-39311491D01*
X10428489Y-39461968D01*
X10236968Y-39653489D01*
X10086491Y-39878693D01*
X10035000Y-40003004D01*
X9983509Y-39878693D01*
X9833032Y-39653489D01*
X9641511Y-39461968D01*
X9416307Y-39311491D01*
X9166073Y-39207841D01*
X8900426Y-39155000D01*
X8629574Y-39155000D01*
X8363927Y-39207841D01*
X8113693Y-39311491D01*
X7888489Y-39461968D01*
X7696968Y-39653489D01*
X7546491Y-39878693D01*
X7495000Y-40003004D01*
X7443509Y-39878693D01*
X7425000Y-39850992D01*
X7425000Y-34071016D01*
X7451982Y-34044034D01*
X7536796Y-33917100D01*
X7595217Y-33776059D01*
X7625000Y-33626331D01*
X7625000Y-33473669D01*
X7595217Y-33323941D01*
X7536796Y-33182900D01*
X7451982Y-33055966D01*
X7344034Y-32948018D01*
X7217100Y-32863204D01*
X7076059Y-32804783D01*
X6926331Y-32775000D01*
X6773669Y-32775000D01*
X6623941Y-32804783D01*
X6482900Y-32863204D01*
X6409358Y-32912343D01*
X6502682Y-32819019D01*
X6631271Y-32626571D01*
X6719845Y-32412735D01*
X6765000Y-32185727D01*
X6765000Y-31954273D01*
X6719845Y-31727265D01*
X6631271Y-31513429D01*
X6502682Y-31320981D01*
X6339019Y-31157318D01*
X6146571Y-31028729D01*
X5932735Y-30940155D01*
X5705727Y-30895000D01*
X5474273Y-30895000D01*
X5247265Y-30940155D01*
X5033429Y-31028729D01*
X4840981Y-31157318D01*
X4774997Y-31223302D01*
X4774997Y-30376698D01*
X4840981Y-30442682D01*
G37*
G04 #@! TD.AperFunction*
D15*
X4840981Y-32982682D02*
X5033429Y-33111271D01*
X5247265Y-33199845D01*
X5474273Y-33245000D01*
X5705727Y-33245000D01*
X5932735Y-33199845D01*
X6146571Y-33111271D01*
X6285626Y-33018358D01*
X6248018Y-33055966D01*
X6163204Y-33182900D01*
X6104783Y-33323941D01*
X6075000Y-33473669D01*
X6075000Y-33626331D01*
X6104783Y-33776059D01*
X6163204Y-33917100D01*
X6248018Y-34044034D01*
X6275000Y-34071016D01*
X6275001Y-39155000D01*
X6089574Y-39155000D01*
X5823927Y-39207841D01*
X5573693Y-39311491D01*
X5348489Y-39461968D01*
X5156968Y-39653489D01*
X5122837Y-39704570D01*
X4982220Y-39494123D01*
X4755877Y-39267780D01*
X4489726Y-39089943D01*
X4193995Y-38967448D01*
X3880049Y-38905000D01*
X3559951Y-38905000D01*
X3495316Y-38917857D01*
X4586609Y-37826564D01*
X4608551Y-37808557D01*
X4642779Y-37766850D01*
X4680405Y-37721002D01*
X4733798Y-37621111D01*
X4766677Y-37512723D01*
X4774997Y-37428249D01*
X4774997Y-37428247D01*
X4777779Y-37400004D01*
X4774997Y-37371761D01*
X4774997Y-32916698D01*
X4840981Y-32982682D01*
G04 #@! TA.AperFunction,Conductor*
D16*
G36*
X4840981Y-32982682D02*
G01*
X5033429Y-33111271D01*
X5247265Y-33199845D01*
X5474273Y-33245000D01*
X5705727Y-33245000D01*
X5932735Y-33199845D01*
X6146571Y-33111271D01*
X6285626Y-33018358D01*
X6248018Y-33055966D01*
X6163204Y-33182900D01*
X6104783Y-33323941D01*
X6075000Y-33473669D01*
X6075000Y-33626331D01*
X6104783Y-33776059D01*
X6163204Y-33917100D01*
X6248018Y-34044034D01*
X6275000Y-34071016D01*
X6275001Y-39155000D01*
X6089574Y-39155000D01*
X5823927Y-39207841D01*
X5573693Y-39311491D01*
X5348489Y-39461968D01*
X5156968Y-39653489D01*
X5122837Y-39704570D01*
X4982220Y-39494123D01*
X4755877Y-39267780D01*
X4489726Y-39089943D01*
X4193995Y-38967448D01*
X3880049Y-38905000D01*
X3559951Y-38905000D01*
X3495316Y-38917857D01*
X4586609Y-37826564D01*
X4608551Y-37808557D01*
X4642779Y-37766850D01*
X4680405Y-37721002D01*
X4733798Y-37621111D01*
X4766677Y-37512723D01*
X4774997Y-37428249D01*
X4774997Y-37428247D01*
X4777779Y-37400004D01*
X4774997Y-37371761D01*
X4774997Y-32916698D01*
X4840981Y-32982682D01*
G37*
G04 #@! TD.AperFunction*
D15*
X8713204Y-17932900D02*
X8654783Y-18073941D01*
X8625000Y-18223669D01*
X8625000Y-18376331D01*
X8654783Y-18526059D01*
X8713204Y-18667100D01*
X8798018Y-18794034D01*
X8905966Y-18901982D01*
X9032900Y-18986796D01*
X9173941Y-19045217D01*
X9323669Y-19075000D01*
X9361827Y-19075000D01*
X9494991Y-19208164D01*
X9494990Y-28091837D01*
X9013389Y-28573439D01*
X8991447Y-28591446D01*
X8973441Y-28613387D01*
X8929108Y-28667407D01*
X8879019Y-28617318D01*
X8705000Y-28501043D01*
X8705000Y-21958243D01*
X8707782Y-21930000D01*
X8702482Y-21876189D01*
X8696680Y-21817280D01*
X8663801Y-21708892D01*
X8621632Y-21630000D01*
X8610408Y-21609001D01*
X8556559Y-21543386D01*
X8538554Y-21521446D01*
X8516612Y-21503439D01*
X7681565Y-20668393D01*
X7663554Y-20646446D01*
X7575998Y-20574592D01*
X7476108Y-20521199D01*
X7367720Y-20488320D01*
X7283246Y-20480000D01*
X7283243Y-20480000D01*
X7255000Y-20477218D01*
X7226757Y-20480000D01*
X6577271Y-20480000D01*
X6694034Y-20401982D01*
X6801982Y-20294034D01*
X6886796Y-20167100D01*
X6945217Y-20026059D01*
X6975000Y-19876331D01*
X6975000Y-19723669D01*
X6945217Y-19573941D01*
X6886796Y-19432900D01*
X6801982Y-19305966D01*
X6775000Y-19278984D01*
X6775000Y-19028243D01*
X6777782Y-19000000D01*
X6774826Y-18969990D01*
X6766680Y-18887280D01*
X6733801Y-18778892D01*
X6680408Y-18679002D01*
X6608554Y-18591446D01*
X6586613Y-18573440D01*
X6141565Y-18128393D01*
X6123554Y-18106446D01*
X6035998Y-18034592D01*
X5936108Y-17981199D01*
X5827720Y-17948320D01*
X5743246Y-17940000D01*
X5743243Y-17940000D01*
X5715000Y-17937218D01*
X5686757Y-17940000D01*
X3152925Y-17940000D01*
X3147101Y-17920800D01*
X3125293Y-17880000D01*
X3147101Y-17839200D01*
X3152925Y-17820000D01*
X8788641Y-17820000D01*
X8713204Y-17932900D01*
G04 #@! TA.AperFunction,Conductor*
D16*
G36*
X8713204Y-17932900D02*
G01*
X8654783Y-18073941D01*
X8625000Y-18223669D01*
X8625000Y-18376331D01*
X8654783Y-18526059D01*
X8713204Y-18667100D01*
X8798018Y-18794034D01*
X8905966Y-18901982D01*
X9032900Y-18986796D01*
X9173941Y-19045217D01*
X9323669Y-19075000D01*
X9361827Y-19075000D01*
X9494991Y-19208164D01*
X9494990Y-28091837D01*
X9013389Y-28573439D01*
X8991447Y-28591446D01*
X8973441Y-28613387D01*
X8929108Y-28667407D01*
X8879019Y-28617318D01*
X8705000Y-28501043D01*
X8705000Y-21958243D01*
X8707782Y-21930000D01*
X8702482Y-21876189D01*
X8696680Y-21817280D01*
X8663801Y-21708892D01*
X8621632Y-21630000D01*
X8610408Y-21609001D01*
X8556559Y-21543386D01*
X8538554Y-21521446D01*
X8516612Y-21503439D01*
X7681565Y-20668393D01*
X7663554Y-20646446D01*
X7575998Y-20574592D01*
X7476108Y-20521199D01*
X7367720Y-20488320D01*
X7283246Y-20480000D01*
X7283243Y-20480000D01*
X7255000Y-20477218D01*
X7226757Y-20480000D01*
X6577271Y-20480000D01*
X6694034Y-20401982D01*
X6801982Y-20294034D01*
X6886796Y-20167100D01*
X6945217Y-20026059D01*
X6975000Y-19876331D01*
X6975000Y-19723669D01*
X6945217Y-19573941D01*
X6886796Y-19432900D01*
X6801982Y-19305966D01*
X6775000Y-19278984D01*
X6775000Y-19028243D01*
X6777782Y-19000000D01*
X6774826Y-18969990D01*
X6766680Y-18887280D01*
X6733801Y-18778892D01*
X6680408Y-18679002D01*
X6608554Y-18591446D01*
X6586613Y-18573440D01*
X6141565Y-18128393D01*
X6123554Y-18106446D01*
X6035998Y-18034592D01*
X5936108Y-17981199D01*
X5827720Y-17948320D01*
X5743246Y-17940000D01*
X5743243Y-17940000D01*
X5715000Y-17937218D01*
X5686757Y-17940000D01*
X3152925Y-17940000D01*
X3147101Y-17920800D01*
X3125293Y-17880000D01*
X3147101Y-17839200D01*
X3152925Y-17820000D01*
X8788641Y-17820000D01*
X8713204Y-17932900D01*
G37*
G04 #@! TD.AperFunction*
D15*
X7555001Y-22168174D02*
X7555000Y-28501043D01*
X7425000Y-28587906D01*
X7425000Y-28478243D01*
X7427782Y-28450000D01*
X7425000Y-28421754D01*
X7416680Y-28337280D01*
X7383801Y-28228892D01*
X7367590Y-28198564D01*
X7330408Y-28129001D01*
X7276559Y-28063386D01*
X7258554Y-28041446D01*
X7236612Y-28023439D01*
X6765010Y-27551838D01*
X6765010Y-22931006D01*
X6801982Y-22894034D01*
X6886796Y-22767100D01*
X6945217Y-22626059D01*
X6975000Y-22476331D01*
X6975000Y-22323669D01*
X6945217Y-22173941D01*
X6886796Y-22032900D01*
X6801982Y-21905966D01*
X6694034Y-21798018D01*
X6567100Y-21713204D01*
X6426059Y-21654783D01*
X6301467Y-21630000D01*
X7016828Y-21630000D01*
X7555001Y-22168174D01*
G04 #@! TA.AperFunction,Conductor*
D16*
G36*
X7555001Y-22168174D02*
G01*
X7555000Y-28501043D01*
X7425000Y-28587906D01*
X7425000Y-28478243D01*
X7427782Y-28450000D01*
X7425000Y-28421754D01*
X7416680Y-28337280D01*
X7383801Y-28228892D01*
X7367590Y-28198564D01*
X7330408Y-28129001D01*
X7276559Y-28063386D01*
X7258554Y-28041446D01*
X7236612Y-28023439D01*
X6765010Y-27551838D01*
X6765010Y-22931006D01*
X6801982Y-22894034D01*
X6886796Y-22767100D01*
X6945217Y-22626059D01*
X6975000Y-22476331D01*
X6975000Y-22323669D01*
X6945217Y-22173941D01*
X6886796Y-22032900D01*
X6801982Y-21905966D01*
X6694034Y-21798018D01*
X6567100Y-21713204D01*
X6426059Y-21654783D01*
X6301467Y-21630000D01*
X7016828Y-21630000D01*
X7555001Y-22168174D01*
G37*
G04 #@! TD.AperFunction*
D15*
X11375000Y-11188173D02*
X11375001Y-28587906D01*
X11245000Y-28501043D01*
X11245000Y-18098242D01*
X11247782Y-18069999D01*
X11245000Y-18041754D01*
X11236680Y-17957280D01*
X11203801Y-17848892D01*
X11150408Y-17749001D01*
X11106440Y-17695426D01*
X11078554Y-17661446D01*
X11056613Y-17643440D01*
X10271565Y-16858393D01*
X10253554Y-16836446D01*
X10165998Y-16764592D01*
X10066108Y-16711199D01*
X9957720Y-16678320D01*
X9873246Y-16670000D01*
X9873243Y-16670000D01*
X9845000Y-16667218D01*
X9816757Y-16670000D01*
X3152925Y-16670000D01*
X3147101Y-16650800D01*
X3125293Y-16610000D01*
X3147101Y-16569200D01*
X3168544Y-16498513D01*
X3175784Y-16425000D01*
X3175784Y-15525000D01*
X3168544Y-15451487D01*
X3147101Y-15380800D01*
X3125293Y-15340000D01*
X3147101Y-15299200D01*
X3168544Y-15228513D01*
X3175784Y-15155000D01*
X3175784Y-14255000D01*
X3168544Y-14181487D01*
X3147101Y-14110800D01*
X3125293Y-14070000D01*
X3147101Y-14029200D01*
X3168544Y-13958513D01*
X3175784Y-13885000D01*
X3175784Y-12985000D01*
X3168544Y-12911487D01*
X3147101Y-12840800D01*
X3125293Y-12800000D01*
X3147101Y-12759200D01*
X3168544Y-12688513D01*
X3175784Y-12615000D01*
X3173970Y-12283750D01*
X3080220Y-12190000D01*
X1723970Y-12190000D01*
X1723970Y-12210000D01*
X1673970Y-12210000D01*
X1673970Y-12190000D01*
X1653970Y-12190000D01*
X1653970Y-12140000D01*
X1673970Y-12140000D01*
X1673970Y-12120000D01*
X1723970Y-12120000D01*
X1723970Y-12140000D01*
X3080220Y-12140000D01*
X3173970Y-12046250D01*
X3175784Y-11715000D01*
X3168544Y-11641487D01*
X3147101Y-11570800D01*
X3125293Y-11530000D01*
X3147101Y-11489200D01*
X3168544Y-11418513D01*
X3175784Y-11345000D01*
X3175784Y-10445000D01*
X3168544Y-10371487D01*
X3147101Y-10300800D01*
X3125293Y-10260000D01*
X3147101Y-10219200D01*
X3152925Y-10200000D01*
X10386828Y-10200000D01*
X11375000Y-11188173D01*
G04 #@! TA.AperFunction,Conductor*
D16*
G36*
X11375000Y-11188173D02*
G01*
X11375001Y-28587906D01*
X11245000Y-28501043D01*
X11245000Y-18098242D01*
X11247782Y-18069999D01*
X11245000Y-18041754D01*
X11236680Y-17957280D01*
X11203801Y-17848892D01*
X11150408Y-17749001D01*
X11106440Y-17695426D01*
X11078554Y-17661446D01*
X11056613Y-17643440D01*
X10271565Y-16858393D01*
X10253554Y-16836446D01*
X10165998Y-16764592D01*
X10066108Y-16711199D01*
X9957720Y-16678320D01*
X9873246Y-16670000D01*
X9873243Y-16670000D01*
X9845000Y-16667218D01*
X9816757Y-16670000D01*
X3152925Y-16670000D01*
X3147101Y-16650800D01*
X3125293Y-16610000D01*
X3147101Y-16569200D01*
X3168544Y-16498513D01*
X3175784Y-16425000D01*
X3175784Y-15525000D01*
X3168544Y-15451487D01*
X3147101Y-15380800D01*
X3125293Y-15340000D01*
X3147101Y-15299200D01*
X3168544Y-15228513D01*
X3175784Y-15155000D01*
X3175784Y-14255000D01*
X3168544Y-14181487D01*
X3147101Y-14110800D01*
X3125293Y-14070000D01*
X3147101Y-14029200D01*
X3168544Y-13958513D01*
X3175784Y-13885000D01*
X3175784Y-12985000D01*
X3168544Y-12911487D01*
X3147101Y-12840800D01*
X3125293Y-12800000D01*
X3147101Y-12759200D01*
X3168544Y-12688513D01*
X3175784Y-12615000D01*
X3173970Y-12283750D01*
X3080220Y-12190000D01*
X1723970Y-12190000D01*
X1723970Y-12210000D01*
X1673970Y-12210000D01*
X1673970Y-12190000D01*
X1653970Y-12190000D01*
X1653970Y-12140000D01*
X1673970Y-12140000D01*
X1673970Y-12120000D01*
X1723970Y-12120000D01*
X1723970Y-12140000D01*
X3080220Y-12140000D01*
X3173970Y-12046250D01*
X3175784Y-11715000D01*
X3168544Y-11641487D01*
X3147101Y-11570800D01*
X3125293Y-11530000D01*
X3147101Y-11489200D01*
X3168544Y-11418513D01*
X3175784Y-11345000D01*
X3175784Y-10445000D01*
X3168544Y-10371487D01*
X3147101Y-10300800D01*
X3125293Y-10260000D01*
X3147101Y-10219200D01*
X3152925Y-10200000D01*
X10386828Y-10200000D01*
X11375000Y-11188173D01*
G37*
G04 #@! TD.AperFunction*
D15*
X5625000Y-19238173D02*
X5625000Y-19278984D01*
X5598018Y-19305966D01*
X5513204Y-19432900D01*
X5454783Y-19573941D01*
X5425000Y-19723669D01*
X5425000Y-19876331D01*
X5454783Y-20026059D01*
X5513204Y-20167100D01*
X5598018Y-20294034D01*
X5705966Y-20401982D01*
X5822729Y-20480000D01*
X3152925Y-20480000D01*
X3147101Y-20460800D01*
X3125293Y-20420000D01*
X3147101Y-20379200D01*
X3168544Y-20308513D01*
X3175784Y-20235000D01*
X3175784Y-19335000D01*
X3168544Y-19261487D01*
X3147101Y-19190800D01*
X3125293Y-19150000D01*
X3147101Y-19109200D01*
X3152925Y-19090000D01*
X5476828Y-19090000D01*
X5625000Y-19238173D01*
G04 #@! TA.AperFunction,Conductor*
D16*
G36*
X5625000Y-19238173D02*
G01*
X5625000Y-19278984D01*
X5598018Y-19305966D01*
X5513204Y-19432900D01*
X5454783Y-19573941D01*
X5425000Y-19723669D01*
X5425000Y-19876331D01*
X5454783Y-20026059D01*
X5513204Y-20167100D01*
X5598018Y-20294034D01*
X5705966Y-20401982D01*
X5822729Y-20480000D01*
X3152925Y-20480000D01*
X3147101Y-20460800D01*
X3125293Y-20420000D01*
X3147101Y-20379200D01*
X3168544Y-20308513D01*
X3175784Y-20235000D01*
X3175784Y-19335000D01*
X3168544Y-19261487D01*
X3147101Y-19190800D01*
X3125293Y-19150000D01*
X3147101Y-19109200D01*
X3152925Y-19090000D01*
X5476828Y-19090000D01*
X5625000Y-19238173D01*
G37*
G04 #@! TD.AperFunction*
D15*
X8825000Y-8038173D02*
X8825000Y-8078984D01*
X8798018Y-8105966D01*
X8713204Y-8232900D01*
X8654783Y-8373941D01*
X8625000Y-8523669D01*
X8625000Y-8676331D01*
X8654783Y-8826059D01*
X8713204Y-8967100D01*
X8768596Y-9050000D01*
X3152925Y-9050000D01*
X3147101Y-9030800D01*
X3125293Y-8990000D01*
X3147101Y-8949200D01*
X3168544Y-8878513D01*
X3175784Y-8805000D01*
X3173970Y-8473750D01*
X3080220Y-8380000D01*
X1723970Y-8380000D01*
X1723970Y-8400000D01*
X1673970Y-8400000D01*
X1673970Y-8380000D01*
X1653970Y-8380000D01*
X1653970Y-8330000D01*
X1673970Y-8330000D01*
X1673970Y-8310000D01*
X1723970Y-8310000D01*
X1723970Y-8330000D01*
X3080220Y-8330000D01*
X3173970Y-8236250D01*
X3175784Y-7905000D01*
X3168544Y-7831487D01*
X3147101Y-7760800D01*
X3125293Y-7720000D01*
X3147101Y-7679200D01*
X3152925Y-7660000D01*
X8446828Y-7660000D01*
X8825000Y-8038173D01*
G04 #@! TA.AperFunction,Conductor*
D16*
G36*
X8825000Y-8038173D02*
G01*
X8825000Y-8078984D01*
X8798018Y-8105966D01*
X8713204Y-8232900D01*
X8654783Y-8373941D01*
X8625000Y-8523669D01*
X8625000Y-8676331D01*
X8654783Y-8826059D01*
X8713204Y-8967100D01*
X8768596Y-9050000D01*
X3152925Y-9050000D01*
X3147101Y-9030800D01*
X3125293Y-8990000D01*
X3147101Y-8949200D01*
X3168544Y-8878513D01*
X3175784Y-8805000D01*
X3173970Y-8473750D01*
X3080220Y-8380000D01*
X1723970Y-8380000D01*
X1723970Y-8400000D01*
X1673970Y-8400000D01*
X1673970Y-8380000D01*
X1653970Y-8380000D01*
X1653970Y-8330000D01*
X1673970Y-8330000D01*
X1673970Y-8310000D01*
X1723970Y-8310000D01*
X1723970Y-8330000D01*
X3080220Y-8330000D01*
X3173970Y-8236250D01*
X3175784Y-7905000D01*
X3168544Y-7831487D01*
X3147101Y-7760800D01*
X3125293Y-7720000D01*
X3147101Y-7679200D01*
X3152925Y-7660000D01*
X8446828Y-7660000D01*
X8825000Y-8038173D01*
G37*
G04 #@! TD.AperFunction*
D15*
X18350001Y-2479419D02*
X18345230Y-2476869D01*
X18274543Y-2455426D01*
X18201030Y-2448186D01*
X16001030Y-2448186D01*
X15927517Y-2455426D01*
X15856830Y-2476869D01*
X15791683Y-2511691D01*
X15734582Y-2558552D01*
X15687721Y-2615653D01*
X15652899Y-2680800D01*
X15631456Y-2751487D01*
X15624216Y-2825000D01*
X15624216Y-3725000D01*
X15631456Y-3798513D01*
X15652899Y-3869200D01*
X15674707Y-3910000D01*
X15652899Y-3950800D01*
X15647075Y-3970000D01*
X4652102Y-3970000D01*
X4567100Y-3913204D01*
X4426059Y-3854783D01*
X4276331Y-3825000D01*
X4123669Y-3825000D01*
X3973941Y-3854783D01*
X3832900Y-3913204D01*
X3705966Y-3998018D01*
X3598018Y-4105966D01*
X3513204Y-4232900D01*
X3454783Y-4373941D01*
X3425000Y-4523669D01*
X3425000Y-4676331D01*
X3454783Y-4826059D01*
X3513204Y-4967100D01*
X3598018Y-5094034D01*
X3705966Y-5201982D01*
X3832900Y-5286796D01*
X3973941Y-5345217D01*
X4123669Y-5375000D01*
X4276331Y-5375000D01*
X4426059Y-5345217D01*
X4567100Y-5286796D01*
X4694034Y-5201982D01*
X4776016Y-5120000D01*
X4822729Y-5120000D01*
X4705966Y-5198018D01*
X4598018Y-5305966D01*
X4513204Y-5432900D01*
X4454783Y-5573941D01*
X4425000Y-5723669D01*
X4425000Y-5876331D01*
X4454783Y-6026059D01*
X4513204Y-6167100D01*
X4598018Y-6294034D01*
X4705966Y-6401982D01*
X4832900Y-6486796D01*
X4888920Y-6510000D01*
X3152925Y-6510000D01*
X3147101Y-6490800D01*
X3125293Y-6450000D01*
X3147101Y-6409200D01*
X3168544Y-6338513D01*
X3175784Y-6265000D01*
X3175784Y-5365000D01*
X3168544Y-5291487D01*
X3147101Y-5220800D01*
X3125293Y-5180000D01*
X3147101Y-5139200D01*
X3168544Y-5068513D01*
X3175784Y-4995000D01*
X3175784Y-4095000D01*
X3168544Y-4021487D01*
X3147101Y-3950800D01*
X3125293Y-3910000D01*
X3147101Y-3869200D01*
X3168544Y-3798513D01*
X3175784Y-3725000D01*
X3175784Y-2825000D01*
X3168544Y-2751487D01*
X3147101Y-2680800D01*
X3112279Y-2615653D01*
X3065418Y-2558552D01*
X3008317Y-2511691D01*
X2943170Y-2476869D01*
X2872483Y-2455426D01*
X2798970Y-2448186D01*
X598970Y-2448186D01*
X525457Y-2455426D01*
X454770Y-2476869D01*
X450000Y-2479419D01*
X450000Y-450000D01*
X18350001Y-450000D01*
X18350001Y-2479419D01*
G04 #@! TA.AperFunction,Conductor*
D16*
G36*
X18350001Y-2479419D02*
G01*
X18345230Y-2476869D01*
X18274543Y-2455426D01*
X18201030Y-2448186D01*
X16001030Y-2448186D01*
X15927517Y-2455426D01*
X15856830Y-2476869D01*
X15791683Y-2511691D01*
X15734582Y-2558552D01*
X15687721Y-2615653D01*
X15652899Y-2680800D01*
X15631456Y-2751487D01*
X15624216Y-2825000D01*
X15624216Y-3725000D01*
X15631456Y-3798513D01*
X15652899Y-3869200D01*
X15674707Y-3910000D01*
X15652899Y-3950800D01*
X15647075Y-3970000D01*
X4652102Y-3970000D01*
X4567100Y-3913204D01*
X4426059Y-3854783D01*
X4276331Y-3825000D01*
X4123669Y-3825000D01*
X3973941Y-3854783D01*
X3832900Y-3913204D01*
X3705966Y-3998018D01*
X3598018Y-4105966D01*
X3513204Y-4232900D01*
X3454783Y-4373941D01*
X3425000Y-4523669D01*
X3425000Y-4676331D01*
X3454783Y-4826059D01*
X3513204Y-4967100D01*
X3598018Y-5094034D01*
X3705966Y-5201982D01*
X3832900Y-5286796D01*
X3973941Y-5345217D01*
X4123669Y-5375000D01*
X4276331Y-5375000D01*
X4426059Y-5345217D01*
X4567100Y-5286796D01*
X4694034Y-5201982D01*
X4776016Y-5120000D01*
X4822729Y-5120000D01*
X4705966Y-5198018D01*
X4598018Y-5305966D01*
X4513204Y-5432900D01*
X4454783Y-5573941D01*
X4425000Y-5723669D01*
X4425000Y-5876331D01*
X4454783Y-6026059D01*
X4513204Y-6167100D01*
X4598018Y-6294034D01*
X4705966Y-6401982D01*
X4832900Y-6486796D01*
X4888920Y-6510000D01*
X3152925Y-6510000D01*
X3147101Y-6490800D01*
X3125293Y-6450000D01*
X3147101Y-6409200D01*
X3168544Y-6338513D01*
X3175784Y-6265000D01*
X3175784Y-5365000D01*
X3168544Y-5291487D01*
X3147101Y-5220800D01*
X3125293Y-5180000D01*
X3147101Y-5139200D01*
X3168544Y-5068513D01*
X3175784Y-4995000D01*
X3175784Y-4095000D01*
X3168544Y-4021487D01*
X3147101Y-3950800D01*
X3125293Y-3910000D01*
X3147101Y-3869200D01*
X3168544Y-3798513D01*
X3175784Y-3725000D01*
X3175784Y-2825000D01*
X3168544Y-2751487D01*
X3147101Y-2680800D01*
X3112279Y-2615653D01*
X3065418Y-2558552D01*
X3008317Y-2511691D01*
X2943170Y-2476869D01*
X2872483Y-2455426D01*
X2798970Y-2448186D01*
X598970Y-2448186D01*
X525457Y-2455426D01*
X454770Y-2476869D01*
X450000Y-2479419D01*
X450000Y-450000D01*
X18350001Y-450000D01*
X18350001Y-2479419D01*
G37*
G04 #@! TD.AperFunction*
M02*
