M48
; DRILL file {KiCad (5.1.9)-1} date 02/14/23 09:35:53
; FORMAT={-:-/ absolute / inch / decimal}
; #@! TF.CreationDate,2023-02-14T09:35:53+01:00
; #@! TF.GenerationSoftware,Kicad,Pcbnew,(5.1.9)-1
; #@! TF.FileFunction,Plated,1,2,PTH
FMAT,2
INCH
T1C0.0157
T2C0.0394
T3C0.0591
%
G90
G05
T1
X0.0866Y-1.3543
X0.126Y-0.3287
X0.126Y-0.4783
X0.1457Y-0.7795
X0.1654Y-0.8819
X0.1654Y-0.1811
X0.2047Y-0.2283
X0.2047Y-0.8819
X0.2126Y-1.3543
X0.2126Y-1.5039
X0.2441Y-0.7795
X0.2441Y-0.8819
X0.2697Y-1.3209
X0.2815Y-0.9409
X0.3583Y-0.8819
X0.3701Y-0.1299
X0.3701Y-0.3386
X0.3701Y-0.7205
X0.4685Y-1.3819
X0.5906Y-1.2835
X0.5906Y-1.3858
X0.6142Y-0.378
X0.6142Y-0.4291
X0.6142Y-0.5295
T2
X0.2201Y-1.1626
X0.2201Y-1.2626
X0.3201Y-1.1626
X0.3201Y-1.2626
X0.4201Y-1.1626
X0.4201Y-1.2626
X0.5201Y-1.1626
X0.5201Y-1.2626
T3
X0.1951Y-1.6957
X0.2451Y-1.5957
X0.2951Y-1.6957
X0.3451Y-1.5957
X0.3951Y-1.6957
X0.4451Y-1.5957
X0.4951Y-1.6957
X0.5451Y-1.5957
T0
M30
